M48
;DRILL file {Pcbnew (2013-mar-13)-testing} date Tue 02 Jul 2013 12:52:33 AM CEST
;FORMAT={-:-/ absolute / inch / decimal}
FMAT,2
INCH,TZ
T1C0.025
T2C0.033
T3C0.039
T4C0.043
%
G90
G05
M72
T1
X2.5669Y-3.815
X2.5866Y-3.378
X2.5945Y-3.2087
X2.6024Y-4.0669
X2.6339Y-3.0906
X2.6378Y-3.815
X2.6772Y-3.0984
X2.685Y-2.815
X2.689Y-3.5591
X2.7165Y-3.6417
X2.7283Y-3.7087
X2.7402Y-3.4961
X2.7638Y-3.5984
X2.7992Y-3.5748
X2.8346Y-3.1614
X2.8465Y-4.0591
X2.8504Y-4.3425
X2.8583Y-3.7126
X2.874Y-3.2559
X2.9134Y-3.9764
X2.9134Y-4.3425
X2.9409Y-2.8031
X2.9488Y-3.1969
X2.9528Y-3.2559
X2.9528Y-4.0157
X2.9567Y-3.7559
X2.9764Y-3.4606
X2.9921Y-2.9134
X3.0079Y-4.1142
X3.0709Y-4.0157
X3.0827Y-4.063
X3.1102Y-3.9764
X3.1142Y-3.5315
X3.1299Y-2.8346
X3.1772Y-2.8268
X3.1969Y-3.1535
X3.2323Y-2.6339
X3.2323Y-4.2205
X3.248Y-3.3701
X3.2638Y-2.8268
X3.2638Y-3.1024
X3.2835Y-2.7874
X3.2992Y-3.2126
X3.3228Y-2.8583
X3.3346Y-3.6417
X3.3346Y-3.7047
X3.3346Y-3.7598
X3.3701Y-2.6339
X3.378Y-4.2165
X3.3937Y-3.189
X3.3976Y-3.0827
X3.4528Y-3.7047
X3.5079Y-2.6299
X3.5157Y-4.2205
X3.5906Y-2.9449
X3.5945Y-2.9961
X3.5945Y-3.0984
X3.6378Y-2.6299
X3.6417Y-3.1102
X3.6417Y-3.1614
X3.6772Y-3.189
X3.689Y-2.6535
X3.7362Y-4.0906
X3.7402Y-3.0866
X3.7402Y-3.5866
X3.7441Y-2.6969
X3.7441Y-2.8031
X3.7441Y-2.9449
X3.7441Y-3.311
X3.7441Y-3.4488
X3.7441Y-3.815
X3.748Y-3.1929
X3.748Y-3.9528
X3.7559Y-3.6929
T2
X2.8858Y-2.5102
X2.8858Y-2.7102
T3
X2.57Y-2.51
X2.57Y-2.61
X2.57Y-2.71
X2.57Y-2.81
X2.57Y-2.91
X2.57Y-3.01
X2.7244Y-3.1598
X2.7244Y-3.2598
X2.7244Y-3.3598
X3.225Y-2.5
X3.225Y-4.35
X3.325Y-2.5
X3.325Y-4.35
X3.425Y-2.5
X3.425Y-4.35
X3.525Y-2.5
X3.525Y-4.35
X3.875Y-2.8
X3.875Y-2.9
X3.875Y-3.
X3.875Y-3.1
X3.875Y-3.3
X3.875Y-3.4
X3.875Y-3.5
X3.875Y-3.6
X3.875Y-3.8
X3.875Y-3.9
X3.875Y-4.
X3.875Y-4.1
T4
X2.61Y-4.35
X2.71Y-4.35
T0
M30
