G04 (created by PCBNEW (2013-mar-13)-testing) date Tue 02 Jul 2013 08:12:50 AM CEST*
%MOIN*%
G04 Gerber Fmt 3.4, Leading zero omitted, Abs format*
%FSLAX34Y34*%
G01*
G70*
G90*
G04 APERTURE LIST*
%ADD10C,0.006*%
%ADD11C,0.008*%
%ADD12C,0.005*%
%ADD13C,0.012*%
%ADD14C,0.0059*%
%ADD15C,0.0098*%
%ADD16C,0.01*%
%ADD17C,0.0079*%
%ADD18C,0.0047*%
%ADD19C,0.0016*%
%ADD20C,0.0039*%
%ADD21R,0.144X0.08*%
%ADD22R,0.04X0.08*%
%ADD23R,0.0768X0.0984*%
%ADD24R,0.0354X0.0394*%
%ADD25R,0.0394X0.0354*%
%ADD26R,0.0394X0.0236*%
%ADD27R,0.0236X0.0394*%
%ADD28R,0.0866X0.06*%
%ADD29O,0.0866X0.06*%
%ADD30R,0.06X0.0866*%
%ADD31O,0.06X0.0866*%
%ADD32R,0.0118X0.0512*%
%ADD33R,0.0512X0.0118*%
%ADD34C,0.0787*%
%ADD35R,0.0314X0.0314*%
%ADD36R,0.0394X0.0787*%
%ADD37R,0.0747X0.0462*%
%ADD38R,0.0747X0.0935*%
%ADD39R,0.0827X0.058*%
%ADD40R,0.0543X0.0177*%
%ADD41R,0.0138X0.0473*%
%ADD42R,0.0137X0.0473*%
%ADD43R,0.0473X0.0138*%
%ADD44R,0.0473X0.0137*%
%ADD45R,0.0956X0.0956*%
%ADD46R,0.1417X0.063*%
%ADD47O,0.0787X0.0787*%
%ADD48R,0.0787X0.0787*%
G04 APERTURE END LIST*
G54D10*
G54D11*
X28700Y-41200D02*
X28700Y-42400D01*
X28700Y-42400D02*
X31500Y-42400D01*
X31500Y-42400D02*
X31500Y-41200D01*
X28700Y-40000D02*
X28700Y-39700D01*
X28700Y-39700D02*
X29300Y-38800D01*
X29300Y-38800D02*
X30900Y-38800D01*
X30900Y-38800D02*
X31500Y-39700D01*
X31500Y-39700D02*
X31500Y-40000D01*
G54D12*
X32225Y-39850D02*
X32225Y-38750D01*
X32000Y-39850D02*
X33400Y-39850D01*
X33400Y-39850D02*
X33400Y-38750D01*
X33400Y-38750D02*
X32000Y-38750D01*
X32000Y-38750D02*
X32000Y-39850D01*
X27875Y-38950D02*
X27875Y-40050D01*
X28100Y-38950D02*
X26700Y-38950D01*
X26700Y-38950D02*
X26700Y-40050D01*
X26700Y-40050D02*
X28100Y-40050D01*
X28100Y-40050D02*
X28100Y-38950D01*
X28323Y-29564D02*
X28323Y-29884D01*
X28763Y-29874D02*
X28763Y-29564D01*
X28863Y-29884D02*
X28223Y-29884D01*
X28223Y-29884D02*
X28223Y-29564D01*
X28223Y-29564D02*
X28863Y-29564D01*
X28863Y-29564D02*
X28863Y-29884D01*
X28060Y-37180D02*
X27740Y-37180D01*
X27750Y-37620D02*
X28060Y-37620D01*
X27740Y-37720D02*
X27740Y-37080D01*
X27740Y-37080D02*
X28060Y-37080D01*
X28060Y-37080D02*
X28060Y-37720D01*
X28060Y-37720D02*
X27740Y-37720D01*
X31780Y-28590D02*
X31780Y-28910D01*
X32220Y-28900D02*
X32220Y-28590D01*
X32320Y-28910D02*
X31680Y-28910D01*
X31680Y-28910D02*
X31680Y-28590D01*
X31680Y-28590D02*
X32320Y-28590D01*
X32320Y-28590D02*
X32320Y-28910D01*
X33470Y-33910D02*
X33470Y-33590D01*
X33030Y-33600D02*
X33030Y-33910D01*
X32930Y-33590D02*
X33570Y-33590D01*
X33570Y-33590D02*
X33570Y-33910D01*
X33570Y-33910D02*
X32930Y-33910D01*
X32930Y-33910D02*
X32930Y-33590D01*
X35435Y-29701D02*
X35115Y-29701D01*
X35125Y-30141D02*
X35435Y-30141D01*
X35115Y-30241D02*
X35115Y-29601D01*
X35115Y-29601D02*
X35435Y-29601D01*
X35435Y-29601D02*
X35435Y-30241D01*
X35435Y-30241D02*
X35115Y-30241D01*
X30340Y-32470D02*
X30660Y-32470D01*
X30650Y-32030D02*
X30340Y-32030D01*
X30660Y-31930D02*
X30660Y-32570D01*
X30660Y-32570D02*
X30340Y-32570D01*
X30340Y-32570D02*
X30340Y-31930D01*
X30340Y-31930D02*
X30660Y-31930D01*
X32480Y-38340D02*
X32480Y-38660D01*
X32920Y-38650D02*
X32920Y-38340D01*
X33020Y-38660D02*
X32380Y-38660D01*
X32380Y-38660D02*
X32380Y-38340D01*
X32380Y-38340D02*
X33020Y-38340D01*
X33020Y-38340D02*
X33020Y-38660D01*
X29020Y-37860D02*
X29020Y-37540D01*
X28580Y-37550D02*
X28580Y-37860D01*
X28480Y-37540D02*
X29120Y-37540D01*
X29120Y-37540D02*
X29120Y-37860D01*
X29120Y-37860D02*
X28480Y-37860D01*
X28480Y-37860D02*
X28480Y-37540D01*
X37126Y-30689D02*
X36866Y-30689D01*
X37126Y-29939D02*
X36866Y-29939D01*
X37676Y-30314D02*
X37936Y-30314D01*
X37676Y-29724D02*
X37676Y-30904D01*
X37676Y-30904D02*
X37126Y-30904D01*
X37126Y-30904D02*
X37126Y-29724D01*
X37126Y-29724D02*
X37676Y-29724D01*
X35254Y-41850D02*
X35254Y-41590D01*
X36004Y-41850D02*
X36004Y-41590D01*
X35629Y-42400D02*
X35629Y-42660D01*
X36219Y-42400D02*
X35039Y-42400D01*
X35039Y-42400D02*
X35039Y-41850D01*
X35039Y-41850D02*
X36219Y-41850D01*
X36219Y-41850D02*
X36219Y-42400D01*
X37126Y-40729D02*
X36866Y-40729D01*
X37126Y-39979D02*
X36866Y-39979D01*
X37676Y-40354D02*
X37936Y-40354D01*
X37676Y-39764D02*
X37676Y-40944D01*
X37676Y-40944D02*
X37126Y-40944D01*
X37126Y-40944D02*
X37126Y-39764D01*
X37126Y-39764D02*
X37676Y-39764D01*
X37126Y-39351D02*
X36866Y-39351D01*
X37126Y-38601D02*
X36866Y-38601D01*
X37676Y-38976D02*
X37936Y-38976D01*
X37676Y-38386D02*
X37676Y-39566D01*
X37676Y-39566D02*
X37126Y-39566D01*
X37126Y-39566D02*
X37126Y-38386D01*
X37126Y-38386D02*
X37676Y-38386D01*
X37126Y-37973D02*
X36866Y-37973D01*
X37126Y-37223D02*
X36866Y-37223D01*
X37676Y-37598D02*
X37936Y-37598D01*
X37676Y-37008D02*
X37676Y-38188D01*
X37676Y-38188D02*
X37126Y-38188D01*
X37126Y-38188D02*
X37126Y-37008D01*
X37126Y-37008D02*
X37676Y-37008D01*
X33876Y-41850D02*
X33876Y-41590D01*
X34626Y-41850D02*
X34626Y-41590D01*
X34251Y-42400D02*
X34251Y-42660D01*
X34841Y-42400D02*
X33661Y-42400D01*
X33661Y-42400D02*
X33661Y-41850D01*
X33661Y-41850D02*
X34841Y-41850D01*
X34841Y-41850D02*
X34841Y-42400D01*
X35020Y-26652D02*
X35020Y-26912D01*
X34270Y-26652D02*
X34270Y-26912D01*
X34645Y-26102D02*
X34645Y-25842D01*
X34055Y-26102D02*
X35235Y-26102D01*
X35235Y-26102D02*
X35235Y-26652D01*
X35235Y-26652D02*
X34055Y-26652D01*
X34055Y-26652D02*
X34055Y-26102D01*
X33642Y-26652D02*
X33642Y-26912D01*
X32892Y-26652D02*
X32892Y-26912D01*
X33267Y-26102D02*
X33267Y-25842D01*
X32677Y-26102D02*
X33857Y-26102D01*
X33857Y-26102D02*
X33857Y-26652D01*
X33857Y-26652D02*
X32677Y-26652D01*
X32677Y-26652D02*
X32677Y-26102D01*
X32264Y-26652D02*
X32264Y-26912D01*
X31514Y-26652D02*
X31514Y-26912D01*
X31889Y-26102D02*
X31889Y-25842D01*
X31299Y-26102D02*
X32479Y-26102D01*
X32479Y-26102D02*
X32479Y-26652D01*
X32479Y-26652D02*
X31299Y-26652D01*
X31299Y-26652D02*
X31299Y-26102D01*
X37126Y-29312D02*
X36866Y-29312D01*
X37126Y-28562D02*
X36866Y-28562D01*
X37676Y-28937D02*
X37936Y-28937D01*
X37676Y-28347D02*
X37676Y-29527D01*
X37676Y-29527D02*
X37126Y-29527D01*
X37126Y-29527D02*
X37126Y-28347D01*
X37126Y-28347D02*
X37676Y-28347D01*
X37126Y-27934D02*
X36866Y-27934D01*
X37126Y-27184D02*
X36866Y-27184D01*
X37676Y-27559D02*
X37936Y-27559D01*
X37676Y-26969D02*
X37676Y-28149D01*
X37676Y-28149D02*
X37126Y-28149D01*
X37126Y-28149D02*
X37126Y-26969D01*
X37126Y-26969D02*
X37676Y-26969D01*
X37126Y-35709D02*
X36866Y-35709D01*
X37126Y-34959D02*
X36866Y-34959D01*
X37676Y-35334D02*
X37936Y-35334D01*
X37676Y-34744D02*
X37676Y-35924D01*
X37676Y-35924D02*
X37126Y-35924D01*
X37126Y-35924D02*
X37126Y-34744D01*
X37126Y-34744D02*
X37676Y-34744D01*
X37126Y-34331D02*
X36866Y-34331D01*
X37126Y-33581D02*
X36866Y-33581D01*
X37676Y-33956D02*
X37936Y-33956D01*
X37676Y-33366D02*
X37676Y-34546D01*
X37676Y-34546D02*
X37126Y-34546D01*
X37126Y-34546D02*
X37126Y-33366D01*
X37126Y-33366D02*
X37676Y-33366D01*
X37126Y-32953D02*
X36866Y-32953D01*
X37126Y-32203D02*
X36866Y-32203D01*
X37676Y-32578D02*
X37936Y-32578D01*
X37676Y-31988D02*
X37676Y-33168D01*
X37676Y-33168D02*
X37126Y-33168D01*
X37126Y-33168D02*
X37126Y-31988D01*
X37126Y-31988D02*
X37676Y-31988D01*
X32499Y-41850D02*
X32499Y-41590D01*
X33249Y-41850D02*
X33249Y-41590D01*
X32874Y-42400D02*
X32874Y-42660D01*
X33464Y-42400D02*
X32284Y-42400D01*
X32284Y-42400D02*
X32284Y-41850D01*
X32284Y-41850D02*
X33464Y-41850D01*
X33464Y-41850D02*
X33464Y-42400D01*
X29979Y-28780D02*
X29979Y-28520D01*
X30729Y-28780D02*
X30729Y-28520D01*
X30354Y-29330D02*
X30354Y-29590D01*
X30944Y-29330D02*
X29764Y-29330D01*
X29764Y-29330D02*
X29764Y-28780D01*
X29764Y-28780D02*
X30944Y-28780D01*
X30944Y-28780D02*
X30944Y-29330D01*
G54D13*
X38250Y-35500D02*
X39250Y-35500D01*
X39250Y-32500D02*
X39250Y-36500D01*
X38250Y-36500D02*
X38250Y-32500D01*
X39250Y-36500D02*
X38250Y-36500D01*
X38250Y-32500D02*
X39250Y-32500D01*
X38250Y-30500D02*
X39250Y-30500D01*
X39250Y-27500D02*
X39250Y-31500D01*
X38250Y-31500D02*
X38250Y-27500D01*
X39250Y-31500D02*
X38250Y-31500D01*
X38250Y-27500D02*
X39250Y-27500D01*
X34750Y-25500D02*
X34750Y-24500D01*
X31750Y-24500D02*
X35750Y-24500D01*
X35750Y-25500D02*
X31750Y-25500D01*
X35750Y-24500D02*
X35750Y-25500D01*
X31750Y-25500D02*
X31750Y-24500D01*
X38250Y-40500D02*
X39250Y-40500D01*
X39250Y-37500D02*
X39250Y-41500D01*
X38250Y-41500D02*
X38250Y-37500D01*
X39250Y-41500D02*
X38250Y-41500D01*
X38250Y-37500D02*
X39250Y-37500D01*
X32750Y-43000D02*
X32750Y-44000D01*
X35750Y-44000D02*
X31750Y-44000D01*
X31750Y-43000D02*
X35750Y-43000D01*
X31750Y-44000D02*
X31750Y-43000D01*
X35750Y-43000D02*
X35750Y-44000D01*
X26744Y-32098D02*
X27744Y-32098D01*
X27744Y-31098D02*
X27744Y-34098D01*
X27744Y-34098D02*
X26744Y-34098D01*
X26744Y-34098D02*
X26744Y-31098D01*
X26744Y-31098D02*
X27744Y-31098D01*
X25200Y-29600D02*
X26200Y-29600D01*
X26200Y-30600D02*
X25200Y-30600D01*
X25200Y-30600D02*
X25200Y-24600D01*
X25200Y-24600D02*
X26200Y-24600D01*
X26200Y-24600D02*
X26200Y-30600D01*
G54D14*
X31386Y-32785D02*
X31465Y-32864D01*
X31543Y-32864D02*
X31386Y-32707D01*
X31386Y-32628D02*
X31622Y-32864D01*
X31701Y-32864D02*
X31386Y-32549D01*
X31780Y-32864D02*
X31386Y-32864D01*
X31386Y-32864D02*
X31386Y-32470D01*
X31386Y-32470D02*
X31780Y-32864D01*
X34614Y-32470D02*
X34614Y-32864D01*
X34614Y-32864D02*
X34220Y-32864D01*
X34220Y-29636D02*
X34614Y-29636D01*
X34614Y-29636D02*
X34614Y-30030D01*
X31386Y-30030D02*
X31386Y-29636D01*
X31386Y-29636D02*
X31780Y-29636D01*
G54D12*
X32161Y-32200D02*
G75*
G03X32161Y-32200I-111J0D01*
G74*
G01*
X34400Y-32500D02*
X34250Y-32650D01*
X34250Y-32650D02*
X31750Y-32650D01*
X31750Y-32650D02*
X31600Y-32500D01*
X31600Y-32500D02*
X31600Y-30000D01*
X31600Y-30000D02*
X31750Y-29850D01*
X31750Y-29850D02*
X34250Y-29850D01*
X34250Y-29850D02*
X34400Y-30000D01*
X34400Y-30000D02*
X34400Y-32500D01*
G54D15*
X29738Y-24602D02*
X27978Y-24602D01*
X29738Y-27602D02*
X27978Y-27602D01*
G54D16*
X27978Y-27602D02*
X27978Y-24602D01*
X29738Y-24602D02*
X29738Y-27602D01*
G54D12*
X32718Y-35997D02*
X32718Y-35603D01*
X32482Y-35603D02*
X32482Y-35997D01*
X32600Y-35839D02*
X32600Y-35761D01*
X32561Y-35721D02*
X32561Y-35879D01*
X32561Y-35879D02*
X32639Y-35800D01*
X32639Y-35800D02*
X32561Y-35721D01*
X32285Y-35603D02*
X32915Y-35603D01*
X32915Y-35603D02*
X32915Y-35997D01*
X32915Y-35997D02*
X32285Y-35997D01*
X32285Y-35997D02*
X32285Y-35603D01*
X32718Y-36597D02*
X32718Y-36203D01*
X32482Y-36203D02*
X32482Y-36597D01*
X32600Y-36439D02*
X32600Y-36361D01*
X32561Y-36321D02*
X32561Y-36479D01*
X32561Y-36479D02*
X32639Y-36400D01*
X32639Y-36400D02*
X32561Y-36321D01*
X32285Y-36203D02*
X32915Y-36203D01*
X32915Y-36203D02*
X32915Y-36597D01*
X32915Y-36597D02*
X32285Y-36597D01*
X32285Y-36597D02*
X32285Y-36203D01*
X32718Y-37197D02*
X32718Y-36803D01*
X32482Y-36803D02*
X32482Y-37197D01*
X32600Y-37039D02*
X32600Y-36961D01*
X32561Y-36921D02*
X32561Y-37079D01*
X32561Y-37079D02*
X32639Y-37000D01*
X32639Y-37000D02*
X32561Y-36921D01*
X32285Y-36803D02*
X32915Y-36803D01*
X32915Y-36803D02*
X32915Y-37197D01*
X32915Y-37197D02*
X32285Y-37197D01*
X32285Y-37197D02*
X32285Y-36803D01*
X32718Y-37797D02*
X32718Y-37403D01*
X32482Y-37403D02*
X32482Y-37797D01*
X32600Y-37639D02*
X32600Y-37561D01*
X32561Y-37521D02*
X32561Y-37679D01*
X32561Y-37679D02*
X32639Y-37600D01*
X32639Y-37600D02*
X32561Y-37521D01*
X32285Y-37403D02*
X32915Y-37403D01*
X32915Y-37403D02*
X32915Y-37797D01*
X32915Y-37797D02*
X32285Y-37797D01*
X32285Y-37797D02*
X32285Y-37403D01*
X27698Y-40314D02*
X27698Y-40944D01*
X27648Y-40944D02*
X27648Y-40314D01*
X27598Y-40314D02*
X27598Y-40944D01*
X28013Y-40314D02*
X26553Y-40314D01*
X26553Y-40314D02*
X26553Y-40944D01*
X26553Y-40944D02*
X28013Y-40944D01*
X28013Y-40944D02*
X28013Y-40314D01*
X27698Y-41259D02*
X27698Y-41889D01*
X27648Y-41889D02*
X27648Y-41259D01*
X27598Y-41259D02*
X27598Y-41889D01*
X28013Y-41259D02*
X26553Y-41259D01*
X26553Y-41259D02*
X26553Y-41889D01*
X26553Y-41889D02*
X28013Y-41889D01*
X28013Y-41889D02*
X28013Y-41259D01*
X36577Y-28717D02*
X36257Y-28717D01*
X36267Y-29157D02*
X36577Y-29157D01*
X36257Y-29257D02*
X36257Y-28617D01*
X36257Y-28617D02*
X36577Y-28617D01*
X36577Y-28617D02*
X36577Y-29257D01*
X36577Y-29257D02*
X36257Y-29257D01*
X34425Y-27202D02*
X34425Y-27522D01*
X34865Y-27512D02*
X34865Y-27202D01*
X34965Y-27522D02*
X34325Y-27522D01*
X34325Y-27522D02*
X34325Y-27202D01*
X34325Y-27202D02*
X34965Y-27202D01*
X34965Y-27202D02*
X34965Y-27522D01*
X31280Y-36840D02*
X31280Y-37160D01*
X31720Y-37150D02*
X31720Y-36840D01*
X31820Y-37160D02*
X31180Y-37160D01*
X31180Y-37160D02*
X31180Y-36840D01*
X31180Y-36840D02*
X31820Y-36840D01*
X31820Y-36840D02*
X31820Y-37160D01*
X33047Y-27202D02*
X33047Y-27522D01*
X33487Y-27512D02*
X33487Y-27202D01*
X33587Y-27522D02*
X32947Y-27522D01*
X32947Y-27522D02*
X32947Y-27202D01*
X32947Y-27202D02*
X33587Y-27202D01*
X33587Y-27202D02*
X33587Y-27522D01*
X31280Y-36240D02*
X31280Y-36560D01*
X31720Y-36550D02*
X31720Y-36240D01*
X31820Y-36560D02*
X31180Y-36560D01*
X31180Y-36560D02*
X31180Y-36240D01*
X31180Y-36240D02*
X31820Y-36240D01*
X31820Y-36240D02*
X31820Y-36560D01*
X31669Y-27202D02*
X31669Y-27522D01*
X32109Y-27512D02*
X32109Y-27202D01*
X32209Y-27522D02*
X31569Y-27522D01*
X31569Y-27522D02*
X31569Y-27202D01*
X31569Y-27202D02*
X32209Y-27202D01*
X32209Y-27202D02*
X32209Y-27522D01*
X36577Y-30094D02*
X36257Y-30094D01*
X36267Y-30534D02*
X36577Y-30534D01*
X36257Y-30634D02*
X36257Y-29994D01*
X36257Y-29994D02*
X36577Y-29994D01*
X36577Y-29994D02*
X36577Y-30634D01*
X36577Y-30634D02*
X36257Y-30634D01*
X28763Y-28782D02*
X28763Y-28462D01*
X28323Y-28472D02*
X28323Y-28782D01*
X28223Y-28462D02*
X28863Y-28462D01*
X28863Y-28462D02*
X28863Y-28782D01*
X28863Y-28782D02*
X28223Y-28782D01*
X28223Y-28782D02*
X28223Y-28462D01*
X31280Y-35640D02*
X31280Y-35960D01*
X31720Y-35950D02*
X31720Y-35640D01*
X31820Y-35960D02*
X31180Y-35960D01*
X31180Y-35960D02*
X31180Y-35640D01*
X31180Y-35640D02*
X31820Y-35640D01*
X31820Y-35640D02*
X31820Y-35960D01*
X36945Y-31257D02*
X36945Y-31577D01*
X37385Y-31567D02*
X37385Y-31257D01*
X37485Y-31577D02*
X36845Y-31577D01*
X36845Y-31577D02*
X36845Y-31257D01*
X36845Y-31257D02*
X37485Y-31257D01*
X37485Y-31257D02*
X37485Y-31577D01*
X36577Y-27339D02*
X36257Y-27339D01*
X36267Y-27779D02*
X36577Y-27779D01*
X36257Y-27879D02*
X36257Y-27239D01*
X36257Y-27239D02*
X36577Y-27239D01*
X36577Y-27239D02*
X36577Y-27879D01*
X36577Y-27879D02*
X36257Y-27879D01*
X28580Y-34540D02*
X28580Y-34860D01*
X29020Y-34850D02*
X29020Y-34540D01*
X29120Y-34860D02*
X28480Y-34860D01*
X28480Y-34860D02*
X28480Y-34540D01*
X28480Y-34540D02*
X29120Y-34540D01*
X29120Y-34540D02*
X29120Y-34860D01*
X36577Y-35114D02*
X36257Y-35114D01*
X36267Y-35554D02*
X36577Y-35554D01*
X36257Y-35654D02*
X36257Y-35014D01*
X36257Y-35014D02*
X36577Y-35014D01*
X36577Y-35014D02*
X36577Y-35654D01*
X36577Y-35654D02*
X36257Y-35654D01*
X27740Y-35220D02*
X28060Y-35220D01*
X28050Y-34780D02*
X27740Y-34780D01*
X28060Y-34680D02*
X28060Y-35320D01*
X28060Y-35320D02*
X27740Y-35320D01*
X27740Y-35320D02*
X27740Y-34680D01*
X27740Y-34680D02*
X28060Y-34680D01*
X36577Y-33736D02*
X36257Y-33736D01*
X36267Y-34176D02*
X36577Y-34176D01*
X36257Y-34276D02*
X36257Y-33636D01*
X36257Y-33636D02*
X36577Y-33636D01*
X36577Y-33636D02*
X36577Y-34276D01*
X36577Y-34276D02*
X36257Y-34276D01*
X36577Y-32358D02*
X36257Y-32358D01*
X36267Y-32798D02*
X36577Y-32798D01*
X36257Y-32898D02*
X36257Y-32258D01*
X36257Y-32258D02*
X36577Y-32258D01*
X36577Y-32258D02*
X36577Y-32898D01*
X36577Y-32898D02*
X36257Y-32898D01*
X25810Y-32955D02*
X25810Y-32635D01*
X25370Y-32645D02*
X25370Y-32955D01*
X25270Y-32635D02*
X25910Y-32635D01*
X25910Y-32635D02*
X25910Y-32955D01*
X25910Y-32955D02*
X25270Y-32955D01*
X25270Y-32955D02*
X25270Y-32635D01*
X33094Y-41301D02*
X33094Y-40981D01*
X32654Y-40991D02*
X32654Y-41301D01*
X32554Y-40981D02*
X33194Y-40981D01*
X33194Y-40981D02*
X33194Y-41301D01*
X33194Y-41301D02*
X32554Y-41301D01*
X32554Y-41301D02*
X32554Y-40981D01*
X34471Y-41301D02*
X34471Y-40981D01*
X34031Y-40991D02*
X34031Y-41301D01*
X33931Y-40981D02*
X34571Y-40981D01*
X34571Y-40981D02*
X34571Y-41301D01*
X34571Y-41301D02*
X33931Y-41301D01*
X33931Y-41301D02*
X33931Y-40981D01*
X25810Y-33506D02*
X25810Y-33186D01*
X25370Y-33196D02*
X25370Y-33506D01*
X25270Y-33186D02*
X25910Y-33186D01*
X25910Y-33186D02*
X25910Y-33506D01*
X25910Y-33506D02*
X25270Y-33506D01*
X25270Y-33506D02*
X25270Y-33186D01*
X35849Y-41301D02*
X35849Y-40981D01*
X35409Y-40991D02*
X35409Y-41301D01*
X35309Y-40981D02*
X35949Y-40981D01*
X35949Y-40981D02*
X35949Y-41301D01*
X35949Y-41301D02*
X35309Y-41301D01*
X35309Y-41301D02*
X35309Y-40981D01*
X31280Y-37440D02*
X31280Y-37760D01*
X31720Y-37750D02*
X31720Y-37440D01*
X31820Y-37760D02*
X31180Y-37760D01*
X31180Y-37760D02*
X31180Y-37440D01*
X31180Y-37440D02*
X31820Y-37440D01*
X31820Y-37440D02*
X31820Y-37760D01*
X36577Y-40134D02*
X36257Y-40134D01*
X36267Y-40574D02*
X36577Y-40574D01*
X36257Y-40674D02*
X36257Y-40034D01*
X36257Y-40034D02*
X36577Y-40034D01*
X36577Y-40034D02*
X36577Y-40674D01*
X36577Y-40674D02*
X36257Y-40674D01*
X28763Y-29333D02*
X28763Y-29013D01*
X28323Y-29023D02*
X28323Y-29333D01*
X28223Y-29013D02*
X28863Y-29013D01*
X28863Y-29013D02*
X28863Y-29333D01*
X28863Y-29333D02*
X28223Y-29333D01*
X28223Y-29333D02*
X28223Y-29013D01*
X36577Y-38756D02*
X36257Y-38756D01*
X36267Y-39196D02*
X36577Y-39196D01*
X36257Y-39296D02*
X36257Y-38656D01*
X36257Y-38656D02*
X36577Y-38656D01*
X36577Y-38656D02*
X36577Y-39296D01*
X36577Y-39296D02*
X36257Y-39296D01*
X29249Y-29117D02*
X29569Y-29117D01*
X29559Y-28677D02*
X29249Y-28677D01*
X29569Y-28577D02*
X29569Y-29217D01*
X29569Y-29217D02*
X29249Y-29217D01*
X29249Y-29217D02*
X29249Y-28577D01*
X29249Y-28577D02*
X29569Y-28577D01*
X36577Y-37378D02*
X36257Y-37378D01*
X36267Y-37818D02*
X36577Y-37818D01*
X36257Y-37918D02*
X36257Y-37278D01*
X36257Y-37278D02*
X36577Y-37278D01*
X36577Y-37278D02*
X36577Y-37918D01*
X36577Y-37918D02*
X36257Y-37918D01*
G54D17*
X24409Y-34566D02*
X24409Y-37874D01*
X24369Y-34566D02*
X24369Y-37874D01*
X24369Y-37874D02*
X24448Y-37874D01*
X24448Y-37874D02*
X24448Y-34566D01*
X24448Y-34566D02*
X24369Y-34566D01*
X24369Y-34685D02*
X26338Y-34685D01*
X26338Y-34685D02*
X26338Y-37755D01*
X26338Y-37755D02*
X24369Y-37755D01*
G54D12*
X30107Y-35393D02*
X30107Y-35630D01*
X30107Y-35393D02*
X29870Y-35393D01*
X29870Y-35393D02*
X30107Y-35630D01*
X28493Y-35393D02*
X28730Y-35393D01*
X28493Y-35393D02*
X28493Y-35630D01*
X28493Y-35630D02*
X28493Y-35630D01*
X28493Y-37007D02*
X28493Y-36770D01*
X28493Y-37007D02*
X28730Y-37007D01*
X28730Y-37007D02*
X28730Y-37007D01*
X30107Y-37007D02*
X29870Y-37007D01*
X30107Y-37007D02*
X30107Y-36770D01*
X30107Y-36770D02*
X30107Y-36770D01*
X29840Y-32470D02*
X30160Y-32470D01*
X30150Y-32030D02*
X29840Y-32030D01*
X30160Y-31930D02*
X30160Y-32570D01*
X30160Y-32570D02*
X29840Y-32570D01*
X29840Y-32570D02*
X29840Y-31930D01*
X29840Y-31930D02*
X30160Y-31930D01*
X29020Y-38460D02*
X29020Y-38140D01*
X28580Y-38150D02*
X28580Y-38460D01*
X28480Y-38140D02*
X29120Y-38140D01*
X29120Y-38140D02*
X29120Y-38460D01*
X29120Y-38460D02*
X28480Y-38460D01*
X28480Y-38460D02*
X28480Y-38140D01*
X28450Y-43700D02*
X28450Y-44300D01*
X28500Y-44450D02*
X28500Y-43550D01*
X28550Y-43450D02*
X28550Y-44550D01*
X28600Y-44650D02*
X28600Y-43350D01*
X28650Y-43300D02*
X28650Y-44700D01*
X30800Y-44000D02*
G75*
G03X30800Y-44000I-1200J0D01*
G74*
G01*
X28300Y-42700D02*
X28300Y-45300D01*
X28300Y-45300D02*
X30600Y-45300D01*
X30600Y-45300D02*
X30900Y-45000D01*
X30900Y-45000D02*
X30900Y-43000D01*
X30900Y-43000D02*
X30600Y-42700D01*
X30600Y-42700D02*
X28300Y-42700D01*
X30450Y-44000D02*
X30150Y-44000D01*
X30300Y-43850D02*
X30300Y-44150D01*
X36881Y-25251D02*
X36881Y-25851D01*
X36931Y-26001D02*
X36931Y-25101D01*
X36981Y-25001D02*
X36981Y-26101D01*
X37031Y-26201D02*
X37031Y-24901D01*
X37081Y-24851D02*
X37081Y-26251D01*
X39231Y-25551D02*
G75*
G03X39231Y-25551I-1200J0D01*
G74*
G01*
X36731Y-24251D02*
X36731Y-26851D01*
X36731Y-26851D02*
X39031Y-26851D01*
X39031Y-26851D02*
X39331Y-26551D01*
X39331Y-26551D02*
X39331Y-24551D01*
X39331Y-24551D02*
X39031Y-24251D01*
X39031Y-24251D02*
X36731Y-24251D01*
X38881Y-25551D02*
X38581Y-25551D01*
X38731Y-25401D02*
X38731Y-25701D01*
G54D16*
X25498Y-42476D02*
X27702Y-42476D01*
X27624Y-42280D02*
X27624Y-42476D01*
X25576Y-42476D02*
X25576Y-42280D01*
X26600Y-42280D02*
X26600Y-42476D01*
X27702Y-44563D02*
X25498Y-44563D01*
X27702Y-42280D02*
X25498Y-42280D01*
X25498Y-42280D02*
X25498Y-44720D01*
X25498Y-44720D02*
X27702Y-44720D01*
X27702Y-44720D02*
X27702Y-42280D01*
G54D12*
X38763Y-32089D02*
X38763Y-31769D01*
X38323Y-31779D02*
X38323Y-32089D01*
X38223Y-31769D02*
X38863Y-31769D01*
X38863Y-31769D02*
X38863Y-32089D01*
X38863Y-32089D02*
X38223Y-32089D01*
X38223Y-32089D02*
X38223Y-31769D01*
X38802Y-37089D02*
X38802Y-36769D01*
X38362Y-36779D02*
X38362Y-37089D01*
X38262Y-36769D02*
X38902Y-36769D01*
X38902Y-36769D02*
X38902Y-37089D01*
X38902Y-37089D02*
X38262Y-37089D01*
X38262Y-37089D02*
X38262Y-36769D01*
X37038Y-43400D02*
X37038Y-44000D01*
X37088Y-44150D02*
X37088Y-43250D01*
X37138Y-43150D02*
X37138Y-44250D01*
X37188Y-44350D02*
X37188Y-43050D01*
X37238Y-43000D02*
X37238Y-44400D01*
X39388Y-43700D02*
G75*
G03X39388Y-43700I-1200J0D01*
G74*
G01*
X36888Y-42400D02*
X36888Y-45000D01*
X36888Y-45000D02*
X39188Y-45000D01*
X39188Y-45000D02*
X39488Y-44700D01*
X39488Y-44700D02*
X39488Y-42700D01*
X39488Y-42700D02*
X39188Y-42400D01*
X39188Y-42400D02*
X36888Y-42400D01*
X39038Y-43700D02*
X38738Y-43700D01*
X38888Y-43550D02*
X38888Y-43850D01*
G54D11*
X29795Y-40061D02*
X29795Y-40385D01*
X29814Y-40423D01*
X29833Y-40442D01*
X29871Y-40461D01*
X29947Y-40461D01*
X29985Y-40442D01*
X30004Y-40423D01*
X30023Y-40385D01*
X30023Y-40061D01*
X30176Y-40061D02*
X30423Y-40061D01*
X30290Y-40214D01*
X30347Y-40214D01*
X30385Y-40233D01*
X30404Y-40252D01*
X30423Y-40290D01*
X30423Y-40385D01*
X30404Y-40423D01*
X30385Y-40442D01*
X30347Y-40461D01*
X30233Y-40461D01*
X30195Y-40442D01*
X30176Y-40423D01*
G54D18*
X32667Y-40135D02*
X32657Y-40145D01*
X32629Y-40154D01*
X32610Y-40154D01*
X32582Y-40145D01*
X32563Y-40126D01*
X32554Y-40107D01*
X32545Y-40070D01*
X32545Y-40042D01*
X32554Y-40004D01*
X32563Y-39985D01*
X32582Y-39967D01*
X32610Y-39957D01*
X32629Y-39957D01*
X32657Y-39967D01*
X32667Y-39976D01*
X32779Y-40042D02*
X32760Y-40032D01*
X32751Y-40023D01*
X32742Y-40004D01*
X32742Y-39995D01*
X32751Y-39976D01*
X32760Y-39967D01*
X32779Y-39957D01*
X32817Y-39957D01*
X32836Y-39967D01*
X32845Y-39976D01*
X32854Y-39995D01*
X32854Y-40004D01*
X32845Y-40023D01*
X32836Y-40032D01*
X32817Y-40042D01*
X32779Y-40042D01*
X32760Y-40051D01*
X32751Y-40060D01*
X32742Y-40079D01*
X32742Y-40117D01*
X32751Y-40135D01*
X32760Y-40145D01*
X32779Y-40154D01*
X32817Y-40154D01*
X32836Y-40145D01*
X32845Y-40135D01*
X32854Y-40117D01*
X32854Y-40079D01*
X32845Y-40060D01*
X32836Y-40051D01*
X32817Y-40042D01*
X27273Y-38785D02*
X27263Y-38795D01*
X27235Y-38804D01*
X27217Y-38804D01*
X27188Y-38795D01*
X27170Y-38776D01*
X27160Y-38757D01*
X27151Y-38720D01*
X27151Y-38692D01*
X27160Y-38654D01*
X27170Y-38635D01*
X27188Y-38617D01*
X27217Y-38607D01*
X27235Y-38607D01*
X27263Y-38617D01*
X27273Y-38626D01*
X27460Y-38804D02*
X27348Y-38804D01*
X27404Y-38804D02*
X27404Y-38607D01*
X27385Y-38635D01*
X27367Y-38654D01*
X27348Y-38664D01*
X27582Y-38607D02*
X27601Y-38607D01*
X27620Y-38617D01*
X27629Y-38626D01*
X27639Y-38645D01*
X27648Y-38682D01*
X27648Y-38729D01*
X27639Y-38767D01*
X27629Y-38785D01*
X27620Y-38795D01*
X27601Y-38804D01*
X27582Y-38804D01*
X27564Y-38795D01*
X27554Y-38785D01*
X27545Y-38767D01*
X27536Y-38729D01*
X27536Y-38682D01*
X27545Y-38645D01*
X27554Y-38626D01*
X27564Y-38617D01*
X27582Y-38607D01*
G54D19*
X28530Y-29998D02*
X28526Y-30002D01*
X28515Y-30006D01*
X28507Y-30006D01*
X28496Y-30002D01*
X28488Y-29995D01*
X28484Y-29987D01*
X28481Y-29972D01*
X28481Y-29961D01*
X28484Y-29946D01*
X28488Y-29938D01*
X28496Y-29931D01*
X28507Y-29927D01*
X28515Y-29927D01*
X28526Y-29931D01*
X28530Y-29934D01*
X28556Y-29927D02*
X28609Y-29927D01*
X28575Y-30006D01*
X27674Y-37413D02*
X27678Y-37416D01*
X27681Y-37428D01*
X27681Y-37435D01*
X27678Y-37447D01*
X27670Y-37454D01*
X27663Y-37458D01*
X27648Y-37462D01*
X27636Y-37462D01*
X27621Y-37458D01*
X27614Y-37454D01*
X27606Y-37447D01*
X27602Y-37435D01*
X27602Y-37428D01*
X27606Y-37416D01*
X27610Y-37413D01*
X27610Y-37383D02*
X27606Y-37379D01*
X27602Y-37371D01*
X27602Y-37352D01*
X27606Y-37345D01*
X27610Y-37341D01*
X27618Y-37337D01*
X27625Y-37337D01*
X27636Y-37341D01*
X27681Y-37386D01*
X27681Y-37337D01*
X31986Y-29024D02*
X31983Y-29028D01*
X31971Y-29031D01*
X31964Y-29031D01*
X31952Y-29028D01*
X31945Y-29020D01*
X31941Y-29013D01*
X31937Y-28998D01*
X31937Y-28986D01*
X31941Y-28971D01*
X31945Y-28964D01*
X31952Y-28956D01*
X31964Y-28952D01*
X31971Y-28952D01*
X31983Y-28956D01*
X31986Y-28960D01*
X32054Y-28952D02*
X32039Y-28952D01*
X32031Y-28956D01*
X32028Y-28960D01*
X32020Y-28971D01*
X32016Y-28986D01*
X32016Y-29016D01*
X32020Y-29024D01*
X32024Y-29028D01*
X32031Y-29031D01*
X32047Y-29031D01*
X32054Y-29028D01*
X32058Y-29024D01*
X32062Y-29016D01*
X32062Y-28998D01*
X32058Y-28990D01*
X32054Y-28986D01*
X32047Y-28983D01*
X32031Y-28983D01*
X32024Y-28986D01*
X32020Y-28990D01*
X32016Y-28998D01*
X33236Y-33524D02*
X33233Y-33528D01*
X33221Y-33531D01*
X33214Y-33531D01*
X33202Y-33528D01*
X33195Y-33520D01*
X33191Y-33513D01*
X33187Y-33498D01*
X33187Y-33486D01*
X33191Y-33471D01*
X33195Y-33464D01*
X33202Y-33456D01*
X33214Y-33452D01*
X33221Y-33452D01*
X33233Y-33456D01*
X33236Y-33460D01*
X33308Y-33452D02*
X33270Y-33452D01*
X33266Y-33490D01*
X33270Y-33486D01*
X33278Y-33483D01*
X33297Y-33483D01*
X33304Y-33486D01*
X33308Y-33490D01*
X33312Y-33498D01*
X33312Y-33516D01*
X33308Y-33524D01*
X33304Y-33528D01*
X33297Y-33531D01*
X33278Y-33531D01*
X33270Y-33528D01*
X33266Y-33524D01*
X35050Y-29934D02*
X35053Y-29938D01*
X35057Y-29949D01*
X35057Y-29956D01*
X35053Y-29968D01*
X35046Y-29975D01*
X35038Y-29979D01*
X35023Y-29983D01*
X35012Y-29983D01*
X34997Y-29979D01*
X34989Y-29975D01*
X34982Y-29968D01*
X34978Y-29956D01*
X34978Y-29949D01*
X34982Y-29938D01*
X34986Y-29934D01*
X35004Y-29866D02*
X35057Y-29866D01*
X34974Y-29885D02*
X35031Y-29904D01*
X35031Y-29855D01*
X30774Y-32263D02*
X30778Y-32266D01*
X30781Y-32278D01*
X30781Y-32285D01*
X30778Y-32297D01*
X30770Y-32304D01*
X30763Y-32308D01*
X30748Y-32312D01*
X30736Y-32312D01*
X30721Y-32308D01*
X30714Y-32304D01*
X30706Y-32297D01*
X30702Y-32285D01*
X30702Y-32278D01*
X30706Y-32266D01*
X30710Y-32263D01*
X30702Y-32236D02*
X30702Y-32187D01*
X30733Y-32214D01*
X30733Y-32202D01*
X30736Y-32195D01*
X30740Y-32191D01*
X30748Y-32187D01*
X30766Y-32187D01*
X30774Y-32191D01*
X30778Y-32195D01*
X30781Y-32202D01*
X30781Y-32225D01*
X30778Y-32233D01*
X30774Y-32236D01*
X32686Y-38774D02*
X32683Y-38778D01*
X32671Y-38781D01*
X32664Y-38781D01*
X32652Y-38778D01*
X32645Y-38770D01*
X32641Y-38763D01*
X32637Y-38748D01*
X32637Y-38736D01*
X32641Y-38721D01*
X32645Y-38714D01*
X32652Y-38706D01*
X32664Y-38702D01*
X32671Y-38702D01*
X32683Y-38706D01*
X32686Y-38710D01*
X32724Y-38781D02*
X32739Y-38781D01*
X32747Y-38778D01*
X32750Y-38774D01*
X32758Y-38763D01*
X32762Y-38748D01*
X32762Y-38718D01*
X32758Y-38710D01*
X32754Y-38706D01*
X32747Y-38702D01*
X32731Y-38702D01*
X32724Y-38706D01*
X32720Y-38710D01*
X32716Y-38718D01*
X32716Y-38736D01*
X32720Y-38744D01*
X32724Y-38748D01*
X32731Y-38751D01*
X32747Y-38751D01*
X32754Y-38748D01*
X32758Y-38744D01*
X32762Y-38736D01*
X28786Y-37474D02*
X28783Y-37478D01*
X28771Y-37481D01*
X28764Y-37481D01*
X28752Y-37478D01*
X28745Y-37470D01*
X28741Y-37463D01*
X28737Y-37448D01*
X28737Y-37436D01*
X28741Y-37421D01*
X28745Y-37414D01*
X28752Y-37406D01*
X28764Y-37402D01*
X28771Y-37402D01*
X28783Y-37406D01*
X28786Y-37410D01*
X28862Y-37481D02*
X28816Y-37481D01*
X28839Y-37481D02*
X28839Y-37402D01*
X28831Y-37414D01*
X28824Y-37421D01*
X28816Y-37425D01*
G54D20*
X37630Y-30437D02*
X37620Y-30456D01*
X37601Y-30475D01*
X37573Y-30503D01*
X37564Y-30521D01*
X37564Y-30540D01*
X37611Y-30531D02*
X37601Y-30550D01*
X37583Y-30568D01*
X37545Y-30578D01*
X37479Y-30578D01*
X37442Y-30568D01*
X37423Y-30550D01*
X37414Y-30531D01*
X37414Y-30493D01*
X37423Y-30475D01*
X37442Y-30456D01*
X37479Y-30446D01*
X37545Y-30446D01*
X37583Y-30456D01*
X37601Y-30475D01*
X37611Y-30493D01*
X37611Y-30531D01*
X37611Y-30259D02*
X37611Y-30371D01*
X37611Y-30315D02*
X37414Y-30315D01*
X37442Y-30334D01*
X37461Y-30353D01*
X37470Y-30371D01*
X37611Y-30071D02*
X37611Y-30184D01*
X37611Y-30127D02*
X37414Y-30127D01*
X37442Y-30146D01*
X37461Y-30165D01*
X37470Y-30184D01*
X35601Y-42354D02*
X35582Y-42345D01*
X35563Y-42326D01*
X35535Y-42298D01*
X35516Y-42288D01*
X35497Y-42288D01*
X35507Y-42335D02*
X35488Y-42326D01*
X35469Y-42307D01*
X35460Y-42270D01*
X35460Y-42204D01*
X35469Y-42166D01*
X35488Y-42148D01*
X35507Y-42138D01*
X35544Y-42138D01*
X35563Y-42148D01*
X35582Y-42166D01*
X35591Y-42204D01*
X35591Y-42270D01*
X35582Y-42307D01*
X35563Y-42326D01*
X35544Y-42335D01*
X35507Y-42335D01*
X35760Y-42204D02*
X35760Y-42335D01*
X35713Y-42129D02*
X35666Y-42270D01*
X35788Y-42270D01*
X37630Y-40383D02*
X37620Y-40401D01*
X37601Y-40420D01*
X37573Y-40448D01*
X37564Y-40467D01*
X37564Y-40486D01*
X37611Y-40476D02*
X37601Y-40495D01*
X37583Y-40514D01*
X37545Y-40523D01*
X37479Y-40523D01*
X37442Y-40514D01*
X37423Y-40495D01*
X37414Y-40476D01*
X37414Y-40439D01*
X37423Y-40420D01*
X37442Y-40401D01*
X37479Y-40392D01*
X37545Y-40392D01*
X37583Y-40401D01*
X37601Y-40420D01*
X37611Y-40439D01*
X37611Y-40476D01*
X37414Y-40214D02*
X37414Y-40308D01*
X37508Y-40317D01*
X37498Y-40308D01*
X37489Y-40289D01*
X37489Y-40242D01*
X37498Y-40223D01*
X37508Y-40214D01*
X37526Y-40204D01*
X37573Y-40204D01*
X37592Y-40214D01*
X37601Y-40223D01*
X37611Y-40242D01*
X37611Y-40289D01*
X37601Y-40308D01*
X37592Y-40317D01*
X37630Y-39005D02*
X37620Y-39023D01*
X37601Y-39042D01*
X37573Y-39070D01*
X37564Y-39089D01*
X37564Y-39108D01*
X37611Y-39098D02*
X37601Y-39117D01*
X37583Y-39136D01*
X37545Y-39145D01*
X37479Y-39145D01*
X37442Y-39136D01*
X37423Y-39117D01*
X37414Y-39098D01*
X37414Y-39061D01*
X37423Y-39042D01*
X37442Y-39023D01*
X37479Y-39014D01*
X37545Y-39014D01*
X37583Y-39023D01*
X37601Y-39042D01*
X37611Y-39061D01*
X37611Y-39098D01*
X37414Y-38845D02*
X37414Y-38883D01*
X37423Y-38901D01*
X37433Y-38911D01*
X37461Y-38930D01*
X37498Y-38939D01*
X37573Y-38939D01*
X37592Y-38930D01*
X37601Y-38920D01*
X37611Y-38901D01*
X37611Y-38864D01*
X37601Y-38845D01*
X37592Y-38836D01*
X37573Y-38826D01*
X37526Y-38826D01*
X37508Y-38836D01*
X37498Y-38845D01*
X37489Y-38864D01*
X37489Y-38901D01*
X37498Y-38920D01*
X37508Y-38930D01*
X37526Y-38939D01*
X37630Y-37627D02*
X37620Y-37645D01*
X37601Y-37664D01*
X37573Y-37692D01*
X37564Y-37711D01*
X37564Y-37730D01*
X37611Y-37720D02*
X37601Y-37739D01*
X37583Y-37758D01*
X37545Y-37767D01*
X37479Y-37767D01*
X37442Y-37758D01*
X37423Y-37739D01*
X37414Y-37720D01*
X37414Y-37683D01*
X37423Y-37664D01*
X37442Y-37645D01*
X37479Y-37636D01*
X37545Y-37636D01*
X37583Y-37645D01*
X37601Y-37664D01*
X37611Y-37683D01*
X37611Y-37720D01*
X37414Y-37570D02*
X37414Y-37439D01*
X37611Y-37523D01*
X34223Y-42354D02*
X34204Y-42345D01*
X34185Y-42326D01*
X34157Y-42298D01*
X34138Y-42288D01*
X34120Y-42288D01*
X34129Y-42335D02*
X34110Y-42326D01*
X34091Y-42307D01*
X34082Y-42270D01*
X34082Y-42204D01*
X34091Y-42166D01*
X34110Y-42148D01*
X34129Y-42138D01*
X34166Y-42138D01*
X34185Y-42148D01*
X34204Y-42166D01*
X34213Y-42204D01*
X34213Y-42270D01*
X34204Y-42307D01*
X34185Y-42326D01*
X34166Y-42335D01*
X34129Y-42335D01*
X34279Y-42138D02*
X34401Y-42138D01*
X34335Y-42213D01*
X34363Y-42213D01*
X34382Y-42223D01*
X34392Y-42232D01*
X34401Y-42251D01*
X34401Y-42298D01*
X34392Y-42316D01*
X34382Y-42326D01*
X34363Y-42335D01*
X34307Y-42335D01*
X34288Y-42326D01*
X34279Y-42316D01*
X34636Y-26346D02*
X34618Y-26337D01*
X34599Y-26318D01*
X34571Y-26290D01*
X34552Y-26280D01*
X34533Y-26280D01*
X34543Y-26327D02*
X34524Y-26318D01*
X34505Y-26299D01*
X34496Y-26262D01*
X34496Y-26196D01*
X34505Y-26158D01*
X34524Y-26140D01*
X34543Y-26130D01*
X34580Y-26130D01*
X34599Y-26140D01*
X34618Y-26158D01*
X34627Y-26196D01*
X34627Y-26262D01*
X34618Y-26299D01*
X34599Y-26318D01*
X34580Y-26327D01*
X34543Y-26327D01*
X34740Y-26215D02*
X34721Y-26205D01*
X34711Y-26196D01*
X34702Y-26177D01*
X34702Y-26168D01*
X34711Y-26149D01*
X34721Y-26140D01*
X34740Y-26130D01*
X34777Y-26130D01*
X34796Y-26140D01*
X34805Y-26149D01*
X34815Y-26168D01*
X34815Y-26177D01*
X34805Y-26196D01*
X34796Y-26205D01*
X34777Y-26215D01*
X34740Y-26215D01*
X34721Y-26224D01*
X34711Y-26233D01*
X34702Y-26252D01*
X34702Y-26290D01*
X34711Y-26308D01*
X34721Y-26318D01*
X34740Y-26327D01*
X34777Y-26327D01*
X34796Y-26318D01*
X34805Y-26308D01*
X34815Y-26290D01*
X34815Y-26252D01*
X34805Y-26233D01*
X34796Y-26224D01*
X34777Y-26215D01*
X33258Y-26346D02*
X33240Y-26337D01*
X33221Y-26318D01*
X33193Y-26290D01*
X33174Y-26280D01*
X33155Y-26280D01*
X33165Y-26327D02*
X33146Y-26318D01*
X33127Y-26299D01*
X33118Y-26262D01*
X33118Y-26196D01*
X33127Y-26158D01*
X33146Y-26140D01*
X33165Y-26130D01*
X33202Y-26130D01*
X33221Y-26140D01*
X33240Y-26158D01*
X33249Y-26196D01*
X33249Y-26262D01*
X33240Y-26299D01*
X33221Y-26318D01*
X33202Y-26327D01*
X33165Y-26327D01*
X33343Y-26327D02*
X33380Y-26327D01*
X33399Y-26318D01*
X33409Y-26308D01*
X33427Y-26280D01*
X33437Y-26243D01*
X33437Y-26168D01*
X33427Y-26149D01*
X33418Y-26140D01*
X33399Y-26130D01*
X33362Y-26130D01*
X33343Y-26140D01*
X33334Y-26149D01*
X33324Y-26168D01*
X33324Y-26215D01*
X33334Y-26233D01*
X33343Y-26243D01*
X33362Y-26252D01*
X33399Y-26252D01*
X33418Y-26243D01*
X33427Y-26233D01*
X33437Y-26215D01*
X31787Y-26346D02*
X31768Y-26337D01*
X31749Y-26318D01*
X31721Y-26290D01*
X31702Y-26280D01*
X31684Y-26280D01*
X31693Y-26327D02*
X31674Y-26318D01*
X31655Y-26299D01*
X31646Y-26262D01*
X31646Y-26196D01*
X31655Y-26158D01*
X31674Y-26140D01*
X31693Y-26130D01*
X31730Y-26130D01*
X31749Y-26140D01*
X31768Y-26158D01*
X31777Y-26196D01*
X31777Y-26262D01*
X31768Y-26299D01*
X31749Y-26318D01*
X31730Y-26327D01*
X31693Y-26327D01*
X31965Y-26327D02*
X31852Y-26327D01*
X31909Y-26327D02*
X31909Y-26130D01*
X31890Y-26158D01*
X31871Y-26177D01*
X31852Y-26186D01*
X32087Y-26130D02*
X32106Y-26130D01*
X32124Y-26140D01*
X32134Y-26149D01*
X32143Y-26168D01*
X32153Y-26205D01*
X32153Y-26252D01*
X32143Y-26290D01*
X32134Y-26308D01*
X32124Y-26318D01*
X32106Y-26327D01*
X32087Y-26327D01*
X32068Y-26318D01*
X32059Y-26308D01*
X32049Y-26290D01*
X32040Y-26252D01*
X32040Y-26205D01*
X32049Y-26168D01*
X32059Y-26149D01*
X32068Y-26140D01*
X32087Y-26130D01*
X37630Y-29059D02*
X37620Y-29078D01*
X37601Y-29097D01*
X37573Y-29125D01*
X37564Y-29144D01*
X37564Y-29162D01*
X37611Y-29153D02*
X37601Y-29172D01*
X37583Y-29190D01*
X37545Y-29200D01*
X37479Y-29200D01*
X37442Y-29190D01*
X37423Y-29172D01*
X37414Y-29153D01*
X37414Y-29115D01*
X37423Y-29097D01*
X37442Y-29078D01*
X37479Y-29068D01*
X37545Y-29068D01*
X37583Y-29078D01*
X37601Y-29097D01*
X37611Y-29115D01*
X37611Y-29153D01*
X37611Y-28881D02*
X37611Y-28993D01*
X37611Y-28937D02*
X37414Y-28937D01*
X37442Y-28956D01*
X37461Y-28975D01*
X37470Y-28993D01*
X37433Y-28806D02*
X37423Y-28796D01*
X37414Y-28778D01*
X37414Y-28731D01*
X37423Y-28712D01*
X37433Y-28703D01*
X37451Y-28693D01*
X37470Y-28693D01*
X37498Y-28703D01*
X37611Y-28815D01*
X37611Y-28693D01*
X37630Y-27681D02*
X37620Y-27700D01*
X37601Y-27719D01*
X37573Y-27747D01*
X37564Y-27766D01*
X37564Y-27784D01*
X37611Y-27775D02*
X37601Y-27794D01*
X37583Y-27812D01*
X37545Y-27822D01*
X37479Y-27822D01*
X37442Y-27812D01*
X37423Y-27794D01*
X37414Y-27775D01*
X37414Y-27737D01*
X37423Y-27719D01*
X37442Y-27700D01*
X37479Y-27691D01*
X37545Y-27691D01*
X37583Y-27700D01*
X37601Y-27719D01*
X37611Y-27737D01*
X37611Y-27775D01*
X37611Y-27503D02*
X37611Y-27615D01*
X37611Y-27559D02*
X37414Y-27559D01*
X37442Y-27578D01*
X37461Y-27597D01*
X37470Y-27615D01*
X37414Y-27437D02*
X37414Y-27315D01*
X37489Y-27381D01*
X37489Y-27353D01*
X37498Y-27334D01*
X37508Y-27325D01*
X37526Y-27315D01*
X37573Y-27315D01*
X37592Y-27325D01*
X37601Y-27334D01*
X37611Y-27353D01*
X37611Y-27409D01*
X37601Y-27428D01*
X37592Y-27437D01*
X37630Y-35457D02*
X37620Y-35475D01*
X37601Y-35494D01*
X37573Y-35522D01*
X37564Y-35541D01*
X37564Y-35560D01*
X37611Y-35551D02*
X37601Y-35569D01*
X37583Y-35588D01*
X37545Y-35597D01*
X37479Y-35597D01*
X37442Y-35588D01*
X37423Y-35569D01*
X37414Y-35551D01*
X37414Y-35513D01*
X37423Y-35494D01*
X37442Y-35475D01*
X37479Y-35466D01*
X37545Y-35466D01*
X37583Y-35475D01*
X37601Y-35494D01*
X37611Y-35513D01*
X37611Y-35551D01*
X37611Y-35278D02*
X37611Y-35391D01*
X37611Y-35335D02*
X37414Y-35335D01*
X37442Y-35354D01*
X37461Y-35372D01*
X37470Y-35391D01*
X37479Y-35110D02*
X37611Y-35110D01*
X37404Y-35157D02*
X37545Y-35203D01*
X37545Y-35081D01*
X37630Y-34079D02*
X37620Y-34098D01*
X37601Y-34116D01*
X37573Y-34144D01*
X37564Y-34163D01*
X37564Y-34182D01*
X37611Y-34173D02*
X37601Y-34191D01*
X37583Y-34210D01*
X37545Y-34219D01*
X37479Y-34219D01*
X37442Y-34210D01*
X37423Y-34191D01*
X37414Y-34173D01*
X37414Y-34135D01*
X37423Y-34116D01*
X37442Y-34098D01*
X37479Y-34088D01*
X37545Y-34088D01*
X37583Y-34098D01*
X37601Y-34116D01*
X37611Y-34135D01*
X37611Y-34173D01*
X37611Y-33901D02*
X37611Y-34013D01*
X37611Y-33957D02*
X37414Y-33957D01*
X37442Y-33976D01*
X37461Y-33994D01*
X37470Y-34013D01*
X37414Y-33722D02*
X37414Y-33816D01*
X37508Y-33825D01*
X37498Y-33816D01*
X37489Y-33797D01*
X37489Y-33750D01*
X37498Y-33732D01*
X37508Y-33722D01*
X37526Y-33713D01*
X37573Y-33713D01*
X37592Y-33722D01*
X37601Y-33732D01*
X37611Y-33750D01*
X37611Y-33797D01*
X37601Y-33816D01*
X37592Y-33825D01*
X37630Y-32701D02*
X37620Y-32720D01*
X37601Y-32738D01*
X37573Y-32766D01*
X37564Y-32785D01*
X37564Y-32804D01*
X37611Y-32795D02*
X37601Y-32813D01*
X37583Y-32832D01*
X37545Y-32842D01*
X37479Y-32842D01*
X37442Y-32832D01*
X37423Y-32813D01*
X37414Y-32795D01*
X37414Y-32757D01*
X37423Y-32738D01*
X37442Y-32720D01*
X37479Y-32710D01*
X37545Y-32710D01*
X37583Y-32720D01*
X37601Y-32738D01*
X37611Y-32757D01*
X37611Y-32795D01*
X37611Y-32523D02*
X37611Y-32635D01*
X37611Y-32579D02*
X37414Y-32579D01*
X37442Y-32598D01*
X37461Y-32616D01*
X37470Y-32635D01*
X37414Y-32354D02*
X37414Y-32391D01*
X37423Y-32410D01*
X37433Y-32419D01*
X37461Y-32438D01*
X37498Y-32448D01*
X37573Y-32448D01*
X37592Y-32438D01*
X37601Y-32429D01*
X37611Y-32410D01*
X37611Y-32372D01*
X37601Y-32354D01*
X37592Y-32344D01*
X37573Y-32335D01*
X37526Y-32335D01*
X37508Y-32344D01*
X37498Y-32354D01*
X37489Y-32372D01*
X37489Y-32410D01*
X37498Y-32429D01*
X37508Y-32438D01*
X37526Y-32448D01*
X32845Y-42354D02*
X32826Y-42345D01*
X32807Y-42326D01*
X32779Y-42298D01*
X32760Y-42288D01*
X32742Y-42288D01*
X32751Y-42335D02*
X32732Y-42326D01*
X32713Y-42307D01*
X32704Y-42270D01*
X32704Y-42204D01*
X32713Y-42166D01*
X32732Y-42148D01*
X32751Y-42138D01*
X32788Y-42138D01*
X32807Y-42148D01*
X32826Y-42166D01*
X32835Y-42204D01*
X32835Y-42270D01*
X32826Y-42307D01*
X32807Y-42326D01*
X32788Y-42335D01*
X32751Y-42335D01*
X32910Y-42157D02*
X32920Y-42148D01*
X32939Y-42138D01*
X32985Y-42138D01*
X33004Y-42148D01*
X33014Y-42157D01*
X33023Y-42176D01*
X33023Y-42195D01*
X33014Y-42223D01*
X32901Y-42335D01*
X33023Y-42335D01*
X30325Y-29283D02*
X30306Y-29274D01*
X30288Y-29255D01*
X30259Y-29227D01*
X30241Y-29217D01*
X30222Y-29217D01*
X30231Y-29264D02*
X30212Y-29255D01*
X30194Y-29236D01*
X30184Y-29199D01*
X30184Y-29133D01*
X30194Y-29095D01*
X30212Y-29077D01*
X30231Y-29067D01*
X30269Y-29067D01*
X30288Y-29077D01*
X30306Y-29095D01*
X30316Y-29133D01*
X30316Y-29199D01*
X30306Y-29236D01*
X30288Y-29255D01*
X30269Y-29264D01*
X30231Y-29264D01*
X30503Y-29264D02*
X30391Y-29264D01*
X30447Y-29264D02*
X30447Y-29067D01*
X30428Y-29095D01*
X30409Y-29114D01*
X30391Y-29124D01*
G54D11*
X38061Y-34795D02*
X37661Y-34795D01*
X37661Y-34642D01*
X37680Y-34604D01*
X37700Y-34585D01*
X37738Y-34566D01*
X37795Y-34566D01*
X37833Y-34585D01*
X37852Y-34604D01*
X37871Y-34642D01*
X37871Y-34795D01*
X37661Y-34433D02*
X37661Y-34166D01*
X38061Y-34338D01*
X38061Y-29795D02*
X37661Y-29795D01*
X37661Y-29642D01*
X37680Y-29604D01*
X37700Y-29585D01*
X37738Y-29566D01*
X37795Y-29566D01*
X37833Y-29585D01*
X37852Y-29604D01*
X37871Y-29642D01*
X37871Y-29795D01*
X37661Y-29223D02*
X37661Y-29299D01*
X37680Y-29338D01*
X37700Y-29357D01*
X37757Y-29395D01*
X37833Y-29414D01*
X37985Y-29414D01*
X38023Y-29395D01*
X38042Y-29376D01*
X38061Y-29338D01*
X38061Y-29261D01*
X38042Y-29223D01*
X38023Y-29204D01*
X37985Y-29185D01*
X37890Y-29185D01*
X37852Y-29204D01*
X37833Y-29223D01*
X37814Y-29261D01*
X37814Y-29338D01*
X37833Y-29376D01*
X37852Y-29395D01*
X37890Y-29414D01*
X33454Y-26011D02*
X33454Y-25611D01*
X33607Y-25611D01*
X33645Y-25630D01*
X33664Y-25650D01*
X33683Y-25688D01*
X33683Y-25745D01*
X33664Y-25783D01*
X33645Y-25802D01*
X33607Y-25821D01*
X33454Y-25821D01*
X34045Y-25611D02*
X33854Y-25611D01*
X33835Y-25802D01*
X33854Y-25783D01*
X33892Y-25764D01*
X33988Y-25764D01*
X34026Y-25783D01*
X34045Y-25802D01*
X34064Y-25840D01*
X34064Y-25935D01*
X34045Y-25973D01*
X34026Y-25992D01*
X33988Y-26011D01*
X33892Y-26011D01*
X33854Y-25992D01*
X33835Y-25973D01*
X38061Y-39795D02*
X37661Y-39795D01*
X37661Y-39642D01*
X37680Y-39604D01*
X37700Y-39585D01*
X37738Y-39566D01*
X37795Y-39566D01*
X37833Y-39585D01*
X37852Y-39604D01*
X37871Y-39642D01*
X37871Y-39795D01*
X37661Y-39433D02*
X37661Y-39185D01*
X37814Y-39319D01*
X37814Y-39261D01*
X37833Y-39223D01*
X37852Y-39204D01*
X37890Y-39185D01*
X37985Y-39185D01*
X38023Y-39204D01*
X38042Y-39223D01*
X38061Y-39261D01*
X38061Y-39376D01*
X38042Y-39414D01*
X38023Y-39433D01*
X33454Y-42811D02*
X33454Y-42411D01*
X33607Y-42411D01*
X33645Y-42430D01*
X33664Y-42450D01*
X33683Y-42488D01*
X33683Y-42545D01*
X33664Y-42583D01*
X33645Y-42602D01*
X33607Y-42621D01*
X33454Y-42621D01*
X34064Y-42811D02*
X33835Y-42811D01*
X33950Y-42811D02*
X33950Y-42411D01*
X33911Y-42469D01*
X33873Y-42507D01*
X33835Y-42526D01*
X27855Y-32931D02*
X28141Y-32931D01*
X28198Y-32950D01*
X28236Y-32988D01*
X28255Y-33046D01*
X28255Y-33084D01*
X28255Y-32741D02*
X27855Y-32741D01*
X27855Y-32588D01*
X27875Y-32550D01*
X27894Y-32531D01*
X27932Y-32512D01*
X27989Y-32512D01*
X28027Y-32531D01*
X28046Y-32550D01*
X28065Y-32588D01*
X28065Y-32741D01*
X28255Y-32131D02*
X28255Y-32360D01*
X28255Y-32246D02*
X27855Y-32246D01*
X27913Y-32284D01*
X27951Y-32322D01*
X27970Y-32360D01*
X25011Y-27895D02*
X24611Y-27895D01*
X24611Y-27742D01*
X24630Y-27704D01*
X24650Y-27685D01*
X24688Y-27666D01*
X24745Y-27666D01*
X24783Y-27685D01*
X24802Y-27704D01*
X24821Y-27742D01*
X24821Y-27895D01*
X24783Y-27438D02*
X24764Y-27476D01*
X24745Y-27495D01*
X24707Y-27514D01*
X24688Y-27514D01*
X24650Y-27495D01*
X24630Y-27476D01*
X24611Y-27438D01*
X24611Y-27361D01*
X24630Y-27323D01*
X24650Y-27304D01*
X24688Y-27285D01*
X24707Y-27285D01*
X24745Y-27304D01*
X24764Y-27323D01*
X24783Y-27361D01*
X24783Y-27438D01*
X24802Y-27476D01*
X24821Y-27495D01*
X24859Y-27514D01*
X24935Y-27514D01*
X24973Y-27495D01*
X24992Y-27476D01*
X25011Y-27438D01*
X25011Y-27361D01*
X24992Y-27323D01*
X24973Y-27304D01*
X24935Y-27285D01*
X24859Y-27285D01*
X24821Y-27304D01*
X24802Y-27323D01*
X24783Y-27361D01*
G54D14*
X32775Y-31524D02*
X32775Y-31763D01*
X32789Y-31791D01*
X32803Y-31805D01*
X32831Y-31819D01*
X32887Y-31819D01*
X32915Y-31805D01*
X32929Y-31791D01*
X32943Y-31763D01*
X32943Y-31524D01*
X33070Y-31552D02*
X33084Y-31538D01*
X33112Y-31524D01*
X33182Y-31524D01*
X33210Y-31538D01*
X33224Y-31552D01*
X33238Y-31580D01*
X33238Y-31608D01*
X33224Y-31650D01*
X33056Y-31819D01*
X33238Y-31819D01*
G54D13*
X27501Y-27030D02*
X26901Y-27030D01*
X27329Y-26830D01*
X26901Y-26630D01*
X27501Y-26630D01*
X27501Y-26345D02*
X26901Y-26345D01*
X27443Y-25716D02*
X27472Y-25745D01*
X27501Y-25830D01*
X27501Y-25888D01*
X27472Y-25973D01*
X27415Y-26030D01*
X27358Y-26059D01*
X27243Y-26088D01*
X27158Y-26088D01*
X27043Y-26059D01*
X26986Y-26030D01*
X26929Y-25973D01*
X26901Y-25888D01*
X26901Y-25830D01*
X26929Y-25745D01*
X26958Y-25716D01*
X27501Y-25145D02*
X27501Y-25488D01*
X27501Y-25316D02*
X26901Y-25316D01*
X26986Y-25373D01*
X27043Y-25430D01*
X27072Y-25488D01*
G54D18*
X32425Y-35462D02*
X32425Y-35226D01*
X32482Y-35226D01*
X32515Y-35237D01*
X32538Y-35260D01*
X32549Y-35282D01*
X32560Y-35327D01*
X32560Y-35361D01*
X32549Y-35406D01*
X32538Y-35428D01*
X32515Y-35451D01*
X32482Y-35462D01*
X32425Y-35462D01*
X32785Y-35462D02*
X32650Y-35462D01*
X32718Y-35462D02*
X32718Y-35226D01*
X32695Y-35260D01*
X32673Y-35282D01*
X32650Y-35293D01*
X32425Y-36062D02*
X32425Y-35826D01*
X32482Y-35826D01*
X32515Y-35837D01*
X32538Y-35860D01*
X32549Y-35882D01*
X32560Y-35927D01*
X32560Y-35961D01*
X32549Y-36006D01*
X32538Y-36028D01*
X32515Y-36051D01*
X32482Y-36062D01*
X32425Y-36062D01*
X32650Y-35849D02*
X32661Y-35837D01*
X32684Y-35826D01*
X32740Y-35826D01*
X32762Y-35837D01*
X32774Y-35849D01*
X32785Y-35871D01*
X32785Y-35893D01*
X32774Y-35927D01*
X32639Y-36062D01*
X32785Y-36062D01*
X32425Y-36662D02*
X32425Y-36426D01*
X32482Y-36426D01*
X32515Y-36437D01*
X32538Y-36460D01*
X32549Y-36482D01*
X32560Y-36527D01*
X32560Y-36561D01*
X32549Y-36606D01*
X32538Y-36628D01*
X32515Y-36651D01*
X32482Y-36662D01*
X32425Y-36662D01*
X32639Y-36426D02*
X32785Y-36426D01*
X32706Y-36516D01*
X32740Y-36516D01*
X32762Y-36527D01*
X32774Y-36538D01*
X32785Y-36561D01*
X32785Y-36617D01*
X32774Y-36640D01*
X32762Y-36651D01*
X32740Y-36662D01*
X32673Y-36662D01*
X32650Y-36651D01*
X32639Y-36640D01*
X32425Y-37262D02*
X32425Y-37026D01*
X32482Y-37026D01*
X32515Y-37037D01*
X32538Y-37060D01*
X32549Y-37082D01*
X32560Y-37127D01*
X32560Y-37161D01*
X32549Y-37206D01*
X32538Y-37228D01*
X32515Y-37251D01*
X32482Y-37262D01*
X32425Y-37262D01*
X32762Y-37105D02*
X32762Y-37262D01*
X32706Y-37015D02*
X32650Y-37183D01*
X32796Y-37183D01*
G54D14*
X27079Y-40181D02*
X27079Y-39905D01*
X27145Y-39905D01*
X27184Y-39918D01*
X27211Y-39945D01*
X27224Y-39971D01*
X27237Y-40023D01*
X27237Y-40063D01*
X27224Y-40115D01*
X27211Y-40142D01*
X27184Y-40168D01*
X27145Y-40181D01*
X27079Y-40181D01*
X27474Y-39905D02*
X27421Y-39905D01*
X27395Y-39918D01*
X27382Y-39931D01*
X27355Y-39971D01*
X27342Y-40023D01*
X27342Y-40129D01*
X27355Y-40155D01*
X27368Y-40168D01*
X27395Y-40181D01*
X27447Y-40181D01*
X27474Y-40168D01*
X27487Y-40155D01*
X27500Y-40129D01*
X27500Y-40063D01*
X27487Y-40037D01*
X27474Y-40023D01*
X27447Y-40010D01*
X27395Y-40010D01*
X27368Y-40023D01*
X27355Y-40037D01*
X27342Y-40063D01*
X27079Y-41126D02*
X27079Y-40850D01*
X27145Y-40850D01*
X27184Y-40863D01*
X27211Y-40889D01*
X27224Y-40916D01*
X27237Y-40968D01*
X27237Y-41008D01*
X27224Y-41060D01*
X27211Y-41087D01*
X27184Y-41113D01*
X27145Y-41126D01*
X27079Y-41126D01*
X27487Y-40850D02*
X27355Y-40850D01*
X27342Y-40981D01*
X27355Y-40968D01*
X27382Y-40955D01*
X27447Y-40955D01*
X27474Y-40968D01*
X27487Y-40981D01*
X27500Y-41008D01*
X27500Y-41073D01*
X27487Y-41100D01*
X27474Y-41113D01*
X27447Y-41126D01*
X27382Y-41126D01*
X27355Y-41113D01*
X27342Y-41100D01*
G54D19*
X36209Y-28987D02*
X36171Y-29014D01*
X36209Y-29032D02*
X36130Y-29032D01*
X36130Y-29002D01*
X36134Y-28995D01*
X36137Y-28991D01*
X36145Y-28987D01*
X36156Y-28987D01*
X36164Y-28991D01*
X36167Y-28995D01*
X36171Y-29002D01*
X36171Y-29032D01*
X36137Y-28957D02*
X36134Y-28953D01*
X36130Y-28946D01*
X36130Y-28927D01*
X36134Y-28920D01*
X36137Y-28916D01*
X36145Y-28912D01*
X36152Y-28912D01*
X36164Y-28916D01*
X36209Y-28961D01*
X36209Y-28912D01*
X36130Y-28886D02*
X36130Y-28837D01*
X36160Y-28863D01*
X36160Y-28852D01*
X36164Y-28844D01*
X36167Y-28841D01*
X36175Y-28837D01*
X36194Y-28837D01*
X36201Y-28841D01*
X36205Y-28844D01*
X36209Y-28852D01*
X36209Y-28874D01*
X36205Y-28882D01*
X36201Y-28886D01*
X34594Y-27634D02*
X34568Y-27596D01*
X34549Y-27634D02*
X34549Y-27555D01*
X34579Y-27555D01*
X34587Y-27558D01*
X34591Y-27562D01*
X34594Y-27570D01*
X34594Y-27581D01*
X34591Y-27589D01*
X34587Y-27592D01*
X34579Y-27596D01*
X34549Y-27596D01*
X34670Y-27634D02*
X34624Y-27634D01*
X34647Y-27634D02*
X34647Y-27555D01*
X34640Y-27566D01*
X34632Y-27573D01*
X34624Y-27577D01*
X34707Y-27634D02*
X34722Y-27634D01*
X34730Y-27630D01*
X34734Y-27626D01*
X34741Y-27615D01*
X34745Y-27600D01*
X34745Y-27570D01*
X34741Y-27562D01*
X34737Y-27558D01*
X34730Y-27555D01*
X34715Y-27555D01*
X34707Y-27558D01*
X34703Y-27562D01*
X34700Y-27570D01*
X34700Y-27589D01*
X34703Y-27596D01*
X34707Y-27600D01*
X34715Y-27604D01*
X34730Y-27604D01*
X34737Y-27600D01*
X34741Y-27596D01*
X34745Y-27589D01*
X31486Y-37271D02*
X31460Y-37234D01*
X31441Y-37271D02*
X31441Y-37192D01*
X31471Y-37192D01*
X31479Y-37196D01*
X31483Y-37200D01*
X31486Y-37208D01*
X31486Y-37219D01*
X31483Y-37226D01*
X31479Y-37230D01*
X31471Y-37234D01*
X31441Y-37234D01*
X31558Y-37192D02*
X31520Y-37192D01*
X31516Y-37230D01*
X31520Y-37226D01*
X31528Y-37223D01*
X31547Y-37223D01*
X31554Y-37226D01*
X31558Y-37230D01*
X31562Y-37238D01*
X31562Y-37256D01*
X31558Y-37264D01*
X31554Y-37268D01*
X31547Y-37271D01*
X31528Y-37271D01*
X31520Y-37268D01*
X31516Y-37264D01*
X33216Y-27634D02*
X33190Y-27596D01*
X33171Y-27634D02*
X33171Y-27555D01*
X33201Y-27555D01*
X33209Y-27558D01*
X33213Y-27562D01*
X33216Y-27570D01*
X33216Y-27581D01*
X33213Y-27589D01*
X33209Y-27592D01*
X33201Y-27596D01*
X33171Y-27596D01*
X33247Y-27562D02*
X33250Y-27558D01*
X33258Y-27555D01*
X33277Y-27555D01*
X33284Y-27558D01*
X33288Y-27562D01*
X33292Y-27570D01*
X33292Y-27577D01*
X33288Y-27589D01*
X33243Y-27634D01*
X33292Y-27634D01*
X33341Y-27555D02*
X33348Y-27555D01*
X33356Y-27558D01*
X33359Y-27562D01*
X33363Y-27570D01*
X33367Y-27585D01*
X33367Y-27604D01*
X33363Y-27619D01*
X33359Y-27626D01*
X33356Y-27630D01*
X33348Y-27634D01*
X33341Y-27634D01*
X33333Y-27630D01*
X33329Y-27626D01*
X33326Y-27619D01*
X33322Y-27604D01*
X33322Y-27585D01*
X33326Y-27570D01*
X33329Y-27562D01*
X33333Y-27558D01*
X33341Y-27555D01*
X31486Y-36671D02*
X31460Y-36634D01*
X31441Y-36671D02*
X31441Y-36592D01*
X31471Y-36592D01*
X31479Y-36596D01*
X31483Y-36600D01*
X31486Y-36608D01*
X31486Y-36619D01*
X31483Y-36626D01*
X31479Y-36630D01*
X31471Y-36634D01*
X31441Y-36634D01*
X31554Y-36619D02*
X31554Y-36671D01*
X31535Y-36589D02*
X31516Y-36645D01*
X31565Y-36645D01*
X31838Y-27634D02*
X31812Y-27596D01*
X31793Y-27634D02*
X31793Y-27555D01*
X31823Y-27555D01*
X31831Y-27558D01*
X31835Y-27562D01*
X31838Y-27570D01*
X31838Y-27581D01*
X31835Y-27589D01*
X31831Y-27592D01*
X31823Y-27596D01*
X31793Y-27596D01*
X31869Y-27562D02*
X31872Y-27558D01*
X31880Y-27555D01*
X31899Y-27555D01*
X31906Y-27558D01*
X31910Y-27562D01*
X31914Y-27570D01*
X31914Y-27577D01*
X31910Y-27589D01*
X31865Y-27634D01*
X31914Y-27634D01*
X31989Y-27634D02*
X31944Y-27634D01*
X31966Y-27634D02*
X31966Y-27555D01*
X31959Y-27566D01*
X31951Y-27573D01*
X31944Y-27577D01*
X36209Y-30365D02*
X36171Y-30392D01*
X36209Y-30410D02*
X36130Y-30410D01*
X36130Y-30380D01*
X36134Y-30373D01*
X36137Y-30369D01*
X36145Y-30365D01*
X36156Y-30365D01*
X36164Y-30369D01*
X36167Y-30373D01*
X36171Y-30380D01*
X36171Y-30410D01*
X36137Y-30335D02*
X36134Y-30331D01*
X36130Y-30324D01*
X36130Y-30305D01*
X36134Y-30298D01*
X36137Y-30294D01*
X36145Y-30290D01*
X36152Y-30290D01*
X36164Y-30294D01*
X36209Y-30339D01*
X36209Y-30290D01*
X36137Y-30260D02*
X36134Y-30256D01*
X36130Y-30249D01*
X36130Y-30230D01*
X36134Y-30222D01*
X36137Y-30219D01*
X36145Y-30215D01*
X36152Y-30215D01*
X36164Y-30219D01*
X36209Y-30264D01*
X36209Y-30215D01*
X28530Y-28414D02*
X28503Y-28376D01*
X28484Y-28414D02*
X28484Y-28335D01*
X28515Y-28335D01*
X28522Y-28338D01*
X28526Y-28342D01*
X28530Y-28350D01*
X28530Y-28361D01*
X28526Y-28368D01*
X28522Y-28372D01*
X28515Y-28376D01*
X28484Y-28376D01*
X28575Y-28368D02*
X28567Y-28365D01*
X28563Y-28361D01*
X28560Y-28353D01*
X28560Y-28350D01*
X28563Y-28342D01*
X28567Y-28338D01*
X28575Y-28335D01*
X28590Y-28335D01*
X28597Y-28338D01*
X28601Y-28342D01*
X28605Y-28350D01*
X28605Y-28353D01*
X28601Y-28361D01*
X28597Y-28365D01*
X28590Y-28368D01*
X28575Y-28368D01*
X28567Y-28372D01*
X28563Y-28376D01*
X28560Y-28383D01*
X28560Y-28398D01*
X28563Y-28406D01*
X28567Y-28410D01*
X28575Y-28414D01*
X28590Y-28414D01*
X28597Y-28410D01*
X28601Y-28406D01*
X28605Y-28398D01*
X28605Y-28383D01*
X28601Y-28376D01*
X28597Y-28372D01*
X28590Y-28368D01*
X31486Y-36071D02*
X31460Y-36034D01*
X31441Y-36071D02*
X31441Y-35992D01*
X31471Y-35992D01*
X31479Y-35996D01*
X31483Y-36000D01*
X31486Y-36008D01*
X31486Y-36019D01*
X31483Y-36026D01*
X31479Y-36030D01*
X31471Y-36034D01*
X31441Y-36034D01*
X31562Y-36071D02*
X31516Y-36071D01*
X31539Y-36071D02*
X31539Y-35992D01*
X31531Y-36004D01*
X31524Y-36011D01*
X31516Y-36015D01*
X37114Y-31689D02*
X37088Y-31651D01*
X37069Y-31689D02*
X37069Y-31610D01*
X37099Y-31610D01*
X37107Y-31614D01*
X37110Y-31617D01*
X37114Y-31625D01*
X37114Y-31636D01*
X37110Y-31644D01*
X37107Y-31647D01*
X37099Y-31651D01*
X37069Y-31651D01*
X37189Y-31689D02*
X37144Y-31689D01*
X37167Y-31689D02*
X37167Y-31610D01*
X37159Y-31621D01*
X37152Y-31629D01*
X37144Y-31632D01*
X37238Y-31610D02*
X37246Y-31610D01*
X37253Y-31614D01*
X37257Y-31617D01*
X37261Y-31625D01*
X37265Y-31640D01*
X37265Y-31659D01*
X37261Y-31674D01*
X37257Y-31681D01*
X37253Y-31685D01*
X37246Y-31689D01*
X37238Y-31689D01*
X37231Y-31685D01*
X37227Y-31681D01*
X37223Y-31674D01*
X37219Y-31659D01*
X37219Y-31640D01*
X37223Y-31625D01*
X37227Y-31617D01*
X37231Y-31614D01*
X37238Y-31610D01*
X36209Y-27609D02*
X36171Y-27636D01*
X36209Y-27654D02*
X36130Y-27654D01*
X36130Y-27624D01*
X36134Y-27617D01*
X36137Y-27613D01*
X36145Y-27609D01*
X36156Y-27609D01*
X36164Y-27613D01*
X36167Y-27617D01*
X36171Y-27624D01*
X36171Y-27654D01*
X36137Y-27579D02*
X36134Y-27575D01*
X36130Y-27568D01*
X36130Y-27549D01*
X36134Y-27542D01*
X36137Y-27538D01*
X36145Y-27534D01*
X36152Y-27534D01*
X36164Y-27538D01*
X36209Y-27583D01*
X36209Y-27534D01*
X36156Y-27466D02*
X36209Y-27466D01*
X36126Y-27485D02*
X36182Y-27504D01*
X36182Y-27455D01*
X28786Y-34971D02*
X28760Y-34934D01*
X28741Y-34971D02*
X28741Y-34892D01*
X28771Y-34892D01*
X28779Y-34896D01*
X28783Y-34900D01*
X28786Y-34908D01*
X28786Y-34919D01*
X28783Y-34926D01*
X28779Y-34930D01*
X28771Y-34934D01*
X28741Y-34934D01*
X28813Y-34892D02*
X28862Y-34892D01*
X28835Y-34923D01*
X28847Y-34923D01*
X28854Y-34926D01*
X28858Y-34930D01*
X28862Y-34938D01*
X28862Y-34956D01*
X28858Y-34964D01*
X28854Y-34968D01*
X28847Y-34971D01*
X28824Y-34971D01*
X28816Y-34968D01*
X28813Y-34964D01*
X36209Y-35385D02*
X36171Y-35411D01*
X36209Y-35430D02*
X36130Y-35430D01*
X36130Y-35400D01*
X36134Y-35392D01*
X36137Y-35389D01*
X36145Y-35385D01*
X36156Y-35385D01*
X36164Y-35389D01*
X36167Y-35392D01*
X36171Y-35400D01*
X36171Y-35430D01*
X36137Y-35355D02*
X36134Y-35351D01*
X36130Y-35344D01*
X36130Y-35325D01*
X36134Y-35317D01*
X36137Y-35313D01*
X36145Y-35310D01*
X36152Y-35310D01*
X36164Y-35313D01*
X36209Y-35359D01*
X36209Y-35310D01*
X36130Y-35238D02*
X36130Y-35276D01*
X36167Y-35280D01*
X36164Y-35276D01*
X36160Y-35268D01*
X36160Y-35250D01*
X36164Y-35242D01*
X36167Y-35238D01*
X36175Y-35234D01*
X36194Y-35234D01*
X36201Y-35238D01*
X36205Y-35242D01*
X36209Y-35250D01*
X36209Y-35268D01*
X36205Y-35276D01*
X36201Y-35280D01*
X28171Y-35013D02*
X28134Y-35039D01*
X28171Y-35058D02*
X28092Y-35058D01*
X28092Y-35028D01*
X28096Y-35020D01*
X28100Y-35016D01*
X28108Y-35013D01*
X28119Y-35013D01*
X28126Y-35016D01*
X28130Y-35020D01*
X28134Y-35028D01*
X28134Y-35058D01*
X28100Y-34983D02*
X28096Y-34979D01*
X28092Y-34971D01*
X28092Y-34952D01*
X28096Y-34945D01*
X28100Y-34941D01*
X28108Y-34937D01*
X28115Y-34937D01*
X28126Y-34941D01*
X28171Y-34986D01*
X28171Y-34937D01*
X36209Y-34007D02*
X36171Y-34033D01*
X36209Y-34052D02*
X36130Y-34052D01*
X36130Y-34022D01*
X36134Y-34015D01*
X36137Y-34011D01*
X36145Y-34007D01*
X36156Y-34007D01*
X36164Y-34011D01*
X36167Y-34015D01*
X36171Y-34022D01*
X36171Y-34052D01*
X36137Y-33977D02*
X36134Y-33973D01*
X36130Y-33966D01*
X36130Y-33947D01*
X36134Y-33939D01*
X36137Y-33936D01*
X36145Y-33932D01*
X36152Y-33932D01*
X36164Y-33936D01*
X36209Y-33981D01*
X36209Y-33932D01*
X36130Y-33864D02*
X36130Y-33879D01*
X36134Y-33887D01*
X36137Y-33890D01*
X36149Y-33898D01*
X36164Y-33902D01*
X36194Y-33902D01*
X36201Y-33898D01*
X36205Y-33894D01*
X36209Y-33887D01*
X36209Y-33872D01*
X36205Y-33864D01*
X36201Y-33860D01*
X36194Y-33857D01*
X36175Y-33857D01*
X36167Y-33860D01*
X36164Y-33864D01*
X36160Y-33872D01*
X36160Y-33887D01*
X36164Y-33894D01*
X36167Y-33898D01*
X36175Y-33902D01*
X36209Y-32629D02*
X36171Y-32655D01*
X36209Y-32674D02*
X36130Y-32674D01*
X36130Y-32644D01*
X36134Y-32637D01*
X36137Y-32633D01*
X36145Y-32629D01*
X36156Y-32629D01*
X36164Y-32633D01*
X36167Y-32637D01*
X36171Y-32644D01*
X36171Y-32674D01*
X36137Y-32599D02*
X36134Y-32595D01*
X36130Y-32588D01*
X36130Y-32569D01*
X36134Y-32561D01*
X36137Y-32558D01*
X36145Y-32554D01*
X36152Y-32554D01*
X36164Y-32558D01*
X36209Y-32603D01*
X36209Y-32554D01*
X36130Y-32527D02*
X36130Y-32475D01*
X36209Y-32509D01*
X25539Y-32587D02*
X25513Y-32549D01*
X25494Y-32587D02*
X25494Y-32508D01*
X25524Y-32508D01*
X25532Y-32512D01*
X25536Y-32515D01*
X25539Y-32523D01*
X25539Y-32534D01*
X25536Y-32542D01*
X25532Y-32545D01*
X25524Y-32549D01*
X25494Y-32549D01*
X25615Y-32587D02*
X25569Y-32587D01*
X25592Y-32587D02*
X25592Y-32508D01*
X25584Y-32519D01*
X25577Y-32527D01*
X25569Y-32530D01*
X25645Y-32515D02*
X25648Y-32512D01*
X25656Y-32508D01*
X25675Y-32508D01*
X25682Y-32512D01*
X25686Y-32515D01*
X25690Y-32523D01*
X25690Y-32530D01*
X25686Y-32542D01*
X25641Y-32587D01*
X25690Y-32587D01*
X32823Y-40933D02*
X32796Y-40896D01*
X32778Y-40933D02*
X32778Y-40854D01*
X32808Y-40854D01*
X32815Y-40858D01*
X32819Y-40862D01*
X32823Y-40869D01*
X32823Y-40881D01*
X32819Y-40888D01*
X32815Y-40892D01*
X32808Y-40896D01*
X32778Y-40896D01*
X32898Y-40933D02*
X32853Y-40933D01*
X32875Y-40933D02*
X32875Y-40854D01*
X32868Y-40865D01*
X32860Y-40873D01*
X32853Y-40877D01*
X32924Y-40854D02*
X32973Y-40854D01*
X32947Y-40884D01*
X32958Y-40884D01*
X32966Y-40888D01*
X32969Y-40892D01*
X32973Y-40899D01*
X32973Y-40918D01*
X32969Y-40926D01*
X32966Y-40929D01*
X32958Y-40933D01*
X32936Y-40933D01*
X32928Y-40929D01*
X32924Y-40926D01*
X34201Y-40933D02*
X34174Y-40896D01*
X34156Y-40933D02*
X34156Y-40854D01*
X34186Y-40854D01*
X34193Y-40858D01*
X34197Y-40862D01*
X34201Y-40869D01*
X34201Y-40881D01*
X34197Y-40888D01*
X34193Y-40892D01*
X34186Y-40896D01*
X34156Y-40896D01*
X34276Y-40933D02*
X34231Y-40933D01*
X34253Y-40933D02*
X34253Y-40854D01*
X34246Y-40865D01*
X34238Y-40873D01*
X34231Y-40877D01*
X34344Y-40881D02*
X34344Y-40933D01*
X34325Y-40850D02*
X34306Y-40907D01*
X34355Y-40907D01*
X25539Y-33138D02*
X25513Y-33100D01*
X25494Y-33138D02*
X25494Y-33059D01*
X25524Y-33059D01*
X25532Y-33063D01*
X25536Y-33066D01*
X25539Y-33074D01*
X25539Y-33085D01*
X25536Y-33093D01*
X25532Y-33097D01*
X25524Y-33100D01*
X25494Y-33100D01*
X25615Y-33138D02*
X25569Y-33138D01*
X25592Y-33138D02*
X25592Y-33059D01*
X25584Y-33070D01*
X25577Y-33078D01*
X25569Y-33082D01*
X25690Y-33138D02*
X25645Y-33138D01*
X25667Y-33138D02*
X25667Y-33059D01*
X25660Y-33070D01*
X25652Y-33078D01*
X25645Y-33082D01*
X35579Y-40933D02*
X35552Y-40896D01*
X35533Y-40933D02*
X35533Y-40854D01*
X35564Y-40854D01*
X35571Y-40858D01*
X35575Y-40862D01*
X35579Y-40869D01*
X35579Y-40881D01*
X35575Y-40888D01*
X35571Y-40892D01*
X35564Y-40896D01*
X35533Y-40896D01*
X35654Y-40933D02*
X35609Y-40933D01*
X35631Y-40933D02*
X35631Y-40854D01*
X35624Y-40865D01*
X35616Y-40873D01*
X35609Y-40877D01*
X35725Y-40854D02*
X35688Y-40854D01*
X35684Y-40892D01*
X35688Y-40888D01*
X35695Y-40884D01*
X35714Y-40884D01*
X35722Y-40888D01*
X35725Y-40892D01*
X35729Y-40899D01*
X35729Y-40918D01*
X35725Y-40926D01*
X35722Y-40929D01*
X35714Y-40933D01*
X35695Y-40933D01*
X35688Y-40929D01*
X35684Y-40926D01*
X31486Y-37871D02*
X31460Y-37834D01*
X31441Y-37871D02*
X31441Y-37792D01*
X31471Y-37792D01*
X31479Y-37796D01*
X31483Y-37800D01*
X31486Y-37808D01*
X31486Y-37819D01*
X31483Y-37826D01*
X31479Y-37830D01*
X31471Y-37834D01*
X31441Y-37834D01*
X31554Y-37792D02*
X31539Y-37792D01*
X31531Y-37796D01*
X31528Y-37800D01*
X31520Y-37811D01*
X31516Y-37826D01*
X31516Y-37856D01*
X31520Y-37864D01*
X31524Y-37868D01*
X31531Y-37871D01*
X31547Y-37871D01*
X31554Y-37868D01*
X31558Y-37864D01*
X31562Y-37856D01*
X31562Y-37838D01*
X31558Y-37830D01*
X31554Y-37826D01*
X31547Y-37823D01*
X31531Y-37823D01*
X31524Y-37826D01*
X31520Y-37830D01*
X31516Y-37838D01*
X36209Y-40405D02*
X36171Y-40431D01*
X36209Y-40450D02*
X36130Y-40450D01*
X36130Y-40420D01*
X36134Y-40412D01*
X36137Y-40408D01*
X36145Y-40405D01*
X36156Y-40405D01*
X36164Y-40408D01*
X36167Y-40412D01*
X36171Y-40420D01*
X36171Y-40450D01*
X36209Y-40329D02*
X36209Y-40375D01*
X36209Y-40352D02*
X36130Y-40352D01*
X36141Y-40359D01*
X36149Y-40367D01*
X36152Y-40375D01*
X36130Y-40262D02*
X36130Y-40277D01*
X36134Y-40284D01*
X36137Y-40288D01*
X36149Y-40296D01*
X36164Y-40299D01*
X36194Y-40299D01*
X36201Y-40296D01*
X36205Y-40292D01*
X36209Y-40284D01*
X36209Y-40269D01*
X36205Y-40262D01*
X36201Y-40258D01*
X36194Y-40254D01*
X36175Y-40254D01*
X36167Y-40258D01*
X36164Y-40262D01*
X36160Y-40269D01*
X36160Y-40284D01*
X36164Y-40292D01*
X36167Y-40296D01*
X36175Y-40299D01*
X28530Y-28965D02*
X28503Y-28927D01*
X28484Y-28965D02*
X28484Y-28886D01*
X28515Y-28886D01*
X28522Y-28889D01*
X28526Y-28893D01*
X28530Y-28901D01*
X28530Y-28912D01*
X28526Y-28920D01*
X28522Y-28923D01*
X28515Y-28927D01*
X28484Y-28927D01*
X28556Y-28886D02*
X28609Y-28886D01*
X28575Y-28965D01*
X36209Y-39027D02*
X36171Y-39053D01*
X36209Y-39072D02*
X36130Y-39072D01*
X36130Y-39042D01*
X36134Y-39034D01*
X36137Y-39030D01*
X36145Y-39027D01*
X36156Y-39027D01*
X36164Y-39030D01*
X36167Y-39034D01*
X36171Y-39042D01*
X36171Y-39072D01*
X36209Y-38951D02*
X36209Y-38997D01*
X36209Y-38974D02*
X36130Y-38974D01*
X36141Y-38982D01*
X36149Y-38989D01*
X36152Y-38997D01*
X36130Y-38925D02*
X36130Y-38872D01*
X36209Y-38906D01*
X29681Y-28910D02*
X29643Y-28937D01*
X29681Y-28955D02*
X29602Y-28955D01*
X29602Y-28925D01*
X29606Y-28918D01*
X29609Y-28914D01*
X29617Y-28910D01*
X29628Y-28910D01*
X29636Y-28914D01*
X29640Y-28918D01*
X29643Y-28925D01*
X29643Y-28955D01*
X29681Y-28873D02*
X29681Y-28858D01*
X29677Y-28850D01*
X29673Y-28846D01*
X29662Y-28839D01*
X29647Y-28835D01*
X29617Y-28835D01*
X29609Y-28839D01*
X29606Y-28843D01*
X29602Y-28850D01*
X29602Y-28865D01*
X29606Y-28873D01*
X29609Y-28876D01*
X29617Y-28880D01*
X29636Y-28880D01*
X29643Y-28876D01*
X29647Y-28873D01*
X29651Y-28865D01*
X29651Y-28850D01*
X29647Y-28843D01*
X29643Y-28839D01*
X29636Y-28835D01*
X36209Y-37649D02*
X36171Y-37675D01*
X36209Y-37694D02*
X36130Y-37694D01*
X36130Y-37664D01*
X36134Y-37656D01*
X36137Y-37652D01*
X36145Y-37649D01*
X36156Y-37649D01*
X36164Y-37652D01*
X36167Y-37656D01*
X36171Y-37664D01*
X36171Y-37694D01*
X36209Y-37573D02*
X36209Y-37619D01*
X36209Y-37596D02*
X36130Y-37596D01*
X36141Y-37604D01*
X36149Y-37611D01*
X36152Y-37619D01*
X36164Y-37528D02*
X36160Y-37536D01*
X36156Y-37540D01*
X36149Y-37543D01*
X36145Y-37543D01*
X36137Y-37540D01*
X36134Y-37536D01*
X36130Y-37528D01*
X36130Y-37513D01*
X36134Y-37506D01*
X36137Y-37502D01*
X36145Y-37498D01*
X36149Y-37498D01*
X36156Y-37502D01*
X36160Y-37506D01*
X36164Y-37513D01*
X36164Y-37528D01*
X36167Y-37536D01*
X36171Y-37540D01*
X36179Y-37543D01*
X36194Y-37543D01*
X36201Y-37540D01*
X36205Y-37536D01*
X36209Y-37528D01*
X36209Y-37513D01*
X36205Y-37506D01*
X36201Y-37502D01*
X36194Y-37498D01*
X36179Y-37498D01*
X36171Y-37502D01*
X36167Y-37506D01*
X36164Y-37513D01*
G54D20*
X24252Y-36365D02*
X24055Y-36365D01*
X24055Y-36290D01*
X24064Y-36272D01*
X24074Y-36262D01*
X24093Y-36253D01*
X24121Y-36253D01*
X24140Y-36262D01*
X24149Y-36272D01*
X24158Y-36290D01*
X24158Y-36365D01*
X24074Y-36178D02*
X24064Y-36168D01*
X24055Y-36150D01*
X24055Y-36103D01*
X24064Y-36084D01*
X24074Y-36075D01*
X24093Y-36065D01*
X24111Y-36065D01*
X24140Y-36075D01*
X24252Y-36187D01*
X24252Y-36065D01*
G54D19*
X30274Y-32300D02*
X30278Y-32304D01*
X30281Y-32315D01*
X30281Y-32323D01*
X30278Y-32334D01*
X30270Y-32342D01*
X30263Y-32345D01*
X30248Y-32349D01*
X30236Y-32349D01*
X30221Y-32345D01*
X30214Y-32342D01*
X30206Y-32334D01*
X30202Y-32323D01*
X30202Y-32315D01*
X30206Y-32304D01*
X30210Y-32300D01*
X30281Y-32225D02*
X30281Y-32270D01*
X30281Y-32248D02*
X30202Y-32248D01*
X30214Y-32255D01*
X30221Y-32263D01*
X30225Y-32270D01*
X30281Y-32150D02*
X30281Y-32195D01*
X30281Y-32172D02*
X30202Y-32172D01*
X30214Y-32180D01*
X30221Y-32187D01*
X30225Y-32195D01*
X28749Y-38074D02*
X28745Y-38078D01*
X28734Y-38081D01*
X28726Y-38081D01*
X28715Y-38078D01*
X28707Y-38070D01*
X28704Y-38063D01*
X28700Y-38048D01*
X28700Y-38036D01*
X28704Y-38021D01*
X28707Y-38014D01*
X28715Y-38006D01*
X28726Y-38002D01*
X28734Y-38002D01*
X28745Y-38006D01*
X28749Y-38010D01*
X28824Y-38081D02*
X28779Y-38081D01*
X28801Y-38081D02*
X28801Y-38002D01*
X28794Y-38014D01*
X28786Y-38021D01*
X28779Y-38025D01*
X28854Y-38010D02*
X28858Y-38006D01*
X28865Y-38002D01*
X28884Y-38002D01*
X28892Y-38006D01*
X28895Y-38010D01*
X28899Y-38018D01*
X28899Y-38025D01*
X28895Y-38036D01*
X28850Y-38081D01*
X28899Y-38081D01*
G54D18*
X29473Y-42510D02*
X29463Y-42520D01*
X29435Y-42529D01*
X29417Y-42529D01*
X29388Y-42520D01*
X29370Y-42501D01*
X29360Y-42482D01*
X29351Y-42445D01*
X29351Y-42417D01*
X29360Y-42379D01*
X29370Y-42360D01*
X29388Y-42342D01*
X29417Y-42332D01*
X29435Y-42332D01*
X29463Y-42342D01*
X29473Y-42351D01*
X29660Y-42529D02*
X29548Y-42529D01*
X29604Y-42529D02*
X29604Y-42332D01*
X29585Y-42360D01*
X29567Y-42379D01*
X29548Y-42389D01*
X29726Y-42332D02*
X29848Y-42332D01*
X29782Y-42407D01*
X29811Y-42407D01*
X29829Y-42417D01*
X29839Y-42426D01*
X29848Y-42445D01*
X29848Y-42492D01*
X29839Y-42510D01*
X29829Y-42520D01*
X29811Y-42529D01*
X29754Y-42529D01*
X29736Y-42520D01*
X29726Y-42510D01*
X37904Y-24062D02*
X37895Y-24071D01*
X37867Y-24080D01*
X37848Y-24080D01*
X37820Y-24071D01*
X37801Y-24052D01*
X37792Y-24034D01*
X37782Y-23996D01*
X37782Y-23968D01*
X37792Y-23930D01*
X37801Y-23912D01*
X37820Y-23893D01*
X37848Y-23883D01*
X37867Y-23883D01*
X37895Y-23893D01*
X37904Y-23902D01*
X38092Y-24080D02*
X37979Y-24080D01*
X38036Y-24080D02*
X38036Y-23883D01*
X38017Y-23912D01*
X37998Y-23930D01*
X37979Y-23940D01*
X38261Y-23949D02*
X38261Y-24080D01*
X38214Y-23874D02*
X38167Y-24015D01*
X38289Y-24015D01*
G54D13*
X26157Y-45514D02*
X26157Y-44914D01*
X26385Y-44914D01*
X26442Y-44943D01*
X26471Y-44972D01*
X26500Y-45029D01*
X26500Y-45114D01*
X26471Y-45172D01*
X26442Y-45200D01*
X26385Y-45229D01*
X26157Y-45229D01*
X27014Y-45114D02*
X27014Y-45514D01*
X26871Y-44886D02*
X26728Y-45314D01*
X27100Y-45314D01*
G54D19*
X38492Y-31703D02*
X38488Y-31707D01*
X38477Y-31711D01*
X38469Y-31711D01*
X38458Y-31707D01*
X38451Y-31699D01*
X38447Y-31692D01*
X38443Y-31677D01*
X38443Y-31665D01*
X38447Y-31650D01*
X38451Y-31643D01*
X38458Y-31635D01*
X38469Y-31632D01*
X38477Y-31632D01*
X38488Y-31635D01*
X38492Y-31639D01*
X38567Y-31711D02*
X38522Y-31711D01*
X38545Y-31711D02*
X38545Y-31632D01*
X38537Y-31643D01*
X38530Y-31650D01*
X38522Y-31654D01*
X38639Y-31632D02*
X38601Y-31632D01*
X38597Y-31669D01*
X38601Y-31665D01*
X38609Y-31662D01*
X38627Y-31662D01*
X38635Y-31665D01*
X38639Y-31669D01*
X38642Y-31677D01*
X38642Y-31696D01*
X38639Y-31703D01*
X38635Y-31707D01*
X38627Y-31711D01*
X38609Y-31711D01*
X38601Y-31707D01*
X38597Y-31703D01*
X38531Y-36703D02*
X38528Y-36707D01*
X38516Y-36711D01*
X38509Y-36711D01*
X38498Y-36707D01*
X38490Y-36699D01*
X38486Y-36692D01*
X38482Y-36677D01*
X38482Y-36665D01*
X38486Y-36650D01*
X38490Y-36643D01*
X38498Y-36635D01*
X38509Y-36632D01*
X38516Y-36632D01*
X38528Y-36635D01*
X38531Y-36639D01*
X38607Y-36711D02*
X38561Y-36711D01*
X38584Y-36711D02*
X38584Y-36632D01*
X38577Y-36643D01*
X38569Y-36650D01*
X38561Y-36654D01*
X38674Y-36632D02*
X38659Y-36632D01*
X38652Y-36635D01*
X38648Y-36639D01*
X38640Y-36650D01*
X38637Y-36665D01*
X38637Y-36696D01*
X38640Y-36703D01*
X38644Y-36707D01*
X38652Y-36711D01*
X38667Y-36711D01*
X38674Y-36707D01*
X38678Y-36703D01*
X38682Y-36696D01*
X38682Y-36677D01*
X38678Y-36669D01*
X38674Y-36665D01*
X38667Y-36662D01*
X38652Y-36662D01*
X38644Y-36665D01*
X38640Y-36669D01*
X38637Y-36677D01*
G54D18*
X38062Y-42211D02*
X38052Y-42221D01*
X38024Y-42230D01*
X38006Y-42230D01*
X37977Y-42221D01*
X37959Y-42202D01*
X37949Y-42183D01*
X37940Y-42146D01*
X37940Y-42117D01*
X37949Y-42080D01*
X37959Y-42061D01*
X37977Y-42042D01*
X38006Y-42033D01*
X38024Y-42033D01*
X38052Y-42042D01*
X38062Y-42052D01*
X38249Y-42230D02*
X38137Y-42230D01*
X38193Y-42230D02*
X38193Y-42033D01*
X38174Y-42061D01*
X38156Y-42080D01*
X38137Y-42089D01*
X38315Y-42033D02*
X38446Y-42033D01*
X38362Y-42230D01*
%LPC*%
G54D21*
X30100Y-39300D03*
G54D22*
X30100Y-41900D03*
X31000Y-41900D03*
X29200Y-41900D03*
G54D23*
X32100Y-39300D03*
X33300Y-39300D03*
X28000Y-39500D03*
X26800Y-39500D03*
G54D24*
X28247Y-29724D03*
X28839Y-29724D03*
G54D25*
X27900Y-37104D03*
X27900Y-37696D03*
G54D24*
X31704Y-28750D03*
X32296Y-28750D03*
X33546Y-33750D03*
X32954Y-33750D03*
G54D25*
X35275Y-29625D03*
X35275Y-30217D03*
X30500Y-32546D03*
X30500Y-31954D03*
G54D24*
X32404Y-38500D03*
X32996Y-38500D03*
X29096Y-37700D03*
X28504Y-37700D03*
G54D26*
X36985Y-29939D03*
X37817Y-30314D03*
X36985Y-30689D03*
G54D27*
X36004Y-41709D03*
X35629Y-42541D03*
X35254Y-41709D03*
G54D26*
X36985Y-39979D03*
X37817Y-40354D03*
X36985Y-40729D03*
X36985Y-38601D03*
X37817Y-38976D03*
X36985Y-39351D03*
X36985Y-37223D03*
X37817Y-37598D03*
X36985Y-37973D03*
G54D27*
X34626Y-41709D03*
X34251Y-42541D03*
X33876Y-41709D03*
X34270Y-26793D03*
X34645Y-25961D03*
X35020Y-26793D03*
X32892Y-26793D03*
X33267Y-25961D03*
X33642Y-26793D03*
X31514Y-26793D03*
X31889Y-25961D03*
X32264Y-26793D03*
G54D26*
X36985Y-28562D03*
X37817Y-28937D03*
X36985Y-29312D03*
X36985Y-27184D03*
X37817Y-27559D03*
X36985Y-27934D03*
X36985Y-34959D03*
X37817Y-35334D03*
X36985Y-35709D03*
X36985Y-33581D03*
X37817Y-33956D03*
X36985Y-34331D03*
X36985Y-32203D03*
X37817Y-32578D03*
X36985Y-32953D03*
G54D27*
X33249Y-41709D03*
X32874Y-42541D03*
X32499Y-41709D03*
X30729Y-28639D03*
X30354Y-29471D03*
X29979Y-28639D03*
G54D28*
X38750Y-36000D03*
G54D29*
X38750Y-35000D03*
X38750Y-34000D03*
X38750Y-33000D03*
G54D28*
X38750Y-31000D03*
G54D29*
X38750Y-30000D03*
X38750Y-29000D03*
X38750Y-28000D03*
G54D30*
X35250Y-25000D03*
G54D31*
X34250Y-25000D03*
X33250Y-25000D03*
X32250Y-25000D03*
G54D28*
X38750Y-41000D03*
G54D29*
X38750Y-40000D03*
X38750Y-39000D03*
X38750Y-38000D03*
G54D30*
X32250Y-43500D03*
G54D31*
X33250Y-43500D03*
X34250Y-43500D03*
X35250Y-43500D03*
G54D28*
X27244Y-31598D03*
G54D29*
X27244Y-32598D03*
X27244Y-33598D03*
G54D28*
X25700Y-30100D03*
G54D29*
X25700Y-29100D03*
X25700Y-28100D03*
X25700Y-27100D03*
X25700Y-26100D03*
X25700Y-25100D03*
G54D32*
X32508Y-32864D03*
X32705Y-32864D03*
X32902Y-32864D03*
X33098Y-32864D03*
X33295Y-32864D03*
X31917Y-32864D03*
X32114Y-32864D03*
X32311Y-32864D03*
G54D33*
X34614Y-32333D03*
X34614Y-32136D03*
X34614Y-31939D03*
X34614Y-31742D03*
X34614Y-31545D03*
X34614Y-31348D03*
X34614Y-31152D03*
X34614Y-30955D03*
G54D32*
X34083Y-29636D03*
X33886Y-29636D03*
X33689Y-29636D03*
X33492Y-29636D03*
X33295Y-29636D03*
X33098Y-29636D03*
X32902Y-29636D03*
X32705Y-29636D03*
G54D33*
X31386Y-30167D03*
X31386Y-30364D03*
X31386Y-30561D03*
X31386Y-30758D03*
X31386Y-30955D03*
X31386Y-31152D03*
X31386Y-31348D03*
X31386Y-31545D03*
G54D32*
X33492Y-32864D03*
X33689Y-32864D03*
X33886Y-32864D03*
X34083Y-32864D03*
G54D33*
X34614Y-30758D03*
X34614Y-30561D03*
X34614Y-30364D03*
X34614Y-30167D03*
G54D32*
X32508Y-29636D03*
X32311Y-29636D03*
X32114Y-29636D03*
X31917Y-29636D03*
G54D33*
X31386Y-31742D03*
X31386Y-31939D03*
X31386Y-32136D03*
X31386Y-32333D03*
G54D34*
X28858Y-27102D03*
X28858Y-25102D03*
G54D35*
X32305Y-35800D03*
X32895Y-35800D03*
X32305Y-36400D03*
X32895Y-36400D03*
X32305Y-37000D03*
X32895Y-37000D03*
X32305Y-37600D03*
X32895Y-37600D03*
G54D36*
X26555Y-40629D03*
X28011Y-40629D03*
X26555Y-41574D03*
X28011Y-41574D03*
G54D25*
X36417Y-28641D03*
X36417Y-29233D03*
G54D24*
X34349Y-27362D03*
X34941Y-27362D03*
X31204Y-37000D03*
X31796Y-37000D03*
X32971Y-27362D03*
X33563Y-27362D03*
X31204Y-36400D03*
X31796Y-36400D03*
X31593Y-27362D03*
X32185Y-27362D03*
G54D25*
X36417Y-30018D03*
X36417Y-30610D03*
G54D24*
X28839Y-28622D03*
X28247Y-28622D03*
X31204Y-35800D03*
X31796Y-35800D03*
X36869Y-31417D03*
X37461Y-31417D03*
G54D25*
X36417Y-27263D03*
X36417Y-27855D03*
G54D24*
X28504Y-34700D03*
X29096Y-34700D03*
G54D25*
X36417Y-35038D03*
X36417Y-35630D03*
X27900Y-35296D03*
X27900Y-34704D03*
X36417Y-33660D03*
X36417Y-34252D03*
X36417Y-32282D03*
X36417Y-32874D03*
G54D24*
X25886Y-32795D03*
X25294Y-32795D03*
X33170Y-41141D03*
X32578Y-41141D03*
X34547Y-41141D03*
X33955Y-41141D03*
X25886Y-33346D03*
X25294Y-33346D03*
X35925Y-41141D03*
X35333Y-41141D03*
X31204Y-37600D03*
X31796Y-37600D03*
G54D25*
X36417Y-40058D03*
X36417Y-40650D03*
G54D24*
X28839Y-29173D03*
X28247Y-29173D03*
G54D25*
X36417Y-38680D03*
X36417Y-39272D03*
X29409Y-29193D03*
X29409Y-28601D03*
X36417Y-37302D03*
X36417Y-37894D03*
G54D37*
X25196Y-35890D03*
X25196Y-36550D03*
G54D38*
X25196Y-37367D03*
X25196Y-35073D03*
G54D39*
X26101Y-37189D03*
X26101Y-35251D03*
G54D40*
X26243Y-35708D03*
X26243Y-35964D03*
X26243Y-36220D03*
X26243Y-36476D03*
X26243Y-36732D03*
G54D41*
X29683Y-35394D03*
G54D42*
X29427Y-35394D03*
X29173Y-35394D03*
G54D41*
X28917Y-35394D03*
G54D43*
X28494Y-35817D03*
G54D44*
X28494Y-36073D03*
X28494Y-36327D03*
G54D43*
X28494Y-36583D03*
G54D41*
X28917Y-37006D03*
G54D42*
X29173Y-37006D03*
X29427Y-37006D03*
G54D41*
X29683Y-37006D03*
G54D43*
X30106Y-36583D03*
G54D44*
X30106Y-36327D03*
X30106Y-36073D03*
G54D43*
X30106Y-35817D03*
G54D45*
X29300Y-36200D03*
G54D25*
X30000Y-32546D03*
X30000Y-31954D03*
G54D24*
X29096Y-38300D03*
X28504Y-38300D03*
G54D46*
X30683Y-44000D03*
X28517Y-44000D03*
X39114Y-25551D03*
X36948Y-25551D03*
G54D47*
X27100Y-43500D03*
G54D48*
X26100Y-43500D03*
G54D24*
X38839Y-31929D03*
X38247Y-31929D03*
X38878Y-36929D03*
X38286Y-36929D03*
G54D46*
X39271Y-43700D03*
X37105Y-43700D03*
M02*
