G04 (created by PCBNEW (2013-mar-13)-testing) date Tue 02 Jul 2013 08:12:50 AM CEST*
%MOIN*%
G04 Gerber Fmt 3.4, Leading zero omitted, Abs format*
%FSLAX34Y34*%
G01*
G70*
G90*
G04 APERTURE LIST*
%ADD10C,0.006*%
%ADD11R,0.0866X0.06*%
%ADD12O,0.0866X0.06*%
%ADD13R,0.06X0.0866*%
%ADD14O,0.06X0.0866*%
%ADD15C,0.0787*%
%ADD16O,0.0787X0.0787*%
%ADD17R,0.0787X0.0787*%
%ADD18C,0.035*%
%ADD19C,0.01*%
%ADD20C,0.015748*%
%ADD21C,0.0787402*%
%ADD22C,0.011811*%
G04 APERTURE END LIST*
G54D10*
G54D11*
X38750Y-36000D03*
G54D12*
X38750Y-35000D03*
X38750Y-34000D03*
X38750Y-33000D03*
G54D11*
X38750Y-31000D03*
G54D12*
X38750Y-30000D03*
X38750Y-29000D03*
X38750Y-28000D03*
G54D13*
X35250Y-25000D03*
G54D14*
X34250Y-25000D03*
X33250Y-25000D03*
X32250Y-25000D03*
G54D11*
X38750Y-41000D03*
G54D12*
X38750Y-40000D03*
X38750Y-39000D03*
X38750Y-38000D03*
G54D13*
X32250Y-43500D03*
G54D14*
X33250Y-43500D03*
X34250Y-43500D03*
X35250Y-43500D03*
G54D11*
X27244Y-31598D03*
G54D12*
X27244Y-32598D03*
X27244Y-33598D03*
G54D11*
X25700Y-30100D03*
G54D12*
X25700Y-29100D03*
X25700Y-28100D03*
X25700Y-27100D03*
X25700Y-26100D03*
X25700Y-25100D03*
G54D15*
X28858Y-27102D03*
X28858Y-25102D03*
G54D16*
X27100Y-43500D03*
G54D17*
X26100Y-43500D03*
G54D18*
X31771Y-28267D03*
X32637Y-28267D03*
X35944Y-29960D03*
X36417Y-31102D03*
X35944Y-30984D03*
X35905Y-29448D03*
X36771Y-31889D03*
X32637Y-31023D03*
X25866Y-33779D03*
X28740Y-32559D03*
X26338Y-30905D03*
X33976Y-30826D03*
X36417Y-31614D03*
X31968Y-31535D03*
X33346Y-37598D03*
X29409Y-28031D03*
X33937Y-31889D03*
X28346Y-31614D03*
X26850Y-28149D03*
X33228Y-28582D03*
X33346Y-36417D03*
X29566Y-37559D03*
X32834Y-27874D03*
X33346Y-37047D03*
X27992Y-35748D03*
X27165Y-36417D03*
X27637Y-35984D03*
X29133Y-39763D03*
X31102Y-39763D03*
X30708Y-40157D03*
X29527Y-40157D03*
X31299Y-28346D03*
X29921Y-29133D03*
X25944Y-32086D03*
X30078Y-41141D03*
X29527Y-32559D03*
X39763Y-31889D03*
X39763Y-37007D03*
X39763Y-26377D03*
X38188Y-26377D03*
X38976Y-26377D03*
X40157Y-44488D03*
X39370Y-44488D03*
X38582Y-44488D03*
X31496Y-44881D03*
X30708Y-44881D03*
X29921Y-44881D03*
X26023Y-40669D03*
X31141Y-35314D03*
X26889Y-35590D03*
X31102Y-25590D03*
X32480Y-33700D03*
X29488Y-31968D03*
X27283Y-37086D03*
X26377Y-38149D03*
X25669Y-38149D03*
X29763Y-34606D03*
X26771Y-30984D03*
X32992Y-32125D03*
X27401Y-34960D03*
X28582Y-37125D03*
X30826Y-40629D03*
X28464Y-40590D03*
G54D19*
X32637Y-28267D02*
X31771Y-28267D01*
X36299Y-29960D02*
X35944Y-29960D01*
X36417Y-30078D02*
X36299Y-29960D01*
X36417Y-31102D02*
X36417Y-30078D01*
X35944Y-30984D02*
X35944Y-30393D01*
X35629Y-29724D02*
X35905Y-29448D01*
X35629Y-30078D02*
X35629Y-29724D01*
X35944Y-30393D02*
X35629Y-30078D01*
X36692Y-31968D02*
X36771Y-31889D01*
X35905Y-31968D02*
X36692Y-31968D01*
X35157Y-31220D02*
X35905Y-31968D01*
X33818Y-31220D02*
X35157Y-31220D01*
X33661Y-31062D02*
X33818Y-31220D01*
X32677Y-31062D02*
X33661Y-31062D01*
X32637Y-31023D02*
X32677Y-31062D01*
X26535Y-33110D02*
X25866Y-33779D01*
X27480Y-33110D02*
X26535Y-33110D01*
X27953Y-32637D02*
X27480Y-33110D01*
X28661Y-32637D02*
X27953Y-32637D01*
X28740Y-32559D02*
X28661Y-32637D01*
X26968Y-30275D02*
X26968Y-29251D01*
X26338Y-30905D02*
X26968Y-30275D01*
X26816Y-29100D02*
X25700Y-29100D01*
X26968Y-29251D02*
X26816Y-29100D01*
X34094Y-30944D02*
X33976Y-30826D01*
X35314Y-30944D02*
X34094Y-30944D01*
X35866Y-31496D02*
X35314Y-30944D01*
X36299Y-31496D02*
X35866Y-31496D01*
X36417Y-31614D02*
X36299Y-31496D01*
X32913Y-32480D02*
X31968Y-31535D01*
X32913Y-35236D02*
X32913Y-32480D01*
X33700Y-36023D02*
X32913Y-35236D01*
X33700Y-37244D02*
X33700Y-36023D01*
X33346Y-37598D02*
X33700Y-37244D01*
X29409Y-30354D02*
X29409Y-28031D01*
X29960Y-30905D02*
X29409Y-30354D01*
X32047Y-30905D02*
X29960Y-30905D01*
X32637Y-31496D02*
X32047Y-30905D01*
X33543Y-31496D02*
X32637Y-31496D01*
X33937Y-31889D02*
X33543Y-31496D01*
X28330Y-31598D02*
X27244Y-31598D01*
X28346Y-31614D02*
X28330Y-31598D01*
X26800Y-28100D02*
X25700Y-28100D01*
X26850Y-28149D02*
X26800Y-28100D01*
X33228Y-28582D02*
X33228Y-27755D01*
X25118Y-27518D02*
X25700Y-28100D01*
X25118Y-26732D02*
X25118Y-27518D01*
X25275Y-26574D02*
X25118Y-26732D01*
X26456Y-26574D02*
X25275Y-26574D01*
X26929Y-26102D02*
X26456Y-26574D01*
X29527Y-26102D02*
X26929Y-26102D01*
X30000Y-26574D02*
X29527Y-26102D01*
X30000Y-27047D02*
X30000Y-26574D01*
X30511Y-27559D02*
X30000Y-27047D01*
X33031Y-27559D02*
X30511Y-27559D01*
X33228Y-27755D02*
X33031Y-27559D01*
X33346Y-36535D02*
X33346Y-36417D01*
X32322Y-37559D02*
X33346Y-36535D01*
X31535Y-37559D02*
X32322Y-37559D01*
X29566Y-37559D02*
X31535Y-37559D01*
X32834Y-27874D02*
X30511Y-27874D01*
X26561Y-27100D02*
X25700Y-27100D01*
X27283Y-26377D02*
X26561Y-27100D01*
X29488Y-26377D02*
X27283Y-26377D01*
X29724Y-26614D02*
X29488Y-26377D01*
X29724Y-27086D02*
X29724Y-26614D01*
X30511Y-27874D02*
X29724Y-27086D01*
X32519Y-37874D02*
X33346Y-37047D01*
X28228Y-37874D02*
X32519Y-37874D01*
X27992Y-37637D02*
X28228Y-37874D01*
X27992Y-36259D02*
X27992Y-37637D01*
X27992Y-35748D02*
X27992Y-36259D01*
X27204Y-36417D02*
X27165Y-36417D01*
X27637Y-35984D02*
X27204Y-36417D01*
X30708Y-28346D02*
X31299Y-28346D01*
X29921Y-29133D02*
X30708Y-28346D01*
G54D20*
X24881Y-31102D02*
X24881Y-40511D01*
X25511Y-41141D02*
X30078Y-41141D01*
X24881Y-40511D02*
X25511Y-41141D01*
X25081Y-26100D02*
X25700Y-26100D01*
X24881Y-26299D02*
X25081Y-26100D01*
X24881Y-31141D02*
X24881Y-31102D01*
X24881Y-31102D02*
X24881Y-26299D01*
X25826Y-32086D02*
X24881Y-31141D01*
X29055Y-32086D02*
X25944Y-32086D01*
X25944Y-32086D02*
X25826Y-32086D01*
X29527Y-32559D02*
X29055Y-32086D01*
G54D21*
X26100Y-43500D02*
X25397Y-43500D01*
X25397Y-43500D02*
X25196Y-43700D01*
X26100Y-43500D02*
X26100Y-44372D01*
X26100Y-44372D02*
X25984Y-44488D01*
X35250Y-25000D02*
X36023Y-25000D01*
X36023Y-25000D02*
X36220Y-24803D01*
X38750Y-31000D02*
X39661Y-31000D01*
X39661Y-31000D02*
X39763Y-31102D01*
X38750Y-36000D02*
X39590Y-36000D01*
X39590Y-36000D02*
X39763Y-35826D01*
X38750Y-41000D02*
X39708Y-41000D01*
X39708Y-41000D02*
X39763Y-40944D01*
X32250Y-43500D02*
X32250Y-44454D01*
X32250Y-44454D02*
X32283Y-44488D01*
G54D20*
X26614Y-35590D02*
X26889Y-35590D01*
X26023Y-36181D02*
X26614Y-35590D01*
X26023Y-40669D02*
X26023Y-36181D01*
X30472Y-35314D02*
X31141Y-35314D01*
X27165Y-35314D02*
X30472Y-35314D01*
X26889Y-35590D02*
X27165Y-35314D01*
X28858Y-25102D02*
X30614Y-25102D01*
X30614Y-25102D02*
X31102Y-25590D01*
X29763Y-32952D02*
X32125Y-32952D01*
X32480Y-33307D02*
X32480Y-33700D01*
X32125Y-32952D02*
X32480Y-33307D01*
X27889Y-32952D02*
X27244Y-33598D01*
X29763Y-32952D02*
X27889Y-32952D01*
X29921Y-32795D02*
X29763Y-32952D01*
X29921Y-32401D02*
X29921Y-32795D01*
X29566Y-32047D02*
X29921Y-32401D01*
X29488Y-31968D02*
X29566Y-32047D01*
X25700Y-25100D02*
X28855Y-25100D01*
X28855Y-25100D02*
X28858Y-25102D01*
G54D19*
X26850Y-37519D02*
X27283Y-37086D01*
X26850Y-37677D02*
X26850Y-37519D01*
X26377Y-38149D02*
X26850Y-37677D01*
X25748Y-38070D02*
X25669Y-38149D01*
X25748Y-36102D02*
X25748Y-38070D01*
X27322Y-34527D02*
X25748Y-36102D01*
X29685Y-34527D02*
X27322Y-34527D01*
X29763Y-34606D02*
X29685Y-34527D01*
X26968Y-31181D02*
X26771Y-30984D01*
X32047Y-31181D02*
X26968Y-31181D01*
X32992Y-32125D02*
X32047Y-31181D01*
X27440Y-35000D02*
X27401Y-34960D01*
X31377Y-35000D02*
X27440Y-35000D01*
X31535Y-35157D02*
X31377Y-35000D01*
X31535Y-36771D02*
X31535Y-35157D01*
X31181Y-37125D02*
X31535Y-36771D01*
X28582Y-37125D02*
X31181Y-37125D01*
G54D22*
X28503Y-40629D02*
X30826Y-40629D01*
X28464Y-40590D02*
X28503Y-40629D01*
G54D10*
G36*
X33250Y-35997D02*
X33106Y-36056D01*
X32986Y-36176D01*
X32921Y-36332D01*
X32921Y-36501D01*
X32931Y-36526D01*
X32198Y-37259D01*
X31535Y-37259D01*
X31472Y-37259D01*
X31747Y-36983D01*
X31747Y-36983D01*
X31812Y-36886D01*
X31835Y-36771D01*
X31835Y-36771D01*
X31835Y-35157D01*
X31812Y-35042D01*
X31747Y-34945D01*
X31747Y-34945D01*
X31590Y-34787D01*
X31492Y-34722D01*
X31377Y-34700D01*
X30185Y-34700D01*
X30188Y-34691D01*
X30188Y-34522D01*
X30124Y-34365D01*
X30004Y-34246D01*
X29848Y-34181D01*
X29679Y-34181D01*
X29567Y-34227D01*
X27910Y-34227D01*
X27910Y-33733D01*
X27862Y-33648D01*
X27294Y-33648D01*
X27294Y-34148D01*
X27427Y-34148D01*
X27633Y-34087D01*
X27801Y-33951D01*
X27904Y-33762D01*
X27910Y-33733D01*
X27910Y-34227D01*
X27322Y-34227D01*
X27208Y-34250D01*
X27194Y-34259D01*
X27194Y-34148D01*
X27194Y-33648D01*
X26626Y-33648D01*
X26577Y-33733D01*
X26583Y-33762D01*
X26686Y-33951D01*
X26854Y-34087D01*
X27061Y-34148D01*
X27194Y-34148D01*
X27194Y-34259D01*
X27110Y-34315D01*
X25535Y-35890D01*
X25470Y-35987D01*
X25448Y-36102D01*
X25448Y-37781D01*
X25428Y-37789D01*
X25309Y-37908D01*
X25244Y-38064D01*
X25244Y-38233D01*
X25308Y-38390D01*
X25428Y-38509D01*
X25584Y-38574D01*
X25694Y-38574D01*
X25694Y-40396D01*
X25663Y-40428D01*
X25598Y-40584D01*
X25598Y-40753D01*
X25605Y-40770D01*
X25210Y-40375D01*
X25210Y-31935D01*
X25571Y-32296D01*
X25584Y-32327D01*
X25703Y-32446D01*
X25859Y-32511D01*
X26029Y-32511D01*
X26185Y-32447D01*
X26217Y-32415D01*
X26584Y-32415D01*
X26547Y-32598D01*
X26589Y-32808D01*
X26590Y-32810D01*
X26535Y-32810D01*
X26420Y-32833D01*
X26323Y-32898D01*
X25866Y-33354D01*
X25781Y-33354D01*
X25625Y-33419D01*
X25506Y-33538D01*
X25441Y-33694D01*
X25441Y-33863D01*
X25505Y-34019D01*
X25625Y-34139D01*
X25781Y-34204D01*
X25950Y-34204D01*
X26106Y-34140D01*
X26226Y-34020D01*
X26291Y-33864D01*
X26291Y-33778D01*
X26588Y-33481D01*
X26626Y-33548D01*
X27194Y-33548D01*
X27194Y-33540D01*
X27294Y-33540D01*
X27294Y-33548D01*
X27862Y-33548D01*
X27910Y-33463D01*
X27904Y-33434D01*
X27801Y-33244D01*
X27784Y-33230D01*
X28077Y-32937D01*
X28544Y-32937D01*
X28655Y-32983D01*
X28824Y-32984D01*
X28980Y-32919D01*
X29100Y-32800D01*
X29133Y-32719D01*
X29167Y-32799D01*
X29286Y-32919D01*
X29442Y-32983D01*
X29611Y-32984D01*
X29767Y-32919D01*
X29887Y-32800D01*
X29952Y-32643D01*
X29952Y-32474D01*
X29888Y-32318D01*
X29768Y-32198D01*
X29612Y-32134D01*
X29567Y-32134D01*
X29287Y-31854D01*
X29180Y-31782D01*
X29055Y-31757D01*
X28746Y-31757D01*
X28771Y-31699D01*
X28771Y-31530D01*
X28751Y-31481D01*
X31543Y-31481D01*
X31543Y-31619D01*
X31607Y-31775D01*
X31727Y-31895D01*
X31883Y-31960D01*
X31969Y-31960D01*
X32613Y-32604D01*
X32613Y-35236D01*
X32636Y-35351D01*
X32701Y-35448D01*
X33250Y-35997D01*
X33250Y-35997D01*
G37*
G54D19*
X33250Y-35997D02*
X33106Y-36056D01*
X32986Y-36176D01*
X32921Y-36332D01*
X32921Y-36501D01*
X32931Y-36526D01*
X32198Y-37259D01*
X31535Y-37259D01*
X31472Y-37259D01*
X31747Y-36983D01*
X31747Y-36983D01*
X31812Y-36886D01*
X31835Y-36771D01*
X31835Y-36771D01*
X31835Y-35157D01*
X31812Y-35042D01*
X31747Y-34945D01*
X31747Y-34945D01*
X31590Y-34787D01*
X31492Y-34722D01*
X31377Y-34700D01*
X30185Y-34700D01*
X30188Y-34691D01*
X30188Y-34522D01*
X30124Y-34365D01*
X30004Y-34246D01*
X29848Y-34181D01*
X29679Y-34181D01*
X29567Y-34227D01*
X27910Y-34227D01*
X27910Y-33733D01*
X27862Y-33648D01*
X27294Y-33648D01*
X27294Y-34148D01*
X27427Y-34148D01*
X27633Y-34087D01*
X27801Y-33951D01*
X27904Y-33762D01*
X27910Y-33733D01*
X27910Y-34227D01*
X27322Y-34227D01*
X27208Y-34250D01*
X27194Y-34259D01*
X27194Y-34148D01*
X27194Y-33648D01*
X26626Y-33648D01*
X26577Y-33733D01*
X26583Y-33762D01*
X26686Y-33951D01*
X26854Y-34087D01*
X27061Y-34148D01*
X27194Y-34148D01*
X27194Y-34259D01*
X27110Y-34315D01*
X25535Y-35890D01*
X25470Y-35987D01*
X25448Y-36102D01*
X25448Y-37781D01*
X25428Y-37789D01*
X25309Y-37908D01*
X25244Y-38064D01*
X25244Y-38233D01*
X25308Y-38390D01*
X25428Y-38509D01*
X25584Y-38574D01*
X25694Y-38574D01*
X25694Y-40396D01*
X25663Y-40428D01*
X25598Y-40584D01*
X25598Y-40753D01*
X25605Y-40770D01*
X25210Y-40375D01*
X25210Y-31935D01*
X25571Y-32296D01*
X25584Y-32327D01*
X25703Y-32446D01*
X25859Y-32511D01*
X26029Y-32511D01*
X26185Y-32447D01*
X26217Y-32415D01*
X26584Y-32415D01*
X26547Y-32598D01*
X26589Y-32808D01*
X26590Y-32810D01*
X26535Y-32810D01*
X26420Y-32833D01*
X26323Y-32898D01*
X25866Y-33354D01*
X25781Y-33354D01*
X25625Y-33419D01*
X25506Y-33538D01*
X25441Y-33694D01*
X25441Y-33863D01*
X25505Y-34019D01*
X25625Y-34139D01*
X25781Y-34204D01*
X25950Y-34204D01*
X26106Y-34140D01*
X26226Y-34020D01*
X26291Y-33864D01*
X26291Y-33778D01*
X26588Y-33481D01*
X26626Y-33548D01*
X27194Y-33548D01*
X27194Y-33540D01*
X27294Y-33540D01*
X27294Y-33548D01*
X27862Y-33548D01*
X27910Y-33463D01*
X27904Y-33434D01*
X27801Y-33244D01*
X27784Y-33230D01*
X28077Y-32937D01*
X28544Y-32937D01*
X28655Y-32983D01*
X28824Y-32984D01*
X28980Y-32919D01*
X29100Y-32800D01*
X29133Y-32719D01*
X29167Y-32799D01*
X29286Y-32919D01*
X29442Y-32983D01*
X29611Y-32984D01*
X29767Y-32919D01*
X29887Y-32800D01*
X29952Y-32643D01*
X29952Y-32474D01*
X29888Y-32318D01*
X29768Y-32198D01*
X29612Y-32134D01*
X29567Y-32134D01*
X29287Y-31854D01*
X29180Y-31782D01*
X29055Y-31757D01*
X28746Y-31757D01*
X28771Y-31699D01*
X28771Y-31530D01*
X28751Y-31481D01*
X31543Y-31481D01*
X31543Y-31619D01*
X31607Y-31775D01*
X31727Y-31895D01*
X31883Y-31960D01*
X31969Y-31960D01*
X32613Y-32604D01*
X32613Y-35236D01*
X32636Y-35351D01*
X32701Y-35448D01*
X33250Y-35997D01*
G54D10*
G36*
X37938Y-41628D02*
X36904Y-42663D01*
X24699Y-42663D01*
X24688Y-42674D01*
X24688Y-40783D01*
X25279Y-41374D01*
X25279Y-41374D01*
X25386Y-41445D01*
X25511Y-41470D01*
X28747Y-41470D01*
X28928Y-42375D01*
X30863Y-42375D01*
X31746Y-40610D01*
X31746Y-38872D01*
X31047Y-38174D01*
X32519Y-38174D01*
X32519Y-38174D01*
X32634Y-38151D01*
X32634Y-38151D01*
X32731Y-38086D01*
X32983Y-37834D01*
X32985Y-37838D01*
X33105Y-37958D01*
X33261Y-38023D01*
X33430Y-38023D01*
X33586Y-37958D01*
X33706Y-37839D01*
X33771Y-37683D01*
X33771Y-37597D01*
X33912Y-37456D01*
X33912Y-37456D01*
X33977Y-37358D01*
X34000Y-37244D01*
X34000Y-37244D01*
X34000Y-36023D01*
X33977Y-35908D01*
X33912Y-35811D01*
X33213Y-35111D01*
X33213Y-32494D01*
X33232Y-32486D01*
X33352Y-32367D01*
X33417Y-32210D01*
X33417Y-32041D01*
X33352Y-31885D01*
X33263Y-31796D01*
X33419Y-31796D01*
X33512Y-31889D01*
X33511Y-31973D01*
X33576Y-32130D01*
X33695Y-32249D01*
X33852Y-32314D01*
X34021Y-32314D01*
X34177Y-32250D01*
X34297Y-32130D01*
X34361Y-31974D01*
X34362Y-31805D01*
X34297Y-31649D01*
X34178Y-31529D01*
X34155Y-31520D01*
X35033Y-31520D01*
X35693Y-32180D01*
X35693Y-32180D01*
X35790Y-32245D01*
X35905Y-32268D01*
X35905Y-32268D01*
X36575Y-32268D01*
X36686Y-32314D01*
X36855Y-32314D01*
X37012Y-32250D01*
X37131Y-32130D01*
X37196Y-31974D01*
X37196Y-31805D01*
X37132Y-31649D01*
X37012Y-31529D01*
X36856Y-31464D01*
X36815Y-31464D01*
X36777Y-31373D01*
X36762Y-31358D01*
X36777Y-31343D01*
X36842Y-31187D01*
X36842Y-31018D01*
X36777Y-30861D01*
X36717Y-30801D01*
X36717Y-30078D01*
X36694Y-29963D01*
X36629Y-29866D01*
X36511Y-29748D01*
X36414Y-29683D01*
X36299Y-29660D01*
X36277Y-29660D01*
X36330Y-29533D01*
X36330Y-29364D01*
X36266Y-29208D01*
X36146Y-29088D01*
X35990Y-29023D01*
X35821Y-29023D01*
X35665Y-29088D01*
X35545Y-29207D01*
X35480Y-29363D01*
X35480Y-29449D01*
X35417Y-29512D01*
X35352Y-29609D01*
X35329Y-29724D01*
X35329Y-30078D01*
X35352Y-30193D01*
X35417Y-30290D01*
X35644Y-30517D01*
X35644Y-30683D01*
X35584Y-30743D01*
X35570Y-30776D01*
X35527Y-30732D01*
X35429Y-30667D01*
X35314Y-30644D01*
X34361Y-30644D01*
X34336Y-30586D01*
X34217Y-30466D01*
X34061Y-30401D01*
X33892Y-30401D01*
X33735Y-30466D01*
X33616Y-30585D01*
X33551Y-30741D01*
X33551Y-30762D01*
X32978Y-30762D01*
X32878Y-30663D01*
X32722Y-30598D01*
X32553Y-30598D01*
X32397Y-30663D01*
X32313Y-30747D01*
X32259Y-30693D01*
X32162Y-30628D01*
X32047Y-30605D01*
X30084Y-30605D01*
X29709Y-30230D01*
X29709Y-29506D01*
X29836Y-29558D01*
X30005Y-29558D01*
X30161Y-29494D01*
X30281Y-29374D01*
X30346Y-29218D01*
X30346Y-29133D01*
X30832Y-28646D01*
X30998Y-28646D01*
X31058Y-28706D01*
X31214Y-28771D01*
X31383Y-28771D01*
X31539Y-28706D01*
X31592Y-28653D01*
X31686Y-28692D01*
X31855Y-28692D01*
X32012Y-28628D01*
X32072Y-28567D01*
X32336Y-28567D01*
X32396Y-28627D01*
X32552Y-28692D01*
X32721Y-28692D01*
X32803Y-28659D01*
X32803Y-28666D01*
X32867Y-28823D01*
X32987Y-28942D01*
X33143Y-29007D01*
X33312Y-29007D01*
X33468Y-28943D01*
X33588Y-28823D01*
X33653Y-28667D01*
X33653Y-28498D01*
X33588Y-28342D01*
X33528Y-28281D01*
X33528Y-27755D01*
X33528Y-27755D01*
X33505Y-27641D01*
X33440Y-27543D01*
X33440Y-27543D01*
X33243Y-27346D01*
X33146Y-27281D01*
X33031Y-27259D01*
X30636Y-27259D01*
X30300Y-26922D01*
X30300Y-26574D01*
X30277Y-26459D01*
X30212Y-26362D01*
X30212Y-26362D01*
X29739Y-25890D01*
X29642Y-25825D01*
X29527Y-25802D01*
X29506Y-25802D01*
X29506Y-25206D01*
X29496Y-24950D01*
X29416Y-24758D01*
X29311Y-24719D01*
X29241Y-24790D01*
X29241Y-24648D01*
X29202Y-24543D01*
X28962Y-24454D01*
X28706Y-24464D01*
X28514Y-24543D01*
X28475Y-24648D01*
X28858Y-25031D01*
X29241Y-24648D01*
X29241Y-24790D01*
X28928Y-25102D01*
X29311Y-25485D01*
X29416Y-25446D01*
X29506Y-25206D01*
X29506Y-25802D01*
X29241Y-25802D01*
X29241Y-25555D01*
X28858Y-25173D01*
X28787Y-25243D01*
X28787Y-25102D01*
X28404Y-24719D01*
X28299Y-24758D01*
X28210Y-24998D01*
X28219Y-25254D01*
X28299Y-25446D01*
X28404Y-25485D01*
X28787Y-25102D01*
X28787Y-25243D01*
X28475Y-25555D01*
X28514Y-25661D01*
X28754Y-25750D01*
X29009Y-25740D01*
X29202Y-25661D01*
X29241Y-25555D01*
X29241Y-25802D01*
X26929Y-25802D01*
X26814Y-25825D01*
X26717Y-25890D01*
X26368Y-26238D01*
X26396Y-26100D01*
X26354Y-25889D01*
X26235Y-25711D01*
X26063Y-25596D01*
X26089Y-25588D01*
X26257Y-25453D01*
X26360Y-25264D01*
X26366Y-25235D01*
X26366Y-24964D01*
X26360Y-24935D01*
X26257Y-24746D01*
X26089Y-24611D01*
X25883Y-24550D01*
X25750Y-24550D01*
X25750Y-25050D01*
X26317Y-25050D01*
X26366Y-24964D01*
X26366Y-25235D01*
X26317Y-25150D01*
X25750Y-25150D01*
X25750Y-25157D01*
X25650Y-25157D01*
X25650Y-25150D01*
X25650Y-25050D01*
X25650Y-24550D01*
X25517Y-24550D01*
X25310Y-24611D01*
X25142Y-24746D01*
X25039Y-24935D01*
X25033Y-24964D01*
X25082Y-25050D01*
X25650Y-25050D01*
X25650Y-25150D01*
X25082Y-25150D01*
X25033Y-25235D01*
X25039Y-25264D01*
X25142Y-25453D01*
X25310Y-25588D01*
X25336Y-25596D01*
X25164Y-25711D01*
X25124Y-25771D01*
X25081Y-25771D01*
X24955Y-25796D01*
X24848Y-25867D01*
X24688Y-26027D01*
X24688Y-24295D01*
X31256Y-24295D01*
X31246Y-24305D01*
X31246Y-25300D01*
X31786Y-25840D01*
X36510Y-25840D01*
X37938Y-27268D01*
X37938Y-41628D01*
X37938Y-41628D01*
G37*
G54D19*
X37938Y-41628D02*
X36904Y-42663D01*
X24699Y-42663D01*
X24688Y-42674D01*
X24688Y-40783D01*
X25279Y-41374D01*
X25279Y-41374D01*
X25386Y-41445D01*
X25511Y-41470D01*
X28747Y-41470D01*
X28928Y-42375D01*
X30863Y-42375D01*
X31746Y-40610D01*
X31746Y-38872D01*
X31047Y-38174D01*
X32519Y-38174D01*
X32519Y-38174D01*
X32634Y-38151D01*
X32634Y-38151D01*
X32731Y-38086D01*
X32983Y-37834D01*
X32985Y-37838D01*
X33105Y-37958D01*
X33261Y-38023D01*
X33430Y-38023D01*
X33586Y-37958D01*
X33706Y-37839D01*
X33771Y-37683D01*
X33771Y-37597D01*
X33912Y-37456D01*
X33912Y-37456D01*
X33977Y-37358D01*
X34000Y-37244D01*
X34000Y-37244D01*
X34000Y-36023D01*
X33977Y-35908D01*
X33912Y-35811D01*
X33213Y-35111D01*
X33213Y-32494D01*
X33232Y-32486D01*
X33352Y-32367D01*
X33417Y-32210D01*
X33417Y-32041D01*
X33352Y-31885D01*
X33263Y-31796D01*
X33419Y-31796D01*
X33512Y-31889D01*
X33511Y-31973D01*
X33576Y-32130D01*
X33695Y-32249D01*
X33852Y-32314D01*
X34021Y-32314D01*
X34177Y-32250D01*
X34297Y-32130D01*
X34361Y-31974D01*
X34362Y-31805D01*
X34297Y-31649D01*
X34178Y-31529D01*
X34155Y-31520D01*
X35033Y-31520D01*
X35693Y-32180D01*
X35693Y-32180D01*
X35790Y-32245D01*
X35905Y-32268D01*
X35905Y-32268D01*
X36575Y-32268D01*
X36686Y-32314D01*
X36855Y-32314D01*
X37012Y-32250D01*
X37131Y-32130D01*
X37196Y-31974D01*
X37196Y-31805D01*
X37132Y-31649D01*
X37012Y-31529D01*
X36856Y-31464D01*
X36815Y-31464D01*
X36777Y-31373D01*
X36762Y-31358D01*
X36777Y-31343D01*
X36842Y-31187D01*
X36842Y-31018D01*
X36777Y-30861D01*
X36717Y-30801D01*
X36717Y-30078D01*
X36694Y-29963D01*
X36629Y-29866D01*
X36511Y-29748D01*
X36414Y-29683D01*
X36299Y-29660D01*
X36277Y-29660D01*
X36330Y-29533D01*
X36330Y-29364D01*
X36266Y-29208D01*
X36146Y-29088D01*
X35990Y-29023D01*
X35821Y-29023D01*
X35665Y-29088D01*
X35545Y-29207D01*
X35480Y-29363D01*
X35480Y-29449D01*
X35417Y-29512D01*
X35352Y-29609D01*
X35329Y-29724D01*
X35329Y-30078D01*
X35352Y-30193D01*
X35417Y-30290D01*
X35644Y-30517D01*
X35644Y-30683D01*
X35584Y-30743D01*
X35570Y-30776D01*
X35527Y-30732D01*
X35429Y-30667D01*
X35314Y-30644D01*
X34361Y-30644D01*
X34336Y-30586D01*
X34217Y-30466D01*
X34061Y-30401D01*
X33892Y-30401D01*
X33735Y-30466D01*
X33616Y-30585D01*
X33551Y-30741D01*
X33551Y-30762D01*
X32978Y-30762D01*
X32878Y-30663D01*
X32722Y-30598D01*
X32553Y-30598D01*
X32397Y-30663D01*
X32313Y-30747D01*
X32259Y-30693D01*
X32162Y-30628D01*
X32047Y-30605D01*
X30084Y-30605D01*
X29709Y-30230D01*
X29709Y-29506D01*
X29836Y-29558D01*
X30005Y-29558D01*
X30161Y-29494D01*
X30281Y-29374D01*
X30346Y-29218D01*
X30346Y-29133D01*
X30832Y-28646D01*
X30998Y-28646D01*
X31058Y-28706D01*
X31214Y-28771D01*
X31383Y-28771D01*
X31539Y-28706D01*
X31592Y-28653D01*
X31686Y-28692D01*
X31855Y-28692D01*
X32012Y-28628D01*
X32072Y-28567D01*
X32336Y-28567D01*
X32396Y-28627D01*
X32552Y-28692D01*
X32721Y-28692D01*
X32803Y-28659D01*
X32803Y-28666D01*
X32867Y-28823D01*
X32987Y-28942D01*
X33143Y-29007D01*
X33312Y-29007D01*
X33468Y-28943D01*
X33588Y-28823D01*
X33653Y-28667D01*
X33653Y-28498D01*
X33588Y-28342D01*
X33528Y-28281D01*
X33528Y-27755D01*
X33528Y-27755D01*
X33505Y-27641D01*
X33440Y-27543D01*
X33440Y-27543D01*
X33243Y-27346D01*
X33146Y-27281D01*
X33031Y-27259D01*
X30636Y-27259D01*
X30300Y-26922D01*
X30300Y-26574D01*
X30277Y-26459D01*
X30212Y-26362D01*
X30212Y-26362D01*
X29739Y-25890D01*
X29642Y-25825D01*
X29527Y-25802D01*
X29506Y-25802D01*
X29506Y-25206D01*
X29496Y-24950D01*
X29416Y-24758D01*
X29311Y-24719D01*
X29241Y-24790D01*
X29241Y-24648D01*
X29202Y-24543D01*
X28962Y-24454D01*
X28706Y-24464D01*
X28514Y-24543D01*
X28475Y-24648D01*
X28858Y-25031D01*
X29241Y-24648D01*
X29241Y-24790D01*
X28928Y-25102D01*
X29311Y-25485D01*
X29416Y-25446D01*
X29506Y-25206D01*
X29506Y-25802D01*
X29241Y-25802D01*
X29241Y-25555D01*
X28858Y-25173D01*
X28787Y-25243D01*
X28787Y-25102D01*
X28404Y-24719D01*
X28299Y-24758D01*
X28210Y-24998D01*
X28219Y-25254D01*
X28299Y-25446D01*
X28404Y-25485D01*
X28787Y-25102D01*
X28787Y-25243D01*
X28475Y-25555D01*
X28514Y-25661D01*
X28754Y-25750D01*
X29009Y-25740D01*
X29202Y-25661D01*
X29241Y-25555D01*
X29241Y-25802D01*
X26929Y-25802D01*
X26814Y-25825D01*
X26717Y-25890D01*
X26368Y-26238D01*
X26396Y-26100D01*
X26354Y-25889D01*
X26235Y-25711D01*
X26063Y-25596D01*
X26089Y-25588D01*
X26257Y-25453D01*
X26360Y-25264D01*
X26366Y-25235D01*
X26366Y-24964D01*
X26360Y-24935D01*
X26257Y-24746D01*
X26089Y-24611D01*
X25883Y-24550D01*
X25750Y-24550D01*
X25750Y-25050D01*
X26317Y-25050D01*
X26366Y-24964D01*
X26366Y-25235D01*
X26317Y-25150D01*
X25750Y-25150D01*
X25750Y-25157D01*
X25650Y-25157D01*
X25650Y-25150D01*
X25650Y-25050D01*
X25650Y-24550D01*
X25517Y-24550D01*
X25310Y-24611D01*
X25142Y-24746D01*
X25039Y-24935D01*
X25033Y-24964D01*
X25082Y-25050D01*
X25650Y-25050D01*
X25650Y-25150D01*
X25082Y-25150D01*
X25033Y-25235D01*
X25039Y-25264D01*
X25142Y-25453D01*
X25310Y-25588D01*
X25336Y-25596D01*
X25164Y-25711D01*
X25124Y-25771D01*
X25081Y-25771D01*
X24955Y-25796D01*
X24848Y-25867D01*
X24688Y-26027D01*
X24688Y-24295D01*
X31256Y-24295D01*
X31246Y-24305D01*
X31246Y-25300D01*
X31786Y-25840D01*
X36510Y-25840D01*
X37938Y-27268D01*
X37938Y-41628D01*
G54D10*
G36*
X31446Y-40539D02*
X30677Y-42075D01*
X29174Y-42075D01*
X28947Y-40938D01*
X30534Y-40938D01*
X30585Y-40990D01*
X30741Y-41054D01*
X30910Y-41054D01*
X31067Y-40990D01*
X31186Y-40870D01*
X31251Y-40714D01*
X31251Y-40545D01*
X31187Y-40389D01*
X31067Y-40269D01*
X30911Y-40204D01*
X30742Y-40204D01*
X30586Y-40269D01*
X30534Y-40320D01*
X28823Y-40320D01*
X28790Y-40152D01*
X28790Y-39003D01*
X29936Y-38238D01*
X30687Y-38238D01*
X31446Y-38997D01*
X31446Y-40539D01*
X31446Y-40539D01*
G37*
G54D19*
X31446Y-40539D02*
X30677Y-42075D01*
X29174Y-42075D01*
X28947Y-40938D01*
X30534Y-40938D01*
X30585Y-40990D01*
X30741Y-41054D01*
X30910Y-41054D01*
X31067Y-40990D01*
X31186Y-40870D01*
X31251Y-40714D01*
X31251Y-40545D01*
X31187Y-40389D01*
X31067Y-40269D01*
X30911Y-40204D01*
X30742Y-40204D01*
X30586Y-40269D01*
X30534Y-40320D01*
X28823Y-40320D01*
X28790Y-40152D01*
X28790Y-39003D01*
X29936Y-38238D01*
X30687Y-38238D01*
X31446Y-38997D01*
X31446Y-40539D01*
G54D10*
G36*
X40665Y-45389D02*
X40157Y-45389D01*
X39433Y-45389D01*
X39433Y-41349D01*
X39433Y-41112D01*
X39370Y-41050D01*
X38800Y-41050D01*
X38800Y-41487D01*
X38862Y-41550D01*
X39133Y-41550D01*
X39232Y-41549D01*
X39324Y-41511D01*
X39395Y-41441D01*
X39433Y-41349D01*
X39433Y-45389D01*
X32200Y-45389D01*
X32200Y-44120D01*
X32200Y-43550D01*
X31762Y-43550D01*
X31700Y-43612D01*
X31699Y-43883D01*
X31700Y-43982D01*
X31738Y-44074D01*
X31808Y-44145D01*
X31900Y-44183D01*
X32137Y-44183D01*
X32200Y-44120D01*
X32200Y-45389D01*
X26050Y-45389D01*
X26050Y-44081D01*
X26050Y-43550D01*
X25519Y-43550D01*
X25456Y-43612D01*
X25456Y-43843D01*
X25456Y-43943D01*
X25494Y-44035D01*
X25565Y-44105D01*
X25656Y-44143D01*
X25987Y-44143D01*
X26050Y-44081D01*
X26050Y-45389D01*
X24688Y-45389D01*
X24688Y-43098D01*
X24823Y-42963D01*
X25496Y-42963D01*
X25494Y-42964D01*
X25456Y-43056D01*
X25456Y-43156D01*
X25456Y-43387D01*
X25519Y-43450D01*
X26050Y-43450D01*
X26050Y-43442D01*
X26150Y-43442D01*
X26150Y-43450D01*
X26157Y-43450D01*
X26157Y-43550D01*
X26150Y-43550D01*
X26150Y-44081D01*
X26212Y-44143D01*
X26543Y-44143D01*
X26634Y-44105D01*
X26705Y-44035D01*
X26715Y-44010D01*
X26841Y-44094D01*
X27087Y-44143D01*
X27112Y-44143D01*
X27358Y-44094D01*
X27567Y-43955D01*
X27707Y-43746D01*
X27756Y-43500D01*
X27707Y-43253D01*
X27567Y-43044D01*
X27445Y-42963D01*
X31722Y-42963D01*
X31700Y-43017D01*
X31699Y-43116D01*
X31700Y-43387D01*
X31762Y-43450D01*
X32200Y-43450D01*
X32200Y-43442D01*
X32300Y-43442D01*
X32300Y-43450D01*
X32307Y-43450D01*
X32307Y-43550D01*
X32300Y-43550D01*
X32300Y-44120D01*
X32362Y-44183D01*
X32599Y-44183D01*
X32691Y-44145D01*
X32761Y-44074D01*
X32799Y-43982D01*
X32799Y-43943D01*
X32861Y-44035D01*
X33039Y-44154D01*
X33250Y-44196D01*
X33460Y-44154D01*
X33638Y-44035D01*
X33750Y-43869D01*
X33861Y-44035D01*
X34039Y-44154D01*
X34250Y-44196D01*
X34460Y-44154D01*
X34638Y-44035D01*
X34750Y-43869D01*
X34861Y-44035D01*
X35039Y-44154D01*
X35250Y-44196D01*
X35460Y-44154D01*
X35638Y-44035D01*
X35758Y-43856D01*
X35800Y-43646D01*
X35800Y-43353D01*
X35758Y-43143D01*
X35638Y-42964D01*
X35636Y-42963D01*
X37028Y-42963D01*
X38238Y-41752D01*
X38238Y-41538D01*
X38267Y-41549D01*
X38366Y-41550D01*
X38637Y-41550D01*
X38700Y-41487D01*
X38700Y-41050D01*
X38692Y-41050D01*
X38692Y-40950D01*
X38700Y-40950D01*
X38700Y-40942D01*
X38800Y-40942D01*
X38800Y-40950D01*
X39370Y-40950D01*
X39433Y-40887D01*
X39433Y-40650D01*
X39395Y-40558D01*
X39324Y-40488D01*
X39232Y-40450D01*
X39193Y-40450D01*
X39285Y-40388D01*
X39404Y-40210D01*
X39446Y-40000D01*
X39404Y-39789D01*
X39285Y-39611D01*
X39119Y-39500D01*
X39285Y-39388D01*
X39404Y-39210D01*
X39446Y-39000D01*
X39404Y-38789D01*
X39285Y-38611D01*
X39119Y-38500D01*
X39285Y-38388D01*
X39404Y-38210D01*
X39446Y-38000D01*
X39433Y-37932D01*
X39433Y-36349D01*
X39433Y-36112D01*
X39370Y-36050D01*
X38800Y-36050D01*
X38800Y-36487D01*
X38862Y-36550D01*
X39133Y-36550D01*
X39232Y-36549D01*
X39324Y-36511D01*
X39395Y-36441D01*
X39433Y-36349D01*
X39433Y-37932D01*
X39404Y-37789D01*
X39285Y-37611D01*
X39106Y-37491D01*
X38896Y-37450D01*
X38603Y-37450D01*
X38393Y-37491D01*
X38238Y-37594D01*
X38238Y-36538D01*
X38267Y-36549D01*
X38366Y-36550D01*
X38637Y-36550D01*
X38700Y-36487D01*
X38700Y-36050D01*
X38692Y-36050D01*
X38692Y-35950D01*
X38700Y-35950D01*
X38700Y-35942D01*
X38800Y-35942D01*
X38800Y-35950D01*
X39370Y-35950D01*
X39433Y-35887D01*
X39433Y-35650D01*
X39395Y-35558D01*
X39324Y-35488D01*
X39232Y-35450D01*
X39193Y-35450D01*
X39285Y-35388D01*
X39404Y-35210D01*
X39446Y-35000D01*
X39404Y-34789D01*
X39285Y-34611D01*
X39119Y-34500D01*
X39285Y-34388D01*
X39404Y-34210D01*
X39446Y-34000D01*
X39404Y-33789D01*
X39285Y-33611D01*
X39119Y-33500D01*
X39285Y-33388D01*
X39404Y-33210D01*
X39446Y-33000D01*
X39433Y-32932D01*
X39433Y-31349D01*
X39433Y-31112D01*
X39370Y-31050D01*
X38800Y-31050D01*
X38800Y-31487D01*
X38862Y-31550D01*
X39133Y-31550D01*
X39232Y-31549D01*
X39324Y-31511D01*
X39395Y-31441D01*
X39433Y-31349D01*
X39433Y-32932D01*
X39404Y-32789D01*
X39285Y-32611D01*
X39106Y-32491D01*
X38896Y-32450D01*
X38603Y-32450D01*
X38393Y-32491D01*
X38238Y-32594D01*
X38238Y-31538D01*
X38267Y-31549D01*
X38366Y-31550D01*
X38637Y-31550D01*
X38700Y-31487D01*
X38700Y-31050D01*
X38692Y-31050D01*
X38692Y-30950D01*
X38700Y-30950D01*
X38700Y-30942D01*
X38800Y-30942D01*
X38800Y-30950D01*
X39370Y-30950D01*
X39433Y-30887D01*
X39433Y-30650D01*
X39395Y-30558D01*
X39324Y-30488D01*
X39232Y-30450D01*
X39193Y-30450D01*
X39285Y-30388D01*
X39404Y-30210D01*
X39446Y-30000D01*
X39404Y-29789D01*
X39285Y-29611D01*
X39119Y-29500D01*
X39285Y-29388D01*
X39404Y-29210D01*
X39446Y-29000D01*
X39404Y-28789D01*
X39285Y-28611D01*
X39119Y-28500D01*
X39285Y-28388D01*
X39404Y-28210D01*
X39446Y-28000D01*
X39404Y-27789D01*
X39285Y-27611D01*
X39106Y-27491D01*
X38896Y-27450D01*
X38603Y-27450D01*
X38393Y-27491D01*
X38238Y-27594D01*
X38238Y-27144D01*
X36634Y-25540D01*
X35776Y-25540D01*
X35799Y-25482D01*
X35800Y-25383D01*
X35800Y-24616D01*
X35799Y-24517D01*
X35761Y-24425D01*
X35691Y-24354D01*
X35599Y-24316D01*
X35362Y-24317D01*
X35300Y-24379D01*
X35300Y-24950D01*
X35737Y-24950D01*
X35800Y-24887D01*
X35800Y-24616D01*
X35800Y-25383D01*
X35800Y-25112D01*
X35737Y-25050D01*
X35300Y-25050D01*
X35300Y-25057D01*
X35200Y-25057D01*
X35200Y-25050D01*
X35192Y-25050D01*
X35192Y-24950D01*
X35200Y-24950D01*
X35200Y-24379D01*
X35137Y-24317D01*
X34900Y-24316D01*
X34808Y-24354D01*
X34738Y-24425D01*
X34700Y-24517D01*
X34700Y-24556D01*
X34638Y-24464D01*
X34460Y-24345D01*
X34250Y-24303D01*
X34039Y-24345D01*
X33861Y-24464D01*
X33750Y-24630D01*
X33638Y-24464D01*
X33460Y-24345D01*
X33250Y-24303D01*
X33039Y-24345D01*
X32861Y-24464D01*
X32750Y-24630D01*
X32638Y-24464D01*
X32460Y-24345D01*
X32250Y-24303D01*
X32039Y-24345D01*
X31861Y-24464D01*
X31741Y-24643D01*
X31700Y-24853D01*
X31700Y-25146D01*
X31741Y-25356D01*
X31772Y-25402D01*
X31546Y-25176D01*
X31546Y-24430D01*
X31680Y-24295D01*
X40157Y-24295D01*
X40665Y-24295D01*
X40665Y-45389D01*
X40665Y-45389D01*
G37*
G54D19*
X40665Y-45389D02*
X40157Y-45389D01*
X39433Y-45389D01*
X39433Y-41349D01*
X39433Y-41112D01*
X39370Y-41050D01*
X38800Y-41050D01*
X38800Y-41487D01*
X38862Y-41550D01*
X39133Y-41550D01*
X39232Y-41549D01*
X39324Y-41511D01*
X39395Y-41441D01*
X39433Y-41349D01*
X39433Y-45389D01*
X32200Y-45389D01*
X32200Y-44120D01*
X32200Y-43550D01*
X31762Y-43550D01*
X31700Y-43612D01*
X31699Y-43883D01*
X31700Y-43982D01*
X31738Y-44074D01*
X31808Y-44145D01*
X31900Y-44183D01*
X32137Y-44183D01*
X32200Y-44120D01*
X32200Y-45389D01*
X26050Y-45389D01*
X26050Y-44081D01*
X26050Y-43550D01*
X25519Y-43550D01*
X25456Y-43612D01*
X25456Y-43843D01*
X25456Y-43943D01*
X25494Y-44035D01*
X25565Y-44105D01*
X25656Y-44143D01*
X25987Y-44143D01*
X26050Y-44081D01*
X26050Y-45389D01*
X24688Y-45389D01*
X24688Y-43098D01*
X24823Y-42963D01*
X25496Y-42963D01*
X25494Y-42964D01*
X25456Y-43056D01*
X25456Y-43156D01*
X25456Y-43387D01*
X25519Y-43450D01*
X26050Y-43450D01*
X26050Y-43442D01*
X26150Y-43442D01*
X26150Y-43450D01*
X26157Y-43450D01*
X26157Y-43550D01*
X26150Y-43550D01*
X26150Y-44081D01*
X26212Y-44143D01*
X26543Y-44143D01*
X26634Y-44105D01*
X26705Y-44035D01*
X26715Y-44010D01*
X26841Y-44094D01*
X27087Y-44143D01*
X27112Y-44143D01*
X27358Y-44094D01*
X27567Y-43955D01*
X27707Y-43746D01*
X27756Y-43500D01*
X27707Y-43253D01*
X27567Y-43044D01*
X27445Y-42963D01*
X31722Y-42963D01*
X31700Y-43017D01*
X31699Y-43116D01*
X31700Y-43387D01*
X31762Y-43450D01*
X32200Y-43450D01*
X32200Y-43442D01*
X32300Y-43442D01*
X32300Y-43450D01*
X32307Y-43450D01*
X32307Y-43550D01*
X32300Y-43550D01*
X32300Y-44120D01*
X32362Y-44183D01*
X32599Y-44183D01*
X32691Y-44145D01*
X32761Y-44074D01*
X32799Y-43982D01*
X32799Y-43943D01*
X32861Y-44035D01*
X33039Y-44154D01*
X33250Y-44196D01*
X33460Y-44154D01*
X33638Y-44035D01*
X33750Y-43869D01*
X33861Y-44035D01*
X34039Y-44154D01*
X34250Y-44196D01*
X34460Y-44154D01*
X34638Y-44035D01*
X34750Y-43869D01*
X34861Y-44035D01*
X35039Y-44154D01*
X35250Y-44196D01*
X35460Y-44154D01*
X35638Y-44035D01*
X35758Y-43856D01*
X35800Y-43646D01*
X35800Y-43353D01*
X35758Y-43143D01*
X35638Y-42964D01*
X35636Y-42963D01*
X37028Y-42963D01*
X38238Y-41752D01*
X38238Y-41538D01*
X38267Y-41549D01*
X38366Y-41550D01*
X38637Y-41550D01*
X38700Y-41487D01*
X38700Y-41050D01*
X38692Y-41050D01*
X38692Y-40950D01*
X38700Y-40950D01*
X38700Y-40942D01*
X38800Y-40942D01*
X38800Y-40950D01*
X39370Y-40950D01*
X39433Y-40887D01*
X39433Y-40650D01*
X39395Y-40558D01*
X39324Y-40488D01*
X39232Y-40450D01*
X39193Y-40450D01*
X39285Y-40388D01*
X39404Y-40210D01*
X39446Y-40000D01*
X39404Y-39789D01*
X39285Y-39611D01*
X39119Y-39500D01*
X39285Y-39388D01*
X39404Y-39210D01*
X39446Y-39000D01*
X39404Y-38789D01*
X39285Y-38611D01*
X39119Y-38500D01*
X39285Y-38388D01*
X39404Y-38210D01*
X39446Y-38000D01*
X39433Y-37932D01*
X39433Y-36349D01*
X39433Y-36112D01*
X39370Y-36050D01*
X38800Y-36050D01*
X38800Y-36487D01*
X38862Y-36550D01*
X39133Y-36550D01*
X39232Y-36549D01*
X39324Y-36511D01*
X39395Y-36441D01*
X39433Y-36349D01*
X39433Y-37932D01*
X39404Y-37789D01*
X39285Y-37611D01*
X39106Y-37491D01*
X38896Y-37450D01*
X38603Y-37450D01*
X38393Y-37491D01*
X38238Y-37594D01*
X38238Y-36538D01*
X38267Y-36549D01*
X38366Y-36550D01*
X38637Y-36550D01*
X38700Y-36487D01*
X38700Y-36050D01*
X38692Y-36050D01*
X38692Y-35950D01*
X38700Y-35950D01*
X38700Y-35942D01*
X38800Y-35942D01*
X38800Y-35950D01*
X39370Y-35950D01*
X39433Y-35887D01*
X39433Y-35650D01*
X39395Y-35558D01*
X39324Y-35488D01*
X39232Y-35450D01*
X39193Y-35450D01*
X39285Y-35388D01*
X39404Y-35210D01*
X39446Y-35000D01*
X39404Y-34789D01*
X39285Y-34611D01*
X39119Y-34500D01*
X39285Y-34388D01*
X39404Y-34210D01*
X39446Y-34000D01*
X39404Y-33789D01*
X39285Y-33611D01*
X39119Y-33500D01*
X39285Y-33388D01*
X39404Y-33210D01*
X39446Y-33000D01*
X39433Y-32932D01*
X39433Y-31349D01*
X39433Y-31112D01*
X39370Y-31050D01*
X38800Y-31050D01*
X38800Y-31487D01*
X38862Y-31550D01*
X39133Y-31550D01*
X39232Y-31549D01*
X39324Y-31511D01*
X39395Y-31441D01*
X39433Y-31349D01*
X39433Y-32932D01*
X39404Y-32789D01*
X39285Y-32611D01*
X39106Y-32491D01*
X38896Y-32450D01*
X38603Y-32450D01*
X38393Y-32491D01*
X38238Y-32594D01*
X38238Y-31538D01*
X38267Y-31549D01*
X38366Y-31550D01*
X38637Y-31550D01*
X38700Y-31487D01*
X38700Y-31050D01*
X38692Y-31050D01*
X38692Y-30950D01*
X38700Y-30950D01*
X38700Y-30942D01*
X38800Y-30942D01*
X38800Y-30950D01*
X39370Y-30950D01*
X39433Y-30887D01*
X39433Y-30650D01*
X39395Y-30558D01*
X39324Y-30488D01*
X39232Y-30450D01*
X39193Y-30450D01*
X39285Y-30388D01*
X39404Y-30210D01*
X39446Y-30000D01*
X39404Y-29789D01*
X39285Y-29611D01*
X39119Y-29500D01*
X39285Y-29388D01*
X39404Y-29210D01*
X39446Y-29000D01*
X39404Y-28789D01*
X39285Y-28611D01*
X39119Y-28500D01*
X39285Y-28388D01*
X39404Y-28210D01*
X39446Y-28000D01*
X39404Y-27789D01*
X39285Y-27611D01*
X39106Y-27491D01*
X38896Y-27450D01*
X38603Y-27450D01*
X38393Y-27491D01*
X38238Y-27594D01*
X38238Y-27144D01*
X36634Y-25540D01*
X35776Y-25540D01*
X35799Y-25482D01*
X35800Y-25383D01*
X35800Y-24616D01*
X35799Y-24517D01*
X35761Y-24425D01*
X35691Y-24354D01*
X35599Y-24316D01*
X35362Y-24317D01*
X35300Y-24379D01*
X35300Y-24950D01*
X35737Y-24950D01*
X35800Y-24887D01*
X35800Y-24616D01*
X35800Y-25383D01*
X35800Y-25112D01*
X35737Y-25050D01*
X35300Y-25050D01*
X35300Y-25057D01*
X35200Y-25057D01*
X35200Y-25050D01*
X35192Y-25050D01*
X35192Y-24950D01*
X35200Y-24950D01*
X35200Y-24379D01*
X35137Y-24317D01*
X34900Y-24316D01*
X34808Y-24354D01*
X34738Y-24425D01*
X34700Y-24517D01*
X34700Y-24556D01*
X34638Y-24464D01*
X34460Y-24345D01*
X34250Y-24303D01*
X34039Y-24345D01*
X33861Y-24464D01*
X33750Y-24630D01*
X33638Y-24464D01*
X33460Y-24345D01*
X33250Y-24303D01*
X33039Y-24345D01*
X32861Y-24464D01*
X32750Y-24630D01*
X32638Y-24464D01*
X32460Y-24345D01*
X32250Y-24303D01*
X32039Y-24345D01*
X31861Y-24464D01*
X31741Y-24643D01*
X31700Y-24853D01*
X31700Y-25146D01*
X31741Y-25356D01*
X31772Y-25402D01*
X31546Y-25176D01*
X31546Y-24430D01*
X31680Y-24295D01*
X40157Y-24295D01*
X40665Y-24295D01*
X40665Y-45389D01*
M02*
