G04 (created by PCBNEW (2013-mar-13)-testing) date Tue 02 Jul 2013 08:12:50 AM CEST*
%MOIN*%
G04 Gerber Fmt 3.4, Leading zero omitted, Abs format*
%FSLAX34Y34*%
G01*
G70*
G90*
G04 APERTURE LIST*
%ADD10C,0.006*%
%ADD11R,0.144X0.08*%
%ADD12R,0.04X0.08*%
%ADD13R,0.0768X0.0984*%
%ADD14R,0.0354X0.0394*%
%ADD15R,0.0394X0.0354*%
%ADD16R,0.0394X0.0236*%
%ADD17R,0.0236X0.0394*%
%ADD18R,0.0866X0.06*%
%ADD19O,0.0866X0.06*%
%ADD20R,0.06X0.0866*%
%ADD21O,0.06X0.0866*%
%ADD22R,0.0118X0.0512*%
%ADD23R,0.0512X0.0118*%
%ADD24C,0.0787*%
%ADD25R,0.0314X0.0314*%
%ADD26R,0.0394X0.0787*%
%ADD27R,0.0747X0.0462*%
%ADD28R,0.0747X0.0935*%
%ADD29R,0.0827X0.058*%
%ADD30R,0.0543X0.0177*%
%ADD31R,0.0138X0.0473*%
%ADD32R,0.0137X0.0473*%
%ADD33R,0.0473X0.0138*%
%ADD34R,0.0473X0.0137*%
%ADD35R,0.0956X0.0956*%
%ADD36R,0.1417X0.063*%
%ADD37O,0.0787X0.0787*%
%ADD38R,0.0787X0.0787*%
G04 APERTURE END LIST*
G54D10*
G54D11*
X30100Y-39300D03*
G54D12*
X30100Y-41900D03*
X31000Y-41900D03*
X29200Y-41900D03*
G54D13*
X32100Y-39300D03*
X33300Y-39300D03*
X28000Y-39500D03*
X26800Y-39500D03*
G54D14*
X28247Y-29724D03*
X28839Y-29724D03*
G54D15*
X27900Y-37104D03*
X27900Y-37696D03*
G54D14*
X31704Y-28750D03*
X32296Y-28750D03*
X33546Y-33750D03*
X32954Y-33750D03*
G54D15*
X35275Y-29625D03*
X35275Y-30217D03*
X30500Y-32546D03*
X30500Y-31954D03*
G54D14*
X32404Y-38500D03*
X32996Y-38500D03*
X29096Y-37700D03*
X28504Y-37700D03*
G54D16*
X36985Y-29939D03*
X37817Y-30314D03*
X36985Y-30689D03*
G54D17*
X36004Y-41709D03*
X35629Y-42541D03*
X35254Y-41709D03*
G54D16*
X36985Y-39979D03*
X37817Y-40354D03*
X36985Y-40729D03*
X36985Y-38601D03*
X37817Y-38976D03*
X36985Y-39351D03*
X36985Y-37223D03*
X37817Y-37598D03*
X36985Y-37973D03*
G54D17*
X34626Y-41709D03*
X34251Y-42541D03*
X33876Y-41709D03*
X34270Y-26793D03*
X34645Y-25961D03*
X35020Y-26793D03*
X32892Y-26793D03*
X33267Y-25961D03*
X33642Y-26793D03*
X31514Y-26793D03*
X31889Y-25961D03*
X32264Y-26793D03*
G54D16*
X36985Y-28562D03*
X37817Y-28937D03*
X36985Y-29312D03*
X36985Y-27184D03*
X37817Y-27559D03*
X36985Y-27934D03*
X36985Y-34959D03*
X37817Y-35334D03*
X36985Y-35709D03*
X36985Y-33581D03*
X37817Y-33956D03*
X36985Y-34331D03*
X36985Y-32203D03*
X37817Y-32578D03*
X36985Y-32953D03*
G54D17*
X33249Y-41709D03*
X32874Y-42541D03*
X32499Y-41709D03*
X30729Y-28639D03*
X30354Y-29471D03*
X29979Y-28639D03*
G54D18*
X38750Y-36000D03*
G54D19*
X38750Y-35000D03*
X38750Y-34000D03*
X38750Y-33000D03*
G54D18*
X38750Y-31000D03*
G54D19*
X38750Y-30000D03*
X38750Y-29000D03*
X38750Y-28000D03*
G54D20*
X35250Y-25000D03*
G54D21*
X34250Y-25000D03*
X33250Y-25000D03*
X32250Y-25000D03*
G54D18*
X38750Y-41000D03*
G54D19*
X38750Y-40000D03*
X38750Y-39000D03*
X38750Y-38000D03*
G54D20*
X32250Y-43500D03*
G54D21*
X33250Y-43500D03*
X34250Y-43500D03*
X35250Y-43500D03*
G54D18*
X27244Y-31598D03*
G54D19*
X27244Y-32598D03*
X27244Y-33598D03*
G54D18*
X25700Y-30100D03*
G54D19*
X25700Y-29100D03*
X25700Y-28100D03*
X25700Y-27100D03*
X25700Y-26100D03*
X25700Y-25100D03*
G54D22*
X32508Y-32864D03*
X32705Y-32864D03*
X32902Y-32864D03*
X33098Y-32864D03*
X33295Y-32864D03*
X31917Y-32864D03*
X32114Y-32864D03*
X32311Y-32864D03*
G54D23*
X34614Y-32333D03*
X34614Y-32136D03*
X34614Y-31939D03*
X34614Y-31742D03*
X34614Y-31545D03*
X34614Y-31348D03*
X34614Y-31152D03*
X34614Y-30955D03*
G54D22*
X34083Y-29636D03*
X33886Y-29636D03*
X33689Y-29636D03*
X33492Y-29636D03*
X33295Y-29636D03*
X33098Y-29636D03*
X32902Y-29636D03*
X32705Y-29636D03*
G54D23*
X31386Y-30167D03*
X31386Y-30364D03*
X31386Y-30561D03*
X31386Y-30758D03*
X31386Y-30955D03*
X31386Y-31152D03*
X31386Y-31348D03*
X31386Y-31545D03*
G54D22*
X33492Y-32864D03*
X33689Y-32864D03*
X33886Y-32864D03*
X34083Y-32864D03*
G54D23*
X34614Y-30758D03*
X34614Y-30561D03*
X34614Y-30364D03*
X34614Y-30167D03*
G54D22*
X32508Y-29636D03*
X32311Y-29636D03*
X32114Y-29636D03*
X31917Y-29636D03*
G54D23*
X31386Y-31742D03*
X31386Y-31939D03*
X31386Y-32136D03*
X31386Y-32333D03*
G54D24*
X28858Y-27102D03*
X28858Y-25102D03*
G54D25*
X32305Y-35800D03*
X32895Y-35800D03*
X32305Y-36400D03*
X32895Y-36400D03*
X32305Y-37000D03*
X32895Y-37000D03*
X32305Y-37600D03*
X32895Y-37600D03*
G54D26*
X26555Y-40629D03*
X28011Y-40629D03*
X26555Y-41574D03*
X28011Y-41574D03*
G54D15*
X36417Y-28641D03*
X36417Y-29233D03*
G54D14*
X34349Y-27362D03*
X34941Y-27362D03*
X31204Y-37000D03*
X31796Y-37000D03*
X32971Y-27362D03*
X33563Y-27362D03*
X31204Y-36400D03*
X31796Y-36400D03*
X31593Y-27362D03*
X32185Y-27362D03*
G54D15*
X36417Y-30018D03*
X36417Y-30610D03*
G54D14*
X28839Y-28622D03*
X28247Y-28622D03*
X31204Y-35800D03*
X31796Y-35800D03*
X36869Y-31417D03*
X37461Y-31417D03*
G54D15*
X36417Y-27263D03*
X36417Y-27855D03*
G54D14*
X28504Y-34700D03*
X29096Y-34700D03*
G54D15*
X36417Y-35038D03*
X36417Y-35630D03*
X27900Y-35296D03*
X27900Y-34704D03*
X36417Y-33660D03*
X36417Y-34252D03*
X36417Y-32282D03*
X36417Y-32874D03*
G54D14*
X25886Y-32795D03*
X25294Y-32795D03*
X33170Y-41141D03*
X32578Y-41141D03*
X34547Y-41141D03*
X33955Y-41141D03*
X25886Y-33346D03*
X25294Y-33346D03*
X35925Y-41141D03*
X35333Y-41141D03*
X31204Y-37600D03*
X31796Y-37600D03*
G54D15*
X36417Y-40058D03*
X36417Y-40650D03*
G54D14*
X28839Y-29173D03*
X28247Y-29173D03*
G54D15*
X36417Y-38680D03*
X36417Y-39272D03*
X29409Y-29193D03*
X29409Y-28601D03*
X36417Y-37302D03*
X36417Y-37894D03*
G54D27*
X25196Y-35890D03*
X25196Y-36550D03*
G54D28*
X25196Y-37367D03*
X25196Y-35073D03*
G54D29*
X26101Y-37189D03*
X26101Y-35251D03*
G54D30*
X26243Y-35708D03*
X26243Y-35964D03*
X26243Y-36220D03*
X26243Y-36476D03*
X26243Y-36732D03*
G54D31*
X29683Y-35394D03*
G54D32*
X29427Y-35394D03*
X29173Y-35394D03*
G54D31*
X28917Y-35394D03*
G54D33*
X28494Y-35817D03*
G54D34*
X28494Y-36073D03*
X28494Y-36327D03*
G54D33*
X28494Y-36583D03*
G54D31*
X28917Y-37006D03*
G54D32*
X29173Y-37006D03*
X29427Y-37006D03*
G54D31*
X29683Y-37006D03*
G54D33*
X30106Y-36583D03*
G54D34*
X30106Y-36327D03*
X30106Y-36073D03*
G54D33*
X30106Y-35817D03*
G54D35*
X29300Y-36200D03*
G54D15*
X30000Y-32546D03*
X30000Y-31954D03*
G54D14*
X29096Y-38300D03*
X28504Y-38300D03*
G54D36*
X30683Y-44000D03*
X28517Y-44000D03*
X39114Y-25551D03*
X36948Y-25551D03*
G54D37*
X27100Y-43500D03*
G54D38*
X26100Y-43500D03*
G54D14*
X38839Y-31929D03*
X38247Y-31929D03*
X38878Y-36929D03*
X38286Y-36929D03*
G54D36*
X39271Y-43700D03*
X37105Y-43700D03*
M02*
