G04 (created by PCBNEW (2013-mar-13)-testing) date Tue 02 Jul 2013 08:12:50 AM CEST*
%MOIN*%
G04 Gerber Fmt 3.4, Leading zero omitted, Abs format*
%FSLAX34Y34*%
G01*
G70*
G90*
G04 APERTURE LIST*
%ADD10C,0.006*%
%ADD11R,0.144X0.08*%
%ADD12R,0.04X0.08*%
%ADD13R,0.0768X0.0984*%
%ADD14R,0.0354X0.0394*%
%ADD15R,0.0394X0.0354*%
%ADD16R,0.0394X0.0236*%
%ADD17R,0.0236X0.0394*%
%ADD18R,0.0866X0.06*%
%ADD19O,0.0866X0.06*%
%ADD20R,0.06X0.0866*%
%ADD21O,0.06X0.0866*%
%ADD22R,0.0118X0.0512*%
%ADD23R,0.0512X0.0118*%
%ADD24C,0.0787*%
%ADD25R,0.0314X0.0314*%
%ADD26R,0.0394X0.0787*%
%ADD27R,0.0747X0.0462*%
%ADD28R,0.0747X0.0935*%
%ADD29R,0.0827X0.058*%
%ADD30R,0.0543X0.0177*%
%ADD31R,0.0138X0.0473*%
%ADD32R,0.0137X0.0473*%
%ADD33R,0.0473X0.0138*%
%ADD34R,0.0473X0.0137*%
%ADD35R,0.0956X0.0956*%
%ADD36R,0.1417X0.063*%
%ADD37O,0.0787X0.0787*%
%ADD38R,0.0787X0.0787*%
%ADD39C,0.035*%
%ADD40C,0.01*%
%ADD41C,0.011811*%
%ADD42C,0.019685*%
%ADD43C,0.015748*%
%ADD44C,0.0787402*%
G04 APERTURE END LIST*
G54D10*
G54D11*
X30100Y-39300D03*
G54D12*
X30100Y-41900D03*
X31000Y-41900D03*
X29200Y-41900D03*
G54D13*
X32100Y-39300D03*
X33300Y-39300D03*
X28000Y-39500D03*
X26800Y-39500D03*
G54D14*
X28247Y-29724D03*
X28839Y-29724D03*
G54D15*
X27900Y-37104D03*
X27900Y-37696D03*
G54D14*
X31704Y-28750D03*
X32296Y-28750D03*
X33546Y-33750D03*
X32954Y-33750D03*
G54D15*
X35275Y-29625D03*
X35275Y-30217D03*
X30500Y-32546D03*
X30500Y-31954D03*
G54D14*
X32404Y-38500D03*
X32996Y-38500D03*
X29096Y-37700D03*
X28504Y-37700D03*
G54D16*
X36985Y-29939D03*
X37817Y-30314D03*
X36985Y-30689D03*
G54D17*
X36004Y-41709D03*
X35629Y-42541D03*
X35254Y-41709D03*
G54D16*
X36985Y-39979D03*
X37817Y-40354D03*
X36985Y-40729D03*
X36985Y-38601D03*
X37817Y-38976D03*
X36985Y-39351D03*
X36985Y-37223D03*
X37817Y-37598D03*
X36985Y-37973D03*
G54D17*
X34626Y-41709D03*
X34251Y-42541D03*
X33876Y-41709D03*
X34270Y-26793D03*
X34645Y-25961D03*
X35020Y-26793D03*
X32892Y-26793D03*
X33267Y-25961D03*
X33642Y-26793D03*
X31514Y-26793D03*
X31889Y-25961D03*
X32264Y-26793D03*
G54D16*
X36985Y-28562D03*
X37817Y-28937D03*
X36985Y-29312D03*
X36985Y-27184D03*
X37817Y-27559D03*
X36985Y-27934D03*
X36985Y-34959D03*
X37817Y-35334D03*
X36985Y-35709D03*
X36985Y-33581D03*
X37817Y-33956D03*
X36985Y-34331D03*
X36985Y-32203D03*
X37817Y-32578D03*
X36985Y-32953D03*
G54D17*
X33249Y-41709D03*
X32874Y-42541D03*
X32499Y-41709D03*
X30729Y-28639D03*
X30354Y-29471D03*
X29979Y-28639D03*
G54D18*
X38750Y-36000D03*
G54D19*
X38750Y-35000D03*
X38750Y-34000D03*
X38750Y-33000D03*
G54D18*
X38750Y-31000D03*
G54D19*
X38750Y-30000D03*
X38750Y-29000D03*
X38750Y-28000D03*
G54D20*
X35250Y-25000D03*
G54D21*
X34250Y-25000D03*
X33250Y-25000D03*
X32250Y-25000D03*
G54D18*
X38750Y-41000D03*
G54D19*
X38750Y-40000D03*
X38750Y-39000D03*
X38750Y-38000D03*
G54D20*
X32250Y-43500D03*
G54D21*
X33250Y-43500D03*
X34250Y-43500D03*
X35250Y-43500D03*
G54D18*
X27244Y-31598D03*
G54D19*
X27244Y-32598D03*
X27244Y-33598D03*
G54D18*
X25700Y-30100D03*
G54D19*
X25700Y-29100D03*
X25700Y-28100D03*
X25700Y-27100D03*
X25700Y-26100D03*
X25700Y-25100D03*
G54D22*
X32508Y-32864D03*
X32705Y-32864D03*
X32902Y-32864D03*
X33098Y-32864D03*
X33295Y-32864D03*
X31917Y-32864D03*
X32114Y-32864D03*
X32311Y-32864D03*
G54D23*
X34614Y-32333D03*
X34614Y-32136D03*
X34614Y-31939D03*
X34614Y-31742D03*
X34614Y-31545D03*
X34614Y-31348D03*
X34614Y-31152D03*
X34614Y-30955D03*
G54D22*
X34083Y-29636D03*
X33886Y-29636D03*
X33689Y-29636D03*
X33492Y-29636D03*
X33295Y-29636D03*
X33098Y-29636D03*
X32902Y-29636D03*
X32705Y-29636D03*
G54D23*
X31386Y-30167D03*
X31386Y-30364D03*
X31386Y-30561D03*
X31386Y-30758D03*
X31386Y-30955D03*
X31386Y-31152D03*
X31386Y-31348D03*
X31386Y-31545D03*
G54D22*
X33492Y-32864D03*
X33689Y-32864D03*
X33886Y-32864D03*
X34083Y-32864D03*
G54D23*
X34614Y-30758D03*
X34614Y-30561D03*
X34614Y-30364D03*
X34614Y-30167D03*
G54D22*
X32508Y-29636D03*
X32311Y-29636D03*
X32114Y-29636D03*
X31917Y-29636D03*
G54D23*
X31386Y-31742D03*
X31386Y-31939D03*
X31386Y-32136D03*
X31386Y-32333D03*
G54D24*
X28858Y-27102D03*
X28858Y-25102D03*
G54D25*
X32305Y-35800D03*
X32895Y-35800D03*
X32305Y-36400D03*
X32895Y-36400D03*
X32305Y-37000D03*
X32895Y-37000D03*
X32305Y-37600D03*
X32895Y-37600D03*
G54D26*
X26555Y-40629D03*
X28011Y-40629D03*
X26555Y-41574D03*
X28011Y-41574D03*
G54D15*
X36417Y-28641D03*
X36417Y-29233D03*
G54D14*
X34349Y-27362D03*
X34941Y-27362D03*
X31204Y-37000D03*
X31796Y-37000D03*
X32971Y-27362D03*
X33563Y-27362D03*
X31204Y-36400D03*
X31796Y-36400D03*
X31593Y-27362D03*
X32185Y-27362D03*
G54D15*
X36417Y-30018D03*
X36417Y-30610D03*
G54D14*
X28839Y-28622D03*
X28247Y-28622D03*
X31204Y-35800D03*
X31796Y-35800D03*
X36869Y-31417D03*
X37461Y-31417D03*
G54D15*
X36417Y-27263D03*
X36417Y-27855D03*
G54D14*
X28504Y-34700D03*
X29096Y-34700D03*
G54D15*
X36417Y-35038D03*
X36417Y-35630D03*
X27900Y-35296D03*
X27900Y-34704D03*
X36417Y-33660D03*
X36417Y-34252D03*
X36417Y-32282D03*
X36417Y-32874D03*
G54D14*
X25886Y-32795D03*
X25294Y-32795D03*
X33170Y-41141D03*
X32578Y-41141D03*
X34547Y-41141D03*
X33955Y-41141D03*
X25886Y-33346D03*
X25294Y-33346D03*
X35925Y-41141D03*
X35333Y-41141D03*
X31204Y-37600D03*
X31796Y-37600D03*
G54D15*
X36417Y-40058D03*
X36417Y-40650D03*
G54D14*
X28839Y-29173D03*
X28247Y-29173D03*
G54D15*
X36417Y-38680D03*
X36417Y-39272D03*
X29409Y-29193D03*
X29409Y-28601D03*
X36417Y-37302D03*
X36417Y-37894D03*
G54D27*
X25196Y-35890D03*
X25196Y-36550D03*
G54D28*
X25196Y-37367D03*
X25196Y-35073D03*
G54D29*
X26101Y-37189D03*
X26101Y-35251D03*
G54D30*
X26243Y-35708D03*
X26243Y-35964D03*
X26243Y-36220D03*
X26243Y-36476D03*
X26243Y-36732D03*
G54D31*
X29683Y-35394D03*
G54D32*
X29427Y-35394D03*
X29173Y-35394D03*
G54D31*
X28917Y-35394D03*
G54D33*
X28494Y-35817D03*
G54D34*
X28494Y-36073D03*
X28494Y-36327D03*
G54D33*
X28494Y-36583D03*
G54D31*
X28917Y-37006D03*
G54D32*
X29173Y-37006D03*
X29427Y-37006D03*
G54D31*
X29683Y-37006D03*
G54D33*
X30106Y-36583D03*
G54D34*
X30106Y-36327D03*
X30106Y-36073D03*
G54D33*
X30106Y-35817D03*
G54D35*
X29300Y-36200D03*
G54D15*
X30000Y-32546D03*
X30000Y-31954D03*
G54D14*
X29096Y-38300D03*
X28504Y-38300D03*
G54D36*
X30683Y-44000D03*
X28517Y-44000D03*
X39114Y-25551D03*
X36948Y-25551D03*
G54D37*
X27100Y-43500D03*
G54D38*
X26100Y-43500D03*
G54D14*
X38839Y-31929D03*
X38247Y-31929D03*
X38878Y-36929D03*
X38286Y-36929D03*
G54D36*
X39271Y-43700D03*
X37105Y-43700D03*
G54D39*
X31771Y-28267D03*
X32637Y-28267D03*
X35944Y-29960D03*
X36417Y-31102D03*
X35944Y-30984D03*
X35905Y-29448D03*
X36771Y-31889D03*
X32637Y-31023D03*
X25866Y-33779D03*
X28740Y-32559D03*
X26338Y-30905D03*
X33976Y-30826D03*
X36417Y-31614D03*
X31968Y-31535D03*
X33346Y-37598D03*
X29409Y-28031D03*
X33937Y-31889D03*
X28346Y-31614D03*
X26850Y-28149D03*
X33228Y-28582D03*
X33346Y-36417D03*
X29566Y-37559D03*
X32834Y-27874D03*
X33346Y-37047D03*
X27992Y-35748D03*
X27165Y-36417D03*
X27637Y-35984D03*
X29133Y-39763D03*
X31102Y-39763D03*
X30708Y-40157D03*
X29527Y-40157D03*
X31299Y-28346D03*
X29921Y-29133D03*
X25944Y-32086D03*
X30078Y-41141D03*
X29527Y-32559D03*
X39763Y-31889D03*
X39763Y-37007D03*
X39763Y-26377D03*
X38188Y-26377D03*
X38976Y-26377D03*
X40157Y-44488D03*
X39370Y-44488D03*
X38582Y-44488D03*
X31496Y-44881D03*
X30708Y-44881D03*
X29921Y-44881D03*
X26023Y-40669D03*
X31141Y-35314D03*
X26889Y-35590D03*
X31102Y-25590D03*
X32480Y-33700D03*
X29488Y-31968D03*
X27283Y-37086D03*
X26377Y-38149D03*
X25669Y-38149D03*
X29763Y-34606D03*
X26771Y-30984D03*
X32992Y-32125D03*
X27401Y-34960D03*
X28582Y-37125D03*
X30826Y-40629D03*
X28464Y-40590D03*
G54D40*
X33689Y-32864D02*
X33689Y-33216D01*
X33170Y-40885D02*
X33170Y-41141D01*
X33385Y-40669D02*
X33170Y-40885D01*
X34055Y-40669D02*
X33385Y-40669D01*
X34921Y-39803D02*
X34055Y-40669D01*
X34921Y-33779D02*
X34921Y-39803D01*
X34842Y-33700D02*
X34921Y-33779D01*
X34173Y-33700D02*
X34842Y-33700D01*
X33689Y-33216D02*
X34173Y-33700D01*
G54D41*
X33249Y-41709D02*
X33249Y-41220D01*
X33249Y-41220D02*
X33170Y-41141D01*
G54D40*
X33886Y-32864D02*
X33886Y-33177D01*
X34547Y-40452D02*
X34547Y-41141D01*
X35078Y-39921D02*
X34547Y-40452D01*
X35078Y-33653D02*
X35078Y-39921D01*
X34929Y-33503D02*
X35078Y-33653D01*
X34212Y-33503D02*
X34929Y-33503D01*
X33886Y-33177D02*
X34212Y-33503D01*
G54D41*
X34626Y-41709D02*
X34626Y-41220D01*
X34626Y-41220D02*
X34547Y-41141D01*
G54D40*
X34083Y-32864D02*
X34083Y-33138D01*
X35925Y-40610D02*
X35925Y-41141D01*
X35236Y-39921D02*
X35925Y-40610D01*
X35236Y-33574D02*
X35236Y-39921D01*
X34968Y-33307D02*
X35236Y-33574D01*
X34251Y-33307D02*
X34968Y-33307D01*
X34083Y-33138D02*
X34251Y-33307D01*
G54D41*
X36004Y-41709D02*
X36004Y-41220D01*
X36004Y-41220D02*
X35925Y-41141D01*
G54D42*
X32874Y-42541D02*
X32874Y-43124D01*
X32874Y-43124D02*
X33250Y-43500D01*
X34251Y-42541D02*
X34251Y-43498D01*
X34251Y-43498D02*
X34250Y-43500D01*
X35629Y-42541D02*
X35629Y-43120D01*
X35629Y-43120D02*
X35250Y-43500D01*
G54D40*
X34614Y-32333D02*
X35128Y-32333D01*
X35924Y-40058D02*
X36417Y-40058D01*
X35393Y-39527D02*
X35924Y-40058D01*
X35393Y-32598D02*
X35393Y-39527D01*
X35128Y-32333D02*
X35393Y-32598D01*
G54D41*
X36985Y-39979D02*
X36496Y-39979D01*
X36496Y-39979D02*
X36417Y-40058D01*
G54D40*
X34614Y-31742D02*
X35096Y-31742D01*
X36121Y-38680D02*
X36417Y-38680D01*
X35551Y-38110D02*
X36121Y-38680D01*
X35551Y-32196D02*
X35551Y-38110D01*
X35096Y-31742D02*
X35551Y-32196D01*
G54D41*
X36985Y-38601D02*
X36496Y-38601D01*
X36496Y-38601D02*
X36417Y-38680D01*
G54D40*
X34614Y-31545D02*
X35175Y-31545D01*
X36081Y-37302D02*
X36417Y-37302D01*
X35708Y-36929D02*
X36081Y-37302D01*
X35708Y-32078D02*
X35708Y-36929D01*
X35175Y-31545D02*
X35708Y-32078D01*
G54D41*
X36985Y-37223D02*
X36496Y-37223D01*
X36496Y-37223D02*
X36417Y-37302D01*
G54D42*
X37817Y-40354D02*
X38395Y-40354D01*
X38395Y-40354D02*
X38750Y-40000D01*
X37817Y-38976D02*
X38726Y-38976D01*
X38726Y-38976D02*
X38750Y-39000D01*
X37817Y-37598D02*
X38348Y-37598D01*
X38348Y-37598D02*
X38750Y-38000D01*
G54D40*
X33492Y-29636D02*
X33492Y-29106D01*
X34349Y-27579D02*
X34349Y-27362D01*
X33740Y-28188D02*
X34349Y-27579D01*
X33740Y-28858D02*
X33740Y-28188D01*
X33492Y-29106D02*
X33740Y-28858D01*
G54D41*
X34270Y-26793D02*
X34270Y-27283D01*
X34270Y-27283D02*
X34349Y-27362D01*
G54D40*
X32971Y-27362D02*
X32971Y-27578D01*
X33295Y-29027D02*
X33295Y-29636D01*
X33543Y-28779D02*
X33295Y-29027D01*
X33543Y-28149D02*
X33543Y-28779D01*
X32971Y-27578D02*
X33543Y-28149D01*
G54D41*
X32892Y-26793D02*
X32892Y-27283D01*
X32892Y-27283D02*
X32971Y-27362D01*
G54D40*
X32705Y-29636D02*
X32705Y-28334D01*
X31593Y-28089D02*
X31593Y-27362D01*
X31771Y-28267D02*
X31593Y-28089D01*
X32705Y-28334D02*
X32637Y-28267D01*
G54D41*
X31514Y-26793D02*
X31514Y-27283D01*
X31514Y-27283D02*
X31593Y-27362D01*
G54D42*
X34645Y-25961D02*
X34645Y-25395D01*
X34645Y-25395D02*
X34250Y-25000D01*
X33267Y-25961D02*
X33267Y-25017D01*
X33267Y-25017D02*
X33250Y-25000D01*
X31889Y-25961D02*
X31889Y-25360D01*
X31889Y-25360D02*
X32250Y-25000D01*
G54D40*
X34614Y-30758D02*
X35246Y-30758D01*
X36003Y-30018D02*
X36417Y-30018D01*
X35944Y-29960D02*
X36003Y-30018D01*
X36220Y-31299D02*
X36417Y-31102D01*
X35787Y-31299D02*
X36220Y-31299D01*
X35246Y-30758D02*
X35787Y-31299D01*
G54D41*
X36985Y-29939D02*
X36496Y-29939D01*
X36496Y-29939D02*
X36417Y-30018D01*
G54D40*
X35364Y-30561D02*
X35787Y-30984D01*
X35787Y-30984D02*
X35944Y-30984D01*
X34614Y-30561D02*
X35364Y-30561D01*
X36201Y-28641D02*
X36417Y-28641D01*
X35944Y-28897D02*
X36201Y-28641D01*
X35944Y-29409D02*
X35944Y-28897D01*
X35905Y-29448D02*
X35944Y-29409D01*
G54D41*
X36985Y-28562D02*
X36496Y-28562D01*
X36496Y-28562D02*
X36417Y-28641D01*
G54D40*
X33689Y-29636D02*
X33689Y-29145D01*
X35886Y-27263D02*
X36417Y-27263D01*
X35393Y-27755D02*
X35886Y-27263D01*
X34448Y-27755D02*
X35393Y-27755D01*
X33937Y-28267D02*
X34448Y-27755D01*
X33937Y-28897D02*
X33937Y-28267D01*
X33689Y-29145D02*
X33937Y-28897D01*
G54D41*
X36985Y-27184D02*
X36496Y-27184D01*
X36496Y-27184D02*
X36417Y-27263D01*
G54D42*
X37817Y-30314D02*
X38435Y-30314D01*
X38435Y-30314D02*
X38750Y-30000D01*
X37817Y-28937D02*
X38687Y-28937D01*
X38687Y-28937D02*
X38750Y-29000D01*
X37817Y-27559D02*
X38309Y-27559D01*
X38309Y-27559D02*
X38750Y-28000D01*
G54D40*
X34614Y-31348D02*
X35245Y-31348D01*
X36180Y-35038D02*
X36417Y-35038D01*
X35866Y-34724D02*
X36180Y-35038D01*
X35866Y-31968D02*
X35866Y-34724D01*
X35245Y-31348D02*
X35866Y-31968D01*
G54D41*
X36985Y-34959D02*
X36496Y-34959D01*
X36496Y-34959D02*
X36417Y-35038D01*
G54D40*
X34614Y-31152D02*
X35325Y-31152D01*
X36101Y-33660D02*
X36417Y-33660D01*
X36023Y-33582D02*
X36101Y-33660D01*
X36023Y-31850D02*
X36023Y-33582D01*
X35325Y-31152D02*
X36023Y-31850D01*
G54D41*
X36985Y-33581D02*
X36496Y-33581D01*
X36496Y-33581D02*
X36417Y-33660D01*
G54D40*
X31386Y-31152D02*
X31918Y-31152D01*
X36985Y-32103D02*
X36985Y-32203D01*
X36771Y-31889D02*
X36985Y-32103D01*
X32047Y-31023D02*
X32637Y-31023D01*
X31918Y-31152D02*
X32047Y-31023D01*
G54D41*
X36985Y-32203D02*
X36496Y-32203D01*
X36496Y-32203D02*
X36417Y-32282D01*
G54D42*
X37817Y-35334D02*
X38415Y-35334D01*
X38415Y-35334D02*
X38750Y-35000D01*
X37817Y-33956D02*
X38706Y-33956D01*
X38706Y-33956D02*
X38750Y-34000D01*
X37817Y-32578D02*
X38328Y-32578D01*
X38328Y-32578D02*
X38750Y-33000D01*
G54D40*
X28740Y-32559D02*
X28740Y-32047D01*
X29242Y-31545D02*
X31386Y-31545D01*
X28740Y-32047D02*
X29242Y-31545D01*
X29683Y-37006D02*
X30356Y-37006D01*
X25886Y-33759D02*
X25886Y-33346D01*
X25866Y-33779D02*
X25886Y-33759D01*
X28582Y-32716D02*
X28740Y-32559D01*
X28582Y-33307D02*
X28582Y-32716D01*
X28740Y-33464D02*
X28582Y-33307D01*
X29685Y-33464D02*
X28740Y-33464D01*
X30748Y-34527D02*
X29685Y-33464D01*
X30748Y-36614D02*
X30748Y-34527D01*
X30356Y-37006D02*
X30748Y-36614D01*
X25886Y-33346D02*
X26181Y-33346D01*
X26338Y-33188D02*
X26338Y-30905D01*
X26181Y-33346D02*
X26338Y-33188D01*
X36869Y-31417D02*
X36614Y-31417D01*
X34104Y-30955D02*
X34614Y-30955D01*
X33976Y-30826D02*
X34104Y-30955D01*
X36614Y-31417D02*
X36417Y-31614D01*
X32895Y-37600D02*
X33344Y-37600D01*
X31781Y-31348D02*
X31386Y-31348D01*
X31968Y-31535D02*
X31781Y-31348D01*
X33344Y-37600D02*
X33346Y-37598D01*
X34614Y-32136D02*
X34183Y-32136D01*
X29409Y-28031D02*
X29409Y-28601D01*
X34183Y-32136D02*
X33937Y-31889D01*
X29409Y-28601D02*
X29941Y-28601D01*
X29941Y-28601D02*
X29979Y-28639D01*
X28839Y-28622D02*
X29389Y-28622D01*
X29389Y-28622D02*
X29409Y-28601D01*
X30106Y-35817D02*
X30106Y-34436D01*
X28188Y-31771D02*
X28346Y-31614D01*
X28188Y-33425D02*
X28188Y-31771D01*
X28582Y-33818D02*
X28188Y-33425D01*
X29488Y-33818D02*
X28582Y-33818D01*
X30106Y-34436D02*
X29488Y-33818D01*
X27244Y-31598D02*
X27244Y-30905D01*
X26438Y-30100D02*
X25700Y-30100D01*
X27244Y-30905D02*
X26438Y-30100D01*
X25294Y-32795D02*
X25294Y-31614D01*
X25294Y-30505D02*
X25700Y-30100D01*
X25294Y-31614D02*
X25294Y-30505D01*
X30106Y-36073D02*
X30423Y-36073D01*
X26732Y-28267D02*
X26850Y-28149D01*
X26732Y-29409D02*
X26732Y-28267D01*
X28661Y-31338D02*
X26732Y-29409D01*
X28661Y-31732D02*
X28661Y-31338D01*
X28385Y-32007D02*
X28661Y-31732D01*
X28385Y-33354D02*
X28385Y-32007D01*
X28653Y-33622D02*
X28385Y-33354D01*
X29566Y-33622D02*
X28653Y-33622D01*
X30551Y-34606D02*
X29566Y-33622D01*
X30551Y-35944D02*
X30551Y-34606D01*
X30423Y-36073D02*
X30551Y-35944D01*
X33098Y-29636D02*
X33098Y-28713D01*
X33098Y-28713D02*
X33228Y-28582D01*
X29427Y-37006D02*
X29427Y-37419D01*
X33329Y-36400D02*
X32895Y-36400D01*
X33346Y-36417D02*
X33329Y-36400D01*
X29427Y-37419D02*
X29566Y-37559D01*
X29427Y-35394D02*
X29427Y-34308D01*
X25958Y-27100D02*
X25700Y-27100D01*
X26496Y-27637D02*
X25958Y-27100D01*
X26496Y-29724D02*
X26496Y-27637D01*
X27992Y-31220D02*
X26496Y-29724D01*
X27992Y-33503D02*
X27992Y-31220D01*
X28464Y-33976D02*
X27992Y-33503D01*
X29094Y-33976D02*
X28464Y-33976D01*
X29427Y-34308D02*
X29094Y-33976D01*
X32902Y-28436D02*
X32952Y-28385D01*
X32952Y-28385D02*
X32952Y-27992D01*
X32952Y-27992D02*
X32834Y-27874D01*
X32902Y-29636D02*
X32902Y-28436D01*
X28494Y-35817D02*
X28061Y-35817D01*
X33299Y-37000D02*
X32895Y-37000D01*
X33346Y-37047D02*
X33299Y-37000D01*
X28061Y-35817D02*
X27992Y-35748D01*
X28494Y-36073D02*
X27726Y-36073D01*
X26968Y-36220D02*
X26243Y-36220D01*
X27165Y-36417D02*
X26968Y-36220D01*
X27726Y-36073D02*
X27637Y-35984D01*
X26243Y-35964D02*
X27145Y-35964D01*
X27508Y-36327D02*
X28494Y-36327D01*
X27145Y-35964D02*
X27508Y-36327D01*
X30100Y-39300D02*
X29597Y-39300D01*
X29597Y-39300D02*
X29133Y-39763D01*
X30100Y-39300D02*
X30638Y-39300D01*
X30638Y-39300D02*
X31102Y-39763D01*
X29921Y-39763D02*
X30314Y-39763D01*
X30314Y-39763D02*
X30708Y-40157D01*
X30100Y-39763D02*
X29921Y-39763D01*
X29921Y-39763D02*
X29527Y-40157D01*
G54D41*
X31917Y-32864D02*
X31917Y-32334D01*
X33464Y-31377D02*
X33492Y-31377D01*
X33464Y-31366D02*
X33464Y-31377D01*
X33492Y-31338D02*
X33464Y-31366D01*
X32913Y-31338D02*
X33492Y-31338D01*
X31917Y-32334D02*
X32913Y-31338D01*
G54D40*
X31204Y-37600D02*
X30470Y-37600D01*
X30100Y-37970D02*
X30100Y-39300D01*
X30470Y-37600D02*
X30100Y-37970D01*
X29409Y-29193D02*
X29861Y-29193D01*
X31702Y-28750D02*
X31704Y-28750D01*
X31299Y-28346D02*
X31702Y-28750D01*
X29861Y-29193D02*
X29921Y-29133D01*
X29409Y-29193D02*
X28859Y-29193D01*
X28859Y-29193D02*
X28839Y-29173D01*
X25886Y-32795D02*
X25886Y-32144D01*
X25886Y-32144D02*
X25944Y-32086D01*
G54D43*
X30100Y-41900D02*
X30100Y-39763D01*
X30100Y-39763D02*
X30100Y-39300D01*
X30100Y-41162D02*
X30100Y-41900D01*
X30078Y-41141D02*
X30100Y-41162D01*
X30000Y-32546D02*
X29540Y-32546D01*
X29540Y-32546D02*
X29527Y-32559D01*
X33492Y-32864D02*
X33492Y-31377D01*
X33492Y-31377D02*
X33492Y-30167D01*
X33492Y-30167D02*
X33501Y-30157D01*
X33501Y-30157D02*
X33503Y-30157D01*
X33503Y-30157D02*
X33503Y-30167D01*
X34614Y-30167D02*
X33503Y-30167D01*
X33503Y-30167D02*
X32096Y-30167D01*
X32096Y-30167D02*
X31917Y-29987D01*
X31917Y-29987D02*
X31917Y-29636D01*
X30100Y-39300D02*
X28200Y-39300D01*
X28200Y-39300D02*
X28000Y-39500D01*
G54D40*
X34614Y-30167D02*
X34754Y-30167D01*
X34754Y-30167D02*
X35275Y-29645D01*
X35275Y-29645D02*
X35275Y-29625D01*
X31917Y-32864D02*
X31917Y-32586D01*
X31663Y-32333D02*
X31386Y-32333D01*
X31917Y-32586D02*
X31790Y-32459D01*
X31790Y-32459D02*
X31663Y-32333D01*
X30500Y-32546D02*
X30000Y-32546D01*
X31386Y-32333D02*
X30934Y-32333D01*
X30721Y-32546D02*
X30500Y-32546D01*
X30934Y-32333D02*
X30721Y-32546D01*
X31704Y-28750D02*
X31704Y-28948D01*
X31917Y-29161D02*
X31917Y-29636D01*
X31704Y-28948D02*
X31917Y-29161D01*
X33546Y-33750D02*
X33546Y-33349D01*
X33492Y-33295D02*
X33492Y-32864D01*
X33546Y-33349D02*
X33492Y-33295D01*
G54D42*
X38839Y-31929D02*
X39724Y-31929D01*
X39724Y-31929D02*
X39763Y-31889D01*
X38878Y-36929D02*
X39685Y-36929D01*
X39685Y-36929D02*
X39763Y-37007D01*
X39114Y-25551D02*
X39330Y-25551D01*
X39763Y-25984D02*
X39763Y-26377D01*
X39330Y-25551D02*
X39763Y-25984D01*
X39114Y-25551D02*
X38622Y-25551D01*
X38188Y-25984D02*
X38188Y-26377D01*
X38622Y-25551D02*
X38188Y-25984D01*
X39114Y-25551D02*
X39114Y-26239D01*
X39114Y-26239D02*
X38976Y-26377D01*
X39271Y-43700D02*
X39370Y-43700D01*
X39370Y-43700D02*
X40157Y-44488D01*
X39271Y-43700D02*
X39271Y-44390D01*
X39271Y-44390D02*
X39370Y-44488D01*
X39271Y-43700D02*
X38976Y-43700D01*
X38582Y-44094D02*
X38582Y-44488D01*
X38976Y-43700D02*
X38582Y-44094D01*
X30683Y-44000D02*
X31007Y-44000D01*
X31496Y-44488D02*
X31496Y-44881D01*
X31007Y-44000D02*
X31496Y-44488D01*
X30683Y-44000D02*
X30683Y-44856D01*
X30683Y-44856D02*
X30708Y-44881D01*
X30683Y-44000D02*
X30409Y-44000D01*
X29921Y-44488D02*
X29921Y-44881D01*
X30409Y-44000D02*
X29921Y-44488D01*
G54D43*
X26100Y-43500D02*
X26100Y-42030D01*
X26100Y-42030D02*
X26555Y-41574D01*
G54D40*
X27900Y-35296D02*
X27184Y-35296D01*
X27184Y-35296D02*
X26889Y-35590D01*
G54D43*
X26555Y-40629D02*
X26259Y-40629D01*
X26220Y-40669D02*
X26023Y-40669D01*
X26259Y-40629D02*
X26220Y-40669D01*
X31204Y-36400D02*
X31204Y-37000D01*
X31204Y-35800D02*
X31204Y-36400D01*
X26243Y-35708D02*
X26771Y-35708D01*
X31204Y-35377D02*
X31204Y-35800D01*
X31141Y-35314D02*
X31204Y-35377D01*
X26771Y-35708D02*
X26889Y-35590D01*
X30729Y-28639D02*
X30729Y-27932D01*
X30729Y-27932D02*
X31102Y-27559D01*
G54D44*
X27100Y-43500D02*
X27100Y-44422D01*
X27100Y-44422D02*
X27165Y-44488D01*
X27100Y-43500D02*
X28017Y-43500D01*
X28017Y-43500D02*
X28517Y-44000D01*
G54D43*
X32895Y-35800D02*
X33359Y-35800D01*
X33359Y-35800D02*
X33700Y-36141D01*
X33700Y-36141D02*
X33700Y-36732D01*
X33700Y-38899D02*
X33300Y-39300D01*
X33700Y-36732D02*
X33700Y-37047D01*
X33700Y-37047D02*
X33700Y-38899D01*
X32954Y-33750D02*
X32954Y-35741D01*
X32954Y-35741D02*
X32895Y-35800D01*
X32529Y-33750D02*
X32954Y-33750D01*
X32480Y-33700D02*
X32529Y-33750D01*
G54D40*
X25294Y-33346D02*
X25294Y-34370D01*
G54D43*
X25294Y-34370D02*
X25294Y-34975D01*
X25294Y-34975D02*
X25196Y-35073D01*
X26338Y-34370D02*
X25294Y-34370D01*
X26476Y-34232D02*
X26338Y-34370D01*
X27244Y-33598D02*
X27110Y-33598D01*
X27110Y-33598D02*
X26476Y-34232D01*
X26476Y-34232D02*
X26456Y-34251D01*
X30000Y-31954D02*
X29502Y-31954D01*
X29502Y-31954D02*
X29488Y-31968D01*
G54D41*
X32578Y-41141D02*
X32578Y-40610D01*
X32578Y-40610D02*
X33300Y-39888D01*
X33300Y-39888D02*
X33300Y-39300D01*
X32996Y-38500D02*
X32996Y-38996D01*
X32996Y-38996D02*
X33300Y-39300D01*
X26800Y-39500D02*
X26800Y-39870D01*
X28619Y-42480D02*
X29200Y-41900D01*
X27677Y-42480D02*
X28619Y-42480D01*
X27244Y-42047D02*
X27677Y-42480D01*
X27244Y-40314D02*
X27244Y-42047D01*
X26800Y-39870D02*
X27244Y-40314D01*
X26779Y-37866D02*
X26779Y-39479D01*
X26779Y-39479D02*
X26800Y-39500D01*
X26101Y-37189D02*
X26779Y-37866D01*
X25196Y-37367D02*
X25923Y-37367D01*
X25923Y-37367D02*
X26101Y-37189D01*
X25196Y-35073D02*
X25196Y-37367D01*
X25294Y-34975D02*
X25196Y-35073D01*
X29096Y-34700D02*
X29096Y-34450D01*
X26456Y-34251D02*
X26338Y-34370D01*
X28897Y-34251D02*
X26456Y-34251D01*
X29096Y-34450D02*
X28897Y-34251D01*
G54D40*
X27900Y-37696D02*
X26608Y-37696D01*
X26608Y-37696D02*
X26101Y-37189D01*
X27900Y-37696D02*
X28500Y-37696D01*
X28500Y-37696D02*
X28504Y-37700D01*
X28504Y-38300D02*
X28504Y-37700D01*
X29173Y-35394D02*
X29173Y-34777D01*
X29173Y-34777D02*
X29096Y-34700D01*
X27110Y-33598D02*
X26338Y-34370D01*
X25294Y-34975D02*
X25196Y-35073D01*
G54D43*
X35275Y-30217D02*
X35374Y-30217D01*
X35768Y-30610D02*
X36417Y-30610D01*
X35374Y-30217D02*
X35768Y-30610D01*
X32185Y-27362D02*
X32185Y-27618D01*
X32296Y-27729D02*
X32296Y-28750D01*
X32185Y-27618D02*
X32296Y-27729D01*
G54D42*
X35254Y-41709D02*
X35254Y-41220D01*
X35254Y-41220D02*
X35333Y-41141D01*
X33876Y-41709D02*
X33876Y-41220D01*
X33876Y-41220D02*
X33955Y-41141D01*
X32499Y-41709D02*
X32499Y-41220D01*
X32499Y-41220D02*
X32578Y-41141D01*
X36985Y-40729D02*
X36496Y-40729D01*
X36496Y-40729D02*
X36417Y-40650D01*
X36985Y-39351D02*
X36496Y-39351D01*
X36496Y-39351D02*
X36417Y-39272D01*
X36985Y-37973D02*
X36496Y-37973D01*
X36496Y-37973D02*
X36417Y-37894D01*
X36985Y-35709D02*
X36496Y-35709D01*
X36496Y-35709D02*
X36417Y-35630D01*
X36985Y-34331D02*
X36496Y-34331D01*
X36496Y-34331D02*
X36417Y-34252D01*
X36985Y-32953D02*
X36496Y-32953D01*
X36496Y-32953D02*
X36417Y-32874D01*
X36985Y-27934D02*
X36496Y-27934D01*
X36496Y-27934D02*
X36417Y-27855D01*
X36985Y-29312D02*
X36496Y-29312D01*
X36496Y-29312D02*
X36417Y-29233D01*
X36985Y-30689D02*
X36496Y-30689D01*
X36496Y-30689D02*
X36417Y-30610D01*
X32264Y-26793D02*
X32264Y-27283D01*
X32264Y-27283D02*
X32185Y-27362D01*
X33642Y-26793D02*
X33642Y-27283D01*
X33642Y-27283D02*
X33563Y-27362D01*
X35020Y-26793D02*
X35020Y-27283D01*
X35020Y-27283D02*
X34941Y-27362D01*
G54D40*
X25196Y-35073D02*
X25923Y-35073D01*
X25923Y-35073D02*
X26101Y-35251D01*
X25196Y-35890D02*
X25196Y-35073D01*
X25196Y-36550D02*
X25196Y-35890D01*
X25196Y-37367D02*
X25196Y-36550D01*
X26243Y-36732D02*
X26243Y-37047D01*
X26243Y-37047D02*
X26101Y-37189D01*
G54D41*
X30106Y-36583D02*
X29683Y-36583D01*
X29683Y-36583D02*
X29300Y-36200D01*
X29173Y-35394D02*
X29173Y-36073D01*
X29173Y-36073D02*
X29300Y-36200D01*
G54D40*
X34614Y-30364D02*
X35128Y-30364D01*
X35128Y-30364D02*
X35275Y-30217D01*
X30500Y-31954D02*
X30772Y-31954D01*
X30954Y-32136D02*
X31386Y-32136D01*
X30772Y-31954D02*
X30954Y-32136D01*
X30000Y-31954D02*
X30500Y-31954D01*
X32296Y-28750D02*
X32296Y-28924D01*
X32296Y-28924D02*
X32114Y-29106D01*
X32114Y-29106D02*
X32114Y-29636D01*
X32954Y-33750D02*
X32954Y-33581D01*
X33295Y-33240D02*
X33295Y-32864D01*
X32954Y-33581D02*
X33295Y-33240D01*
X29683Y-35394D02*
X29683Y-34687D01*
X27300Y-37104D02*
X27900Y-37104D01*
X27283Y-37086D02*
X27300Y-37104D01*
X25669Y-38149D02*
X26377Y-38149D01*
X29683Y-34687D02*
X29763Y-34606D01*
X27900Y-37104D02*
X27900Y-36863D01*
X28180Y-36583D02*
X28494Y-36583D01*
X27900Y-36863D02*
X28180Y-36583D01*
X33098Y-32864D02*
X33098Y-32231D01*
X26574Y-31929D02*
X27244Y-32598D01*
X26574Y-31181D02*
X26574Y-31929D01*
X26771Y-30984D02*
X26574Y-31181D01*
X33098Y-32231D02*
X32992Y-32125D01*
X27900Y-34704D02*
X28500Y-34704D01*
X28500Y-34704D02*
X28504Y-34700D01*
X28917Y-37006D02*
X28702Y-37006D01*
X27658Y-34704D02*
X27900Y-34704D01*
X27401Y-34960D02*
X27658Y-34704D01*
X28702Y-37006D02*
X28582Y-37125D01*
X29096Y-37700D02*
X29096Y-37439D01*
X29173Y-37362D02*
X29173Y-37006D01*
X29096Y-37439D02*
X29173Y-37362D01*
X29096Y-38300D02*
X29096Y-37700D01*
G54D41*
X32404Y-38500D02*
X32404Y-38996D01*
X32404Y-38996D02*
X32100Y-39300D01*
X31000Y-41900D02*
X31000Y-40400D01*
X31000Y-40400D02*
X32100Y-39300D01*
X28011Y-40629D02*
X28425Y-40629D01*
X31000Y-40803D02*
X31000Y-41900D01*
X30826Y-40629D02*
X31000Y-40803D01*
X28425Y-40629D02*
X28464Y-40590D01*
X28011Y-40629D02*
X28011Y-41574D01*
G54D40*
X30354Y-29471D02*
X30354Y-29488D01*
X30118Y-29724D02*
X28839Y-29724D01*
X30354Y-29488D02*
X30118Y-29724D01*
X28247Y-28622D02*
X28247Y-28248D01*
X30314Y-29431D02*
X30354Y-29471D01*
X30314Y-27992D02*
X30314Y-29431D01*
X30078Y-27755D02*
X30314Y-27992D01*
X28740Y-27755D02*
X30078Y-27755D01*
X28247Y-28248D02*
X28740Y-27755D01*
X28247Y-29173D02*
X28070Y-29173D01*
X27874Y-28086D02*
X28858Y-27102D01*
X27874Y-28976D02*
X27874Y-28086D01*
X28070Y-29173D02*
X27874Y-28976D01*
X28247Y-29724D02*
X28247Y-29173D01*
G54D41*
X31796Y-37600D02*
X32305Y-37600D01*
X31796Y-36400D02*
X32305Y-36400D01*
X32305Y-35800D02*
X31796Y-35800D01*
X32305Y-37000D02*
X31796Y-37000D01*
G54D10*
G36*
X26038Y-32348D02*
X25999Y-32348D01*
X25936Y-32410D01*
X25936Y-32745D01*
X25944Y-32745D01*
X25944Y-32845D01*
X25936Y-32845D01*
X25936Y-32853D01*
X25836Y-32853D01*
X25836Y-32845D01*
X25828Y-32845D01*
X25828Y-32745D01*
X25836Y-32745D01*
X25836Y-32410D01*
X25774Y-32348D01*
X25660Y-32348D01*
X25594Y-32375D01*
X25594Y-31614D01*
X25594Y-30650D01*
X25992Y-30650D01*
X25978Y-30664D01*
X25913Y-30820D01*
X25913Y-30989D01*
X25978Y-31145D01*
X26038Y-31206D01*
X26038Y-32348D01*
X26038Y-32348D01*
G37*
G54D40*
X26038Y-32348D02*
X25999Y-32348D01*
X25936Y-32410D01*
X25936Y-32745D01*
X25944Y-32745D01*
X25944Y-32845D01*
X25936Y-32845D01*
X25936Y-32853D01*
X25836Y-32853D01*
X25836Y-32845D01*
X25828Y-32845D01*
X25828Y-32745D01*
X25836Y-32745D01*
X25836Y-32410D01*
X25774Y-32348D01*
X25660Y-32348D01*
X25594Y-32375D01*
X25594Y-31614D01*
X25594Y-30650D01*
X25992Y-30650D01*
X25978Y-30664D01*
X25913Y-30820D01*
X25913Y-30989D01*
X25978Y-31145D01*
X26038Y-31206D01*
X26038Y-32348D01*
G54D10*
G36*
X29179Y-38747D02*
X29168Y-38758D01*
X29166Y-38763D01*
X28740Y-38976D01*
X28740Y-40265D01*
X28705Y-40230D01*
X28559Y-40169D01*
X28595Y-40133D01*
X28633Y-40041D01*
X28634Y-39942D01*
X28634Y-39057D01*
X28633Y-38958D01*
X28595Y-38866D01*
X28525Y-38795D01*
X28433Y-38757D01*
X28112Y-38758D01*
X28050Y-38820D01*
X28050Y-39450D01*
X28571Y-39450D01*
X28634Y-39387D01*
X28634Y-39057D01*
X28634Y-39942D01*
X28634Y-39612D01*
X28571Y-39550D01*
X28050Y-39550D01*
X28050Y-39557D01*
X27950Y-39557D01*
X27950Y-39550D01*
X27942Y-39550D01*
X27942Y-39450D01*
X27950Y-39450D01*
X27950Y-38820D01*
X27887Y-38758D01*
X27566Y-38757D01*
X27474Y-38795D01*
X27404Y-38866D01*
X27400Y-38876D01*
X27396Y-38866D01*
X27325Y-38796D01*
X27233Y-38758D01*
X27134Y-38757D01*
X27088Y-38757D01*
X27088Y-37996D01*
X27483Y-37996D01*
X27490Y-38014D01*
X27561Y-38084D01*
X27653Y-38122D01*
X27752Y-38123D01*
X28076Y-38123D01*
X28076Y-38152D01*
X28076Y-38546D01*
X28114Y-38638D01*
X28185Y-38708D01*
X28277Y-38746D01*
X28376Y-38747D01*
X28730Y-38747D01*
X28800Y-38718D01*
X28869Y-38746D01*
X28968Y-38747D01*
X29179Y-38747D01*
X29179Y-38747D01*
G37*
G54D40*
X29179Y-38747D02*
X29168Y-38758D01*
X29166Y-38763D01*
X28740Y-38976D01*
X28740Y-40265D01*
X28705Y-40230D01*
X28559Y-40169D01*
X28595Y-40133D01*
X28633Y-40041D01*
X28634Y-39942D01*
X28634Y-39057D01*
X28633Y-38958D01*
X28595Y-38866D01*
X28525Y-38795D01*
X28433Y-38757D01*
X28112Y-38758D01*
X28050Y-38820D01*
X28050Y-39450D01*
X28571Y-39450D01*
X28634Y-39387D01*
X28634Y-39057D01*
X28634Y-39942D01*
X28634Y-39612D01*
X28571Y-39550D01*
X28050Y-39550D01*
X28050Y-39557D01*
X27950Y-39557D01*
X27950Y-39550D01*
X27942Y-39550D01*
X27942Y-39450D01*
X27950Y-39450D01*
X27950Y-38820D01*
X27887Y-38758D01*
X27566Y-38757D01*
X27474Y-38795D01*
X27404Y-38866D01*
X27400Y-38876D01*
X27396Y-38866D01*
X27325Y-38796D01*
X27233Y-38758D01*
X27134Y-38757D01*
X27088Y-38757D01*
X27088Y-37996D01*
X27483Y-37996D01*
X27490Y-38014D01*
X27561Y-38084D01*
X27653Y-38122D01*
X27752Y-38123D01*
X28076Y-38123D01*
X28076Y-38152D01*
X28076Y-38546D01*
X28114Y-38638D01*
X28185Y-38708D01*
X28277Y-38746D01*
X28376Y-38747D01*
X28730Y-38747D01*
X28800Y-38718D01*
X28869Y-38746D01*
X28968Y-38747D01*
X29179Y-38747D01*
G54D10*
G36*
X30014Y-29155D02*
X29986Y-29224D01*
X29986Y-29323D01*
X29986Y-29424D01*
X29854Y-29424D01*
X29856Y-29420D01*
X29856Y-29306D01*
X29793Y-29243D01*
X29459Y-29243D01*
X29459Y-29251D01*
X29359Y-29251D01*
X29359Y-29243D01*
X29224Y-29243D01*
X29203Y-29223D01*
X28889Y-29223D01*
X28889Y-29231D01*
X28789Y-29231D01*
X28789Y-29223D01*
X28781Y-29223D01*
X28781Y-29123D01*
X28789Y-29123D01*
X28789Y-29115D01*
X28889Y-29115D01*
X28889Y-29123D01*
X29004Y-29123D01*
X29024Y-29143D01*
X29359Y-29143D01*
X29359Y-29135D01*
X29459Y-29135D01*
X29459Y-29143D01*
X29793Y-29143D01*
X29851Y-29086D01*
X29910Y-29086D01*
X30014Y-29086D01*
X30014Y-29155D01*
X30014Y-29155D01*
G37*
G54D40*
X30014Y-29155D02*
X29986Y-29224D01*
X29986Y-29323D01*
X29986Y-29424D01*
X29854Y-29424D01*
X29856Y-29420D01*
X29856Y-29306D01*
X29793Y-29243D01*
X29459Y-29243D01*
X29459Y-29251D01*
X29359Y-29251D01*
X29359Y-29243D01*
X29224Y-29243D01*
X29203Y-29223D01*
X28889Y-29223D01*
X28889Y-29231D01*
X28789Y-29231D01*
X28789Y-29223D01*
X28781Y-29223D01*
X28781Y-29123D01*
X28789Y-29123D01*
X28789Y-29115D01*
X28889Y-29115D01*
X28889Y-29123D01*
X29004Y-29123D01*
X29024Y-29143D01*
X29359Y-29143D01*
X29359Y-29135D01*
X29459Y-29135D01*
X29459Y-29143D01*
X29793Y-29143D01*
X29851Y-29086D01*
X29910Y-29086D01*
X30014Y-29086D01*
X30014Y-29155D01*
G54D10*
G36*
X31804Y-29686D02*
X31670Y-29686D01*
X31608Y-29748D01*
X31607Y-29842D01*
X31607Y-29857D01*
X31592Y-29857D01*
X31080Y-29857D01*
X30988Y-29895D01*
X30918Y-29966D01*
X30880Y-30058D01*
X30879Y-30157D01*
X30879Y-30275D01*
X30880Y-30275D01*
X30879Y-30354D01*
X30879Y-30472D01*
X30880Y-30472D01*
X30879Y-30551D01*
X30879Y-30669D01*
X30880Y-30669D01*
X30879Y-30748D01*
X30879Y-30866D01*
X30880Y-30866D01*
X30879Y-30945D01*
X30879Y-31063D01*
X30880Y-31063D01*
X30879Y-31142D01*
X30879Y-31245D01*
X29242Y-31245D01*
X29127Y-31267D01*
X29030Y-31332D01*
X28961Y-31401D01*
X28961Y-31338D01*
X28938Y-31223D01*
X28873Y-31126D01*
X28873Y-31126D01*
X27032Y-29285D01*
X27032Y-28534D01*
X27090Y-28510D01*
X27210Y-28390D01*
X27275Y-28234D01*
X27275Y-28065D01*
X27210Y-27909D01*
X27091Y-27789D01*
X26935Y-27724D01*
X26796Y-27724D01*
X26796Y-27637D01*
X26796Y-27637D01*
X26773Y-27522D01*
X26708Y-27425D01*
X26708Y-27425D01*
X26394Y-27111D01*
X26396Y-27100D01*
X26396Y-25100D01*
X26354Y-24889D01*
X26235Y-24711D01*
X26056Y-24591D01*
X25846Y-24550D01*
X25553Y-24550D01*
X25343Y-24591D01*
X25164Y-24711D01*
X25045Y-24889D01*
X25003Y-25100D01*
X25045Y-25310D01*
X25164Y-25488D01*
X25336Y-25603D01*
X25310Y-25611D01*
X25142Y-25746D01*
X25039Y-25935D01*
X25033Y-25964D01*
X25082Y-26050D01*
X25650Y-26050D01*
X25650Y-26042D01*
X25750Y-26042D01*
X25750Y-26050D01*
X26317Y-26050D01*
X26366Y-25964D01*
X26360Y-25935D01*
X26257Y-25746D01*
X26089Y-25611D01*
X26063Y-25603D01*
X26235Y-25488D01*
X26354Y-25310D01*
X26396Y-25100D01*
X26396Y-27100D01*
X26354Y-26889D01*
X26235Y-26711D01*
X26063Y-26596D01*
X26089Y-26588D01*
X26257Y-26453D01*
X26360Y-26264D01*
X26366Y-26235D01*
X26317Y-26150D01*
X25750Y-26150D01*
X25750Y-26157D01*
X25650Y-26157D01*
X25650Y-26150D01*
X25082Y-26150D01*
X25033Y-26235D01*
X25039Y-26264D01*
X25142Y-26453D01*
X25310Y-26588D01*
X25336Y-26596D01*
X25164Y-26711D01*
X25045Y-26889D01*
X25003Y-27100D01*
X25045Y-27310D01*
X25164Y-27488D01*
X25330Y-27600D01*
X25164Y-27711D01*
X25045Y-27889D01*
X25003Y-28100D01*
X25045Y-28310D01*
X25164Y-28488D01*
X25330Y-28600D01*
X25164Y-28711D01*
X25045Y-28889D01*
X25003Y-29100D01*
X25045Y-29310D01*
X25164Y-29488D01*
X25256Y-29549D01*
X25217Y-29549D01*
X25125Y-29587D01*
X25055Y-29658D01*
X25017Y-29750D01*
X25016Y-29849D01*
X25016Y-30392D01*
X24994Y-30505D01*
X24994Y-31614D01*
X24994Y-32378D01*
X24976Y-32386D01*
X24905Y-32456D01*
X24867Y-32548D01*
X24867Y-32647D01*
X24867Y-33041D01*
X24879Y-33070D01*
X24867Y-33099D01*
X24867Y-33198D01*
X24867Y-33592D01*
X24905Y-33684D01*
X24975Y-33755D01*
X24994Y-33763D01*
X24994Y-34238D01*
X24990Y-34244D01*
X24968Y-34355D01*
X24773Y-34355D01*
X24688Y-34390D01*
X24688Y-24295D01*
X30862Y-24295D01*
X30458Y-24699D01*
X30458Y-27711D01*
X30290Y-27543D01*
X30193Y-27478D01*
X30078Y-27455D01*
X29408Y-27455D01*
X29501Y-27230D01*
X29501Y-26974D01*
X29501Y-24974D01*
X29404Y-24738D01*
X29223Y-24557D01*
X28986Y-24458D01*
X28730Y-24458D01*
X28494Y-24556D01*
X28313Y-24737D01*
X28214Y-24973D01*
X28214Y-25229D01*
X28312Y-25466D01*
X28493Y-25647D01*
X28729Y-25745D01*
X28985Y-25745D01*
X29222Y-25648D01*
X29403Y-25467D01*
X29501Y-25230D01*
X29501Y-24974D01*
X29501Y-26974D01*
X29404Y-26738D01*
X29223Y-26557D01*
X28986Y-26458D01*
X28730Y-26458D01*
X28494Y-26556D01*
X28313Y-26737D01*
X28214Y-26973D01*
X28214Y-27229D01*
X28241Y-27294D01*
X27661Y-27874D01*
X27596Y-27971D01*
X27574Y-28086D01*
X27574Y-28976D01*
X27596Y-29091D01*
X27661Y-29188D01*
X27820Y-29346D01*
X27820Y-29419D01*
X27832Y-29448D01*
X27820Y-29477D01*
X27820Y-29576D01*
X27820Y-29970D01*
X27858Y-30062D01*
X27928Y-30133D01*
X28020Y-30171D01*
X28119Y-30171D01*
X28473Y-30171D01*
X28543Y-30142D01*
X28612Y-30171D01*
X28711Y-30171D01*
X29065Y-30171D01*
X29157Y-30133D01*
X29228Y-30063D01*
X29244Y-30024D01*
X30118Y-30024D01*
X30118Y-30024D01*
X30232Y-30001D01*
X30232Y-30001D01*
X30330Y-29936D01*
X30348Y-29918D01*
X30521Y-29918D01*
X30613Y-29880D01*
X30684Y-29809D01*
X30722Y-29718D01*
X30722Y-29618D01*
X30722Y-29224D01*
X30684Y-29132D01*
X30637Y-29086D01*
X30660Y-29086D01*
X30896Y-29086D01*
X30988Y-29048D01*
X31059Y-28977D01*
X31097Y-28886D01*
X31097Y-28786D01*
X31097Y-28695D01*
X31276Y-28874D01*
X31276Y-28897D01*
X31277Y-28996D01*
X31315Y-29088D01*
X31385Y-29159D01*
X31477Y-29197D01*
X31591Y-29197D01*
X31653Y-29134D01*
X31653Y-29197D01*
X31687Y-29197D01*
X31646Y-29238D01*
X31608Y-29330D01*
X31607Y-29429D01*
X31608Y-29523D01*
X31670Y-29586D01*
X31804Y-29586D01*
X31804Y-29686D01*
X31804Y-29686D01*
G37*
G54D40*
X31804Y-29686D02*
X31670Y-29686D01*
X31608Y-29748D01*
X31607Y-29842D01*
X31607Y-29857D01*
X31592Y-29857D01*
X31080Y-29857D01*
X30988Y-29895D01*
X30918Y-29966D01*
X30880Y-30058D01*
X30879Y-30157D01*
X30879Y-30275D01*
X30880Y-30275D01*
X30879Y-30354D01*
X30879Y-30472D01*
X30880Y-30472D01*
X30879Y-30551D01*
X30879Y-30669D01*
X30880Y-30669D01*
X30879Y-30748D01*
X30879Y-30866D01*
X30880Y-30866D01*
X30879Y-30945D01*
X30879Y-31063D01*
X30880Y-31063D01*
X30879Y-31142D01*
X30879Y-31245D01*
X29242Y-31245D01*
X29127Y-31267D01*
X29030Y-31332D01*
X28961Y-31401D01*
X28961Y-31338D01*
X28938Y-31223D01*
X28873Y-31126D01*
X28873Y-31126D01*
X27032Y-29285D01*
X27032Y-28534D01*
X27090Y-28510D01*
X27210Y-28390D01*
X27275Y-28234D01*
X27275Y-28065D01*
X27210Y-27909D01*
X27091Y-27789D01*
X26935Y-27724D01*
X26796Y-27724D01*
X26796Y-27637D01*
X26796Y-27637D01*
X26773Y-27522D01*
X26708Y-27425D01*
X26708Y-27425D01*
X26394Y-27111D01*
X26396Y-27100D01*
X26396Y-25100D01*
X26354Y-24889D01*
X26235Y-24711D01*
X26056Y-24591D01*
X25846Y-24550D01*
X25553Y-24550D01*
X25343Y-24591D01*
X25164Y-24711D01*
X25045Y-24889D01*
X25003Y-25100D01*
X25045Y-25310D01*
X25164Y-25488D01*
X25336Y-25603D01*
X25310Y-25611D01*
X25142Y-25746D01*
X25039Y-25935D01*
X25033Y-25964D01*
X25082Y-26050D01*
X25650Y-26050D01*
X25650Y-26042D01*
X25750Y-26042D01*
X25750Y-26050D01*
X26317Y-26050D01*
X26366Y-25964D01*
X26360Y-25935D01*
X26257Y-25746D01*
X26089Y-25611D01*
X26063Y-25603D01*
X26235Y-25488D01*
X26354Y-25310D01*
X26396Y-25100D01*
X26396Y-27100D01*
X26354Y-26889D01*
X26235Y-26711D01*
X26063Y-26596D01*
X26089Y-26588D01*
X26257Y-26453D01*
X26360Y-26264D01*
X26366Y-26235D01*
X26317Y-26150D01*
X25750Y-26150D01*
X25750Y-26157D01*
X25650Y-26157D01*
X25650Y-26150D01*
X25082Y-26150D01*
X25033Y-26235D01*
X25039Y-26264D01*
X25142Y-26453D01*
X25310Y-26588D01*
X25336Y-26596D01*
X25164Y-26711D01*
X25045Y-26889D01*
X25003Y-27100D01*
X25045Y-27310D01*
X25164Y-27488D01*
X25330Y-27600D01*
X25164Y-27711D01*
X25045Y-27889D01*
X25003Y-28100D01*
X25045Y-28310D01*
X25164Y-28488D01*
X25330Y-28600D01*
X25164Y-28711D01*
X25045Y-28889D01*
X25003Y-29100D01*
X25045Y-29310D01*
X25164Y-29488D01*
X25256Y-29549D01*
X25217Y-29549D01*
X25125Y-29587D01*
X25055Y-29658D01*
X25017Y-29750D01*
X25016Y-29849D01*
X25016Y-30392D01*
X24994Y-30505D01*
X24994Y-31614D01*
X24994Y-32378D01*
X24976Y-32386D01*
X24905Y-32456D01*
X24867Y-32548D01*
X24867Y-32647D01*
X24867Y-33041D01*
X24879Y-33070D01*
X24867Y-33099D01*
X24867Y-33198D01*
X24867Y-33592D01*
X24905Y-33684D01*
X24975Y-33755D01*
X24994Y-33763D01*
X24994Y-34238D01*
X24990Y-34244D01*
X24968Y-34355D01*
X24773Y-34355D01*
X24688Y-34390D01*
X24688Y-24295D01*
X30862Y-24295D01*
X30458Y-24699D01*
X30458Y-27711D01*
X30290Y-27543D01*
X30193Y-27478D01*
X30078Y-27455D01*
X29408Y-27455D01*
X29501Y-27230D01*
X29501Y-26974D01*
X29501Y-24974D01*
X29404Y-24738D01*
X29223Y-24557D01*
X28986Y-24458D01*
X28730Y-24458D01*
X28494Y-24556D01*
X28313Y-24737D01*
X28214Y-24973D01*
X28214Y-25229D01*
X28312Y-25466D01*
X28493Y-25647D01*
X28729Y-25745D01*
X28985Y-25745D01*
X29222Y-25648D01*
X29403Y-25467D01*
X29501Y-25230D01*
X29501Y-24974D01*
X29501Y-26974D01*
X29404Y-26738D01*
X29223Y-26557D01*
X28986Y-26458D01*
X28730Y-26458D01*
X28494Y-26556D01*
X28313Y-26737D01*
X28214Y-26973D01*
X28214Y-27229D01*
X28241Y-27294D01*
X27661Y-27874D01*
X27596Y-27971D01*
X27574Y-28086D01*
X27574Y-28976D01*
X27596Y-29091D01*
X27661Y-29188D01*
X27820Y-29346D01*
X27820Y-29419D01*
X27832Y-29448D01*
X27820Y-29477D01*
X27820Y-29576D01*
X27820Y-29970D01*
X27858Y-30062D01*
X27928Y-30133D01*
X28020Y-30171D01*
X28119Y-30171D01*
X28473Y-30171D01*
X28543Y-30142D01*
X28612Y-30171D01*
X28711Y-30171D01*
X29065Y-30171D01*
X29157Y-30133D01*
X29228Y-30063D01*
X29244Y-30024D01*
X30118Y-30024D01*
X30118Y-30024D01*
X30232Y-30001D01*
X30232Y-30001D01*
X30330Y-29936D01*
X30348Y-29918D01*
X30521Y-29918D01*
X30613Y-29880D01*
X30684Y-29809D01*
X30722Y-29718D01*
X30722Y-29618D01*
X30722Y-29224D01*
X30684Y-29132D01*
X30637Y-29086D01*
X30660Y-29086D01*
X30896Y-29086D01*
X30988Y-29048D01*
X31059Y-28977D01*
X31097Y-28886D01*
X31097Y-28786D01*
X31097Y-28695D01*
X31276Y-28874D01*
X31276Y-28897D01*
X31277Y-28996D01*
X31315Y-29088D01*
X31385Y-29159D01*
X31477Y-29197D01*
X31591Y-29197D01*
X31653Y-29134D01*
X31653Y-29197D01*
X31687Y-29197D01*
X31646Y-29238D01*
X31608Y-29330D01*
X31607Y-29429D01*
X31608Y-29523D01*
X31670Y-29586D01*
X31804Y-29586D01*
X31804Y-29686D01*
G54D10*
G36*
X32625Y-35419D02*
X32599Y-35429D01*
X32511Y-35393D01*
X32412Y-35392D01*
X32116Y-35392D01*
X32114Y-35391D01*
X32022Y-35353D01*
X31923Y-35352D01*
X31569Y-35352D01*
X31566Y-35354D01*
X31566Y-35230D01*
X31502Y-35074D01*
X31382Y-34954D01*
X31226Y-34890D01*
X31057Y-34889D01*
X31048Y-34893D01*
X31048Y-34527D01*
X31025Y-34412D01*
X30960Y-34315D01*
X30960Y-34315D01*
X30947Y-34302D01*
X30450Y-33805D01*
X30450Y-32910D01*
X30450Y-32596D01*
X30384Y-32596D01*
X30115Y-32596D01*
X30050Y-32596D01*
X30050Y-32910D01*
X30112Y-32973D01*
X30147Y-32973D01*
X30246Y-32972D01*
X30250Y-32971D01*
X30253Y-32972D01*
X30352Y-32973D01*
X30387Y-32973D01*
X30450Y-32910D01*
X30450Y-33805D01*
X29950Y-33305D01*
X29950Y-32910D01*
X29950Y-32596D01*
X29615Y-32596D01*
X29553Y-32658D01*
X29552Y-32772D01*
X29590Y-32864D01*
X29661Y-32934D01*
X29753Y-32972D01*
X29852Y-32973D01*
X29887Y-32973D01*
X29950Y-32910D01*
X29950Y-33305D01*
X29897Y-33252D01*
X29799Y-33187D01*
X29685Y-33164D01*
X28882Y-33164D01*
X28882Y-32960D01*
X28980Y-32919D01*
X29100Y-32800D01*
X29165Y-32643D01*
X29165Y-32474D01*
X29100Y-32318D01*
X29040Y-32258D01*
X29040Y-32171D01*
X29091Y-32120D01*
X29127Y-32208D01*
X29247Y-32328D01*
X29403Y-32393D01*
X29552Y-32393D01*
X29553Y-32433D01*
X29615Y-32496D01*
X29950Y-32496D01*
X29950Y-32488D01*
X30050Y-32488D01*
X30050Y-32496D01*
X30115Y-32496D01*
X30384Y-32496D01*
X30450Y-32496D01*
X30450Y-32488D01*
X30550Y-32488D01*
X30550Y-32496D01*
X30557Y-32496D01*
X30557Y-32596D01*
X30550Y-32596D01*
X30550Y-32910D01*
X30612Y-32973D01*
X30647Y-32973D01*
X30746Y-32972D01*
X30838Y-32934D01*
X30909Y-32864D01*
X30947Y-32772D01*
X30947Y-32658D01*
X30884Y-32596D01*
X30947Y-32596D01*
X30947Y-32562D01*
X30988Y-32604D01*
X31080Y-32642D01*
X31273Y-32642D01*
X31336Y-32579D01*
X31336Y-32445D01*
X31436Y-32445D01*
X31436Y-32579D01*
X31498Y-32642D01*
X31607Y-32642D01*
X31607Y-32657D01*
X31608Y-32751D01*
X31670Y-32814D01*
X31804Y-32814D01*
X31804Y-32914D01*
X31670Y-32914D01*
X31608Y-32976D01*
X31607Y-33070D01*
X31608Y-33169D01*
X31646Y-33261D01*
X31716Y-33332D01*
X31808Y-33370D01*
X31825Y-33370D01*
X31887Y-33307D01*
X31887Y-33306D01*
X31913Y-33331D01*
X32005Y-33369D01*
X32008Y-33369D01*
X32009Y-33370D01*
X32025Y-33370D01*
X32025Y-33369D01*
X32104Y-33370D01*
X32210Y-33370D01*
X32120Y-33459D01*
X32055Y-33615D01*
X32055Y-33784D01*
X32119Y-33941D01*
X32239Y-34060D01*
X32395Y-34125D01*
X32564Y-34125D01*
X32591Y-34114D01*
X32625Y-34148D01*
X32625Y-35419D01*
X32625Y-35419D01*
G37*
G54D40*
X32625Y-35419D02*
X32599Y-35429D01*
X32511Y-35393D01*
X32412Y-35392D01*
X32116Y-35392D01*
X32114Y-35391D01*
X32022Y-35353D01*
X31923Y-35352D01*
X31569Y-35352D01*
X31566Y-35354D01*
X31566Y-35230D01*
X31502Y-35074D01*
X31382Y-34954D01*
X31226Y-34890D01*
X31057Y-34889D01*
X31048Y-34893D01*
X31048Y-34527D01*
X31025Y-34412D01*
X30960Y-34315D01*
X30960Y-34315D01*
X30947Y-34302D01*
X30450Y-33805D01*
X30450Y-32910D01*
X30450Y-32596D01*
X30384Y-32596D01*
X30115Y-32596D01*
X30050Y-32596D01*
X30050Y-32910D01*
X30112Y-32973D01*
X30147Y-32973D01*
X30246Y-32972D01*
X30250Y-32971D01*
X30253Y-32972D01*
X30352Y-32973D01*
X30387Y-32973D01*
X30450Y-32910D01*
X30450Y-33805D01*
X29950Y-33305D01*
X29950Y-32910D01*
X29950Y-32596D01*
X29615Y-32596D01*
X29553Y-32658D01*
X29552Y-32772D01*
X29590Y-32864D01*
X29661Y-32934D01*
X29753Y-32972D01*
X29852Y-32973D01*
X29887Y-32973D01*
X29950Y-32910D01*
X29950Y-33305D01*
X29897Y-33252D01*
X29799Y-33187D01*
X29685Y-33164D01*
X28882Y-33164D01*
X28882Y-32960D01*
X28980Y-32919D01*
X29100Y-32800D01*
X29165Y-32643D01*
X29165Y-32474D01*
X29100Y-32318D01*
X29040Y-32258D01*
X29040Y-32171D01*
X29091Y-32120D01*
X29127Y-32208D01*
X29247Y-32328D01*
X29403Y-32393D01*
X29552Y-32393D01*
X29553Y-32433D01*
X29615Y-32496D01*
X29950Y-32496D01*
X29950Y-32488D01*
X30050Y-32488D01*
X30050Y-32496D01*
X30115Y-32496D01*
X30384Y-32496D01*
X30450Y-32496D01*
X30450Y-32488D01*
X30550Y-32488D01*
X30550Y-32496D01*
X30557Y-32496D01*
X30557Y-32596D01*
X30550Y-32596D01*
X30550Y-32910D01*
X30612Y-32973D01*
X30647Y-32973D01*
X30746Y-32972D01*
X30838Y-32934D01*
X30909Y-32864D01*
X30947Y-32772D01*
X30947Y-32658D01*
X30884Y-32596D01*
X30947Y-32596D01*
X30947Y-32562D01*
X30988Y-32604D01*
X31080Y-32642D01*
X31273Y-32642D01*
X31336Y-32579D01*
X31336Y-32445D01*
X31436Y-32445D01*
X31436Y-32579D01*
X31498Y-32642D01*
X31607Y-32642D01*
X31607Y-32657D01*
X31608Y-32751D01*
X31670Y-32814D01*
X31804Y-32814D01*
X31804Y-32914D01*
X31670Y-32914D01*
X31608Y-32976D01*
X31607Y-33070D01*
X31608Y-33169D01*
X31646Y-33261D01*
X31716Y-33332D01*
X31808Y-33370D01*
X31825Y-33370D01*
X31887Y-33307D01*
X31887Y-33306D01*
X31913Y-33331D01*
X32005Y-33369D01*
X32008Y-33369D01*
X32009Y-33370D01*
X32025Y-33370D01*
X32025Y-33369D01*
X32104Y-33370D01*
X32210Y-33370D01*
X32120Y-33459D01*
X32055Y-33615D01*
X32055Y-33784D01*
X32119Y-33941D01*
X32239Y-34060D01*
X32395Y-34125D01*
X32564Y-34125D01*
X32591Y-34114D01*
X32625Y-34148D01*
X32625Y-35419D01*
G54D10*
G36*
X33372Y-38148D02*
X33314Y-38091D01*
X33222Y-38053D01*
X33123Y-38052D01*
X32769Y-38052D01*
X32699Y-38081D01*
X32630Y-38053D01*
X32531Y-38052D01*
X32177Y-38052D01*
X32085Y-38090D01*
X32015Y-38161D01*
X31977Y-38253D01*
X31976Y-38352D01*
X31976Y-38557D01*
X31666Y-38557D01*
X31574Y-38595D01*
X31504Y-38666D01*
X31466Y-38758D01*
X31465Y-38857D01*
X31465Y-38961D01*
X31154Y-38805D01*
X31154Y-37984D01*
X31154Y-37650D01*
X30839Y-37650D01*
X30777Y-37712D01*
X30776Y-37747D01*
X30777Y-37846D01*
X30815Y-37938D01*
X30885Y-38009D01*
X30977Y-38047D01*
X31091Y-38047D01*
X31154Y-37984D01*
X31154Y-38805D01*
X31003Y-38730D01*
X30961Y-38687D01*
X30869Y-38649D01*
X30843Y-38649D01*
X30708Y-38582D01*
X30314Y-38188D01*
X29921Y-38188D01*
X29527Y-38582D01*
X29503Y-38594D01*
X29522Y-38546D01*
X29523Y-38447D01*
X29523Y-38053D01*
X29500Y-37999D01*
X29507Y-37984D01*
X29651Y-37984D01*
X29807Y-37919D01*
X29927Y-37800D01*
X29991Y-37643D01*
X29992Y-37474D01*
X29957Y-37390D01*
X29963Y-37384D01*
X29996Y-37306D01*
X30356Y-37306D01*
X30356Y-37305D01*
X30471Y-37283D01*
X30471Y-37283D01*
X30568Y-37218D01*
X30776Y-37009D01*
X30776Y-37246D01*
X30799Y-37300D01*
X30777Y-37353D01*
X30776Y-37452D01*
X30777Y-37487D01*
X30839Y-37550D01*
X31154Y-37550D01*
X31154Y-37542D01*
X31254Y-37542D01*
X31254Y-37550D01*
X31261Y-37550D01*
X31261Y-37650D01*
X31254Y-37650D01*
X31254Y-37984D01*
X31316Y-38047D01*
X31430Y-38047D01*
X31500Y-38018D01*
X31569Y-38046D01*
X31668Y-38047D01*
X32022Y-38047D01*
X32114Y-38009D01*
X32116Y-38006D01*
X32197Y-38007D01*
X32511Y-38007D01*
X32600Y-37970D01*
X32688Y-38006D01*
X32787Y-38007D01*
X33101Y-38007D01*
X33162Y-37982D01*
X33261Y-38023D01*
X33372Y-38023D01*
X33372Y-38148D01*
X33372Y-38148D01*
G37*
G54D40*
X33372Y-38148D02*
X33314Y-38091D01*
X33222Y-38053D01*
X33123Y-38052D01*
X32769Y-38052D01*
X32699Y-38081D01*
X32630Y-38053D01*
X32531Y-38052D01*
X32177Y-38052D01*
X32085Y-38090D01*
X32015Y-38161D01*
X31977Y-38253D01*
X31976Y-38352D01*
X31976Y-38557D01*
X31666Y-38557D01*
X31574Y-38595D01*
X31504Y-38666D01*
X31466Y-38758D01*
X31465Y-38857D01*
X31465Y-38961D01*
X31154Y-38805D01*
X31154Y-37984D01*
X31154Y-37650D01*
X30839Y-37650D01*
X30777Y-37712D01*
X30776Y-37747D01*
X30777Y-37846D01*
X30815Y-37938D01*
X30885Y-38009D01*
X30977Y-38047D01*
X31091Y-38047D01*
X31154Y-37984D01*
X31154Y-38805D01*
X31003Y-38730D01*
X30961Y-38687D01*
X30869Y-38649D01*
X30843Y-38649D01*
X30708Y-38582D01*
X30314Y-38188D01*
X29921Y-38188D01*
X29527Y-38582D01*
X29503Y-38594D01*
X29522Y-38546D01*
X29523Y-38447D01*
X29523Y-38053D01*
X29500Y-37999D01*
X29507Y-37984D01*
X29651Y-37984D01*
X29807Y-37919D01*
X29927Y-37800D01*
X29991Y-37643D01*
X29992Y-37474D01*
X29957Y-37390D01*
X29963Y-37384D01*
X29996Y-37306D01*
X30356Y-37306D01*
X30356Y-37305D01*
X30471Y-37283D01*
X30471Y-37283D01*
X30568Y-37218D01*
X30776Y-37009D01*
X30776Y-37246D01*
X30799Y-37300D01*
X30777Y-37353D01*
X30776Y-37452D01*
X30777Y-37487D01*
X30839Y-37550D01*
X31154Y-37550D01*
X31154Y-37542D01*
X31254Y-37542D01*
X31254Y-37550D01*
X31261Y-37550D01*
X31261Y-37650D01*
X31254Y-37650D01*
X31254Y-37984D01*
X31316Y-38047D01*
X31430Y-38047D01*
X31500Y-38018D01*
X31569Y-38046D01*
X31668Y-38047D01*
X32022Y-38047D01*
X32114Y-38009D01*
X32116Y-38006D01*
X32197Y-38007D01*
X32511Y-38007D01*
X32600Y-37970D01*
X32688Y-38006D01*
X32787Y-38007D01*
X33101Y-38007D01*
X33162Y-37982D01*
X33261Y-38023D01*
X33372Y-38023D01*
X33372Y-38148D01*
G54D10*
G36*
X34167Y-30142D02*
X34146Y-30163D01*
X34108Y-30255D01*
X34108Y-30258D01*
X34108Y-30258D01*
X34108Y-30265D01*
X34107Y-30354D01*
X34107Y-30421D01*
X34061Y-30401D01*
X33892Y-30401D01*
X33735Y-30466D01*
X33616Y-30585D01*
X33551Y-30741D01*
X33551Y-30910D01*
X33615Y-31067D01*
X33735Y-31186D01*
X33891Y-31251D01*
X34060Y-31251D01*
X34069Y-31248D01*
X34069Y-31248D01*
X34104Y-31255D01*
X34107Y-31255D01*
X34107Y-31260D01*
X34108Y-31260D01*
X34107Y-31338D01*
X34107Y-31456D01*
X34108Y-31456D01*
X34107Y-31500D01*
X34021Y-31464D01*
X33852Y-31464D01*
X33696Y-31529D01*
X33576Y-31648D01*
X33512Y-31804D01*
X33511Y-31973D01*
X33576Y-32130D01*
X33695Y-32249D01*
X33852Y-32314D01*
X33937Y-32314D01*
X33971Y-32348D01*
X33971Y-32348D01*
X33985Y-32357D01*
X33974Y-32357D01*
X33974Y-32358D01*
X33895Y-32357D01*
X33777Y-32357D01*
X33777Y-32358D01*
X33698Y-32357D01*
X33600Y-32357D01*
X33580Y-32357D01*
X33491Y-32394D01*
X33403Y-32358D01*
X33400Y-32358D01*
X33400Y-32358D01*
X33398Y-32357D01*
X33398Y-32256D01*
X33417Y-32210D01*
X33417Y-32041D01*
X33352Y-31885D01*
X33233Y-31765D01*
X33077Y-31701D01*
X32907Y-31700D01*
X32751Y-31765D01*
X32632Y-31884D01*
X32567Y-32041D01*
X32567Y-32210D01*
X32628Y-32357D01*
X32596Y-32357D01*
X32596Y-32358D01*
X32517Y-32357D01*
X32399Y-32357D01*
X32399Y-32358D01*
X32320Y-32357D01*
X32202Y-32357D01*
X32202Y-32358D01*
X32123Y-32357D01*
X32025Y-32357D01*
X32005Y-32357D01*
X31913Y-32395D01*
X31892Y-32417D01*
X31892Y-32425D01*
X31891Y-32424D01*
X31891Y-32417D01*
X31888Y-32421D01*
X31887Y-32420D01*
X31829Y-32362D01*
X31828Y-32361D01*
X31853Y-32336D01*
X31891Y-32244D01*
X31891Y-32241D01*
X31891Y-32241D01*
X31891Y-32234D01*
X31892Y-32145D01*
X31892Y-32027D01*
X31891Y-32027D01*
X31892Y-31960D01*
X32052Y-31960D01*
X32208Y-31895D01*
X32328Y-31776D01*
X32393Y-31620D01*
X32393Y-31451D01*
X32343Y-31330D01*
X32396Y-31383D01*
X32552Y-31448D01*
X32721Y-31448D01*
X32878Y-31384D01*
X32997Y-31264D01*
X33062Y-31108D01*
X33062Y-30939D01*
X32998Y-30783D01*
X32878Y-30663D01*
X32722Y-30598D01*
X32553Y-30598D01*
X32397Y-30663D01*
X32336Y-30723D01*
X32047Y-30723D01*
X31932Y-30746D01*
X31892Y-30773D01*
X31892Y-30767D01*
X31892Y-30649D01*
X31891Y-30649D01*
X31892Y-30570D01*
X31892Y-30452D01*
X31891Y-30452D01*
X31892Y-30373D01*
X31892Y-30255D01*
X31891Y-30255D01*
X31892Y-30176D01*
X31892Y-30082D01*
X31913Y-30103D01*
X32005Y-30141D01*
X32008Y-30141D01*
X32009Y-30142D01*
X32025Y-30142D01*
X32025Y-30141D01*
X32104Y-30142D01*
X32222Y-30142D01*
X32222Y-30141D01*
X32301Y-30142D01*
X32419Y-30142D01*
X32419Y-30141D01*
X32498Y-30142D01*
X32616Y-30142D01*
X32616Y-30141D01*
X32695Y-30142D01*
X32813Y-30142D01*
X32813Y-30141D01*
X32892Y-30142D01*
X33010Y-30142D01*
X33010Y-30141D01*
X33088Y-30142D01*
X33206Y-30142D01*
X33206Y-30141D01*
X33285Y-30142D01*
X33403Y-30142D01*
X33403Y-30141D01*
X33482Y-30142D01*
X33600Y-30142D01*
X33600Y-30141D01*
X33679Y-30142D01*
X33797Y-30142D01*
X33797Y-30141D01*
X33876Y-30142D01*
X33994Y-30142D01*
X33994Y-30141D01*
X34073Y-30142D01*
X34107Y-30142D01*
X34107Y-30082D01*
X34108Y-30082D01*
X34107Y-30142D01*
X34167Y-30142D01*
X34167Y-30142D01*
G37*
G54D40*
X34167Y-30142D02*
X34146Y-30163D01*
X34108Y-30255D01*
X34108Y-30258D01*
X34108Y-30258D01*
X34108Y-30265D01*
X34107Y-30354D01*
X34107Y-30421D01*
X34061Y-30401D01*
X33892Y-30401D01*
X33735Y-30466D01*
X33616Y-30585D01*
X33551Y-30741D01*
X33551Y-30910D01*
X33615Y-31067D01*
X33735Y-31186D01*
X33891Y-31251D01*
X34060Y-31251D01*
X34069Y-31248D01*
X34069Y-31248D01*
X34104Y-31255D01*
X34107Y-31255D01*
X34107Y-31260D01*
X34108Y-31260D01*
X34107Y-31338D01*
X34107Y-31456D01*
X34108Y-31456D01*
X34107Y-31500D01*
X34021Y-31464D01*
X33852Y-31464D01*
X33696Y-31529D01*
X33576Y-31648D01*
X33512Y-31804D01*
X33511Y-31973D01*
X33576Y-32130D01*
X33695Y-32249D01*
X33852Y-32314D01*
X33937Y-32314D01*
X33971Y-32348D01*
X33971Y-32348D01*
X33985Y-32357D01*
X33974Y-32357D01*
X33974Y-32358D01*
X33895Y-32357D01*
X33777Y-32357D01*
X33777Y-32358D01*
X33698Y-32357D01*
X33600Y-32357D01*
X33580Y-32357D01*
X33491Y-32394D01*
X33403Y-32358D01*
X33400Y-32358D01*
X33400Y-32358D01*
X33398Y-32357D01*
X33398Y-32256D01*
X33417Y-32210D01*
X33417Y-32041D01*
X33352Y-31885D01*
X33233Y-31765D01*
X33077Y-31701D01*
X32907Y-31700D01*
X32751Y-31765D01*
X32632Y-31884D01*
X32567Y-32041D01*
X32567Y-32210D01*
X32628Y-32357D01*
X32596Y-32357D01*
X32596Y-32358D01*
X32517Y-32357D01*
X32399Y-32357D01*
X32399Y-32358D01*
X32320Y-32357D01*
X32202Y-32357D01*
X32202Y-32358D01*
X32123Y-32357D01*
X32025Y-32357D01*
X32005Y-32357D01*
X31913Y-32395D01*
X31892Y-32417D01*
X31892Y-32425D01*
X31891Y-32424D01*
X31891Y-32417D01*
X31888Y-32421D01*
X31887Y-32420D01*
X31829Y-32362D01*
X31828Y-32361D01*
X31853Y-32336D01*
X31891Y-32244D01*
X31891Y-32241D01*
X31891Y-32241D01*
X31891Y-32234D01*
X31892Y-32145D01*
X31892Y-32027D01*
X31891Y-32027D01*
X31892Y-31960D01*
X32052Y-31960D01*
X32208Y-31895D01*
X32328Y-31776D01*
X32393Y-31620D01*
X32393Y-31451D01*
X32343Y-31330D01*
X32396Y-31383D01*
X32552Y-31448D01*
X32721Y-31448D01*
X32878Y-31384D01*
X32997Y-31264D01*
X33062Y-31108D01*
X33062Y-30939D01*
X32998Y-30783D01*
X32878Y-30663D01*
X32722Y-30598D01*
X32553Y-30598D01*
X32397Y-30663D01*
X32336Y-30723D01*
X32047Y-30723D01*
X31932Y-30746D01*
X31892Y-30773D01*
X31892Y-30767D01*
X31892Y-30649D01*
X31891Y-30649D01*
X31892Y-30570D01*
X31892Y-30452D01*
X31891Y-30452D01*
X31892Y-30373D01*
X31892Y-30255D01*
X31891Y-30255D01*
X31892Y-30176D01*
X31892Y-30082D01*
X31913Y-30103D01*
X32005Y-30141D01*
X32008Y-30141D01*
X32009Y-30142D01*
X32025Y-30142D01*
X32025Y-30141D01*
X32104Y-30142D01*
X32222Y-30142D01*
X32222Y-30141D01*
X32301Y-30142D01*
X32419Y-30142D01*
X32419Y-30141D01*
X32498Y-30142D01*
X32616Y-30142D01*
X32616Y-30141D01*
X32695Y-30142D01*
X32813Y-30142D01*
X32813Y-30141D01*
X32892Y-30142D01*
X33010Y-30142D01*
X33010Y-30141D01*
X33088Y-30142D01*
X33206Y-30142D01*
X33206Y-30141D01*
X33285Y-30142D01*
X33403Y-30142D01*
X33403Y-30141D01*
X33482Y-30142D01*
X33600Y-30142D01*
X33600Y-30141D01*
X33679Y-30142D01*
X33797Y-30142D01*
X33797Y-30141D01*
X33876Y-30142D01*
X33994Y-30142D01*
X33994Y-30141D01*
X34073Y-30142D01*
X34107Y-30142D01*
X34107Y-30082D01*
X34108Y-30082D01*
X34107Y-30142D01*
X34167Y-30142D01*
G54D10*
G36*
X34395Y-39266D02*
X33934Y-39728D01*
X33934Y-39130D01*
X34004Y-39025D01*
X34004Y-39025D01*
X34029Y-38899D01*
X34029Y-38899D01*
X34029Y-37047D01*
X34029Y-36732D01*
X34029Y-36141D01*
X34004Y-36015D01*
X34004Y-36015D01*
X33933Y-35909D01*
X33591Y-35567D01*
X33484Y-35496D01*
X33359Y-35471D01*
X33282Y-35471D01*
X33282Y-34181D01*
X33319Y-34197D01*
X33433Y-34197D01*
X33496Y-34134D01*
X33496Y-33800D01*
X33488Y-33800D01*
X33488Y-33700D01*
X33496Y-33700D01*
X33496Y-33692D01*
X33596Y-33692D01*
X33596Y-33700D01*
X33603Y-33700D01*
X33603Y-33800D01*
X33596Y-33800D01*
X33596Y-34134D01*
X33658Y-34197D01*
X33772Y-34197D01*
X33864Y-34159D01*
X33934Y-34088D01*
X33972Y-33996D01*
X33973Y-33920D01*
X34058Y-33977D01*
X34173Y-34000D01*
X34173Y-34000D01*
X34395Y-34000D01*
X34395Y-39266D01*
X34395Y-39266D01*
G37*
G54D40*
X34395Y-39266D02*
X33934Y-39728D01*
X33934Y-39130D01*
X34004Y-39025D01*
X34004Y-39025D01*
X34029Y-38899D01*
X34029Y-38899D01*
X34029Y-37047D01*
X34029Y-36732D01*
X34029Y-36141D01*
X34004Y-36015D01*
X34004Y-36015D01*
X33933Y-35909D01*
X33591Y-35567D01*
X33484Y-35496D01*
X33359Y-35471D01*
X33282Y-35471D01*
X33282Y-34181D01*
X33319Y-34197D01*
X33433Y-34197D01*
X33496Y-34134D01*
X33496Y-33800D01*
X33488Y-33800D01*
X33488Y-33700D01*
X33496Y-33700D01*
X33496Y-33692D01*
X33596Y-33692D01*
X33596Y-33700D01*
X33603Y-33700D01*
X33603Y-33800D01*
X33596Y-33800D01*
X33596Y-34134D01*
X33658Y-34197D01*
X33772Y-34197D01*
X33864Y-34159D01*
X33934Y-34088D01*
X33972Y-33996D01*
X33973Y-33920D01*
X34058Y-33977D01*
X34173Y-34000D01*
X34173Y-34000D01*
X34395Y-34000D01*
X34395Y-39266D01*
G54D10*
G36*
X31446Y-39516D02*
X30781Y-40181D01*
X30765Y-40204D01*
X30742Y-40204D01*
X30586Y-40269D01*
X30466Y-40388D01*
X30401Y-40545D01*
X30401Y-40714D01*
X30466Y-40870D01*
X30585Y-40990D01*
X30658Y-41020D01*
X30658Y-41287D01*
X30658Y-41287D01*
X30588Y-41358D01*
X30550Y-41450D01*
X30549Y-41549D01*
X30549Y-42349D01*
X30587Y-42441D01*
X30616Y-42469D01*
X29583Y-42469D01*
X29611Y-42441D01*
X29649Y-42349D01*
X29650Y-42250D01*
X29650Y-41450D01*
X29612Y-41358D01*
X29577Y-41324D01*
X29577Y-41317D01*
X28889Y-40629D01*
X28889Y-40506D01*
X28825Y-40350D01*
X28790Y-40315D01*
X28790Y-39007D01*
X29310Y-38747D01*
X29322Y-38747D01*
X29414Y-38709D01*
X29442Y-38681D01*
X29557Y-38623D01*
X29941Y-38238D01*
X30294Y-38238D01*
X30679Y-38623D01*
X31446Y-39007D01*
X31446Y-39516D01*
X31446Y-39516D01*
G37*
G54D40*
X31446Y-39516D02*
X30781Y-40181D01*
X30765Y-40204D01*
X30742Y-40204D01*
X30586Y-40269D01*
X30466Y-40388D01*
X30401Y-40545D01*
X30401Y-40714D01*
X30466Y-40870D01*
X30585Y-40990D01*
X30658Y-41020D01*
X30658Y-41287D01*
X30658Y-41287D01*
X30588Y-41358D01*
X30550Y-41450D01*
X30549Y-41549D01*
X30549Y-42349D01*
X30587Y-42441D01*
X30616Y-42469D01*
X29583Y-42469D01*
X29611Y-42441D01*
X29649Y-42349D01*
X29650Y-42250D01*
X29650Y-41450D01*
X29612Y-41358D01*
X29577Y-41324D01*
X29577Y-41317D01*
X28889Y-40629D01*
X28889Y-40506D01*
X28825Y-40350D01*
X28790Y-40315D01*
X28790Y-39007D01*
X29310Y-38747D01*
X29322Y-38747D01*
X29414Y-38709D01*
X29442Y-38681D01*
X29557Y-38623D01*
X29941Y-38238D01*
X30294Y-38238D01*
X30679Y-38623D01*
X31446Y-39007D01*
X31446Y-39516D01*
G54D10*
G36*
X40818Y-45542D02*
X40431Y-45542D01*
X40431Y-44433D01*
X40390Y-44333D01*
X40313Y-44255D01*
X40212Y-44214D01*
X40162Y-44213D01*
X40042Y-44093D01*
X40064Y-44072D01*
X40079Y-44035D01*
X40079Y-43996D01*
X40079Y-43366D01*
X40064Y-43329D01*
X40038Y-43303D01*
X40038Y-36953D01*
X40038Y-31835D01*
X40038Y-26323D01*
X39996Y-26222D01*
X39961Y-26187D01*
X39961Y-25984D01*
X39961Y-25984D01*
X39961Y-25984D01*
X39958Y-25969D01*
X39946Y-25908D01*
X39946Y-25908D01*
X39922Y-25872D01*
X39922Y-25846D01*
X39922Y-25216D01*
X39907Y-25180D01*
X39879Y-25152D01*
X39842Y-25136D01*
X39803Y-25136D01*
X38386Y-25136D01*
X38349Y-25152D01*
X38321Y-25179D01*
X38306Y-25216D01*
X38306Y-25255D01*
X38306Y-25586D01*
X38049Y-25844D01*
X38006Y-25908D01*
X37991Y-25984D01*
X37991Y-25984D01*
X37991Y-26187D01*
X37956Y-26222D01*
X37914Y-26323D01*
X37914Y-26432D01*
X37956Y-26533D01*
X38033Y-26610D01*
X38134Y-26652D01*
X38243Y-26652D01*
X38344Y-26610D01*
X38421Y-26533D01*
X38463Y-26432D01*
X38463Y-26323D01*
X38421Y-26222D01*
X38386Y-26187D01*
X38386Y-26066D01*
X38487Y-25965D01*
X38916Y-25965D01*
X38916Y-26105D01*
X38821Y-26145D01*
X38744Y-26222D01*
X38702Y-26323D01*
X38702Y-26432D01*
X38743Y-26533D01*
X38820Y-26610D01*
X38921Y-26652D01*
X39030Y-26652D01*
X39131Y-26610D01*
X39208Y-26533D01*
X39250Y-26432D01*
X39250Y-26383D01*
X39254Y-26379D01*
X39254Y-26379D01*
X39254Y-26379D01*
X39279Y-26341D01*
X39297Y-26315D01*
X39297Y-26315D01*
X39312Y-26239D01*
X39312Y-25965D01*
X39465Y-25965D01*
X39566Y-26066D01*
X39566Y-26187D01*
X39531Y-26222D01*
X39489Y-26323D01*
X39489Y-26432D01*
X39531Y-26533D01*
X39608Y-26610D01*
X39708Y-26652D01*
X39818Y-26652D01*
X39918Y-26610D01*
X39996Y-26533D01*
X40037Y-26432D01*
X40038Y-26323D01*
X40038Y-31835D01*
X39996Y-31734D01*
X39919Y-31657D01*
X39818Y-31615D01*
X39709Y-31615D01*
X39608Y-31657D01*
X39534Y-31731D01*
X39292Y-31731D01*
X39292Y-30000D01*
X39292Y-29000D01*
X39292Y-28000D01*
X39262Y-27847D01*
X39175Y-27717D01*
X39046Y-27631D01*
X38893Y-27600D01*
X38630Y-27600D01*
X38448Y-27419D01*
X38384Y-27376D01*
X38309Y-27361D01*
X38309Y-27361D01*
X38075Y-27361D01*
X38070Y-27356D01*
X38034Y-27341D01*
X37994Y-27341D01*
X37754Y-27341D01*
X37754Y-25846D01*
X37754Y-25255D01*
X37754Y-25216D01*
X37739Y-25181D01*
X37712Y-25153D01*
X37676Y-25138D01*
X37025Y-25138D01*
X37000Y-25163D01*
X37000Y-25498D01*
X37729Y-25498D01*
X37754Y-25474D01*
X37754Y-25255D01*
X37754Y-25846D01*
X37754Y-25627D01*
X37729Y-25603D01*
X37000Y-25603D01*
X37000Y-25939D01*
X37025Y-25963D01*
X37676Y-25963D01*
X37712Y-25948D01*
X37739Y-25921D01*
X37754Y-25885D01*
X37754Y-25846D01*
X37754Y-27341D01*
X37600Y-27341D01*
X37564Y-27356D01*
X37536Y-27384D01*
X37521Y-27421D01*
X37521Y-27460D01*
X37521Y-27696D01*
X37536Y-27733D01*
X37564Y-27761D01*
X37600Y-27776D01*
X37640Y-27776D01*
X38034Y-27776D01*
X38070Y-27761D01*
X38075Y-27756D01*
X38227Y-27756D01*
X38269Y-27799D01*
X38237Y-27847D01*
X38207Y-28000D01*
X38237Y-28152D01*
X38324Y-28282D01*
X38453Y-28368D01*
X38606Y-28399D01*
X38893Y-28399D01*
X39046Y-28368D01*
X39175Y-28282D01*
X39262Y-28152D01*
X39292Y-28000D01*
X39292Y-29000D01*
X39262Y-28847D01*
X39175Y-28717D01*
X39046Y-28631D01*
X38893Y-28600D01*
X38606Y-28600D01*
X38453Y-28631D01*
X38324Y-28717D01*
X38309Y-28739D01*
X38075Y-28739D01*
X38070Y-28734D01*
X38034Y-28719D01*
X37994Y-28719D01*
X37600Y-28719D01*
X37564Y-28734D01*
X37536Y-28762D01*
X37521Y-28799D01*
X37521Y-28838D01*
X37521Y-29074D01*
X37536Y-29111D01*
X37564Y-29139D01*
X37600Y-29154D01*
X37640Y-29154D01*
X38034Y-29154D01*
X38070Y-29139D01*
X38075Y-29134D01*
X38234Y-29134D01*
X38237Y-29152D01*
X38324Y-29282D01*
X38453Y-29368D01*
X38606Y-29399D01*
X38893Y-29399D01*
X39046Y-29368D01*
X39175Y-29282D01*
X39262Y-29152D01*
X39292Y-29000D01*
X39292Y-30000D01*
X39262Y-29847D01*
X39175Y-29717D01*
X39046Y-29631D01*
X38893Y-29600D01*
X38606Y-29600D01*
X38453Y-29631D01*
X38324Y-29717D01*
X38237Y-29847D01*
X38207Y-30000D01*
X38230Y-30117D01*
X38075Y-30117D01*
X38070Y-30112D01*
X38034Y-30097D01*
X37994Y-30097D01*
X37600Y-30097D01*
X37564Y-30112D01*
X37536Y-30140D01*
X37521Y-30177D01*
X37521Y-30216D01*
X37521Y-30452D01*
X37536Y-30489D01*
X37564Y-30517D01*
X37600Y-30532D01*
X37640Y-30532D01*
X38034Y-30532D01*
X38070Y-30517D01*
X38075Y-30512D01*
X38435Y-30512D01*
X38435Y-30512D01*
X38435Y-30512D01*
X38510Y-30497D01*
X38574Y-30454D01*
X38630Y-30399D01*
X38893Y-30399D01*
X39046Y-30368D01*
X39175Y-30282D01*
X39262Y-30152D01*
X39292Y-30000D01*
X39292Y-31731D01*
X39282Y-31731D01*
X39282Y-31280D01*
X39282Y-30680D01*
X39267Y-30643D01*
X39239Y-30615D01*
X39202Y-30600D01*
X39163Y-30600D01*
X38297Y-30600D01*
X38260Y-30615D01*
X38232Y-30643D01*
X38217Y-30680D01*
X38217Y-30719D01*
X38217Y-31319D01*
X38232Y-31356D01*
X38260Y-31384D01*
X38297Y-31399D01*
X38336Y-31399D01*
X39202Y-31399D01*
X39239Y-31384D01*
X39267Y-31356D01*
X39282Y-31319D01*
X39282Y-31280D01*
X39282Y-31731D01*
X39115Y-31731D01*
X39115Y-31712D01*
X39100Y-31676D01*
X39072Y-31648D01*
X39036Y-31632D01*
X38996Y-31632D01*
X38642Y-31632D01*
X38606Y-31647D01*
X38578Y-31675D01*
X38563Y-31712D01*
X38563Y-31751D01*
X38563Y-32145D01*
X38578Y-32182D01*
X38606Y-32210D01*
X38642Y-32225D01*
X38681Y-32225D01*
X39035Y-32225D01*
X39072Y-32210D01*
X39100Y-32182D01*
X39115Y-32145D01*
X39115Y-32126D01*
X39619Y-32126D01*
X39708Y-32163D01*
X39818Y-32164D01*
X39918Y-32122D01*
X39996Y-32045D01*
X40037Y-31944D01*
X40038Y-31835D01*
X40038Y-36953D01*
X39996Y-36852D01*
X39919Y-36775D01*
X39818Y-36733D01*
X39709Y-36733D01*
X39704Y-36735D01*
X39704Y-36735D01*
X39685Y-36731D01*
X39685Y-36731D01*
X39292Y-36731D01*
X39292Y-35000D01*
X39292Y-34000D01*
X39292Y-33000D01*
X39262Y-32847D01*
X39175Y-32717D01*
X39046Y-32631D01*
X38893Y-32600D01*
X38630Y-32600D01*
X38521Y-32492D01*
X38521Y-32106D01*
X38521Y-31751D01*
X38521Y-31712D01*
X38506Y-31676D01*
X38479Y-31649D01*
X38443Y-31634D01*
X38323Y-31634D01*
X38299Y-31659D01*
X38299Y-31876D01*
X38497Y-31876D01*
X38521Y-31852D01*
X38521Y-31751D01*
X38521Y-32106D01*
X38521Y-32005D01*
X38497Y-31981D01*
X38299Y-31981D01*
X38299Y-32199D01*
X38323Y-32223D01*
X38443Y-32223D01*
X38479Y-32208D01*
X38506Y-32181D01*
X38521Y-32145D01*
X38521Y-32106D01*
X38521Y-32492D01*
X38468Y-32438D01*
X38404Y-32396D01*
X38328Y-32381D01*
X38328Y-32381D01*
X38194Y-32381D01*
X38194Y-32199D01*
X38194Y-31981D01*
X38194Y-31876D01*
X38194Y-31659D01*
X38170Y-31634D01*
X38051Y-31634D01*
X38015Y-31649D01*
X37987Y-31676D01*
X37973Y-31712D01*
X37973Y-31751D01*
X37973Y-31852D01*
X37997Y-31876D01*
X38194Y-31876D01*
X38194Y-31981D01*
X37997Y-31981D01*
X37973Y-32005D01*
X37973Y-32106D01*
X37973Y-32145D01*
X37987Y-32181D01*
X38015Y-32208D01*
X38051Y-32223D01*
X38170Y-32223D01*
X38194Y-32199D01*
X38194Y-32381D01*
X38075Y-32381D01*
X38070Y-32376D01*
X38034Y-32361D01*
X37994Y-32361D01*
X37735Y-32361D01*
X37735Y-31595D01*
X37735Y-31239D01*
X37735Y-31200D01*
X37720Y-31165D01*
X37693Y-31137D01*
X37657Y-31123D01*
X37538Y-31123D01*
X37513Y-31147D01*
X37513Y-31364D01*
X37711Y-31364D01*
X37735Y-31340D01*
X37735Y-31239D01*
X37735Y-31595D01*
X37735Y-31493D01*
X37711Y-31469D01*
X37513Y-31469D01*
X37513Y-31687D01*
X37538Y-31711D01*
X37657Y-31711D01*
X37693Y-31696D01*
X37720Y-31669D01*
X37735Y-31633D01*
X37735Y-31595D01*
X37735Y-32361D01*
X37600Y-32361D01*
X37564Y-32376D01*
X37536Y-32404D01*
X37521Y-32440D01*
X37521Y-32480D01*
X37521Y-32716D01*
X37536Y-32752D01*
X37564Y-32780D01*
X37600Y-32795D01*
X37640Y-32795D01*
X38034Y-32795D01*
X38070Y-32780D01*
X38075Y-32776D01*
X38246Y-32776D01*
X38269Y-32799D01*
X38237Y-32847D01*
X38207Y-33000D01*
X38237Y-33152D01*
X38324Y-33282D01*
X38453Y-33368D01*
X38606Y-33399D01*
X38893Y-33399D01*
X39046Y-33368D01*
X39175Y-33282D01*
X39262Y-33152D01*
X39292Y-33000D01*
X39292Y-34000D01*
X39262Y-33847D01*
X39175Y-33717D01*
X39046Y-33631D01*
X38893Y-33600D01*
X38606Y-33600D01*
X38453Y-33631D01*
X38324Y-33717D01*
X38296Y-33759D01*
X38075Y-33759D01*
X38070Y-33754D01*
X38034Y-33739D01*
X37994Y-33739D01*
X37600Y-33739D01*
X37564Y-33754D01*
X37536Y-33782D01*
X37521Y-33818D01*
X37521Y-33858D01*
X37521Y-34094D01*
X37536Y-34130D01*
X37564Y-34158D01*
X37600Y-34173D01*
X37640Y-34173D01*
X38034Y-34173D01*
X38070Y-34158D01*
X38075Y-34154D01*
X38238Y-34154D01*
X38324Y-34282D01*
X38453Y-34368D01*
X38606Y-34399D01*
X38893Y-34399D01*
X39046Y-34368D01*
X39175Y-34282D01*
X39262Y-34152D01*
X39292Y-34000D01*
X39292Y-35000D01*
X39262Y-34847D01*
X39175Y-34717D01*
X39046Y-34631D01*
X38893Y-34600D01*
X38606Y-34600D01*
X38453Y-34631D01*
X38324Y-34717D01*
X38237Y-34847D01*
X38207Y-35000D01*
X38234Y-35137D01*
X38075Y-35137D01*
X38070Y-35132D01*
X38034Y-35117D01*
X37994Y-35117D01*
X37600Y-35117D01*
X37564Y-35132D01*
X37536Y-35160D01*
X37521Y-35196D01*
X37521Y-35236D01*
X37521Y-35472D01*
X37536Y-35508D01*
X37564Y-35536D01*
X37600Y-35551D01*
X37640Y-35551D01*
X38034Y-35551D01*
X38070Y-35536D01*
X38075Y-35532D01*
X38415Y-35532D01*
X38415Y-35532D01*
X38415Y-35532D01*
X38490Y-35517D01*
X38555Y-35474D01*
X38630Y-35399D01*
X38893Y-35399D01*
X39046Y-35368D01*
X39175Y-35282D01*
X39262Y-35152D01*
X39292Y-35000D01*
X39292Y-36731D01*
X39282Y-36731D01*
X39282Y-36280D01*
X39282Y-35680D01*
X39267Y-35643D01*
X39239Y-35615D01*
X39202Y-35600D01*
X39163Y-35600D01*
X38297Y-35600D01*
X38260Y-35615D01*
X38232Y-35643D01*
X38217Y-35680D01*
X38217Y-35719D01*
X38217Y-36319D01*
X38232Y-36356D01*
X38260Y-36384D01*
X38297Y-36399D01*
X38336Y-36399D01*
X39202Y-36399D01*
X39239Y-36384D01*
X39267Y-36356D01*
X39282Y-36319D01*
X39282Y-36280D01*
X39282Y-36731D01*
X39154Y-36731D01*
X39154Y-36712D01*
X39139Y-36676D01*
X39111Y-36648D01*
X39075Y-36632D01*
X39036Y-36632D01*
X38682Y-36632D01*
X38645Y-36647D01*
X38617Y-36675D01*
X38602Y-36712D01*
X38602Y-36751D01*
X38602Y-37145D01*
X38617Y-37182D01*
X38645Y-37210D01*
X38681Y-37225D01*
X38721Y-37225D01*
X39075Y-37225D01*
X39111Y-37210D01*
X39139Y-37182D01*
X39154Y-37145D01*
X39154Y-37126D01*
X39516Y-37126D01*
X39531Y-37163D01*
X39608Y-37240D01*
X39708Y-37282D01*
X39818Y-37282D01*
X39918Y-37240D01*
X39996Y-37163D01*
X40037Y-37062D01*
X40038Y-36953D01*
X40038Y-43303D01*
X40036Y-43301D01*
X40000Y-43286D01*
X39960Y-43286D01*
X39292Y-43286D01*
X39292Y-40000D01*
X39292Y-39000D01*
X39292Y-38000D01*
X39262Y-37847D01*
X39175Y-37717D01*
X39046Y-37631D01*
X38893Y-37600D01*
X38630Y-37600D01*
X38560Y-37531D01*
X38560Y-37106D01*
X38560Y-36751D01*
X38560Y-36712D01*
X38546Y-36676D01*
X38518Y-36649D01*
X38482Y-36634D01*
X38363Y-36634D01*
X38339Y-36659D01*
X38339Y-36876D01*
X38536Y-36876D01*
X38560Y-36852D01*
X38560Y-36751D01*
X38560Y-37106D01*
X38560Y-37005D01*
X38536Y-36981D01*
X38339Y-36981D01*
X38339Y-37199D01*
X38363Y-37223D01*
X38482Y-37223D01*
X38518Y-37208D01*
X38546Y-37181D01*
X38560Y-37145D01*
X38560Y-37106D01*
X38560Y-37531D01*
X38488Y-37458D01*
X38424Y-37415D01*
X38348Y-37400D01*
X38348Y-37400D01*
X38234Y-37400D01*
X38234Y-37199D01*
X38234Y-36981D01*
X38234Y-36876D01*
X38234Y-36659D01*
X38210Y-36634D01*
X38090Y-36634D01*
X38054Y-36649D01*
X38027Y-36676D01*
X38012Y-36712D01*
X38012Y-36751D01*
X38012Y-36852D01*
X38036Y-36876D01*
X38234Y-36876D01*
X38234Y-36981D01*
X38036Y-36981D01*
X38012Y-37005D01*
X38012Y-37106D01*
X38012Y-37145D01*
X38027Y-37181D01*
X38054Y-37208D01*
X38090Y-37223D01*
X38210Y-37223D01*
X38234Y-37199D01*
X38234Y-37400D01*
X38075Y-37400D01*
X38070Y-37396D01*
X38034Y-37381D01*
X37994Y-37381D01*
X37600Y-37381D01*
X37564Y-37396D01*
X37536Y-37424D01*
X37521Y-37460D01*
X37521Y-37500D01*
X37521Y-37736D01*
X37536Y-37772D01*
X37564Y-37800D01*
X37600Y-37815D01*
X37640Y-37815D01*
X38034Y-37815D01*
X38070Y-37800D01*
X38075Y-37796D01*
X38266Y-37796D01*
X38269Y-37799D01*
X38237Y-37847D01*
X38207Y-38000D01*
X38237Y-38152D01*
X38324Y-38282D01*
X38453Y-38368D01*
X38606Y-38399D01*
X38893Y-38399D01*
X39046Y-38368D01*
X39175Y-38282D01*
X39262Y-38152D01*
X39292Y-38000D01*
X39292Y-39000D01*
X39262Y-38847D01*
X39175Y-38717D01*
X39046Y-38631D01*
X38893Y-38600D01*
X38606Y-38600D01*
X38453Y-38631D01*
X38324Y-38717D01*
X38283Y-38778D01*
X38075Y-38778D01*
X38070Y-38774D01*
X38034Y-38759D01*
X37994Y-38759D01*
X37600Y-38759D01*
X37564Y-38774D01*
X37536Y-38802D01*
X37521Y-38838D01*
X37521Y-38878D01*
X37521Y-39114D01*
X37536Y-39150D01*
X37564Y-39178D01*
X37600Y-39193D01*
X37640Y-39193D01*
X38034Y-39193D01*
X38070Y-39178D01*
X38075Y-39174D01*
X38251Y-39174D01*
X38324Y-39282D01*
X38453Y-39368D01*
X38606Y-39399D01*
X38893Y-39399D01*
X39046Y-39368D01*
X39175Y-39282D01*
X39262Y-39152D01*
X39292Y-39000D01*
X39292Y-40000D01*
X39262Y-39847D01*
X39175Y-39717D01*
X39046Y-39631D01*
X38893Y-39600D01*
X38606Y-39600D01*
X38453Y-39631D01*
X38324Y-39717D01*
X38237Y-39847D01*
X38207Y-40000D01*
X38237Y-40152D01*
X38240Y-40156D01*
X38075Y-40156D01*
X38070Y-40152D01*
X38034Y-40137D01*
X37994Y-40137D01*
X37600Y-40137D01*
X37564Y-40152D01*
X37536Y-40180D01*
X37521Y-40216D01*
X37521Y-40255D01*
X37521Y-40491D01*
X37536Y-40528D01*
X37564Y-40556D01*
X37600Y-40571D01*
X37640Y-40571D01*
X38034Y-40571D01*
X38070Y-40556D01*
X38075Y-40551D01*
X38395Y-40551D01*
X38395Y-40551D01*
X38395Y-40551D01*
X38471Y-40536D01*
X38535Y-40494D01*
X38630Y-40399D01*
X38893Y-40399D01*
X39046Y-40368D01*
X39175Y-40282D01*
X39262Y-40152D01*
X39292Y-40000D01*
X39292Y-43286D01*
X39282Y-43286D01*
X39282Y-41280D01*
X39282Y-40680D01*
X39267Y-40643D01*
X39239Y-40615D01*
X39202Y-40600D01*
X39163Y-40600D01*
X38297Y-40600D01*
X38260Y-40615D01*
X38232Y-40643D01*
X38217Y-40680D01*
X38217Y-40719D01*
X38217Y-41319D01*
X38232Y-41356D01*
X38260Y-41384D01*
X38297Y-41399D01*
X38336Y-41399D01*
X39202Y-41399D01*
X39239Y-41384D01*
X39267Y-41356D01*
X39282Y-41319D01*
X39282Y-41280D01*
X39282Y-43286D01*
X38543Y-43286D01*
X38507Y-43301D01*
X38479Y-43329D01*
X38464Y-43365D01*
X38464Y-43405D01*
X38464Y-43933D01*
X38442Y-43954D01*
X38400Y-44018D01*
X38385Y-44094D01*
X38385Y-44094D01*
X38385Y-44298D01*
X38350Y-44332D01*
X38308Y-44433D01*
X38308Y-44542D01*
X38350Y-44643D01*
X38427Y-44720D01*
X38527Y-44762D01*
X38636Y-44762D01*
X38737Y-44720D01*
X38815Y-44643D01*
X38856Y-44542D01*
X38856Y-44433D01*
X38815Y-44333D01*
X38780Y-44298D01*
X38780Y-44176D01*
X38841Y-44115D01*
X39074Y-44115D01*
X39074Y-44390D01*
X39074Y-44390D01*
X39089Y-44465D01*
X39095Y-44475D01*
X39095Y-44542D01*
X39137Y-44643D01*
X39214Y-44720D01*
X39315Y-44762D01*
X39424Y-44762D01*
X39525Y-44720D01*
X39602Y-44643D01*
X39644Y-44542D01*
X39644Y-44433D01*
X39602Y-44333D01*
X39525Y-44255D01*
X39469Y-44232D01*
X39469Y-44115D01*
X39504Y-44115D01*
X39883Y-44493D01*
X39883Y-44542D01*
X39924Y-44643D01*
X40001Y-44720D01*
X40102Y-44762D01*
X40211Y-44762D01*
X40312Y-44720D01*
X40389Y-44643D01*
X40431Y-44542D01*
X40431Y-44433D01*
X40431Y-45542D01*
X40157Y-45542D01*
X37911Y-45542D01*
X37911Y-43996D01*
X37911Y-43405D01*
X37911Y-43366D01*
X37896Y-43330D01*
X37869Y-43303D01*
X37833Y-43288D01*
X37408Y-43288D01*
X37408Y-31687D01*
X37408Y-31469D01*
X37408Y-31364D01*
X37408Y-31147D01*
X37384Y-31123D01*
X37281Y-31123D01*
X37281Y-30038D01*
X37281Y-29802D01*
X37279Y-29797D01*
X37279Y-29449D01*
X37279Y-29174D01*
X37265Y-29138D01*
X37237Y-29111D01*
X37202Y-29096D01*
X37163Y-29096D01*
X37062Y-29096D01*
X37037Y-29121D01*
X37037Y-29259D01*
X37255Y-29259D01*
X37279Y-29235D01*
X37279Y-29174D01*
X37279Y-29449D01*
X37279Y-29388D01*
X37255Y-29364D01*
X37037Y-29364D01*
X37037Y-29502D01*
X37062Y-29527D01*
X37163Y-29527D01*
X37202Y-29527D01*
X37237Y-29512D01*
X37265Y-29485D01*
X37279Y-29449D01*
X37279Y-29797D01*
X37266Y-29765D01*
X37238Y-29737D01*
X37202Y-29722D01*
X37162Y-29722D01*
X36933Y-29722D01*
X36933Y-29502D01*
X36933Y-29364D01*
X36925Y-29364D01*
X36925Y-29259D01*
X36933Y-29259D01*
X36933Y-29121D01*
X36908Y-29096D01*
X36807Y-29096D01*
X36769Y-29096D01*
X36733Y-29111D01*
X36711Y-29133D01*
X36711Y-29036D01*
X36696Y-29000D01*
X36669Y-28973D01*
X36633Y-28958D01*
X36595Y-28958D01*
X36493Y-28958D01*
X36469Y-28983D01*
X36469Y-29180D01*
X36477Y-29180D01*
X36477Y-29285D01*
X36469Y-29285D01*
X36469Y-29482D01*
X36493Y-29507D01*
X36595Y-29507D01*
X36633Y-29507D01*
X36669Y-29492D01*
X36696Y-29465D01*
X36697Y-29463D01*
X36706Y-29485D01*
X36733Y-29512D01*
X36769Y-29527D01*
X36807Y-29527D01*
X36908Y-29527D01*
X36933Y-29502D01*
X36933Y-29722D01*
X36768Y-29722D01*
X36732Y-29737D01*
X36704Y-29765D01*
X36697Y-29781D01*
X36694Y-29781D01*
X36670Y-29757D01*
X36634Y-29742D01*
X36594Y-29742D01*
X36200Y-29742D01*
X36164Y-29757D01*
X36147Y-29774D01*
X36100Y-29728D01*
X36023Y-29696D01*
X36060Y-29681D01*
X36137Y-29604D01*
X36179Y-29503D01*
X36179Y-29498D01*
X36200Y-29507D01*
X36239Y-29507D01*
X36340Y-29507D01*
X36364Y-29482D01*
X36364Y-29285D01*
X36364Y-29180D01*
X36364Y-28983D01*
X36340Y-28958D01*
X36239Y-28958D01*
X36200Y-28958D01*
X36165Y-28973D01*
X36137Y-29000D01*
X36123Y-29036D01*
X36123Y-29156D01*
X36147Y-29180D01*
X36364Y-29180D01*
X36364Y-29285D01*
X36147Y-29285D01*
X36138Y-29294D01*
X36138Y-29293D01*
X36094Y-29249D01*
X36094Y-28959D01*
X36157Y-28895D01*
X36164Y-28902D01*
X36200Y-28917D01*
X36239Y-28917D01*
X36633Y-28917D01*
X36670Y-28902D01*
X36698Y-28874D01*
X36713Y-28837D01*
X36713Y-28798D01*
X36713Y-28745D01*
X36732Y-28764D01*
X36768Y-28779D01*
X36808Y-28779D01*
X37202Y-28779D01*
X37238Y-28764D01*
X37266Y-28736D01*
X37281Y-28699D01*
X37281Y-28660D01*
X37281Y-28424D01*
X37279Y-28419D01*
X37279Y-28071D01*
X37279Y-27796D01*
X37265Y-27761D01*
X37237Y-27733D01*
X37202Y-27718D01*
X37163Y-27718D01*
X37062Y-27718D01*
X37037Y-27743D01*
X37037Y-27881D01*
X37255Y-27881D01*
X37279Y-27857D01*
X37279Y-27796D01*
X37279Y-28071D01*
X37279Y-28010D01*
X37255Y-27986D01*
X37037Y-27986D01*
X37037Y-28124D01*
X37062Y-28149D01*
X37163Y-28149D01*
X37202Y-28149D01*
X37237Y-28134D01*
X37265Y-28107D01*
X37279Y-28071D01*
X37279Y-28419D01*
X37266Y-28387D01*
X37238Y-28359D01*
X37202Y-28344D01*
X37162Y-28344D01*
X36933Y-28344D01*
X36933Y-28124D01*
X36933Y-27986D01*
X36925Y-27986D01*
X36925Y-27881D01*
X36933Y-27881D01*
X36933Y-27743D01*
X36908Y-27718D01*
X36807Y-27718D01*
X36769Y-27718D01*
X36733Y-27733D01*
X36711Y-27755D01*
X36711Y-27658D01*
X36696Y-27623D01*
X36669Y-27595D01*
X36633Y-27580D01*
X36595Y-27580D01*
X36493Y-27580D01*
X36469Y-27605D01*
X36469Y-27802D01*
X36477Y-27802D01*
X36477Y-27907D01*
X36469Y-27907D01*
X36469Y-28104D01*
X36493Y-28129D01*
X36595Y-28129D01*
X36633Y-28129D01*
X36669Y-28114D01*
X36696Y-28087D01*
X36697Y-28085D01*
X36706Y-28107D01*
X36733Y-28134D01*
X36769Y-28149D01*
X36807Y-28149D01*
X36908Y-28149D01*
X36933Y-28124D01*
X36933Y-28344D01*
X36768Y-28344D01*
X36732Y-28359D01*
X36704Y-28387D01*
X36697Y-28403D01*
X36694Y-28403D01*
X36670Y-28379D01*
X36634Y-28364D01*
X36594Y-28364D01*
X36364Y-28364D01*
X36364Y-28104D01*
X36364Y-27907D01*
X36364Y-27802D01*
X36364Y-27605D01*
X36340Y-27580D01*
X36239Y-27580D01*
X36200Y-27580D01*
X36165Y-27595D01*
X36137Y-27623D01*
X36123Y-27658D01*
X36123Y-27778D01*
X36147Y-27802D01*
X36364Y-27802D01*
X36364Y-27907D01*
X36147Y-27907D01*
X36123Y-27931D01*
X36123Y-28051D01*
X36137Y-28087D01*
X36165Y-28114D01*
X36200Y-28129D01*
X36239Y-28129D01*
X36340Y-28129D01*
X36364Y-28104D01*
X36364Y-28364D01*
X36200Y-28364D01*
X36164Y-28379D01*
X36136Y-28407D01*
X36121Y-28444D01*
X36121Y-28483D01*
X36121Y-28518D01*
X36115Y-28522D01*
X36096Y-28535D01*
X35839Y-28792D01*
X35807Y-28840D01*
X35795Y-28897D01*
X35795Y-29197D01*
X35750Y-29216D01*
X35673Y-29293D01*
X35631Y-29394D01*
X35631Y-29503D01*
X35672Y-29603D01*
X35749Y-29681D01*
X35826Y-29712D01*
X35789Y-29728D01*
X35712Y-29805D01*
X35670Y-29905D01*
X35670Y-30014D01*
X35712Y-30115D01*
X35789Y-30192D01*
X35890Y-30234D01*
X35999Y-30234D01*
X36100Y-30193D01*
X36121Y-30172D01*
X36121Y-30215D01*
X36136Y-30252D01*
X36164Y-30280D01*
X36200Y-30295D01*
X36239Y-30295D01*
X36633Y-30295D01*
X36670Y-30280D01*
X36698Y-30252D01*
X36713Y-30215D01*
X36713Y-30176D01*
X36713Y-30123D01*
X36732Y-30142D01*
X36768Y-30157D01*
X36808Y-30157D01*
X37202Y-30157D01*
X37238Y-30142D01*
X37266Y-30114D01*
X37281Y-30077D01*
X37281Y-30038D01*
X37281Y-31123D01*
X37279Y-31123D01*
X37279Y-30827D01*
X37279Y-30552D01*
X37265Y-30516D01*
X37237Y-30489D01*
X37202Y-30474D01*
X37163Y-30474D01*
X37062Y-30474D01*
X37037Y-30499D01*
X37037Y-30637D01*
X37255Y-30637D01*
X37279Y-30613D01*
X37279Y-30552D01*
X37279Y-30827D01*
X37279Y-30766D01*
X37255Y-30742D01*
X37037Y-30742D01*
X37037Y-30880D01*
X37062Y-30905D01*
X37163Y-30905D01*
X37202Y-30905D01*
X37237Y-30890D01*
X37265Y-30862D01*
X37279Y-30827D01*
X37279Y-31123D01*
X37265Y-31123D01*
X37229Y-31137D01*
X37201Y-31165D01*
X37187Y-31200D01*
X37187Y-31239D01*
X37187Y-31340D01*
X37211Y-31364D01*
X37408Y-31364D01*
X37408Y-31469D01*
X37211Y-31469D01*
X37187Y-31493D01*
X37187Y-31595D01*
X37187Y-31633D01*
X37201Y-31669D01*
X37229Y-31696D01*
X37265Y-31711D01*
X37384Y-31711D01*
X37408Y-31687D01*
X37408Y-43288D01*
X37279Y-43288D01*
X37279Y-40866D01*
X37279Y-40592D01*
X37265Y-40556D01*
X37237Y-40528D01*
X37202Y-40514D01*
X37163Y-40514D01*
X37062Y-40514D01*
X37037Y-40538D01*
X37037Y-40676D01*
X37255Y-40676D01*
X37279Y-40652D01*
X37279Y-40592D01*
X37279Y-40866D01*
X37279Y-40806D01*
X37255Y-40781D01*
X37037Y-40781D01*
X37037Y-40920D01*
X37062Y-40944D01*
X37163Y-40944D01*
X37202Y-40944D01*
X37237Y-40929D01*
X37265Y-40902D01*
X37279Y-40866D01*
X37279Y-43288D01*
X37182Y-43288D01*
X37158Y-43312D01*
X37158Y-43648D01*
X37887Y-43648D01*
X37911Y-43624D01*
X37911Y-43405D01*
X37911Y-43996D01*
X37911Y-43777D01*
X37887Y-43753D01*
X37158Y-43753D01*
X37158Y-44088D01*
X37182Y-44113D01*
X37833Y-44113D01*
X37869Y-44098D01*
X37896Y-44070D01*
X37911Y-44035D01*
X37911Y-43996D01*
X37911Y-45542D01*
X37053Y-45542D01*
X37053Y-44088D01*
X37053Y-43753D01*
X37053Y-43648D01*
X37053Y-43312D01*
X37029Y-43288D01*
X36933Y-43288D01*
X36933Y-40920D01*
X36933Y-40781D01*
X36925Y-40781D01*
X36925Y-40676D01*
X36933Y-40676D01*
X36933Y-40538D01*
X36908Y-40514D01*
X36807Y-40514D01*
X36769Y-40514D01*
X36733Y-40528D01*
X36711Y-40550D01*
X36711Y-40454D01*
X36696Y-40418D01*
X36669Y-40390D01*
X36633Y-40376D01*
X36595Y-40376D01*
X36493Y-40376D01*
X36469Y-40400D01*
X36469Y-40597D01*
X36477Y-40597D01*
X36477Y-40702D01*
X36469Y-40702D01*
X36469Y-40900D01*
X36493Y-40924D01*
X36595Y-40924D01*
X36633Y-40924D01*
X36669Y-40909D01*
X36696Y-40882D01*
X36697Y-40881D01*
X36706Y-40902D01*
X36733Y-40929D01*
X36769Y-40944D01*
X36807Y-40944D01*
X36908Y-40944D01*
X36933Y-40920D01*
X36933Y-43288D01*
X36378Y-43288D01*
X36342Y-43303D01*
X36315Y-43330D01*
X36300Y-43366D01*
X36300Y-43405D01*
X36300Y-43624D01*
X36324Y-43648D01*
X37053Y-43648D01*
X37053Y-43753D01*
X36324Y-43753D01*
X36300Y-43777D01*
X36300Y-43996D01*
X36300Y-44035D01*
X36315Y-44070D01*
X36342Y-44098D01*
X36378Y-44113D01*
X37029Y-44113D01*
X37053Y-44088D01*
X37053Y-45542D01*
X35847Y-45542D01*
X35847Y-42719D01*
X35847Y-42325D01*
X35832Y-42288D01*
X35804Y-42260D01*
X35767Y-42245D01*
X35728Y-42245D01*
X35608Y-42245D01*
X35608Y-41319D01*
X35608Y-40963D01*
X35608Y-40925D01*
X35593Y-40889D01*
X35565Y-40862D01*
X35530Y-40847D01*
X35410Y-40847D01*
X35386Y-40871D01*
X35386Y-41089D01*
X35583Y-41089D01*
X35608Y-41065D01*
X35608Y-40963D01*
X35608Y-41319D01*
X35608Y-41218D01*
X35583Y-41194D01*
X35386Y-41194D01*
X35386Y-41201D01*
X35281Y-41201D01*
X35281Y-41194D01*
X35281Y-41089D01*
X35281Y-40871D01*
X35257Y-40847D01*
X35137Y-40847D01*
X35101Y-40862D01*
X35074Y-40889D01*
X35059Y-40925D01*
X35059Y-40963D01*
X35059Y-41065D01*
X35083Y-41089D01*
X35281Y-41089D01*
X35281Y-41194D01*
X35083Y-41194D01*
X35059Y-41218D01*
X35059Y-41319D01*
X35059Y-41358D01*
X35074Y-41393D01*
X35101Y-41421D01*
X35103Y-41421D01*
X35081Y-41430D01*
X35054Y-41457D01*
X35039Y-41493D01*
X35039Y-41532D01*
X35039Y-41633D01*
X35063Y-41657D01*
X35202Y-41657D01*
X35202Y-41649D01*
X35281Y-41649D01*
X35307Y-41649D01*
X35307Y-41657D01*
X35445Y-41657D01*
X35470Y-41633D01*
X35470Y-41532D01*
X35470Y-41493D01*
X35455Y-41457D01*
X35433Y-41435D01*
X35530Y-41435D01*
X35565Y-41421D01*
X35593Y-41393D01*
X35608Y-41358D01*
X35608Y-41319D01*
X35608Y-42245D01*
X35492Y-42245D01*
X35470Y-42254D01*
X35470Y-41887D01*
X35470Y-41786D01*
X35445Y-41762D01*
X35307Y-41762D01*
X35307Y-41979D01*
X35331Y-42004D01*
X35392Y-42004D01*
X35427Y-41989D01*
X35455Y-41962D01*
X35470Y-41926D01*
X35470Y-41887D01*
X35470Y-42254D01*
X35455Y-42260D01*
X35427Y-42288D01*
X35412Y-42325D01*
X35412Y-42364D01*
X35412Y-42758D01*
X35427Y-42795D01*
X35432Y-42799D01*
X35432Y-43007D01*
X35402Y-42987D01*
X35281Y-42963D01*
X35250Y-42957D01*
X35202Y-42966D01*
X35202Y-41979D01*
X35202Y-41762D01*
X35063Y-41762D01*
X35039Y-41786D01*
X35039Y-41887D01*
X35039Y-41926D01*
X35054Y-41962D01*
X35081Y-41989D01*
X35117Y-42004D01*
X35178Y-42004D01*
X35202Y-41979D01*
X35202Y-42966D01*
X35097Y-42987D01*
X34967Y-43074D01*
X34881Y-43203D01*
X34850Y-43356D01*
X34850Y-43643D01*
X34881Y-43796D01*
X34967Y-43925D01*
X35097Y-44012D01*
X35250Y-44042D01*
X35402Y-44012D01*
X35532Y-43925D01*
X35618Y-43796D01*
X35649Y-43643D01*
X35649Y-43380D01*
X35769Y-43259D01*
X35812Y-43195D01*
X35812Y-43195D01*
X35827Y-43120D01*
X35827Y-42799D01*
X35831Y-42795D01*
X35847Y-42758D01*
X35847Y-42719D01*
X35847Y-45542D01*
X34649Y-45542D01*
X34649Y-43643D01*
X34649Y-43356D01*
X34618Y-43203D01*
X34532Y-43074D01*
X34449Y-43019D01*
X34449Y-42799D01*
X34454Y-42795D01*
X34469Y-42758D01*
X34469Y-42719D01*
X34469Y-42325D01*
X34454Y-42288D01*
X34426Y-42260D01*
X34389Y-42245D01*
X34350Y-42245D01*
X34230Y-42245D01*
X34230Y-41319D01*
X34230Y-40963D01*
X34230Y-40925D01*
X34215Y-40889D01*
X34187Y-40862D01*
X34152Y-40847D01*
X34032Y-40847D01*
X34008Y-40871D01*
X34008Y-41089D01*
X34205Y-41089D01*
X34230Y-41065D01*
X34230Y-40963D01*
X34230Y-41319D01*
X34230Y-41218D01*
X34205Y-41194D01*
X34008Y-41194D01*
X34008Y-41201D01*
X33903Y-41201D01*
X33903Y-41194D01*
X33903Y-41089D01*
X33903Y-40871D01*
X33879Y-40847D01*
X33759Y-40847D01*
X33723Y-40862D01*
X33696Y-40889D01*
X33681Y-40925D01*
X33681Y-40963D01*
X33681Y-41065D01*
X33706Y-41089D01*
X33903Y-41089D01*
X33903Y-41194D01*
X33706Y-41194D01*
X33681Y-41218D01*
X33681Y-41319D01*
X33681Y-41358D01*
X33696Y-41393D01*
X33723Y-41421D01*
X33725Y-41421D01*
X33703Y-41430D01*
X33676Y-41457D01*
X33661Y-41493D01*
X33661Y-41532D01*
X33661Y-41633D01*
X33686Y-41657D01*
X33824Y-41657D01*
X33824Y-41649D01*
X33903Y-41649D01*
X33929Y-41649D01*
X33929Y-41657D01*
X34067Y-41657D01*
X34092Y-41633D01*
X34092Y-41532D01*
X34092Y-41493D01*
X34077Y-41457D01*
X34055Y-41435D01*
X34152Y-41435D01*
X34187Y-41421D01*
X34215Y-41393D01*
X34230Y-41358D01*
X34230Y-41319D01*
X34230Y-42245D01*
X34114Y-42245D01*
X34092Y-42254D01*
X34092Y-41887D01*
X34092Y-41786D01*
X34067Y-41762D01*
X33929Y-41762D01*
X33929Y-41979D01*
X33953Y-42004D01*
X34014Y-42004D01*
X34049Y-41989D01*
X34077Y-41962D01*
X34092Y-41926D01*
X34092Y-41887D01*
X34092Y-42254D01*
X34077Y-42260D01*
X34049Y-42288D01*
X34034Y-42325D01*
X34034Y-42364D01*
X34034Y-42758D01*
X34049Y-42795D01*
X34054Y-42799D01*
X34054Y-43016D01*
X33967Y-43074D01*
X33903Y-43170D01*
X33881Y-43203D01*
X33850Y-43356D01*
X33850Y-43643D01*
X33881Y-43796D01*
X33967Y-43925D01*
X34097Y-44012D01*
X34250Y-44042D01*
X34402Y-44012D01*
X34532Y-43925D01*
X34618Y-43796D01*
X34649Y-43643D01*
X34649Y-45542D01*
X33824Y-45542D01*
X33824Y-41979D01*
X33824Y-41762D01*
X33686Y-41762D01*
X33661Y-41786D01*
X33661Y-41887D01*
X33661Y-41926D01*
X33676Y-41962D01*
X33703Y-41989D01*
X33739Y-42004D01*
X33800Y-42004D01*
X33824Y-41979D01*
X33824Y-45542D01*
X33649Y-45542D01*
X33649Y-43643D01*
X33649Y-43356D01*
X33618Y-43203D01*
X33532Y-43074D01*
X33402Y-42987D01*
X33250Y-42957D01*
X33097Y-42987D01*
X33071Y-43004D01*
X33071Y-42799D01*
X33076Y-42795D01*
X33091Y-42758D01*
X33091Y-42719D01*
X33091Y-42325D01*
X33076Y-42288D01*
X33048Y-42260D01*
X33011Y-42245D01*
X32972Y-42245D01*
X32852Y-42245D01*
X32852Y-41319D01*
X32852Y-40963D01*
X32852Y-40925D01*
X32837Y-40889D01*
X32810Y-40862D01*
X32774Y-40847D01*
X32654Y-40847D01*
X32630Y-40871D01*
X32630Y-41089D01*
X32827Y-41089D01*
X32852Y-41065D01*
X32852Y-40963D01*
X32852Y-41319D01*
X32852Y-41218D01*
X32827Y-41194D01*
X32630Y-41194D01*
X32630Y-41201D01*
X32525Y-41201D01*
X32525Y-41194D01*
X32525Y-41089D01*
X32525Y-40871D01*
X32501Y-40847D01*
X32381Y-40847D01*
X32346Y-40862D01*
X32318Y-40889D01*
X32303Y-40925D01*
X32303Y-40963D01*
X32303Y-41065D01*
X32328Y-41089D01*
X32525Y-41089D01*
X32525Y-41194D01*
X32328Y-41194D01*
X32303Y-41218D01*
X32303Y-41319D01*
X32303Y-41358D01*
X32318Y-41393D01*
X32346Y-41421D01*
X32347Y-41421D01*
X32326Y-41430D01*
X32298Y-41457D01*
X32283Y-41493D01*
X32283Y-41532D01*
X32283Y-41633D01*
X32308Y-41657D01*
X32446Y-41657D01*
X32446Y-41649D01*
X32525Y-41649D01*
X32551Y-41649D01*
X32551Y-41657D01*
X32689Y-41657D01*
X32714Y-41633D01*
X32714Y-41532D01*
X32714Y-41493D01*
X32699Y-41457D01*
X32677Y-41435D01*
X32774Y-41435D01*
X32810Y-41421D01*
X32837Y-41393D01*
X32852Y-41358D01*
X32852Y-41319D01*
X32852Y-42245D01*
X32736Y-42245D01*
X32714Y-42254D01*
X32714Y-41887D01*
X32714Y-41786D01*
X32689Y-41762D01*
X32551Y-41762D01*
X32551Y-41979D01*
X32575Y-42004D01*
X32636Y-42004D01*
X32672Y-41989D01*
X32699Y-41962D01*
X32714Y-41926D01*
X32714Y-41887D01*
X32714Y-42254D01*
X32699Y-42260D01*
X32671Y-42288D01*
X32656Y-42325D01*
X32656Y-42364D01*
X32656Y-42758D01*
X32671Y-42795D01*
X32676Y-42799D01*
X32676Y-43124D01*
X32676Y-43124D01*
X32691Y-43199D01*
X32734Y-43263D01*
X32850Y-43380D01*
X32850Y-43643D01*
X32881Y-43796D01*
X32967Y-43925D01*
X33097Y-44012D01*
X33250Y-44042D01*
X33402Y-44012D01*
X33532Y-43925D01*
X33618Y-43796D01*
X33649Y-43643D01*
X33649Y-45542D01*
X32649Y-45542D01*
X32649Y-43913D01*
X32649Y-43047D01*
X32634Y-43010D01*
X32606Y-42982D01*
X32569Y-42967D01*
X32530Y-42967D01*
X32525Y-42967D01*
X32446Y-42967D01*
X32446Y-41979D01*
X32446Y-41762D01*
X32308Y-41762D01*
X32283Y-41786D01*
X32283Y-41887D01*
X32283Y-41926D01*
X32298Y-41962D01*
X32326Y-41989D01*
X32361Y-42004D01*
X32422Y-42004D01*
X32446Y-41979D01*
X32446Y-42967D01*
X31930Y-42967D01*
X31893Y-42982D01*
X31865Y-43010D01*
X31850Y-43047D01*
X31850Y-43086D01*
X31850Y-43952D01*
X31865Y-43989D01*
X31893Y-44017D01*
X31930Y-44032D01*
X31969Y-44032D01*
X32569Y-44032D01*
X32606Y-44017D01*
X32634Y-43989D01*
X32649Y-43952D01*
X32649Y-43913D01*
X32649Y-45542D01*
X31770Y-45542D01*
X31770Y-44827D01*
X31728Y-44726D01*
X31693Y-44691D01*
X31693Y-44488D01*
X31693Y-44488D01*
X31693Y-44488D01*
X31690Y-44473D01*
X31678Y-44412D01*
X31678Y-44412D01*
X31635Y-44348D01*
X31635Y-44348D01*
X31490Y-44203D01*
X31490Y-43665D01*
X31475Y-43628D01*
X31447Y-43600D01*
X31411Y-43585D01*
X31371Y-43585D01*
X29954Y-43585D01*
X29918Y-43600D01*
X29890Y-43628D01*
X29875Y-43665D01*
X29875Y-43704D01*
X29875Y-44254D01*
X29781Y-44348D01*
X29738Y-44412D01*
X29723Y-44488D01*
X29723Y-44488D01*
X29723Y-44691D01*
X29688Y-44726D01*
X29647Y-44827D01*
X29647Y-44936D01*
X29688Y-45037D01*
X29765Y-45114D01*
X29866Y-45156D01*
X29975Y-45156D01*
X30076Y-45114D01*
X30153Y-45037D01*
X30195Y-44936D01*
X30195Y-44827D01*
X30153Y-44726D01*
X30118Y-44691D01*
X30118Y-44570D01*
X30274Y-44414D01*
X30485Y-44414D01*
X30485Y-44717D01*
X30476Y-44726D01*
X30434Y-44827D01*
X30434Y-44936D01*
X30476Y-45037D01*
X30553Y-45114D01*
X30653Y-45156D01*
X30762Y-45156D01*
X30863Y-45114D01*
X30940Y-45037D01*
X30982Y-44936D01*
X30982Y-44827D01*
X30941Y-44726D01*
X30880Y-44666D01*
X30880Y-44414D01*
X31142Y-44414D01*
X31298Y-44570D01*
X31298Y-44691D01*
X31263Y-44726D01*
X31221Y-44827D01*
X31221Y-44936D01*
X31263Y-45037D01*
X31340Y-45114D01*
X31441Y-45156D01*
X31550Y-45156D01*
X31651Y-45114D01*
X31728Y-45037D01*
X31770Y-44936D01*
X31770Y-44827D01*
X31770Y-45542D01*
X29322Y-45542D01*
X29322Y-44295D01*
X29322Y-43704D01*
X29322Y-43665D01*
X29307Y-43629D01*
X29280Y-43602D01*
X29244Y-43587D01*
X28593Y-43587D01*
X28569Y-43612D01*
X28569Y-43947D01*
X29298Y-43947D01*
X29322Y-43923D01*
X29322Y-43704D01*
X29322Y-44295D01*
X29322Y-44076D01*
X29298Y-44052D01*
X28569Y-44052D01*
X28569Y-44387D01*
X28593Y-44412D01*
X29244Y-44412D01*
X29280Y-44397D01*
X29307Y-44370D01*
X29322Y-44334D01*
X29322Y-44295D01*
X29322Y-45542D01*
X28464Y-45542D01*
X28464Y-44387D01*
X28464Y-44052D01*
X28464Y-43947D01*
X28464Y-43612D01*
X28440Y-43587D01*
X27789Y-43587D01*
X27753Y-43602D01*
X27726Y-43629D01*
X27711Y-43665D01*
X27711Y-43704D01*
X27711Y-43923D01*
X27735Y-43947D01*
X28464Y-43947D01*
X28464Y-44052D01*
X27735Y-44052D01*
X27711Y-44076D01*
X27711Y-44295D01*
X27711Y-44334D01*
X27726Y-44370D01*
X27753Y-44397D01*
X27789Y-44412D01*
X28440Y-44412D01*
X28464Y-44387D01*
X28464Y-45542D01*
X27573Y-45542D01*
X27573Y-43628D01*
X27573Y-43371D01*
X27525Y-43255D01*
X27399Y-43111D01*
X27228Y-43026D01*
X27152Y-43036D01*
X27152Y-43447D01*
X27563Y-43447D01*
X27573Y-43371D01*
X27573Y-43628D01*
X27563Y-43552D01*
X27152Y-43552D01*
X27152Y-43963D01*
X27228Y-43973D01*
X27399Y-43888D01*
X27525Y-43744D01*
X27573Y-43628D01*
X27573Y-45542D01*
X27047Y-45542D01*
X27047Y-43963D01*
X27047Y-43552D01*
X27047Y-43447D01*
X27047Y-43036D01*
X26971Y-43026D01*
X26800Y-43111D01*
X26674Y-43255D01*
X26626Y-43371D01*
X26636Y-43447D01*
X27047Y-43447D01*
X27047Y-43552D01*
X26636Y-43552D01*
X26626Y-43628D01*
X26674Y-43744D01*
X26800Y-43888D01*
X26971Y-43973D01*
X27047Y-43963D01*
X27047Y-45542D01*
X24536Y-45542D01*
X24536Y-43251D01*
X24823Y-42963D01*
X25922Y-42963D01*
X25922Y-43007D01*
X25686Y-43007D01*
X25650Y-43022D01*
X25622Y-43050D01*
X25607Y-43086D01*
X25607Y-43126D01*
X25607Y-43913D01*
X25622Y-43949D01*
X25650Y-43977D01*
X25686Y-43992D01*
X25726Y-43992D01*
X26513Y-43992D01*
X26549Y-43977D01*
X26577Y-43949D01*
X26592Y-43913D01*
X26592Y-43873D01*
X26592Y-43086D01*
X26577Y-43050D01*
X26549Y-43022D01*
X26513Y-43007D01*
X26473Y-43007D01*
X26277Y-43007D01*
X26277Y-42963D01*
X31516Y-42963D01*
X31939Y-42540D01*
X31939Y-40965D01*
X32697Y-40207D01*
X33878Y-40207D01*
X34695Y-39390D01*
X34695Y-33850D01*
X34772Y-33850D01*
X34772Y-39741D01*
X33993Y-40520D01*
X33385Y-40520D01*
X33328Y-40531D01*
X33280Y-40563D01*
X33064Y-40779D01*
X33032Y-40828D01*
X33028Y-40845D01*
X32973Y-40845D01*
X32936Y-40860D01*
X32908Y-40888D01*
X32893Y-40924D01*
X32893Y-40964D01*
X32893Y-41358D01*
X32908Y-41394D01*
X32936Y-41422D01*
X32973Y-41437D01*
X33012Y-41437D01*
X33065Y-41437D01*
X33046Y-41456D01*
X33031Y-41493D01*
X33031Y-41532D01*
X33031Y-41926D01*
X33046Y-41963D01*
X33074Y-41991D01*
X33111Y-42006D01*
X33150Y-42006D01*
X33386Y-42006D01*
X33423Y-41991D01*
X33451Y-41963D01*
X33466Y-41926D01*
X33466Y-41887D01*
X33466Y-41493D01*
X33451Y-41456D01*
X33423Y-41428D01*
X33407Y-41422D01*
X33407Y-41418D01*
X33431Y-41395D01*
X33446Y-41358D01*
X33446Y-41319D01*
X33446Y-40925D01*
X33431Y-40888D01*
X33404Y-40861D01*
X33447Y-40818D01*
X34055Y-40818D01*
X34055Y-40818D01*
X34112Y-40807D01*
X34160Y-40774D01*
X34398Y-40536D01*
X34398Y-40845D01*
X34351Y-40845D01*
X34314Y-40860D01*
X34286Y-40888D01*
X34271Y-40924D01*
X34271Y-40964D01*
X34271Y-41358D01*
X34286Y-41394D01*
X34314Y-41422D01*
X34351Y-41437D01*
X34390Y-41437D01*
X34443Y-41437D01*
X34424Y-41456D01*
X34409Y-41493D01*
X34409Y-41532D01*
X34409Y-41926D01*
X34424Y-41963D01*
X34452Y-41991D01*
X34489Y-42006D01*
X34528Y-42006D01*
X34764Y-42006D01*
X34801Y-41991D01*
X34829Y-41963D01*
X34844Y-41926D01*
X34844Y-41887D01*
X34844Y-41493D01*
X34829Y-41456D01*
X34801Y-41428D01*
X34785Y-41422D01*
X34785Y-41418D01*
X34809Y-41395D01*
X34824Y-41358D01*
X34824Y-41319D01*
X34824Y-40925D01*
X34809Y-40888D01*
X34781Y-40860D01*
X34744Y-40845D01*
X34705Y-40845D01*
X34697Y-40845D01*
X34697Y-40513D01*
X35157Y-40053D01*
X35776Y-40672D01*
X35776Y-40845D01*
X35729Y-40845D01*
X35692Y-40860D01*
X35664Y-40888D01*
X35649Y-40924D01*
X35649Y-40964D01*
X35649Y-41358D01*
X35664Y-41394D01*
X35692Y-41422D01*
X35729Y-41437D01*
X35768Y-41437D01*
X35821Y-41437D01*
X35802Y-41456D01*
X35787Y-41493D01*
X35787Y-41532D01*
X35787Y-41926D01*
X35802Y-41963D01*
X35830Y-41991D01*
X35867Y-42006D01*
X35906Y-42006D01*
X36142Y-42006D01*
X36179Y-41991D01*
X36206Y-41963D01*
X36222Y-41926D01*
X36222Y-41887D01*
X36222Y-41493D01*
X36207Y-41456D01*
X36179Y-41428D01*
X36163Y-41422D01*
X36163Y-41418D01*
X36186Y-41395D01*
X36202Y-41358D01*
X36202Y-41319D01*
X36202Y-40925D01*
X36201Y-40924D01*
X36239Y-40924D01*
X36340Y-40924D01*
X36364Y-40900D01*
X36364Y-40702D01*
X36364Y-40597D01*
X36364Y-40400D01*
X36340Y-40376D01*
X36239Y-40376D01*
X36200Y-40376D01*
X36165Y-40390D01*
X36137Y-40418D01*
X36123Y-40454D01*
X36123Y-40573D01*
X36147Y-40597D01*
X36364Y-40597D01*
X36364Y-40702D01*
X36147Y-40702D01*
X36123Y-40727D01*
X36123Y-40845D01*
X36122Y-40845D01*
X36083Y-40845D01*
X36075Y-40845D01*
X36075Y-40610D01*
X36075Y-40610D01*
X36063Y-40553D01*
X36044Y-40524D01*
X36031Y-40505D01*
X36031Y-40505D01*
X35385Y-39859D01*
X35385Y-39730D01*
X35818Y-40163D01*
X35818Y-40163D01*
X35867Y-40196D01*
X35924Y-40207D01*
X36121Y-40207D01*
X36121Y-40254D01*
X36136Y-40291D01*
X36164Y-40319D01*
X36200Y-40334D01*
X36239Y-40334D01*
X36633Y-40334D01*
X36670Y-40319D01*
X36698Y-40291D01*
X36713Y-40255D01*
X36713Y-40215D01*
X36713Y-40162D01*
X36732Y-40181D01*
X36768Y-40196D01*
X36808Y-40196D01*
X37202Y-40196D01*
X37238Y-40181D01*
X37266Y-40153D01*
X37281Y-40117D01*
X37281Y-40077D01*
X37281Y-39841D01*
X37279Y-39836D01*
X37279Y-39488D01*
X37279Y-39214D01*
X37265Y-39178D01*
X37237Y-39150D01*
X37202Y-39136D01*
X37163Y-39136D01*
X37062Y-39136D01*
X37037Y-39160D01*
X37037Y-39299D01*
X37255Y-39299D01*
X37279Y-39274D01*
X37279Y-39214D01*
X37279Y-39488D01*
X37279Y-39428D01*
X37255Y-39403D01*
X37037Y-39403D01*
X37037Y-39542D01*
X37062Y-39566D01*
X37163Y-39566D01*
X37202Y-39566D01*
X37237Y-39551D01*
X37265Y-39524D01*
X37279Y-39488D01*
X37279Y-39836D01*
X37266Y-39805D01*
X37238Y-39777D01*
X37202Y-39762D01*
X37162Y-39762D01*
X36933Y-39762D01*
X36933Y-39542D01*
X36933Y-39403D01*
X36925Y-39403D01*
X36925Y-39299D01*
X36933Y-39299D01*
X36933Y-39160D01*
X36908Y-39136D01*
X36807Y-39136D01*
X36769Y-39136D01*
X36733Y-39150D01*
X36711Y-39172D01*
X36711Y-39076D01*
X36696Y-39040D01*
X36669Y-39012D01*
X36633Y-38998D01*
X36595Y-38998D01*
X36493Y-38998D01*
X36469Y-39022D01*
X36469Y-39220D01*
X36477Y-39220D01*
X36477Y-39324D01*
X36469Y-39324D01*
X36469Y-39522D01*
X36493Y-39546D01*
X36595Y-39546D01*
X36633Y-39546D01*
X36669Y-39531D01*
X36696Y-39504D01*
X36697Y-39503D01*
X36706Y-39524D01*
X36733Y-39551D01*
X36769Y-39566D01*
X36807Y-39566D01*
X36908Y-39566D01*
X36933Y-39542D01*
X36933Y-39762D01*
X36768Y-39762D01*
X36732Y-39777D01*
X36704Y-39805D01*
X36697Y-39821D01*
X36694Y-39821D01*
X36670Y-39797D01*
X36634Y-39782D01*
X36594Y-39782D01*
X36364Y-39782D01*
X36364Y-39522D01*
X36364Y-39324D01*
X36364Y-39220D01*
X36364Y-39022D01*
X36340Y-38998D01*
X36239Y-38998D01*
X36200Y-38998D01*
X36165Y-39012D01*
X36137Y-39040D01*
X36123Y-39076D01*
X36123Y-39195D01*
X36147Y-39220D01*
X36364Y-39220D01*
X36364Y-39324D01*
X36147Y-39324D01*
X36123Y-39349D01*
X36123Y-39468D01*
X36137Y-39504D01*
X36165Y-39531D01*
X36200Y-39546D01*
X36239Y-39546D01*
X36340Y-39546D01*
X36364Y-39522D01*
X36364Y-39782D01*
X36200Y-39782D01*
X36164Y-39797D01*
X36136Y-39825D01*
X36121Y-39861D01*
X36121Y-39900D01*
X36121Y-39909D01*
X35986Y-39909D01*
X35542Y-39465D01*
X35542Y-38312D01*
X36015Y-38785D01*
X36015Y-38785D01*
X36064Y-38818D01*
X36121Y-38829D01*
X36121Y-38877D01*
X36136Y-38913D01*
X36164Y-38941D01*
X36200Y-38956D01*
X36239Y-38956D01*
X36633Y-38956D01*
X36670Y-38941D01*
X36698Y-38913D01*
X36713Y-38877D01*
X36713Y-38837D01*
X36713Y-38784D01*
X36732Y-38803D01*
X36768Y-38818D01*
X36808Y-38818D01*
X37202Y-38818D01*
X37238Y-38803D01*
X37266Y-38775D01*
X37281Y-38739D01*
X37281Y-38699D01*
X37281Y-38463D01*
X37279Y-38458D01*
X37279Y-38110D01*
X37279Y-37836D01*
X37265Y-37800D01*
X37237Y-37773D01*
X37202Y-37758D01*
X37163Y-37758D01*
X37062Y-37758D01*
X37037Y-37782D01*
X37037Y-37921D01*
X37255Y-37921D01*
X37279Y-37896D01*
X37279Y-37836D01*
X37279Y-38110D01*
X37279Y-38050D01*
X37255Y-38025D01*
X37037Y-38025D01*
X37037Y-38164D01*
X37062Y-38188D01*
X37163Y-38188D01*
X37202Y-38188D01*
X37237Y-38173D01*
X37265Y-38146D01*
X37279Y-38110D01*
X37279Y-38458D01*
X37266Y-38427D01*
X37238Y-38399D01*
X37202Y-38384D01*
X37162Y-38384D01*
X36933Y-38384D01*
X36933Y-38164D01*
X36933Y-38025D01*
X36925Y-38025D01*
X36925Y-37921D01*
X36933Y-37921D01*
X36933Y-37782D01*
X36908Y-37758D01*
X36807Y-37758D01*
X36769Y-37758D01*
X36733Y-37773D01*
X36711Y-37794D01*
X36711Y-37698D01*
X36696Y-37662D01*
X36669Y-37635D01*
X36633Y-37620D01*
X36595Y-37620D01*
X36493Y-37620D01*
X36469Y-37644D01*
X36469Y-37842D01*
X36477Y-37842D01*
X36477Y-37946D01*
X36469Y-37946D01*
X36469Y-38144D01*
X36493Y-38168D01*
X36595Y-38168D01*
X36633Y-38168D01*
X36669Y-38153D01*
X36696Y-38126D01*
X36697Y-38125D01*
X36706Y-38146D01*
X36733Y-38173D01*
X36769Y-38188D01*
X36807Y-38188D01*
X36908Y-38188D01*
X36933Y-38164D01*
X36933Y-38384D01*
X36768Y-38384D01*
X36732Y-38399D01*
X36704Y-38427D01*
X36697Y-38443D01*
X36694Y-38443D01*
X36670Y-38419D01*
X36634Y-38404D01*
X36594Y-38404D01*
X36364Y-38404D01*
X36364Y-38144D01*
X36364Y-37946D01*
X36364Y-37842D01*
X36364Y-37644D01*
X36340Y-37620D01*
X36239Y-37620D01*
X36200Y-37620D01*
X36165Y-37635D01*
X36137Y-37662D01*
X36123Y-37698D01*
X36123Y-37817D01*
X36147Y-37842D01*
X36364Y-37842D01*
X36364Y-37946D01*
X36147Y-37946D01*
X36123Y-37971D01*
X36123Y-38090D01*
X36137Y-38126D01*
X36165Y-38153D01*
X36200Y-38168D01*
X36239Y-38168D01*
X36340Y-38168D01*
X36364Y-38144D01*
X36364Y-38404D01*
X36200Y-38404D01*
X36164Y-38419D01*
X36136Y-38447D01*
X36125Y-38473D01*
X35700Y-38048D01*
X35700Y-37131D01*
X35976Y-37407D01*
X35976Y-37407D01*
X36024Y-37440D01*
X36081Y-37451D01*
X36081Y-37451D01*
X36121Y-37451D01*
X36121Y-37499D01*
X36136Y-37535D01*
X36164Y-37563D01*
X36200Y-37578D01*
X36239Y-37578D01*
X36633Y-37578D01*
X36670Y-37563D01*
X36698Y-37535D01*
X36713Y-37499D01*
X36713Y-37459D01*
X36713Y-37406D01*
X36732Y-37425D01*
X36768Y-37440D01*
X36808Y-37440D01*
X37202Y-37440D01*
X37238Y-37425D01*
X37266Y-37397D01*
X37281Y-37361D01*
X37281Y-37321D01*
X37281Y-37085D01*
X37279Y-37081D01*
X37279Y-35846D01*
X37279Y-35572D01*
X37265Y-35536D01*
X37237Y-35509D01*
X37202Y-35494D01*
X37163Y-35494D01*
X37062Y-35494D01*
X37037Y-35518D01*
X37037Y-35657D01*
X37255Y-35657D01*
X37279Y-35632D01*
X37279Y-35572D01*
X37279Y-35846D01*
X37279Y-35786D01*
X37255Y-35762D01*
X37037Y-35762D01*
X37037Y-35900D01*
X37062Y-35924D01*
X37163Y-35924D01*
X37202Y-35924D01*
X37237Y-35910D01*
X37265Y-35882D01*
X37279Y-35846D01*
X37279Y-37081D01*
X37266Y-37049D01*
X37238Y-37021D01*
X37202Y-37006D01*
X37162Y-37006D01*
X36933Y-37006D01*
X36933Y-35900D01*
X36933Y-35762D01*
X36925Y-35762D01*
X36925Y-35657D01*
X36933Y-35657D01*
X36933Y-35518D01*
X36908Y-35494D01*
X36807Y-35494D01*
X36769Y-35494D01*
X36733Y-35509D01*
X36711Y-35531D01*
X36711Y-35434D01*
X36696Y-35398D01*
X36669Y-35371D01*
X36633Y-35356D01*
X36595Y-35356D01*
X36493Y-35356D01*
X36469Y-35380D01*
X36469Y-35578D01*
X36477Y-35578D01*
X36477Y-35683D01*
X36469Y-35683D01*
X36469Y-35880D01*
X36493Y-35904D01*
X36595Y-35904D01*
X36633Y-35904D01*
X36669Y-35890D01*
X36696Y-35862D01*
X36697Y-35861D01*
X36706Y-35882D01*
X36733Y-35910D01*
X36769Y-35924D01*
X36807Y-35924D01*
X36908Y-35924D01*
X36933Y-35900D01*
X36933Y-37006D01*
X36768Y-37006D01*
X36732Y-37021D01*
X36704Y-37049D01*
X36697Y-37065D01*
X36694Y-37065D01*
X36670Y-37041D01*
X36634Y-37026D01*
X36594Y-37026D01*
X36364Y-37026D01*
X36364Y-35880D01*
X36364Y-35683D01*
X36364Y-35578D01*
X36364Y-35380D01*
X36340Y-35356D01*
X36239Y-35356D01*
X36200Y-35356D01*
X36165Y-35371D01*
X36137Y-35398D01*
X36123Y-35434D01*
X36123Y-35553D01*
X36147Y-35578D01*
X36364Y-35578D01*
X36364Y-35683D01*
X36147Y-35683D01*
X36123Y-35707D01*
X36123Y-35826D01*
X36137Y-35862D01*
X36165Y-35890D01*
X36200Y-35904D01*
X36239Y-35904D01*
X36340Y-35904D01*
X36364Y-35880D01*
X36364Y-37026D01*
X36200Y-37026D01*
X36164Y-37041D01*
X36136Y-37069D01*
X36121Y-37105D01*
X36121Y-37130D01*
X35857Y-36867D01*
X35857Y-34927D01*
X36074Y-35144D01*
X36074Y-35144D01*
X36121Y-35175D01*
X36121Y-35235D01*
X36136Y-35271D01*
X36164Y-35299D01*
X36200Y-35314D01*
X36239Y-35314D01*
X36633Y-35314D01*
X36670Y-35299D01*
X36698Y-35271D01*
X36713Y-35235D01*
X36713Y-35195D01*
X36713Y-35142D01*
X36732Y-35161D01*
X36768Y-35176D01*
X36808Y-35176D01*
X37202Y-35176D01*
X37238Y-35161D01*
X37266Y-35133D01*
X37281Y-35097D01*
X37281Y-35057D01*
X37281Y-34821D01*
X37279Y-34817D01*
X37279Y-34468D01*
X37279Y-34194D01*
X37265Y-34158D01*
X37237Y-34131D01*
X37202Y-34116D01*
X37163Y-34116D01*
X37062Y-34116D01*
X37037Y-34140D01*
X37037Y-34279D01*
X37255Y-34279D01*
X37279Y-34255D01*
X37279Y-34194D01*
X37279Y-34468D01*
X37279Y-34408D01*
X37255Y-34384D01*
X37037Y-34384D01*
X37037Y-34522D01*
X37062Y-34546D01*
X37163Y-34546D01*
X37202Y-34546D01*
X37237Y-34532D01*
X37265Y-34504D01*
X37279Y-34468D01*
X37279Y-34817D01*
X37266Y-34785D01*
X37238Y-34757D01*
X37202Y-34742D01*
X37162Y-34742D01*
X36933Y-34742D01*
X36933Y-34522D01*
X36933Y-34384D01*
X36925Y-34384D01*
X36925Y-34279D01*
X36933Y-34279D01*
X36933Y-34140D01*
X36908Y-34116D01*
X36807Y-34116D01*
X36769Y-34116D01*
X36733Y-34131D01*
X36711Y-34153D01*
X36711Y-34056D01*
X36696Y-34020D01*
X36669Y-33993D01*
X36633Y-33978D01*
X36595Y-33978D01*
X36493Y-33978D01*
X36469Y-34002D01*
X36469Y-34200D01*
X36477Y-34200D01*
X36477Y-34305D01*
X36469Y-34305D01*
X36469Y-34502D01*
X36493Y-34526D01*
X36595Y-34526D01*
X36633Y-34526D01*
X36669Y-34512D01*
X36696Y-34484D01*
X36697Y-34483D01*
X36706Y-34504D01*
X36733Y-34532D01*
X36769Y-34546D01*
X36807Y-34546D01*
X36908Y-34546D01*
X36933Y-34522D01*
X36933Y-34742D01*
X36768Y-34742D01*
X36732Y-34757D01*
X36704Y-34785D01*
X36697Y-34801D01*
X36694Y-34801D01*
X36670Y-34777D01*
X36634Y-34762D01*
X36594Y-34762D01*
X36364Y-34762D01*
X36364Y-34502D01*
X36364Y-34305D01*
X36364Y-34200D01*
X36364Y-34002D01*
X36340Y-33978D01*
X36239Y-33978D01*
X36200Y-33978D01*
X36165Y-33993D01*
X36137Y-34020D01*
X36123Y-34056D01*
X36123Y-34176D01*
X36147Y-34200D01*
X36364Y-34200D01*
X36364Y-34305D01*
X36147Y-34305D01*
X36123Y-34329D01*
X36123Y-34448D01*
X36137Y-34484D01*
X36165Y-34512D01*
X36200Y-34526D01*
X36239Y-34526D01*
X36340Y-34526D01*
X36364Y-34502D01*
X36364Y-34762D01*
X36200Y-34762D01*
X36164Y-34777D01*
X36147Y-34794D01*
X36015Y-34662D01*
X36015Y-33779D01*
X36044Y-33798D01*
X36101Y-33809D01*
X36121Y-33809D01*
X36121Y-33857D01*
X36136Y-33893D01*
X36164Y-33921D01*
X36200Y-33936D01*
X36239Y-33936D01*
X36633Y-33936D01*
X36670Y-33921D01*
X36698Y-33893D01*
X36713Y-33857D01*
X36713Y-33818D01*
X36713Y-33764D01*
X36732Y-33783D01*
X36768Y-33798D01*
X36808Y-33798D01*
X37202Y-33798D01*
X37238Y-33783D01*
X37266Y-33755D01*
X37281Y-33719D01*
X37281Y-33680D01*
X37281Y-33444D01*
X37279Y-33439D01*
X37279Y-33090D01*
X37279Y-32816D01*
X37265Y-32780D01*
X37237Y-32753D01*
X37202Y-32738D01*
X37163Y-32738D01*
X37062Y-32738D01*
X37037Y-32762D01*
X37037Y-32901D01*
X37255Y-32901D01*
X37279Y-32877D01*
X37279Y-32816D01*
X37279Y-33090D01*
X37279Y-33030D01*
X37255Y-33006D01*
X37037Y-33006D01*
X37037Y-33144D01*
X37062Y-33168D01*
X37163Y-33169D01*
X37202Y-33168D01*
X37237Y-33154D01*
X37265Y-33126D01*
X37279Y-33090D01*
X37279Y-33439D01*
X37266Y-33407D01*
X37238Y-33379D01*
X37202Y-33364D01*
X37162Y-33364D01*
X36933Y-33364D01*
X36933Y-33144D01*
X36933Y-33006D01*
X36925Y-33006D01*
X36925Y-32901D01*
X36933Y-32901D01*
X36933Y-32762D01*
X36908Y-32738D01*
X36807Y-32738D01*
X36769Y-32738D01*
X36733Y-32753D01*
X36711Y-32775D01*
X36711Y-32678D01*
X36696Y-32642D01*
X36669Y-32615D01*
X36633Y-32600D01*
X36595Y-32600D01*
X36493Y-32600D01*
X36469Y-32624D01*
X36469Y-32822D01*
X36477Y-32822D01*
X36477Y-32927D01*
X36469Y-32927D01*
X36469Y-33124D01*
X36493Y-33148D01*
X36595Y-33149D01*
X36633Y-33148D01*
X36669Y-33134D01*
X36696Y-33106D01*
X36697Y-33105D01*
X36706Y-33126D01*
X36733Y-33154D01*
X36769Y-33168D01*
X36807Y-33169D01*
X36908Y-33168D01*
X36933Y-33144D01*
X36933Y-33364D01*
X36768Y-33364D01*
X36732Y-33379D01*
X36704Y-33407D01*
X36697Y-33423D01*
X36694Y-33423D01*
X36670Y-33399D01*
X36634Y-33384D01*
X36594Y-33384D01*
X36200Y-33384D01*
X36172Y-33395D01*
X36172Y-33137D01*
X36200Y-33148D01*
X36239Y-33149D01*
X36340Y-33148D01*
X36364Y-33124D01*
X36364Y-32927D01*
X36357Y-32927D01*
X36357Y-32822D01*
X36364Y-32822D01*
X36364Y-32624D01*
X36340Y-32600D01*
X36239Y-32600D01*
X36200Y-32600D01*
X36172Y-32612D01*
X36172Y-32547D01*
X36200Y-32558D01*
X36239Y-32558D01*
X36633Y-32558D01*
X36670Y-32543D01*
X36698Y-32516D01*
X36713Y-32479D01*
X36713Y-32440D01*
X36713Y-32387D01*
X36732Y-32405D01*
X36768Y-32420D01*
X36808Y-32420D01*
X37202Y-32420D01*
X37238Y-32405D01*
X37266Y-32378D01*
X37281Y-32341D01*
X37281Y-32302D01*
X37281Y-32066D01*
X37266Y-32029D01*
X37238Y-32001D01*
X37202Y-31986D01*
X37162Y-31986D01*
X37079Y-31986D01*
X37043Y-31950D01*
X37045Y-31944D01*
X37045Y-31835D01*
X37004Y-31734D01*
X36983Y-31713D01*
X37066Y-31713D01*
X37102Y-31698D01*
X37130Y-31670D01*
X37145Y-31634D01*
X37145Y-31594D01*
X37145Y-31200D01*
X37130Y-31164D01*
X37102Y-31136D01*
X37066Y-31121D01*
X37026Y-31121D01*
X36691Y-31121D01*
X36691Y-31048D01*
X36649Y-30947D01*
X36588Y-30885D01*
X36595Y-30885D01*
X36633Y-30885D01*
X36669Y-30870D01*
X36696Y-30842D01*
X36697Y-30841D01*
X36706Y-30862D01*
X36733Y-30890D01*
X36769Y-30905D01*
X36807Y-30905D01*
X36908Y-30905D01*
X36933Y-30880D01*
X36933Y-30742D01*
X36925Y-30742D01*
X36925Y-30637D01*
X36933Y-30637D01*
X36933Y-30499D01*
X36908Y-30474D01*
X36807Y-30474D01*
X36769Y-30474D01*
X36733Y-30489D01*
X36711Y-30511D01*
X36711Y-30414D01*
X36696Y-30378D01*
X36669Y-30351D01*
X36633Y-30336D01*
X36595Y-30336D01*
X36493Y-30336D01*
X36469Y-30361D01*
X36469Y-30558D01*
X36477Y-30558D01*
X36477Y-30663D01*
X36469Y-30663D01*
X36469Y-30671D01*
X36364Y-30671D01*
X36364Y-30663D01*
X36364Y-30558D01*
X36364Y-30361D01*
X36340Y-30336D01*
X36239Y-30336D01*
X36200Y-30336D01*
X36165Y-30351D01*
X36137Y-30378D01*
X36123Y-30414D01*
X36123Y-30534D01*
X36147Y-30558D01*
X36364Y-30558D01*
X36364Y-30663D01*
X36147Y-30663D01*
X36123Y-30687D01*
X36123Y-30774D01*
X36100Y-30751D01*
X35999Y-30710D01*
X35890Y-30709D01*
X35789Y-30751D01*
X35777Y-30763D01*
X35501Y-30487D01*
X35527Y-30476D01*
X35555Y-30449D01*
X35569Y-30413D01*
X35569Y-30021D01*
X35555Y-29985D01*
X35527Y-29957D01*
X35492Y-29943D01*
X35453Y-29942D01*
X35352Y-29943D01*
X35327Y-29967D01*
X35327Y-30164D01*
X35545Y-30164D01*
X35569Y-30140D01*
X35569Y-30021D01*
X35569Y-30413D01*
X35569Y-30293D01*
X35545Y-30269D01*
X35327Y-30269D01*
X35327Y-30277D01*
X35223Y-30277D01*
X35223Y-30269D01*
X35005Y-30269D01*
X34981Y-30293D01*
X34981Y-30411D01*
X34967Y-30411D01*
X34967Y-30403D01*
X34967Y-30411D01*
X34961Y-30411D01*
X34942Y-30393D01*
X34695Y-30393D01*
X34695Y-30334D01*
X34942Y-30334D01*
X34967Y-30310D01*
X34967Y-30324D01*
X34967Y-30285D01*
X34959Y-30268D01*
X34969Y-30245D01*
X34969Y-30206D01*
X34969Y-30163D01*
X34986Y-30145D01*
X35005Y-30164D01*
X35223Y-30164D01*
X35223Y-29967D01*
X35198Y-29943D01*
X35189Y-29943D01*
X35230Y-29901D01*
X35492Y-29901D01*
X35528Y-29886D01*
X35556Y-29858D01*
X35571Y-29822D01*
X35571Y-29782D01*
X35571Y-29428D01*
X35556Y-29392D01*
X35528Y-29364D01*
X35492Y-29349D01*
X35452Y-29349D01*
X35058Y-29349D01*
X35022Y-29364D01*
X34994Y-29391D01*
X34979Y-29428D01*
X34979Y-29467D01*
X34979Y-29730D01*
X34701Y-30008D01*
X34695Y-30008D01*
X34695Y-29113D01*
X34272Y-28690D01*
X34086Y-28690D01*
X34086Y-28329D01*
X34510Y-27905D01*
X35393Y-27905D01*
X35393Y-27905D01*
X35450Y-27893D01*
X35499Y-27861D01*
X35948Y-27412D01*
X36121Y-27412D01*
X36121Y-27459D01*
X36136Y-27496D01*
X36164Y-27524D01*
X36200Y-27539D01*
X36239Y-27539D01*
X36633Y-27539D01*
X36670Y-27524D01*
X36698Y-27496D01*
X36713Y-27459D01*
X36713Y-27420D01*
X36713Y-27367D01*
X36732Y-27386D01*
X36768Y-27401D01*
X36808Y-27401D01*
X37202Y-27401D01*
X37238Y-27386D01*
X37266Y-27358D01*
X37281Y-27321D01*
X37281Y-27282D01*
X37281Y-27046D01*
X37266Y-27009D01*
X37238Y-26981D01*
X37202Y-26966D01*
X37162Y-26966D01*
X36896Y-26966D01*
X36896Y-25939D01*
X36896Y-25603D01*
X36896Y-25498D01*
X36896Y-25163D01*
X36871Y-25138D01*
X36220Y-25138D01*
X36184Y-25153D01*
X36157Y-25181D01*
X36142Y-25216D01*
X36142Y-25255D01*
X36142Y-25474D01*
X36167Y-25498D01*
X36896Y-25498D01*
X36896Y-25603D01*
X36167Y-25603D01*
X36142Y-25627D01*
X36142Y-25846D01*
X36142Y-25885D01*
X36157Y-25921D01*
X36184Y-25948D01*
X36220Y-25963D01*
X36871Y-25963D01*
X36896Y-25939D01*
X36896Y-26966D01*
X36768Y-26966D01*
X36732Y-26981D01*
X36704Y-27009D01*
X36697Y-27025D01*
X36694Y-27025D01*
X36670Y-27001D01*
X36634Y-26986D01*
X36594Y-26986D01*
X36200Y-26986D01*
X36164Y-27001D01*
X36136Y-27029D01*
X36121Y-27066D01*
X36121Y-27105D01*
X36121Y-27113D01*
X35886Y-27113D01*
X35829Y-27125D01*
X35781Y-27157D01*
X35649Y-27289D01*
X35649Y-25413D01*
X35649Y-24547D01*
X35634Y-24510D01*
X35606Y-24482D01*
X35569Y-24467D01*
X35530Y-24467D01*
X34930Y-24467D01*
X34893Y-24482D01*
X34865Y-24510D01*
X34850Y-24547D01*
X34850Y-24586D01*
X34850Y-25452D01*
X34865Y-25489D01*
X34893Y-25517D01*
X34930Y-25532D01*
X34969Y-25532D01*
X35569Y-25532D01*
X35606Y-25517D01*
X35634Y-25489D01*
X35649Y-25452D01*
X35649Y-25413D01*
X35649Y-27289D01*
X35331Y-27606D01*
X35235Y-27606D01*
X35235Y-26971D01*
X35235Y-26616D01*
X35235Y-26577D01*
X35221Y-26541D01*
X35193Y-26514D01*
X35157Y-26499D01*
X35097Y-26499D01*
X35073Y-26524D01*
X35073Y-26741D01*
X35211Y-26741D01*
X35235Y-26717D01*
X35235Y-26616D01*
X35235Y-26971D01*
X35235Y-26870D01*
X35211Y-26846D01*
X35073Y-26846D01*
X35073Y-26854D01*
X34968Y-26854D01*
X34968Y-26846D01*
X34968Y-26741D01*
X34968Y-26524D01*
X34943Y-26499D01*
X34883Y-26499D01*
X34862Y-26508D01*
X34862Y-26139D01*
X34862Y-25745D01*
X34847Y-25708D01*
X34843Y-25704D01*
X34843Y-25395D01*
X34828Y-25320D01*
X34828Y-25320D01*
X34785Y-25255D01*
X34785Y-25255D01*
X34649Y-25119D01*
X34649Y-24856D01*
X34618Y-24703D01*
X34532Y-24574D01*
X34402Y-24487D01*
X34250Y-24457D01*
X34097Y-24487D01*
X33967Y-24574D01*
X33881Y-24703D01*
X33850Y-24856D01*
X33850Y-25143D01*
X33881Y-25296D01*
X33967Y-25425D01*
X34097Y-25512D01*
X34250Y-25542D01*
X34402Y-25512D01*
X34448Y-25482D01*
X34448Y-25704D01*
X34443Y-25708D01*
X34428Y-25745D01*
X34428Y-25784D01*
X34428Y-26178D01*
X34443Y-26215D01*
X34471Y-26243D01*
X34507Y-26258D01*
X34547Y-26258D01*
X34783Y-26258D01*
X34819Y-26243D01*
X34847Y-26215D01*
X34862Y-26178D01*
X34862Y-26139D01*
X34862Y-26508D01*
X34847Y-26514D01*
X34820Y-26541D01*
X34805Y-26577D01*
X34805Y-26616D01*
X34805Y-26717D01*
X34829Y-26741D01*
X34968Y-26741D01*
X34968Y-26846D01*
X34829Y-26846D01*
X34805Y-26870D01*
X34805Y-26971D01*
X34805Y-27010D01*
X34820Y-27046D01*
X34842Y-27067D01*
X34745Y-27067D01*
X34709Y-27082D01*
X34682Y-27110D01*
X34667Y-27145D01*
X34667Y-27184D01*
X34667Y-27285D01*
X34691Y-27309D01*
X34889Y-27309D01*
X34889Y-27301D01*
X34968Y-27301D01*
X34994Y-27301D01*
X34994Y-27309D01*
X35191Y-27309D01*
X35215Y-27285D01*
X35215Y-27184D01*
X35215Y-27145D01*
X35201Y-27110D01*
X35173Y-27082D01*
X35172Y-27082D01*
X35193Y-27073D01*
X35221Y-27046D01*
X35235Y-27010D01*
X35235Y-26971D01*
X35235Y-27606D01*
X35204Y-27606D01*
X35215Y-27578D01*
X35215Y-27539D01*
X35215Y-27438D01*
X35191Y-27414D01*
X34994Y-27414D01*
X34994Y-27422D01*
X34968Y-27422D01*
X34889Y-27422D01*
X34889Y-27414D01*
X34691Y-27414D01*
X34667Y-27438D01*
X34667Y-27539D01*
X34667Y-27578D01*
X34679Y-27606D01*
X34614Y-27606D01*
X34625Y-27579D01*
X34625Y-27539D01*
X34625Y-27145D01*
X34610Y-27109D01*
X34582Y-27081D01*
X34546Y-27066D01*
X34507Y-27065D01*
X34453Y-27065D01*
X34472Y-27047D01*
X34487Y-27010D01*
X34487Y-26971D01*
X34487Y-26577D01*
X34472Y-26540D01*
X34444Y-26512D01*
X34408Y-26497D01*
X34369Y-26497D01*
X34133Y-26497D01*
X34096Y-26512D01*
X34068Y-26540D01*
X34053Y-26577D01*
X34053Y-26616D01*
X34053Y-27010D01*
X34068Y-27047D01*
X34096Y-27075D01*
X34112Y-27081D01*
X34112Y-27085D01*
X34088Y-27108D01*
X34073Y-27145D01*
X34073Y-27184D01*
X34073Y-27578D01*
X34088Y-27615D01*
X34095Y-27622D01*
X33857Y-27860D01*
X33857Y-26971D01*
X33857Y-26616D01*
X33857Y-26577D01*
X33843Y-26541D01*
X33815Y-26514D01*
X33779Y-26499D01*
X33719Y-26499D01*
X33695Y-26524D01*
X33695Y-26741D01*
X33833Y-26741D01*
X33857Y-26717D01*
X33857Y-26616D01*
X33857Y-26971D01*
X33857Y-26870D01*
X33833Y-26846D01*
X33695Y-26846D01*
X33695Y-26854D01*
X33649Y-26854D01*
X33649Y-25143D01*
X33649Y-24856D01*
X33618Y-24703D01*
X33532Y-24574D01*
X33402Y-24487D01*
X33250Y-24457D01*
X33097Y-24487D01*
X32967Y-24574D01*
X32881Y-24703D01*
X32850Y-24856D01*
X32850Y-25143D01*
X32881Y-25296D01*
X32967Y-25425D01*
X33070Y-25494D01*
X33070Y-25704D01*
X33065Y-25708D01*
X33050Y-25745D01*
X33050Y-25784D01*
X33050Y-26178D01*
X33065Y-26215D01*
X33093Y-26243D01*
X33129Y-26258D01*
X33169Y-26258D01*
X33405Y-26258D01*
X33441Y-26243D01*
X33469Y-26215D01*
X33484Y-26178D01*
X33484Y-26139D01*
X33484Y-25745D01*
X33469Y-25708D01*
X33465Y-25704D01*
X33465Y-25470D01*
X33532Y-25425D01*
X33618Y-25296D01*
X33649Y-25143D01*
X33649Y-26854D01*
X33590Y-26854D01*
X33590Y-26846D01*
X33590Y-26741D01*
X33590Y-26524D01*
X33566Y-26499D01*
X33505Y-26499D01*
X33469Y-26514D01*
X33442Y-26541D01*
X33427Y-26577D01*
X33427Y-26616D01*
X33427Y-26717D01*
X33451Y-26741D01*
X33590Y-26741D01*
X33590Y-26846D01*
X33451Y-26846D01*
X33427Y-26870D01*
X33427Y-26971D01*
X33427Y-27010D01*
X33442Y-27046D01*
X33464Y-27067D01*
X33367Y-27067D01*
X33331Y-27082D01*
X33304Y-27110D01*
X33289Y-27145D01*
X33289Y-27184D01*
X33289Y-27285D01*
X33313Y-27309D01*
X33511Y-27309D01*
X33511Y-27301D01*
X33590Y-27301D01*
X33616Y-27301D01*
X33616Y-27309D01*
X33813Y-27309D01*
X33837Y-27285D01*
X33837Y-27184D01*
X33837Y-27145D01*
X33823Y-27110D01*
X33795Y-27082D01*
X33794Y-27082D01*
X33815Y-27073D01*
X33843Y-27046D01*
X33857Y-27010D01*
X33857Y-26971D01*
X33857Y-27860D01*
X33837Y-27880D01*
X33837Y-27539D01*
X33837Y-27438D01*
X33813Y-27414D01*
X33616Y-27414D01*
X33616Y-27632D01*
X33640Y-27656D01*
X33759Y-27656D01*
X33795Y-27641D01*
X33823Y-27614D01*
X33837Y-27578D01*
X33837Y-27539D01*
X33837Y-27880D01*
X33658Y-28059D01*
X33648Y-28044D01*
X33648Y-28044D01*
X33590Y-27985D01*
X33511Y-27906D01*
X33511Y-27632D01*
X33511Y-27414D01*
X33313Y-27414D01*
X33289Y-27438D01*
X33289Y-27539D01*
X33289Y-27578D01*
X33304Y-27614D01*
X33331Y-27641D01*
X33367Y-27656D01*
X33487Y-27656D01*
X33511Y-27632D01*
X33511Y-27906D01*
X33226Y-27621D01*
X33232Y-27615D01*
X33247Y-27579D01*
X33247Y-27539D01*
X33247Y-27145D01*
X33232Y-27109D01*
X33204Y-27081D01*
X33168Y-27066D01*
X33129Y-27065D01*
X33075Y-27065D01*
X33094Y-27047D01*
X33109Y-27010D01*
X33109Y-26971D01*
X33109Y-26577D01*
X33094Y-26540D01*
X33066Y-26512D01*
X33030Y-26497D01*
X32991Y-26497D01*
X32755Y-26497D01*
X32718Y-26512D01*
X32690Y-26540D01*
X32675Y-26577D01*
X32675Y-26616D01*
X32675Y-27010D01*
X32690Y-27047D01*
X32718Y-27075D01*
X32734Y-27081D01*
X32734Y-27085D01*
X32710Y-27108D01*
X32695Y-27145D01*
X32695Y-27184D01*
X32695Y-27578D01*
X32710Y-27615D01*
X32719Y-27624D01*
X32679Y-27641D01*
X32649Y-27671D01*
X32649Y-25143D01*
X32649Y-24856D01*
X32618Y-24703D01*
X32532Y-24574D01*
X32402Y-24487D01*
X32250Y-24457D01*
X32097Y-24487D01*
X31967Y-24574D01*
X31881Y-24703D01*
X31850Y-24856D01*
X31850Y-25119D01*
X31750Y-25220D01*
X31707Y-25284D01*
X31692Y-25360D01*
X31692Y-25360D01*
X31692Y-25704D01*
X31687Y-25708D01*
X31672Y-25745D01*
X31672Y-25784D01*
X31672Y-26178D01*
X31687Y-26215D01*
X31715Y-26243D01*
X31751Y-26258D01*
X31791Y-26258D01*
X32027Y-26258D01*
X32063Y-26243D01*
X32091Y-26215D01*
X32106Y-26178D01*
X32106Y-26139D01*
X32106Y-25745D01*
X32091Y-25708D01*
X32087Y-25704D01*
X32087Y-25505D01*
X32097Y-25512D01*
X32250Y-25542D01*
X32402Y-25512D01*
X32532Y-25425D01*
X32618Y-25296D01*
X32649Y-25143D01*
X32649Y-27671D01*
X32602Y-27718D01*
X32560Y-27819D01*
X32560Y-27928D01*
X32587Y-27993D01*
X32583Y-27993D01*
X32482Y-28035D01*
X32480Y-28037D01*
X32480Y-26971D01*
X32480Y-26616D01*
X32479Y-26577D01*
X32465Y-26541D01*
X32437Y-26514D01*
X32402Y-26499D01*
X32341Y-26499D01*
X32317Y-26524D01*
X32317Y-26741D01*
X32455Y-26741D01*
X32480Y-26717D01*
X32480Y-26616D01*
X32480Y-26971D01*
X32480Y-26870D01*
X32455Y-26846D01*
X32317Y-26846D01*
X32317Y-26854D01*
X32212Y-26854D01*
X32212Y-26846D01*
X32212Y-26741D01*
X32212Y-26524D01*
X32188Y-26499D01*
X32127Y-26499D01*
X32091Y-26514D01*
X32064Y-26541D01*
X32049Y-26577D01*
X32049Y-26616D01*
X32049Y-26717D01*
X32073Y-26741D01*
X32212Y-26741D01*
X32212Y-26846D01*
X32073Y-26846D01*
X32049Y-26870D01*
X32049Y-26971D01*
X32049Y-27010D01*
X32064Y-27046D01*
X32086Y-27067D01*
X31989Y-27067D01*
X31953Y-27082D01*
X31926Y-27110D01*
X31911Y-27145D01*
X31911Y-27184D01*
X31911Y-27285D01*
X31935Y-27309D01*
X32133Y-27309D01*
X32133Y-27301D01*
X32212Y-27301D01*
X32238Y-27301D01*
X32238Y-27309D01*
X32435Y-27309D01*
X32460Y-27285D01*
X32460Y-27184D01*
X32459Y-27145D01*
X32445Y-27110D01*
X32417Y-27082D01*
X32416Y-27082D01*
X32437Y-27073D01*
X32465Y-27046D01*
X32479Y-27010D01*
X32480Y-26971D01*
X32480Y-28037D01*
X32460Y-28057D01*
X32460Y-27539D01*
X32460Y-27438D01*
X32435Y-27414D01*
X32238Y-27414D01*
X32238Y-27632D01*
X32262Y-27656D01*
X32382Y-27656D01*
X32417Y-27641D01*
X32445Y-27614D01*
X32459Y-27578D01*
X32460Y-27539D01*
X32460Y-28057D01*
X32405Y-28112D01*
X32363Y-28212D01*
X32363Y-28322D01*
X32405Y-28422D01*
X32438Y-28455D01*
X32372Y-28455D01*
X32348Y-28480D01*
X32348Y-28690D01*
X32243Y-28690D01*
X32243Y-28480D01*
X32219Y-28455D01*
X32212Y-28455D01*
X32133Y-28455D01*
X32133Y-27632D01*
X32133Y-27414D01*
X31935Y-27414D01*
X31911Y-27438D01*
X31911Y-27539D01*
X31911Y-27578D01*
X31926Y-27614D01*
X31953Y-27641D01*
X31989Y-27656D01*
X32109Y-27656D01*
X32133Y-27632D01*
X32133Y-28455D01*
X32099Y-28455D01*
X32063Y-28470D01*
X32036Y-28497D01*
X32021Y-28533D01*
X32021Y-28572D01*
X32021Y-28673D01*
X32038Y-28690D01*
X31980Y-28690D01*
X31980Y-28533D01*
X31965Y-28496D01*
X31947Y-28479D01*
X32003Y-28423D01*
X32045Y-28322D01*
X32045Y-28213D01*
X32004Y-28112D01*
X31927Y-28035D01*
X31826Y-27993D01*
X31742Y-27993D01*
X31742Y-27658D01*
X31790Y-27658D01*
X31826Y-27643D01*
X31854Y-27615D01*
X31869Y-27579D01*
X31869Y-27539D01*
X31869Y-27145D01*
X31854Y-27109D01*
X31827Y-27081D01*
X31790Y-27066D01*
X31751Y-27065D01*
X31698Y-27065D01*
X31716Y-27047D01*
X31731Y-27010D01*
X31731Y-26971D01*
X31731Y-26577D01*
X31716Y-26540D01*
X31689Y-26512D01*
X31652Y-26497D01*
X31613Y-26497D01*
X31377Y-26497D01*
X31340Y-26512D01*
X31312Y-26540D01*
X31297Y-26577D01*
X31297Y-26616D01*
X31297Y-27010D01*
X31312Y-27047D01*
X31340Y-27075D01*
X31356Y-27081D01*
X31356Y-27085D01*
X31332Y-27108D01*
X31317Y-27145D01*
X31317Y-27184D01*
X31317Y-27578D01*
X31332Y-27615D01*
X31360Y-27643D01*
X31396Y-27658D01*
X31436Y-27658D01*
X31444Y-27658D01*
X31444Y-28089D01*
X31448Y-28111D01*
X31353Y-28072D01*
X31244Y-28072D01*
X31144Y-28113D01*
X31066Y-28190D01*
X31052Y-28225D01*
X30758Y-27932D01*
X30758Y-24823D01*
X31440Y-24142D01*
X40157Y-24142D01*
X40818Y-24142D01*
X40818Y-45542D01*
X40818Y-45542D01*
G37*
G54D40*
X40818Y-45542D02*
X40431Y-45542D01*
X40431Y-44433D01*
X40390Y-44333D01*
X40313Y-44255D01*
X40212Y-44214D01*
X40162Y-44213D01*
X40042Y-44093D01*
X40064Y-44072D01*
X40079Y-44035D01*
X40079Y-43996D01*
X40079Y-43366D01*
X40064Y-43329D01*
X40038Y-43303D01*
X40038Y-36953D01*
X40038Y-31835D01*
X40038Y-26323D01*
X39996Y-26222D01*
X39961Y-26187D01*
X39961Y-25984D01*
X39961Y-25984D01*
X39961Y-25984D01*
X39958Y-25969D01*
X39946Y-25908D01*
X39946Y-25908D01*
X39922Y-25872D01*
X39922Y-25846D01*
X39922Y-25216D01*
X39907Y-25180D01*
X39879Y-25152D01*
X39842Y-25136D01*
X39803Y-25136D01*
X38386Y-25136D01*
X38349Y-25152D01*
X38321Y-25179D01*
X38306Y-25216D01*
X38306Y-25255D01*
X38306Y-25586D01*
X38049Y-25844D01*
X38006Y-25908D01*
X37991Y-25984D01*
X37991Y-25984D01*
X37991Y-26187D01*
X37956Y-26222D01*
X37914Y-26323D01*
X37914Y-26432D01*
X37956Y-26533D01*
X38033Y-26610D01*
X38134Y-26652D01*
X38243Y-26652D01*
X38344Y-26610D01*
X38421Y-26533D01*
X38463Y-26432D01*
X38463Y-26323D01*
X38421Y-26222D01*
X38386Y-26187D01*
X38386Y-26066D01*
X38487Y-25965D01*
X38916Y-25965D01*
X38916Y-26105D01*
X38821Y-26145D01*
X38744Y-26222D01*
X38702Y-26323D01*
X38702Y-26432D01*
X38743Y-26533D01*
X38820Y-26610D01*
X38921Y-26652D01*
X39030Y-26652D01*
X39131Y-26610D01*
X39208Y-26533D01*
X39250Y-26432D01*
X39250Y-26383D01*
X39254Y-26379D01*
X39254Y-26379D01*
X39254Y-26379D01*
X39279Y-26341D01*
X39297Y-26315D01*
X39297Y-26315D01*
X39312Y-26239D01*
X39312Y-25965D01*
X39465Y-25965D01*
X39566Y-26066D01*
X39566Y-26187D01*
X39531Y-26222D01*
X39489Y-26323D01*
X39489Y-26432D01*
X39531Y-26533D01*
X39608Y-26610D01*
X39708Y-26652D01*
X39818Y-26652D01*
X39918Y-26610D01*
X39996Y-26533D01*
X40037Y-26432D01*
X40038Y-26323D01*
X40038Y-31835D01*
X39996Y-31734D01*
X39919Y-31657D01*
X39818Y-31615D01*
X39709Y-31615D01*
X39608Y-31657D01*
X39534Y-31731D01*
X39292Y-31731D01*
X39292Y-30000D01*
X39292Y-29000D01*
X39292Y-28000D01*
X39262Y-27847D01*
X39175Y-27717D01*
X39046Y-27631D01*
X38893Y-27600D01*
X38630Y-27600D01*
X38448Y-27419D01*
X38384Y-27376D01*
X38309Y-27361D01*
X38309Y-27361D01*
X38075Y-27361D01*
X38070Y-27356D01*
X38034Y-27341D01*
X37994Y-27341D01*
X37754Y-27341D01*
X37754Y-25846D01*
X37754Y-25255D01*
X37754Y-25216D01*
X37739Y-25181D01*
X37712Y-25153D01*
X37676Y-25138D01*
X37025Y-25138D01*
X37000Y-25163D01*
X37000Y-25498D01*
X37729Y-25498D01*
X37754Y-25474D01*
X37754Y-25255D01*
X37754Y-25846D01*
X37754Y-25627D01*
X37729Y-25603D01*
X37000Y-25603D01*
X37000Y-25939D01*
X37025Y-25963D01*
X37676Y-25963D01*
X37712Y-25948D01*
X37739Y-25921D01*
X37754Y-25885D01*
X37754Y-25846D01*
X37754Y-27341D01*
X37600Y-27341D01*
X37564Y-27356D01*
X37536Y-27384D01*
X37521Y-27421D01*
X37521Y-27460D01*
X37521Y-27696D01*
X37536Y-27733D01*
X37564Y-27761D01*
X37600Y-27776D01*
X37640Y-27776D01*
X38034Y-27776D01*
X38070Y-27761D01*
X38075Y-27756D01*
X38227Y-27756D01*
X38269Y-27799D01*
X38237Y-27847D01*
X38207Y-28000D01*
X38237Y-28152D01*
X38324Y-28282D01*
X38453Y-28368D01*
X38606Y-28399D01*
X38893Y-28399D01*
X39046Y-28368D01*
X39175Y-28282D01*
X39262Y-28152D01*
X39292Y-28000D01*
X39292Y-29000D01*
X39262Y-28847D01*
X39175Y-28717D01*
X39046Y-28631D01*
X38893Y-28600D01*
X38606Y-28600D01*
X38453Y-28631D01*
X38324Y-28717D01*
X38309Y-28739D01*
X38075Y-28739D01*
X38070Y-28734D01*
X38034Y-28719D01*
X37994Y-28719D01*
X37600Y-28719D01*
X37564Y-28734D01*
X37536Y-28762D01*
X37521Y-28799D01*
X37521Y-28838D01*
X37521Y-29074D01*
X37536Y-29111D01*
X37564Y-29139D01*
X37600Y-29154D01*
X37640Y-29154D01*
X38034Y-29154D01*
X38070Y-29139D01*
X38075Y-29134D01*
X38234Y-29134D01*
X38237Y-29152D01*
X38324Y-29282D01*
X38453Y-29368D01*
X38606Y-29399D01*
X38893Y-29399D01*
X39046Y-29368D01*
X39175Y-29282D01*
X39262Y-29152D01*
X39292Y-29000D01*
X39292Y-30000D01*
X39262Y-29847D01*
X39175Y-29717D01*
X39046Y-29631D01*
X38893Y-29600D01*
X38606Y-29600D01*
X38453Y-29631D01*
X38324Y-29717D01*
X38237Y-29847D01*
X38207Y-30000D01*
X38230Y-30117D01*
X38075Y-30117D01*
X38070Y-30112D01*
X38034Y-30097D01*
X37994Y-30097D01*
X37600Y-30097D01*
X37564Y-30112D01*
X37536Y-30140D01*
X37521Y-30177D01*
X37521Y-30216D01*
X37521Y-30452D01*
X37536Y-30489D01*
X37564Y-30517D01*
X37600Y-30532D01*
X37640Y-30532D01*
X38034Y-30532D01*
X38070Y-30517D01*
X38075Y-30512D01*
X38435Y-30512D01*
X38435Y-30512D01*
X38435Y-30512D01*
X38510Y-30497D01*
X38574Y-30454D01*
X38630Y-30399D01*
X38893Y-30399D01*
X39046Y-30368D01*
X39175Y-30282D01*
X39262Y-30152D01*
X39292Y-30000D01*
X39292Y-31731D01*
X39282Y-31731D01*
X39282Y-31280D01*
X39282Y-30680D01*
X39267Y-30643D01*
X39239Y-30615D01*
X39202Y-30600D01*
X39163Y-30600D01*
X38297Y-30600D01*
X38260Y-30615D01*
X38232Y-30643D01*
X38217Y-30680D01*
X38217Y-30719D01*
X38217Y-31319D01*
X38232Y-31356D01*
X38260Y-31384D01*
X38297Y-31399D01*
X38336Y-31399D01*
X39202Y-31399D01*
X39239Y-31384D01*
X39267Y-31356D01*
X39282Y-31319D01*
X39282Y-31280D01*
X39282Y-31731D01*
X39115Y-31731D01*
X39115Y-31712D01*
X39100Y-31676D01*
X39072Y-31648D01*
X39036Y-31632D01*
X38996Y-31632D01*
X38642Y-31632D01*
X38606Y-31647D01*
X38578Y-31675D01*
X38563Y-31712D01*
X38563Y-31751D01*
X38563Y-32145D01*
X38578Y-32182D01*
X38606Y-32210D01*
X38642Y-32225D01*
X38681Y-32225D01*
X39035Y-32225D01*
X39072Y-32210D01*
X39100Y-32182D01*
X39115Y-32145D01*
X39115Y-32126D01*
X39619Y-32126D01*
X39708Y-32163D01*
X39818Y-32164D01*
X39918Y-32122D01*
X39996Y-32045D01*
X40037Y-31944D01*
X40038Y-31835D01*
X40038Y-36953D01*
X39996Y-36852D01*
X39919Y-36775D01*
X39818Y-36733D01*
X39709Y-36733D01*
X39704Y-36735D01*
X39704Y-36735D01*
X39685Y-36731D01*
X39685Y-36731D01*
X39292Y-36731D01*
X39292Y-35000D01*
X39292Y-34000D01*
X39292Y-33000D01*
X39262Y-32847D01*
X39175Y-32717D01*
X39046Y-32631D01*
X38893Y-32600D01*
X38630Y-32600D01*
X38521Y-32492D01*
X38521Y-32106D01*
X38521Y-31751D01*
X38521Y-31712D01*
X38506Y-31676D01*
X38479Y-31649D01*
X38443Y-31634D01*
X38323Y-31634D01*
X38299Y-31659D01*
X38299Y-31876D01*
X38497Y-31876D01*
X38521Y-31852D01*
X38521Y-31751D01*
X38521Y-32106D01*
X38521Y-32005D01*
X38497Y-31981D01*
X38299Y-31981D01*
X38299Y-32199D01*
X38323Y-32223D01*
X38443Y-32223D01*
X38479Y-32208D01*
X38506Y-32181D01*
X38521Y-32145D01*
X38521Y-32106D01*
X38521Y-32492D01*
X38468Y-32438D01*
X38404Y-32396D01*
X38328Y-32381D01*
X38328Y-32381D01*
X38194Y-32381D01*
X38194Y-32199D01*
X38194Y-31981D01*
X38194Y-31876D01*
X38194Y-31659D01*
X38170Y-31634D01*
X38051Y-31634D01*
X38015Y-31649D01*
X37987Y-31676D01*
X37973Y-31712D01*
X37973Y-31751D01*
X37973Y-31852D01*
X37997Y-31876D01*
X38194Y-31876D01*
X38194Y-31981D01*
X37997Y-31981D01*
X37973Y-32005D01*
X37973Y-32106D01*
X37973Y-32145D01*
X37987Y-32181D01*
X38015Y-32208D01*
X38051Y-32223D01*
X38170Y-32223D01*
X38194Y-32199D01*
X38194Y-32381D01*
X38075Y-32381D01*
X38070Y-32376D01*
X38034Y-32361D01*
X37994Y-32361D01*
X37735Y-32361D01*
X37735Y-31595D01*
X37735Y-31239D01*
X37735Y-31200D01*
X37720Y-31165D01*
X37693Y-31137D01*
X37657Y-31123D01*
X37538Y-31123D01*
X37513Y-31147D01*
X37513Y-31364D01*
X37711Y-31364D01*
X37735Y-31340D01*
X37735Y-31239D01*
X37735Y-31595D01*
X37735Y-31493D01*
X37711Y-31469D01*
X37513Y-31469D01*
X37513Y-31687D01*
X37538Y-31711D01*
X37657Y-31711D01*
X37693Y-31696D01*
X37720Y-31669D01*
X37735Y-31633D01*
X37735Y-31595D01*
X37735Y-32361D01*
X37600Y-32361D01*
X37564Y-32376D01*
X37536Y-32404D01*
X37521Y-32440D01*
X37521Y-32480D01*
X37521Y-32716D01*
X37536Y-32752D01*
X37564Y-32780D01*
X37600Y-32795D01*
X37640Y-32795D01*
X38034Y-32795D01*
X38070Y-32780D01*
X38075Y-32776D01*
X38246Y-32776D01*
X38269Y-32799D01*
X38237Y-32847D01*
X38207Y-33000D01*
X38237Y-33152D01*
X38324Y-33282D01*
X38453Y-33368D01*
X38606Y-33399D01*
X38893Y-33399D01*
X39046Y-33368D01*
X39175Y-33282D01*
X39262Y-33152D01*
X39292Y-33000D01*
X39292Y-34000D01*
X39262Y-33847D01*
X39175Y-33717D01*
X39046Y-33631D01*
X38893Y-33600D01*
X38606Y-33600D01*
X38453Y-33631D01*
X38324Y-33717D01*
X38296Y-33759D01*
X38075Y-33759D01*
X38070Y-33754D01*
X38034Y-33739D01*
X37994Y-33739D01*
X37600Y-33739D01*
X37564Y-33754D01*
X37536Y-33782D01*
X37521Y-33818D01*
X37521Y-33858D01*
X37521Y-34094D01*
X37536Y-34130D01*
X37564Y-34158D01*
X37600Y-34173D01*
X37640Y-34173D01*
X38034Y-34173D01*
X38070Y-34158D01*
X38075Y-34154D01*
X38238Y-34154D01*
X38324Y-34282D01*
X38453Y-34368D01*
X38606Y-34399D01*
X38893Y-34399D01*
X39046Y-34368D01*
X39175Y-34282D01*
X39262Y-34152D01*
X39292Y-34000D01*
X39292Y-35000D01*
X39262Y-34847D01*
X39175Y-34717D01*
X39046Y-34631D01*
X38893Y-34600D01*
X38606Y-34600D01*
X38453Y-34631D01*
X38324Y-34717D01*
X38237Y-34847D01*
X38207Y-35000D01*
X38234Y-35137D01*
X38075Y-35137D01*
X38070Y-35132D01*
X38034Y-35117D01*
X37994Y-35117D01*
X37600Y-35117D01*
X37564Y-35132D01*
X37536Y-35160D01*
X37521Y-35196D01*
X37521Y-35236D01*
X37521Y-35472D01*
X37536Y-35508D01*
X37564Y-35536D01*
X37600Y-35551D01*
X37640Y-35551D01*
X38034Y-35551D01*
X38070Y-35536D01*
X38075Y-35532D01*
X38415Y-35532D01*
X38415Y-35532D01*
X38415Y-35532D01*
X38490Y-35517D01*
X38555Y-35474D01*
X38630Y-35399D01*
X38893Y-35399D01*
X39046Y-35368D01*
X39175Y-35282D01*
X39262Y-35152D01*
X39292Y-35000D01*
X39292Y-36731D01*
X39282Y-36731D01*
X39282Y-36280D01*
X39282Y-35680D01*
X39267Y-35643D01*
X39239Y-35615D01*
X39202Y-35600D01*
X39163Y-35600D01*
X38297Y-35600D01*
X38260Y-35615D01*
X38232Y-35643D01*
X38217Y-35680D01*
X38217Y-35719D01*
X38217Y-36319D01*
X38232Y-36356D01*
X38260Y-36384D01*
X38297Y-36399D01*
X38336Y-36399D01*
X39202Y-36399D01*
X39239Y-36384D01*
X39267Y-36356D01*
X39282Y-36319D01*
X39282Y-36280D01*
X39282Y-36731D01*
X39154Y-36731D01*
X39154Y-36712D01*
X39139Y-36676D01*
X39111Y-36648D01*
X39075Y-36632D01*
X39036Y-36632D01*
X38682Y-36632D01*
X38645Y-36647D01*
X38617Y-36675D01*
X38602Y-36712D01*
X38602Y-36751D01*
X38602Y-37145D01*
X38617Y-37182D01*
X38645Y-37210D01*
X38681Y-37225D01*
X38721Y-37225D01*
X39075Y-37225D01*
X39111Y-37210D01*
X39139Y-37182D01*
X39154Y-37145D01*
X39154Y-37126D01*
X39516Y-37126D01*
X39531Y-37163D01*
X39608Y-37240D01*
X39708Y-37282D01*
X39818Y-37282D01*
X39918Y-37240D01*
X39996Y-37163D01*
X40037Y-37062D01*
X40038Y-36953D01*
X40038Y-43303D01*
X40036Y-43301D01*
X40000Y-43286D01*
X39960Y-43286D01*
X39292Y-43286D01*
X39292Y-40000D01*
X39292Y-39000D01*
X39292Y-38000D01*
X39262Y-37847D01*
X39175Y-37717D01*
X39046Y-37631D01*
X38893Y-37600D01*
X38630Y-37600D01*
X38560Y-37531D01*
X38560Y-37106D01*
X38560Y-36751D01*
X38560Y-36712D01*
X38546Y-36676D01*
X38518Y-36649D01*
X38482Y-36634D01*
X38363Y-36634D01*
X38339Y-36659D01*
X38339Y-36876D01*
X38536Y-36876D01*
X38560Y-36852D01*
X38560Y-36751D01*
X38560Y-37106D01*
X38560Y-37005D01*
X38536Y-36981D01*
X38339Y-36981D01*
X38339Y-37199D01*
X38363Y-37223D01*
X38482Y-37223D01*
X38518Y-37208D01*
X38546Y-37181D01*
X38560Y-37145D01*
X38560Y-37106D01*
X38560Y-37531D01*
X38488Y-37458D01*
X38424Y-37415D01*
X38348Y-37400D01*
X38348Y-37400D01*
X38234Y-37400D01*
X38234Y-37199D01*
X38234Y-36981D01*
X38234Y-36876D01*
X38234Y-36659D01*
X38210Y-36634D01*
X38090Y-36634D01*
X38054Y-36649D01*
X38027Y-36676D01*
X38012Y-36712D01*
X38012Y-36751D01*
X38012Y-36852D01*
X38036Y-36876D01*
X38234Y-36876D01*
X38234Y-36981D01*
X38036Y-36981D01*
X38012Y-37005D01*
X38012Y-37106D01*
X38012Y-37145D01*
X38027Y-37181D01*
X38054Y-37208D01*
X38090Y-37223D01*
X38210Y-37223D01*
X38234Y-37199D01*
X38234Y-37400D01*
X38075Y-37400D01*
X38070Y-37396D01*
X38034Y-37381D01*
X37994Y-37381D01*
X37600Y-37381D01*
X37564Y-37396D01*
X37536Y-37424D01*
X37521Y-37460D01*
X37521Y-37500D01*
X37521Y-37736D01*
X37536Y-37772D01*
X37564Y-37800D01*
X37600Y-37815D01*
X37640Y-37815D01*
X38034Y-37815D01*
X38070Y-37800D01*
X38075Y-37796D01*
X38266Y-37796D01*
X38269Y-37799D01*
X38237Y-37847D01*
X38207Y-38000D01*
X38237Y-38152D01*
X38324Y-38282D01*
X38453Y-38368D01*
X38606Y-38399D01*
X38893Y-38399D01*
X39046Y-38368D01*
X39175Y-38282D01*
X39262Y-38152D01*
X39292Y-38000D01*
X39292Y-39000D01*
X39262Y-38847D01*
X39175Y-38717D01*
X39046Y-38631D01*
X38893Y-38600D01*
X38606Y-38600D01*
X38453Y-38631D01*
X38324Y-38717D01*
X38283Y-38778D01*
X38075Y-38778D01*
X38070Y-38774D01*
X38034Y-38759D01*
X37994Y-38759D01*
X37600Y-38759D01*
X37564Y-38774D01*
X37536Y-38802D01*
X37521Y-38838D01*
X37521Y-38878D01*
X37521Y-39114D01*
X37536Y-39150D01*
X37564Y-39178D01*
X37600Y-39193D01*
X37640Y-39193D01*
X38034Y-39193D01*
X38070Y-39178D01*
X38075Y-39174D01*
X38251Y-39174D01*
X38324Y-39282D01*
X38453Y-39368D01*
X38606Y-39399D01*
X38893Y-39399D01*
X39046Y-39368D01*
X39175Y-39282D01*
X39262Y-39152D01*
X39292Y-39000D01*
X39292Y-40000D01*
X39262Y-39847D01*
X39175Y-39717D01*
X39046Y-39631D01*
X38893Y-39600D01*
X38606Y-39600D01*
X38453Y-39631D01*
X38324Y-39717D01*
X38237Y-39847D01*
X38207Y-40000D01*
X38237Y-40152D01*
X38240Y-40156D01*
X38075Y-40156D01*
X38070Y-40152D01*
X38034Y-40137D01*
X37994Y-40137D01*
X37600Y-40137D01*
X37564Y-40152D01*
X37536Y-40180D01*
X37521Y-40216D01*
X37521Y-40255D01*
X37521Y-40491D01*
X37536Y-40528D01*
X37564Y-40556D01*
X37600Y-40571D01*
X37640Y-40571D01*
X38034Y-40571D01*
X38070Y-40556D01*
X38075Y-40551D01*
X38395Y-40551D01*
X38395Y-40551D01*
X38395Y-40551D01*
X38471Y-40536D01*
X38535Y-40494D01*
X38630Y-40399D01*
X38893Y-40399D01*
X39046Y-40368D01*
X39175Y-40282D01*
X39262Y-40152D01*
X39292Y-40000D01*
X39292Y-43286D01*
X39282Y-43286D01*
X39282Y-41280D01*
X39282Y-40680D01*
X39267Y-40643D01*
X39239Y-40615D01*
X39202Y-40600D01*
X39163Y-40600D01*
X38297Y-40600D01*
X38260Y-40615D01*
X38232Y-40643D01*
X38217Y-40680D01*
X38217Y-40719D01*
X38217Y-41319D01*
X38232Y-41356D01*
X38260Y-41384D01*
X38297Y-41399D01*
X38336Y-41399D01*
X39202Y-41399D01*
X39239Y-41384D01*
X39267Y-41356D01*
X39282Y-41319D01*
X39282Y-41280D01*
X39282Y-43286D01*
X38543Y-43286D01*
X38507Y-43301D01*
X38479Y-43329D01*
X38464Y-43365D01*
X38464Y-43405D01*
X38464Y-43933D01*
X38442Y-43954D01*
X38400Y-44018D01*
X38385Y-44094D01*
X38385Y-44094D01*
X38385Y-44298D01*
X38350Y-44332D01*
X38308Y-44433D01*
X38308Y-44542D01*
X38350Y-44643D01*
X38427Y-44720D01*
X38527Y-44762D01*
X38636Y-44762D01*
X38737Y-44720D01*
X38815Y-44643D01*
X38856Y-44542D01*
X38856Y-44433D01*
X38815Y-44333D01*
X38780Y-44298D01*
X38780Y-44176D01*
X38841Y-44115D01*
X39074Y-44115D01*
X39074Y-44390D01*
X39074Y-44390D01*
X39089Y-44465D01*
X39095Y-44475D01*
X39095Y-44542D01*
X39137Y-44643D01*
X39214Y-44720D01*
X39315Y-44762D01*
X39424Y-44762D01*
X39525Y-44720D01*
X39602Y-44643D01*
X39644Y-44542D01*
X39644Y-44433D01*
X39602Y-44333D01*
X39525Y-44255D01*
X39469Y-44232D01*
X39469Y-44115D01*
X39504Y-44115D01*
X39883Y-44493D01*
X39883Y-44542D01*
X39924Y-44643D01*
X40001Y-44720D01*
X40102Y-44762D01*
X40211Y-44762D01*
X40312Y-44720D01*
X40389Y-44643D01*
X40431Y-44542D01*
X40431Y-44433D01*
X40431Y-45542D01*
X40157Y-45542D01*
X37911Y-45542D01*
X37911Y-43996D01*
X37911Y-43405D01*
X37911Y-43366D01*
X37896Y-43330D01*
X37869Y-43303D01*
X37833Y-43288D01*
X37408Y-43288D01*
X37408Y-31687D01*
X37408Y-31469D01*
X37408Y-31364D01*
X37408Y-31147D01*
X37384Y-31123D01*
X37281Y-31123D01*
X37281Y-30038D01*
X37281Y-29802D01*
X37279Y-29797D01*
X37279Y-29449D01*
X37279Y-29174D01*
X37265Y-29138D01*
X37237Y-29111D01*
X37202Y-29096D01*
X37163Y-29096D01*
X37062Y-29096D01*
X37037Y-29121D01*
X37037Y-29259D01*
X37255Y-29259D01*
X37279Y-29235D01*
X37279Y-29174D01*
X37279Y-29449D01*
X37279Y-29388D01*
X37255Y-29364D01*
X37037Y-29364D01*
X37037Y-29502D01*
X37062Y-29527D01*
X37163Y-29527D01*
X37202Y-29527D01*
X37237Y-29512D01*
X37265Y-29485D01*
X37279Y-29449D01*
X37279Y-29797D01*
X37266Y-29765D01*
X37238Y-29737D01*
X37202Y-29722D01*
X37162Y-29722D01*
X36933Y-29722D01*
X36933Y-29502D01*
X36933Y-29364D01*
X36925Y-29364D01*
X36925Y-29259D01*
X36933Y-29259D01*
X36933Y-29121D01*
X36908Y-29096D01*
X36807Y-29096D01*
X36769Y-29096D01*
X36733Y-29111D01*
X36711Y-29133D01*
X36711Y-29036D01*
X36696Y-29000D01*
X36669Y-28973D01*
X36633Y-28958D01*
X36595Y-28958D01*
X36493Y-28958D01*
X36469Y-28983D01*
X36469Y-29180D01*
X36477Y-29180D01*
X36477Y-29285D01*
X36469Y-29285D01*
X36469Y-29482D01*
X36493Y-29507D01*
X36595Y-29507D01*
X36633Y-29507D01*
X36669Y-29492D01*
X36696Y-29465D01*
X36697Y-29463D01*
X36706Y-29485D01*
X36733Y-29512D01*
X36769Y-29527D01*
X36807Y-29527D01*
X36908Y-29527D01*
X36933Y-29502D01*
X36933Y-29722D01*
X36768Y-29722D01*
X36732Y-29737D01*
X36704Y-29765D01*
X36697Y-29781D01*
X36694Y-29781D01*
X36670Y-29757D01*
X36634Y-29742D01*
X36594Y-29742D01*
X36200Y-29742D01*
X36164Y-29757D01*
X36147Y-29774D01*
X36100Y-29728D01*
X36023Y-29696D01*
X36060Y-29681D01*
X36137Y-29604D01*
X36179Y-29503D01*
X36179Y-29498D01*
X36200Y-29507D01*
X36239Y-29507D01*
X36340Y-29507D01*
X36364Y-29482D01*
X36364Y-29285D01*
X36364Y-29180D01*
X36364Y-28983D01*
X36340Y-28958D01*
X36239Y-28958D01*
X36200Y-28958D01*
X36165Y-28973D01*
X36137Y-29000D01*
X36123Y-29036D01*
X36123Y-29156D01*
X36147Y-29180D01*
X36364Y-29180D01*
X36364Y-29285D01*
X36147Y-29285D01*
X36138Y-29294D01*
X36138Y-29293D01*
X36094Y-29249D01*
X36094Y-28959D01*
X36157Y-28895D01*
X36164Y-28902D01*
X36200Y-28917D01*
X36239Y-28917D01*
X36633Y-28917D01*
X36670Y-28902D01*
X36698Y-28874D01*
X36713Y-28837D01*
X36713Y-28798D01*
X36713Y-28745D01*
X36732Y-28764D01*
X36768Y-28779D01*
X36808Y-28779D01*
X37202Y-28779D01*
X37238Y-28764D01*
X37266Y-28736D01*
X37281Y-28699D01*
X37281Y-28660D01*
X37281Y-28424D01*
X37279Y-28419D01*
X37279Y-28071D01*
X37279Y-27796D01*
X37265Y-27761D01*
X37237Y-27733D01*
X37202Y-27718D01*
X37163Y-27718D01*
X37062Y-27718D01*
X37037Y-27743D01*
X37037Y-27881D01*
X37255Y-27881D01*
X37279Y-27857D01*
X37279Y-27796D01*
X37279Y-28071D01*
X37279Y-28010D01*
X37255Y-27986D01*
X37037Y-27986D01*
X37037Y-28124D01*
X37062Y-28149D01*
X37163Y-28149D01*
X37202Y-28149D01*
X37237Y-28134D01*
X37265Y-28107D01*
X37279Y-28071D01*
X37279Y-28419D01*
X37266Y-28387D01*
X37238Y-28359D01*
X37202Y-28344D01*
X37162Y-28344D01*
X36933Y-28344D01*
X36933Y-28124D01*
X36933Y-27986D01*
X36925Y-27986D01*
X36925Y-27881D01*
X36933Y-27881D01*
X36933Y-27743D01*
X36908Y-27718D01*
X36807Y-27718D01*
X36769Y-27718D01*
X36733Y-27733D01*
X36711Y-27755D01*
X36711Y-27658D01*
X36696Y-27623D01*
X36669Y-27595D01*
X36633Y-27580D01*
X36595Y-27580D01*
X36493Y-27580D01*
X36469Y-27605D01*
X36469Y-27802D01*
X36477Y-27802D01*
X36477Y-27907D01*
X36469Y-27907D01*
X36469Y-28104D01*
X36493Y-28129D01*
X36595Y-28129D01*
X36633Y-28129D01*
X36669Y-28114D01*
X36696Y-28087D01*
X36697Y-28085D01*
X36706Y-28107D01*
X36733Y-28134D01*
X36769Y-28149D01*
X36807Y-28149D01*
X36908Y-28149D01*
X36933Y-28124D01*
X36933Y-28344D01*
X36768Y-28344D01*
X36732Y-28359D01*
X36704Y-28387D01*
X36697Y-28403D01*
X36694Y-28403D01*
X36670Y-28379D01*
X36634Y-28364D01*
X36594Y-28364D01*
X36364Y-28364D01*
X36364Y-28104D01*
X36364Y-27907D01*
X36364Y-27802D01*
X36364Y-27605D01*
X36340Y-27580D01*
X36239Y-27580D01*
X36200Y-27580D01*
X36165Y-27595D01*
X36137Y-27623D01*
X36123Y-27658D01*
X36123Y-27778D01*
X36147Y-27802D01*
X36364Y-27802D01*
X36364Y-27907D01*
X36147Y-27907D01*
X36123Y-27931D01*
X36123Y-28051D01*
X36137Y-28087D01*
X36165Y-28114D01*
X36200Y-28129D01*
X36239Y-28129D01*
X36340Y-28129D01*
X36364Y-28104D01*
X36364Y-28364D01*
X36200Y-28364D01*
X36164Y-28379D01*
X36136Y-28407D01*
X36121Y-28444D01*
X36121Y-28483D01*
X36121Y-28518D01*
X36115Y-28522D01*
X36096Y-28535D01*
X35839Y-28792D01*
X35807Y-28840D01*
X35795Y-28897D01*
X35795Y-29197D01*
X35750Y-29216D01*
X35673Y-29293D01*
X35631Y-29394D01*
X35631Y-29503D01*
X35672Y-29603D01*
X35749Y-29681D01*
X35826Y-29712D01*
X35789Y-29728D01*
X35712Y-29805D01*
X35670Y-29905D01*
X35670Y-30014D01*
X35712Y-30115D01*
X35789Y-30192D01*
X35890Y-30234D01*
X35999Y-30234D01*
X36100Y-30193D01*
X36121Y-30172D01*
X36121Y-30215D01*
X36136Y-30252D01*
X36164Y-30280D01*
X36200Y-30295D01*
X36239Y-30295D01*
X36633Y-30295D01*
X36670Y-30280D01*
X36698Y-30252D01*
X36713Y-30215D01*
X36713Y-30176D01*
X36713Y-30123D01*
X36732Y-30142D01*
X36768Y-30157D01*
X36808Y-30157D01*
X37202Y-30157D01*
X37238Y-30142D01*
X37266Y-30114D01*
X37281Y-30077D01*
X37281Y-30038D01*
X37281Y-31123D01*
X37279Y-31123D01*
X37279Y-30827D01*
X37279Y-30552D01*
X37265Y-30516D01*
X37237Y-30489D01*
X37202Y-30474D01*
X37163Y-30474D01*
X37062Y-30474D01*
X37037Y-30499D01*
X37037Y-30637D01*
X37255Y-30637D01*
X37279Y-30613D01*
X37279Y-30552D01*
X37279Y-30827D01*
X37279Y-30766D01*
X37255Y-30742D01*
X37037Y-30742D01*
X37037Y-30880D01*
X37062Y-30905D01*
X37163Y-30905D01*
X37202Y-30905D01*
X37237Y-30890D01*
X37265Y-30862D01*
X37279Y-30827D01*
X37279Y-31123D01*
X37265Y-31123D01*
X37229Y-31137D01*
X37201Y-31165D01*
X37187Y-31200D01*
X37187Y-31239D01*
X37187Y-31340D01*
X37211Y-31364D01*
X37408Y-31364D01*
X37408Y-31469D01*
X37211Y-31469D01*
X37187Y-31493D01*
X37187Y-31595D01*
X37187Y-31633D01*
X37201Y-31669D01*
X37229Y-31696D01*
X37265Y-31711D01*
X37384Y-31711D01*
X37408Y-31687D01*
X37408Y-43288D01*
X37279Y-43288D01*
X37279Y-40866D01*
X37279Y-40592D01*
X37265Y-40556D01*
X37237Y-40528D01*
X37202Y-40514D01*
X37163Y-40514D01*
X37062Y-40514D01*
X37037Y-40538D01*
X37037Y-40676D01*
X37255Y-40676D01*
X37279Y-40652D01*
X37279Y-40592D01*
X37279Y-40866D01*
X37279Y-40806D01*
X37255Y-40781D01*
X37037Y-40781D01*
X37037Y-40920D01*
X37062Y-40944D01*
X37163Y-40944D01*
X37202Y-40944D01*
X37237Y-40929D01*
X37265Y-40902D01*
X37279Y-40866D01*
X37279Y-43288D01*
X37182Y-43288D01*
X37158Y-43312D01*
X37158Y-43648D01*
X37887Y-43648D01*
X37911Y-43624D01*
X37911Y-43405D01*
X37911Y-43996D01*
X37911Y-43777D01*
X37887Y-43753D01*
X37158Y-43753D01*
X37158Y-44088D01*
X37182Y-44113D01*
X37833Y-44113D01*
X37869Y-44098D01*
X37896Y-44070D01*
X37911Y-44035D01*
X37911Y-43996D01*
X37911Y-45542D01*
X37053Y-45542D01*
X37053Y-44088D01*
X37053Y-43753D01*
X37053Y-43648D01*
X37053Y-43312D01*
X37029Y-43288D01*
X36933Y-43288D01*
X36933Y-40920D01*
X36933Y-40781D01*
X36925Y-40781D01*
X36925Y-40676D01*
X36933Y-40676D01*
X36933Y-40538D01*
X36908Y-40514D01*
X36807Y-40514D01*
X36769Y-40514D01*
X36733Y-40528D01*
X36711Y-40550D01*
X36711Y-40454D01*
X36696Y-40418D01*
X36669Y-40390D01*
X36633Y-40376D01*
X36595Y-40376D01*
X36493Y-40376D01*
X36469Y-40400D01*
X36469Y-40597D01*
X36477Y-40597D01*
X36477Y-40702D01*
X36469Y-40702D01*
X36469Y-40900D01*
X36493Y-40924D01*
X36595Y-40924D01*
X36633Y-40924D01*
X36669Y-40909D01*
X36696Y-40882D01*
X36697Y-40881D01*
X36706Y-40902D01*
X36733Y-40929D01*
X36769Y-40944D01*
X36807Y-40944D01*
X36908Y-40944D01*
X36933Y-40920D01*
X36933Y-43288D01*
X36378Y-43288D01*
X36342Y-43303D01*
X36315Y-43330D01*
X36300Y-43366D01*
X36300Y-43405D01*
X36300Y-43624D01*
X36324Y-43648D01*
X37053Y-43648D01*
X37053Y-43753D01*
X36324Y-43753D01*
X36300Y-43777D01*
X36300Y-43996D01*
X36300Y-44035D01*
X36315Y-44070D01*
X36342Y-44098D01*
X36378Y-44113D01*
X37029Y-44113D01*
X37053Y-44088D01*
X37053Y-45542D01*
X35847Y-45542D01*
X35847Y-42719D01*
X35847Y-42325D01*
X35832Y-42288D01*
X35804Y-42260D01*
X35767Y-42245D01*
X35728Y-42245D01*
X35608Y-42245D01*
X35608Y-41319D01*
X35608Y-40963D01*
X35608Y-40925D01*
X35593Y-40889D01*
X35565Y-40862D01*
X35530Y-40847D01*
X35410Y-40847D01*
X35386Y-40871D01*
X35386Y-41089D01*
X35583Y-41089D01*
X35608Y-41065D01*
X35608Y-40963D01*
X35608Y-41319D01*
X35608Y-41218D01*
X35583Y-41194D01*
X35386Y-41194D01*
X35386Y-41201D01*
X35281Y-41201D01*
X35281Y-41194D01*
X35281Y-41089D01*
X35281Y-40871D01*
X35257Y-40847D01*
X35137Y-40847D01*
X35101Y-40862D01*
X35074Y-40889D01*
X35059Y-40925D01*
X35059Y-40963D01*
X35059Y-41065D01*
X35083Y-41089D01*
X35281Y-41089D01*
X35281Y-41194D01*
X35083Y-41194D01*
X35059Y-41218D01*
X35059Y-41319D01*
X35059Y-41358D01*
X35074Y-41393D01*
X35101Y-41421D01*
X35103Y-41421D01*
X35081Y-41430D01*
X35054Y-41457D01*
X35039Y-41493D01*
X35039Y-41532D01*
X35039Y-41633D01*
X35063Y-41657D01*
X35202Y-41657D01*
X35202Y-41649D01*
X35281Y-41649D01*
X35307Y-41649D01*
X35307Y-41657D01*
X35445Y-41657D01*
X35470Y-41633D01*
X35470Y-41532D01*
X35470Y-41493D01*
X35455Y-41457D01*
X35433Y-41435D01*
X35530Y-41435D01*
X35565Y-41421D01*
X35593Y-41393D01*
X35608Y-41358D01*
X35608Y-41319D01*
X35608Y-42245D01*
X35492Y-42245D01*
X35470Y-42254D01*
X35470Y-41887D01*
X35470Y-41786D01*
X35445Y-41762D01*
X35307Y-41762D01*
X35307Y-41979D01*
X35331Y-42004D01*
X35392Y-42004D01*
X35427Y-41989D01*
X35455Y-41962D01*
X35470Y-41926D01*
X35470Y-41887D01*
X35470Y-42254D01*
X35455Y-42260D01*
X35427Y-42288D01*
X35412Y-42325D01*
X35412Y-42364D01*
X35412Y-42758D01*
X35427Y-42795D01*
X35432Y-42799D01*
X35432Y-43007D01*
X35402Y-42987D01*
X35281Y-42963D01*
X35250Y-42957D01*
X35202Y-42966D01*
X35202Y-41979D01*
X35202Y-41762D01*
X35063Y-41762D01*
X35039Y-41786D01*
X35039Y-41887D01*
X35039Y-41926D01*
X35054Y-41962D01*
X35081Y-41989D01*
X35117Y-42004D01*
X35178Y-42004D01*
X35202Y-41979D01*
X35202Y-42966D01*
X35097Y-42987D01*
X34967Y-43074D01*
X34881Y-43203D01*
X34850Y-43356D01*
X34850Y-43643D01*
X34881Y-43796D01*
X34967Y-43925D01*
X35097Y-44012D01*
X35250Y-44042D01*
X35402Y-44012D01*
X35532Y-43925D01*
X35618Y-43796D01*
X35649Y-43643D01*
X35649Y-43380D01*
X35769Y-43259D01*
X35812Y-43195D01*
X35812Y-43195D01*
X35827Y-43120D01*
X35827Y-42799D01*
X35831Y-42795D01*
X35847Y-42758D01*
X35847Y-42719D01*
X35847Y-45542D01*
X34649Y-45542D01*
X34649Y-43643D01*
X34649Y-43356D01*
X34618Y-43203D01*
X34532Y-43074D01*
X34449Y-43019D01*
X34449Y-42799D01*
X34454Y-42795D01*
X34469Y-42758D01*
X34469Y-42719D01*
X34469Y-42325D01*
X34454Y-42288D01*
X34426Y-42260D01*
X34389Y-42245D01*
X34350Y-42245D01*
X34230Y-42245D01*
X34230Y-41319D01*
X34230Y-40963D01*
X34230Y-40925D01*
X34215Y-40889D01*
X34187Y-40862D01*
X34152Y-40847D01*
X34032Y-40847D01*
X34008Y-40871D01*
X34008Y-41089D01*
X34205Y-41089D01*
X34230Y-41065D01*
X34230Y-40963D01*
X34230Y-41319D01*
X34230Y-41218D01*
X34205Y-41194D01*
X34008Y-41194D01*
X34008Y-41201D01*
X33903Y-41201D01*
X33903Y-41194D01*
X33903Y-41089D01*
X33903Y-40871D01*
X33879Y-40847D01*
X33759Y-40847D01*
X33723Y-40862D01*
X33696Y-40889D01*
X33681Y-40925D01*
X33681Y-40963D01*
X33681Y-41065D01*
X33706Y-41089D01*
X33903Y-41089D01*
X33903Y-41194D01*
X33706Y-41194D01*
X33681Y-41218D01*
X33681Y-41319D01*
X33681Y-41358D01*
X33696Y-41393D01*
X33723Y-41421D01*
X33725Y-41421D01*
X33703Y-41430D01*
X33676Y-41457D01*
X33661Y-41493D01*
X33661Y-41532D01*
X33661Y-41633D01*
X33686Y-41657D01*
X33824Y-41657D01*
X33824Y-41649D01*
X33903Y-41649D01*
X33929Y-41649D01*
X33929Y-41657D01*
X34067Y-41657D01*
X34092Y-41633D01*
X34092Y-41532D01*
X34092Y-41493D01*
X34077Y-41457D01*
X34055Y-41435D01*
X34152Y-41435D01*
X34187Y-41421D01*
X34215Y-41393D01*
X34230Y-41358D01*
X34230Y-41319D01*
X34230Y-42245D01*
X34114Y-42245D01*
X34092Y-42254D01*
X34092Y-41887D01*
X34092Y-41786D01*
X34067Y-41762D01*
X33929Y-41762D01*
X33929Y-41979D01*
X33953Y-42004D01*
X34014Y-42004D01*
X34049Y-41989D01*
X34077Y-41962D01*
X34092Y-41926D01*
X34092Y-41887D01*
X34092Y-42254D01*
X34077Y-42260D01*
X34049Y-42288D01*
X34034Y-42325D01*
X34034Y-42364D01*
X34034Y-42758D01*
X34049Y-42795D01*
X34054Y-42799D01*
X34054Y-43016D01*
X33967Y-43074D01*
X33903Y-43170D01*
X33881Y-43203D01*
X33850Y-43356D01*
X33850Y-43643D01*
X33881Y-43796D01*
X33967Y-43925D01*
X34097Y-44012D01*
X34250Y-44042D01*
X34402Y-44012D01*
X34532Y-43925D01*
X34618Y-43796D01*
X34649Y-43643D01*
X34649Y-45542D01*
X33824Y-45542D01*
X33824Y-41979D01*
X33824Y-41762D01*
X33686Y-41762D01*
X33661Y-41786D01*
X33661Y-41887D01*
X33661Y-41926D01*
X33676Y-41962D01*
X33703Y-41989D01*
X33739Y-42004D01*
X33800Y-42004D01*
X33824Y-41979D01*
X33824Y-45542D01*
X33649Y-45542D01*
X33649Y-43643D01*
X33649Y-43356D01*
X33618Y-43203D01*
X33532Y-43074D01*
X33402Y-42987D01*
X33250Y-42957D01*
X33097Y-42987D01*
X33071Y-43004D01*
X33071Y-42799D01*
X33076Y-42795D01*
X33091Y-42758D01*
X33091Y-42719D01*
X33091Y-42325D01*
X33076Y-42288D01*
X33048Y-42260D01*
X33011Y-42245D01*
X32972Y-42245D01*
X32852Y-42245D01*
X32852Y-41319D01*
X32852Y-40963D01*
X32852Y-40925D01*
X32837Y-40889D01*
X32810Y-40862D01*
X32774Y-40847D01*
X32654Y-40847D01*
X32630Y-40871D01*
X32630Y-41089D01*
X32827Y-41089D01*
X32852Y-41065D01*
X32852Y-40963D01*
X32852Y-41319D01*
X32852Y-41218D01*
X32827Y-41194D01*
X32630Y-41194D01*
X32630Y-41201D01*
X32525Y-41201D01*
X32525Y-41194D01*
X32525Y-41089D01*
X32525Y-40871D01*
X32501Y-40847D01*
X32381Y-40847D01*
X32346Y-40862D01*
X32318Y-40889D01*
X32303Y-40925D01*
X32303Y-40963D01*
X32303Y-41065D01*
X32328Y-41089D01*
X32525Y-41089D01*
X32525Y-41194D01*
X32328Y-41194D01*
X32303Y-41218D01*
X32303Y-41319D01*
X32303Y-41358D01*
X32318Y-41393D01*
X32346Y-41421D01*
X32347Y-41421D01*
X32326Y-41430D01*
X32298Y-41457D01*
X32283Y-41493D01*
X32283Y-41532D01*
X32283Y-41633D01*
X32308Y-41657D01*
X32446Y-41657D01*
X32446Y-41649D01*
X32525Y-41649D01*
X32551Y-41649D01*
X32551Y-41657D01*
X32689Y-41657D01*
X32714Y-41633D01*
X32714Y-41532D01*
X32714Y-41493D01*
X32699Y-41457D01*
X32677Y-41435D01*
X32774Y-41435D01*
X32810Y-41421D01*
X32837Y-41393D01*
X32852Y-41358D01*
X32852Y-41319D01*
X32852Y-42245D01*
X32736Y-42245D01*
X32714Y-42254D01*
X32714Y-41887D01*
X32714Y-41786D01*
X32689Y-41762D01*
X32551Y-41762D01*
X32551Y-41979D01*
X32575Y-42004D01*
X32636Y-42004D01*
X32672Y-41989D01*
X32699Y-41962D01*
X32714Y-41926D01*
X32714Y-41887D01*
X32714Y-42254D01*
X32699Y-42260D01*
X32671Y-42288D01*
X32656Y-42325D01*
X32656Y-42364D01*
X32656Y-42758D01*
X32671Y-42795D01*
X32676Y-42799D01*
X32676Y-43124D01*
X32676Y-43124D01*
X32691Y-43199D01*
X32734Y-43263D01*
X32850Y-43380D01*
X32850Y-43643D01*
X32881Y-43796D01*
X32967Y-43925D01*
X33097Y-44012D01*
X33250Y-44042D01*
X33402Y-44012D01*
X33532Y-43925D01*
X33618Y-43796D01*
X33649Y-43643D01*
X33649Y-45542D01*
X32649Y-45542D01*
X32649Y-43913D01*
X32649Y-43047D01*
X32634Y-43010D01*
X32606Y-42982D01*
X32569Y-42967D01*
X32530Y-42967D01*
X32525Y-42967D01*
X32446Y-42967D01*
X32446Y-41979D01*
X32446Y-41762D01*
X32308Y-41762D01*
X32283Y-41786D01*
X32283Y-41887D01*
X32283Y-41926D01*
X32298Y-41962D01*
X32326Y-41989D01*
X32361Y-42004D01*
X32422Y-42004D01*
X32446Y-41979D01*
X32446Y-42967D01*
X31930Y-42967D01*
X31893Y-42982D01*
X31865Y-43010D01*
X31850Y-43047D01*
X31850Y-43086D01*
X31850Y-43952D01*
X31865Y-43989D01*
X31893Y-44017D01*
X31930Y-44032D01*
X31969Y-44032D01*
X32569Y-44032D01*
X32606Y-44017D01*
X32634Y-43989D01*
X32649Y-43952D01*
X32649Y-43913D01*
X32649Y-45542D01*
X31770Y-45542D01*
X31770Y-44827D01*
X31728Y-44726D01*
X31693Y-44691D01*
X31693Y-44488D01*
X31693Y-44488D01*
X31693Y-44488D01*
X31690Y-44473D01*
X31678Y-44412D01*
X31678Y-44412D01*
X31635Y-44348D01*
X31635Y-44348D01*
X31490Y-44203D01*
X31490Y-43665D01*
X31475Y-43628D01*
X31447Y-43600D01*
X31411Y-43585D01*
X31371Y-43585D01*
X29954Y-43585D01*
X29918Y-43600D01*
X29890Y-43628D01*
X29875Y-43665D01*
X29875Y-43704D01*
X29875Y-44254D01*
X29781Y-44348D01*
X29738Y-44412D01*
X29723Y-44488D01*
X29723Y-44488D01*
X29723Y-44691D01*
X29688Y-44726D01*
X29647Y-44827D01*
X29647Y-44936D01*
X29688Y-45037D01*
X29765Y-45114D01*
X29866Y-45156D01*
X29975Y-45156D01*
X30076Y-45114D01*
X30153Y-45037D01*
X30195Y-44936D01*
X30195Y-44827D01*
X30153Y-44726D01*
X30118Y-44691D01*
X30118Y-44570D01*
X30274Y-44414D01*
X30485Y-44414D01*
X30485Y-44717D01*
X30476Y-44726D01*
X30434Y-44827D01*
X30434Y-44936D01*
X30476Y-45037D01*
X30553Y-45114D01*
X30653Y-45156D01*
X30762Y-45156D01*
X30863Y-45114D01*
X30940Y-45037D01*
X30982Y-44936D01*
X30982Y-44827D01*
X30941Y-44726D01*
X30880Y-44666D01*
X30880Y-44414D01*
X31142Y-44414D01*
X31298Y-44570D01*
X31298Y-44691D01*
X31263Y-44726D01*
X31221Y-44827D01*
X31221Y-44936D01*
X31263Y-45037D01*
X31340Y-45114D01*
X31441Y-45156D01*
X31550Y-45156D01*
X31651Y-45114D01*
X31728Y-45037D01*
X31770Y-44936D01*
X31770Y-44827D01*
X31770Y-45542D01*
X29322Y-45542D01*
X29322Y-44295D01*
X29322Y-43704D01*
X29322Y-43665D01*
X29307Y-43629D01*
X29280Y-43602D01*
X29244Y-43587D01*
X28593Y-43587D01*
X28569Y-43612D01*
X28569Y-43947D01*
X29298Y-43947D01*
X29322Y-43923D01*
X29322Y-43704D01*
X29322Y-44295D01*
X29322Y-44076D01*
X29298Y-44052D01*
X28569Y-44052D01*
X28569Y-44387D01*
X28593Y-44412D01*
X29244Y-44412D01*
X29280Y-44397D01*
X29307Y-44370D01*
X29322Y-44334D01*
X29322Y-44295D01*
X29322Y-45542D01*
X28464Y-45542D01*
X28464Y-44387D01*
X28464Y-44052D01*
X28464Y-43947D01*
X28464Y-43612D01*
X28440Y-43587D01*
X27789Y-43587D01*
X27753Y-43602D01*
X27726Y-43629D01*
X27711Y-43665D01*
X27711Y-43704D01*
X27711Y-43923D01*
X27735Y-43947D01*
X28464Y-43947D01*
X28464Y-44052D01*
X27735Y-44052D01*
X27711Y-44076D01*
X27711Y-44295D01*
X27711Y-44334D01*
X27726Y-44370D01*
X27753Y-44397D01*
X27789Y-44412D01*
X28440Y-44412D01*
X28464Y-44387D01*
X28464Y-45542D01*
X27573Y-45542D01*
X27573Y-43628D01*
X27573Y-43371D01*
X27525Y-43255D01*
X27399Y-43111D01*
X27228Y-43026D01*
X27152Y-43036D01*
X27152Y-43447D01*
X27563Y-43447D01*
X27573Y-43371D01*
X27573Y-43628D01*
X27563Y-43552D01*
X27152Y-43552D01*
X27152Y-43963D01*
X27228Y-43973D01*
X27399Y-43888D01*
X27525Y-43744D01*
X27573Y-43628D01*
X27573Y-45542D01*
X27047Y-45542D01*
X27047Y-43963D01*
X27047Y-43552D01*
X27047Y-43447D01*
X27047Y-43036D01*
X26971Y-43026D01*
X26800Y-43111D01*
X26674Y-43255D01*
X26626Y-43371D01*
X26636Y-43447D01*
X27047Y-43447D01*
X27047Y-43552D01*
X26636Y-43552D01*
X26626Y-43628D01*
X26674Y-43744D01*
X26800Y-43888D01*
X26971Y-43973D01*
X27047Y-43963D01*
X27047Y-45542D01*
X24536Y-45542D01*
X24536Y-43251D01*
X24823Y-42963D01*
X25922Y-42963D01*
X25922Y-43007D01*
X25686Y-43007D01*
X25650Y-43022D01*
X25622Y-43050D01*
X25607Y-43086D01*
X25607Y-43126D01*
X25607Y-43913D01*
X25622Y-43949D01*
X25650Y-43977D01*
X25686Y-43992D01*
X25726Y-43992D01*
X26513Y-43992D01*
X26549Y-43977D01*
X26577Y-43949D01*
X26592Y-43913D01*
X26592Y-43873D01*
X26592Y-43086D01*
X26577Y-43050D01*
X26549Y-43022D01*
X26513Y-43007D01*
X26473Y-43007D01*
X26277Y-43007D01*
X26277Y-42963D01*
X31516Y-42963D01*
X31939Y-42540D01*
X31939Y-40965D01*
X32697Y-40207D01*
X33878Y-40207D01*
X34695Y-39390D01*
X34695Y-33850D01*
X34772Y-33850D01*
X34772Y-39741D01*
X33993Y-40520D01*
X33385Y-40520D01*
X33328Y-40531D01*
X33280Y-40563D01*
X33064Y-40779D01*
X33032Y-40828D01*
X33028Y-40845D01*
X32973Y-40845D01*
X32936Y-40860D01*
X32908Y-40888D01*
X32893Y-40924D01*
X32893Y-40964D01*
X32893Y-41358D01*
X32908Y-41394D01*
X32936Y-41422D01*
X32973Y-41437D01*
X33012Y-41437D01*
X33065Y-41437D01*
X33046Y-41456D01*
X33031Y-41493D01*
X33031Y-41532D01*
X33031Y-41926D01*
X33046Y-41963D01*
X33074Y-41991D01*
X33111Y-42006D01*
X33150Y-42006D01*
X33386Y-42006D01*
X33423Y-41991D01*
X33451Y-41963D01*
X33466Y-41926D01*
X33466Y-41887D01*
X33466Y-41493D01*
X33451Y-41456D01*
X33423Y-41428D01*
X33407Y-41422D01*
X33407Y-41418D01*
X33431Y-41395D01*
X33446Y-41358D01*
X33446Y-41319D01*
X33446Y-40925D01*
X33431Y-40888D01*
X33404Y-40861D01*
X33447Y-40818D01*
X34055Y-40818D01*
X34055Y-40818D01*
X34112Y-40807D01*
X34160Y-40774D01*
X34398Y-40536D01*
X34398Y-40845D01*
X34351Y-40845D01*
X34314Y-40860D01*
X34286Y-40888D01*
X34271Y-40924D01*
X34271Y-40964D01*
X34271Y-41358D01*
X34286Y-41394D01*
X34314Y-41422D01*
X34351Y-41437D01*
X34390Y-41437D01*
X34443Y-41437D01*
X34424Y-41456D01*
X34409Y-41493D01*
X34409Y-41532D01*
X34409Y-41926D01*
X34424Y-41963D01*
X34452Y-41991D01*
X34489Y-42006D01*
X34528Y-42006D01*
X34764Y-42006D01*
X34801Y-41991D01*
X34829Y-41963D01*
X34844Y-41926D01*
X34844Y-41887D01*
X34844Y-41493D01*
X34829Y-41456D01*
X34801Y-41428D01*
X34785Y-41422D01*
X34785Y-41418D01*
X34809Y-41395D01*
X34824Y-41358D01*
X34824Y-41319D01*
X34824Y-40925D01*
X34809Y-40888D01*
X34781Y-40860D01*
X34744Y-40845D01*
X34705Y-40845D01*
X34697Y-40845D01*
X34697Y-40513D01*
X35157Y-40053D01*
X35776Y-40672D01*
X35776Y-40845D01*
X35729Y-40845D01*
X35692Y-40860D01*
X35664Y-40888D01*
X35649Y-40924D01*
X35649Y-40964D01*
X35649Y-41358D01*
X35664Y-41394D01*
X35692Y-41422D01*
X35729Y-41437D01*
X35768Y-41437D01*
X35821Y-41437D01*
X35802Y-41456D01*
X35787Y-41493D01*
X35787Y-41532D01*
X35787Y-41926D01*
X35802Y-41963D01*
X35830Y-41991D01*
X35867Y-42006D01*
X35906Y-42006D01*
X36142Y-42006D01*
X36179Y-41991D01*
X36206Y-41963D01*
X36222Y-41926D01*
X36222Y-41887D01*
X36222Y-41493D01*
X36207Y-41456D01*
X36179Y-41428D01*
X36163Y-41422D01*
X36163Y-41418D01*
X36186Y-41395D01*
X36202Y-41358D01*
X36202Y-41319D01*
X36202Y-40925D01*
X36201Y-40924D01*
X36239Y-40924D01*
X36340Y-40924D01*
X36364Y-40900D01*
X36364Y-40702D01*
X36364Y-40597D01*
X36364Y-40400D01*
X36340Y-40376D01*
X36239Y-40376D01*
X36200Y-40376D01*
X36165Y-40390D01*
X36137Y-40418D01*
X36123Y-40454D01*
X36123Y-40573D01*
X36147Y-40597D01*
X36364Y-40597D01*
X36364Y-40702D01*
X36147Y-40702D01*
X36123Y-40727D01*
X36123Y-40845D01*
X36122Y-40845D01*
X36083Y-40845D01*
X36075Y-40845D01*
X36075Y-40610D01*
X36075Y-40610D01*
X36063Y-40553D01*
X36044Y-40524D01*
X36031Y-40505D01*
X36031Y-40505D01*
X35385Y-39859D01*
X35385Y-39730D01*
X35818Y-40163D01*
X35818Y-40163D01*
X35867Y-40196D01*
X35924Y-40207D01*
X36121Y-40207D01*
X36121Y-40254D01*
X36136Y-40291D01*
X36164Y-40319D01*
X36200Y-40334D01*
X36239Y-40334D01*
X36633Y-40334D01*
X36670Y-40319D01*
X36698Y-40291D01*
X36713Y-40255D01*
X36713Y-40215D01*
X36713Y-40162D01*
X36732Y-40181D01*
X36768Y-40196D01*
X36808Y-40196D01*
X37202Y-40196D01*
X37238Y-40181D01*
X37266Y-40153D01*
X37281Y-40117D01*
X37281Y-40077D01*
X37281Y-39841D01*
X37279Y-39836D01*
X37279Y-39488D01*
X37279Y-39214D01*
X37265Y-39178D01*
X37237Y-39150D01*
X37202Y-39136D01*
X37163Y-39136D01*
X37062Y-39136D01*
X37037Y-39160D01*
X37037Y-39299D01*
X37255Y-39299D01*
X37279Y-39274D01*
X37279Y-39214D01*
X37279Y-39488D01*
X37279Y-39428D01*
X37255Y-39403D01*
X37037Y-39403D01*
X37037Y-39542D01*
X37062Y-39566D01*
X37163Y-39566D01*
X37202Y-39566D01*
X37237Y-39551D01*
X37265Y-39524D01*
X37279Y-39488D01*
X37279Y-39836D01*
X37266Y-39805D01*
X37238Y-39777D01*
X37202Y-39762D01*
X37162Y-39762D01*
X36933Y-39762D01*
X36933Y-39542D01*
X36933Y-39403D01*
X36925Y-39403D01*
X36925Y-39299D01*
X36933Y-39299D01*
X36933Y-39160D01*
X36908Y-39136D01*
X36807Y-39136D01*
X36769Y-39136D01*
X36733Y-39150D01*
X36711Y-39172D01*
X36711Y-39076D01*
X36696Y-39040D01*
X36669Y-39012D01*
X36633Y-38998D01*
X36595Y-38998D01*
X36493Y-38998D01*
X36469Y-39022D01*
X36469Y-39220D01*
X36477Y-39220D01*
X36477Y-39324D01*
X36469Y-39324D01*
X36469Y-39522D01*
X36493Y-39546D01*
X36595Y-39546D01*
X36633Y-39546D01*
X36669Y-39531D01*
X36696Y-39504D01*
X36697Y-39503D01*
X36706Y-39524D01*
X36733Y-39551D01*
X36769Y-39566D01*
X36807Y-39566D01*
X36908Y-39566D01*
X36933Y-39542D01*
X36933Y-39762D01*
X36768Y-39762D01*
X36732Y-39777D01*
X36704Y-39805D01*
X36697Y-39821D01*
X36694Y-39821D01*
X36670Y-39797D01*
X36634Y-39782D01*
X36594Y-39782D01*
X36364Y-39782D01*
X36364Y-39522D01*
X36364Y-39324D01*
X36364Y-39220D01*
X36364Y-39022D01*
X36340Y-38998D01*
X36239Y-38998D01*
X36200Y-38998D01*
X36165Y-39012D01*
X36137Y-39040D01*
X36123Y-39076D01*
X36123Y-39195D01*
X36147Y-39220D01*
X36364Y-39220D01*
X36364Y-39324D01*
X36147Y-39324D01*
X36123Y-39349D01*
X36123Y-39468D01*
X36137Y-39504D01*
X36165Y-39531D01*
X36200Y-39546D01*
X36239Y-39546D01*
X36340Y-39546D01*
X36364Y-39522D01*
X36364Y-39782D01*
X36200Y-39782D01*
X36164Y-39797D01*
X36136Y-39825D01*
X36121Y-39861D01*
X36121Y-39900D01*
X36121Y-39909D01*
X35986Y-39909D01*
X35542Y-39465D01*
X35542Y-38312D01*
X36015Y-38785D01*
X36015Y-38785D01*
X36064Y-38818D01*
X36121Y-38829D01*
X36121Y-38877D01*
X36136Y-38913D01*
X36164Y-38941D01*
X36200Y-38956D01*
X36239Y-38956D01*
X36633Y-38956D01*
X36670Y-38941D01*
X36698Y-38913D01*
X36713Y-38877D01*
X36713Y-38837D01*
X36713Y-38784D01*
X36732Y-38803D01*
X36768Y-38818D01*
X36808Y-38818D01*
X37202Y-38818D01*
X37238Y-38803D01*
X37266Y-38775D01*
X37281Y-38739D01*
X37281Y-38699D01*
X37281Y-38463D01*
X37279Y-38458D01*
X37279Y-38110D01*
X37279Y-37836D01*
X37265Y-37800D01*
X37237Y-37773D01*
X37202Y-37758D01*
X37163Y-37758D01*
X37062Y-37758D01*
X37037Y-37782D01*
X37037Y-37921D01*
X37255Y-37921D01*
X37279Y-37896D01*
X37279Y-37836D01*
X37279Y-38110D01*
X37279Y-38050D01*
X37255Y-38025D01*
X37037Y-38025D01*
X37037Y-38164D01*
X37062Y-38188D01*
X37163Y-38188D01*
X37202Y-38188D01*
X37237Y-38173D01*
X37265Y-38146D01*
X37279Y-38110D01*
X37279Y-38458D01*
X37266Y-38427D01*
X37238Y-38399D01*
X37202Y-38384D01*
X37162Y-38384D01*
X36933Y-38384D01*
X36933Y-38164D01*
X36933Y-38025D01*
X36925Y-38025D01*
X36925Y-37921D01*
X36933Y-37921D01*
X36933Y-37782D01*
X36908Y-37758D01*
X36807Y-37758D01*
X36769Y-37758D01*
X36733Y-37773D01*
X36711Y-37794D01*
X36711Y-37698D01*
X36696Y-37662D01*
X36669Y-37635D01*
X36633Y-37620D01*
X36595Y-37620D01*
X36493Y-37620D01*
X36469Y-37644D01*
X36469Y-37842D01*
X36477Y-37842D01*
X36477Y-37946D01*
X36469Y-37946D01*
X36469Y-38144D01*
X36493Y-38168D01*
X36595Y-38168D01*
X36633Y-38168D01*
X36669Y-38153D01*
X36696Y-38126D01*
X36697Y-38125D01*
X36706Y-38146D01*
X36733Y-38173D01*
X36769Y-38188D01*
X36807Y-38188D01*
X36908Y-38188D01*
X36933Y-38164D01*
X36933Y-38384D01*
X36768Y-38384D01*
X36732Y-38399D01*
X36704Y-38427D01*
X36697Y-38443D01*
X36694Y-38443D01*
X36670Y-38419D01*
X36634Y-38404D01*
X36594Y-38404D01*
X36364Y-38404D01*
X36364Y-38144D01*
X36364Y-37946D01*
X36364Y-37842D01*
X36364Y-37644D01*
X36340Y-37620D01*
X36239Y-37620D01*
X36200Y-37620D01*
X36165Y-37635D01*
X36137Y-37662D01*
X36123Y-37698D01*
X36123Y-37817D01*
X36147Y-37842D01*
X36364Y-37842D01*
X36364Y-37946D01*
X36147Y-37946D01*
X36123Y-37971D01*
X36123Y-38090D01*
X36137Y-38126D01*
X36165Y-38153D01*
X36200Y-38168D01*
X36239Y-38168D01*
X36340Y-38168D01*
X36364Y-38144D01*
X36364Y-38404D01*
X36200Y-38404D01*
X36164Y-38419D01*
X36136Y-38447D01*
X36125Y-38473D01*
X35700Y-38048D01*
X35700Y-37131D01*
X35976Y-37407D01*
X35976Y-37407D01*
X36024Y-37440D01*
X36081Y-37451D01*
X36081Y-37451D01*
X36121Y-37451D01*
X36121Y-37499D01*
X36136Y-37535D01*
X36164Y-37563D01*
X36200Y-37578D01*
X36239Y-37578D01*
X36633Y-37578D01*
X36670Y-37563D01*
X36698Y-37535D01*
X36713Y-37499D01*
X36713Y-37459D01*
X36713Y-37406D01*
X36732Y-37425D01*
X36768Y-37440D01*
X36808Y-37440D01*
X37202Y-37440D01*
X37238Y-37425D01*
X37266Y-37397D01*
X37281Y-37361D01*
X37281Y-37321D01*
X37281Y-37085D01*
X37279Y-37081D01*
X37279Y-35846D01*
X37279Y-35572D01*
X37265Y-35536D01*
X37237Y-35509D01*
X37202Y-35494D01*
X37163Y-35494D01*
X37062Y-35494D01*
X37037Y-35518D01*
X37037Y-35657D01*
X37255Y-35657D01*
X37279Y-35632D01*
X37279Y-35572D01*
X37279Y-35846D01*
X37279Y-35786D01*
X37255Y-35762D01*
X37037Y-35762D01*
X37037Y-35900D01*
X37062Y-35924D01*
X37163Y-35924D01*
X37202Y-35924D01*
X37237Y-35910D01*
X37265Y-35882D01*
X37279Y-35846D01*
X37279Y-37081D01*
X37266Y-37049D01*
X37238Y-37021D01*
X37202Y-37006D01*
X37162Y-37006D01*
X36933Y-37006D01*
X36933Y-35900D01*
X36933Y-35762D01*
X36925Y-35762D01*
X36925Y-35657D01*
X36933Y-35657D01*
X36933Y-35518D01*
X36908Y-35494D01*
X36807Y-35494D01*
X36769Y-35494D01*
X36733Y-35509D01*
X36711Y-35531D01*
X36711Y-35434D01*
X36696Y-35398D01*
X36669Y-35371D01*
X36633Y-35356D01*
X36595Y-35356D01*
X36493Y-35356D01*
X36469Y-35380D01*
X36469Y-35578D01*
X36477Y-35578D01*
X36477Y-35683D01*
X36469Y-35683D01*
X36469Y-35880D01*
X36493Y-35904D01*
X36595Y-35904D01*
X36633Y-35904D01*
X36669Y-35890D01*
X36696Y-35862D01*
X36697Y-35861D01*
X36706Y-35882D01*
X36733Y-35910D01*
X36769Y-35924D01*
X36807Y-35924D01*
X36908Y-35924D01*
X36933Y-35900D01*
X36933Y-37006D01*
X36768Y-37006D01*
X36732Y-37021D01*
X36704Y-37049D01*
X36697Y-37065D01*
X36694Y-37065D01*
X36670Y-37041D01*
X36634Y-37026D01*
X36594Y-37026D01*
X36364Y-37026D01*
X36364Y-35880D01*
X36364Y-35683D01*
X36364Y-35578D01*
X36364Y-35380D01*
X36340Y-35356D01*
X36239Y-35356D01*
X36200Y-35356D01*
X36165Y-35371D01*
X36137Y-35398D01*
X36123Y-35434D01*
X36123Y-35553D01*
X36147Y-35578D01*
X36364Y-35578D01*
X36364Y-35683D01*
X36147Y-35683D01*
X36123Y-35707D01*
X36123Y-35826D01*
X36137Y-35862D01*
X36165Y-35890D01*
X36200Y-35904D01*
X36239Y-35904D01*
X36340Y-35904D01*
X36364Y-35880D01*
X36364Y-37026D01*
X36200Y-37026D01*
X36164Y-37041D01*
X36136Y-37069D01*
X36121Y-37105D01*
X36121Y-37130D01*
X35857Y-36867D01*
X35857Y-34927D01*
X36074Y-35144D01*
X36074Y-35144D01*
X36121Y-35175D01*
X36121Y-35235D01*
X36136Y-35271D01*
X36164Y-35299D01*
X36200Y-35314D01*
X36239Y-35314D01*
X36633Y-35314D01*
X36670Y-35299D01*
X36698Y-35271D01*
X36713Y-35235D01*
X36713Y-35195D01*
X36713Y-35142D01*
X36732Y-35161D01*
X36768Y-35176D01*
X36808Y-35176D01*
X37202Y-35176D01*
X37238Y-35161D01*
X37266Y-35133D01*
X37281Y-35097D01*
X37281Y-35057D01*
X37281Y-34821D01*
X37279Y-34817D01*
X37279Y-34468D01*
X37279Y-34194D01*
X37265Y-34158D01*
X37237Y-34131D01*
X37202Y-34116D01*
X37163Y-34116D01*
X37062Y-34116D01*
X37037Y-34140D01*
X37037Y-34279D01*
X37255Y-34279D01*
X37279Y-34255D01*
X37279Y-34194D01*
X37279Y-34468D01*
X37279Y-34408D01*
X37255Y-34384D01*
X37037Y-34384D01*
X37037Y-34522D01*
X37062Y-34546D01*
X37163Y-34546D01*
X37202Y-34546D01*
X37237Y-34532D01*
X37265Y-34504D01*
X37279Y-34468D01*
X37279Y-34817D01*
X37266Y-34785D01*
X37238Y-34757D01*
X37202Y-34742D01*
X37162Y-34742D01*
X36933Y-34742D01*
X36933Y-34522D01*
X36933Y-34384D01*
X36925Y-34384D01*
X36925Y-34279D01*
X36933Y-34279D01*
X36933Y-34140D01*
X36908Y-34116D01*
X36807Y-34116D01*
X36769Y-34116D01*
X36733Y-34131D01*
X36711Y-34153D01*
X36711Y-34056D01*
X36696Y-34020D01*
X36669Y-33993D01*
X36633Y-33978D01*
X36595Y-33978D01*
X36493Y-33978D01*
X36469Y-34002D01*
X36469Y-34200D01*
X36477Y-34200D01*
X36477Y-34305D01*
X36469Y-34305D01*
X36469Y-34502D01*
X36493Y-34526D01*
X36595Y-34526D01*
X36633Y-34526D01*
X36669Y-34512D01*
X36696Y-34484D01*
X36697Y-34483D01*
X36706Y-34504D01*
X36733Y-34532D01*
X36769Y-34546D01*
X36807Y-34546D01*
X36908Y-34546D01*
X36933Y-34522D01*
X36933Y-34742D01*
X36768Y-34742D01*
X36732Y-34757D01*
X36704Y-34785D01*
X36697Y-34801D01*
X36694Y-34801D01*
X36670Y-34777D01*
X36634Y-34762D01*
X36594Y-34762D01*
X36364Y-34762D01*
X36364Y-34502D01*
X36364Y-34305D01*
X36364Y-34200D01*
X36364Y-34002D01*
X36340Y-33978D01*
X36239Y-33978D01*
X36200Y-33978D01*
X36165Y-33993D01*
X36137Y-34020D01*
X36123Y-34056D01*
X36123Y-34176D01*
X36147Y-34200D01*
X36364Y-34200D01*
X36364Y-34305D01*
X36147Y-34305D01*
X36123Y-34329D01*
X36123Y-34448D01*
X36137Y-34484D01*
X36165Y-34512D01*
X36200Y-34526D01*
X36239Y-34526D01*
X36340Y-34526D01*
X36364Y-34502D01*
X36364Y-34762D01*
X36200Y-34762D01*
X36164Y-34777D01*
X36147Y-34794D01*
X36015Y-34662D01*
X36015Y-33779D01*
X36044Y-33798D01*
X36101Y-33809D01*
X36121Y-33809D01*
X36121Y-33857D01*
X36136Y-33893D01*
X36164Y-33921D01*
X36200Y-33936D01*
X36239Y-33936D01*
X36633Y-33936D01*
X36670Y-33921D01*
X36698Y-33893D01*
X36713Y-33857D01*
X36713Y-33818D01*
X36713Y-33764D01*
X36732Y-33783D01*
X36768Y-33798D01*
X36808Y-33798D01*
X37202Y-33798D01*
X37238Y-33783D01*
X37266Y-33755D01*
X37281Y-33719D01*
X37281Y-33680D01*
X37281Y-33444D01*
X37279Y-33439D01*
X37279Y-33090D01*
X37279Y-32816D01*
X37265Y-32780D01*
X37237Y-32753D01*
X37202Y-32738D01*
X37163Y-32738D01*
X37062Y-32738D01*
X37037Y-32762D01*
X37037Y-32901D01*
X37255Y-32901D01*
X37279Y-32877D01*
X37279Y-32816D01*
X37279Y-33090D01*
X37279Y-33030D01*
X37255Y-33006D01*
X37037Y-33006D01*
X37037Y-33144D01*
X37062Y-33168D01*
X37163Y-33169D01*
X37202Y-33168D01*
X37237Y-33154D01*
X37265Y-33126D01*
X37279Y-33090D01*
X37279Y-33439D01*
X37266Y-33407D01*
X37238Y-33379D01*
X37202Y-33364D01*
X37162Y-33364D01*
X36933Y-33364D01*
X36933Y-33144D01*
X36933Y-33006D01*
X36925Y-33006D01*
X36925Y-32901D01*
X36933Y-32901D01*
X36933Y-32762D01*
X36908Y-32738D01*
X36807Y-32738D01*
X36769Y-32738D01*
X36733Y-32753D01*
X36711Y-32775D01*
X36711Y-32678D01*
X36696Y-32642D01*
X36669Y-32615D01*
X36633Y-32600D01*
X36595Y-32600D01*
X36493Y-32600D01*
X36469Y-32624D01*
X36469Y-32822D01*
X36477Y-32822D01*
X36477Y-32927D01*
X36469Y-32927D01*
X36469Y-33124D01*
X36493Y-33148D01*
X36595Y-33149D01*
X36633Y-33148D01*
X36669Y-33134D01*
X36696Y-33106D01*
X36697Y-33105D01*
X36706Y-33126D01*
X36733Y-33154D01*
X36769Y-33168D01*
X36807Y-33169D01*
X36908Y-33168D01*
X36933Y-33144D01*
X36933Y-33364D01*
X36768Y-33364D01*
X36732Y-33379D01*
X36704Y-33407D01*
X36697Y-33423D01*
X36694Y-33423D01*
X36670Y-33399D01*
X36634Y-33384D01*
X36594Y-33384D01*
X36200Y-33384D01*
X36172Y-33395D01*
X36172Y-33137D01*
X36200Y-33148D01*
X36239Y-33149D01*
X36340Y-33148D01*
X36364Y-33124D01*
X36364Y-32927D01*
X36357Y-32927D01*
X36357Y-32822D01*
X36364Y-32822D01*
X36364Y-32624D01*
X36340Y-32600D01*
X36239Y-32600D01*
X36200Y-32600D01*
X36172Y-32612D01*
X36172Y-32547D01*
X36200Y-32558D01*
X36239Y-32558D01*
X36633Y-32558D01*
X36670Y-32543D01*
X36698Y-32516D01*
X36713Y-32479D01*
X36713Y-32440D01*
X36713Y-32387D01*
X36732Y-32405D01*
X36768Y-32420D01*
X36808Y-32420D01*
X37202Y-32420D01*
X37238Y-32405D01*
X37266Y-32378D01*
X37281Y-32341D01*
X37281Y-32302D01*
X37281Y-32066D01*
X37266Y-32029D01*
X37238Y-32001D01*
X37202Y-31986D01*
X37162Y-31986D01*
X37079Y-31986D01*
X37043Y-31950D01*
X37045Y-31944D01*
X37045Y-31835D01*
X37004Y-31734D01*
X36983Y-31713D01*
X37066Y-31713D01*
X37102Y-31698D01*
X37130Y-31670D01*
X37145Y-31634D01*
X37145Y-31594D01*
X37145Y-31200D01*
X37130Y-31164D01*
X37102Y-31136D01*
X37066Y-31121D01*
X37026Y-31121D01*
X36691Y-31121D01*
X36691Y-31048D01*
X36649Y-30947D01*
X36588Y-30885D01*
X36595Y-30885D01*
X36633Y-30885D01*
X36669Y-30870D01*
X36696Y-30842D01*
X36697Y-30841D01*
X36706Y-30862D01*
X36733Y-30890D01*
X36769Y-30905D01*
X36807Y-30905D01*
X36908Y-30905D01*
X36933Y-30880D01*
X36933Y-30742D01*
X36925Y-30742D01*
X36925Y-30637D01*
X36933Y-30637D01*
X36933Y-30499D01*
X36908Y-30474D01*
X36807Y-30474D01*
X36769Y-30474D01*
X36733Y-30489D01*
X36711Y-30511D01*
X36711Y-30414D01*
X36696Y-30378D01*
X36669Y-30351D01*
X36633Y-30336D01*
X36595Y-30336D01*
X36493Y-30336D01*
X36469Y-30361D01*
X36469Y-30558D01*
X36477Y-30558D01*
X36477Y-30663D01*
X36469Y-30663D01*
X36469Y-30671D01*
X36364Y-30671D01*
X36364Y-30663D01*
X36364Y-30558D01*
X36364Y-30361D01*
X36340Y-30336D01*
X36239Y-30336D01*
X36200Y-30336D01*
X36165Y-30351D01*
X36137Y-30378D01*
X36123Y-30414D01*
X36123Y-30534D01*
X36147Y-30558D01*
X36364Y-30558D01*
X36364Y-30663D01*
X36147Y-30663D01*
X36123Y-30687D01*
X36123Y-30774D01*
X36100Y-30751D01*
X35999Y-30710D01*
X35890Y-30709D01*
X35789Y-30751D01*
X35777Y-30763D01*
X35501Y-30487D01*
X35527Y-30476D01*
X35555Y-30449D01*
X35569Y-30413D01*
X35569Y-30021D01*
X35555Y-29985D01*
X35527Y-29957D01*
X35492Y-29943D01*
X35453Y-29942D01*
X35352Y-29943D01*
X35327Y-29967D01*
X35327Y-30164D01*
X35545Y-30164D01*
X35569Y-30140D01*
X35569Y-30021D01*
X35569Y-30413D01*
X35569Y-30293D01*
X35545Y-30269D01*
X35327Y-30269D01*
X35327Y-30277D01*
X35223Y-30277D01*
X35223Y-30269D01*
X35005Y-30269D01*
X34981Y-30293D01*
X34981Y-30411D01*
X34967Y-30411D01*
X34967Y-30403D01*
X34967Y-30411D01*
X34961Y-30411D01*
X34942Y-30393D01*
X34695Y-30393D01*
X34695Y-30334D01*
X34942Y-30334D01*
X34967Y-30310D01*
X34967Y-30324D01*
X34967Y-30285D01*
X34959Y-30268D01*
X34969Y-30245D01*
X34969Y-30206D01*
X34969Y-30163D01*
X34986Y-30145D01*
X35005Y-30164D01*
X35223Y-30164D01*
X35223Y-29967D01*
X35198Y-29943D01*
X35189Y-29943D01*
X35230Y-29901D01*
X35492Y-29901D01*
X35528Y-29886D01*
X35556Y-29858D01*
X35571Y-29822D01*
X35571Y-29782D01*
X35571Y-29428D01*
X35556Y-29392D01*
X35528Y-29364D01*
X35492Y-29349D01*
X35452Y-29349D01*
X35058Y-29349D01*
X35022Y-29364D01*
X34994Y-29391D01*
X34979Y-29428D01*
X34979Y-29467D01*
X34979Y-29730D01*
X34701Y-30008D01*
X34695Y-30008D01*
X34695Y-29113D01*
X34272Y-28690D01*
X34086Y-28690D01*
X34086Y-28329D01*
X34510Y-27905D01*
X35393Y-27905D01*
X35393Y-27905D01*
X35450Y-27893D01*
X35499Y-27861D01*
X35948Y-27412D01*
X36121Y-27412D01*
X36121Y-27459D01*
X36136Y-27496D01*
X36164Y-27524D01*
X36200Y-27539D01*
X36239Y-27539D01*
X36633Y-27539D01*
X36670Y-27524D01*
X36698Y-27496D01*
X36713Y-27459D01*
X36713Y-27420D01*
X36713Y-27367D01*
X36732Y-27386D01*
X36768Y-27401D01*
X36808Y-27401D01*
X37202Y-27401D01*
X37238Y-27386D01*
X37266Y-27358D01*
X37281Y-27321D01*
X37281Y-27282D01*
X37281Y-27046D01*
X37266Y-27009D01*
X37238Y-26981D01*
X37202Y-26966D01*
X37162Y-26966D01*
X36896Y-26966D01*
X36896Y-25939D01*
X36896Y-25603D01*
X36896Y-25498D01*
X36896Y-25163D01*
X36871Y-25138D01*
X36220Y-25138D01*
X36184Y-25153D01*
X36157Y-25181D01*
X36142Y-25216D01*
X36142Y-25255D01*
X36142Y-25474D01*
X36167Y-25498D01*
X36896Y-25498D01*
X36896Y-25603D01*
X36167Y-25603D01*
X36142Y-25627D01*
X36142Y-25846D01*
X36142Y-25885D01*
X36157Y-25921D01*
X36184Y-25948D01*
X36220Y-25963D01*
X36871Y-25963D01*
X36896Y-25939D01*
X36896Y-26966D01*
X36768Y-26966D01*
X36732Y-26981D01*
X36704Y-27009D01*
X36697Y-27025D01*
X36694Y-27025D01*
X36670Y-27001D01*
X36634Y-26986D01*
X36594Y-26986D01*
X36200Y-26986D01*
X36164Y-27001D01*
X36136Y-27029D01*
X36121Y-27066D01*
X36121Y-27105D01*
X36121Y-27113D01*
X35886Y-27113D01*
X35829Y-27125D01*
X35781Y-27157D01*
X35649Y-27289D01*
X35649Y-25413D01*
X35649Y-24547D01*
X35634Y-24510D01*
X35606Y-24482D01*
X35569Y-24467D01*
X35530Y-24467D01*
X34930Y-24467D01*
X34893Y-24482D01*
X34865Y-24510D01*
X34850Y-24547D01*
X34850Y-24586D01*
X34850Y-25452D01*
X34865Y-25489D01*
X34893Y-25517D01*
X34930Y-25532D01*
X34969Y-25532D01*
X35569Y-25532D01*
X35606Y-25517D01*
X35634Y-25489D01*
X35649Y-25452D01*
X35649Y-25413D01*
X35649Y-27289D01*
X35331Y-27606D01*
X35235Y-27606D01*
X35235Y-26971D01*
X35235Y-26616D01*
X35235Y-26577D01*
X35221Y-26541D01*
X35193Y-26514D01*
X35157Y-26499D01*
X35097Y-26499D01*
X35073Y-26524D01*
X35073Y-26741D01*
X35211Y-26741D01*
X35235Y-26717D01*
X35235Y-26616D01*
X35235Y-26971D01*
X35235Y-26870D01*
X35211Y-26846D01*
X35073Y-26846D01*
X35073Y-26854D01*
X34968Y-26854D01*
X34968Y-26846D01*
X34968Y-26741D01*
X34968Y-26524D01*
X34943Y-26499D01*
X34883Y-26499D01*
X34862Y-26508D01*
X34862Y-26139D01*
X34862Y-25745D01*
X34847Y-25708D01*
X34843Y-25704D01*
X34843Y-25395D01*
X34828Y-25320D01*
X34828Y-25320D01*
X34785Y-25255D01*
X34785Y-25255D01*
X34649Y-25119D01*
X34649Y-24856D01*
X34618Y-24703D01*
X34532Y-24574D01*
X34402Y-24487D01*
X34250Y-24457D01*
X34097Y-24487D01*
X33967Y-24574D01*
X33881Y-24703D01*
X33850Y-24856D01*
X33850Y-25143D01*
X33881Y-25296D01*
X33967Y-25425D01*
X34097Y-25512D01*
X34250Y-25542D01*
X34402Y-25512D01*
X34448Y-25482D01*
X34448Y-25704D01*
X34443Y-25708D01*
X34428Y-25745D01*
X34428Y-25784D01*
X34428Y-26178D01*
X34443Y-26215D01*
X34471Y-26243D01*
X34507Y-26258D01*
X34547Y-26258D01*
X34783Y-26258D01*
X34819Y-26243D01*
X34847Y-26215D01*
X34862Y-26178D01*
X34862Y-26139D01*
X34862Y-26508D01*
X34847Y-26514D01*
X34820Y-26541D01*
X34805Y-26577D01*
X34805Y-26616D01*
X34805Y-26717D01*
X34829Y-26741D01*
X34968Y-26741D01*
X34968Y-26846D01*
X34829Y-26846D01*
X34805Y-26870D01*
X34805Y-26971D01*
X34805Y-27010D01*
X34820Y-27046D01*
X34842Y-27067D01*
X34745Y-27067D01*
X34709Y-27082D01*
X34682Y-27110D01*
X34667Y-27145D01*
X34667Y-27184D01*
X34667Y-27285D01*
X34691Y-27309D01*
X34889Y-27309D01*
X34889Y-27301D01*
X34968Y-27301D01*
X34994Y-27301D01*
X34994Y-27309D01*
X35191Y-27309D01*
X35215Y-27285D01*
X35215Y-27184D01*
X35215Y-27145D01*
X35201Y-27110D01*
X35173Y-27082D01*
X35172Y-27082D01*
X35193Y-27073D01*
X35221Y-27046D01*
X35235Y-27010D01*
X35235Y-26971D01*
X35235Y-27606D01*
X35204Y-27606D01*
X35215Y-27578D01*
X35215Y-27539D01*
X35215Y-27438D01*
X35191Y-27414D01*
X34994Y-27414D01*
X34994Y-27422D01*
X34968Y-27422D01*
X34889Y-27422D01*
X34889Y-27414D01*
X34691Y-27414D01*
X34667Y-27438D01*
X34667Y-27539D01*
X34667Y-27578D01*
X34679Y-27606D01*
X34614Y-27606D01*
X34625Y-27579D01*
X34625Y-27539D01*
X34625Y-27145D01*
X34610Y-27109D01*
X34582Y-27081D01*
X34546Y-27066D01*
X34507Y-27065D01*
X34453Y-27065D01*
X34472Y-27047D01*
X34487Y-27010D01*
X34487Y-26971D01*
X34487Y-26577D01*
X34472Y-26540D01*
X34444Y-26512D01*
X34408Y-26497D01*
X34369Y-26497D01*
X34133Y-26497D01*
X34096Y-26512D01*
X34068Y-26540D01*
X34053Y-26577D01*
X34053Y-26616D01*
X34053Y-27010D01*
X34068Y-27047D01*
X34096Y-27075D01*
X34112Y-27081D01*
X34112Y-27085D01*
X34088Y-27108D01*
X34073Y-27145D01*
X34073Y-27184D01*
X34073Y-27578D01*
X34088Y-27615D01*
X34095Y-27622D01*
X33857Y-27860D01*
X33857Y-26971D01*
X33857Y-26616D01*
X33857Y-26577D01*
X33843Y-26541D01*
X33815Y-26514D01*
X33779Y-26499D01*
X33719Y-26499D01*
X33695Y-26524D01*
X33695Y-26741D01*
X33833Y-26741D01*
X33857Y-26717D01*
X33857Y-26616D01*
X33857Y-26971D01*
X33857Y-26870D01*
X33833Y-26846D01*
X33695Y-26846D01*
X33695Y-26854D01*
X33649Y-26854D01*
X33649Y-25143D01*
X33649Y-24856D01*
X33618Y-24703D01*
X33532Y-24574D01*
X33402Y-24487D01*
X33250Y-24457D01*
X33097Y-24487D01*
X32967Y-24574D01*
X32881Y-24703D01*
X32850Y-24856D01*
X32850Y-25143D01*
X32881Y-25296D01*
X32967Y-25425D01*
X33070Y-25494D01*
X33070Y-25704D01*
X33065Y-25708D01*
X33050Y-25745D01*
X33050Y-25784D01*
X33050Y-26178D01*
X33065Y-26215D01*
X33093Y-26243D01*
X33129Y-26258D01*
X33169Y-26258D01*
X33405Y-26258D01*
X33441Y-26243D01*
X33469Y-26215D01*
X33484Y-26178D01*
X33484Y-26139D01*
X33484Y-25745D01*
X33469Y-25708D01*
X33465Y-25704D01*
X33465Y-25470D01*
X33532Y-25425D01*
X33618Y-25296D01*
X33649Y-25143D01*
X33649Y-26854D01*
X33590Y-26854D01*
X33590Y-26846D01*
X33590Y-26741D01*
X33590Y-26524D01*
X33566Y-26499D01*
X33505Y-26499D01*
X33469Y-26514D01*
X33442Y-26541D01*
X33427Y-26577D01*
X33427Y-26616D01*
X33427Y-26717D01*
X33451Y-26741D01*
X33590Y-26741D01*
X33590Y-26846D01*
X33451Y-26846D01*
X33427Y-26870D01*
X33427Y-26971D01*
X33427Y-27010D01*
X33442Y-27046D01*
X33464Y-27067D01*
X33367Y-27067D01*
X33331Y-27082D01*
X33304Y-27110D01*
X33289Y-27145D01*
X33289Y-27184D01*
X33289Y-27285D01*
X33313Y-27309D01*
X33511Y-27309D01*
X33511Y-27301D01*
X33590Y-27301D01*
X33616Y-27301D01*
X33616Y-27309D01*
X33813Y-27309D01*
X33837Y-27285D01*
X33837Y-27184D01*
X33837Y-27145D01*
X33823Y-27110D01*
X33795Y-27082D01*
X33794Y-27082D01*
X33815Y-27073D01*
X33843Y-27046D01*
X33857Y-27010D01*
X33857Y-26971D01*
X33857Y-27860D01*
X33837Y-27880D01*
X33837Y-27539D01*
X33837Y-27438D01*
X33813Y-27414D01*
X33616Y-27414D01*
X33616Y-27632D01*
X33640Y-27656D01*
X33759Y-27656D01*
X33795Y-27641D01*
X33823Y-27614D01*
X33837Y-27578D01*
X33837Y-27539D01*
X33837Y-27880D01*
X33658Y-28059D01*
X33648Y-28044D01*
X33648Y-28044D01*
X33590Y-27985D01*
X33511Y-27906D01*
X33511Y-27632D01*
X33511Y-27414D01*
X33313Y-27414D01*
X33289Y-27438D01*
X33289Y-27539D01*
X33289Y-27578D01*
X33304Y-27614D01*
X33331Y-27641D01*
X33367Y-27656D01*
X33487Y-27656D01*
X33511Y-27632D01*
X33511Y-27906D01*
X33226Y-27621D01*
X33232Y-27615D01*
X33247Y-27579D01*
X33247Y-27539D01*
X33247Y-27145D01*
X33232Y-27109D01*
X33204Y-27081D01*
X33168Y-27066D01*
X33129Y-27065D01*
X33075Y-27065D01*
X33094Y-27047D01*
X33109Y-27010D01*
X33109Y-26971D01*
X33109Y-26577D01*
X33094Y-26540D01*
X33066Y-26512D01*
X33030Y-26497D01*
X32991Y-26497D01*
X32755Y-26497D01*
X32718Y-26512D01*
X32690Y-26540D01*
X32675Y-26577D01*
X32675Y-26616D01*
X32675Y-27010D01*
X32690Y-27047D01*
X32718Y-27075D01*
X32734Y-27081D01*
X32734Y-27085D01*
X32710Y-27108D01*
X32695Y-27145D01*
X32695Y-27184D01*
X32695Y-27578D01*
X32710Y-27615D01*
X32719Y-27624D01*
X32679Y-27641D01*
X32649Y-27671D01*
X32649Y-25143D01*
X32649Y-24856D01*
X32618Y-24703D01*
X32532Y-24574D01*
X32402Y-24487D01*
X32250Y-24457D01*
X32097Y-24487D01*
X31967Y-24574D01*
X31881Y-24703D01*
X31850Y-24856D01*
X31850Y-25119D01*
X31750Y-25220D01*
X31707Y-25284D01*
X31692Y-25360D01*
X31692Y-25360D01*
X31692Y-25704D01*
X31687Y-25708D01*
X31672Y-25745D01*
X31672Y-25784D01*
X31672Y-26178D01*
X31687Y-26215D01*
X31715Y-26243D01*
X31751Y-26258D01*
X31791Y-26258D01*
X32027Y-26258D01*
X32063Y-26243D01*
X32091Y-26215D01*
X32106Y-26178D01*
X32106Y-26139D01*
X32106Y-25745D01*
X32091Y-25708D01*
X32087Y-25704D01*
X32087Y-25505D01*
X32097Y-25512D01*
X32250Y-25542D01*
X32402Y-25512D01*
X32532Y-25425D01*
X32618Y-25296D01*
X32649Y-25143D01*
X32649Y-27671D01*
X32602Y-27718D01*
X32560Y-27819D01*
X32560Y-27928D01*
X32587Y-27993D01*
X32583Y-27993D01*
X32482Y-28035D01*
X32480Y-28037D01*
X32480Y-26971D01*
X32480Y-26616D01*
X32479Y-26577D01*
X32465Y-26541D01*
X32437Y-26514D01*
X32402Y-26499D01*
X32341Y-26499D01*
X32317Y-26524D01*
X32317Y-26741D01*
X32455Y-26741D01*
X32480Y-26717D01*
X32480Y-26616D01*
X32480Y-26971D01*
X32480Y-26870D01*
X32455Y-26846D01*
X32317Y-26846D01*
X32317Y-26854D01*
X32212Y-26854D01*
X32212Y-26846D01*
X32212Y-26741D01*
X32212Y-26524D01*
X32188Y-26499D01*
X32127Y-26499D01*
X32091Y-26514D01*
X32064Y-26541D01*
X32049Y-26577D01*
X32049Y-26616D01*
X32049Y-26717D01*
X32073Y-26741D01*
X32212Y-26741D01*
X32212Y-26846D01*
X32073Y-26846D01*
X32049Y-26870D01*
X32049Y-26971D01*
X32049Y-27010D01*
X32064Y-27046D01*
X32086Y-27067D01*
X31989Y-27067D01*
X31953Y-27082D01*
X31926Y-27110D01*
X31911Y-27145D01*
X31911Y-27184D01*
X31911Y-27285D01*
X31935Y-27309D01*
X32133Y-27309D01*
X32133Y-27301D01*
X32212Y-27301D01*
X32238Y-27301D01*
X32238Y-27309D01*
X32435Y-27309D01*
X32460Y-27285D01*
X32460Y-27184D01*
X32459Y-27145D01*
X32445Y-27110D01*
X32417Y-27082D01*
X32416Y-27082D01*
X32437Y-27073D01*
X32465Y-27046D01*
X32479Y-27010D01*
X32480Y-26971D01*
X32480Y-28037D01*
X32460Y-28057D01*
X32460Y-27539D01*
X32460Y-27438D01*
X32435Y-27414D01*
X32238Y-27414D01*
X32238Y-27632D01*
X32262Y-27656D01*
X32382Y-27656D01*
X32417Y-27641D01*
X32445Y-27614D01*
X32459Y-27578D01*
X32460Y-27539D01*
X32460Y-28057D01*
X32405Y-28112D01*
X32363Y-28212D01*
X32363Y-28322D01*
X32405Y-28422D01*
X32438Y-28455D01*
X32372Y-28455D01*
X32348Y-28480D01*
X32348Y-28690D01*
X32243Y-28690D01*
X32243Y-28480D01*
X32219Y-28455D01*
X32212Y-28455D01*
X32133Y-28455D01*
X32133Y-27632D01*
X32133Y-27414D01*
X31935Y-27414D01*
X31911Y-27438D01*
X31911Y-27539D01*
X31911Y-27578D01*
X31926Y-27614D01*
X31953Y-27641D01*
X31989Y-27656D01*
X32109Y-27656D01*
X32133Y-27632D01*
X32133Y-28455D01*
X32099Y-28455D01*
X32063Y-28470D01*
X32036Y-28497D01*
X32021Y-28533D01*
X32021Y-28572D01*
X32021Y-28673D01*
X32038Y-28690D01*
X31980Y-28690D01*
X31980Y-28533D01*
X31965Y-28496D01*
X31947Y-28479D01*
X32003Y-28423D01*
X32045Y-28322D01*
X32045Y-28213D01*
X32004Y-28112D01*
X31927Y-28035D01*
X31826Y-27993D01*
X31742Y-27993D01*
X31742Y-27658D01*
X31790Y-27658D01*
X31826Y-27643D01*
X31854Y-27615D01*
X31869Y-27579D01*
X31869Y-27539D01*
X31869Y-27145D01*
X31854Y-27109D01*
X31827Y-27081D01*
X31790Y-27066D01*
X31751Y-27065D01*
X31698Y-27065D01*
X31716Y-27047D01*
X31731Y-27010D01*
X31731Y-26971D01*
X31731Y-26577D01*
X31716Y-26540D01*
X31689Y-26512D01*
X31652Y-26497D01*
X31613Y-26497D01*
X31377Y-26497D01*
X31340Y-26512D01*
X31312Y-26540D01*
X31297Y-26577D01*
X31297Y-26616D01*
X31297Y-27010D01*
X31312Y-27047D01*
X31340Y-27075D01*
X31356Y-27081D01*
X31356Y-27085D01*
X31332Y-27108D01*
X31317Y-27145D01*
X31317Y-27184D01*
X31317Y-27578D01*
X31332Y-27615D01*
X31360Y-27643D01*
X31396Y-27658D01*
X31436Y-27658D01*
X31444Y-27658D01*
X31444Y-28089D01*
X31448Y-28111D01*
X31353Y-28072D01*
X31244Y-28072D01*
X31144Y-28113D01*
X31066Y-28190D01*
X31052Y-28225D01*
X30758Y-27932D01*
X30758Y-24823D01*
X31440Y-24142D01*
X40157Y-24142D01*
X40818Y-24142D01*
X40818Y-45542D01*
M02*
