<?xml version="1.0" encoding="UTF-8" standalone="no"?>
<!-- Created with Inkscape (http://www.inkscape.org/) -->

<svg
   xmlns:dc="http://purl.org/dc/elements/1.1/"
   xmlns:cc="http://creativecommons.org/ns#"
   xmlns:rdf="http://www.w3.org/1999/02/22-rdf-syntax-ns#"
   xmlns:svg="http://www.w3.org/2000/svg"
   xmlns="http://www.w3.org/2000/svg"
   version="1.1"
   width="108.00427"
   height="116.99992"
   viewBox="0 0 12000.475 13000"
   id="svg2">
  <title
     id="title4">SVG Picture created as rxlamp-Front.svg date 2013/03/29 05:04:04 </title>
  <desc
     id="desc6">Picture generated by PCBNEW </desc>
  <metadata
     id="metadata450">
    <rdf:RDF>
      <cc:Work
         rdf:about="">
        <dc:format>image/svg+xml</dc:format>
        <dc:type
           rdf:resource="http://purl.org/dc/dcmitype/StillImage" />
        <dc:title>SVG Picture created as rxlamp-Front.svg date 2013/03/29 05:04:04 </dc:title>
      </cc:Work>
    </rdf:RDF>
  </metadata>
  <defs
     id="defs448" />
  <g
     transform="translate(-18000.059,-19000)"
     id="g8"
     style="fill:#000000;fill-opacity:1;stroke:#000000;stroke-linecap:round;stroke-linejoin:round;stroke-opacity:1" />
  <g
     transform="translate(-18000.059,-19000)"
     id="g10"
     style="fill:#000000;fill-opacity:0;stroke:#000000;stroke-width:60;stroke-linecap:round;stroke-linejoin:round;stroke-opacity:1" />
  <g
     transform="translate(-18000.059,-19000)"
     id="g406"
     style="fill:#ffffff;fill-opacity:0;stroke:#ffffff;stroke-width:60;stroke-linecap:round;stroke-linejoin:round;stroke-opacity:1" />
  <g
     transform="translate(-18000.059,-19000)"
     id="g3427">
    <desc
       id="desc3647">Remember to mirror this when printing if making your own PCB!</desc>
    <title
       id="title3645">rxlamp-cupper-top</title>
    <g
       id="g12"
       style="fill:#000000;fill-opacity:1;stroke:#000000;stroke-width:60;stroke-linecap:round;stroke-linejoin:round;stroke-opacity:1">
      <polyline
         id="polyline14"
         points="26333,31649 26667,31649 26667,31943 26333,31943 26333,31649 "
         style="fill-rule:evenodd" />
      <polyline
         id="polyline16"
         points="26333,31057 26667,31057 26667,31351 26333,31351 26333,31057 "
         style="fill-rule:evenodd" />
      <polyline
         id="polyline18"
         points="23833,31649 24167,31649 24167,31943 23833,31943 23833,31649 "
         style="fill-rule:evenodd" />
      <polyline
         id="polyline20"
         points="23833,31057 24167,31057 24167,31351 23833,31351 23833,31057 "
         style="fill-rule:evenodd" />
      <polyline
         id="polyline22"
         points="22833,31649 23167,31649 23167,31943 22833,31943 22833,31649 "
         style="fill-rule:evenodd" />
      <polyline
         id="polyline24"
         points="22833,31057 23167,31057 23167,31351 22833,31351 22833,31057 "
         style="fill-rule:evenodd" />
      <polyline
         id="polyline26"
         points="24833,31649 25167,31649 25167,31943 24833,31943 24833,31649 "
         style="fill-rule:evenodd" />
      <polyline
         id="polyline28"
         points="24833,31057 25167,31057 25167,31351 24833,31351 24833,31057 "
         style="fill-rule:evenodd" />
      <polyline
         id="polyline30"
         points="21333,31649 21667,31649 21667,31943 21333,31943 21333,31649 "
         style="fill-rule:evenodd" />
      <polyline
         id="polyline32"
         points="21333,31057 21667,31057 21667,31351 21333,31351 21333,31057 "
         style="fill-rule:evenodd" />
      <polyline
         id="polyline34"
         points="20333,31649 20667,31649 20667,31943 20333,31943 20333,31649 "
         style="fill-rule:evenodd" />
      <polyline
         id="polyline36"
         points="20333,31057 20667,31057 20667,31351 20333,31351 20333,31057 "
         style="fill-rule:evenodd" />
      <polyline
         id="polyline38"
         points="19333,31649 19667,31649 19667,31943 19333,31943 19333,31649 "
         style="fill-rule:evenodd" />
      <polyline
         id="polyline40"
         points="19333,31057 19667,31057 19667,31351 19333,31351 19333,31057 "
         style="fill-rule:evenodd" />
      <polyline
         id="polyline42"
         points="27333,31649 27667,31649 27667,31943 27333,31943 27333,31649 "
         style="fill-rule:evenodd" />
      <polyline
         id="polyline44"
         points="27333,31057 27667,31057 27667,31351 27333,31351 27333,31057 "
         style="fill-rule:evenodd" />
      <polyline
         id="polyline46"
         points="28333,31649 28667,31649 28667,31943 28333,31943 28333,31649 "
         style="fill-rule:evenodd" />
      <polyline
         id="polyline48"
         points="28333,31057 28667,31057 28667,31351 28333,31351 28333,31057 "
         style="fill-rule:evenodd" />
      <polyline
         id="polyline50"
         points="24463,20741 24463,20388 24915,20388 24915,20741 24463,20741 "
         style="fill-rule:evenodd" />
      <polyline
         id="polyline52"
         points="23085,20741 23085,20388 23537,20388 23537,20741 23085,20741 "
         style="fill-rule:evenodd" />
      <polyline
         id="polyline54"
         points="23774,20741 23774,20388 24226,20388 24226,20741 23774,20741 "
         style="fill-rule:evenodd" />
      <polyline
         id="polyline56"
         points="23774,22611 23774,22258 24226,22258 24226,22611 23774,22611 "
         style="fill-rule:evenodd" />
      <polyline
         id="polyline58"
         points="23085,22611 23085,22258 23537,22258 23537,22611 23085,22611 "
         style="fill-rule:evenodd" />
      <polyline
         id="polyline60"
         points="24463,22611 24463,22258 24915,22258 24915,22611 24463,22611 "
         style="fill-rule:evenodd" />
      <polyline
         id="polyline62"
         points="27963,20741 27963,20388 28415,20388 28415,20741 27963,20741 "
         style="fill-rule:evenodd" />
      <polyline
         id="polyline64"
         points="26585,20741 26585,20388 27037,20388 27037,20741 26585,20741 "
         style="fill-rule:evenodd" />
      <polyline
         id="polyline66"
         points="27274,20741 27274,20388 27726,20388 27726,20741 27274,20741 "
         style="fill-rule:evenodd" />
      <polyline
         id="polyline68"
         points="27274,22611 27274,22258 27726,22258 27726,22611 27274,22611 "
         style="fill-rule:evenodd" />
      <polyline
         id="polyline70"
         points="26585,22611 26585,22258 27037,22258 27037,22611 26585,22611 "
         style="fill-rule:evenodd" />
      <polyline
         id="polyline72"
         points="27963,22611 27963,22258 28415,22258 28415,22611 27963,22611 "
         style="fill-rule:evenodd" />
      <polyline
         id="polyline74"
         points="27963,24741 27963,24388 28415,24388 28415,24741 27963,24741 "
         style="fill-rule:evenodd" />
      <polyline
         id="polyline76"
         points="26585,24741 26585,24388 27037,24388 27037,24741 26585,24741 "
         style="fill-rule:evenodd" />
      <polyline
         id="polyline78"
         points="27274,24741 27274,24388 27726,24388 27726,24741 27274,24741 "
         style="fill-rule:evenodd" />
      <polyline
         id="polyline80"
         points="27274,26611 27274,26258 27726,26258 27726,26611 27274,26611 "
         style="fill-rule:evenodd" />
      <polyline
         id="polyline82"
         points="26585,26611 26585,26258 27037,26258 27037,26611 26585,26611 "
         style="fill-rule:evenodd" />
      <polyline
         id="polyline84"
         points="27963,26611 27963,26258 28415,26258 28415,26611 27963,26611 "
         style="fill-rule:evenodd" />
      <polyline
         id="polyline86"
         points="27963,28741 27963,28388 28415,28388 28415,28741 27963,28741 "
         style="fill-rule:evenodd" />
      <polyline
         id="polyline88"
         points="26585,28741 26585,28388 27037,28388 27037,28741 26585,28741 "
         style="fill-rule:evenodd" />
      <polyline
         id="polyline90"
         points="27274,28741 27274,28388 27726,28388 27726,28741 27274,28741 "
         style="fill-rule:evenodd" />
      <polyline
         id="polyline92"
         points="27274,30611 27274,30258 27726,30258 27726,30611 27274,30611 "
         style="fill-rule:evenodd" />
      <polyline
         id="polyline94"
         points="26585,30611 26585,30258 27037,30258 27037,30611 26585,30611 "
         style="fill-rule:evenodd" />
      <polyline
         id="polyline96"
         points="27963,30611 27963,30258 28415,30258 28415,30611 27963,30611 "
         style="fill-rule:evenodd" />
      <polyline
         id="polyline98"
         points="24463,28741 24463,28388 24915,28388 24915,28741 24463,28741 "
         style="fill-rule:evenodd" />
      <polyline
         id="polyline100"
         points="23085,28741 23085,28388 23537,28388 23537,28741 23085,28741 "
         style="fill-rule:evenodd" />
      <polyline
         id="polyline102"
         points="23774,28741 23774,28388 24226,28388 24226,28741 23774,28741 "
         style="fill-rule:evenodd" />
      <polyline
         id="polyline104"
         points="23774,30611 23774,30258 24226,30258 24226,30611 23774,30611 "
         style="fill-rule:evenodd" />
      <polyline
         id="polyline106"
         points="23085,30611 23085,30258 23537,30258 23537,30611 23085,30611 "
         style="fill-rule:evenodd" />
      <polyline
         id="polyline108"
         points="24463,30611 24463,30258 24915,30258 24915,30611 24463,30611 "
         style="fill-rule:evenodd" />
      <polyline
         id="polyline110"
         points="20963,20741 20963,20388 21415,20388 21415,20741 20963,20741 "
         style="fill-rule:evenodd" />
      <polyline
         id="polyline112"
         points="19585,20741 19585,20388 20037,20388 20037,20741 19585,20741 "
         style="fill-rule:evenodd" />
      <polyline
         id="polyline114"
         points="20274,20741 20274,20388 20726,20388 20726,20741 20274,20741 "
         style="fill-rule:evenodd" />
      <polyline
         id="polyline116"
         points="20274,22611 20274,22258 20726,22258 20726,22611 20274,22611 "
         style="fill-rule:evenodd" />
      <polyline
         id="polyline118"
         points="19585,22611 19585,22258 20037,22258 20037,22611 19585,22611 "
         style="fill-rule:evenodd" />
      <polyline
         id="polyline120"
         points="20963,22611 20963,22258 21415,22258 21415,22611 20963,22611 "
         style="fill-rule:evenodd" />
      <polyline
         id="polyline122"
         points="20963,24741 20963,24388 21415,24388 21415,24741 20963,24741 "
         style="fill-rule:evenodd" />
      <polyline
         id="polyline124"
         points="19585,24741 19585,24388 20037,24388 20037,24741 19585,24741 "
         style="fill-rule:evenodd" />
      <polyline
         id="polyline126"
         points="20274,24741 20274,24388 20726,24388 20726,24741 20274,24741 "
         style="fill-rule:evenodd" />
      <polyline
         id="polyline128"
         points="20274,26611 20274,26258 20726,26258 20726,26611 20274,26611 "
         style="fill-rule:evenodd" />
      <polyline
         id="polyline130"
         points="19585,26611 19585,26258 20037,26258 20037,26611 19585,26611 "
         style="fill-rule:evenodd" />
      <polyline
         id="polyline132"
         points="20963,26611 20963,26258 21415,26258 21415,26611 20963,26611 "
         style="fill-rule:evenodd" />
      <polyline
         id="polyline134"
         points="20963,28741 20963,28388 21415,28388 21415,28741 20963,28741 "
         style="fill-rule:evenodd" />
      <polyline
         id="polyline136"
         points="19585,28741 19585,28388 20037,28388 20037,28741 19585,28741 "
         style="fill-rule:evenodd" />
      <polyline
         id="polyline138"
         points="20274,28741 20274,28388 20726,28388 20726,28741 20274,28741 "
         style="fill-rule:evenodd" />
      <polyline
         id="polyline140"
         points="20274,30611 20274,30258 20726,30258 20726,30611 20274,30611 "
         style="fill-rule:evenodd" />
      <polyline
         id="polyline142"
         points="19585,30611 19585,30258 20037,30258 20037,30611 19585,30611 "
         style="fill-rule:evenodd" />
      <polyline
         id="polyline144"
         points="20963,30611 20963,30258 21415,30258 21415,30611 20963,30611 "
         style="fill-rule:evenodd" />
      <polyline
         id="polyline146"
         points="24463,24741 24463,24388 24915,24388 24915,24741 24463,24741 "
         style="fill-rule:evenodd" />
      <polyline
         id="polyline148"
         points="23085,24741 23085,24388 23537,24388 23537,24741 23085,24741 "
         style="fill-rule:evenodd" />
      <polyline
         id="polyline150"
         points="23774,24741 23774,24388 24226,24388 24226,24741 23774,24741 "
         style="fill-rule:evenodd" />
      <polyline
         id="polyline152"
         points="23774,26611 23774,26258 24226,26258 24226,26611 23774,26611 "
         style="fill-rule:evenodd" />
      <polyline
         id="polyline154"
         points="23085,26611 23085,26258 23537,26258 23537,26611 23085,26611 "
         style="fill-rule:evenodd" />
      <polyline
         id="polyline156"
         points="24463,26611 24463,26258 24915,26258 24915,26611 24463,26611 "
         style="fill-rule:evenodd" />
      <polyline
         id="polyline158"
         points="29470,22970 28930,22970 28930,22430 29470,22430 29470,22970 "
         style="fill-rule:evenodd" />
      <circle
         cx="29200"
         cy="21700"
         r="270"
         id="circle160" />
      <polyline
         id="polyline162"
         points="28930,24930 29470,24930 29470,25470 28930,25470 28930,24930 "
         style="fill-rule:evenodd" />
      <circle
         cx="29200"
         cy="26200"
         r="270"
         id="circle164" />
      <circle
         cx="29200"
         cy="27200"
         r="270"
         id="circle166" />
      <circle
         cx="29200"
         cy="28200"
         r="270"
         id="circle168" />
      <circle
         cx="29200"
         cy="29200"
         r="270"
         id="circle170" />
      <circle
         cx="29200"
         cy="30200"
         r="270"
         id="circle172" />
      <circle
         cx="22300"
         cy="29700"
         r="206.22"
         id="circle174" />
      <circle
         cx="25100"
         cy="26900"
         r="206.22"
         id="circle176" />
      <circle
         cx="25100"
         cy="27800"
         r="206.22"
         id="circle178" />
      <circle
         cx="19100"
         cy="28800"
         r="206.22"
         id="circle180" />
      <circle
         cx="21900"
         cy="25100"
         r="206.22"
         id="circle182" />
      <circle
         cx="24000"
         cy="19750"
         r="206.22"
         id="circle184" />
      <circle
         cx="19750"
         cy="19750"
         r="206.22"
         id="circle186" />
      <circle
         cx="22250"
         cy="20250"
         r="206.22"
         id="circle188" />
      <circle
         cx="25750"
         cy="20500"
         r="206.22"
         id="circle190" />
      <circle
         cx="22250"
         cy="21000"
         r="206.22"
         id="circle192" />
    </g>
    <g
       id="g194"
       style="fill:#000000;fill-opacity:1;stroke:#000000;stroke-width:118.11000061;stroke-linecap:round;stroke-linejoin:round;stroke-opacity:1">
      <path
         d="m 29200,28400 0,-200"
         id="path196" />
      <path
         d="m 28500,29100 700,-700"
         id="path198" />
      <path
         d="m 22900,29100 5600,0"
         id="path200" />
      <path
         d="m 22300,29700 600,-600"
         id="path202" />
      <path
         d="m 28800,25800 400,400"
         id="path204" />
      <path
         d="m 26200,25800 2600,0"
         id="path206" />
      <path
         d="m 25100,26900 1100,-1100"
         id="path208" />
      <path
         d="m 28700,26700 500,500"
         id="path210" />
      <path
         d="m 28700,26100 0,600"
         id="path212" />
      <path
         d="m 28600,26000 100,100"
         id="path214" />
      <path
         d="m 26400,26000 2200,0"
         id="path216" />
      <path
         d="m 26100,26300 300,-300"
         id="path218" />
      <path
         d="m 26100,26800 0,-500"
         id="path220" />
      <path
         d="m 25100,27800 1000,-1000"
         id="path222" />
      <path
         d="m 29000,29400 200,-200"
         id="path224" />
      <path
         d="m 23300,29400 5700,0"
         id="path226" />
      <path
         d="m 22600,30100 700,-700"
         id="path228" />
      <path
         d="m 22000,30100 600,0"
         id="path230" />
      <path
         d="m 21300,29400 700,700"
         id="path232" />
      <path
         d="m 19700,29400 1600,0"
         id="path234" />
      <path
         d="m 19100,28800 600,600"
         id="path236" />
    </g>
    <g
       id="g238"
       style="fill:#000000;fill-opacity:1;stroke:#000000;stroke-width:196.8500061;stroke-linecap:round;stroke-linejoin:round;stroke-opacity:1">
      <path
         d="m 22000,25200 7200,0"
         id="path240" />
      <path
         d="m 21900,25100 100,100"
         id="path242" />
      <path
         d="m 20500,31796 -1000,0"
         id="path244" />
      <path
         d="m 21500,31796 -1000,0"
         id="path246" />
      <path
         d="m 23000,31796 -1500,0"
         id="path248" />
      <path
         d="m 24000,31796 -1000,0"
         id="path250" />
      <path
         d="m 25000,31796 -1000,0"
         id="path252" />
      <path
         d="m 26500,31796 -1500,0"
         id="path254" />
      <path
         d="m 27500,31796 -1000,0"
         id="path256" />
      <path
         d="m 28500,31796 -1000,0"
         id="path258" />
      <path
         d="m 29200,22700 0,1200"
         id="path260" />
      <path
         d="m 29104,31796 -604,0"
         id="path262" />
      <path
         d="m 29900,31000 -796,796"
         id="path264" />
      <path
         d="m 29900,24600 0,6400"
         id="path266" />
      <path
         d="m 29200,23900 700,700"
         id="path268" />
    </g>
    <g
       id="g270"
       style="fill:#000000;fill-opacity:1;stroke:#000000;stroke-width:236.22000122;stroke-linecap:round;stroke-linejoin:round;stroke-opacity:1">
      <path
         d="m 24000,19750 3250,0"
         id="path272" />
      <path
         d="m 27500,20000 0,565"
         id="path274" />
      <path
         d="m 27250,19750 250,250"
         id="path276" />
      <path
         d="m 24000,19750 -3250,0"
         id="path278" />
      <path
         d="m 20500,20000 0,565"
         id="path280" />
      <path
         d="m 20750,19750 -250,250"
         id="path282" />
      <path
         d="m 24000,19750 0,815"
         id="path284" />
      <path
         d="m 19811,19811 0,754"
         id="path286" />
      <path
         d="m 19750,19750 61,61"
         id="path288" />
      <path
         d="m 22565,20565 746,0"
         id="path290" />
      <path
         d="m 22250,20250 315,315"
         id="path292" />
      <path
         d="m 26811,20565 -996,0"
         id="path294" />
      <path
         d="m 25815,20565 -65,-65"
         id="path296" />
      <path
         d="m 24689,20565 0,374"
         id="path298" />
      <path
         d="m 28189,21061 0,-496"
         id="path300" />
      <path
         d="m 28000,21250 189,-189"
         id="path302" />
      <path
         d="m 25000,21250 3000,0"
         id="path304" />
      <path
         d="m 24689,20939 311,311"
         id="path306" />
      <path
         d="m 22250,21000 250,250"
         id="path308" />
      <path
         d="m 24689,21061 0,-496"
         id="path310" />
      <path
         d="m 24500,21250 189,-189"
         id="path312" />
      <path
         d="m 22500,21250 2000,0"
         id="path314" />
      <path
         d="m 21189,20939 0,-374"
         id="path316" />
      <path
         d="m 21500,21250 -311,-311"
         id="path318" />
      <path
         d="m 22000,21250 -500,0"
         id="path320" />
      <path
         d="m 22250,21000 -250,250"
         id="path322" />
      <path
         d="m 20500,30435 0,769"
         id="path324" />
      <path
         d="m 26811,28565 0,-2130"
         id="path326" />
      <path
         d="m 28189,22435 0,2130"
         id="path328" />
      <path
         d="m 26811,22435 0,2130"
         id="path330" />
      <path
         d="m 27500,22435 0,2130"
         id="path332" />
      <path
         d="m 28189,28565 0,-2130"
         id="path334" />
      <path
         d="m 27500,26435 0,2130"
         id="path336" />
      <path
         d="m 28189,30435 0,458"
         id="path338" />
      <path
         d="m 28189,30893 311,311"
         id="path340" />
      <path
         d="m 26811,30435 0,458"
         id="path342" />
      <path
         d="m 26811,30893 -311,311"
         id="path344" />
      <path
         d="m 27500,30435 0,769"
         id="path346" />
      <path
         d="m 24689,30435 0,458"
         id="path348" />
      <path
         d="m 24689,30893 311,311"
         id="path350" />
      <path
         d="m 24000,30435 0,769"
         id="path352" />
      <path
         d="m 23311,30435 0,458"
         id="path354" />
      <path
         d="m 23311,30893 -311,311"
         id="path356" />
      <path
         d="m 21189,28565 0,-2130"
         id="path358" />
      <path
         d="m 19811,30435 0,458"
         id="path360" />
      <path
         d="m 19811,30893 -311,311"
         id="path362" />
      <path
         d="m 21189,22435 0,2130"
         id="path364" />
      <path
         d="m 19811,22435 0,2130"
         id="path366" />
      <path
         d="m 20500,22435 0,2130"
         id="path368" />
      <path
         d="m 19811,28565 0,-2130"
         id="path370" />
      <path
         d="m 20500,26435 0,2130"
         id="path372" />
      <path
         d="m 21189,30435 0,458"
         id="path374" />
      <path
         d="m 21189,30893 311,311"
         id="path376" />
      <path
         d="m 23311,26435 0,2130"
         id="path378" />
      <path
         d="m 24689,22435 0,2130"
         id="path380" />
      <path
         d="m 23311,22435 0,2130"
         id="path382" />
      <path
         d="m 24000,22435 0,2130"
         id="path384" />
      <path
         d="m 24689,26435 0,2130"
         id="path386" />
      <path
         d="m 24000,28565 0,-2130"
         id="path388" />
    </g>
    <g
       id="g390"
       style="fill:#000000;fill-opacity:1;stroke:#000000;stroke-width:60;stroke-linecap:round;stroke-linejoin:round;stroke-opacity:1">
      <polyline
         id="polyline392"
         points="29551,30855 29515,30892 28959,31447 28940,31447 28946,31430 28947,31331 28947,30977 28909,30885 28838,30815 28746,30777 28659,30776 28694,30691 28695,30591 28695,30430 28718,30487 28814,30515 29129,30200 28814,29884 28718,29912 28656,30086 28586,30016 28494,29978 28395,29978 27883,29978 27844,29994 27805,29978 27706,29978 27194,29978 27155,29994 27116,29978 27017,29978 26505,29978 26413,30016 26343,30086 26305,30178 26304,30278 26304,30691 26340,30776 26253,30776 26161,30814 26091,30885 26053,30977 26052,31076 26052,31430 26060,31447 25440,31447 25446,31430 25447,31331 25447,30977 25409,30885 25338,30815 25246,30777 25159,30776 25194,30691 25195,30591 25195,30178 25157,30087 25086,30016 24994,29978 24895,29978 24383,29978 24344,29994 24305,29978 24206,29978 23694,29978 23655,29994 23616,29978 23517,29978 23158,29978 23428,29709 28935,29709 28912,29718 28884,29814 29164,30093 29200,30129 29270,30200 29200,30270 29164,30306 28884,30585 28912,30681 29118,30754 29336,30743 29487,30681 29499,30640 29515,30656 29525,30666 29551,30640 29551,30855 "
         style="fill-rule:evenodd" />
    </g>
    <g
       id="g394"
       style="fill:#000000;fill-opacity:0;stroke:#000000;stroke-width:100;stroke-linecap:round;stroke-linejoin:round;stroke-opacity:1">
      <polyline
         id="polyline396"
         points="29551,30855 29515,30892 28959,31447 28940,31447 28946,31430 28947,31331 28947,30977 28909,30885 28838,30815 28746,30777 28659,30776 28694,30691 28695,30591 28695,30430 28718,30487 28814,30515 29129,30200 28814,29884 28718,29912 28656,30086 28586,30016 28494,29978 28395,29978 27883,29978 27844,29994 27805,29978 27706,29978 27194,29978 27155,29994 27116,29978 27017,29978 26505,29978 26413,30016 26343,30086 26305,30178 26304,30278 26304,30691 26340,30776 26253,30776 26161,30814 26091,30885 26053,30977 26052,31076 26052,31430 26060,31447 25440,31447 25446,31430 25447,31331 25447,30977 25409,30885 25338,30815 25246,30777 25159,30776 25194,30691 25195,30591 25195,30178 25157,30087 25086,30016 24994,29978 24895,29978 24383,29978 24344,29994 24305,29978 24206,29978 23694,29978 23655,29994 23616,29978 23517,29978 23158,29978 23428,29709 28935,29709 28912,29718 28884,29814 29164,30093 29200,30129 29270,30200 29200,30270 29164,30306 28884,30585 28912,30681 29118,30754 29336,30743 29487,30681 29499,30640 29515,30656 29525,30666 29551,30640 29551,30855 "
         fill="none;" />
    </g>
    <g
       id="g398"
       style="fill:#000000;fill-opacity:1;stroke:#000000;stroke-width:60;stroke-linecap:round;stroke-linejoin:round;stroke-opacity:1">
      <polyline
         id="polyline400"
         points="29950,24157 29754,23962 29754,21781 29743,21563 29681,21412 29585,21384 29515,21455 29515,21314 29487,21218 29281,21145 29063,21156 28912,21218 28884,21314 29200,21629 29515,21314 29515,21455 29270,21700 29585,22015 29681,21987 29754,21781 29754,23962 29548,23755 29548,23250 29549,23250 29641,23212 29711,23141 29749,23049 29750,22950 29750,22350 29712,22258 29641,22188 29549,22150 29496,22149 29515,22085 29200,21770 29129,21841 29129,21700 28814,21384 28718,21412 28695,21478 28695,20721 28695,20308 28657,20217 28586,20146 28494,20108 28395,20108 27883,20108 27868,20114 27868,20000 27840,19859 27760,19739 27760,19739 27510,19489 27390,19409 27250,19381 24319,19381 24275,19338 24097,19263 23903,19263 23724,19337 23680,19381 20750,19381 20609,19409 20489,19489 20489,19489 20239,19739 20236,19744 20236,19653 20162,19474 20025,19338 19847,19263 19653,19263 19474,19337 19338,19474 19263,19652 19263,19846 19337,20025 19442,20130 19442,20134 19413,20146 19343,20216 19305,20308 19304,20408 19304,20821 19342,20912 19413,20983 19505,21021 19604,21021 20116,21021 20155,21005 20194,21021 20293,21021 20805,21021 20834,21009 20848,21079 20928,21199 21239,21510 21239,21510 21359,21590 21476,21613 21499,21618 21499,21618 21500,21618 22000,21618 22140,21590 22250,21517 22359,21590 22500,21618 24500,21618 24640,21590 24750,21517 24859,21590 24976,21613 24999,21618 24999,21618 25000,21618 28000,21618 28140,21590 28260,21510 28449,21321 28529,21201 28557,21061 28557,20995 28586,20983 28656,20913 28694,20821 28695,20721 28695,21478 28645,21618 28656,21836 28718,21987 28814,22015 29129,21700 29129,21841 28884,22085 28903,22149 28850,22149 28758,22187 28695,22251 28695,22178 28657,22087 28586,22016 28494,21978 28395,21978 27883,21978 27844,21994 27805,21978 27706,21978 27194,21978 27155,21994 27116,21978 27017,21978 26505,21978 26413,22016 26343,22086 26305,22178 26304,22278 26304,22691 26342,22782 26413,22853 26442,22865 26442,24134 26413,24146 26343,24216 26305,24308 26304,24408 26304,24821 26317,24851 25182,24851 25194,24821 25195,24721 25195,24308 25157,24217 25086,24146 25057,24134 25057,22865 25086,22853 25156,22783 25194,22691 25195,22591 25195,22178 25157,22087 25086,22016 24994,21978 24895,21978 24383,21978 24344,21994 24305,21978 24206,21978 23694,21978 23655,21994 23616,21978 23517,21978 23005,21978 22913,22016 22843,22086 22805,22178 22804,22278 22804,22691 22842,22782 22913,22853 22942,22865 22942,24134 22913,24146 22843,24216 22805,24308 22804,24408 22804,24821 22817,24851 22323,24851 22312,24824 22175,24688 21997,24613 21803,24613 21695,24658 21695,24308 21657,24217 21586,24146 21557,24134 21557,22865 21586,22853 21656,22783 21694,22691 21695,22591 21695,22178 21657,22087 21586,22016 21494,21978 21395,21978 20883,21978 20844,21994 20805,21978 20706,21978 20194,21978 20155,21994 20116,21978 20017,21978 19505,21978 19413,22016 19343,22086 19305,22178 19304,22278 19304,22691 19342,22782 19413,22853 19442,22865 19442,24134 19413,24146 19343,24216 19305,24308 19304,24408 19304,24821 19342,24912 19413,24983 19505,25021 19604,25021 20116,25021 20155,25005 20194,25021 20293,25021 20805,25021 20844,25005 20883,25021 20982,25021 21413,25021 21413,25196 21487,25375 21624,25511 21802,25586 21996,25586 22087,25548 26030,25548 25981,25581 25981,25581 25195,26367 25195,26178 25157,26087 25086,26016 24994,25978 24895,25978 24383,25978 24344,25994 24305,25978 24206,25978 23694,25978 23655,25994 23616,25978 23517,25978 23005,25978 22913,26016 22843,26086 22805,26178 22804,26278 22804,26691 22842,26782 22913,26853 22942,26865 22942,28134 22913,28146 22843,28216 22805,28308 22804,28408 22804,28809 22781,28814 22681,28881 22681,28881 22349,29213 22203,29213 22024,29287 21888,29424 21850,29513 21518,29181 21418,29114 21300,29090 19828,29090 19758,29021 20116,29021 20155,29005 20194,29021 20293,29021 20805,29021 20844,29005 20883,29021 20982,29021 21494,29021 21586,28983 21656,28913 21694,28821 21695,28721 21695,28308 21657,28217 21586,28146 21557,28134 21557,26865 21586,26853 21656,26783 21694,26691 21695,26591 21695,26178 21657,26087 21586,26016 21494,25978 21395,25978 20883,25978 20844,25994 20805,25978 20706,25978 20194,25978 20155,25994 20116,25978 20017,25978 19505,25978 19413,26016 19343,26086 19305,26178 19304,26278 19304,26691 19342,26782 19413,26853 19442,26865 19442,28134 19413,28146 19343,28216 19305,28308 19304,28358 19197,28313 19003,28313 18824,28387 18688,28524 18613,28702 18613,28896 18687,29075 18824,29211 19002,29286 19149,29286 19481,29618 19481,29618 19581,29685 19581,29685 19700,29709 21171,29709 21441,29978 21395,29978 20883,29978 20844,29994 20805,29978 20706,29978 20194,29978 20155,29994 20116,29978 20017,29978 19505,29978 19413,30016 19343,30086 19305,30178 19304,30278 19304,30691 19340,30776 19253,30776 19161,30814 19091,30885 19053,30977 19052,31076 19052,31430 19081,31500 19053,31569 19052,31668 19052,31950 18050,31950 18050,19050 29950,19050 29950,24157 "
         style="fill-rule:evenodd" />
    </g>
    <g
       id="g402"
       style="fill:#000000;fill-opacity:0;stroke:#000000;stroke-width:100;stroke-linecap:round;stroke-linejoin:round;stroke-opacity:1">
      <polyline
         id="polyline404"
         points="29950,24157 29754,23962 29754,21781 29743,21563 29681,21412 29585,21384 29515,21455 29515,21314 29487,21218 29281,21145 29063,21156 28912,21218 28884,21314 29200,21629 29515,21314 29515,21455 29270,21700 29585,22015 29681,21987 29754,21781 29754,23962 29548,23755 29548,23250 29549,23250 29641,23212 29711,23141 29749,23049 29750,22950 29750,22350 29712,22258 29641,22188 29549,22150 29496,22149 29515,22085 29200,21770 29129,21841 29129,21700 28814,21384 28718,21412 28695,21478 28695,20721 28695,20308 28657,20217 28586,20146 28494,20108 28395,20108 27883,20108 27868,20114 27868,20000 27840,19859 27760,19739 27760,19739 27510,19489 27390,19409 27250,19381 24319,19381 24275,19338 24097,19263 23903,19263 23724,19337 23680,19381 20750,19381 20609,19409 20489,19489 20489,19489 20239,19739 20236,19744 20236,19653 20162,19474 20025,19338 19847,19263 19653,19263 19474,19337 19338,19474 19263,19652 19263,19846 19337,20025 19442,20130 19442,20134 19413,20146 19343,20216 19305,20308 19304,20408 19304,20821 19342,20912 19413,20983 19505,21021 19604,21021 20116,21021 20155,21005 20194,21021 20293,21021 20805,21021 20834,21009 20848,21079 20928,21199 21239,21510 21239,21510 21359,21590 21476,21613 21499,21618 21499,21618 21500,21618 22000,21618 22140,21590 22250,21517 22359,21590 22500,21618 24500,21618 24640,21590 24750,21517 24859,21590 24976,21613 24999,21618 24999,21618 25000,21618 28000,21618 28140,21590 28260,21510 28449,21321 28529,21201 28557,21061 28557,20995 28586,20983 28656,20913 28694,20821 28695,20721 28695,21478 28645,21618 28656,21836 28718,21987 28814,22015 29129,21700 29129,21841 28884,22085 28903,22149 28850,22149 28758,22187 28695,22251 28695,22178 28657,22087 28586,22016 28494,21978 28395,21978 27883,21978 27844,21994 27805,21978 27706,21978 27194,21978 27155,21994 27116,21978 27017,21978 26505,21978 26413,22016 26343,22086 26305,22178 26304,22278 26304,22691 26342,22782 26413,22853 26442,22865 26442,24134 26413,24146 26343,24216 26305,24308 26304,24408 26304,24821 26317,24851 25182,24851 25194,24821 25195,24721 25195,24308 25157,24217 25086,24146 25057,24134 25057,22865 25086,22853 25156,22783 25194,22691 25195,22591 25195,22178 25157,22087 25086,22016 24994,21978 24895,21978 24383,21978 24344,21994 24305,21978 24206,21978 23694,21978 23655,21994 23616,21978 23517,21978 23005,21978 22913,22016 22843,22086 22805,22178 22804,22278 22804,22691 22842,22782 22913,22853 22942,22865 22942,24134 22913,24146 22843,24216 22805,24308 22804,24408 22804,24821 22817,24851 22323,24851 22312,24824 22175,24688 21997,24613 21803,24613 21695,24658 21695,24308 21657,24217 21586,24146 21557,24134 21557,22865 21586,22853 21656,22783 21694,22691 21695,22591 21695,22178 21657,22087 21586,22016 21494,21978 21395,21978 20883,21978 20844,21994 20805,21978 20706,21978 20194,21978 20155,21994 20116,21978 20017,21978 19505,21978 19413,22016 19343,22086 19305,22178 19304,22278 19304,22691 19342,22782 19413,22853 19442,22865 19442,24134 19413,24146 19343,24216 19305,24308 19304,24408 19304,24821 19342,24912 19413,24983 19505,25021 19604,25021 20116,25021 20155,25005 20194,25021 20293,25021 20805,25021 20844,25005 20883,25021 20982,25021 21413,25021 21413,25196 21487,25375 21624,25511 21802,25586 21996,25586 22087,25548 26030,25548 25981,25581 25981,25581 25195,26367 25195,26178 25157,26087 25086,26016 24994,25978 24895,25978 24383,25978 24344,25994 24305,25978 24206,25978 23694,25978 23655,25994 23616,25978 23517,25978 23005,25978 22913,26016 22843,26086 22805,26178 22804,26278 22804,26691 22842,26782 22913,26853 22942,26865 22942,28134 22913,28146 22843,28216 22805,28308 22804,28408 22804,28809 22781,28814 22681,28881 22681,28881 22349,29213 22203,29213 22024,29287 21888,29424 21850,29513 21518,29181 21418,29114 21300,29090 19828,29090 19758,29021 20116,29021 20155,29005 20194,29021 20293,29021 20805,29021 20844,29005 20883,29021 20982,29021 21494,29021 21586,28983 21656,28913 21694,28821 21695,28721 21695,28308 21657,28217 21586,28146 21557,28134 21557,26865 21586,26853 21656,26783 21694,26691 21695,26591 21695,26178 21657,26087 21586,26016 21494,25978 21395,25978 20883,25978 20844,25994 20805,25978 20706,25978 20194,25978 20155,25994 20116,25978 20017,25978 19505,25978 19413,26016 19343,26086 19305,26178 19304,26278 19304,26691 19342,26782 19413,26853 19442,26865 19442,28134 19413,28146 19343,28216 19305,28308 19304,28358 19197,28313 19003,28313 18824,28387 18688,28524 18613,28702 18613,28896 18687,29075 18824,29211 19002,29286 19149,29286 19481,29618 19481,29618 19581,29685 19581,29685 19700,29709 21171,29709 21441,29978 21395,29978 20883,29978 20844,29994 20805,29978 20706,29978 20194,29978 20155,29994 20116,29978 20017,29978 19505,29978 19413,30016 19343,30086 19305,30178 19304,30278 19304,30691 19340,30776 19253,30776 19161,30814 19091,30885 19053,30977 19052,31076 19052,31430 19081,31500 19053,31569 19052,31668 19052,31950 18050,31950 18050,19050 29950,19050 29950,24157 "
         fill="none;" />
    </g>
    <g
       id="g408"
       style="fill:#ffffff;fill-opacity:1;stroke:#ffffff;stroke-width:60;stroke-linecap:round;stroke-linejoin:round;stroke-opacity:1">
      <circle
         cx="22300"
         cy="29700"
         r="38.897598"
         id="circle410" />
      <circle
         cx="25100"
         cy="26900"
         r="38.897598"
         id="circle412" />
      <circle
         cx="25100"
         cy="27800"
         r="38.897598"
         id="circle414" />
      <circle
         cx="19100"
         cy="28800"
         r="38.897598"
         id="circle416" />
      <circle
         cx="21900"
         cy="25100"
         r="38.897598"
         id="circle418" />
      <circle
         cx="24000"
         cy="19750"
         r="38.897598"
         id="circle420" />
      <circle
         cx="19750"
         cy="19750"
         r="38.897598"
         id="circle422" />
      <circle
         cx="22250"
         cy="20250"
         r="38.897598"
         id="circle424" />
      <circle
         cx="25750"
         cy="20500"
         r="38.897598"
         id="circle426" />
      <circle
         cx="22250"
         cy="21000"
         r="38.897598"
         id="circle428" />
      <circle
         cx="29200"
         cy="22700"
         r="38.897598"
         id="circle430" />
      <circle
         cx="29200"
         cy="21700"
         r="38.897598"
         id="circle432" />
      <circle
         cx="29200"
         cy="25200"
         r="38.897598"
         id="circle434" />
      <circle
         cx="29200"
         cy="26200"
         r="38.897598"
         id="circle436" />
      <circle
         cx="29200"
         cy="27200"
         r="38.897598"
         id="circle438" />
      <circle
         cx="29200"
         cy="28200"
         r="38.897598"
         id="circle440" />
      <circle
         cx="29200"
         cy="29200"
         r="38.897598"
         id="circle442" />
      <circle
         cx="29200"
         cy="30200"
         r="38.897598"
         id="circle444" />
    </g>
  </g>
</svg>
