<?xml version="1.0" encoding="UTF-8" standalone="no"?>
<svg
   xmlns:dc="http://purl.org/dc/elements/1.1/"
   xmlns:cc="http://creativecommons.org/ns#"
   xmlns:rdf="http://www.w3.org/1999/02/22-rdf-syntax-ns#"
   xmlns:svg="http://www.w3.org/2000/svg"
   xmlns="http://www.w3.org/2000/svg"
   xmlns:sodipodi="http://sodipodi.sourceforge.net/DTD/sodipodi-0.dtd"
   xmlns:inkscape="http://www.inkscape.org/namespaces/inkscape"
   version="1.1"
   width="120.47392"
   height="127.55691"
   viewBox="0 0 13385.99 14173"
   id="svg2"
   inkscape:version="0.48.3.1 r9886"
   sodipodi:docname="rxlamp-Front.svg">
  <metadata
     id="metadata764">
    <rdf:RDF>
      <cc:Work
         rdf:about="">
        <dc:format>image/svg+xml</dc:format>
        <dc:type
           rdf:resource="http://purl.org/dc/dcmitype/StillImage" />
      </cc:Work>
    </rdf:RDF>
  </metadata>
  <defs
     id="defs762" />
  <sodipodi:namedview
     pagecolor="#ffffff"
     bordercolor="#666666"
     borderopacity="1"
     objecttolerance="10"
     gridtolerance="10"
     guidetolerance="10"
     inkscape:pageopacity="0"
     inkscape:pageshadow="2"
     inkscape:window-width="640"
     inkscape:window-height="480"
     id="namedview760"
     showgrid="false"
     units="mm"
     fit-margin-top="0"
     fit-margin-left="0"
     fit-margin-right="0"
     fit-margin-bottom="0"
     inkscape:zoom="0.18412122"
     inkscape:cx="584.63059"
     inkscape:cy="-228.55485"
     inkscape:window-x="519"
     inkscape:window-y="323"
     inkscape:window-maximized="0"
     inkscape:current-layer="svg2" />
  <title
     id="title4">SVG Picture created as rxlamp-Front.svg date 2013/03/30 06:00:53 </title>
  <desc
     id="desc6">Picture generated by PCBNEW </desc>
  <g
     style="fill:#000000;fill-opacity:1;stroke:#000000;stroke-linecap:round;stroke-linejoin:round;stroke-opacity:1"
     id="g8"
     transform="translate(-17716.059,-18897)" />
  <g
     style="fill:#000000;fill-opacity:0;stroke:#000000;stroke-width:60;stroke-linecap:round;stroke-linejoin:round;stroke-opacity:1"
     id="g10"
     transform="translate(-17716.059,-18897)" />
  <g
     style="fill:#000000;fill-opacity:1;stroke:#000000;stroke-width:60;stroke-linecap:round;stroke-linejoin:round;stroke-opacity:1"
     id="g12"
     transform="translate(-17716.059,-18897)">
    <polyline
       style="fill-rule:evenodd"
       points="28749,31869 28415,31869 28415,31535 28749,31535 28749,31869 "
       id="polyline14" />
    <polyline
       style="fill-rule:evenodd"
       points="28749,30905 28415,30905 28415,30571 28749,30571 28749,30905 "
       id="polyline16" />
    <polyline
       style="fill-rule:evenodd"
       points="28856,30610 28856,30570 28896,30570 28896,30610 28856,30610 "
       id="polyline18" />
    <polyline
       style="fill-rule:evenodd"
       points="29056,30610 29056,30570 29096,30570 29096,30610 29056,30610 "
       id="polyline20" />
    <polyline
       style="fill-rule:evenodd"
       points="27120,31649 27454,31649 27454,31943 27120,31943 27120,31649 "
       id="polyline22" />
    <polyline
       style="fill-rule:evenodd"
       points="27120,31057 27454,31057 27454,31351 27120,31351 27120,31057 "
       id="polyline24" />
    <polyline
       style="fill-rule:evenodd"
       points="24620,31649 24954,31649 24954,31943 24620,31943 24620,31649 "
       id="polyline26" />
    <polyline
       style="fill-rule:evenodd"
       points="24620,31057 24954,31057 24954,31351 24620,31351 24620,31057 "
       id="polyline28" />
    <polyline
       style="fill-rule:evenodd"
       points="23620,31649 23954,31649 23954,31943 23620,31943 23620,31649 "
       id="polyline30" />
    <polyline
       style="fill-rule:evenodd"
       points="23620,31057 23954,31057 23954,31351 23620,31351 23620,31057 "
       id="polyline32" />
    <polyline
       style="fill-rule:evenodd"
       points="25620,31649 25954,31649 25954,31943 25620,31943 25620,31649 "
       id="polyline34" />
    <polyline
       style="fill-rule:evenodd"
       points="25620,31057 25954,31057 25954,31351 25620,31351 25620,31057 "
       id="polyline36" />
    <polyline
       style="fill-rule:evenodd"
       points="22120,31649 22454,31649 22454,31943 22120,31943 22120,31649 "
       id="polyline38" />
    <polyline
       style="fill-rule:evenodd"
       points="22120,31057 22454,31057 22454,31351 22120,31351 22120,31057 "
       id="polyline40" />
    <polyline
       style="fill-rule:evenodd"
       points="21120,31649 21454,31649 21454,31943 21120,31943 21120,31649 "
       id="polyline42" />
    <polyline
       style="fill-rule:evenodd"
       points="21120,31057 21454,31057 21454,31351 21120,31351 21120,31057 "
       id="polyline44" />
    <polyline
       style="fill-rule:evenodd"
       points="20108,31645 20442,31645 20442,31939 20108,31939 20108,31645 "
       id="polyline46" />
    <polyline
       style="fill-rule:evenodd"
       points="20108,31053 20442,31053 20442,31347 20108,31347 20108,31053 "
       id="polyline48" />
    <polyline
       style="fill-rule:evenodd"
       points="28120,31649 28454,31649 28454,31943 28120,31943 28120,31649 "
       id="polyline50" />
    <polyline
       style="fill-rule:evenodd"
       points="28120,31057 28454,31057 28454,31351 28120,31351 28120,31057 "
       id="polyline52" />
    <polyline
       style="fill-rule:evenodd"
       points="29120,31649 29454,31649 29454,31943 29120,31943 29120,31649 "
       id="polyline54" />
    <polyline
       style="fill-rule:evenodd"
       points="29120,31057 29454,31057 29454,31351 29120,31351 29120,31057 "
       id="polyline56" />
    <polyline
       style="fill-rule:evenodd"
       points="25250,20741 25250,20388 25702,20388 25702,20741 25250,20741 "
       id="polyline58" />
    <polyline
       style="fill-rule:evenodd"
       points="23872,20741 23872,20388 24324,20388 24324,20741 23872,20741 "
       id="polyline60" />
    <polyline
       style="fill-rule:evenodd"
       points="24561,20741 24561,20388 25013,20388 25013,20741 24561,20741 "
       id="polyline62" />
    <polyline
       style="fill-rule:evenodd"
       points="24561,22611 24561,22258 25013,22258 25013,22611 24561,22611 "
       id="polyline64" />
    <polyline
       style="fill-rule:evenodd"
       points="23872,22611 23872,22258 24324,22258 24324,22611 23872,22611 "
       id="polyline66" />
    <polyline
       style="fill-rule:evenodd"
       points="25250,22611 25250,22258 25702,22258 25702,22611 25250,22611 "
       id="polyline68" />
    <polyline
       style="fill-rule:evenodd"
       points="28750,20741 28750,20388 29202,20388 29202,20741 28750,20741 "
       id="polyline70" />
    <polyline
       style="fill-rule:evenodd"
       points="27372,20741 27372,20388 27824,20388 27824,20741 27372,20741 "
       id="polyline72" />
    <polyline
       style="fill-rule:evenodd"
       points="28061,20741 28061,20388 28513,20388 28513,20741 28061,20741 "
       id="polyline74" />
    <polyline
       style="fill-rule:evenodd"
       points="28061,22611 28061,22258 28513,22258 28513,22611 28061,22611 "
       id="polyline76" />
    <polyline
       style="fill-rule:evenodd"
       points="27372,22611 27372,22258 27824,22258 27824,22611 27372,22611 "
       id="polyline78" />
    <polyline
       style="fill-rule:evenodd"
       points="28750,22611 28750,22258 29202,22258 29202,22611 28750,22611 "
       id="polyline80" />
    <polyline
       style="fill-rule:evenodd"
       points="28750,24741 28750,24388 29202,24388 29202,24741 28750,24741 "
       id="polyline82" />
    <polyline
       style="fill-rule:evenodd"
       points="27372,24741 27372,24388 27824,24388 27824,24741 27372,24741 "
       id="polyline84" />
    <polyline
       style="fill-rule:evenodd"
       points="28061,24741 28061,24388 28513,24388 28513,24741 28061,24741 "
       id="polyline86" />
    <polyline
       style="fill-rule:evenodd"
       points="28061,26611 28061,26258 28513,26258 28513,26611 28061,26611 "
       id="polyline88" />
    <polyline
       style="fill-rule:evenodd"
       points="27372,26611 27372,26258 27824,26258 27824,26611 27372,26611 "
       id="polyline90" />
    <polyline
       style="fill-rule:evenodd"
       points="28750,26611 28750,26258 29202,26258 29202,26611 28750,26611 "
       id="polyline92" />
    <polyline
       style="fill-rule:evenodd"
       points="28750,28741 28750,28388 29202,28388 29202,28741 28750,28741 "
       id="polyline94" />
    <polyline
       style="fill-rule:evenodd"
       points="27372,28741 27372,28388 27824,28388 27824,28741 27372,28741 "
       id="polyline96" />
    <polyline
       style="fill-rule:evenodd"
       points="28061,28741 28061,28388 28513,28388 28513,28741 28061,28741 "
       id="polyline98" />
    <polyline
       style="fill-rule:evenodd"
       points="28061,30611 28061,30258 28513,30258 28513,30611 28061,30611 "
       id="polyline100" />
    <polyline
       style="fill-rule:evenodd"
       points="27372,30611 27372,30258 27824,30258 27824,30611 27372,30611 "
       id="polyline102" />
    <polyline
       style="fill-rule:evenodd"
       points="28750,30611 28750,30258 29202,30258 29202,30611 28750,30611 "
       id="polyline104" />
    <polyline
       style="fill-rule:evenodd"
       points="25250,28741 25250,28388 25702,28388 25702,28741 25250,28741 "
       id="polyline106" />
    <polyline
       style="fill-rule:evenodd"
       points="23872,28741 23872,28388 24324,28388 24324,28741 23872,28741 "
       id="polyline108" />
    <polyline
       style="fill-rule:evenodd"
       points="24561,28741 24561,28388 25013,28388 25013,28741 24561,28741 "
       id="polyline110" />
    <polyline
       style="fill-rule:evenodd"
       points="24561,30611 24561,30258 25013,30258 25013,30611 24561,30611 "
       id="polyline112" />
    <polyline
       style="fill-rule:evenodd"
       points="23872,30611 23872,30258 24324,30258 24324,30611 23872,30611 "
       id="polyline114" />
    <polyline
       style="fill-rule:evenodd"
       points="25250,30611 25250,30258 25702,30258 25702,30611 25250,30611 "
       id="polyline116" />
    <polyline
       style="fill-rule:evenodd"
       points="21750,20741 21750,20388 22202,20388 22202,20741 21750,20741 "
       id="polyline118" />
    <polyline
       style="fill-rule:evenodd"
       points="20372,20741 20372,20388 20824,20388 20824,20741 20372,20741 "
       id="polyline120" />
    <polyline
       style="fill-rule:evenodd"
       points="21061,20741 21061,20388 21513,20388 21513,20741 21061,20741 "
       id="polyline122" />
    <polyline
       style="fill-rule:evenodd"
       points="21061,22611 21061,22258 21513,22258 21513,22611 21061,22611 "
       id="polyline124" />
    <polyline
       style="fill-rule:evenodd"
       points="20372,22611 20372,22258 20824,22258 20824,22611 20372,22611 "
       id="polyline126" />
    <polyline
       style="fill-rule:evenodd"
       points="21750,22611 21750,22258 22202,22258 22202,22611 21750,22611 "
       id="polyline128" />
    <polyline
       style="fill-rule:evenodd"
       points="21750,24741 21750,24388 22202,24388 22202,24741 21750,24741 "
       id="polyline130" />
    <polyline
       style="fill-rule:evenodd"
       points="20372,24741 20372,24388 20824,24388 20824,24741 20372,24741 "
       id="polyline132" />
    <polyline
       style="fill-rule:evenodd"
       points="21061,24741 21061,24388 21513,24388 21513,24741 21061,24741 "
       id="polyline134" />
    <polyline
       style="fill-rule:evenodd"
       points="21061,26611 21061,26258 21513,26258 21513,26611 21061,26611 "
       id="polyline136" />
    <polyline
       style="fill-rule:evenodd"
       points="20372,26611 20372,26258 20824,26258 20824,26611 20372,26611 "
       id="polyline138" />
    <polyline
       style="fill-rule:evenodd"
       points="21750,26611 21750,26258 22202,26258 22202,26611 21750,26611 "
       id="polyline140" />
    <polyline
       style="fill-rule:evenodd"
       points="21750,28741 21750,28388 22202,28388 22202,28741 21750,28741 "
       id="polyline142" />
    <polyline
       style="fill-rule:evenodd"
       points="20372,28741 20372,28388 20824,28388 20824,28741 20372,28741 "
       id="polyline144" />
    <polyline
       style="fill-rule:evenodd"
       points="21061,28741 21061,28388 21513,28388 21513,28741 21061,28741 "
       id="polyline146" />
    <polyline
       style="fill-rule:evenodd"
       points="21061,30611 21061,30258 21513,30258 21513,30611 21061,30611 "
       id="polyline148" />
    <polyline
       style="fill-rule:evenodd"
       points="20372,30611 20372,30258 20824,30258 20824,30611 20372,30611 "
       id="polyline150" />
    <polyline
       style="fill-rule:evenodd"
       points="21750,30611 21750,30258 22202,30258 22202,30611 21750,30611 "
       id="polyline152" />
    <polyline
       style="fill-rule:evenodd"
       points="25250,24741 25250,24388 25702,24388 25702,24741 25250,24741 "
       id="polyline154" />
    <polyline
       style="fill-rule:evenodd"
       points="23872,24741 23872,24388 24324,24388 24324,24741 23872,24741 "
       id="polyline156" />
    <polyline
       style="fill-rule:evenodd"
       points="24561,24741 24561,24388 25013,24388 25013,24741 24561,24741 "
       id="polyline158" />
    <polyline
       style="fill-rule:evenodd"
       points="24561,26611 24561,26258 25013,26258 25013,26611 24561,26611 "
       id="polyline160" />
    <polyline
       style="fill-rule:evenodd"
       points="23872,26611 23872,26258 24324,26258 24324,26611 23872,26611 "
       id="polyline162" />
    <polyline
       style="fill-rule:evenodd"
       points="25250,26611 25250,26258 25702,26258 25702,26611 25250,26611 "
       id="polyline164" />
    <polyline
       style="fill-rule:evenodd"
       points="18230,24230 18770,24230 18770,24770 18230,24770 18230,24230 "
       id="polyline166" />
    <circle
       cx="18500"
       cy="25500"
       r="270"
       id="circle168"
       sodipodi:cx="18500"
       sodipodi:cy="25500"
       sodipodi:rx="270"
       sodipodi:ry="270"
       d="m 18770,25500 c 0,149.117 -120.883,270 -270,270 -149.117,0 -270,-120.883 -270,-270 0,-149.117 120.883,-270 270,-270 149.117,0 270,120.883 270,270 z" />
    <polyline
       style="fill-rule:evenodd"
       points="18770,22770 18230,22770 18230,22230 18770,22230 18770,22770 "
       id="polyline170" />
    <circle
       cx="18500"
       cy="21500"
       r="270"
       id="circle172"
       sodipodi:cx="18500"
       sodipodi:cy="21500"
       sodipodi:rx="270"
       sodipodi:ry="270"
       d="m 18770,21500 c 0,149.117 -120.883,270 -270,270 -149.117,0 -270,-120.883 -270,-270 0,-149.117 120.883,-270 270,-270 149.117,0 270,120.883 270,270 z" />
    <circle
       cx="18500"
       cy="20500"
       r="270"
       id="circle174"
       sodipodi:cx="18500"
       sodipodi:cy="20500"
       sodipodi:rx="270"
       sodipodi:ry="270"
       d="m 18770,20500 c 0,149.117 -120.883,270 -270,270 -149.117,0 -270,-120.883 -270,-270 0,-149.117 120.883,-270 270,-270 149.117,0 270,120.883 270,270 z" />
    <circle
       cx="18500"
       cy="19500"
       r="270"
       id="circle176"
       sodipodi:cx="18500"
       sodipodi:cy="19500"
       sodipodi:rx="270"
       sodipodi:ry="270"
       d="m 18770,19500 c 0,149.117 -120.883,270 -270,270 -149.117,0 -270,-120.883 -270,-270 0,-149.117 120.883,-270 270,-270 149.117,0 270,120.883 270,270 z" />
    <polyline
       style="fill-rule:evenodd"
       points="18230,27730 18770,27730 18770,28270 18230,28270 18230,27730 "
       id="polyline178" />
    <circle
       cx="18500"
       cy="29000"
       r="270"
       id="circle180"
       sodipodi:cx="18500"
       sodipodi:cy="29000"
       sodipodi:rx="270"
       sodipodi:ry="270"
       d="m 18770,29000 c 0,149.117 -120.883,270 -270,270 -149.117,0 -270,-120.883 -270,-270 0,-149.117 120.883,-270 270,-270 149.117,0 270,120.883 270,270 z" />
    <circle
       cx="18500"
       cy="30000"
       r="270"
       id="circle182"
       sodipodi:cx="18500"
       sodipodi:cy="30000"
       sodipodi:rx="270"
       sodipodi:ry="270"
       d="m 18770,30000 c 0,149.117 -120.883,270 -270,270 -149.117,0 -270,-120.883 -270,-270 0,-149.117 120.883,-270 270,-270 149.117,0 270,120.883 270,270 z" />
    <circle
       cx="18500"
       cy="31000"
       r="270"
       id="circle184"
       sodipodi:cx="18500"
       sodipodi:cy="31000"
       sodipodi:rx="270"
       sodipodi:ry="270"
       d="m 18770,31000 c 0,149.117 -120.883,270 -270,270 -149.117,0 -270,-120.883 -270,-270 0,-149.117 120.883,-270 270,-270 149.117,0 270,120.883 270,270 z" />
    <circle
       cx="18500"
       cy="32000"
       r="270"
       id="circle186"
       sodipodi:cx="18500"
       sodipodi:cy="32000"
       sodipodi:rx="270"
       sodipodi:ry="270"
       d="m 18770,32000 c 0,149.117 -120.883,270 -270,270 -149.117,0 -270,-120.883 -270,-270 0,-149.117 120.883,-270 270,-270 149.117,0 270,120.883 270,270 z" />
    <circle
       cx="22637.801"
       cy="23543.301"
       r="166.85001"
       id="circle188"
       sodipodi:cx="22637.801"
       sodipodi:cy="23543.301"
       sodipodi:rx="166.85001"
       sodipodi:ry="166.85001"
       d="m 22804.651,23543.301 c 0,92.148 -74.702,166.85 -166.85,166.85 -92.149,0 -166.85,-74.702 -166.85,-166.85 0,-92.149 74.701,-166.85 166.85,-166.85 92.148,0 166.85,74.701 166.85,166.85 z" />
    <circle
       cx="22086.6"
       cy="27362.199"
       r="166.85001"
       id="circle190"
       sodipodi:cx="22086.6"
       sodipodi:cy="27362.199"
       sodipodi:rx="166.85001"
       sodipodi:ry="166.85001"
       d="m 22253.45,27362.199 c 0,92.149 -74.702,166.85 -166.85,166.85 -92.149,0 -166.85,-74.701 -166.85,-166.85 0,-92.148 74.701,-166.85 166.85,-166.85 92.148,0 166.85,74.702 166.85,166.85 z" />
    <circle
       cx="22598.4"
       cy="28346.5"
       r="166.85001"
       id="circle192"
       sodipodi:cx="22598.4"
       sodipodi:cy="28346.5"
       sodipodi:rx="166.85001"
       sodipodi:ry="166.85001"
       d="m 22765.25,28346.5 c 0,92.149 -74.701,166.85 -166.85,166.85 -92.148,0 -166.85,-74.701 -166.85,-166.85 0,-92.149 74.702,-166.85 166.85,-166.85 92.149,0 166.85,74.701 166.85,166.85 z" />
    <circle
       cx="25511.801"
       cy="27086.6"
       r="166.85001"
       id="circle194"
       sodipodi:cx="25511.801"
       sodipodi:cy="27086.6"
       sodipodi:rx="166.85001"
       sodipodi:ry="166.85001"
       d="m 25678.651,27086.6 c 0,92.148 -74.702,166.85 -166.85,166.85 -92.149,0 -166.85,-74.702 -166.85,-166.85 0,-92.149 74.701,-166.85 166.85,-166.85 92.148,0 166.85,74.701 166.85,166.85 z" />
    <circle
       cx="25511.801"
       cy="27637.801"
       r="166.85001"
       id="circle196"
       sodipodi:cx="25511.801"
       sodipodi:cy="27637.801"
       sodipodi:rx="166.85001"
       sodipodi:ry="166.85001"
       d="m 25678.651,27637.801 c 0,92.148 -74.702,166.85 -166.85,166.85 -92.149,0 -166.85,-74.702 -166.85,-166.85 0,-92.149 74.701,-166.85 166.85,-166.85 92.148,0 166.85,74.701 166.85,166.85 z" />
    <circle
       cx="20000"
       cy="28503.9"
       r="166.85001"
       id="circle198"
       sodipodi:cx="20000"
       sodipodi:cy="28503.9"
       sodipodi:rx="166.85001"
       sodipodi:ry="166.85001"
       d="m 20166.85,28503.9 c 0,92.149 -74.701,166.85 -166.85,166.85 -92.149,0 -166.85,-74.701 -166.85,-166.85 0,-92.148 74.701,-166.85 166.85,-166.85 92.149,0 166.85,74.702 166.85,166.85 z" />
    <circle
       cx="27007.9"
       cy="27480.301"
       r="166.85001"
       id="circle200"
       sodipodi:cx="27007.9"
       sodipodi:cy="27480.301"
       sodipodi:rx="166.85001"
       sodipodi:ry="166.85001"
       d="m 27174.75,27480.301 c 0,92.148 -74.701,166.85 -166.85,166.85 -92.148,0 -166.85,-74.702 -166.85,-166.85 0,-92.149 74.702,-166.85 166.85,-166.85 92.149,0 166.85,74.701 166.85,166.85 z" />
    <circle
       cx="25472.4"
       cy="23700.801"
       r="166.85001"
       id="circle202"
       sodipodi:cx="25472.4"
       sodipodi:cy="23700.801"
       sodipodi:rx="166.85001"
       sodipodi:ry="166.85001"
       d="m 25639.25,23700.801 c 0,92.148 -74.701,166.85 -166.85,166.85 -92.148,0 -166.85,-74.702 -166.85,-166.85 0,-92.149 74.702,-166.85 166.85,-166.85 92.149,0 166.85,74.701 166.85,166.85 z" />
    <circle
       cx="25433.1"
       cy="25275.6"
       r="166.85001"
       id="circle204"
       sodipodi:cx="25433.1"
       sodipodi:cy="25275.6"
       sodipodi:rx="166.85001"
       sodipodi:ry="166.85001"
       d="m 25599.95,25275.6 c 0,92.148 -74.702,166.85 -166.85,166.85 -92.149,0 -166.85,-74.702 -166.85,-166.85 0,-92.149 74.701,-166.85 166.85,-166.85 92.148,0 166.85,74.701 166.85,166.85 z" />
    <circle
       cx="23110.199"
       cy="27834.6"
       r="166.85001"
       id="circle206"
       sodipodi:cx="23110.199"
       sodipodi:cy="27834.6"
       sodipodi:rx="166.85001"
       sodipodi:ry="166.85001"
       d="m 23277.049,27834.6 c 0,92.148 -74.701,166.85 -166.85,166.85 -92.148,0 -166.85,-74.702 -166.85,-166.85 0,-92.149 74.702,-166.85 166.85,-166.85 92.149,0 166.85,74.701 166.85,166.85 z" />
    <circle
       cx="26299.199"
       cy="26456.699"
       r="166.85001"
       id="circle208"
       sodipodi:cx="26299.199"
       sodipodi:cy="26456.699"
       sodipodi:rx="166.85001"
       sodipodi:ry="166.85001"
       d="m 26466.049,26456.699 c 0,92.149 -74.701,166.85 -166.85,166.85 -92.148,0 -166.85,-74.701 -166.85,-166.85 0,-92.148 74.702,-166.85 166.85,-166.85 92.149,0 166.85,74.702 166.85,166.85 z" />
    <circle
       cx="23503.9"
       cy="27244.1"
       r="166.85001"
       id="circle210"
       sodipodi:cx="23503.9"
       sodipodi:cy="27244.1"
       sodipodi:rx="166.85001"
       sodipodi:ry="166.85001"
       d="m 23670.75,27244.1 c 0,92.148 -74.701,166.85 -166.85,166.85 -92.148,0 -166.85,-74.702 -166.85,-166.85 0,-92.149 74.702,-166.85 166.85,-166.85 92.149,0 166.85,74.701 166.85,166.85 z" />
    <circle
       cx="22598.4"
       cy="27401.6"
       r="166.85001"
       id="circle212"
       sodipodi:cx="22598.4"
       sodipodi:cy="27401.6"
       sodipodi:rx="166.85001"
       sodipodi:ry="166.85001"
       d="m 22765.25,27401.6 c 0,92.148 -74.701,166.85 -166.85,166.85 -92.148,0 -166.85,-74.702 -166.85,-166.85 0,-92.149 74.702,-166.85 166.85,-166.85 92.149,0 166.85,74.701 166.85,166.85 z" />
    <circle
       cx="26063"
       cy="24645.699"
       r="166.85001"
       id="circle214"
       sodipodi:cx="26063"
       sodipodi:cy="24645.699"
       sodipodi:rx="166.85001"
       sodipodi:ry="166.85001"
       d="m 26229.85,24645.699 c 0,92.149 -74.701,166.85 -166.85,166.85 -92.149,0 -166.85,-74.701 -166.85,-166.85 0,-92.148 74.701,-166.85 166.85,-166.85 92.149,0 166.85,74.702 166.85,166.85 z" />
    <circle
       cx="28897.6"
       cy="23464.6"
       r="166.85001"
       id="circle216"
       sodipodi:cx="28897.6"
       sodipodi:cy="23464.6"
       sodipodi:rx="166.85001"
       sodipodi:ry="166.85001"
       d="m 29064.45,23464.6 c 0,92.148 -74.702,166.85 -166.85,166.85 -92.149,0 -166.85,-74.702 -166.85,-166.85 0,-92.149 74.701,-166.85 166.85,-166.85 92.148,0 166.85,74.701 166.85,166.85 z" />
    <circle
       cx="29291.301"
       cy="23385.801"
       r="166.85001"
       id="circle218"
       sodipodi:cx="29291.301"
       sodipodi:cy="23385.801"
       sodipodi:rx="166.85001"
       sodipodi:ry="166.85001"
       d="m 29458.151,23385.801 c 0,92.148 -74.702,166.85 -166.85,166.85 -92.149,0 -166.85,-74.702 -166.85,-166.85 0,-92.149 74.701,-166.85 166.85,-166.85 92.148,0 166.85,74.701 166.85,166.85 z" />
    <circle
       cx="28976.4"
       cy="22992.1"
       r="166.85001"
       id="circle220"
       sodipodi:cx="28976.4"
       sodipodi:cy="22992.1"
       sodipodi:rx="166.85001"
       sodipodi:ry="166.85001"
       d="m 29143.25,22992.1 c 0,92.148 -74.701,166.85 -166.85,166.85 -92.148,0 -166.85,-74.702 -166.85,-166.85 0,-92.149 74.702,-166.85 166.85,-166.85 92.149,0 166.85,74.701 166.85,166.85 z" />
    <circle
       cx="28503.9"
       cy="23149.6"
       r="166.85001"
       id="circle222"
       sodipodi:cx="28503.9"
       sodipodi:cy="23149.6"
       sodipodi:rx="166.85001"
       sodipodi:ry="166.85001"
       d="m 28670.75,23149.6 c 0,92.148 -74.701,166.85 -166.85,166.85 -92.148,0 -166.85,-74.702 -166.85,-166.85 0,-92.149 74.702,-166.85 166.85,-166.85 92.149,0 166.85,74.701 166.85,166.85 z" />
    <circle
       cx="28503.9"
       cy="23622"
       r="166.85001"
       id="circle224"
       sodipodi:cx="28503.9"
       sodipodi:cy="23622"
       sodipodi:rx="166.85001"
       sodipodi:ry="166.85001"
       d="m 28670.75,23622 c 0,92.149 -74.701,166.85 -166.85,166.85 -92.148,0 -166.85,-74.701 -166.85,-166.85 0,-92.149 74.702,-166.85 166.85,-166.85 92.149,0 166.85,74.701 166.85,166.85 z" />
    <circle
       cx="27952.801"
       cy="29252"
       r="166.85001"
       id="circle226"
       sodipodi:cx="27952.801"
       sodipodi:cy="29252"
       sodipodi:rx="166.85001"
       sodipodi:ry="166.85001"
       d="m 28119.651,29252 c 0,92.149 -74.702,166.85 -166.85,166.85 -92.149,0 -166.85,-74.701 -166.85,-166.85 0,-92.149 74.701,-166.85 166.85,-166.85 92.148,0 166.85,74.701 166.85,166.85 z" />
    <circle
       cx="23661.4"
       cy="32440.9"
       r="166.85001"
       id="circle228"
       sodipodi:cx="23661.4"
       sodipodi:cy="32440.9"
       sodipodi:rx="166.85001"
       sodipodi:ry="166.85001"
       d="m 23828.25,32440.9 c 0,92.149 -74.701,166.85 -166.85,166.85 -92.148,0 -166.85,-74.701 -166.85,-166.85 0,-92.148 74.702,-166.85 166.85,-166.85 92.149,0 166.85,74.702 166.85,166.85 z" />
    <circle
       cx="19803.1"
       cy="30590.6"
       r="166.85001"
       id="circle230"
       sodipodi:cx="19803.1"
       sodipodi:cy="30590.6"
       sodipodi:rx="166.85001"
       sodipodi:ry="166.85001"
       d="m 19969.95,30590.6 c 0,92.148 -74.702,166.85 -166.85,166.85 -92.149,0 -166.85,-74.702 -166.85,-166.85 0,-92.149 74.701,-166.85 166.85,-166.85 92.148,0 166.85,74.701 166.85,166.85 z" />
    <circle
       cx="21299.199"
       cy="25196.9"
       r="166.85001"
       id="circle232"
       sodipodi:cx="21299.199"
       sodipodi:cy="25196.9"
       sodipodi:rx="166.85001"
       sodipodi:ry="166.85001"
       d="m 21466.049,25196.9 c 0,92.149 -74.701,166.85 -166.85,166.85 -92.148,0 -166.85,-74.701 -166.85,-166.85 0,-92.148 74.702,-166.85 166.85,-166.85 92.149,0 166.85,74.702 166.85,166.85 z" />
    <circle
       cx="30433.1"
       cy="21496.1"
       r="166.85001"
       id="circle234"
       sodipodi:cx="30433.1"
       sodipodi:cy="21496.1"
       sodipodi:rx="166.85001"
       sodipodi:ry="166.85001"
       d="m 30599.95,21496.1 c 0,92.148 -74.702,166.85 -166.85,166.85 -92.149,0 -166.85,-74.702 -166.85,-166.85 0,-92.149 74.701,-166.85 166.85,-166.85 92.148,0 166.85,74.701 166.85,166.85 z" />
    <circle
       cx="23385.801"
       cy="24448.801"
       r="166.85001"
       id="circle236"
       sodipodi:cx="23385.801"
       sodipodi:cy="24448.801"
       sodipodi:rx="166.85001"
       sodipodi:ry="166.85001"
       d="m 23552.651,24448.801 c 0,92.148 -74.702,166.85 -166.85,166.85 -92.149,0 -166.85,-74.702 -166.85,-166.85 0,-92.149 74.701,-166.85 166.85,-166.85 92.148,0 166.85,74.701 166.85,166.85 z" />
    <circle
       cx="23228.301"
       cy="23189"
       r="166.85001"
       id="circle238"
       sodipodi:cx="23228.301"
       sodipodi:cy="23189"
       sodipodi:rx="166.85001"
       sodipodi:ry="166.85001"
       d="m 23395.151,23189 c 0,92.149 -74.702,166.85 -166.85,166.85 -92.149,0 -166.85,-74.701 -166.85,-166.85 0,-92.149 74.701,-166.85 166.85,-166.85 92.148,0 166.85,74.701 166.85,166.85 z" />
    <circle
       cx="23037.4"
       cy="21150"
       r="166.85001"
       id="circle240"
       sodipodi:cx="23037.4"
       sodipodi:cy="21150"
       sodipodi:rx="166.85001"
       sodipodi:ry="166.85001"
       d="m 23204.25,21150 c 0,92.149 -74.701,166.85 -166.85,166.85 -92.148,0 -166.85,-74.701 -166.85,-166.85 0,-92.149 74.702,-166.85 166.85,-166.85 92.149,0 166.85,74.701 166.85,166.85 z" />
    <circle
       cx="19252"
       cy="19409.4"
       r="166.85001"
       id="circle242"
       sodipodi:cx="19252"
       sodipodi:cy="19409.4"
       sodipodi:rx="166.85001"
       sodipodi:ry="166.85001"
       d="m 19418.85,19409.4 c 0,92.149 -74.701,166.85 -166.85,166.85 -92.149,0 -166.85,-74.701 -166.85,-166.85 0,-92.148 74.701,-166.85 166.85,-166.85 92.149,0 166.85,74.702 166.85,166.85 z" />
    <circle
       cx="21574.801"
       cy="21181.1"
       r="166.85001"
       id="circle244"
       sodipodi:cx="21574.801"
       sodipodi:cy="21181.1"
       sodipodi:rx="166.85001"
       sodipodi:ry="166.85001"
       d="m 21741.651,21181.1 c 0,92.148 -74.702,166.85 -166.85,166.85 -92.149,0 -166.85,-74.702 -166.85,-166.85 0,-92.149 74.701,-166.85 166.85,-166.85 92.148,0 166.85,74.701 166.85,166.85 z" />
    <circle
       cx="26338.6"
       cy="20669.301"
       r="166.85001"
       id="circle246"
       sodipodi:cx="26338.6"
       sodipodi:cy="20669.301"
       sodipodi:rx="166.85001"
       sodipodi:ry="166.85001"
       d="m 26505.45,20669.301 c 0,92.148 -74.702,166.85 -166.85,166.85 -92.149,0 -166.85,-74.702 -166.85,-166.85 0,-92.149 74.701,-166.85 166.85,-166.85 92.148,0 166.85,74.701 166.85,166.85 z" />
    <circle
       cx="23037.4"
       cy="20250"
       r="166.85001"
       id="circle248"
       sodipodi:cx="23037.4"
       sodipodi:cy="20250"
       sodipodi:rx="166.85001"
       sodipodi:ry="166.85001"
       d="m 23204.25,20250 c 0,92.149 -74.701,166.85 -166.85,166.85 -92.148,0 -166.85,-74.701 -166.85,-166.85 0,-92.149 74.702,-166.85 166.85,-166.85 92.149,0 166.85,74.701 166.85,166.85 z" />
    <circle
       cx="20590.6"
       cy="20000"
       r="166.85001"
       id="circle250"
       sodipodi:cx="20590.6"
       sodipodi:cy="20000"
       sodipodi:rx="166.85001"
       sodipodi:ry="166.85001"
       d="m 20757.45,20000 c 0,92.149 -74.702,166.85 -166.85,166.85 -92.149,0 -166.85,-74.701 -166.85,-166.85 0,-92.149 74.701,-166.85 166.85,-166.85 92.148,0 166.85,74.701 166.85,166.85 z" />
  </g>
  <g
     style="fill:#000000;fill-opacity:1;stroke:#000000;stroke-width:118.11000061;stroke-linecap:round;stroke-linejoin:round;stroke-opacity:1"
     id="g252"
     transform="translate(-17716.059,-18897)">
    <path
       d="m 22637,26811 0,-3268"
       id="path254"
       inkscape:connector-curvature="0" />
    <path
       d="m 22086,27362 551,-551"
       id="path256"
       inkscape:connector-curvature="0" />
    <path
       d="m 18500,30000 82,0"
       id="path258"
       inkscape:connector-curvature="0" />
    <path
       d="m 22598,28897 0,-551"
       id="path260"
       inkscape:connector-curvature="0" />
    <path
       d="m 21968,29527 630,-630"
       id="path262"
       inkscape:connector-curvature="0" />
    <path
       d="m 19055,29527 2913,0"
       id="path264"
       inkscape:connector-curvature="0" />
    <path
       d="m 18582,30000 473,-473"
       id="path266"
       inkscape:connector-curvature="0" />
    <path
       d="m 19133,31366 -633,634"
       id="path268"
       inkscape:connector-curvature="0" />
    <path
       d="m 19133,30708 0,658"
       id="path270"
       inkscape:connector-curvature="0" />
    <path
       d="m 19842,30000 -709,708"
       id="path272"
       inkscape:connector-curvature="0" />
    <path
       d="m 25354,30000 -5512,0"
       id="path274"
       inkscape:connector-curvature="0" />
    <path
       d="m 26220,29133 -866,867"
       id="path276"
       inkscape:connector-curvature="0" />
    <path
       d="m 26220,27795 0,1338"
       id="path278"
       inkscape:connector-curvature="0" />
    <path
       d="m 25511,27086 709,709"
       id="path280"
       inkscape:connector-curvature="0" />
    <path
       d="m 18500,31000 0,-130"
       id="path282"
       inkscape:connector-curvature="0" />
    <path
       d="m 25984,28110 -473,-473"
       id="path284"
       inkscape:connector-curvature="0" />
    <path
       d="m 25984,28976 0,-866"
       id="path286"
       inkscape:connector-curvature="0" />
    <path
       d="m 25196,29763 788,-787"
       id="path288"
       inkscape:connector-curvature="0" />
    <path
       d="m 19606,29763 5590,0"
       id="path290"
       inkscape:connector-curvature="0" />
    <path
       d="m 18500,30870 1106,-1107"
       id="path292"
       inkscape:connector-curvature="0" />
    <path
       d="m 18500,29000 1003,0"
       id="path294"
       inkscape:connector-curvature="0" />
    <path
       d="m 19503,29000 497,-497"
       id="path296"
       inkscape:connector-curvature="0" />
    <path
       d="m 27283,27204 -276,276"
       id="path298"
       inkscape:connector-curvature="0" />
    <path
       d="m 27283,26850 0,354"
       id="path300"
       inkscape:connector-curvature="0" />
    <path
       d="m 27125,26692 158,158"
       id="path302"
       inkscape:connector-curvature="0" />
    <path
       d="m 27163,24566 -38,2126"
       id="path304"
       inkscape:connector-curvature="0" />
    <path
       d="m 25472,23700 1691,866"
       id="path306"
       inkscape:connector-curvature="0" />
    <path
       d="m 23110,25944 0,1890"
       id="path308"
       inkscape:connector-curvature="0" />
    <path
       d="m 23622,25433 -512,511"
       id="path310"
       inkscape:connector-curvature="0" />
    <path
       d="m 25275,25433 -1653,0"
       id="path312"
       inkscape:connector-curvature="0" />
    <path
       d="m 25433,25275 -158,158"
       id="path314"
       inkscape:connector-curvature="0" />
    <path
       d="m 23110,27834 0,0"
       id="path316"
       inkscape:connector-curvature="0" />
    <path
       d="m 23110,27834 0,0"
       id="path318"
       inkscape:connector-curvature="0" />
    <path
       d="m 25866,26023 433,433"
       id="path320"
       inkscape:connector-curvature="0" />
    <path
       d="m 23740,26023 2126,0"
       id="path322"
       inkscape:connector-curvature="0" />
    <path
       d="m 23543,26220 197,-197"
       id="path324"
       inkscape:connector-curvature="0" />
    <path
       d="m 23543,26811 0,-591"
       id="path326"
       inkscape:connector-curvature="0" />
    <path
       d="m 23503,27244 40,-433"
       id="path328"
       inkscape:connector-curvature="0" />
    <path
       d="m 22834,27165 -236,236"
       id="path330"
       inkscape:connector-curvature="0" />
    <path
       d="m 22834,25511 0,1654"
       id="path332"
       inkscape:connector-curvature="0" />
    <path
       d="m 23228,24960 -394,551"
       id="path334"
       inkscape:connector-curvature="0" />
    <path
       d="m 25888,24950 -2660,10"
       id="path336"
       inkscape:connector-curvature="0" />
    <path
       d="m 26062,24645 -174,305"
       id="path338"
       inkscape:connector-curvature="0" />
    <path
       d="m 29291,23307 0,78"
       id="path340"
       inkscape:connector-curvature="0" />
    <path
       d="m 28976,22992 315,315"
       id="path342"
       inkscape:connector-curvature="0" />
    <path
       d="m 28503,23622 0,-473"
       id="path344"
       inkscape:connector-curvature="0" />
  </g>
  <g
     style="fill:#000000;fill-opacity:1;stroke:#000000;stroke-width:157.47999573;stroke-linecap:round;stroke-linejoin:round;stroke-opacity:1"
     id="g346"
     transform="translate(-17716.059,-18897)">
    <path
       d="m 28700,29251 -748,0"
       id="path348"
       inkscape:connector-curvature="0" />
    <path
       d="M 29881,30433 28700,29251"
       id="path350"
       inkscape:connector-curvature="0" />
    <path
       d="m 29881,32086 0,-1653"
       id="path352"
       inkscape:connector-curvature="0" />
    <path
       d="m 29645,32322 236,-236"
       id="path354"
       inkscape:connector-curvature="0" />
    <path
       d="m 23779,32322 5866,0"
       id="path356"
       inkscape:connector-curvature="0" />
    <path
       d="m 23661,32440 118,-118"
       id="path358"
       inkscape:connector-curvature="0" />
  </g>
  <g
     style="fill:#000000;fill-opacity:1;stroke:#000000;stroke-width:236.22000122;stroke-linecap:round;stroke-linejoin:round;stroke-opacity:1"
     id="g360"
     transform="translate(-17716.059,-18897)">
    <path
       d="m 20275,31792 -294,0"
       id="path362"
       inkscape:connector-curvature="0" />
    <path
       d="m 19803,31614 0,-1024"
       id="path364"
       inkscape:connector-curvature="0" />
    <path
       d="m 19981,31792 -178,-178"
       id="path366"
       inkscape:connector-curvature="0" />
  </g>
  <g
     style="fill:#000000;fill-opacity:1;stroke:#000000;stroke-width:118.11000061;stroke-linecap:round;stroke-linejoin:round;stroke-opacity:1"
     id="g368"
     transform="translate(-17716.059,-18897)">
    <path
       d="m 19039,25039 -539,-539"
       id="path370"
       inkscape:connector-curvature="0" />
    <path
       d="m 21141,25039 -2102,0"
       id="path372"
       inkscape:connector-curvature="0" />
    <path
       d="m 21299,25196 -158,-157"
       id="path374"
       inkscape:connector-curvature="0" />
  </g>
  <g
     style="fill:#000000;fill-opacity:1;stroke:#000000;stroke-width:196.8500061;stroke-linecap:round;stroke-linejoin:round;stroke-opacity:1"
     id="g376"
     transform="translate(-17716.059,-18897)">
    <path
       d="m 18500,22500 535,0"
       id="path378"
       inkscape:connector-curvature="0" />
    <path
       d="m 30196,21732 237,-236"
       id="path380"
       inkscape:connector-curvature="0" />
    <path
       d="m 19803,21732 10393,0"
       id="path382"
       inkscape:connector-curvature="0" />
    <path
       d="m 19035,22500 768,-768"
       id="path384"
       inkscape:connector-curvature="0" />
    <path
       d="m 21287,31796 -1000,0"
       id="path386"
       inkscape:connector-curvature="0" />
    <path
       d="m 22287,31796 -1000,0"
       id="path388"
       inkscape:connector-curvature="0" />
    <path
       d="m 23787,31796 -1500,0"
       id="path390"
       inkscape:connector-curvature="0" />
    <path
       d="m 24787,31796 -1000,0"
       id="path392"
       inkscape:connector-curvature="0" />
    <path
       d="m 25787,31796 -1000,0"
       id="path394"
       inkscape:connector-curvature="0" />
    <path
       d="m 27287,31796 -1500,0"
       id="path396"
       inkscape:connector-curvature="0" />
    <path
       d="m 28287,31796 -1000,0"
       id="path398"
       inkscape:connector-curvature="0" />
    <path
       d="m 29287,31796 -1000,0"
       id="path400"
       inkscape:connector-curvature="0" />
    <path
       d="m 18500,28000 0,-2500"
       id="path402"
       inkscape:connector-curvature="0" />
  </g>
  <g
     style="fill:#000000;fill-opacity:1;stroke:#000000;stroke-width:157.47999573;stroke-linecap:round;stroke-linejoin:round;stroke-opacity:1"
     id="g404"
     transform="translate(-17716.059,-18897)">
    <path
       d="m 23385,23346 0,1102"
       id="path406"
       inkscape:connector-curvature="0" />
    <path
       d="m 23228,23188 157,158"
       id="path408"
       inkscape:connector-curvature="0" />
  </g>
  <g
     style="fill:#000000;fill-opacity:1;stroke:#000000;stroke-width:236.22000122;stroke-linecap:round;stroke-linejoin:round;stroke-opacity:1"
     id="g410"
     transform="translate(-17716.059,-18897)">
    <path
       d="m 24098,26435 0,2130"
       id="path412"
       inkscape:connector-curvature="0" />
    <path
       d="m 24787,30435 0,769"
       id="path414"
       inkscape:connector-curvature="0" />
    <path
       d="m 24098,30435 0,458"
       id="path416"
       inkscape:connector-curvature="0" />
    <path
       d="m 24098,30893 -311,311"
       id="path418"
       inkscape:connector-curvature="0" />
    <path
       d="m 25476,22435 0,41"
       id="path420"
       inkscape:connector-curvature="0" />
    <path
       d="m 25476,24492 0,73"
       id="path422"
       inkscape:connector-curvature="0" />
    <path
       d="m 24842,23858 634,634"
       id="path424"
       inkscape:connector-curvature="0" />
    <path
       d="m 24842,23110 0,748"
       id="path426"
       inkscape:connector-curvature="0" />
    <path
       d="m 25476,22476 -634,634"
       id="path428"
       inkscape:connector-curvature="0" />
    <path
       d="m 24098,22435 0,2130"
       id="path430"
       inkscape:connector-curvature="0" />
    <path
       d="m 24787,22435 0,179"
       id="path432"
       inkscape:connector-curvature="0" />
    <path
       d="m 24787,24354 0,211"
       id="path434"
       inkscape:connector-curvature="0" />
    <path
       d="m 24488,24055 299,299"
       id="path436"
       inkscape:connector-curvature="0" />
    <path
       d="m 24488,22913 0,1142"
       id="path438"
       inkscape:connector-curvature="0" />
    <path
       d="m 24787,22614 -299,299"
       id="path440"
       inkscape:connector-curvature="0" />
    <path
       d="m 25476,26435 0,96"
       id="path442"
       inkscape:connector-curvature="0" />
    <path
       d="m 25476,28429 0,136"
       id="path444"
       inkscape:connector-curvature="0" />
    <path
       d="m 24881,27834 595,595"
       id="path446"
       inkscape:connector-curvature="0" />
    <path
       d="m 24881,27125 0,709"
       id="path448"
       inkscape:connector-curvature="0" />
    <path
       d="m 25476,26531 -595,594"
       id="path450"
       inkscape:connector-curvature="0" />
    <path
       d="m 24787,26435 0,234"
       id="path452"
       inkscape:connector-curvature="0" />
    <path
       d="m 24787,28330 0,235"
       id="path454"
       inkscape:connector-curvature="0" />
    <path
       d="m 24488,28031 299,299"
       id="path456"
       inkscape:connector-curvature="0" />
    <path
       d="m 24488,26968 0,1063"
       id="path458"
       inkscape:connector-curvature="0" />
    <path
       d="m 24787,26669 -299,299"
       id="path460"
       inkscape:connector-curvature="0" />
    <path
       d="m 25476,30435 0,458"
       id="path462"
       inkscape:connector-curvature="0" />
    <path
       d="m 25476,30893 311,311"
       id="path464"
       inkscape:connector-curvature="0" />
    <path
       d="m 21976,30435 0,458"
       id="path466"
       inkscape:connector-curvature="0" />
    <path
       d="m 21976,30893 311,311"
       id="path468"
       inkscape:connector-curvature="0" />
    <path
       d="m 21287,30435 0,769"
       id="path470"
       inkscape:connector-curvature="0" />
    <path
       d="m 20598,30435 0,458"
       id="path472"
       inkscape:connector-curvature="0" />
    <path
       d="m 20598,30893 -311,311"
       id="path474"
       inkscape:connector-curvature="0" />
    <path
       d="m 28287,22435 0,143"
       id="path476"
       inkscape:connector-curvature="0" />
    <path
       d="m 28287,24271 0,294"
       id="path478"
       inkscape:connector-curvature="0" />
    <path
       d="m 27952,23937 335,334"
       id="path480"
       inkscape:connector-curvature="0" />
    <path
       d="m 27952,22913 0,1024"
       id="path482"
       inkscape:connector-curvature="0" />
    <path
       d="m 28287,22578 -335,335"
       id="path484"
       inkscape:connector-curvature="0" />
    <path
       d="m 28976,30435 0,458"
       id="path486"
       inkscape:connector-curvature="0" />
    <path
       d="m 28976,30893 311,311"
       id="path488"
       inkscape:connector-curvature="0" />
    <path
       d="m 28287,30435 0,769"
       id="path490"
       inkscape:connector-curvature="0" />
    <path
       d="m 27598,30435 0,458"
       id="path492"
       inkscape:connector-curvature="0" />
    <path
       d="m 27598,30893 -311,311"
       id="path494"
       inkscape:connector-curvature="0" />
    <path
       d="m 28976,22435 466,0"
       id="path496"
       inkscape:connector-curvature="0" />
    <path
       d="m 29135,24565 -159,0"
       id="path498"
       inkscape:connector-curvature="0" />
    <path
       d="m 29763,23937 -628,628"
       id="path500"
       inkscape:connector-curvature="0" />
    <path
       d="m 29763,22755 0,1182"
       id="path502"
       inkscape:connector-curvature="0" />
    <path
       d="m 29442,22435 321,320"
       id="path504"
       inkscape:connector-curvature="0" />
    <path
       d="m 27598,22435 0,2130"
       id="path506"
       inkscape:connector-curvature="0" />
    <path
       d="m 28976,28565 0,-2130"
       id="path508"
       inkscape:connector-curvature="0" />
    <path
       d="m 27598,28565 0,-101"
       id="path510"
       inkscape:connector-curvature="0" />
    <path
       d="m 27598,26535 0,-100"
       id="path512"
       inkscape:connector-curvature="0" />
    <path
       d="m 28228,27165 -630,-630"
       id="path514"
       inkscape:connector-curvature="0" />
    <path
       d="m 28228,27834 0,-669"
       id="path516"
       inkscape:connector-curvature="0" />
    <path
       d="m 27598,28464 630,-630"
       id="path518"
       inkscape:connector-curvature="0" />
    <path
       d="m 28287,26435 0,198"
       id="path520"
       inkscape:connector-curvature="0" />
    <path
       d="m 28287,28326 0,239"
       id="path522"
       inkscape:connector-curvature="0" />
    <path
       d="m 28622,27992 -335,334"
       id="path524"
       inkscape:connector-curvature="0" />
    <path
       d="m 28622,26968 0,1024"
       id="path526"
       inkscape:connector-curvature="0" />
    <path
       d="m 28287,26633 335,335"
       id="path528"
       inkscape:connector-curvature="0" />
    <path
       d="m 21976,22435 0,2130"
       id="path530"
       inkscape:connector-curvature="0" />
    <path
       d="m 20598,22435 0,2130"
       id="path532"
       inkscape:connector-curvature="0" />
    <path
       d="m 21287,22435 0,2130"
       id="path534"
       inkscape:connector-curvature="0" />
    <path
       d="m 21976,26435 0,131"
       id="path536"
       inkscape:connector-curvature="0" />
    <path
       d="m 21976,28354 0,211"
       id="path538"
       inkscape:connector-curvature="0" />
    <path
       d="m 21338,27716 638,638"
       id="path540"
       inkscape:connector-curvature="0" />
    <path
       d="m 21338,27204 0,512"
       id="path542"
       inkscape:connector-curvature="0" />
    <path
       d="m 21976,26566 -638,638"
       id="path544"
       inkscape:connector-curvature="0" />
    <path
       d="m 20598,28565 0,-2130"
       id="path546"
       inkscape:connector-curvature="0" />
    <path
       d="m 21287,26435 0,269"
       id="path548"
       inkscape:connector-curvature="0" />
    <path
       d="m 21287,28334 0,231"
       id="path550"
       inkscape:connector-curvature="0" />
    <path
       d="m 20944,27992 343,342"
       id="path552"
       inkscape:connector-curvature="0" />
    <path
       d="m 20944,27047 0,945"
       id="path554"
       inkscape:connector-curvature="0" />
    <path
       d="m 21287,26704 -343,343"
       id="path556"
       inkscape:connector-curvature="0" />
  </g>
  <g
     style="fill:#000000;fill-opacity:1;stroke:#000000;stroke-width:196.8500061;stroke-linecap:round;stroke-linejoin:round;stroke-opacity:1"
     id="g558"
     transform="translate(-17716.059,-18897)">
    <path
       d="m 18500,19500 661,0"
       id="path560"
       inkscape:connector-curvature="0" />
    <path
       d="m 19161,19500 90,-91"
       id="path562"
       inkscape:connector-curvature="0" />
  </g>
  <g
     style="fill:#000000;fill-opacity:1;stroke:#000000;stroke-width:236.22000122;stroke-linecap:round;stroke-linejoin:round;stroke-opacity:1"
     id="g564"
     transform="translate(-17716.059,-18897)">
    <path
       d="m 25476,20565 0,374"
       id="path566"
       inkscape:connector-curvature="0" />
    <path
       d="m 28976,21061 0,-496"
       id="path568"
       inkscape:connector-curvature="0" />
    <path
       d="m 28787,21250 189,-189"
       id="path570"
       inkscape:connector-curvature="0" />
    <path
       d="m 25787,21250 3000,0"
       id="path572"
       inkscape:connector-curvature="0" />
    <path
       d="m 25476,20939 311,311"
       id="path574"
       inkscape:connector-curvature="0" />
    <path
       d="m 23037,21150 250,100"
       id="path576"
       inkscape:connector-curvature="0" />
    <path
       d="m 23287,21250 2000,0"
       id="path578"
       inkscape:connector-curvature="0" />
    <path
       d="m 25287,21250 189,-189"
       id="path580"
       inkscape:connector-curvature="0" />
    <path
       d="m 25476,21061 0,-496"
       id="path582"
       inkscape:connector-curvature="0" />
    <path
       d="m 21976,20939 0,-374"
       id="path584"
       inkscape:connector-curvature="0" />
    <path
       d="m 23037,21150 -250,100"
       id="path586"
       inkscape:connector-curvature="0" />
    <path
       d="m 22787,21250 -500,0"
       id="path588"
       inkscape:connector-curvature="0" />
    <path
       d="m 22287,21250 -311,-311"
       id="path590"
       inkscape:connector-curvature="0" />
    <path
       d="m 24763,19750 3057,0"
       id="path592"
       inkscape:connector-curvature="0" />
    <path
       d="m 28287,20216 0,349"
       id="path594"
       inkscape:connector-curvature="0" />
    <path
       d="m 27820,19750 467,466"
       id="path596"
       inkscape:connector-curvature="0" />
    <path
       d="m 21287,20893 0,-328"
       id="path598"
       inkscape:connector-curvature="0" />
    <path
       d="m 21574,21181 -287,-288"
       id="path600"
       inkscape:connector-curvature="0" />
  </g>
  <g
     style="fill:#000000;fill-opacity:1;stroke:#000000;stroke-width:196.8500061;stroke-linecap:round;stroke-linejoin:round;stroke-opacity:1"
     id="g602"
     transform="translate(-17716.059,-18897)">
    <path
       d="m 18500,20500 606,0"
       id="path604"
       inkscape:connector-curvature="0" />
    <path
       d="m 21236,19448 301,302"
       id="path606"
       inkscape:connector-curvature="0" />
    <path
       d="m 20157,19448 1079,0"
       id="path608"
       inkscape:connector-curvature="0" />
    <path
       d="m 19106,20500 1051,-1052"
       id="path610"
       inkscape:connector-curvature="0" />
  </g>
  <g
     style="fill:#000000;fill-opacity:1;stroke:#000000;stroke-width:236.22000122;stroke-linecap:round;stroke-linejoin:round;stroke-opacity:1"
     id="g612"
     transform="translate(-17716.059,-18897)">
    <path
       d="m 24787,19750 -24,0"
       id="path614"
       inkscape:connector-curvature="0" />
    <path
       d="m 24763,19750 -3226,0"
       id="path616"
       inkscape:connector-curvature="0" />
    <path
       d="m 21287,20000 0,565"
       id="path618"
       inkscape:connector-curvature="0" />
    <path
       d="m 21537,19750 -250,250"
       id="path620"
       inkscape:connector-curvature="0" />
    <path
       d="m 24787,19750 0,815"
       id="path622"
       inkscape:connector-curvature="0" />
    <path
       d="m 27598,20565 -1156,0"
       id="path624"
       inkscape:connector-curvature="0" />
    <path
       d="m 26442,20565 -104,104"
       id="path626"
       inkscape:connector-curvature="0" />
    <path
       d="m 23037,20250 315,315"
       id="path628"
       inkscape:connector-curvature="0" />
    <path
       d="m 24098,20565 -746,0"
       id="path630"
       inkscape:connector-curvature="0" />
  </g>
  <g
     style="fill:#000000;fill-opacity:1;stroke:#000000;stroke-width:196.8500061;stroke-linecap:round;stroke-linejoin:round;stroke-opacity:1"
     id="g632"
     transform="translate(-17716.059,-18897)">
    <path
       d="m 20598,20007 0,558"
       id="path634"
       inkscape:connector-curvature="0" />
    <path
       d="m 20590,20000 8,7"
       id="path636"
       inkscape:connector-curvature="0" />
    <path
       d="m 18500,21500 787,0"
       id="path638"
       inkscape:connector-curvature="0" />
    <path
       d="m 20139,21023 459,-458"
       id="path640"
       inkscape:connector-curvature="0" />
    <path
       d="m 19763,21023 376,0"
       id="path642"
       inkscape:connector-curvature="0" />
    <path
       d="m 19287,21500 476,-477"
       id="path644"
       inkscape:connector-curvature="0" />
  </g>
  <g
     style="fill:#000000;fill-opacity:1;stroke:#000000;stroke-width:60;stroke-linecap:round;stroke-linejoin:round;stroke-opacity:1"
     id="g646"
     transform="translate(-17716.059,-18897)">
    <polyline
       style="fill-rule:evenodd"
       points="23730,24134 23700,24146 23630,24216 23592,24308 23592,24408 23592,24650 23227,24651 23203,24656 23176,24655 23141,24668 23109,24675 23089,24688 23064,24698 23036,24724 23009,24742 22996,24762 22976,24780 22946,24822 22946,23866 23016,23796 23084,23632 23084,23454 23016,23290 22891,23164 22727,23096 22549,23096 22385,23164 22344,23204 22344,22865 22373,22853 22444,22783 22482,22691 22482,22591 22482,22178 22444,22087 22438,22080 23636,22080 23630,22086 23592,22178 23592,22278 23592,22691 23630,22782 23700,22853 23730,22865 23730,24134 "
       id="polyline648" />
  </g>
  <g
     style="fill:#000000;fill-opacity:0;stroke:#000000;stroke-width:100;stroke-linecap:round;stroke-linejoin:round;stroke-opacity:1"
     id="g650"
     transform="translate(-17716.059,-18897)">
    <polyline
       fill="none;"
       points="23730,24134 23700,24146 23630,24216 23592,24308 23592,24408 23592,24650 23227,24651 23203,24656 23176,24655 23141,24668 23109,24675 23089,24688 23064,24698 23036,24724 23009,24742 22996,24762 22976,24780 22946,24822 22946,23866 23016,23796 23084,23632 23084,23454 23016,23290 22891,23164 22727,23096 22549,23096 22385,23164 22344,23204 22344,22865 22373,22853 22444,22783 22482,22691 22482,22591 22482,22178 22444,22087 22438,22080 23636,22080 23630,22086 23592,22178 23592,22278 23592,22691 23630,22782 23700,22853 23730,22865 23730,24134 "
       id="polyline652" />
  </g>
  <g
     style="fill:#000000;fill-opacity:1;stroke:#000000;stroke-width:60;stroke-linecap:round;stroke-linejoin:round;stroke-opacity:1"
     id="g654"
     transform="translate(-17716.059,-18897)">
    <polyline
       style="fill-rule:evenodd"
       points="31052,33020 17766,33020 17766,18947 31052,18947 31052,24201 30298,24201 29482,24795 29482,24738 30024,24197 30103,24077 30131,23937 30131,22755 30103,22615 30024,22495 29703,22174 29583,22094 29512,22080 30196,22080 30196,22080 30196,22080 30308,22058 30330,22054 30330,22054 30443,21978 30478,21942 30521,21942 30685,21875 30811,21749 30879,21585 30879,21407 30812,21243 30686,21117 30522,21049 30344,21049 30180,21117 30054,21242 29995,21383 29174,21383 29236,21321 29316,21201 29344,21061 29344,20995 29373,20983 29444,20913 29482,20821 29482,20721 29482,20308 29444,20217 29374,20146 29282,20108 29182,20108 28670,20108 28636,20122 28627,20075 28547,19956 28081,19489 27961,19409 27820,19381 24787,19381 24763,19381 21662,19381 21482,19202 21369,19126 21347,19122 21236,19100 21236,19100 20157,19100 20157,19100 20024,19126 19911,19202 19911,19202 19698,19414 19698,19320 19631,19156 19505,19030 19341,18962 19163,18962 18999,19030 18903,19125 18811,19034 18609,18950 18391,18949 18188,19033 18034,19188 17950,19390 17949,19608 18033,19811 18188,19965 18269,19999 18188,20033 18034,20188 17950,20390 17949,20608 18033,20811 18188,20965 18269,20999 18188,21033 18034,21188 17950,21390 17949,21608 18033,21811 18172,21949 18150,21949 18058,21987 17988,22058 17950,22150 17949,22249 17949,22849 17987,22941 18058,23011 18150,23049 18249,23050 18849,23050 18941,23012 19011,22941 19049,22849 19049,22845 19146,22826 19168,22821 19168,22821 19281,22746 19947,22080 20136,22080 20130,22086 20092,22178 20092,22278 20092,22691 20130,22782 20200,22853 20230,22865 20230,24134 20200,24146 20130,24216 20092,24308 20092,24408 20092,24730 19167,24730 19050,24612 19050,24150 19012,24058 18941,23988 18849,23950 18750,23949 18150,23949 18058,23987 17988,24058 17950,24150 17949,24249 17949,24849 17987,24941 18058,25011 18150,25049 18203,25050 18184,25114 18464,25393 18500,25429 18570,25500 18606,25535 18885,25815 18981,25787 19054,25581 19043,25363 19037,25348 19039,25348 20878,25348 20920,25449 21045,25575 21209,25643 21387,25643 21552,25575 21677,25450 21745,25286 21746,25108 21710,25021 21769,25021 22281,25021 22328,25002 22328,25997 22282,25978 22182,25978 21670,25978 21631,25994 21593,25978 21493,25978 20981,25978 20942,25994 20904,25978 20804,25978 20292,25978 20200,26016 20130,26086 20092,26178 20092,26278 20092,26691 20130,26782 20200,26853 20230,26865 20230,28115 20089,28057 19911,28057 19747,28124 19621,28250 19553,28414 19553,28513 19375,28690 18967,28690 18966,28688 18827,28549 18849,28549 18941,28511 19012,28441 19050,28349 19050,27650 19012,27558 18941,27488 18849,27450 18815,27450 18815,25885 18500,25570 18429,25641 18429,25500 18114,25184 18018,25212 17945,25418 17956,25636 18018,25787 18114,25815 18429,25500 18429,25641 18184,25885 18212,25981 18418,26054 18636,26043 18787,25981 18815,25885 18815,27450 18750,27449 18612,27450 18550,27512 18550,27950 18987,27950 19050,27887 19050,27650 19050,28349 19050,28112 18987,28050 18600,28050 18550,28050 18450,28050 18450,27950 18450,27512 18387,27450 18249,27449 18150,27450 18058,27488 17987,27558 17949,27650 17950,27887 18012,27950 18450,27950 18450,28050 18400,28050 18012,28050 17950,28112 17949,28349 17987,28441 18058,28511 18150,28549 18172,28549 18034,28688 17950,28890 17949,29108 18033,29311 18188,29465 18269,29499 18188,29533 18034,29688 17950,29890 17949,30108 18033,30311 18188,30465 18269,30499 18188,30533 18034,30688 17950,30890 17949,31108 18033,31311 18188,31465 18269,31499 18188,31533 18034,31688 17950,31890 17949,32108 18033,32311 18188,32465 18390,32549 18608,32550 18811,32466 18965,32311 19049,32109 19050,31891 19048,31888 19352,31584 19352,31584 19352,31584 19419,31484 19419,31484 19435,31405 19435,31614 19463,31755 19542,31874 19720,32052 19840,32132 19900,32144 19936,32180 20028,32219 20128,32219 20522,32219 20614,32181 20650,32144 20908,32144 20948,32184 21040,32222 21139,32223 21533,32223 21625,32185 21666,32144 21908,32144 21948,32184 22040,32222 22139,32223 22533,32223 22625,32185 22666,32144 23325,32144 23282,32187 23214,32351 23214,32529 23282,32693 23407,32819 23572,32887 23749,32887 23914,32819 24040,32694 24057,32651 29645,32651 29771,32626 29771,32626 29878,32555 30114,32319 30185,32212 30185,32212 30210,32086 30210,30433 30185,30307 30114,30200 30114,30200 28935,29021 29281,29021 29373,28983 29444,28913 29458,28879 29881,29091 30202,29892 31052,29892 31052,33020 "
       id="polyline656" />
  </g>
  <g
     style="fill:#000000;fill-opacity:0;stroke:#000000;stroke-width:100;stroke-linecap:round;stroke-linejoin:round;stroke-opacity:1"
     id="g658"
     transform="translate(-17716.059,-18897)">
    <polyline
       fill="none;"
       points="31052,33020 17766,33020 17766,18947 31052,18947 31052,24201 30298,24201 29482,24795 29482,24738 30024,24197 30103,24077 30131,23937 30131,22755 30103,22615 30024,22495 29703,22174 29583,22094 29512,22080 30196,22080 30196,22080 30196,22080 30308,22058 30330,22054 30330,22054 30443,21978 30478,21942 30521,21942 30685,21875 30811,21749 30879,21585 30879,21407 30812,21243 30686,21117 30522,21049 30344,21049 30180,21117 30054,21242 29995,21383 29174,21383 29236,21321 29316,21201 29344,21061 29344,20995 29373,20983 29444,20913 29482,20821 29482,20721 29482,20308 29444,20217 29374,20146 29282,20108 29182,20108 28670,20108 28636,20122 28627,20075 28547,19956 28081,19489 27961,19409 27820,19381 24787,19381 24763,19381 21662,19381 21482,19202 21369,19126 21347,19122 21236,19100 21236,19100 20157,19100 20157,19100 20024,19126 19911,19202 19911,19202 19698,19414 19698,19320 19631,19156 19505,19030 19341,18962 19163,18962 18999,19030 18903,19125 18811,19034 18609,18950 18391,18949 18188,19033 18034,19188 17950,19390 17949,19608 18033,19811 18188,19965 18269,19999 18188,20033 18034,20188 17950,20390 17949,20608 18033,20811 18188,20965 18269,20999 18188,21033 18034,21188 17950,21390 17949,21608 18033,21811 18172,21949 18150,21949 18058,21987 17988,22058 17950,22150 17949,22249 17949,22849 17987,22941 18058,23011 18150,23049 18249,23050 18849,23050 18941,23012 19011,22941 19049,22849 19049,22845 19146,22826 19168,22821 19168,22821 19281,22746 19947,22080 20136,22080 20130,22086 20092,22178 20092,22278 20092,22691 20130,22782 20200,22853 20230,22865 20230,24134 20200,24146 20130,24216 20092,24308 20092,24408 20092,24730 19167,24730 19050,24612 19050,24150 19012,24058 18941,23988 18849,23950 18750,23949 18150,23949 18058,23987 17988,24058 17950,24150 17949,24249 17949,24849 17987,24941 18058,25011 18150,25049 18203,25050 18184,25114 18464,25393 18500,25429 18570,25500 18606,25535 18885,25815 18981,25787 19054,25581 19043,25363 19037,25348 19039,25348 20878,25348 20920,25449 21045,25575 21209,25643 21387,25643 21552,25575 21677,25450 21745,25286 21746,25108 21710,25021 21769,25021 22281,25021 22328,25002 22328,25997 22282,25978 22182,25978 21670,25978 21631,25994 21593,25978 21493,25978 20981,25978 20942,25994 20904,25978 20804,25978 20292,25978 20200,26016 20130,26086 20092,26178 20092,26278 20092,26691 20130,26782 20200,26853 20230,26865 20230,28115 20089,28057 19911,28057 19747,28124 19621,28250 19553,28414 19553,28513 19375,28690 18967,28690 18966,28688 18827,28549 18849,28549 18941,28511 19012,28441 19050,28349 19050,27650 19012,27558 18941,27488 18849,27450 18815,27450 18815,25885 18500,25570 18429,25641 18429,25500 18114,25184 18018,25212 17945,25418 17956,25636 18018,25787 18114,25815 18429,25500 18429,25641 18184,25885 18212,25981 18418,26054 18636,26043 18787,25981 18815,25885 18815,27450 18750,27449 18612,27450 18550,27512 18550,27950 18987,27950 19050,27887 19050,27650 19050,28349 19050,28112 18987,28050 18600,28050 18550,28050 18450,28050 18450,27950 18450,27512 18387,27450 18249,27449 18150,27450 18058,27488 17987,27558 17949,27650 17950,27887 18012,27950 18450,27950 18450,28050 18400,28050 18012,28050 17950,28112 17949,28349 17987,28441 18058,28511 18150,28549 18172,28549 18034,28688 17950,28890 17949,29108 18033,29311 18188,29465 18269,29499 18188,29533 18034,29688 17950,29890 17949,30108 18033,30311 18188,30465 18269,30499 18188,30533 18034,30688 17950,30890 17949,31108 18033,31311 18188,31465 18269,31499 18188,31533 18034,31688 17950,31890 17949,32108 18033,32311 18188,32465 18390,32549 18608,32550 18811,32466 18965,32311 19049,32109 19050,31891 19048,31888 19352,31584 19352,31584 19352,31584 19419,31484 19419,31484 19435,31405 19435,31614 19463,31755 19542,31874 19720,32052 19840,32132 19900,32144 19936,32180 20028,32219 20128,32219 20522,32219 20614,32181 20650,32144 20908,32144 20948,32184 21040,32222 21139,32223 21533,32223 21625,32185 21666,32144 21908,32144 21948,32184 22040,32222 22139,32223 22533,32223 22625,32185 22666,32144 23325,32144 23282,32187 23214,32351 23214,32529 23282,32693 23407,32819 23572,32887 23749,32887 23914,32819 24040,32694 24057,32651 29645,32651 29771,32626 29771,32626 29878,32555 30114,32319 30185,32212 30185,32212 30210,32086 30210,30433 30185,30307 30114,30200 30114,30200 28935,29021 29281,29021 29373,28983 29444,28913 29458,28879 29881,29091 30202,29892 31052,29892 31052,33020 "
       id="polyline660" />
  </g>
  <g
     style="fill:#000000;fill-opacity:1;stroke:#000000;stroke-width:60;stroke-linecap:round;stroke-linejoin:round;stroke-opacity:1"
     id="g662"
     transform="translate(-17716.059,-18897)">
    <polyline
       style="fill-rule:evenodd"
       points="29395,23761 29049,24108 28670,24108 28635,24123 28628,24123 28620,24119 28547,24011 28547,24011 28320,23784 28320,23065 28495,22891 28592,22891 28631,22875 28670,22891 28769,22891 29281,22891 29350,22863 29395,22908 29395,23761 "
       id="polyline664" />
  </g>
  <g
     style="fill:#000000;fill-opacity:0;stroke:#000000;stroke-width:100;stroke-linecap:round;stroke-linejoin:round;stroke-opacity:1"
     id="g666"
     transform="translate(-17716.059,-18897)">
    <polyline
       fill="none;"
       points="29395,23761 29049,24108 28670,24108 28635,24123 28628,24123 28620,24119 28547,24011 28547,24011 28320,23784 28320,23065 28495,22891 28592,22891 28631,22875 28670,22891 28769,22891 29281,22891 29350,22863 29395,22908 29395,23761 "
       id="polyline668" />
  </g>
  <g
     style="fill:#ffffff;fill-opacity:0;stroke:#ffffff;stroke-width:60;stroke-linecap:round;stroke-linejoin:round;stroke-opacity:1"
     id="g670"
     transform="translate(-17716.059,-18897)" />
  <g
     style="fill:#ffffff;fill-opacity:1;stroke:#ffffff;stroke-width:60;stroke-linecap:round;stroke-linejoin:round;stroke-opacity:1"
     id="g672"
     transform="translate(-17716.059,-18897)">
    <circle
       cx="22637.801"
       cy="23543.301"
       r="38.897598"
       id="circle674"
       sodipodi:cx="22637.801"
       sodipodi:cy="23543.301"
       sodipodi:rx="38.897598"
       sodipodi:ry="38.897598"
       d="m 22676.698,23543.301 c 0,21.482 -17.415,38.897 -38.897,38.897 -21.483,0 -38.898,-17.415 -38.898,-38.897 0,-21.483 17.415,-38.898 38.898,-38.898 21.482,0 38.897,17.415 38.897,38.898 z" />
    <circle
       cx="22086.6"
       cy="27362.199"
       r="38.897598"
       id="circle676"
       sodipodi:cx="22086.6"
       sodipodi:cy="27362.199"
       sodipodi:rx="38.897598"
       sodipodi:ry="38.897598"
       d="m 22125.497,27362.199 c 0,21.483 -17.415,38.898 -38.897,38.898 -21.483,0 -38.898,-17.415 -38.898,-38.898 0,-21.482 17.415,-38.897 38.898,-38.897 21.482,0 38.897,17.415 38.897,38.897 z" />
    <circle
       cx="22598.4"
       cy="28346.5"
       r="38.897598"
       id="circle678"
       sodipodi:cx="22598.4"
       sodipodi:cy="28346.5"
       sodipodi:rx="38.897598"
       sodipodi:ry="38.897598"
       d="m 22637.298,28346.5 c 0,21.483 -17.415,38.898 -38.898,38.898 -21.482,0 -38.897,-17.415 -38.897,-38.898 0,-21.483 17.415,-38.898 38.897,-38.898 21.483,0 38.898,17.415 38.898,38.898 z" />
    <circle
       cx="25511.801"
       cy="27086.6"
       r="38.897598"
       id="circle680"
       sodipodi:cx="25511.801"
       sodipodi:cy="27086.6"
       sodipodi:rx="38.897598"
       sodipodi:ry="38.897598"
       d="m 25550.698,27086.6 c 0,21.482 -17.415,38.897 -38.897,38.897 -21.483,0 -38.898,-17.415 -38.898,-38.897 0,-21.483 17.415,-38.898 38.898,-38.898 21.482,0 38.897,17.415 38.897,38.898 z" />
    <circle
       cx="25511.801"
       cy="27637.801"
       r="38.897598"
       id="circle682"
       sodipodi:cx="25511.801"
       sodipodi:cy="27637.801"
       sodipodi:rx="38.897598"
       sodipodi:ry="38.897598"
       d="m 25550.698,27637.801 c 0,21.482 -17.415,38.897 -38.897,38.897 -21.483,0 -38.898,-17.415 -38.898,-38.897 0,-21.483 17.415,-38.898 38.898,-38.898 21.482,0 38.897,17.415 38.897,38.898 z" />
    <circle
       cx="20000"
       cy="28503.9"
       r="38.897598"
       id="circle684"
       sodipodi:cx="20000"
       sodipodi:cy="28503.9"
       sodipodi:rx="38.897598"
       sodipodi:ry="38.897598"
       d="m 20038.898,28503.9 c 0,21.483 -17.415,38.898 -38.898,38.898 -21.483,0 -38.898,-17.415 -38.898,-38.898 0,-21.482 17.415,-38.897 38.898,-38.897 21.483,0 38.898,17.415 38.898,38.897 z" />
    <circle
       cx="27007.9"
       cy="27480.301"
       r="38.897598"
       id="circle686"
       sodipodi:cx="27007.9"
       sodipodi:cy="27480.301"
       sodipodi:rx="38.897598"
       sodipodi:ry="38.897598"
       d="m 27046.798,27480.301 c 0,21.482 -17.415,38.897 -38.898,38.897 -21.482,0 -38.897,-17.415 -38.897,-38.897 0,-21.483 17.415,-38.898 38.897,-38.898 21.483,0 38.898,17.415 38.898,38.898 z" />
    <circle
       cx="25472.4"
       cy="23700.801"
       r="38.897598"
       id="circle688"
       sodipodi:cx="25472.4"
       sodipodi:cy="23700.801"
       sodipodi:rx="38.897598"
       sodipodi:ry="38.897598"
       d="m 25511.298,23700.801 c 0,21.482 -17.415,38.897 -38.898,38.897 -21.482,0 -38.897,-17.415 -38.897,-38.897 0,-21.483 17.415,-38.898 38.897,-38.898 21.483,0 38.898,17.415 38.898,38.898 z" />
    <circle
       cx="25433.1"
       cy="25275.6"
       r="38.897598"
       id="circle690"
       sodipodi:cx="25433.1"
       sodipodi:cy="25275.6"
       sodipodi:rx="38.897598"
       sodipodi:ry="38.897598"
       d="m 25471.997,25275.6 c 0,21.482 -17.415,38.897 -38.897,38.897 -21.483,0 -38.898,-17.415 -38.898,-38.897 0,-21.483 17.415,-38.898 38.898,-38.898 21.482,0 38.897,17.415 38.897,38.898 z" />
    <circle
       cx="23110.199"
       cy="27834.6"
       r="38.897598"
       id="circle692"
       sodipodi:cx="23110.199"
       sodipodi:cy="27834.6"
       sodipodi:rx="38.897598"
       sodipodi:ry="38.897598"
       d="m 23149.097,27834.6 c 0,21.482 -17.415,38.897 -38.898,38.897 -21.482,0 -38.897,-17.415 -38.897,-38.897 0,-21.483 17.415,-38.898 38.897,-38.898 21.483,0 38.898,17.415 38.898,38.898 z" />
    <circle
       cx="26299.199"
       cy="26456.699"
       r="38.897598"
       id="circle694"
       sodipodi:cx="26299.199"
       sodipodi:cy="26456.699"
       sodipodi:rx="38.897598"
       sodipodi:ry="38.897598"
       d="m 26338.097,26456.699 c 0,21.483 -17.415,38.898 -38.898,38.898 -21.482,0 -38.897,-17.415 -38.897,-38.898 0,-21.482 17.415,-38.897 38.897,-38.897 21.483,0 38.898,17.415 38.898,38.897 z" />
    <circle
       cx="23503.9"
       cy="27244.1"
       r="38.897598"
       id="circle696"
       sodipodi:cx="23503.9"
       sodipodi:cy="27244.1"
       sodipodi:rx="38.897598"
       sodipodi:ry="38.897598"
       d="m 23542.798,27244.1 c 0,21.482 -17.415,38.897 -38.898,38.897 -21.482,0 -38.897,-17.415 -38.897,-38.897 0,-21.483 17.415,-38.898 38.897,-38.898 21.483,0 38.898,17.415 38.898,38.898 z" />
    <circle
       cx="22598.4"
       cy="27401.6"
       r="38.897598"
       id="circle698"
       sodipodi:cx="22598.4"
       sodipodi:cy="27401.6"
       sodipodi:rx="38.897598"
       sodipodi:ry="38.897598"
       d="m 22637.298,27401.6 c 0,21.482 -17.415,38.897 -38.898,38.897 -21.482,0 -38.897,-17.415 -38.897,-38.897 0,-21.483 17.415,-38.898 38.897,-38.898 21.483,0 38.898,17.415 38.898,38.898 z" />
    <circle
       cx="26063"
       cy="24645.699"
       r="38.897598"
       id="circle700"
       sodipodi:cx="26063"
       sodipodi:cy="24645.699"
       sodipodi:rx="38.897598"
       sodipodi:ry="38.897598"
       d="m 26101.898,24645.699 c 0,21.483 -17.415,38.898 -38.898,38.898 -21.483,0 -38.898,-17.415 -38.898,-38.898 0,-21.482 17.415,-38.897 38.898,-38.897 21.483,0 38.898,17.415 38.898,38.897 z" />
    <circle
       cx="28897.6"
       cy="23464.6"
       r="38.897598"
       id="circle702"
       sodipodi:cx="28897.6"
       sodipodi:cy="23464.6"
       sodipodi:rx="38.897598"
       sodipodi:ry="38.897598"
       d="m 28936.497,23464.6 c 0,21.482 -17.415,38.897 -38.897,38.897 -21.483,0 -38.898,-17.415 -38.898,-38.897 0,-21.483 17.415,-38.898 38.898,-38.898 21.482,0 38.897,17.415 38.897,38.898 z" />
    <circle
       cx="29291.301"
       cy="23385.801"
       r="38.897598"
       id="circle704"
       sodipodi:cx="29291.301"
       sodipodi:cy="23385.801"
       sodipodi:rx="38.897598"
       sodipodi:ry="38.897598"
       d="m 29330.198,23385.801 c 0,21.482 -17.415,38.897 -38.897,38.897 -21.483,0 -38.898,-17.415 -38.898,-38.897 0,-21.483 17.415,-38.898 38.898,-38.898 21.482,0 38.897,17.415 38.897,38.898 z" />
    <circle
       cx="28976.4"
       cy="22992.1"
       r="38.897598"
       id="circle706"
       sodipodi:cx="28976.4"
       sodipodi:cy="22992.1"
       sodipodi:rx="38.897598"
       sodipodi:ry="38.897598"
       d="m 29015.298,22992.1 c 0,21.482 -17.415,38.897 -38.898,38.897 -21.482,0 -38.897,-17.415 -38.897,-38.897 0,-21.483 17.415,-38.898 38.897,-38.898 21.483,0 38.898,17.415 38.898,38.898 z" />
    <circle
       cx="28503.9"
       cy="23149.6"
       r="38.897598"
       id="circle708"
       sodipodi:cx="28503.9"
       sodipodi:cy="23149.6"
       sodipodi:rx="38.897598"
       sodipodi:ry="38.897598"
       d="m 28542.798,23149.6 c 0,21.482 -17.415,38.897 -38.898,38.897 -21.482,0 -38.897,-17.415 -38.897,-38.897 0,-21.483 17.415,-38.898 38.897,-38.898 21.483,0 38.898,17.415 38.898,38.898 z" />
    <circle
       cx="28503.9"
       cy="23622"
       r="38.897598"
       id="circle710"
       sodipodi:cx="28503.9"
       sodipodi:cy="23622"
       sodipodi:rx="38.897598"
       sodipodi:ry="38.897598"
       d="m 28542.798,23622 c 0,21.483 -17.415,38.898 -38.898,38.898 -21.482,0 -38.897,-17.415 -38.897,-38.898 0,-21.483 17.415,-38.898 38.897,-38.898 21.483,0 38.898,17.415 38.898,38.898 z" />
    <circle
       cx="27952.801"
       cy="29252"
       r="38.897598"
       id="circle712"
       sodipodi:cx="27952.801"
       sodipodi:cy="29252"
       sodipodi:rx="38.897598"
       sodipodi:ry="38.897598"
       d="m 27991.698,29252 c 0,21.483 -17.415,38.898 -38.897,38.898 -21.483,0 -38.898,-17.415 -38.898,-38.898 0,-21.483 17.415,-38.898 38.898,-38.898 21.482,0 38.897,17.415 38.897,38.898 z" />
    <circle
       cx="23661.4"
       cy="32440.9"
       r="38.897598"
       id="circle714"
       sodipodi:cx="23661.4"
       sodipodi:cy="32440.9"
       sodipodi:rx="38.897598"
       sodipodi:ry="38.897598"
       d="m 23700.298,32440.9 c 0,21.483 -17.415,38.898 -38.898,38.898 -21.482,0 -38.897,-17.415 -38.897,-38.898 0,-21.482 17.415,-38.897 38.897,-38.897 21.483,0 38.898,17.415 38.898,38.897 z" />
    <circle
       cx="19803.1"
       cy="30590.6"
       r="38.897598"
       id="circle716"
       sodipodi:cx="19803.1"
       sodipodi:cy="30590.6"
       sodipodi:rx="38.897598"
       sodipodi:ry="38.897598"
       d="m 19841.997,30590.6 c 0,21.482 -17.415,38.897 -38.897,38.897 -21.483,0 -38.898,-17.415 -38.898,-38.897 0,-21.483 17.415,-38.898 38.898,-38.898 21.482,0 38.897,17.415 38.897,38.898 z" />
    <circle
       cx="21299.199"
       cy="25196.9"
       r="38.897598"
       id="circle718"
       sodipodi:cx="21299.199"
       sodipodi:cy="25196.9"
       sodipodi:rx="38.897598"
       sodipodi:ry="38.897598"
       d="m 21338.097,25196.9 c 0,21.483 -17.415,38.898 -38.898,38.898 -21.482,0 -38.897,-17.415 -38.897,-38.898 0,-21.482 17.415,-38.897 38.897,-38.897 21.483,0 38.898,17.415 38.898,38.897 z" />
    <circle
       cx="30433.1"
       cy="21496.1"
       r="38.897598"
       id="circle720"
       sodipodi:cx="30433.1"
       sodipodi:cy="21496.1"
       sodipodi:rx="38.897598"
       sodipodi:ry="38.897598"
       d="m 30471.997,21496.1 c 0,21.482 -17.415,38.897 -38.897,38.897 -21.483,0 -38.898,-17.415 -38.898,-38.897 0,-21.483 17.415,-38.898 38.898,-38.898 21.482,0 38.897,17.415 38.897,38.898 z" />
    <circle
       cx="23385.801"
       cy="24448.801"
       r="38.897598"
       id="circle722"
       sodipodi:cx="23385.801"
       sodipodi:cy="24448.801"
       sodipodi:rx="38.897598"
       sodipodi:ry="38.897598"
       d="m 23424.698,24448.801 c 0,21.482 -17.415,38.897 -38.897,38.897 -21.483,0 -38.898,-17.415 -38.898,-38.897 0,-21.483 17.415,-38.898 38.898,-38.898 21.482,0 38.897,17.415 38.897,38.898 z" />
    <circle
       cx="23228.301"
       cy="23189"
       r="38.897598"
       id="circle724"
       sodipodi:cx="23228.301"
       sodipodi:cy="23189"
       sodipodi:rx="38.897598"
       sodipodi:ry="38.897598"
       d="m 23267.198,23189 c 0,21.483 -17.415,38.898 -38.897,38.898 -21.483,0 -38.898,-17.415 -38.898,-38.898 0,-21.483 17.415,-38.898 38.898,-38.898 21.482,0 38.897,17.415 38.897,38.898 z" />
    <circle
       cx="23037.4"
       cy="21150"
       r="38.897598"
       id="circle726"
       sodipodi:cx="23037.4"
       sodipodi:cy="21150"
       sodipodi:rx="38.897598"
       sodipodi:ry="38.897598"
       d="m 23076.298,21150 c 0,21.483 -17.415,38.898 -38.898,38.898 -21.482,0 -38.897,-17.415 -38.897,-38.898 0,-21.483 17.415,-38.898 38.897,-38.898 21.483,0 38.898,17.415 38.898,38.898 z" />
    <circle
       cx="19252"
       cy="19409.4"
       r="38.897598"
       id="circle728"
       sodipodi:cx="19252"
       sodipodi:cy="19409.4"
       sodipodi:rx="38.897598"
       sodipodi:ry="38.897598"
       d="m 19290.898,19409.4 c 0,21.483 -17.415,38.898 -38.898,38.898 -21.483,0 -38.898,-17.415 -38.898,-38.898 0,-21.482 17.415,-38.897 38.898,-38.897 21.483,0 38.898,17.415 38.898,38.897 z" />
    <circle
       cx="21574.801"
       cy="21181.1"
       r="38.897598"
       id="circle730"
       sodipodi:cx="21574.801"
       sodipodi:cy="21181.1"
       sodipodi:rx="38.897598"
       sodipodi:ry="38.897598"
       d="m 21613.698,21181.1 c 0,21.482 -17.415,38.897 -38.897,38.897 -21.483,0 -38.898,-17.415 -38.898,-38.897 0,-21.483 17.415,-38.898 38.898,-38.898 21.482,0 38.897,17.415 38.897,38.898 z" />
    <circle
       cx="26338.6"
       cy="20669.301"
       r="38.897598"
       id="circle732"
       sodipodi:cx="26338.6"
       sodipodi:cy="20669.301"
       sodipodi:rx="38.897598"
       sodipodi:ry="38.897598"
       d="m 26377.497,20669.301 c 0,21.482 -17.415,38.897 -38.897,38.897 -21.483,0 -38.898,-17.415 -38.898,-38.897 0,-21.483 17.415,-38.898 38.898,-38.898 21.482,0 38.897,17.415 38.897,38.898 z" />
    <circle
       cx="23037.4"
       cy="20250"
       r="38.897598"
       id="circle734"
       sodipodi:cx="23037.4"
       sodipodi:cy="20250"
       sodipodi:rx="38.897598"
       sodipodi:ry="38.897598"
       d="m 23076.298,20250 c 0,21.483 -17.415,38.898 -38.898,38.898 -21.482,0 -38.897,-17.415 -38.897,-38.898 0,-21.483 17.415,-38.898 38.897,-38.898 21.483,0 38.898,17.415 38.898,38.898 z" />
    <circle
       cx="20590.6"
       cy="20000"
       r="38.897598"
       id="circle736"
       sodipodi:cx="20590.6"
       sodipodi:cy="20000"
       sodipodi:rx="38.897598"
       sodipodi:ry="38.897598"
       d="m 20629.497,20000 c 0,21.483 -17.415,38.898 -38.897,38.898 -21.483,0 -38.898,-17.415 -38.898,-38.898 0,-21.483 17.415,-38.898 38.898,-38.898 21.482,0 38.897,17.415 38.897,38.898 z" />
    <circle
       cx="18500"
       cy="24500"
       r="38.897598"
       id="circle738"
       sodipodi:cx="18500"
       sodipodi:cy="24500"
       sodipodi:rx="38.897598"
       sodipodi:ry="38.897598"
       d="m 18538.898,24500 c 0,21.483 -17.415,38.898 -38.898,38.898 -21.483,0 -38.898,-17.415 -38.898,-38.898 0,-21.483 17.415,-38.898 38.898,-38.898 21.483,0 38.898,17.415 38.898,38.898 z" />
    <circle
       cx="18500"
       cy="25500"
       r="38.897598"
       id="circle740"
       sodipodi:cx="18500"
       sodipodi:cy="25500"
       sodipodi:rx="38.897598"
       sodipodi:ry="38.897598"
       d="m 18538.898,25500 c 0,21.483 -17.415,38.898 -38.898,38.898 -21.483,0 -38.898,-17.415 -38.898,-38.898 0,-21.483 17.415,-38.898 38.898,-38.898 21.483,0 38.898,17.415 38.898,38.898 z" />
    <circle
       cx="18500"
       cy="22500"
       r="38.897598"
       id="circle742"
       sodipodi:cx="18500"
       sodipodi:cy="22500"
       sodipodi:rx="38.897598"
       sodipodi:ry="38.897598"
       d="m 18538.898,22500 c 0,21.483 -17.415,38.898 -38.898,38.898 -21.483,0 -38.898,-17.415 -38.898,-38.898 0,-21.483 17.415,-38.898 38.898,-38.898 21.483,0 38.898,17.415 38.898,38.898 z" />
    <circle
       cx="18500"
       cy="21500"
       r="38.897598"
       id="circle744"
       sodipodi:cx="18500"
       sodipodi:cy="21500"
       sodipodi:rx="38.897598"
       sodipodi:ry="38.897598"
       d="m 18538.898,21500 c 0,21.483 -17.415,38.898 -38.898,38.898 -21.483,0 -38.898,-17.415 -38.898,-38.898 0,-21.483 17.415,-38.898 38.898,-38.898 21.483,0 38.898,17.415 38.898,38.898 z" />
    <circle
       cx="18500"
       cy="20500"
       r="38.897598"
       id="circle746"
       sodipodi:cx="18500"
       sodipodi:cy="20500"
       sodipodi:rx="38.897598"
       sodipodi:ry="38.897598"
       d="m 18538.898,20500 c 0,21.483 -17.415,38.898 -38.898,38.898 -21.483,0 -38.898,-17.415 -38.898,-38.898 0,-21.483 17.415,-38.898 38.898,-38.898 21.483,0 38.898,17.415 38.898,38.898 z" />
    <circle
       cx="18500"
       cy="19500"
       r="38.897598"
       id="circle748"
       sodipodi:cx="18500"
       sodipodi:cy="19500"
       sodipodi:rx="38.897598"
       sodipodi:ry="38.897598"
       d="m 18538.898,19500 c 0,21.483 -17.415,38.898 -38.898,38.898 -21.483,0 -38.898,-17.415 -38.898,-38.898 0,-21.483 17.415,-38.898 38.898,-38.898 21.483,0 38.898,17.415 38.898,38.898 z" />
    <circle
       cx="18500"
       cy="28000"
       r="38.897598"
       id="circle750"
       sodipodi:cx="18500"
       sodipodi:cy="28000"
       sodipodi:rx="38.897598"
       sodipodi:ry="38.897598"
       d="m 18538.898,28000 c 0,21.483 -17.415,38.898 -38.898,38.898 -21.483,0 -38.898,-17.415 -38.898,-38.898 0,-21.483 17.415,-38.898 38.898,-38.898 21.483,0 38.898,17.415 38.898,38.898 z" />
    <circle
       cx="18500"
       cy="29000"
       r="38.897598"
       id="circle752"
       sodipodi:cx="18500"
       sodipodi:cy="29000"
       sodipodi:rx="38.897598"
       sodipodi:ry="38.897598"
       d="m 18538.898,29000 c 0,21.483 -17.415,38.898 -38.898,38.898 -21.483,0 -38.898,-17.415 -38.898,-38.898 0,-21.483 17.415,-38.898 38.898,-38.898 21.483,0 38.898,17.415 38.898,38.898 z" />
    <circle
       cx="18500"
       cy="30000"
       r="38.897598"
       id="circle754"
       sodipodi:cx="18500"
       sodipodi:cy="30000"
       sodipodi:rx="38.897598"
       sodipodi:ry="38.897598"
       d="m 18538.898,30000 c 0,21.483 -17.415,38.898 -38.898,38.898 -21.483,0 -38.898,-17.415 -38.898,-38.898 0,-21.483 17.415,-38.898 38.898,-38.898 21.483,0 38.898,17.415 38.898,38.898 z" />
    <circle
       cx="18500"
       cy="31000"
       r="38.897598"
       id="circle756"
       sodipodi:cx="18500"
       sodipodi:cy="31000"
       sodipodi:rx="38.897598"
       sodipodi:ry="38.897598"
       d="m 18538.898,31000 c 0,21.483 -17.415,38.898 -38.898,38.898 -21.483,0 -38.898,-17.415 -38.898,-38.898 0,-21.483 17.415,-38.898 38.898,-38.898 21.483,0 38.898,17.415 38.898,38.898 z" />
    <circle
       cx="18500"
       cy="32000"
       r="38.897598"
       id="circle758"
       sodipodi:cx="18500"
       sodipodi:cy="32000"
       sodipodi:rx="38.897598"
       sodipodi:ry="38.897598"
       d="m 18538.898,32000 c 0,21.483 -17.415,38.898 -38.898,38.898 -21.483,0 -38.898,-17.415 -38.898,-38.898 0,-21.483 17.415,-38.898 38.898,-38.898 21.483,0 38.898,17.415 38.898,38.898 z" />
  </g>
</svg>
