<?xml version="1.0" encoding="UTF-8" standalone="no"?>
<!-- Created with Inkscape (http://www.inkscape.org/) -->

<svg
   xmlns:dc="http://purl.org/dc/elements/1.1/"
   xmlns:cc="http://creativecommons.org/ns#"
   xmlns:rdf="http://www.w3.org/1999/02/22-rdf-syntax-ns#"
   xmlns:svg="http://www.w3.org/2000/svg"
   xmlns="http://www.w3.org/2000/svg"
   version="1.1"
   width="108.00579"
   height="117.00602"
   viewBox="0 0 12000.643 13000.678"
   id="svg2">
  <title
     id="title4">SVG Picture created as rxlamp-Back.svg date 2013/03/29 05:04:04 </title>
  <desc
     id="desc6">Picture generated by PCBNEW </desc>
  <metadata
     id="metadata658">
    <rdf:RDF>
      <cc:Work
         rdf:about="">
        <dc:format>image/svg+xml</dc:format>
        <dc:type
           rdf:resource="http://purl.org/dc/dcmitype/StillImage" />
        <dc:title>SVG Picture created as rxlamp-Back.svg date 2013/03/29 05:04:04 </dc:title>
      </cc:Work>
    </rdf:RDF>
  </metadata>
  <defs
     id="defs656" />
  <g
     transform="translate(-18000.004,-19000.001)"
     id="g8"
     style="fill:#000000;fill-opacity:1;stroke:#000000;stroke-linecap:round;stroke-linejoin:round;stroke-opacity:1" />
  <g
     transform="translate(-18000.004,-19000.001)"
     id="g10"
     style="fill:#000000;fill-opacity:0;stroke:#000000;stroke-width:60;stroke-linecap:round;stroke-linejoin:round;stroke-opacity:1" />
  <g
     transform="translate(-18000.004,-19000.001)"
     id="g614"
     style="fill:#ffffff;fill-opacity:0;stroke:#ffffff;stroke-width:60;stroke-linecap:round;stroke-linejoin:round;stroke-opacity:1" />
  <g
     transform="translate(-18000.004,-19000.001)"
     id="g3635">
    <title
       id="title3957">rxlamp-cupper-back</title>
    <g
       id="g12"
       style="fill:#000000;fill-opacity:1;stroke:#000000;stroke-width:60;stroke-linecap:round;stroke-linejoin:round;stroke-opacity:1">
      <polyline
         id="polyline14"
         points="21750,22550 21750,22250 22050,22250 22050,22550 21750,22550 "
         style="fill-rule:evenodd" />
      <polyline
         id="polyline16"
         points="22450,22550 22450,22250 22750,22250 22750,22550 22450,22550 "
         style="fill-rule:evenodd" />
      <polyline
         id="polyline18"
         points="22100,21750 22100,21450 22400,21450 22400,21750 22100,21750 "
         style="fill-rule:evenodd" />
      <polyline
         id="polyline20"
         points="23500,22550 23500,22250 23800,22250 23800,22550 23500,22550 "
         style="fill-rule:evenodd" />
      <polyline
         id="polyline22"
         points="24200,22550 24200,22250 24500,22250 24500,22550 24200,22550 "
         style="fill-rule:evenodd" />
      <polyline
         id="polyline24"
         points="23850,21750 23850,21450 24150,21450 24150,21750 23850,21750 "
         style="fill-rule:evenodd" />
      <polyline
         id="polyline26"
         points="25250,22550 25250,22250 25550,22250 25550,22550 25250,22550 "
         style="fill-rule:evenodd" />
      <polyline
         id="polyline28"
         points="25950,22550 25950,22250 26250,22250 26250,22550 25950,22550 "
         style="fill-rule:evenodd" />
      <polyline
         id="polyline30"
         points="25600,21750 25600,21450 25900,21450 25900,21750 25600,21750 "
         style="fill-rule:evenodd" />
      <polyline
         id="polyline32"
         points="26043,28432 25394,28432 25394,27980 26043,27980 26043,28432 "
         style="fill-rule:evenodd" />
      <polyline
         id="polyline34"
         points="26043,27526 25394,27526 25394,27074 26043,27074 26043,27526 "
         style="fill-rule:evenodd" />
      <polyline
         id="polyline36"
         points="26043,26620 25394,26620 25394,26168 26043,26168 26043,26620 "
         style="fill-rule:evenodd" />
      <polyline
         id="polyline38"
         points="28405,28018 27756,28018 27756,26582 28405,26582 28405,28018 "
         style="fill-rule:evenodd" />
      <polyline
         id="polyline40"
         points="23251,24733 23251,25067 22957,25067 22957,24733 23251,24733 "
         style="fill-rule:evenodd" />
      <polyline
         id="polyline42"
         points="23843,24733 23843,25067 23549,25067 23549,24733 23843,24733 "
         style="fill-rule:evenodd" />
      <polyline
         id="polyline44"
         points="22533,30249 22867,30249 22867,30543 22533,30543 22533,30249 "
         style="fill-rule:evenodd" />
      <polyline
         id="polyline46"
         points="22533,29657 22867,29657 22867,29951 22533,29951 22533,29657 "
         style="fill-rule:evenodd" />
      <polyline
         id="polyline48"
         points="19751,27933 19751,28267 19457,28267 19457,27933 19751,27933 "
         style="fill-rule:evenodd" />
      <polyline
         id="polyline50"
         points="20343,27933 20343,28267 20049,28267 20049,27933 20343,27933 "
         style="fill-rule:evenodd" />
      <polyline
         id="polyline52"
         points="25899,23167 25899,22833 26193,22833 26193,23167 25899,23167 "
         style="fill-rule:evenodd" />
      <polyline
         id="polyline54"
         points="25307,23167 25307,22833 25601,22833 25601,23167 25307,23167 "
         style="fill-rule:evenodd" />
      <polyline
         id="polyline56"
         points="24149,23167 24149,22833 24443,22833 24443,23167 24149,23167 "
         style="fill-rule:evenodd" />
      <polyline
         id="polyline58"
         points="23557,23167 23557,22833 23851,22833 23851,23167 23557,23167 "
         style="fill-rule:evenodd" />
      <polyline
         id="polyline60"
         points="22399,23167 22399,22833 22693,22833 22693,23167 22399,23167 "
         style="fill-rule:evenodd" />
      <polyline
         id="polyline62"
         points="21807,23167 21807,22833 22101,22833 22101,23167 21807,23167 "
         style="fill-rule:evenodd" />
      <polyline
         id="polyline64"
         points="29470,22970 28930,22970 28930,22430 29470,22430 29470,22970 "
         style="fill-rule:evenodd" />
      <circle
         cx="29200"
         cy="21700"
         r="270"
         id="circle66" />
      <polyline
         id="polyline68"
         points="28930,24930 29470,24930 29470,25470 28930,25470 28930,24930 "
         style="fill-rule:evenodd" />
      <circle
         cx="29200"
         cy="26200"
         r="270"
         id="circle70" />
      <circle
         cx="29200"
         cy="27200"
         r="270"
         id="circle72" />
      <circle
         cx="29200"
         cy="28200"
         r="270"
         id="circle74" />
      <circle
         cx="29200"
         cy="29200"
         r="270"
         id="circle76" />
      <circle
         cx="29200"
         cy="30200"
         r="270"
         id="circle78" />
      <polyline
         id="polyline80"
         points="21362,27921 20910,27921 20910,27863 21362,27863 21362,27921 "
         style="fill-rule:evenodd" />
      <polyline
         id="polyline82"
         points="21362,27724 20910,27724 20910,27666 21362,27666 21362,27724 "
         style="fill-rule:evenodd" />
      <polyline
         id="polyline84"
         points="21362,27527 20910,27527 20910,27469 21362,27469 21362,27527 "
         style="fill-rule:evenodd" />
      <polyline
         id="polyline86"
         points="21362,27331 20910,27331 20910,27273 21362,27273 21362,27331 "
         style="fill-rule:evenodd" />
      <polyline
         id="polyline88"
         points="21362,27134 20910,27134 20910,27076 21362,27076 21362,27134 "
         style="fill-rule:evenodd" />
      <polyline
         id="polyline90"
         points="21362,28512 20910,28512 20910,28454 21362,28454 21362,28512 "
         style="fill-rule:evenodd" />
      <polyline
         id="polyline92"
         points="21362,28315 20910,28315 20910,28257 21362,28257 21362,28315 "
         style="fill-rule:evenodd" />
      <polyline
         id="polyline94"
         points="21362,28118 20910,28118 20910,28060 21362,28060 21362,28118 "
         style="fill-rule:evenodd" />
      <polyline
         id="polyline96"
         points="21696,26012 21638,26012 21638,25560 21696,25560 21696,26012 "
         style="fill-rule:evenodd" />
      <polyline
         id="polyline98"
         points="21893,26012 21835,26012 21835,25560 21893,25560 21893,26012 "
         style="fill-rule:evenodd" />
      <polyline
         id="polyline100"
         points="22090,26012 22032,26012 22032,25560 22090,25560 22090,26012 "
         style="fill-rule:evenodd" />
      <polyline
         id="polyline102"
         points="22287,26012 22229,26012 22229,25560 22287,25560 22287,26012 "
         style="fill-rule:evenodd" />
      <polyline
         id="polyline104"
         points="22484,26012 22426,26012 22426,25560 22484,25560 22484,26012 "
         style="fill-rule:evenodd" />
      <polyline
         id="polyline106"
         points="22681,26012 22623,26012 22623,25560 22681,25560 22681,26012 "
         style="fill-rule:evenodd" />
      <polyline
         id="polyline108"
         points="22877,26012 22819,26012 22819,25560 22877,25560 22877,26012 "
         style="fill-rule:evenodd" />
      <polyline
         id="polyline110"
         points="23074,26012 23016,26012 23016,25560 23074,25560 23074,26012 "
         style="fill-rule:evenodd" />
      <polyline
         id="polyline112"
         points="24590,26346 24138,26346 24138,26288 24590,26288 24590,26346 "
         style="fill-rule:evenodd" />
      <polyline
         id="polyline114"
         points="24590,26543 24138,26543 24138,26485 24590,26485 24590,26543 "
         style="fill-rule:evenodd" />
      <polyline
         id="polyline116"
         points="24590,26740 24138,26740 24138,26682 24590,26682 24590,26740 "
         style="fill-rule:evenodd" />
      <polyline
         id="polyline118"
         points="24590,26937 24138,26937 24138,26879 24590,26879 24590,26937 "
         style="fill-rule:evenodd" />
      <polyline
         id="polyline120"
         points="24590,27134 24138,27134 24138,27076 24590,27076 24590,27134 "
         style="fill-rule:evenodd" />
      <polyline
         id="polyline122"
         points="24590,27331 24138,27331 24138,27273 24590,27273 24590,27331 "
         style="fill-rule:evenodd" />
      <polyline
         id="polyline124"
         points="24590,27527 24138,27527 24138,27469 24590,27469 24590,27527 "
         style="fill-rule:evenodd" />
      <polyline
         id="polyline126"
         points="24590,27724 24138,27724 24138,27666 24590,27666 24590,27724 "
         style="fill-rule:evenodd" />
      <polyline
         id="polyline128"
         points="23862,29240 23804,29240 23804,28788 23862,28788 23862,29240 "
         style="fill-rule:evenodd" />
      <polyline
         id="polyline130"
         points="23665,29240 23607,29240 23607,28788 23665,28788 23665,29240 "
         style="fill-rule:evenodd" />
      <polyline
         id="polyline132"
         points="23468,29240 23410,29240 23410,28788 23468,28788 23468,29240 "
         style="fill-rule:evenodd" />
      <polyline
         id="polyline134"
         points="23271,29240 23213,29240 23213,28788 23271,28788 23271,29240 "
         style="fill-rule:evenodd" />
      <polyline
         id="polyline136"
         points="23074,29240 23016,29240 23016,28788 23074,28788 23074,29240 "
         style="fill-rule:evenodd" />
      <polyline
         id="polyline138"
         points="22877,29240 22819,29240 22819,28788 22877,28788 22877,29240 "
         style="fill-rule:evenodd" />
      <polyline
         id="polyline140"
         points="22681,29240 22623,29240 22623,28788 22681,28788 22681,29240 "
         style="fill-rule:evenodd" />
      <polyline
         id="polyline142"
         points="22484,29240 22426,29240 22426,28788 22484,28788 22484,29240 "
         style="fill-rule:evenodd" />
      <polyline
         id="polyline144"
         points="21362,26937 20910,26937 20910,26879 21362,26879 21362,26937 "
         style="fill-rule:evenodd" />
      <polyline
         id="polyline146"
         points="21362,26740 20910,26740 20910,26682 21362,26682 21362,26740 "
         style="fill-rule:evenodd" />
      <polyline
         id="polyline148"
         points="21362,26543 20910,26543 20910,26485 21362,26485 21362,26543 "
         style="fill-rule:evenodd" />
      <polyline
         id="polyline150"
         points="21362,26346 20910,26346 20910,26288 21362,26288 21362,26346 "
         style="fill-rule:evenodd" />
      <polyline
         id="polyline152"
         points="23271,26012 23213,26012 23213,25560 23271,25560 23271,26012 "
         style="fill-rule:evenodd" />
      <polyline
         id="polyline154"
         points="23468,26012 23410,26012 23410,25560 23468,25560 23468,26012 "
         style="fill-rule:evenodd" />
      <polyline
         id="polyline156"
         points="23665,26012 23607,26012 23607,25560 23665,25560 23665,26012 "
         style="fill-rule:evenodd" />
      <polyline
         id="polyline158"
         points="23862,26012 23804,26012 23804,25560 23862,25560 23862,26012 "
         style="fill-rule:evenodd" />
      <polyline
         id="polyline160"
         points="24590,27921 24138,27921 24138,27863 24590,27863 24590,27921 "
         style="fill-rule:evenodd" />
      <polyline
         id="polyline162"
         points="24590,28118 24138,28118 24138,28060 24590,28060 24590,28118 "
         style="fill-rule:evenodd" />
      <polyline
         id="polyline164"
         points="24590,28315 24138,28315 24138,28257 24590,28257 24590,28315 "
         style="fill-rule:evenodd" />
      <polyline
         id="polyline166"
         points="24590,28512 24138,28512 24138,28454 24590,28454 24590,28512 "
         style="fill-rule:evenodd" />
      <polyline
         id="polyline168"
         points="22287,29240 22229,29240 22229,28788 22287,28788 22287,29240 "
         style="fill-rule:evenodd" />
      <polyline
         id="polyline170"
         points="22090,29240 22032,29240 22032,28788 22090,28788 22090,29240 "
         style="fill-rule:evenodd" />
      <polyline
         id="polyline172"
         points="21893,29240 21835,29240 21835,28788 21893,28788 21893,29240 "
         style="fill-rule:evenodd" />
      <polyline
         id="polyline174"
         points="21696,29240 21638,29240 21638,28788 21696,28788 21696,29240 "
         style="fill-rule:evenodd" />
      <polyline
         id="polyline176"
         points="26998,23509 28001,23509 28001,24453 26998,24453 26998,23509 "
         style="fill-rule:evenodd" />
      <polyline
         id="polyline178"
         points="26782,21147 28218,21147 28218,22091 26782,22091 26782,21147 "
         style="fill-rule:evenodd" />
      <polyline
         id="polyline180"
         points="19751,27333 19751,27667 19457,27667 19457,27333 19751,27333 "
         style="fill-rule:evenodd" />
      <polyline
         id="polyline182"
         points="20343,27333 20343,27667 20049,27667 20049,27333 20343,27333 "
         style="fill-rule:evenodd" />
      <polyline
         id="polyline184"
         points="21267,29351 20933,29351 20933,29057 21267,29057 21267,29351 "
         style="fill-rule:evenodd" />
      <polyline
         id="polyline186"
         points="21267,29943 20933,29943 20933,29649 21267,29649 21267,29943 "
         style="fill-rule:evenodd" />
      <polyline
         id="polyline188"
         points="20049,26867 20049,26533 20343,26533 20343,26867 20049,26867 "
         style="fill-rule:evenodd" />
      <polyline
         id="polyline190"
         points="19457,26867 19457,26533 19751,26533 19751,26867 19457,26867 "
         style="fill-rule:evenodd" />
      <polyline
         id="polyline192"
         points="20667,29351 20333,29351 20333,29057 20667,29057 20667,29351 "
         style="fill-rule:evenodd" />
      <polyline
         id="polyline194"
         points="20667,29943 20333,29943 20333,29649 20667,29649 20667,29943 "
         style="fill-rule:evenodd" />
      <polyline
         id="polyline196"
         points="24601,25483 24601,25817 24307,25817 24307,25483 24601,25483 "
         style="fill-rule:evenodd" />
      <polyline
         id="polyline198"
         points="25193,25483 25193,25817 24899,25817 24899,25483 25193,25483 "
         style="fill-rule:evenodd" />
      <polyline
         id="polyline200"
         points="24751,28933 24751,29267 24457,29267 24457,28933 24751,28933 "
         style="fill-rule:evenodd" />
      <polyline
         id="polyline202"
         points="25343,28933 25343,29267 25049,29267 25049,28933 25343,28933 "
         style="fill-rule:evenodd" />
      <polyline
         id="polyline204"
         points="26249,29267 26249,28933 26543,28933 26543,29267 26249,29267 "
         style="fill-rule:evenodd" />
      <polyline
         id="polyline206"
         points="25657,29267 25657,28933 25951,28933 25951,29267 25657,29267 "
         style="fill-rule:evenodd" />
      <polyline
         id="polyline208"
         points="25433,25649 25767,25649 25767,25943 25433,25943 25433,25649 "
         style="fill-rule:evenodd" />
      <polyline
         id="polyline210"
         points="25433,25057 25767,25057 25767,25351 25433,25351 25433,25057 "
         style="fill-rule:evenodd" />
      <circle
         cx="22300"
         cy="29700"
         r="206.22"
         id="circle212" />
      <circle
         cx="25100"
         cy="26900"
         r="206.22"
         id="circle214" />
      <circle
         cx="25100"
         cy="27800"
         r="206.22"
         id="circle216" />
      <circle
         cx="19100"
         cy="28800"
         r="206.22"
         id="circle218" />
      <circle
         cx="21900"
         cy="25100"
         r="206.22"
         id="circle220" />
      <circle
         cx="24000"
         cy="19750"
         r="206.22"
         id="circle222" />
      <circle
         cx="19750"
         cy="19750"
         r="206.22"
         id="circle224" />
      <circle
         cx="22250"
         cy="20250"
         r="206.22"
         id="circle226" />
      <circle
         cx="25750"
         cy="20500"
         r="206.22"
         id="circle228" />
      <circle
         cx="22250"
         cy="21000"
         r="206.22"
         id="circle230" />
    </g>
    <g
       id="g232"
       style="fill:#000000;fill-opacity:1;stroke:#000000;stroke-width:100;stroke-linecap:round;stroke-linejoin:round;stroke-opacity:1">
      <path
         d="m 22258,25786 0,-1444"
         id="path234" />
      <path
         d="m 22546,24054 0,-1054"
         id="path236" />
      <path
         d="m 22258,24342 288,-288"
         id="path238" />
    </g>
    <g
       id="g240"
       style="fill:#000000;fill-opacity:1;stroke:#000000;stroke-width:157.47999573;stroke-linecap:round;stroke-linejoin:round;stroke-opacity:1">
      <path
         d="m 22600,22400 0,546"
         id="path242" />
      <path
         d="m 22600,22946 -54,54"
         id="path244" />
    </g>
    <g
       id="g246"
       style="fill:#000000;fill-opacity:1;stroke:#000000;stroke-width:118.11000061;stroke-linecap:round;stroke-linejoin:round;stroke-opacity:1">
      <path
         d="m 22700,29804 -296,0"
         id="path248" />
      <path
         d="m 22404,29804 -104,-104"
         id="path250" />
      <path
         d="m 22700,29804 0,-104"
         id="path252" />
      <path
         d="m 22455,29455 0,-441"
         id="path254" />
      <path
         d="m 22700,29700 -245,-245"
         id="path256" />
    </g>
    <g
       id="g258"
       style="fill:#000000;fill-opacity:1;stroke:#000000;stroke-width:100;stroke-linecap:round;stroke-linejoin:round;stroke-opacity:1">
      <path
         d="m 22455,25786 0,-1241"
         id="path260" />
      <path
         d="m 24296,23604 0,-604"
         id="path262" />
      <path
         d="m 24100,23800 196,-196"
         id="path264" />
      <path
         d="m 23200,23800 900,0"
         id="path266" />
      <path
         d="m 22455,24545 745,-745"
         id="path268" />
    </g>
    <g
       id="g270"
       style="fill:#000000;fill-opacity:1;stroke:#000000;stroke-width:157.47999573;stroke-linecap:round;stroke-linejoin:round;stroke-opacity:1">
      <path
         d="m 24350,22400 0,546"
         id="path272" />
      <path
         d="m 24350,22946 -54,54"
         id="path274" />
    </g>
    <g
       id="g276"
       style="fill:#000000;fill-opacity:1;stroke:#000000;stroke-width:118.11000061;stroke-linecap:round;stroke-linejoin:round;stroke-opacity:1">
      <path
         d="m 24364,27302 334,0"
         id="path278" />
      <path
         d="m 24698,27302 402,-402"
         id="path280" />
      <path
         d="m 24364,27498 434,0"
         id="path282" />
      <path
         d="m 24798,27498 302,302"
         id="path284" />
      <path
         d="m 20196,28100 0,404"
         id="path286" />
      <path
         d="m 19900,28800 -800,0"
         id="path288" />
      <path
         d="m 20196,28504 -296,296"
         id="path290" />
      <path
         d="m 20196,28100 0,-600"
         id="path292" />
      <path
         d="m 20196,27500 304,0"
         id="path294" />
      <path
         d="m 20698,27302 438,0"
         id="path296" />
      <path
         d="m 20500,27500 198,-198"
         id="path298" />
    </g>
    <g
       id="g300"
       style="fill:#000000;fill-opacity:1;stroke:#000000;stroke-width:100;stroke-linecap:round;stroke-linejoin:round;stroke-opacity:1">
      <path
         d="m 22652,25786 0,-1138"
         id="path302" />
      <path
         d="m 26046,23754 0,-754"
         id="path304" />
      <path
         d="m 25700,24100 346,-346"
         id="path306" />
      <path
         d="m 23200,24100 2500,0"
         id="path308" />
      <path
         d="m 22652,24648 548,-548"
         id="path310" />
    </g>
    <g
       id="g312"
       style="fill:#000000;fill-opacity:1;stroke:#000000;stroke-width:157.47999573;stroke-linecap:round;stroke-linejoin:round;stroke-opacity:1">
      <path
         d="m 26100,22400 0,546"
         id="path314" />
      <path
         d="m 26100,22946 -54,54"
         id="path316" />
      <path
         d="m 19604,28100 -604,0"
         id="path318" />
      <path
         d="m 20404,29300 96,-96"
         id="path320" />
      <path
         d="m 18900,29300 1504,0"
         id="path322" />
      <path
         d="m 18600,29000 300,300"
         id="path324" />
      <path
         d="m 18600,28500 0,500"
         id="path326" />
      <path
         d="m 19000,28100 -400,400"
         id="path328" />
    </g>
    <g
       id="g330"
       style="fill:#000000;fill-opacity:1;stroke:#000000;stroke-width:196.8500061;stroke-linecap:round;stroke-linejoin:round;stroke-opacity:1">
      <path
         d="m 26396,29100 0,-1800"
         id="path332" />
      <path
         d="m 26396,27300 4,0"
         id="path334" />
      <path
         d="m 20196,26700 0,-596"
         id="path336" />
      <path
         d="m 21200,25100 700,0"
         id="path338" />
      <path
         d="m 20196,26104 1004,-1004"
         id="path340" />
      <path
         d="m 28081,27300 0,-1581"
         id="path342" />
      <path
         d="m 28081,25719 519,-519"
         id="path344" />
      <path
         d="m 28600,25200 600,0"
         id="path346" />
      <path
         d="m 25719,27300 681,0"
         id="path348" />
      <path
         d="m 26400,27300 1681,0"
         id="path350" />
    </g>
    <g
       id="g352"
       style="fill:#000000;fill-opacity:1;stroke:#000000;stroke-width:118.11000061;stroke-linecap:round;stroke-linejoin:round;stroke-opacity:1">
      <path
         d="m 24454,25650 -485,0"
         id="path354" />
      <path
         d="m 23969,25650 -136,136"
         id="path356" />
      <path
         d="m 24604,29100 0,-377"
         id="path358" />
      <path
         d="m 24604,28723 -240,-240"
         id="path360" />
      <path
         d="m 21136,28483 0,85"
         id="path362" />
      <path
         d="m 21136,28568 -636,636"
         id="path364" />
      <path
         d="m 24364,28483 -481,0"
         id="path366" />
      <path
         d="m 23100,27700 0,-600"
         id="path368" />
      <path
         d="m 23883,28483 -783,-783"
         id="path370" />
      <path
         d="m 21667,27100 1433,0"
         id="path372" />
      <path
         d="m 23833,26367 0,-581"
         id="path374" />
      <path
         d="m 23100,27100 733,-733"
         id="path376" />
      <path
         d="m 21136,26908 372,0"
         id="path378" />
      <path
         d="m 21667,27067 0,33"
         id="path380" />
      <path
         d="m 21667,27100 0,1914"
         id="path382" />
      <path
         d="m 21508,26908 159,159"
         id="path384" />
      <path
         d="m 21136,28483 531,531"
         id="path386" />
      <path
         d="m 21100,29204 377,0"
         id="path388" />
      <path
         d="m 21477,29204 190,-190"
         id="path390" />
      <path
         d="m 20500,29204 600,0"
         id="path392" />
      <path
         d="m 20196,26700 304,0"
         id="path394" />
      <path
         d="m 20708,26908 428,0"
         id="path396" />
      <path
         d="m 20500,26700 208,208"
         id="path398" />
    </g>
    <g
       id="g400"
       style="fill:#000000;fill-opacity:1;stroke:#000000;stroke-width:196.8500061;stroke-linecap:round;stroke-linejoin:round;stroke-opacity:1">
      <path
         d="m 25600,25796 0,479"
         id="path402" />
      <path
         d="m 25600,26275 119,119"
         id="path404" />
      <path
         d="m 25719,26394 487,0"
         id="path406" />
      <path
         d="m 27500,25100 0,-1119"
         id="path408" />
      <path
         d="m 26206,26394 1294,-1294"
         id="path410" />
      <path
         d="m 27500,23981 419,0"
         id="path412" />
      <path
         d="m 27919,23981 1281,-1281"
         id="path414" />
    </g>
    <g
       id="g416"
       style="fill:#000000;fill-opacity:1;stroke:#000000;stroke-width:157.47999573;stroke-linecap:round;stroke-linejoin:round;stroke-opacity:1">
      <path
         d="m 26600,22100 419,0"
         id="path418" />
      <path
         d="m 27019,22100 481,-481"
         id="path420" />
      <path
         d="m 25046,25650 4,0"
         id="path422" />
      <path
         d="m 25050,25650 446,-446"
         id="path424" />
      <path
         d="m 25496,25204 104,0"
         id="path426" />
    </g>
    <g
       id="g428"
       style="fill:#000000;fill-opacity:1;stroke:#000000;stroke-width:196.8500061;stroke-linecap:round;stroke-linejoin:round;stroke-opacity:1">
      <path
         d="m 19604,26700 0,-1350"
         id="path430" />
      <path
         d="m 19604,25350 2350,-2350"
         id="path432" />
    </g>
    <g
       id="g434"
       style="fill:#000000;fill-opacity:1;stroke:#000000;stroke-width:157.47999573;stroke-linecap:round;stroke-linejoin:round;stroke-opacity:1">
      <path
         d="m 19604,27500 -404,0"
         id="path436" />
      <path
         d="m 18896,29796 1604,0"
         id="path438" />
      <path
         d="m 18300,29200 596,596"
         id="path440" />
      <path
         d="m 18300,28400 0,800"
         id="path442" />
      <path
         d="m 19200,27500 -900,900"
         id="path444" />
    </g>
    <g
       id="g446"
       style="fill:#000000;fill-opacity:1;stroke:#000000;stroke-width:118.11000061;stroke-linecap:round;stroke-linejoin:round;stroke-opacity:1">
      <path
         d="m 19604,27004 0,-304"
         id="path448" />
      <path
         d="m 19705,27105 -101,-101"
         id="path450" />
      <path
         d="m 19604,27500 0,-294"
         id="path452" />
      <path
         d="m 21136,27105 -1431,0"
         id="path454" />
      <path
         d="m 19604,27206 101,-101"
         id="path456" />
    </g>
    <g
       id="g458"
       style="fill:#000000;fill-opacity:1;stroke:#000000;stroke-width:196.8500061;stroke-linecap:round;stroke-linejoin:round;stroke-opacity:1">
      <path
         d="m 25050,25650 1550,-1550"
         id="path460" />
      <path
         d="m 26600,24100 0,-2000"
         id="path462" />
      <path
         d="m 26600,22100 0,-100"
         id="path464" />
      <path
         d="m 25719,28206 0,1013"
         id="path466" />
      <path
         d="m 26700,30200 2500,0"
         id="path468" />
      <path
         d="m 25719,29219 981,981"
         id="path470" />
      <path
         d="m 25719,28206 0,371"
         id="path472" />
      <path
         d="m 25719,28577 -523,523"
         id="path474" />
      <path
         d="m 25400,22400 100,0"
         id="path476" />
      <path
         d="m 25500,22400 400,-400"
         id="path478" />
      <path
         d="m 25900,22000 700,0"
         id="path480" />
      <path
         d="m 28900,22000 300,-300"
         id="path482" />
      <path
         d="m 26600,22000 2300,0"
         id="path484" />
    </g>
    <g
       id="g486"
       style="fill:#000000;fill-opacity:1;stroke:#000000;stroke-width:118.11000061;stroke-linecap:round;stroke-linejoin:round;stroke-opacity:1">
      <path
         d="m 23546,24900 1154,0"
         id="path488" />
      <path
         d="m 23636,24990 -90,-90"
         id="path490" />
      <path
         d="m 23636,25786 0,-796"
         id="path492" />
      <path
         d="m 24700,24900 346,346"
         id="path494" />
      <path
         d="m 25046,25246 0,404"
         id="path496" />
      <path
         d="m 22700,30396 1504,0"
         id="path498" />
      <path
         d="m 25196,29404 0,-304"
         id="path500" />
      <path
         d="m 24204,30396 992,-992"
         id="path502" />
      <path
         d="m 24364,28286 322,0"
         id="path504" />
      <path
         d="m 24686,28286 510,510"
         id="path506" />
      <path
         d="m 25196,28796 0,304"
         id="path508" />
      <path
         d="m 21864,29500 0,364"
         id="path510" />
      <path
         d="m 22396,30396 304,0"
         id="path512" />
      <path
         d="m 21864,29864 532,532"
         id="path514" />
      <path
         d="m 21100,29796 504,0"
         id="path516" />
      <path
         d="m 21864,29536 0,-36"
         id="path518" />
      <path
         d="m 21864,29500 0,-486"
         id="path520" />
      <path
         d="m 21604,29796 260,-260"
         id="path522" />
      <path
         d="m 20500,29796 600,0"
         id="path524" />
    </g>
    <g
       id="g526"
       style="fill:#000000;fill-opacity:1;stroke:#000000;stroke-width:236.22000122;stroke-linecap:round;stroke-linejoin:round;stroke-opacity:1">
      <path
         d="m 21900,22400 0,546"
         id="path528" />
      <path
         d="m 21900,22946 54,54"
         id="path530" />
      <path
         d="m 23650,22400 0,546"
         id="path532" />
      <path
         d="m 23650,22946 54,54"
         id="path534" />
      <path
         d="m 25400,22400 0,546"
         id="path536" />
      <path
         d="m 25400,22946 54,54"
         id="path538" />
      <path
         d="m 23650,22400 -250,0"
         id="path540" />
      <path
         d="m 22300,22000 -400,400"
         id="path542" />
      <path
         d="m 23000,22000 -700,0"
         id="path544" />
      <path
         d="m 23400,22400 -400,-400"
         id="path546" />
      <path
         d="m 25400,22400 -400,-400"
         id="path548" />
      <path
         d="m 24050,22000 -400,400"
         id="path550" />
      <path
         d="m 25000,22000 -950,0"
         id="path552" />
    </g>
    <g
       id="g554"
       style="fill:#000000;fill-opacity:1;stroke:#000000;stroke-width:118.11000061;stroke-linecap:round;stroke-linejoin:round;stroke-opacity:1">
      <path
         d="m 23054,24900 146,0"
         id="path556" />
      <path
         d="m 23045,25245 0,541"
         id="path558" />
      <path
         d="m 23200,24900 -155,345"
         id="path560" />
    </g>
    <g
       id="g562"
       style="fill:#000000;fill-opacity:1;stroke:#000000;stroke-width:236.22000122;stroke-linecap:round;stroke-linejoin:round;stroke-opacity:1">
      <path
         d="m 24000,21600 0,-1850"
         id="path564" />
      <path
         d="m 22250,20250 -2000,0"
         id="path566" />
      <path
         d="m 20250,20250 -500,-500"
         id="path568" />
      <path
         d="m 25750,20500 0,-500"
         id="path570" />
      <path
         d="m 23250,19250 -1000,1000"
         id="path572" />
      <path
         d="m 25000,19250 -1750,0"
         id="path574" />
      <path
         d="m 25750,20000 -750,-750"
         id="path576" />
      <path
         d="m 25750,20500 0,1100"
         id="path578" />
      <path
         d="m 22250,21600 0,-600"
         id="path580" />
    </g>
    <g
       id="g582"
       style="fill:#000000;fill-opacity:1;stroke:#000000;stroke-width:60;stroke-linecap:round;stroke-linejoin:round;stroke-opacity:1">
      <polyline
         id="polyline584"
         points="23996,23479 23975,23500 23654,23500 23654,23384 23654,23050 23339,23050 23277,23112 23276,23147 23277,23246 23315,23338 23385,23409 23477,23447 23591,23447 23654,23384 23654,23500 23200,23500 23085,23522 22987,23587 22846,23729 22846,23416 22864,23409 22934,23338 22972,23246 22973,23147 22973,22753 22969,22744 22991,22721 23029,22629 23030,22530 23030,22170 22992,22078 22921,22008 22829,21970 22730,21969 22593,21969 22641,21921 22679,21829 22680,21730 22680,21370 22647,21290 22661,21275 22736,21097 22736,20903 22662,20724 22562,20624 22661,20525 22736,20347 22736,20284 23402,19618 23528,19618 23513,19652 23513,19846 23587,20025 23631,20069 23631,21254 23608,21278 23570,21370 23569,21469 23569,21829 23607,21921 23678,21991 23722,22010 23700,22032 23700,22300 23700,22350 23700,22450 23600,22450 23600,22350 23600,22032 23537,21970 23420,21969 23328,22007 23258,22078 23220,22170 23219,22269 23220,22287 23282,22350 23600,22350 23600,22450 23550,22450 23282,22450 23220,22512 23219,22530 23220,22629 23258,22721 23280,22744 23277,22753 23276,22852 23277,22887 23339,22950 23604,22950 23654,22950 23754,22950 23754,23050 23754,23100 23754,23384 23816,23447 23930,23447 23996,23419 23996,23479 "
         style="fill-rule:evenodd" />
    </g>
    <g
       id="g586"
       style="fill:#000000;fill-opacity:0;stroke:#000000;stroke-width:100;stroke-linecap:round;stroke-linejoin:round;stroke-opacity:1">
      <polyline
         id="polyline588"
         points="23996,23479 23975,23500 23654,23500 23654,23384 23654,23050 23339,23050 23277,23112 23276,23147 23277,23246 23315,23338 23385,23409 23477,23447 23591,23447 23654,23384 23654,23500 23200,23500 23085,23522 22987,23587 22846,23729 22846,23416 22864,23409 22934,23338 22972,23246 22973,23147 22973,22753 22969,22744 22991,22721 23029,22629 23030,22530 23030,22170 22992,22078 22921,22008 22829,21970 22730,21969 22593,21969 22641,21921 22679,21829 22680,21730 22680,21370 22647,21290 22661,21275 22736,21097 22736,20903 22662,20724 22562,20624 22661,20525 22736,20347 22736,20284 23402,19618 23528,19618 23513,19652 23513,19846 23587,20025 23631,20069 23631,21254 23608,21278 23570,21370 23569,21469 23569,21829 23607,21921 23678,21991 23722,22010 23700,22032 23700,22300 23700,22350 23700,22450 23600,22450 23600,22350 23600,22032 23537,21970 23420,21969 23328,22007 23258,22078 23220,22170 23219,22269 23220,22287 23282,22350 23600,22350 23600,22450 23550,22450 23282,22450 23220,22512 23219,22530 23220,22629 23258,22721 23280,22744 23277,22753 23276,22852 23277,22887 23339,22950 23604,22950 23654,22950 23754,22950 23754,23050 23754,23100 23754,23384 23816,23447 23930,23447 23996,23419 23996,23479 "
         fill="none;" />
    </g>
    <g
       id="g590"
       style="fill:#000000;fill-opacity:1;stroke:#000000;stroke-width:60;stroke-linecap:round;stroke-linejoin:round;stroke-opacity:1">
      <polyline
         id="polyline592"
         points="25746,23629 25575,23800 25404,23800 25404,23384 25404,23050 25089,23050 25027,23112 25026,23147 25027,23246 25065,23338 25135,23409 25227,23447 25341,23447 25404,23384 25404,23800 24518,23800 24573,23718 24595,23604 24596,23604 24596,23416 24614,23409 24684,23338 24722,23246 24723,23147 24723,22753 24719,22744 24741,22721 24779,22629 24780,22530 24780,22170 24742,22078 24671,22008 24579,21970 24480,21969 24343,21969 24391,21921 24429,21829 24430,21730 24430,21370 24392,21278 24368,21254 24368,20069 24411,20025 24486,19847 24486,19653 24471,19618 24847,19618 25381,20152 25381,20180 25338,20224 25263,20402 25263,20596 25337,20775 25381,20819 25381,21254 25358,21278 25320,21370 25319,21469 25319,21829 25357,21921 25428,21991 25472,22010 25450,22032 25450,22300 25450,22350 25450,22450 25350,22450 25350,22350 25350,22032 25287,21970 25170,21969 25078,22007 25008,22078 24970,22170 24969,22269 24970,22287 25032,22350 25350,22350 25350,22450 25300,22450 25032,22450 24970,22512 24969,22530 24970,22629 25008,22721 25030,22744 25027,22753 25026,22852 25027,22887 25089,22950 25354,22950 25404,22950 25504,22950 25504,23050 25504,23100 25504,23384 25566,23447 25680,23447 25746,23419 25746,23629 "
         style="fill-rule:evenodd" />
    </g>
    <g
       id="g594"
       style="fill:#000000;fill-opacity:0;stroke:#000000;stroke-width:100;stroke-linecap:round;stroke-linejoin:round;stroke-opacity:1">
      <polyline
         id="polyline596"
         points="25746,23629 25575,23800 25404,23800 25404,23384 25404,23050 25089,23050 25027,23112 25026,23147 25027,23246 25065,23338 25135,23409 25227,23447 25341,23447 25404,23384 25404,23800 24518,23800 24573,23718 24595,23604 24596,23604 24596,23416 24614,23409 24684,23338 24722,23246 24723,23147 24723,22753 24719,22744 24741,22721 24779,22629 24780,22530 24780,22170 24742,22078 24671,22008 24579,21970 24480,21969 24343,21969 24391,21921 24429,21829 24430,21730 24430,21370 24392,21278 24368,21254 24368,20069 24411,20025 24486,19847 24486,19653 24471,19618 24847,19618 25381,20152 25381,20180 25338,20224 25263,20402 25263,20596 25337,20775 25381,20819 25381,21254 25358,21278 25320,21370 25319,21469 25319,21829 25357,21921 25428,21991 25472,22010 25450,22032 25450,22300 25450,22350 25450,22450 25350,22450 25350,22350 25350,22032 25287,21970 25170,21969 25078,22007 25008,22078 24970,22170 24969,22269 24970,22287 25032,22350 25350,22350 25350,22450 25300,22450 25032,22450 24970,22512 24969,22530 24970,22629 25008,22721 25030,22744 25027,22753 25026,22852 25027,22887 25089,22950 25354,22950 25404,22950 25504,22950 25504,23050 25504,23100 25504,23384 25566,23447 25680,23447 25746,23419 25746,23629 "
         fill="none;" />
    </g>
    <g
       id="g598"
       style="fill:#000000;fill-opacity:1;stroke:#000000;stroke-width:60;stroke-linecap:round;stroke-linejoin:round;stroke-opacity:1">
      <polyline
         id="polyline600"
         points="25769,28256 25669,28256 25669,28156 25769,28156 25769,28256 "
         style="fill-rule:evenodd" />
    </g>
    <g
       id="g602"
       style="fill:#000000;fill-opacity:0;stroke:#000000;stroke-width:100;stroke-linecap:round;stroke-linejoin:round;stroke-opacity:1">
      <polyline
         id="polyline604"
         points="25769,28256 25669,28256 25669,28156 25769,28156 25769,28256 "
         fill="none;" />
    </g>
    <g
       id="g606"
       style="fill:#000000;fill-opacity:1;stroke:#000000;stroke-width:60;stroke-linecap:round;stroke-linejoin:round;stroke-opacity:1">
      <polyline
         id="polyline608"
         points="29950,31950 29754,31950 29754,30281 29754,21781 29743,21563 29681,21412 29585,21384 29515,21455 29515,21314 29487,21218 29281,21145 29063,21156 28912,21218 28884,21314 29200,21629 29515,21314 29515,21455 29270,21700 29585,22015 29681,21987 29754,21781 29754,30281 29743,30063 29681,29912 29585,29884 29270,30200 29585,30515 29681,30487 29754,30281 29754,31950 29515,31950 29515,30585 29200,30270 29129,30341 29129,30200 28814,29884 28718,29912 28645,30118 28656,30336 28718,30487 28814,30515 29129,30200 29129,30341 28884,30585 28912,30681 29118,30754 29336,30743 29487,30681 29515,30585 29515,31950 25754,31950 25754,29484 25754,29150 25560,29150 25439,29150 25246,29150 25246,29484 25308,29547 25422,29547 25500,29515 25577,29547 25691,29547 25754,29484 25754,31950 23147,31950 23147,30622 23147,30508 23084,30446 22750,30446 22750,30760 22812,30823 22847,30823 22946,30822 23038,30784 23109,30714 23147,30622 23147,31950 22650,31950 22650,30760 22650,30446 22315,30446 22253,30508 22252,30622 22290,30714 22361,30784 22453,30822 22552,30823 22587,30823 22650,30760 22650,31950 21547,31950 21547,30022 21547,29908 21484,29846 21150,29846 21150,30160 21212,30223 21247,30223 21346,30222 21438,30184 21509,30114 21547,30022 21547,31950 21050,31950 21050,30160 21050,29846 20884,29846 20715,29846 20550,29846 20550,30160 20612,30223 20647,30223 20746,30222 20800,30200 20853,30222 20952,30223 20987,30223 21050,30160 21050,31950 20450,31950 20450,30160 20450,29846 20115,29846 20053,29908 20052,30022 20090,30114 20161,30184 20253,30222 20352,30223 20387,30223 20450,30160 20450,31950 18050,31950 18050,19050 22929,19050 22215,19763 22153,19763 21974,19837 21930,19881 20402,19881 20236,19715 20236,19653 20162,19474 20025,19338 19847,19263 19653,19263 19474,19337 19338,19474 19263,19652 19263,19846 19337,20025 19474,20161 19652,20236 19715,20236 19989,20510 20109,20590 20250,20618 21930,20618 21937,20625 21838,20724 21763,20902 21763,21096 21837,21275 21853,21290 21820,21370 21819,21469 21819,21829 21857,21921 21928,21991 21972,22010 21950,22032 21950,22300 21950,22350 21950,22450 21850,22450 21850,22350 21850,22032 21787,21970 21670,21969 21578,22007 21508,22078 21470,22170 21469,22269 21470,22287 21532,22350 21850,22350 21850,22450 21800,22450 21532,22450 21470,22512 21469,22530 21470,22629 21508,22721 21530,22744 21527,22753 21526,22852 21527,22887 21589,22950 21854,22950 21904,22950 22004,22950 22004,23050 22004,23100 22004,23384 22066,23447 22180,23447 22246,23419 22246,23929 22045,24129 21980,24227 21958,24342 21958,24613 21904,24613 21904,23384 21904,23050 21589,23050 21527,23112 21526,23147 21527,23246 21565,23338 21635,23409 21727,23447 21841,23447 21904,23384 21904,24613 21803,24613 21624,24687 21560,24751 21200,24751 21199,24751 21066,24778 20953,24853 20953,24853 19949,25857 19874,25970 19869,25992 19847,26104 19847,26104 19847,26260 19830,26252 19716,26253 19654,26315 19654,26600 19654,26650 19654,26750 19654,26800 19654,27084 19669,27100 19654,27115 19654,27400 19654,27450 19654,27550 19554,27550 19554,27450 19554,27115 19538,27100 19554,27084 19554,26750 19554,26650 19554,26315 19491,26253 19377,26252 19285,26290 19215,26361 19177,26453 19176,26552 19177,26587 19239,26650 19554,26650 19554,26750 19239,26750 19177,26812 19176,26847 19177,26946 19215,27038 19276,27100 19215,27161 19177,27253 19176,27352 19177,27387 19239,27450 19554,27450 19554,27550 19504,27550 19239,27550 19177,27612 19176,27647 19177,27746 19187,27771 19000,27771 18874,27796 18767,27867 18767,27867 18767,27867 18367,28267 18296,28374 18271,28500 18271,29000 18296,29125 18367,29232 18667,29532 18667,29532 18774,29603 18899,29628 18900,29628 20052,29628 20053,29683 20115,29746 20400,29746 20450,29746 20550,29746 20600,29746 20715,29746 20884,29746 21000,29746 21050,29746 21150,29746 21200,29746 21484,29746 21547,29683 21547,29569 21520,29504 21520,29504 21558,29519 21657,29520 21775,29520 21775,29520 21772,29520 21848,29520 21848,29520 21854,29520 21848,29520 21813,29602 21813,29796 21887,29975 22024,30111 22202,30186 22252,30186 22253,30283 22315,30346 22600,30346 22650,30346 22750,30346 22800,30346 23084,30346 23147,30283 23147,30169 23118,30099 23146,30030 23147,29931 23147,29577 23123,29520 23153,29520 23153,29519 23232,29520 23350,29520 23350,29519 23429,29520 23547,29520 23547,29519 23626,29520 23744,29520 23744,29519 23823,29520 23941,29520 24033,29482 24103,29411 24141,29319 24142,29220 24142,28792 24202,28792 24177,28853 24176,28952 24176,29346 24214,29438 24285,29508 24377,29546 24476,29547 24830,29547 24900,29518 24969,29547 25083,29547 25146,29484 25146,29200 25146,29150 25146,29050 25146,29000 25146,28715 25083,28653 24969,28652 24904,28679 24889,28604 24889,28604 24869,28575 24870,28492 24870,28394 24870,28374 24833,28285 24858,28226 25002,28286 25114,28286 25114,28306 25126,28306 25114,28318 25114,28511 25152,28603 25222,28673 25268,28692 25246,28715 25246,29050 25439,29050 25560,29050 25704,29050 25754,29050 25854,29050 25854,29150 25854,29200 25854,29484 25916,29547 26030,29547 26100,29518 26169,29546 26268,29547 26622,29547 26714,29509 26784,29438 26822,29346 26823,29247 26823,28853 26785,28761 26744,28720 26744,27648 27476,27648 27476,28097 27514,28189 27584,28259 27676,28297 27776,28298 28485,28298 28576,28260 28647,28189 28650,28183 28649,28308 28733,28511 28888,28665 28969,28699 28888,28733 28734,28888 28650,29090 28649,29308 28733,29511 28888,29665 28963,29697 28912,29718 28884,29814 29200,30129 29515,29814 29487,29718 29432,29699 29511,29666 29665,29511 29749,29309 29750,29091 29666,28888 29511,28734 29430,28700 29511,28666 29665,28511 29749,28309 29750,28091 29666,27888 29511,27734 29430,27700 29511,27666 29665,27511 29749,27309 29750,27091 29666,26888 29511,26734 29430,26700 29511,26666 29665,26511 29749,26309 29750,26091 29666,25888 29527,25750 29549,25750 29641,25712 29711,25641 29749,25549 29750,25450 29750,24850 29712,24758 29641,24688 29549,24650 29450,24649 28850,24649 28758,24687 28688,24758 28650,24850 28650,24851 28600,24851 28600,24851 28466,24878 28353,24953 28353,24953 27834,25472 27759,25585 27754,25607 27732,25719 27732,25719 27732,26301 27676,26301 27585,26339 27514,26410 27476,26502 27476,26601 27476,26951 26400,26951 26396,26951 26305,26951 26285,26902 26230,26846 26285,26791 26314,26720 26317,26720 26339,26715 26339,26715 26452,26640 27746,25346 27746,25346 27746,25346 27821,25233 27848,25100 27848,24733 28081,24733 28172,24695 28243,24624 28281,24532 28281,24433 28281,24111 29142,23250 29549,23250 29641,23212 29711,23141 29749,23049 29750,22950 29750,22350 29712,22258 29641,22188 29549,22150 29496,22149 29515,22085 29200,21770 29129,21841 29129,21700 28814,21384 28718,21412 28645,21618 28656,21836 28718,21987 28814,22015 29129,21700 29129,21841 28884,22085 28903,22149 28850,22149 28758,22187 28688,22258 28650,22350 28649,22449 28649,22757 28498,22909 28498,22170 28498,21067 28460,20975 28389,20905 28297,20867 28198,20866 27612,20867 27550,20929 27550,21569 28435,21569 28498,21506 28498,21067 28498,22170 28498,21731 28435,21669 27550,21669 27550,22308 27612,22371 28198,22371 28297,22370 28389,22332 28460,22262 28498,22170 28498,22909 28149,23257 28081,23229 27981,23228 26918,23228 26827,23266 26756,23337 26718,23429 26718,23528 26718,24532 26756,24624 26826,24694 26918,24732 27018,24733 27151,24733 27151,24955 26191,25916 26123,25888 26047,25887 26047,25569 26018,25500 26047,25430 26047,24977 26009,24885 25938,24815 25846,24777 25747,24776 25712,24777 25650,24839 25650,25154 25984,25154 26047,25091 26047,24977 26047,25430 26047,25316 25984,25254 25700,25254 25650,25254 25550,25254 25550,25154 25550,24839 25487,24777 25452,24776 25353,24777 25261,24815 25190,24885 25152,24977 25153,25091 25215,25154 25550,25154 25550,25254 25500,25254 25377,25254 25364,25240 25272,25202 25158,25203 25096,25265 25096,25550 25096,25600 25096,25700 25096,25750 25096,26034 25124,26063 25114,26088 25114,26187 25114,26413 25003,26413 24870,26468 24870,26405 24869,26405 24870,26326 24870,26208 24832,26116 24807,26092 24819,26097 24933,26097 24996,26034 24996,25750 24996,25700 24996,25600 24996,25550 24996,25265 24933,25203 24819,25202 24749,25231 24680,25203 24581,25202 24227,25202 24135,25240 24065,25311 24053,25338 24033,25318 24013,25309 24014,25309 24084,25238 24122,25146 24123,25047 24123,24752 24122,24653 24084,24561 24014,24490 23922,24452 23808,24453 23746,24515 23746,24850 24060,24850 24123,24787 24123,24752 24123,25047 24123,25012 24060,24950 23796,24950 23746,24950 23646,24950 23646,24850 23646,24800 23646,24515 23583,24453 23469,24452 23399,24481 23330,24453 23271,24452 23324,24400 25700,24400 25700,24399 25814,24377 25814,24377 25912,24312 26258,23966 26258,23966 26323,23868 26345,23754 26346,23754 26346,23416 26364,23409 26434,23338 26472,23246 26473,23147 26473,22753 26469,22744 26491,22721 26529,22629 26530,22530 26530,22238 26539,22262 26610,22332 26702,22370 26801,22371 27387,22371 27450,22308 27450,21669 27450,21569 27450,20929 27387,20867 26801,20866 26702,20867 26610,20905 26539,20975 26501,21067 26502,21506 26564,21569 27450,21569 27450,21669 26564,21669 26502,21731 26501,22102 26492,22078 26421,22008 26329,21970 26230,21969 26093,21969 26141,21921 26179,21829 26180,21730 26180,21370 26142,21278 26118,21254 26118,20819 26161,20775 26236,20597 26236,20403 26162,20224 26118,20180 26118,20000 26118,19999 26118,19999 26090,19859 26010,19739 26010,19739 25320,19050 29950,19050 29950,31950 "
         style="fill-rule:evenodd" />
    </g>
    <g
       id="g610"
       style="fill:#000000;fill-opacity:0;stroke:#000000;stroke-width:100;stroke-linecap:round;stroke-linejoin:round;stroke-opacity:1">
      <polyline
         id="polyline612"
         points="29950,31950 29754,31950 29754,30281 29754,21781 29743,21563 29681,21412 29585,21384 29515,21455 29515,21314 29487,21218 29281,21145 29063,21156 28912,21218 28884,21314 29200,21629 29515,21314 29515,21455 29270,21700 29585,22015 29681,21987 29754,21781 29754,30281 29743,30063 29681,29912 29585,29884 29270,30200 29585,30515 29681,30487 29754,30281 29754,31950 29515,31950 29515,30585 29200,30270 29129,30341 29129,30200 28814,29884 28718,29912 28645,30118 28656,30336 28718,30487 28814,30515 29129,30200 29129,30341 28884,30585 28912,30681 29118,30754 29336,30743 29487,30681 29515,30585 29515,31950 25754,31950 25754,29484 25754,29150 25560,29150 25439,29150 25246,29150 25246,29484 25308,29547 25422,29547 25500,29515 25577,29547 25691,29547 25754,29484 25754,31950 23147,31950 23147,30622 23147,30508 23084,30446 22750,30446 22750,30760 22812,30823 22847,30823 22946,30822 23038,30784 23109,30714 23147,30622 23147,31950 22650,31950 22650,30760 22650,30446 22315,30446 22253,30508 22252,30622 22290,30714 22361,30784 22453,30822 22552,30823 22587,30823 22650,30760 22650,31950 21547,31950 21547,30022 21547,29908 21484,29846 21150,29846 21150,30160 21212,30223 21247,30223 21346,30222 21438,30184 21509,30114 21547,30022 21547,31950 21050,31950 21050,30160 21050,29846 20884,29846 20715,29846 20550,29846 20550,30160 20612,30223 20647,30223 20746,30222 20800,30200 20853,30222 20952,30223 20987,30223 21050,30160 21050,31950 20450,31950 20450,30160 20450,29846 20115,29846 20053,29908 20052,30022 20090,30114 20161,30184 20253,30222 20352,30223 20387,30223 20450,30160 20450,31950 18050,31950 18050,19050 22929,19050 22215,19763 22153,19763 21974,19837 21930,19881 20402,19881 20236,19715 20236,19653 20162,19474 20025,19338 19847,19263 19653,19263 19474,19337 19338,19474 19263,19652 19263,19846 19337,20025 19474,20161 19652,20236 19715,20236 19989,20510 20109,20590 20250,20618 21930,20618 21937,20625 21838,20724 21763,20902 21763,21096 21837,21275 21853,21290 21820,21370 21819,21469 21819,21829 21857,21921 21928,21991 21972,22010 21950,22032 21950,22300 21950,22350 21950,22450 21850,22450 21850,22350 21850,22032 21787,21970 21670,21969 21578,22007 21508,22078 21470,22170 21469,22269 21470,22287 21532,22350 21850,22350 21850,22450 21800,22450 21532,22450 21470,22512 21469,22530 21470,22629 21508,22721 21530,22744 21527,22753 21526,22852 21527,22887 21589,22950 21854,22950 21904,22950 22004,22950 22004,23050 22004,23100 22004,23384 22066,23447 22180,23447 22246,23419 22246,23929 22045,24129 21980,24227 21958,24342 21958,24613 21904,24613 21904,23384 21904,23050 21589,23050 21527,23112 21526,23147 21527,23246 21565,23338 21635,23409 21727,23447 21841,23447 21904,23384 21904,24613 21803,24613 21624,24687 21560,24751 21200,24751 21199,24751 21066,24778 20953,24853 20953,24853 19949,25857 19874,25970 19869,25992 19847,26104 19847,26104 19847,26260 19830,26252 19716,26253 19654,26315 19654,26600 19654,26650 19654,26750 19654,26800 19654,27084 19669,27100 19654,27115 19654,27400 19654,27450 19654,27550 19554,27550 19554,27450 19554,27115 19538,27100 19554,27084 19554,26750 19554,26650 19554,26315 19491,26253 19377,26252 19285,26290 19215,26361 19177,26453 19176,26552 19177,26587 19239,26650 19554,26650 19554,26750 19239,26750 19177,26812 19176,26847 19177,26946 19215,27038 19276,27100 19215,27161 19177,27253 19176,27352 19177,27387 19239,27450 19554,27450 19554,27550 19504,27550 19239,27550 19177,27612 19176,27647 19177,27746 19187,27771 19000,27771 18874,27796 18767,27867 18767,27867 18767,27867 18367,28267 18296,28374 18271,28500 18271,29000 18296,29125 18367,29232 18667,29532 18667,29532 18774,29603 18899,29628 18900,29628 20052,29628 20053,29683 20115,29746 20400,29746 20450,29746 20550,29746 20600,29746 20715,29746 20884,29746 21000,29746 21050,29746 21150,29746 21200,29746 21484,29746 21547,29683 21547,29569 21520,29504 21520,29504 21558,29519 21657,29520 21775,29520 21775,29520 21772,29520 21848,29520 21848,29520 21854,29520 21848,29520 21813,29602 21813,29796 21887,29975 22024,30111 22202,30186 22252,30186 22253,30283 22315,30346 22600,30346 22650,30346 22750,30346 22800,30346 23084,30346 23147,30283 23147,30169 23118,30099 23146,30030 23147,29931 23147,29577 23123,29520 23153,29520 23153,29519 23232,29520 23350,29520 23350,29519 23429,29520 23547,29520 23547,29519 23626,29520 23744,29520 23744,29519 23823,29520 23941,29520 24033,29482 24103,29411 24141,29319 24142,29220 24142,28792 24202,28792 24177,28853 24176,28952 24176,29346 24214,29438 24285,29508 24377,29546 24476,29547 24830,29547 24900,29518 24969,29547 25083,29547 25146,29484 25146,29200 25146,29150 25146,29050 25146,29000 25146,28715 25083,28653 24969,28652 24904,28679 24889,28604 24889,28604 24869,28575 24870,28492 24870,28394 24870,28374 24833,28285 24858,28226 25002,28286 25114,28286 25114,28306 25126,28306 25114,28318 25114,28511 25152,28603 25222,28673 25268,28692 25246,28715 25246,29050 25439,29050 25560,29050 25704,29050 25754,29050 25854,29050 25854,29150 25854,29200 25854,29484 25916,29547 26030,29547 26100,29518 26169,29546 26268,29547 26622,29547 26714,29509 26784,29438 26822,29346 26823,29247 26823,28853 26785,28761 26744,28720 26744,27648 27476,27648 27476,28097 27514,28189 27584,28259 27676,28297 27776,28298 28485,28298 28576,28260 28647,28189 28650,28183 28649,28308 28733,28511 28888,28665 28969,28699 28888,28733 28734,28888 28650,29090 28649,29308 28733,29511 28888,29665 28963,29697 28912,29718 28884,29814 29200,30129 29515,29814 29487,29718 29432,29699 29511,29666 29665,29511 29749,29309 29750,29091 29666,28888 29511,28734 29430,28700 29511,28666 29665,28511 29749,28309 29750,28091 29666,27888 29511,27734 29430,27700 29511,27666 29665,27511 29749,27309 29750,27091 29666,26888 29511,26734 29430,26700 29511,26666 29665,26511 29749,26309 29750,26091 29666,25888 29527,25750 29549,25750 29641,25712 29711,25641 29749,25549 29750,25450 29750,24850 29712,24758 29641,24688 29549,24650 29450,24649 28850,24649 28758,24687 28688,24758 28650,24850 28650,24851 28600,24851 28600,24851 28466,24878 28353,24953 28353,24953 27834,25472 27759,25585 27754,25607 27732,25719 27732,25719 27732,26301 27676,26301 27585,26339 27514,26410 27476,26502 27476,26601 27476,26951 26400,26951 26396,26951 26305,26951 26285,26902 26230,26846 26285,26791 26314,26720 26317,26720 26339,26715 26339,26715 26452,26640 27746,25346 27746,25346 27746,25346 27821,25233 27848,25100 27848,24733 28081,24733 28172,24695 28243,24624 28281,24532 28281,24433 28281,24111 29142,23250 29549,23250 29641,23212 29711,23141 29749,23049 29750,22950 29750,22350 29712,22258 29641,22188 29549,22150 29496,22149 29515,22085 29200,21770 29129,21841 29129,21700 28814,21384 28718,21412 28645,21618 28656,21836 28718,21987 28814,22015 29129,21700 29129,21841 28884,22085 28903,22149 28850,22149 28758,22187 28688,22258 28650,22350 28649,22449 28649,22757 28498,22909 28498,22170 28498,21067 28460,20975 28389,20905 28297,20867 28198,20866 27612,20867 27550,20929 27550,21569 28435,21569 28498,21506 28498,21067 28498,22170 28498,21731 28435,21669 27550,21669 27550,22308 27612,22371 28198,22371 28297,22370 28389,22332 28460,22262 28498,22170 28498,22909 28149,23257 28081,23229 27981,23228 26918,23228 26827,23266 26756,23337 26718,23429 26718,23528 26718,24532 26756,24624 26826,24694 26918,24732 27018,24733 27151,24733 27151,24955 26191,25916 26123,25888 26047,25887 26047,25569 26018,25500 26047,25430 26047,24977 26009,24885 25938,24815 25846,24777 25747,24776 25712,24777 25650,24839 25650,25154 25984,25154 26047,25091 26047,24977 26047,25430 26047,25316 25984,25254 25700,25254 25650,25254 25550,25254 25550,25154 25550,24839 25487,24777 25452,24776 25353,24777 25261,24815 25190,24885 25152,24977 25153,25091 25215,25154 25550,25154 25550,25254 25500,25254 25377,25254 25364,25240 25272,25202 25158,25203 25096,25265 25096,25550 25096,25600 25096,25700 25096,25750 25096,26034 25124,26063 25114,26088 25114,26187 25114,26413 25003,26413 24870,26468 24870,26405 24869,26405 24870,26326 24870,26208 24832,26116 24807,26092 24819,26097 24933,26097 24996,26034 24996,25750 24996,25700 24996,25600 24996,25550 24996,25265 24933,25203 24819,25202 24749,25231 24680,25203 24581,25202 24227,25202 24135,25240 24065,25311 24053,25338 24033,25318 24013,25309 24014,25309 24084,25238 24122,25146 24123,25047 24123,24752 24122,24653 24084,24561 24014,24490 23922,24452 23808,24453 23746,24515 23746,24850 24060,24850 24123,24787 24123,24752 24123,25047 24123,25012 24060,24950 23796,24950 23746,24950 23646,24950 23646,24850 23646,24800 23646,24515 23583,24453 23469,24452 23399,24481 23330,24453 23271,24452 23324,24400 25700,24400 25700,24399 25814,24377 25814,24377 25912,24312 26258,23966 26258,23966 26323,23868 26345,23754 26346,23754 26346,23416 26364,23409 26434,23338 26472,23246 26473,23147 26473,22753 26469,22744 26491,22721 26529,22629 26530,22530 26530,22238 26539,22262 26610,22332 26702,22370 26801,22371 27387,22371 27450,22308 27450,21669 27450,21569 27450,20929 27387,20867 26801,20866 26702,20867 26610,20905 26539,20975 26501,21067 26502,21506 26564,21569 27450,21569 27450,21669 26564,21669 26502,21731 26501,22102 26492,22078 26421,22008 26329,21970 26230,21969 26093,21969 26141,21921 26179,21829 26180,21730 26180,21370 26142,21278 26118,21254 26118,20819 26161,20775 26236,20597 26236,20403 26162,20224 26118,20180 26118,20000 26118,19999 26118,19999 26090,19859 26010,19739 26010,19739 25320,19050 29950,19050 29950,31950 "
         fill="none;" />
    </g>
    <g
       id="g616"
       style="fill:#ffffff;fill-opacity:1;stroke:#ffffff;stroke-width:60;stroke-linecap:round;stroke-linejoin:round;stroke-opacity:1">
      <circle
         cx="22300"
         cy="29700"
         r="38.897598"
         id="circle618" />
      <circle
         cx="25100"
         cy="26900"
         r="38.897598"
         id="circle620" />
      <circle
         cx="25100"
         cy="27800"
         r="38.897598"
         id="circle622" />
      <circle
         cx="19100"
         cy="28800"
         r="38.897598"
         id="circle624" />
      <circle
         cx="21900"
         cy="25100"
         r="38.897598"
         id="circle626" />
      <circle
         cx="24000"
         cy="19750"
         r="38.897598"
         id="circle628" />
      <circle
         cx="19750"
         cy="19750"
         r="38.897598"
         id="circle630" />
      <circle
         cx="22250"
         cy="20250"
         r="38.897598"
         id="circle632" />
      <circle
         cx="25750"
         cy="20500"
         r="38.897598"
         id="circle634" />
      <circle
         cx="22250"
         cy="21000"
         r="38.897598"
         id="circle636" />
      <circle
         cx="29200"
         cy="22700"
         r="38.897598"
         id="circle638" />
      <circle
         cx="29200"
         cy="21700"
         r="38.897598"
         id="circle640" />
      <circle
         cx="29200"
         cy="25200"
         r="38.897598"
         id="circle642" />
      <circle
         cx="29200"
         cy="26200"
         r="38.897598"
         id="circle644" />
      <circle
         cx="29200"
         cy="27200"
         r="38.897598"
         id="circle646" />
      <circle
         cx="29200"
         cy="28200"
         r="38.897598"
         id="circle648" />
      <circle
         cx="29200"
         cy="29200"
         r="38.897598"
         id="circle650" />
      <circle
         cx="29200"
         cy="30200"
         r="38.897598"
         id="circle652" />
    </g>
  </g>
</svg>
