G04 (created by PCBNEW (2013-mar-30)-stable) date Wed 05 Jun 2013 10:13:46 PM CEST*
%MOIN*%
G04 Gerber Fmt 3.4, Leading zero omitted, Abs format*
%FSLAX34Y34*%
G01*
G70*
G90*
G04 APERTURE LIST*
%ADD10C,0.006*%
%ADD11R,0.047274X0.043274*%
%ADD12R,0.059074X0.049174*%
%ADD13R,0.094474X0.067874*%
%ADD14O,0.094474X0.067874*%
G04 APERTURE END LIST*
G54D10*
G54D11*
X27287Y-31796D03*
X27287Y-31204D03*
X24787Y-31796D03*
X24787Y-31204D03*
X23787Y-31796D03*
X23787Y-31204D03*
X25787Y-31796D03*
X25787Y-31204D03*
X22287Y-31796D03*
X22287Y-31204D03*
X21287Y-31796D03*
X21287Y-31204D03*
X20275Y-31792D03*
X20275Y-31200D03*
X28287Y-31796D03*
X28287Y-31204D03*
X29287Y-31796D03*
X29287Y-31204D03*
G54D12*
X25476Y-20565D03*
X24098Y-20565D03*
X24787Y-20565D03*
X24787Y-22435D03*
X24098Y-22435D03*
X25476Y-22435D03*
X28976Y-20565D03*
X27598Y-20565D03*
X28287Y-20565D03*
X28287Y-22435D03*
X27598Y-22435D03*
X28976Y-22435D03*
X28976Y-24565D03*
X27598Y-24565D03*
X28287Y-24565D03*
X28287Y-26435D03*
X27598Y-26435D03*
X28976Y-26435D03*
X28976Y-28565D03*
X27598Y-28565D03*
X28287Y-28565D03*
X28287Y-30435D03*
X27598Y-30435D03*
X28976Y-30435D03*
X25476Y-28565D03*
X24098Y-28565D03*
X24787Y-28565D03*
X24787Y-30435D03*
X24098Y-30435D03*
X25476Y-30435D03*
X21976Y-20565D03*
X20598Y-20565D03*
X21287Y-20565D03*
X21287Y-22435D03*
X20598Y-22435D03*
X21976Y-22435D03*
X21976Y-24565D03*
X20598Y-24565D03*
X21287Y-24565D03*
X21287Y-26435D03*
X20598Y-26435D03*
X21976Y-26435D03*
X21976Y-28565D03*
X20598Y-28565D03*
X21287Y-28565D03*
X21287Y-30435D03*
X20598Y-30435D03*
X21976Y-30435D03*
X25476Y-24565D03*
X24098Y-24565D03*
X24787Y-24565D03*
X24787Y-26435D03*
X24098Y-26435D03*
X25476Y-26435D03*
G54D13*
X18500Y-24500D03*
G54D14*
X18500Y-25500D03*
G54D13*
X18500Y-22500D03*
G54D14*
X18500Y-21500D03*
X18500Y-20500D03*
X18500Y-19500D03*
G54D13*
X18500Y-27500D03*
G54D14*
X18500Y-28500D03*
X18500Y-29500D03*
X18500Y-30500D03*
X18500Y-31500D03*
X18500Y-32500D03*
M02*
