G04 (created by PCBNEW (2013-mar-30)-stable) date Wed 05 Jun 2013 10:13:46 PM CEST*
%MOIN*%
G04 Gerber Fmt 3.4, Leading zero omitted, Abs format*
%FSLAX34Y34*%
G01*
G70*
G90*
G04 APERTURE LIST*
%ADD10C,0.006*%
%ADD11R,0.036X0.036*%
%ADD12R,0.0512X0.0709*%
%ADD13R,0.1496X0.0709*%
%ADD14R,0.0354X0.0394*%
%ADD15R,0.0394X0.0354*%
%ADD16R,0.0512X0.0118*%
%ADD17R,0.0118X0.0512*%
%ADD18R,0.0866142X0.0275591*%
%ADD19R,0.0275591X0.0866142*%
%ADD20C,0.0787402*%
%ADD21R,0.0787402X0.0787402*%
%ADD22R,0.0512X0.059*%
%ADD23R,0.0866X0.06*%
%ADD24O,0.0866X0.06*%
%ADD25R,0.0472441X0.0334646*%
%ADD26R,0.0787402X0.0433071*%
%ADD27R,0.0394X0.0787*%
%ADD28R,0.0315X0.0236*%
%ADD29R,0.0768X0.0984*%
%ADD30R,0.0787X0.0394*%
%ADD31C,0.0393701*%
%ADD32C,0.011811*%
%ADD33C,0.015748*%
%ADD34C,0.01*%
%ADD35C,0.019685*%
%ADD36C,0.023622*%
%ADD37C,0.0393701*%
G04 APERTURE END LIST*
G54D10*
G54D11*
X21900Y-22400D03*
X22600Y-22400D03*
X22250Y-21600D03*
X23650Y-22400D03*
X24350Y-22400D03*
X24000Y-21600D03*
X25400Y-22400D03*
X26100Y-22400D03*
X25750Y-21600D03*
G54D12*
X27834Y-21653D03*
X28740Y-21653D03*
X29646Y-21653D03*
G54D13*
X28740Y-24015D03*
G54D14*
X23104Y-24900D03*
X23696Y-24900D03*
G54D15*
X22700Y-30396D03*
X22700Y-29804D03*
G54D14*
X19604Y-28100D03*
X20196Y-28100D03*
X26046Y-23000D03*
X25454Y-23000D03*
X24296Y-23000D03*
X23704Y-23000D03*
X22546Y-23000D03*
X21954Y-23000D03*
G54D16*
X21136Y-27892D03*
X21136Y-27695D03*
X21136Y-27498D03*
X21136Y-27302D03*
X21136Y-27105D03*
X21136Y-28483D03*
X21136Y-28286D03*
X21136Y-28089D03*
G54D17*
X21667Y-25786D03*
X21864Y-25786D03*
X22061Y-25786D03*
X22258Y-25786D03*
X22455Y-25786D03*
X22652Y-25786D03*
X22848Y-25786D03*
X23045Y-25786D03*
G54D16*
X24364Y-26317D03*
X24364Y-26514D03*
X24364Y-26711D03*
X24364Y-26908D03*
X24364Y-27105D03*
X24364Y-27302D03*
X24364Y-27498D03*
X24364Y-27695D03*
G54D17*
X23833Y-29014D03*
X23636Y-29014D03*
X23439Y-29014D03*
X23242Y-29014D03*
X23045Y-29014D03*
X22848Y-29014D03*
X22652Y-29014D03*
X22455Y-29014D03*
G54D16*
X21136Y-26908D03*
X21136Y-26711D03*
X21136Y-26514D03*
X21136Y-26317D03*
G54D17*
X23242Y-25786D03*
X23439Y-25786D03*
X23636Y-25786D03*
X23833Y-25786D03*
G54D16*
X24364Y-27892D03*
X24364Y-28089D03*
X24364Y-28286D03*
X24364Y-28483D03*
G54D17*
X22258Y-29014D03*
X22061Y-29014D03*
X21864Y-29014D03*
X21667Y-29014D03*
G54D14*
X19604Y-27500D03*
X20196Y-27500D03*
G54D15*
X21100Y-29204D03*
X21100Y-29796D03*
G54D14*
X20196Y-26700D03*
X19604Y-26700D03*
G54D15*
X20500Y-29204D03*
X20500Y-29796D03*
G54D14*
X24454Y-25650D03*
X25046Y-25650D03*
X24604Y-29100D03*
X25196Y-29100D03*
X24154Y-29803D03*
X23562Y-29803D03*
G54D15*
X26850Y-19704D03*
X26850Y-20296D03*
G54D18*
X26314Y-28976D03*
X26314Y-28476D03*
X26314Y-27976D03*
X26314Y-27476D03*
X26314Y-26976D03*
X26314Y-26476D03*
X26314Y-25976D03*
X26314Y-25476D03*
G54D19*
X29657Y-29606D03*
X29157Y-29606D03*
X28657Y-29606D03*
G54D20*
X26732Y-31220D03*
G54D21*
X25629Y-32322D03*
X27834Y-32322D03*
X27834Y-30118D03*
X25629Y-30118D03*
G54D22*
X24193Y-30629D03*
X23443Y-30629D03*
G54D15*
X24251Y-31515D03*
X24251Y-32107D03*
X29173Y-30373D03*
X29173Y-30965D03*
X19527Y-32382D03*
X19527Y-31790D03*
G54D14*
X19585Y-26102D03*
X20177Y-26102D03*
G54D23*
X18500Y-24500D03*
G54D24*
X18500Y-25500D03*
G54D23*
X18500Y-22500D03*
G54D24*
X18500Y-21500D03*
X18500Y-20500D03*
X18500Y-19500D03*
G54D23*
X18500Y-27500D03*
G54D24*
X18500Y-28500D03*
X18500Y-29500D03*
X18500Y-30500D03*
X18500Y-31500D03*
X18500Y-32500D03*
G54D25*
X26692Y-22627D03*
X26692Y-23828D03*
G54D26*
X24763Y-20472D03*
X24763Y-19448D03*
G54D27*
X21318Y-20236D03*
X19862Y-20236D03*
X21318Y-23188D03*
X19862Y-23188D03*
X21318Y-22204D03*
X19862Y-22204D03*
G54D28*
X21456Y-32342D03*
X21456Y-33012D03*
G54D15*
X20078Y-32973D03*
X20078Y-32381D03*
G54D27*
X21318Y-21220D03*
X19862Y-21220D03*
G54D29*
X30000Y-20500D03*
X28800Y-20500D03*
G54D30*
X20767Y-32913D03*
X20767Y-31457D03*
G54D31*
X22403Y-23672D03*
X22086Y-27362D03*
X22598Y-28425D03*
X21279Y-25748D03*
X18129Y-23464D03*
X17775Y-21909D03*
X25511Y-27086D03*
X25433Y-27637D03*
X20078Y-28661D03*
X19311Y-32578D03*
X20531Y-25669D03*
X19547Y-29842D03*
X23208Y-26456D03*
X27007Y-27480D03*
X25551Y-23779D03*
X25433Y-25275D03*
X23110Y-27834D03*
X26299Y-26456D03*
X23503Y-27244D03*
X22598Y-27401D03*
X26062Y-24645D03*
X28818Y-23543D03*
X29173Y-23228D03*
X28464Y-23228D03*
X30314Y-30551D03*
X28110Y-29291D03*
X30236Y-21653D03*
X22007Y-32637D03*
X17952Y-26299D03*
X21751Y-31811D03*
X25118Y-21496D03*
X28307Y-25669D03*
X30393Y-32716D03*
X29133Y-19881D03*
X23937Y-32559D03*
X22677Y-32755D03*
X23070Y-31732D03*
X22913Y-30787D03*
X23385Y-24448D03*
X23228Y-23188D03*
X24448Y-21574D03*
X22322Y-19330D03*
X19251Y-19330D03*
X23037Y-21150D03*
X23385Y-21692D03*
X26338Y-20669D03*
X23037Y-20250D03*
X19566Y-23818D03*
X19960Y-24842D03*
G54D32*
X21136Y-26514D02*
X21474Y-26514D01*
X22311Y-23580D02*
X22546Y-23000D01*
X22403Y-23672D02*
X22311Y-23580D01*
X22086Y-27125D02*
X22086Y-27362D01*
X21474Y-26514D02*
X22086Y-27125D01*
G54D33*
X22600Y-22400D02*
X22600Y-22946D01*
X22600Y-22946D02*
X22546Y-23000D01*
G54D32*
X22455Y-28568D02*
X22455Y-29014D01*
X22598Y-28425D02*
X22455Y-28568D01*
X22700Y-29804D02*
X22700Y-29700D01*
X22455Y-29455D02*
X22455Y-29014D01*
X22700Y-29700D02*
X22455Y-29455D01*
X21136Y-26317D02*
X21136Y-26254D01*
X24296Y-23381D02*
X24296Y-23000D01*
X24133Y-23543D02*
X24296Y-23381D01*
X23228Y-23543D02*
X24133Y-23543D01*
X21417Y-25354D02*
X23228Y-23543D01*
X21141Y-25354D02*
X21417Y-25354D01*
X20905Y-25590D02*
X21141Y-25354D01*
X20905Y-26023D02*
X20905Y-25590D01*
X21136Y-26254D02*
X20905Y-26023D01*
G54D33*
X24350Y-22400D02*
X24350Y-22946D01*
X24350Y-22946D02*
X24296Y-23000D01*
G54D32*
X21317Y-25786D02*
X21667Y-25786D01*
X21279Y-25748D02*
X21317Y-25786D01*
X17736Y-23070D02*
X18129Y-23464D01*
X17736Y-21948D02*
X17736Y-23070D01*
X17775Y-21909D02*
X17736Y-21948D01*
X18500Y-32500D02*
X18500Y-32500D01*
X24364Y-27302D02*
X25296Y-27302D01*
X25296Y-27302D02*
X25511Y-27086D01*
X25293Y-27498D02*
X24364Y-27498D01*
X25433Y-27637D02*
X25293Y-27498D01*
X20196Y-28544D02*
X20196Y-28100D01*
X20078Y-28661D02*
X20196Y-28544D01*
X20196Y-28100D02*
X20196Y-27500D01*
X20196Y-27500D02*
X20500Y-27500D01*
X20698Y-27302D02*
X21136Y-27302D01*
X20500Y-27500D02*
X20698Y-27302D01*
X20177Y-26102D02*
X20177Y-26022D01*
X19507Y-32382D02*
X19527Y-32382D01*
X19311Y-32578D02*
X19507Y-32382D01*
X20177Y-26022D02*
X20531Y-25669D01*
X21136Y-26711D02*
X20844Y-26711D01*
X20236Y-26102D02*
X20177Y-26102D01*
X20844Y-26711D02*
X20236Y-26102D01*
X20767Y-31457D02*
X20767Y-32341D01*
X20767Y-32341D02*
X20767Y-32283D01*
X20767Y-32283D02*
X20767Y-32341D01*
X23439Y-25786D02*
X23439Y-26226D01*
X21712Y-32342D02*
X21299Y-32342D01*
X22086Y-31968D02*
X21712Y-32342D01*
X22086Y-31437D02*
X22086Y-31968D01*
X21653Y-30807D02*
X22086Y-31437D01*
X20708Y-30807D02*
X21653Y-30807D01*
X19547Y-29842D02*
X20275Y-30570D01*
X20275Y-30570D02*
X20708Y-30807D01*
X23439Y-26226D02*
X23208Y-26456D01*
X20196Y-32341D02*
X20767Y-32341D01*
X20767Y-32341D02*
X20787Y-32341D01*
X20787Y-32342D02*
X21299Y-32342D01*
X20787Y-32341D02*
X20787Y-32342D01*
G54D34*
X22652Y-25786D02*
X22652Y-24648D01*
X22652Y-24648D02*
X23200Y-24100D01*
G54D33*
X26100Y-22400D02*
X26100Y-22946D01*
X26100Y-22946D02*
X26046Y-23000D01*
G54D34*
X26046Y-23754D02*
X26046Y-23000D01*
X25700Y-24100D02*
X26046Y-23754D01*
X23200Y-24100D02*
X25700Y-24100D01*
G54D32*
X26314Y-27976D02*
X25062Y-27976D01*
X24781Y-27695D02*
X24364Y-27695D01*
X25062Y-27976D02*
X24781Y-27695D01*
X21864Y-25786D02*
X21864Y-25183D01*
X27003Y-27476D02*
X26314Y-27476D01*
X27007Y-27480D02*
X27003Y-27476D01*
X23267Y-23779D02*
X25551Y-23779D01*
X21864Y-25183D02*
X23267Y-23779D01*
X24364Y-26908D02*
X25060Y-26908D01*
X25783Y-25476D02*
X26314Y-25476D01*
X25511Y-25748D02*
X25783Y-25476D01*
X25511Y-26456D02*
X25511Y-25748D01*
X25060Y-26908D02*
X25511Y-26456D01*
X26314Y-25976D02*
X26622Y-25976D01*
X25590Y-25118D02*
X25433Y-25275D01*
X26771Y-25118D02*
X25590Y-25118D01*
X26929Y-25275D02*
X26771Y-25118D01*
X26929Y-25669D02*
X26929Y-25275D01*
X26622Y-25976D02*
X26929Y-25669D01*
X22258Y-26313D02*
X23110Y-27401D01*
X23110Y-27401D02*
X23110Y-27834D01*
X22258Y-25786D02*
X22258Y-26313D01*
X22455Y-25786D02*
X22455Y-26155D01*
X26314Y-26472D02*
X26314Y-26476D01*
X26299Y-26456D02*
X26314Y-26472D01*
X23095Y-26982D02*
X23188Y-27086D01*
X23188Y-27086D02*
X23503Y-27244D01*
X22455Y-26155D02*
X23095Y-26982D01*
X26314Y-26976D02*
X26960Y-26976D01*
X22061Y-26470D02*
X22061Y-25786D01*
X22362Y-26771D02*
X22061Y-26470D01*
X22362Y-27165D02*
X22362Y-26771D01*
X22598Y-27401D02*
X22362Y-27165D01*
X26299Y-24645D02*
X26062Y-24645D01*
X26614Y-24330D02*
X26299Y-24645D01*
X27007Y-24330D02*
X26614Y-24330D01*
X27165Y-24488D02*
X27007Y-24330D01*
X27165Y-26771D02*
X27165Y-24488D01*
X26960Y-26976D02*
X27165Y-26771D01*
X28464Y-23228D02*
X29173Y-23228D01*
X28818Y-23543D02*
X28858Y-23543D01*
X28503Y-23267D02*
X28464Y-23228D01*
X28503Y-23267D02*
X28740Y-23267D01*
G54D35*
X26692Y-23828D02*
X28553Y-23828D01*
X28553Y-23828D02*
X28740Y-24015D01*
X22362Y-31181D02*
X22362Y-31732D01*
X22362Y-31732D02*
X23622Y-32992D01*
X23622Y-32992D02*
X28897Y-32992D01*
X28897Y-32992D02*
X30314Y-31574D01*
X30314Y-31574D02*
X30314Y-30551D01*
X28110Y-29291D02*
X27295Y-28476D01*
X27295Y-28476D02*
X26314Y-28476D01*
G54D33*
X24193Y-30629D02*
X24193Y-30924D01*
X24193Y-30924D02*
X23937Y-31181D01*
X23937Y-31181D02*
X22362Y-31181D01*
X20500Y-29204D02*
X20000Y-29204D01*
X20000Y-29204D02*
X19991Y-29204D01*
X19991Y-29204D02*
X19604Y-28816D01*
X19604Y-28816D02*
X19604Y-28100D01*
X26314Y-28476D02*
X26917Y-28476D01*
X26917Y-28476D02*
X27401Y-27992D01*
X27401Y-27992D02*
X27401Y-25354D01*
X27401Y-25354D02*
X28740Y-24015D01*
G54D32*
X23956Y-28444D02*
X23169Y-28444D01*
X22677Y-27952D02*
X21667Y-27952D01*
X23169Y-28444D02*
X22677Y-27952D01*
X21667Y-27952D02*
X21692Y-27952D01*
X21692Y-27952D02*
X21667Y-27952D01*
X24364Y-28483D02*
X23994Y-28483D01*
X23858Y-25811D02*
X23833Y-25786D01*
X23858Y-28346D02*
X23858Y-25811D01*
X23994Y-28483D02*
X23956Y-28444D01*
X23956Y-28444D02*
X23858Y-28346D01*
X24154Y-29803D02*
X24154Y-29549D01*
X24154Y-29549D02*
X24604Y-29100D01*
X24193Y-30629D02*
X24193Y-29842D01*
X24193Y-29842D02*
X24154Y-29803D01*
X24251Y-31515D02*
X24251Y-30687D01*
X24251Y-30687D02*
X24193Y-30629D01*
G54D35*
X28740Y-21653D02*
X28740Y-23267D01*
X28740Y-23267D02*
X28740Y-24015D01*
G54D32*
X24454Y-25650D02*
X23969Y-25650D01*
X23969Y-25650D02*
X23833Y-25786D01*
X24604Y-29100D02*
X24604Y-28723D01*
X24604Y-28723D02*
X24364Y-28483D01*
X21136Y-28483D02*
X21136Y-28568D01*
X21136Y-28568D02*
X20500Y-29204D01*
X21136Y-26908D02*
X21508Y-26908D01*
X21508Y-26908D02*
X21667Y-27067D01*
X21667Y-27100D02*
X21667Y-27952D01*
X21667Y-27067D02*
X21667Y-27100D01*
X21667Y-27952D02*
X21667Y-29014D01*
X21136Y-28483D02*
X21667Y-29014D01*
X21100Y-29204D02*
X21477Y-29204D01*
X21477Y-29204D02*
X21667Y-29014D01*
X20500Y-29204D02*
X21100Y-29204D01*
X20196Y-26700D02*
X20500Y-26700D01*
X20708Y-26908D02*
X21136Y-26908D01*
X20500Y-26700D02*
X20708Y-26908D01*
X29646Y-21653D02*
X30236Y-21653D01*
X30236Y-21653D02*
X30236Y-21653D01*
G54D35*
X26850Y-19704D02*
X26850Y-19409D01*
X29330Y-19173D02*
X30236Y-20078D01*
X27086Y-19173D02*
X29330Y-19173D01*
X26850Y-19409D02*
X27086Y-19173D01*
X24763Y-19448D02*
X26595Y-19448D01*
X26595Y-19448D02*
X26850Y-19704D01*
G54D36*
X30236Y-20078D02*
X30236Y-21063D01*
X30236Y-21063D02*
X29646Y-21653D01*
G54D32*
X19527Y-31790D02*
X19527Y-31476D01*
X17834Y-26417D02*
X17952Y-26299D01*
X17834Y-30846D02*
X17834Y-26417D01*
X18011Y-31023D02*
X17834Y-30846D01*
X19074Y-31023D02*
X18011Y-31023D01*
X19527Y-31476D02*
X19074Y-31023D01*
X19527Y-31790D02*
X19547Y-31790D01*
X19547Y-31790D02*
X20118Y-31122D01*
X20118Y-31122D02*
X21299Y-31122D01*
X21299Y-31122D02*
X21751Y-31811D01*
G54D35*
X24763Y-20472D02*
X24763Y-21141D01*
X24763Y-21141D02*
X25118Y-21496D01*
X19862Y-21220D02*
X19862Y-20236D01*
X18500Y-22500D02*
X19114Y-22500D01*
X19114Y-22500D02*
X19409Y-22204D01*
X19409Y-22204D02*
X19409Y-21673D01*
X19409Y-21673D02*
X19862Y-21220D01*
G54D32*
X20767Y-32913D02*
X21357Y-32913D01*
X21357Y-32913D02*
X21456Y-33012D01*
X28657Y-29606D02*
X28657Y-26019D01*
X28657Y-26019D02*
X28307Y-25669D01*
X29657Y-29606D02*
X29960Y-29606D01*
X30826Y-32283D02*
X30393Y-32716D01*
X30826Y-30275D02*
X30826Y-32283D01*
X30629Y-30078D02*
X30826Y-30275D01*
X30236Y-30078D02*
X30629Y-30078D01*
X30039Y-29881D02*
X30236Y-30078D01*
X30039Y-29685D02*
X30039Y-29881D01*
X29960Y-29606D02*
X30039Y-29685D01*
X27874Y-20078D02*
X28937Y-20078D01*
X28937Y-20078D02*
X29133Y-19881D01*
X21299Y-33012D02*
X22420Y-33012D01*
X24251Y-32244D02*
X24251Y-32107D01*
X23937Y-32559D02*
X24251Y-32244D01*
X22420Y-33012D02*
X22677Y-32755D01*
G54D35*
X21318Y-23188D02*
X21318Y-24075D01*
X19585Y-25689D02*
X19585Y-26102D01*
X19803Y-25472D02*
X19585Y-25689D01*
X19921Y-25472D02*
X19803Y-25472D01*
X21318Y-24075D02*
X19921Y-25472D01*
X19604Y-27500D02*
X19604Y-26120D01*
X19604Y-26120D02*
X19585Y-26102D01*
X18500Y-27500D02*
X19604Y-27500D01*
X21318Y-22204D02*
X21704Y-22204D01*
X21704Y-22204D02*
X21900Y-22400D01*
X21318Y-23188D02*
X21765Y-23188D01*
X21765Y-23188D02*
X21954Y-23000D01*
X26692Y-22627D02*
X26692Y-22283D01*
X26692Y-22283D02*
X26968Y-22007D01*
G54D33*
X20500Y-29796D02*
X20268Y-29796D01*
X19133Y-27970D02*
X19212Y-27891D01*
X19122Y-28754D02*
X19133Y-27970D01*
X19359Y-29148D02*
X19122Y-28754D01*
X20000Y-29685D02*
X19359Y-29148D01*
X20268Y-29796D02*
X20000Y-29685D01*
X19212Y-27891D02*
X19604Y-27500D01*
G54D35*
X22700Y-30396D02*
X22285Y-30396D01*
X22285Y-30396D02*
X21685Y-29796D01*
X21685Y-29796D02*
X21100Y-29796D01*
X24251Y-32107D02*
X25414Y-32107D01*
X25414Y-32107D02*
X25629Y-32322D01*
X23443Y-30629D02*
X23070Y-30629D01*
X23445Y-32107D02*
X24251Y-32107D01*
X23070Y-31732D02*
X23445Y-32107D01*
X23070Y-30629D02*
X22913Y-30787D01*
G54D33*
X21100Y-29796D02*
X21685Y-29796D01*
X23209Y-30396D02*
X23443Y-30629D01*
X22285Y-30396D02*
X23209Y-30396D01*
X21685Y-29796D02*
X22285Y-30396D01*
X26850Y-20296D02*
X27656Y-20296D01*
X27656Y-20296D02*
X27874Y-20078D01*
G54D32*
X19604Y-26700D02*
X19604Y-26120D01*
X19604Y-26120D02*
X19585Y-26102D01*
G54D33*
X23704Y-23000D02*
X23417Y-23000D01*
X23696Y-24758D02*
X23696Y-24900D01*
X23385Y-24448D02*
X23696Y-24758D01*
X23417Y-23000D02*
X23228Y-23188D01*
G54D36*
X25400Y-22400D02*
X25400Y-22395D01*
X27479Y-22007D02*
X27834Y-21653D01*
X25787Y-22007D02*
X26968Y-22007D01*
X26968Y-22007D02*
X27479Y-22007D01*
X25400Y-22395D02*
X25787Y-22007D01*
X27874Y-20078D02*
X27874Y-21613D01*
X27874Y-21613D02*
X27834Y-21653D01*
G54D32*
X23443Y-30629D02*
X23443Y-29921D01*
X23443Y-29921D02*
X23562Y-29803D01*
G54D33*
X25196Y-29100D02*
X25196Y-29684D01*
X25196Y-29684D02*
X25629Y-30118D01*
X26314Y-28976D02*
X25319Y-28976D01*
X25319Y-28976D02*
X25196Y-29100D01*
G54D37*
X25629Y-32322D02*
X25629Y-30118D01*
X27834Y-32322D02*
X25629Y-32322D01*
X28657Y-29606D02*
X28657Y-30633D01*
X28425Y-30748D02*
X27834Y-30118D01*
X28582Y-30748D02*
X28425Y-30748D01*
X28657Y-30633D02*
X28582Y-30748D01*
X29657Y-29606D02*
X29657Y-31248D01*
X28425Y-31692D02*
X27834Y-32322D01*
X29094Y-31692D02*
X28425Y-31692D01*
X29657Y-31248D02*
X29094Y-31692D01*
X27834Y-30118D02*
X25629Y-30118D01*
G54D32*
X19604Y-27004D02*
X19604Y-26700D01*
X19705Y-27105D02*
X19604Y-27004D01*
X19604Y-27500D02*
X19604Y-27206D01*
X19604Y-27206D02*
X19705Y-27105D01*
X21136Y-27105D02*
X19705Y-27105D01*
X23546Y-24900D02*
X24700Y-24900D01*
X23636Y-24990D02*
X23546Y-24900D01*
X23636Y-25786D02*
X23636Y-24990D01*
X24700Y-24900D02*
X25046Y-25246D01*
X25046Y-25246D02*
X25046Y-25650D01*
X24364Y-28286D02*
X24686Y-28286D01*
X24686Y-28286D02*
X25196Y-28796D01*
X25196Y-28796D02*
X25196Y-29100D01*
X21100Y-29796D02*
X21604Y-29796D01*
X21864Y-29536D02*
X21864Y-29500D01*
X21864Y-29500D02*
X21864Y-29014D01*
X21604Y-29796D02*
X21864Y-29536D01*
X20500Y-29796D02*
X21100Y-29796D01*
G54D36*
X21900Y-22400D02*
X21900Y-22946D01*
X21900Y-22946D02*
X21954Y-23000D01*
X23650Y-22400D02*
X23650Y-22946D01*
X23650Y-22946D02*
X23704Y-23000D01*
X25400Y-22400D02*
X25400Y-22946D01*
X25400Y-22946D02*
X25454Y-23000D01*
X23650Y-22400D02*
X23400Y-22400D01*
X22300Y-22000D02*
X21900Y-22400D01*
X23000Y-22000D02*
X22300Y-22000D01*
X23400Y-22400D02*
X23000Y-22000D01*
X25400Y-22400D02*
X25000Y-22000D01*
X24050Y-22000D02*
X23650Y-22400D01*
X25000Y-22000D02*
X24050Y-22000D01*
G54D35*
X24000Y-21600D02*
X24423Y-21600D01*
X24423Y-21600D02*
X24448Y-21574D01*
X22322Y-19330D02*
X22362Y-19330D01*
X19251Y-19330D02*
X22362Y-19330D01*
X22519Y-20632D02*
X23037Y-21150D01*
X22362Y-19330D02*
X22519Y-19488D01*
X22519Y-19488D02*
X22519Y-20632D01*
G54D36*
X22250Y-21600D02*
X22587Y-21600D01*
X22587Y-21600D02*
X23037Y-21150D01*
G54D32*
X23054Y-24900D02*
X23200Y-24900D01*
X23045Y-25245D02*
X23045Y-25786D01*
X23200Y-24900D02*
X23045Y-25245D01*
G54D35*
X23582Y-20795D02*
X23037Y-20250D01*
X23582Y-21496D02*
X23582Y-20795D01*
X23385Y-21692D02*
X23582Y-21496D01*
G54D36*
X23037Y-20250D02*
X23214Y-20250D01*
X23214Y-20250D02*
X23464Y-20000D01*
X23464Y-20000D02*
X25669Y-20000D01*
X25669Y-20000D02*
X26338Y-20669D01*
X25750Y-21257D02*
X25750Y-21600D01*
X26338Y-20669D02*
X25750Y-21257D01*
G54D37*
X26732Y-31220D02*
X28918Y-31220D01*
X28918Y-31220D02*
X29173Y-30965D01*
X29173Y-30373D02*
X29173Y-29622D01*
X29173Y-29622D02*
X29157Y-29606D01*
G54D32*
X19291Y-32913D02*
X20176Y-32913D01*
X18216Y-24500D02*
X17598Y-25118D01*
X17598Y-25118D02*
X17598Y-32637D01*
X17598Y-32637D02*
X17913Y-32952D01*
X17913Y-32952D02*
X19251Y-32952D01*
X19251Y-32952D02*
X19291Y-32913D01*
X18500Y-24500D02*
X18216Y-24500D01*
X20176Y-32913D02*
X20196Y-32933D01*
G54D35*
X21318Y-21220D02*
X21023Y-21220D01*
X19665Y-23917D02*
X19744Y-23917D01*
X19566Y-23818D02*
X19665Y-23917D01*
X20866Y-23937D02*
X19960Y-24842D01*
X20866Y-21377D02*
X20866Y-23937D01*
X21023Y-21220D02*
X20866Y-21377D01*
X18500Y-24500D02*
X19161Y-24500D01*
X19862Y-23798D02*
X19862Y-23188D01*
X19161Y-24500D02*
X19744Y-23917D01*
X19744Y-23917D02*
X19862Y-23798D01*
X21318Y-20236D02*
X20629Y-20236D01*
X20314Y-20551D02*
X20314Y-22204D01*
X20629Y-20236D02*
X20314Y-20551D01*
X19862Y-22204D02*
X20314Y-22204D01*
X18673Y-25500D02*
X18500Y-25500D01*
X20551Y-23622D02*
X18673Y-25500D01*
X20551Y-22440D02*
X20551Y-23622D01*
X20314Y-22204D02*
X20551Y-22440D01*
G54D10*
G36*
X19798Y-29463D02*
X19636Y-29395D01*
X19458Y-29395D01*
X19294Y-29463D01*
X19181Y-29576D01*
X19196Y-29500D01*
X19154Y-29289D01*
X19035Y-29111D01*
X18869Y-29000D01*
X19035Y-28888D01*
X19154Y-28710D01*
X19196Y-28500D01*
X19154Y-28289D01*
X19035Y-28111D01*
X18943Y-28049D01*
X18982Y-28049D01*
X19074Y-28011D01*
X19145Y-27941D01*
X19177Y-27864D01*
X19176Y-27952D01*
X19176Y-28346D01*
X19214Y-28438D01*
X19275Y-28498D01*
X19275Y-28816D01*
X19300Y-28942D01*
X19371Y-29049D01*
X19758Y-29436D01*
X19798Y-29463D01*
X19798Y-29463D01*
G37*
G54D34*
X19798Y-29463D02*
X19636Y-29395D01*
X19458Y-29395D01*
X19294Y-29463D01*
X19181Y-29576D01*
X19196Y-29500D01*
X19154Y-29289D01*
X19035Y-29111D01*
X18869Y-29000D01*
X19035Y-28888D01*
X19154Y-28710D01*
X19196Y-28500D01*
X19154Y-28289D01*
X19035Y-28111D01*
X18943Y-28049D01*
X18982Y-28049D01*
X19074Y-28011D01*
X19145Y-27941D01*
X19177Y-27864D01*
X19176Y-27952D01*
X19176Y-28346D01*
X19214Y-28438D01*
X19275Y-28498D01*
X19275Y-28816D01*
X19300Y-28942D01*
X19371Y-29049D01*
X19758Y-29436D01*
X19798Y-29463D01*
G54D10*
G36*
X21111Y-32962D02*
X21049Y-32962D01*
X21049Y-32963D01*
X20817Y-32963D01*
X20817Y-32970D01*
X20717Y-32970D01*
X20717Y-32963D01*
X20709Y-32963D01*
X20709Y-32863D01*
X20717Y-32863D01*
X20717Y-32855D01*
X20817Y-32855D01*
X20817Y-32863D01*
X21049Y-32863D01*
X21049Y-32899D01*
X21111Y-32962D01*
X21111Y-32962D01*
G37*
G54D34*
X21111Y-32962D02*
X21049Y-32962D01*
X21049Y-32963D01*
X20817Y-32963D01*
X20817Y-32970D01*
X20717Y-32970D01*
X20717Y-32963D01*
X20709Y-32963D01*
X20709Y-32863D01*
X20717Y-32863D01*
X20717Y-32855D01*
X20817Y-32855D01*
X20817Y-32863D01*
X21049Y-32863D01*
X21049Y-32899D01*
X21111Y-32962D01*
G54D10*
G36*
X21514Y-33062D02*
X21506Y-33062D01*
X21506Y-33070D01*
X21411Y-33070D01*
X21411Y-33025D01*
X21398Y-33013D01*
X21398Y-32962D01*
X21406Y-32962D01*
X21406Y-32954D01*
X21506Y-32954D01*
X21506Y-32962D01*
X21514Y-32962D01*
X21514Y-33062D01*
X21514Y-33062D01*
G37*
G54D34*
X21514Y-33062D02*
X21506Y-33062D01*
X21506Y-33070D01*
X21411Y-33070D01*
X21411Y-33025D01*
X21398Y-33013D01*
X21398Y-32962D01*
X21406Y-32962D01*
X21406Y-32954D01*
X21506Y-32954D01*
X21506Y-32962D01*
X21514Y-32962D01*
X21514Y-33062D01*
G54D10*
G36*
X22244Y-24090D02*
X21289Y-25045D01*
X21141Y-25045D01*
X21023Y-25068D01*
X20923Y-25135D01*
X20773Y-25285D01*
X20620Y-25222D01*
X20443Y-25222D01*
X20278Y-25290D01*
X20152Y-25415D01*
X20084Y-25580D01*
X20084Y-25655D01*
X19951Y-25655D01*
X19881Y-25684D01*
X19812Y-25655D01*
X19698Y-25655D01*
X19635Y-25717D01*
X19635Y-26052D01*
X19643Y-26052D01*
X19643Y-26152D01*
X19635Y-26152D01*
X19635Y-26486D01*
X19654Y-26504D01*
X19654Y-26650D01*
X19661Y-26650D01*
X19661Y-26750D01*
X19654Y-26750D01*
X19654Y-27084D01*
X19669Y-27100D01*
X19654Y-27115D01*
X19654Y-27450D01*
X19661Y-27450D01*
X19661Y-27550D01*
X19654Y-27550D01*
X19654Y-27557D01*
X19554Y-27557D01*
X19554Y-27550D01*
X19554Y-27450D01*
X19554Y-27115D01*
X19538Y-27100D01*
X19554Y-27084D01*
X19554Y-26750D01*
X19554Y-26650D01*
X19554Y-26315D01*
X19535Y-26297D01*
X19535Y-26152D01*
X19535Y-26052D01*
X19535Y-25717D01*
X19473Y-25655D01*
X19359Y-25655D01*
X19267Y-25693D01*
X19197Y-25763D01*
X19158Y-25855D01*
X19158Y-25954D01*
X19158Y-25989D01*
X19221Y-26052D01*
X19535Y-26052D01*
X19535Y-26152D01*
X19221Y-26152D01*
X19158Y-26214D01*
X19158Y-26249D01*
X19158Y-26349D01*
X19189Y-26422D01*
X19177Y-26453D01*
X19176Y-26552D01*
X19177Y-26587D01*
X19239Y-26650D01*
X19554Y-26650D01*
X19554Y-26750D01*
X19239Y-26750D01*
X19177Y-26812D01*
X19176Y-26847D01*
X19177Y-26946D01*
X19215Y-27038D01*
X19276Y-27100D01*
X19215Y-27161D01*
X19183Y-27238D01*
X19183Y-27150D01*
X19145Y-27058D01*
X19074Y-26988D01*
X18982Y-26950D01*
X18883Y-26949D01*
X18612Y-26950D01*
X18550Y-27012D01*
X18550Y-27450D01*
X19120Y-27450D01*
X19180Y-27390D01*
X19239Y-27450D01*
X19554Y-27450D01*
X19554Y-27550D01*
X19239Y-27550D01*
X19180Y-27609D01*
X19120Y-27550D01*
X18550Y-27550D01*
X18550Y-27557D01*
X18450Y-27557D01*
X18450Y-27550D01*
X18442Y-27550D01*
X18442Y-27450D01*
X18450Y-27450D01*
X18450Y-27012D01*
X18387Y-26950D01*
X18143Y-26949D01*
X18143Y-26703D01*
X18205Y-26678D01*
X18331Y-26552D01*
X18399Y-26388D01*
X18399Y-26210D01*
X18331Y-26046D01*
X18330Y-26045D01*
X18353Y-26050D01*
X18646Y-26050D01*
X18856Y-26008D01*
X19035Y-25888D01*
X19154Y-25710D01*
X19196Y-25500D01*
X19191Y-25474D01*
X19578Y-25087D01*
X19581Y-25095D01*
X19707Y-25221D01*
X19871Y-25289D01*
X20049Y-25289D01*
X20213Y-25221D01*
X20339Y-25095D01*
X20407Y-24931D01*
X20407Y-24888D01*
X21112Y-24183D01*
X21112Y-24183D01*
X21112Y-24183D01*
X21188Y-24070D01*
X21214Y-23937D01*
X21214Y-23937D01*
X21214Y-23937D01*
X21214Y-23823D01*
X21268Y-23769D01*
X21268Y-23238D01*
X21260Y-23238D01*
X21260Y-23138D01*
X21268Y-23138D01*
X21268Y-22785D01*
X21268Y-22607D01*
X21268Y-22254D01*
X21260Y-22254D01*
X21260Y-22154D01*
X21268Y-22154D01*
X21268Y-22146D01*
X21368Y-22146D01*
X21368Y-22154D01*
X21376Y-22154D01*
X21376Y-22254D01*
X21368Y-22254D01*
X21368Y-22607D01*
X21368Y-22785D01*
X21368Y-23138D01*
X21376Y-23138D01*
X21376Y-23238D01*
X21368Y-23238D01*
X21368Y-23769D01*
X21431Y-23832D01*
X21565Y-23832D01*
X21656Y-23794D01*
X21727Y-23724D01*
X21765Y-23632D01*
X21765Y-23532D01*
X21765Y-23447D01*
X21841Y-23447D01*
X21904Y-23384D01*
X21904Y-23050D01*
X21896Y-23050D01*
X21896Y-22950D01*
X21904Y-22950D01*
X21904Y-22942D01*
X22004Y-22942D01*
X22004Y-22950D01*
X22011Y-22950D01*
X22011Y-23050D01*
X22004Y-23050D01*
X22004Y-23384D01*
X22031Y-23412D01*
X22024Y-23418D01*
X21956Y-23583D01*
X21956Y-23760D01*
X22024Y-23925D01*
X22149Y-24051D01*
X22244Y-24090D01*
X22244Y-24090D01*
G37*
G54D34*
X22244Y-24090D02*
X21289Y-25045D01*
X21141Y-25045D01*
X21023Y-25068D01*
X20923Y-25135D01*
X20773Y-25285D01*
X20620Y-25222D01*
X20443Y-25222D01*
X20278Y-25290D01*
X20152Y-25415D01*
X20084Y-25580D01*
X20084Y-25655D01*
X19951Y-25655D01*
X19881Y-25684D01*
X19812Y-25655D01*
X19698Y-25655D01*
X19635Y-25717D01*
X19635Y-26052D01*
X19643Y-26052D01*
X19643Y-26152D01*
X19635Y-26152D01*
X19635Y-26486D01*
X19654Y-26504D01*
X19654Y-26650D01*
X19661Y-26650D01*
X19661Y-26750D01*
X19654Y-26750D01*
X19654Y-27084D01*
X19669Y-27100D01*
X19654Y-27115D01*
X19654Y-27450D01*
X19661Y-27450D01*
X19661Y-27550D01*
X19654Y-27550D01*
X19654Y-27557D01*
X19554Y-27557D01*
X19554Y-27550D01*
X19554Y-27450D01*
X19554Y-27115D01*
X19538Y-27100D01*
X19554Y-27084D01*
X19554Y-26750D01*
X19554Y-26650D01*
X19554Y-26315D01*
X19535Y-26297D01*
X19535Y-26152D01*
X19535Y-26052D01*
X19535Y-25717D01*
X19473Y-25655D01*
X19359Y-25655D01*
X19267Y-25693D01*
X19197Y-25763D01*
X19158Y-25855D01*
X19158Y-25954D01*
X19158Y-25989D01*
X19221Y-26052D01*
X19535Y-26052D01*
X19535Y-26152D01*
X19221Y-26152D01*
X19158Y-26214D01*
X19158Y-26249D01*
X19158Y-26349D01*
X19189Y-26422D01*
X19177Y-26453D01*
X19176Y-26552D01*
X19177Y-26587D01*
X19239Y-26650D01*
X19554Y-26650D01*
X19554Y-26750D01*
X19239Y-26750D01*
X19177Y-26812D01*
X19176Y-26847D01*
X19177Y-26946D01*
X19215Y-27038D01*
X19276Y-27100D01*
X19215Y-27161D01*
X19183Y-27238D01*
X19183Y-27150D01*
X19145Y-27058D01*
X19074Y-26988D01*
X18982Y-26950D01*
X18883Y-26949D01*
X18612Y-26950D01*
X18550Y-27012D01*
X18550Y-27450D01*
X19120Y-27450D01*
X19180Y-27390D01*
X19239Y-27450D01*
X19554Y-27450D01*
X19554Y-27550D01*
X19239Y-27550D01*
X19180Y-27609D01*
X19120Y-27550D01*
X18550Y-27550D01*
X18550Y-27557D01*
X18450Y-27557D01*
X18450Y-27550D01*
X18442Y-27550D01*
X18442Y-27450D01*
X18450Y-27450D01*
X18450Y-27012D01*
X18387Y-26950D01*
X18143Y-26949D01*
X18143Y-26703D01*
X18205Y-26678D01*
X18331Y-26552D01*
X18399Y-26388D01*
X18399Y-26210D01*
X18331Y-26046D01*
X18330Y-26045D01*
X18353Y-26050D01*
X18646Y-26050D01*
X18856Y-26008D01*
X19035Y-25888D01*
X19154Y-25710D01*
X19196Y-25500D01*
X19191Y-25474D01*
X19578Y-25087D01*
X19581Y-25095D01*
X19707Y-25221D01*
X19871Y-25289D01*
X20049Y-25289D01*
X20213Y-25221D01*
X20339Y-25095D01*
X20407Y-24931D01*
X20407Y-24888D01*
X21112Y-24183D01*
X21112Y-24183D01*
X21112Y-24183D01*
X21188Y-24070D01*
X21214Y-23937D01*
X21214Y-23937D01*
X21214Y-23937D01*
X21214Y-23823D01*
X21268Y-23769D01*
X21268Y-23238D01*
X21260Y-23238D01*
X21260Y-23138D01*
X21268Y-23138D01*
X21268Y-22785D01*
X21268Y-22607D01*
X21268Y-22254D01*
X21260Y-22254D01*
X21260Y-22154D01*
X21268Y-22154D01*
X21268Y-22146D01*
X21368Y-22146D01*
X21368Y-22154D01*
X21376Y-22154D01*
X21376Y-22254D01*
X21368Y-22254D01*
X21368Y-22607D01*
X21368Y-22785D01*
X21368Y-23138D01*
X21376Y-23138D01*
X21376Y-23238D01*
X21368Y-23238D01*
X21368Y-23769D01*
X21431Y-23832D01*
X21565Y-23832D01*
X21656Y-23794D01*
X21727Y-23724D01*
X21765Y-23632D01*
X21765Y-23532D01*
X21765Y-23447D01*
X21841Y-23447D01*
X21904Y-23384D01*
X21904Y-23050D01*
X21896Y-23050D01*
X21896Y-22950D01*
X21904Y-22950D01*
X21904Y-22942D01*
X22004Y-22942D01*
X22004Y-22950D01*
X22011Y-22950D01*
X22011Y-23050D01*
X22004Y-23050D01*
X22004Y-23384D01*
X22031Y-23412D01*
X22024Y-23418D01*
X21956Y-23583D01*
X21956Y-23760D01*
X22024Y-23925D01*
X22149Y-24051D01*
X22244Y-24090D01*
G54D10*
G36*
X22530Y-21136D02*
X22491Y-21174D01*
X22479Y-21170D01*
X22380Y-21169D01*
X22020Y-21169D01*
X21928Y-21207D01*
X21858Y-21278D01*
X21820Y-21370D01*
X21819Y-21469D01*
X21819Y-21829D01*
X21857Y-21921D01*
X21928Y-21991D01*
X21972Y-22010D01*
X21950Y-22032D01*
X21950Y-22350D01*
X21957Y-22350D01*
X21957Y-22450D01*
X21950Y-22450D01*
X21950Y-22457D01*
X21850Y-22457D01*
X21850Y-22450D01*
X21842Y-22450D01*
X21842Y-22350D01*
X21850Y-22350D01*
X21850Y-22032D01*
X21787Y-21970D01*
X21765Y-21969D01*
X21765Y-21860D01*
X21765Y-21761D01*
X21745Y-21712D01*
X21765Y-21663D01*
X21765Y-21564D01*
X21765Y-20777D01*
X21745Y-20728D01*
X21765Y-20679D01*
X21765Y-20580D01*
X21765Y-19793D01*
X21727Y-19701D01*
X21705Y-19679D01*
X22039Y-19679D01*
X22069Y-19709D01*
X22171Y-19751D01*
X22171Y-20632D01*
X22171Y-20632D01*
X22193Y-20743D01*
X22197Y-20765D01*
X22273Y-20878D01*
X22530Y-21136D01*
X22530Y-21136D01*
G37*
G54D34*
X22530Y-21136D02*
X22491Y-21174D01*
X22479Y-21170D01*
X22380Y-21169D01*
X22020Y-21169D01*
X21928Y-21207D01*
X21858Y-21278D01*
X21820Y-21370D01*
X21819Y-21469D01*
X21819Y-21829D01*
X21857Y-21921D01*
X21928Y-21991D01*
X21972Y-22010D01*
X21950Y-22032D01*
X21950Y-22350D01*
X21957Y-22350D01*
X21957Y-22450D01*
X21950Y-22450D01*
X21950Y-22457D01*
X21850Y-22457D01*
X21850Y-22450D01*
X21842Y-22450D01*
X21842Y-22350D01*
X21850Y-22350D01*
X21850Y-22032D01*
X21787Y-21970D01*
X21765Y-21969D01*
X21765Y-21860D01*
X21765Y-21761D01*
X21745Y-21712D01*
X21765Y-21663D01*
X21765Y-21564D01*
X21765Y-20777D01*
X21745Y-20728D01*
X21765Y-20679D01*
X21765Y-20580D01*
X21765Y-19793D01*
X21727Y-19701D01*
X21705Y-19679D01*
X22039Y-19679D01*
X22069Y-19709D01*
X22171Y-19751D01*
X22171Y-20632D01*
X22171Y-20632D01*
X22193Y-20743D01*
X22197Y-20765D01*
X22273Y-20878D01*
X22530Y-21136D01*
G54D10*
G36*
X22937Y-30822D02*
X22937Y-30852D01*
X22650Y-30852D01*
X22650Y-30760D01*
X22650Y-30446D01*
X22315Y-30446D01*
X22253Y-30508D01*
X22252Y-30622D01*
X22290Y-30714D01*
X22361Y-30784D01*
X22453Y-30822D01*
X22552Y-30823D01*
X22587Y-30823D01*
X22650Y-30760D01*
X22650Y-30852D01*
X22461Y-30852D01*
X22362Y-30832D01*
X22228Y-30859D01*
X22116Y-30934D01*
X21908Y-30632D01*
X21887Y-30612D01*
X21872Y-30588D01*
X21845Y-30570D01*
X21821Y-30547D01*
X21795Y-30537D01*
X21771Y-30521D01*
X21739Y-30515D01*
X21709Y-30503D01*
X21681Y-30503D01*
X21653Y-30498D01*
X21547Y-30498D01*
X21547Y-30022D01*
X21547Y-29908D01*
X21484Y-29846D01*
X21150Y-29846D01*
X21150Y-30160D01*
X21212Y-30223D01*
X21247Y-30223D01*
X21346Y-30222D01*
X21438Y-30184D01*
X21509Y-30114D01*
X21547Y-30022D01*
X21547Y-30498D01*
X21050Y-30498D01*
X21050Y-30160D01*
X21050Y-29846D01*
X20884Y-29846D01*
X20715Y-29846D01*
X20550Y-29846D01*
X20550Y-30160D01*
X20612Y-30223D01*
X20647Y-30223D01*
X20746Y-30222D01*
X20800Y-30200D01*
X20853Y-30222D01*
X20952Y-30223D01*
X20987Y-30223D01*
X21050Y-30160D01*
X21050Y-30498D01*
X20787Y-30498D01*
X20462Y-30320D01*
X20364Y-30223D01*
X20387Y-30223D01*
X20450Y-30160D01*
X20450Y-29846D01*
X20115Y-29846D01*
X20053Y-29908D01*
X20052Y-29911D01*
X19994Y-29852D01*
X19994Y-29754D01*
X19926Y-29589D01*
X19801Y-29465D01*
X19865Y-29507D01*
X19865Y-29507D01*
X19991Y-29532D01*
X20000Y-29532D01*
X20068Y-29532D01*
X20052Y-29569D01*
X20053Y-29683D01*
X20115Y-29746D01*
X20450Y-29746D01*
X20450Y-29738D01*
X20550Y-29738D01*
X20550Y-29746D01*
X20715Y-29746D01*
X20884Y-29746D01*
X21050Y-29746D01*
X21050Y-29738D01*
X21150Y-29738D01*
X21150Y-29746D01*
X21484Y-29746D01*
X21547Y-29683D01*
X21547Y-29569D01*
X21520Y-29504D01*
X21520Y-29504D01*
X21558Y-29519D01*
X21657Y-29520D01*
X21775Y-29520D01*
X21775Y-29520D01*
X21772Y-29520D01*
X21772Y-29519D01*
X21775Y-29519D01*
X21864Y-29483D01*
X21952Y-29519D01*
X21955Y-29519D01*
X21955Y-29519D01*
X21962Y-29519D01*
X22051Y-29520D01*
X22158Y-29520D01*
X22169Y-29573D01*
X22236Y-29673D01*
X22252Y-29690D01*
X22252Y-30030D01*
X22281Y-30100D01*
X22252Y-30169D01*
X22253Y-30283D01*
X22315Y-30346D01*
X22650Y-30346D01*
X22650Y-30338D01*
X22750Y-30338D01*
X22750Y-30346D01*
X22757Y-30346D01*
X22757Y-30446D01*
X22750Y-30446D01*
X22750Y-30760D01*
X22812Y-30823D01*
X22847Y-30823D01*
X22937Y-30822D01*
X22937Y-30822D01*
G37*
G54D34*
X22937Y-30822D02*
X22937Y-30852D01*
X22650Y-30852D01*
X22650Y-30760D01*
X22650Y-30446D01*
X22315Y-30446D01*
X22253Y-30508D01*
X22252Y-30622D01*
X22290Y-30714D01*
X22361Y-30784D01*
X22453Y-30822D01*
X22552Y-30823D01*
X22587Y-30823D01*
X22650Y-30760D01*
X22650Y-30852D01*
X22461Y-30852D01*
X22362Y-30832D01*
X22228Y-30859D01*
X22116Y-30934D01*
X21908Y-30632D01*
X21887Y-30612D01*
X21872Y-30588D01*
X21845Y-30570D01*
X21821Y-30547D01*
X21795Y-30537D01*
X21771Y-30521D01*
X21739Y-30515D01*
X21709Y-30503D01*
X21681Y-30503D01*
X21653Y-30498D01*
X21547Y-30498D01*
X21547Y-30022D01*
X21547Y-29908D01*
X21484Y-29846D01*
X21150Y-29846D01*
X21150Y-30160D01*
X21212Y-30223D01*
X21247Y-30223D01*
X21346Y-30222D01*
X21438Y-30184D01*
X21509Y-30114D01*
X21547Y-30022D01*
X21547Y-30498D01*
X21050Y-30498D01*
X21050Y-30160D01*
X21050Y-29846D01*
X20884Y-29846D01*
X20715Y-29846D01*
X20550Y-29846D01*
X20550Y-30160D01*
X20612Y-30223D01*
X20647Y-30223D01*
X20746Y-30222D01*
X20800Y-30200D01*
X20853Y-30222D01*
X20952Y-30223D01*
X20987Y-30223D01*
X21050Y-30160D01*
X21050Y-30498D01*
X20787Y-30498D01*
X20462Y-30320D01*
X20364Y-30223D01*
X20387Y-30223D01*
X20450Y-30160D01*
X20450Y-29846D01*
X20115Y-29846D01*
X20053Y-29908D01*
X20052Y-29911D01*
X19994Y-29852D01*
X19994Y-29754D01*
X19926Y-29589D01*
X19801Y-29465D01*
X19865Y-29507D01*
X19865Y-29507D01*
X19991Y-29532D01*
X20000Y-29532D01*
X20068Y-29532D01*
X20052Y-29569D01*
X20053Y-29683D01*
X20115Y-29746D01*
X20450Y-29746D01*
X20450Y-29738D01*
X20550Y-29738D01*
X20550Y-29746D01*
X20715Y-29746D01*
X20884Y-29746D01*
X21050Y-29746D01*
X21050Y-29738D01*
X21150Y-29738D01*
X21150Y-29746D01*
X21484Y-29746D01*
X21547Y-29683D01*
X21547Y-29569D01*
X21520Y-29504D01*
X21520Y-29504D01*
X21558Y-29519D01*
X21657Y-29520D01*
X21775Y-29520D01*
X21775Y-29520D01*
X21772Y-29520D01*
X21772Y-29519D01*
X21775Y-29519D01*
X21864Y-29483D01*
X21952Y-29519D01*
X21955Y-29519D01*
X21955Y-29519D01*
X21962Y-29519D01*
X22051Y-29520D01*
X22158Y-29520D01*
X22169Y-29573D01*
X22236Y-29673D01*
X22252Y-29690D01*
X22252Y-30030D01*
X22281Y-30100D01*
X22252Y-30169D01*
X22253Y-30283D01*
X22315Y-30346D01*
X22650Y-30346D01*
X22650Y-30338D01*
X22750Y-30338D01*
X22750Y-30346D01*
X22757Y-30346D01*
X22757Y-30446D01*
X22750Y-30446D01*
X22750Y-30760D01*
X22812Y-30823D01*
X22847Y-30823D01*
X22937Y-30822D01*
G54D10*
G36*
X23322Y-33185D02*
X21862Y-33185D01*
X21864Y-33179D01*
X21864Y-33124D01*
X21801Y-33062D01*
X21864Y-33062D01*
X21864Y-33061D01*
X21918Y-33084D01*
X22096Y-33084D01*
X22260Y-33016D01*
X22386Y-32891D01*
X22454Y-32727D01*
X22454Y-32549D01*
X22386Y-32385D01*
X22261Y-32259D01*
X22241Y-32250D01*
X22305Y-32187D01*
X22312Y-32175D01*
X23322Y-33185D01*
X23322Y-33185D01*
G37*
G54D34*
X23322Y-33185D02*
X21862Y-33185D01*
X21864Y-33179D01*
X21864Y-33124D01*
X21801Y-33062D01*
X21864Y-33062D01*
X21864Y-33061D01*
X21918Y-33084D01*
X22096Y-33084D01*
X22260Y-33016D01*
X22386Y-32891D01*
X22454Y-32727D01*
X22454Y-32549D01*
X22386Y-32385D01*
X22261Y-32259D01*
X22241Y-32250D01*
X22305Y-32187D01*
X22312Y-32175D01*
X23322Y-33185D01*
G54D10*
G36*
X23501Y-30679D02*
X23493Y-30679D01*
X23493Y-30687D01*
X23393Y-30687D01*
X23393Y-30679D01*
X23386Y-30679D01*
X23386Y-30579D01*
X23393Y-30579D01*
X23393Y-30572D01*
X23493Y-30572D01*
X23493Y-30579D01*
X23501Y-30579D01*
X23501Y-30679D01*
X23501Y-30679D01*
G37*
G54D34*
X23501Y-30679D02*
X23493Y-30679D01*
X23493Y-30687D01*
X23393Y-30687D01*
X23393Y-30679D01*
X23386Y-30679D01*
X23386Y-30579D01*
X23393Y-30579D01*
X23393Y-30572D01*
X23493Y-30572D01*
X23493Y-30579D01*
X23501Y-30579D01*
X23501Y-30679D01*
G54D10*
G36*
X23620Y-29853D02*
X23612Y-29853D01*
X23612Y-29861D01*
X23512Y-29861D01*
X23512Y-29853D01*
X23504Y-29853D01*
X23504Y-29753D01*
X23512Y-29753D01*
X23512Y-29745D01*
X23612Y-29745D01*
X23612Y-29753D01*
X23620Y-29753D01*
X23620Y-29853D01*
X23620Y-29853D01*
G37*
G54D34*
X23620Y-29853D02*
X23612Y-29853D01*
X23612Y-29861D01*
X23512Y-29861D01*
X23512Y-29853D01*
X23504Y-29853D01*
X23504Y-29753D01*
X23512Y-29753D01*
X23512Y-29745D01*
X23612Y-29745D01*
X23612Y-29753D01*
X23620Y-29753D01*
X23620Y-29853D01*
G54D10*
G36*
X23761Y-23050D02*
X23754Y-23050D01*
X23754Y-23057D01*
X23654Y-23057D01*
X23654Y-23050D01*
X23339Y-23050D01*
X23277Y-23112D01*
X23276Y-23147D01*
X23277Y-23234D01*
X23228Y-23234D01*
X23110Y-23257D01*
X23009Y-23324D01*
X22821Y-23513D01*
X22790Y-23439D01*
X22864Y-23409D01*
X22934Y-23338D01*
X22972Y-23246D01*
X22973Y-23147D01*
X22973Y-22753D01*
X22969Y-22744D01*
X22991Y-22721D01*
X23029Y-22629D01*
X23030Y-22530D01*
X23030Y-22170D01*
X22992Y-22078D01*
X22921Y-22008D01*
X22829Y-21970D01*
X22730Y-21969D01*
X22593Y-21969D01*
X22597Y-21966D01*
X22728Y-21940D01*
X22847Y-21860D01*
X22938Y-21769D01*
X22938Y-21781D01*
X23006Y-21945D01*
X23132Y-22071D01*
X23242Y-22117D01*
X23220Y-22170D01*
X23219Y-22269D01*
X23220Y-22287D01*
X23282Y-22350D01*
X23600Y-22350D01*
X23600Y-22342D01*
X23700Y-22342D01*
X23700Y-22350D01*
X23707Y-22350D01*
X23707Y-22450D01*
X23700Y-22450D01*
X23700Y-22457D01*
X23600Y-22457D01*
X23600Y-22450D01*
X23282Y-22450D01*
X23220Y-22512D01*
X23219Y-22530D01*
X23220Y-22629D01*
X23258Y-22721D01*
X23280Y-22744D01*
X23277Y-22753D01*
X23276Y-22852D01*
X23277Y-22887D01*
X23339Y-22950D01*
X23654Y-22950D01*
X23654Y-22942D01*
X23754Y-22942D01*
X23754Y-22950D01*
X23761Y-22950D01*
X23761Y-23050D01*
X23761Y-23050D01*
G37*
G54D34*
X23761Y-23050D02*
X23754Y-23050D01*
X23754Y-23057D01*
X23654Y-23057D01*
X23654Y-23050D01*
X23339Y-23050D01*
X23277Y-23112D01*
X23276Y-23147D01*
X23277Y-23234D01*
X23228Y-23234D01*
X23110Y-23257D01*
X23009Y-23324D01*
X22821Y-23513D01*
X22790Y-23439D01*
X22864Y-23409D01*
X22934Y-23338D01*
X22972Y-23246D01*
X22973Y-23147D01*
X22973Y-22753D01*
X22969Y-22744D01*
X22991Y-22721D01*
X23029Y-22629D01*
X23030Y-22530D01*
X23030Y-22170D01*
X22992Y-22078D01*
X22921Y-22008D01*
X22829Y-21970D01*
X22730Y-21969D01*
X22593Y-21969D01*
X22597Y-21966D01*
X22728Y-21940D01*
X22847Y-21860D01*
X22938Y-21769D01*
X22938Y-21781D01*
X23006Y-21945D01*
X23132Y-22071D01*
X23242Y-22117D01*
X23220Y-22170D01*
X23219Y-22269D01*
X23220Y-22287D01*
X23282Y-22350D01*
X23600Y-22350D01*
X23600Y-22342D01*
X23700Y-22342D01*
X23700Y-22350D01*
X23707Y-22350D01*
X23707Y-22450D01*
X23700Y-22450D01*
X23700Y-22457D01*
X23600Y-22457D01*
X23600Y-22450D01*
X23282Y-22450D01*
X23220Y-22512D01*
X23219Y-22530D01*
X23220Y-22629D01*
X23258Y-22721D01*
X23280Y-22744D01*
X23277Y-22753D01*
X23276Y-22852D01*
X23277Y-22887D01*
X23339Y-22950D01*
X23654Y-22950D01*
X23654Y-22942D01*
X23754Y-22942D01*
X23754Y-22950D01*
X23761Y-22950D01*
X23761Y-23050D01*
G54D10*
G36*
X25202Y-26328D02*
X24932Y-26598D01*
X24869Y-26598D01*
X24870Y-26523D01*
X24870Y-26405D01*
X24869Y-26405D01*
X24870Y-26326D01*
X24870Y-26208D01*
X24832Y-26116D01*
X24807Y-26092D01*
X24819Y-26097D01*
X24933Y-26097D01*
X24996Y-26034D01*
X24996Y-25700D01*
X24988Y-25700D01*
X24988Y-25600D01*
X24996Y-25600D01*
X24996Y-25592D01*
X25096Y-25592D01*
X25096Y-25600D01*
X25103Y-25600D01*
X25103Y-25700D01*
X25096Y-25700D01*
X25096Y-26034D01*
X25158Y-26097D01*
X25202Y-26097D01*
X25202Y-26328D01*
X25202Y-26328D01*
G37*
G54D34*
X25202Y-26328D02*
X24932Y-26598D01*
X24869Y-26598D01*
X24870Y-26523D01*
X24870Y-26405D01*
X24869Y-26405D01*
X24870Y-26326D01*
X24870Y-26208D01*
X24832Y-26116D01*
X24807Y-26092D01*
X24819Y-26097D01*
X24933Y-26097D01*
X24996Y-26034D01*
X24996Y-25700D01*
X24988Y-25700D01*
X24988Y-25600D01*
X24996Y-25600D01*
X24996Y-25592D01*
X25096Y-25592D01*
X25096Y-25600D01*
X25103Y-25600D01*
X25103Y-25700D01*
X25096Y-25700D01*
X25096Y-26034D01*
X25158Y-26097D01*
X25202Y-26097D01*
X25202Y-26328D01*
G54D10*
G36*
X25511Y-23050D02*
X25504Y-23050D01*
X25504Y-23057D01*
X25404Y-23057D01*
X25404Y-23050D01*
X25089Y-23050D01*
X25027Y-23112D01*
X25026Y-23147D01*
X25027Y-23246D01*
X25065Y-23338D01*
X25135Y-23409D01*
X25227Y-23447D01*
X25251Y-23447D01*
X25228Y-23470D01*
X24587Y-23470D01*
X24598Y-23415D01*
X24614Y-23409D01*
X24684Y-23338D01*
X24722Y-23246D01*
X24723Y-23147D01*
X24723Y-22753D01*
X24719Y-22744D01*
X24741Y-22721D01*
X24779Y-22629D01*
X24780Y-22530D01*
X24780Y-22170D01*
X24742Y-22078D01*
X24671Y-22008D01*
X24621Y-21987D01*
X24701Y-21953D01*
X24822Y-21832D01*
X24864Y-21874D01*
X25028Y-21942D01*
X25206Y-21942D01*
X25343Y-21886D01*
X25357Y-21921D01*
X25428Y-21991D01*
X25472Y-22010D01*
X25450Y-22032D01*
X25450Y-22350D01*
X25457Y-22350D01*
X25457Y-22450D01*
X25450Y-22450D01*
X25450Y-22457D01*
X25350Y-22457D01*
X25350Y-22450D01*
X25350Y-22350D01*
X25350Y-22032D01*
X25287Y-21970D01*
X25170Y-21969D01*
X25078Y-22007D01*
X25008Y-22078D01*
X24970Y-22170D01*
X24969Y-22269D01*
X24970Y-22287D01*
X25032Y-22350D01*
X25350Y-22350D01*
X25350Y-22450D01*
X25032Y-22450D01*
X24970Y-22512D01*
X24969Y-22530D01*
X24970Y-22629D01*
X25008Y-22721D01*
X25030Y-22744D01*
X25027Y-22753D01*
X25026Y-22852D01*
X25027Y-22887D01*
X25089Y-22950D01*
X25404Y-22950D01*
X25404Y-22942D01*
X25504Y-22942D01*
X25504Y-22950D01*
X25511Y-22950D01*
X25511Y-23050D01*
X25511Y-23050D01*
G37*
G54D34*
X25511Y-23050D02*
X25504Y-23050D01*
X25504Y-23057D01*
X25404Y-23057D01*
X25404Y-23050D01*
X25089Y-23050D01*
X25027Y-23112D01*
X25026Y-23147D01*
X25027Y-23246D01*
X25065Y-23338D01*
X25135Y-23409D01*
X25227Y-23447D01*
X25251Y-23447D01*
X25228Y-23470D01*
X24587Y-23470D01*
X24598Y-23415D01*
X24614Y-23409D01*
X24684Y-23338D01*
X24722Y-23246D01*
X24723Y-23147D01*
X24723Y-22753D01*
X24719Y-22744D01*
X24741Y-22721D01*
X24779Y-22629D01*
X24780Y-22530D01*
X24780Y-22170D01*
X24742Y-22078D01*
X24671Y-22008D01*
X24621Y-21987D01*
X24701Y-21953D01*
X24822Y-21832D01*
X24864Y-21874D01*
X25028Y-21942D01*
X25206Y-21942D01*
X25343Y-21886D01*
X25357Y-21921D01*
X25428Y-21991D01*
X25472Y-22010D01*
X25450Y-22032D01*
X25450Y-22350D01*
X25457Y-22350D01*
X25457Y-22450D01*
X25450Y-22450D01*
X25450Y-22457D01*
X25350Y-22457D01*
X25350Y-22450D01*
X25350Y-22350D01*
X25350Y-22032D01*
X25287Y-21970D01*
X25170Y-21969D01*
X25078Y-22007D01*
X25008Y-22078D01*
X24970Y-22170D01*
X24969Y-22269D01*
X24970Y-22287D01*
X25032Y-22350D01*
X25350Y-22350D01*
X25350Y-22450D01*
X25032Y-22450D01*
X24970Y-22512D01*
X24969Y-22530D01*
X24970Y-22629D01*
X25008Y-22721D01*
X25030Y-22744D01*
X25027Y-22753D01*
X25026Y-22852D01*
X25027Y-22887D01*
X25089Y-22950D01*
X25404Y-22950D01*
X25404Y-22942D01*
X25504Y-22942D01*
X25504Y-22950D01*
X25511Y-22950D01*
X25511Y-23050D01*
G54D10*
G36*
X25681Y-24400D02*
X25616Y-24556D01*
X25616Y-24734D01*
X25647Y-24809D01*
X25590Y-24809D01*
X25491Y-24828D01*
X25344Y-24828D01*
X25180Y-24896D01*
X25054Y-25022D01*
X24986Y-25186D01*
X24986Y-25255D01*
X24933Y-25203D01*
X24819Y-25202D01*
X24749Y-25231D01*
X24680Y-25203D01*
X24581Y-25202D01*
X24227Y-25202D01*
X24135Y-25240D01*
X24065Y-25311D01*
X24053Y-25338D01*
X24033Y-25318D01*
X24013Y-25309D01*
X24014Y-25309D01*
X24084Y-25238D01*
X24122Y-25146D01*
X24123Y-25047D01*
X24123Y-24752D01*
X24122Y-24653D01*
X24084Y-24561D01*
X24014Y-24490D01*
X23922Y-24452D01*
X23808Y-24453D01*
X23746Y-24515D01*
X23746Y-24850D01*
X24060Y-24850D01*
X24123Y-24787D01*
X24123Y-24752D01*
X24123Y-25047D01*
X24123Y-25012D01*
X24060Y-24950D01*
X23746Y-24950D01*
X23746Y-24957D01*
X23646Y-24957D01*
X23646Y-24950D01*
X23638Y-24950D01*
X23638Y-24850D01*
X23646Y-24850D01*
X23646Y-24515D01*
X23583Y-24453D01*
X23469Y-24452D01*
X23399Y-24481D01*
X23330Y-24453D01*
X23271Y-24452D01*
X23324Y-24400D01*
X25681Y-24400D01*
X25681Y-24400D01*
G37*
G54D34*
X25681Y-24400D02*
X25616Y-24556D01*
X25616Y-24734D01*
X25647Y-24809D01*
X25590Y-24809D01*
X25491Y-24828D01*
X25344Y-24828D01*
X25180Y-24896D01*
X25054Y-25022D01*
X24986Y-25186D01*
X24986Y-25255D01*
X24933Y-25203D01*
X24819Y-25202D01*
X24749Y-25231D01*
X24680Y-25203D01*
X24581Y-25202D01*
X24227Y-25202D01*
X24135Y-25240D01*
X24065Y-25311D01*
X24053Y-25338D01*
X24033Y-25318D01*
X24013Y-25309D01*
X24014Y-25309D01*
X24084Y-25238D01*
X24122Y-25146D01*
X24123Y-25047D01*
X24123Y-24752D01*
X24122Y-24653D01*
X24084Y-24561D01*
X24014Y-24490D01*
X23922Y-24452D01*
X23808Y-24453D01*
X23746Y-24515D01*
X23746Y-24850D01*
X24060Y-24850D01*
X24123Y-24787D01*
X24123Y-24752D01*
X24123Y-25047D01*
X24123Y-25012D01*
X24060Y-24950D01*
X23746Y-24950D01*
X23746Y-24957D01*
X23646Y-24957D01*
X23646Y-24950D01*
X23638Y-24950D01*
X23638Y-24850D01*
X23646Y-24850D01*
X23646Y-24515D01*
X23583Y-24453D01*
X23469Y-24452D01*
X23399Y-24481D01*
X23330Y-24453D01*
X23271Y-24452D01*
X23324Y-24400D01*
X25681Y-24400D01*
G54D10*
G36*
X29467Y-19802D02*
X29404Y-19866D01*
X29400Y-19876D01*
X29395Y-19866D01*
X29325Y-19795D01*
X29233Y-19757D01*
X28912Y-19758D01*
X28850Y-19820D01*
X28850Y-20450D01*
X28857Y-20450D01*
X28857Y-20550D01*
X28850Y-20550D01*
X28850Y-20557D01*
X28750Y-20557D01*
X28750Y-20550D01*
X28750Y-20450D01*
X28750Y-19820D01*
X28687Y-19758D01*
X28366Y-19757D01*
X28274Y-19795D01*
X28204Y-19866D01*
X28166Y-19958D01*
X28165Y-20057D01*
X28166Y-20387D01*
X28228Y-20450D01*
X28750Y-20450D01*
X28750Y-20550D01*
X28228Y-20550D01*
X28166Y-20612D01*
X28165Y-20942D01*
X28166Y-21041D01*
X28175Y-21063D01*
X28139Y-21049D01*
X27946Y-21049D01*
X27884Y-21111D01*
X27884Y-21603D01*
X27892Y-21603D01*
X27892Y-21703D01*
X27884Y-21703D01*
X27884Y-21711D01*
X27784Y-21711D01*
X27784Y-21703D01*
X27784Y-21603D01*
X27784Y-21111D01*
X27721Y-21049D01*
X27528Y-21049D01*
X27436Y-21087D01*
X27366Y-21157D01*
X27328Y-21249D01*
X27328Y-21348D01*
X27328Y-21541D01*
X27390Y-21603D01*
X27784Y-21603D01*
X27784Y-21703D01*
X27390Y-21703D01*
X27328Y-21766D01*
X27328Y-21958D01*
X27328Y-22058D01*
X27350Y-22112D01*
X27297Y-22112D01*
X27297Y-20522D01*
X27297Y-20408D01*
X27234Y-20346D01*
X26900Y-20346D01*
X26900Y-20660D01*
X26962Y-20723D01*
X26997Y-20723D01*
X27097Y-20722D01*
X27189Y-20684D01*
X27259Y-20614D01*
X27297Y-20522D01*
X27297Y-22112D01*
X27061Y-22112D01*
X26963Y-22210D01*
X26879Y-22210D01*
X26805Y-22210D01*
X26742Y-22273D01*
X26742Y-22577D01*
X26750Y-22577D01*
X26750Y-22677D01*
X26742Y-22677D01*
X26742Y-22982D01*
X26805Y-23045D01*
X26836Y-23045D01*
X26836Y-23411D01*
X26407Y-23411D01*
X26346Y-23436D01*
X26346Y-23416D01*
X26364Y-23409D01*
X26434Y-23338D01*
X26472Y-23246D01*
X26473Y-23147D01*
X26473Y-23045D01*
X26506Y-23045D01*
X26580Y-23045D01*
X26642Y-22982D01*
X26642Y-22677D01*
X26635Y-22677D01*
X26635Y-22577D01*
X26642Y-22577D01*
X26642Y-22273D01*
X26580Y-22210D01*
X26530Y-22210D01*
X26530Y-22170D01*
X26492Y-22078D01*
X26421Y-22008D01*
X26329Y-21970D01*
X26230Y-21969D01*
X26093Y-21969D01*
X26141Y-21921D01*
X26179Y-21829D01*
X26180Y-21730D01*
X26180Y-21370D01*
X26173Y-21354D01*
X26412Y-21116D01*
X26427Y-21116D01*
X26591Y-21048D01*
X26717Y-20922D01*
X26785Y-20758D01*
X26785Y-20675D01*
X26800Y-20660D01*
X26800Y-20346D01*
X26792Y-20346D01*
X26792Y-20246D01*
X26800Y-20246D01*
X26800Y-20238D01*
X26900Y-20238D01*
X26900Y-20246D01*
X27234Y-20246D01*
X27297Y-20183D01*
X27297Y-20069D01*
X27268Y-19999D01*
X27297Y-19930D01*
X27297Y-19831D01*
X27297Y-19521D01*
X29186Y-19521D01*
X29467Y-19802D01*
X29467Y-19802D01*
G37*
G54D34*
X29467Y-19802D02*
X29404Y-19866D01*
X29400Y-19876D01*
X29395Y-19866D01*
X29325Y-19795D01*
X29233Y-19757D01*
X28912Y-19758D01*
X28850Y-19820D01*
X28850Y-20450D01*
X28857Y-20450D01*
X28857Y-20550D01*
X28850Y-20550D01*
X28850Y-20557D01*
X28750Y-20557D01*
X28750Y-20550D01*
X28750Y-20450D01*
X28750Y-19820D01*
X28687Y-19758D01*
X28366Y-19757D01*
X28274Y-19795D01*
X28204Y-19866D01*
X28166Y-19958D01*
X28165Y-20057D01*
X28166Y-20387D01*
X28228Y-20450D01*
X28750Y-20450D01*
X28750Y-20550D01*
X28228Y-20550D01*
X28166Y-20612D01*
X28165Y-20942D01*
X28166Y-21041D01*
X28175Y-21063D01*
X28139Y-21049D01*
X27946Y-21049D01*
X27884Y-21111D01*
X27884Y-21603D01*
X27892Y-21603D01*
X27892Y-21703D01*
X27884Y-21703D01*
X27884Y-21711D01*
X27784Y-21711D01*
X27784Y-21703D01*
X27784Y-21603D01*
X27784Y-21111D01*
X27721Y-21049D01*
X27528Y-21049D01*
X27436Y-21087D01*
X27366Y-21157D01*
X27328Y-21249D01*
X27328Y-21348D01*
X27328Y-21541D01*
X27390Y-21603D01*
X27784Y-21603D01*
X27784Y-21703D01*
X27390Y-21703D01*
X27328Y-21766D01*
X27328Y-21958D01*
X27328Y-22058D01*
X27350Y-22112D01*
X27297Y-22112D01*
X27297Y-20522D01*
X27297Y-20408D01*
X27234Y-20346D01*
X26900Y-20346D01*
X26900Y-20660D01*
X26962Y-20723D01*
X26997Y-20723D01*
X27097Y-20722D01*
X27189Y-20684D01*
X27259Y-20614D01*
X27297Y-20522D01*
X27297Y-22112D01*
X27061Y-22112D01*
X26963Y-22210D01*
X26879Y-22210D01*
X26805Y-22210D01*
X26742Y-22273D01*
X26742Y-22577D01*
X26750Y-22577D01*
X26750Y-22677D01*
X26742Y-22677D01*
X26742Y-22982D01*
X26805Y-23045D01*
X26836Y-23045D01*
X26836Y-23411D01*
X26407Y-23411D01*
X26346Y-23436D01*
X26346Y-23416D01*
X26364Y-23409D01*
X26434Y-23338D01*
X26472Y-23246D01*
X26473Y-23147D01*
X26473Y-23045D01*
X26506Y-23045D01*
X26580Y-23045D01*
X26642Y-22982D01*
X26642Y-22677D01*
X26635Y-22677D01*
X26635Y-22577D01*
X26642Y-22577D01*
X26642Y-22273D01*
X26580Y-22210D01*
X26530Y-22210D01*
X26530Y-22170D01*
X26492Y-22078D01*
X26421Y-22008D01*
X26329Y-21970D01*
X26230Y-21969D01*
X26093Y-21969D01*
X26141Y-21921D01*
X26179Y-21829D01*
X26180Y-21730D01*
X26180Y-21370D01*
X26173Y-21354D01*
X26412Y-21116D01*
X26427Y-21116D01*
X26591Y-21048D01*
X26717Y-20922D01*
X26785Y-20758D01*
X26785Y-20675D01*
X26800Y-20660D01*
X26800Y-20346D01*
X26792Y-20346D01*
X26792Y-20246D01*
X26800Y-20246D01*
X26800Y-20238D01*
X26900Y-20238D01*
X26900Y-20246D01*
X27234Y-20246D01*
X27297Y-20183D01*
X27297Y-20069D01*
X27268Y-19999D01*
X27297Y-19930D01*
X27297Y-19831D01*
X27297Y-19521D01*
X29186Y-19521D01*
X29467Y-19802D01*
G54D10*
G36*
X30822Y-33185D02*
X29197Y-33185D01*
X30561Y-31821D01*
X30561Y-31821D01*
X30561Y-31821D01*
X30636Y-31708D01*
X30663Y-31574D01*
X30663Y-31574D01*
X30663Y-31574D01*
X30663Y-30834D01*
X30693Y-30804D01*
X30761Y-30640D01*
X30761Y-30462D01*
X30694Y-30298D01*
X30568Y-30172D01*
X30404Y-30104D01*
X30226Y-30104D01*
X30062Y-30172D01*
X30045Y-30188D01*
X30045Y-30088D01*
X30045Y-29718D01*
X29982Y-29656D01*
X29707Y-29656D01*
X29707Y-30226D01*
X29769Y-30289D01*
X29745Y-30289D01*
X29845Y-30289D01*
X29937Y-30251D01*
X30007Y-30180D01*
X30045Y-30088D01*
X30045Y-30188D01*
X29936Y-30297D01*
X29868Y-30461D01*
X29868Y-30639D01*
X29935Y-30803D01*
X29966Y-30834D01*
X29966Y-31430D01*
X28753Y-32643D01*
X28478Y-32643D01*
X28478Y-31978D01*
X28478Y-31879D01*
X28440Y-31787D01*
X28369Y-31717D01*
X28277Y-31679D01*
X27947Y-31679D01*
X27884Y-31741D01*
X27884Y-32272D01*
X28415Y-32272D01*
X28478Y-32210D01*
X28478Y-31978D01*
X28478Y-32643D01*
X28478Y-32643D01*
X28478Y-32435D01*
X28415Y-32372D01*
X27884Y-32372D01*
X27884Y-32380D01*
X27784Y-32380D01*
X27784Y-32372D01*
X27784Y-32272D01*
X27784Y-31741D01*
X27722Y-31679D01*
X27391Y-31679D01*
X27299Y-31717D01*
X27229Y-31787D01*
X27190Y-31879D01*
X27190Y-31978D01*
X27190Y-32210D01*
X27253Y-32272D01*
X27784Y-32272D01*
X27784Y-32372D01*
X27253Y-32372D01*
X27190Y-32435D01*
X27190Y-32643D01*
X26273Y-32643D01*
X26273Y-31978D01*
X26273Y-31879D01*
X26235Y-31787D01*
X26165Y-31717D01*
X26073Y-31679D01*
X25742Y-31679D01*
X25679Y-31741D01*
X25679Y-32272D01*
X26211Y-32272D01*
X26273Y-32210D01*
X26273Y-31978D01*
X26273Y-32643D01*
X26273Y-32643D01*
X26273Y-32435D01*
X26211Y-32372D01*
X25679Y-32372D01*
X25679Y-32380D01*
X25579Y-32380D01*
X25579Y-32372D01*
X25579Y-32272D01*
X25579Y-31741D01*
X25579Y-30699D01*
X25579Y-30168D01*
X25048Y-30168D01*
X24986Y-30230D01*
X24986Y-30462D01*
X24986Y-30561D01*
X25024Y-30653D01*
X25094Y-30723D01*
X25186Y-30761D01*
X25517Y-30761D01*
X25579Y-30699D01*
X25579Y-31741D01*
X25517Y-31679D01*
X25186Y-31679D01*
X25094Y-31717D01*
X25024Y-31787D01*
X24986Y-31879D01*
X24986Y-31978D01*
X24986Y-32210D01*
X25048Y-32272D01*
X25579Y-32272D01*
X25579Y-32372D01*
X25048Y-32372D01*
X24986Y-32435D01*
X24986Y-32643D01*
X24699Y-32643D01*
X24699Y-32333D01*
X24698Y-32219D01*
X24636Y-32157D01*
X24301Y-32157D01*
X24301Y-32471D01*
X24364Y-32534D01*
X24399Y-32534D01*
X24498Y-32533D01*
X24590Y-32495D01*
X24661Y-32425D01*
X24699Y-32333D01*
X24699Y-32643D01*
X24201Y-32643D01*
X24201Y-32471D01*
X24201Y-32157D01*
X23867Y-32157D01*
X23804Y-32219D01*
X23804Y-32333D01*
X23842Y-32425D01*
X23913Y-32495D01*
X24005Y-32533D01*
X24104Y-32534D01*
X24139Y-32534D01*
X24201Y-32471D01*
X24201Y-32643D01*
X23766Y-32643D01*
X22710Y-31587D01*
X22710Y-31509D01*
X23804Y-31509D01*
X23804Y-31741D01*
X23833Y-31811D01*
X23804Y-31880D01*
X23804Y-31994D01*
X23867Y-32057D01*
X24201Y-32057D01*
X24201Y-32049D01*
X24301Y-32049D01*
X24301Y-32057D01*
X24636Y-32057D01*
X24698Y-31994D01*
X24699Y-31880D01*
X24670Y-31810D01*
X24698Y-31741D01*
X24699Y-31642D01*
X24699Y-31288D01*
X24661Y-31196D01*
X24596Y-31131D01*
X24661Y-31066D01*
X24699Y-30974D01*
X24699Y-30875D01*
X24699Y-30285D01*
X24661Y-30193D01*
X24591Y-30123D01*
X24556Y-30108D01*
X24581Y-30050D01*
X24581Y-29950D01*
X24581Y-29559D01*
X24594Y-29547D01*
X24830Y-29547D01*
X24900Y-29518D01*
X24969Y-29547D01*
X25060Y-29547D01*
X25024Y-29582D01*
X24986Y-29674D01*
X24986Y-29773D01*
X24986Y-30005D01*
X25048Y-30068D01*
X25579Y-30068D01*
X25579Y-29536D01*
X25533Y-29490D01*
X25584Y-29438D01*
X25622Y-29346D01*
X25623Y-29247D01*
X25623Y-28952D01*
X25622Y-28853D01*
X25584Y-28761D01*
X25514Y-28690D01*
X25422Y-28652D01*
X25308Y-28653D01*
X25246Y-28715D01*
X25246Y-29050D01*
X25560Y-29050D01*
X25623Y-28987D01*
X25623Y-28952D01*
X25623Y-29247D01*
X25623Y-29212D01*
X25560Y-29150D01*
X25246Y-29150D01*
X25246Y-29157D01*
X25146Y-29157D01*
X25146Y-29150D01*
X25138Y-29150D01*
X25138Y-29050D01*
X25146Y-29050D01*
X25146Y-28715D01*
X25083Y-28653D01*
X24969Y-28652D01*
X24904Y-28679D01*
X24889Y-28604D01*
X24889Y-28604D01*
X24869Y-28575D01*
X24870Y-28492D01*
X24870Y-28394D01*
X24870Y-28374D01*
X24833Y-28285D01*
X24865Y-28208D01*
X24944Y-28261D01*
X24944Y-28261D01*
X25062Y-28285D01*
X25633Y-28285D01*
X25631Y-28288D01*
X25631Y-28388D01*
X25631Y-28663D01*
X25657Y-28726D01*
X25631Y-28788D01*
X25631Y-28888D01*
X25631Y-28863D01*
X25694Y-28926D01*
X26264Y-28926D01*
X26264Y-28918D01*
X26364Y-28918D01*
X26364Y-28926D01*
X26935Y-28926D01*
X26998Y-28863D01*
X26998Y-28888D01*
X26998Y-28824D01*
X27150Y-28824D01*
X27663Y-29337D01*
X27663Y-29379D01*
X27702Y-29474D01*
X27391Y-29474D01*
X27299Y-29512D01*
X27229Y-29582D01*
X27190Y-29674D01*
X27190Y-29773D01*
X27190Y-30005D01*
X27253Y-30068D01*
X27784Y-30068D01*
X27784Y-30060D01*
X27884Y-30060D01*
X27884Y-30068D01*
X27892Y-30068D01*
X27892Y-30168D01*
X27884Y-30168D01*
X27884Y-30699D01*
X27947Y-30761D01*
X28277Y-30761D01*
X28369Y-30723D01*
X28440Y-30653D01*
X28478Y-30561D01*
X28478Y-30462D01*
X28478Y-30289D01*
X28569Y-30289D01*
X28544Y-30289D01*
X28607Y-30226D01*
X28607Y-29656D01*
X28599Y-29656D01*
X28599Y-29556D01*
X28607Y-29556D01*
X28607Y-28985D01*
X28544Y-28923D01*
X28569Y-28923D01*
X28469Y-28923D01*
X28402Y-28951D01*
X28363Y-28912D01*
X28199Y-28844D01*
X28156Y-28844D01*
X27585Y-28273D01*
X27634Y-28224D01*
X27634Y-28224D01*
X27705Y-28117D01*
X27730Y-27992D01*
X27730Y-27992D01*
X27730Y-25490D01*
X28000Y-25220D01*
X28545Y-25297D01*
X29263Y-24939D01*
X29830Y-24534D01*
X30387Y-24136D01*
X30822Y-23787D01*
X30822Y-24201D01*
X30298Y-24201D01*
X29398Y-24856D01*
X29398Y-28849D01*
X29545Y-28923D01*
X29469Y-28923D01*
X29407Y-28949D01*
X29345Y-28923D01*
X29245Y-28923D01*
X28970Y-28923D01*
X28907Y-28949D01*
X28845Y-28923D01*
X28745Y-28923D01*
X28769Y-28923D01*
X28707Y-28985D01*
X28707Y-29556D01*
X28715Y-29556D01*
X28715Y-29582D01*
X28710Y-29606D01*
X28715Y-29630D01*
X28715Y-29656D01*
X28707Y-29656D01*
X28707Y-30226D01*
X28726Y-30245D01*
X28726Y-30245D01*
X28726Y-30599D01*
X28754Y-30669D01*
X28726Y-30738D01*
X28726Y-30773D01*
X27784Y-30773D01*
X27784Y-30699D01*
X27784Y-30168D01*
X27253Y-30168D01*
X27190Y-30230D01*
X27190Y-30462D01*
X27190Y-30561D01*
X27229Y-30653D01*
X27299Y-30723D01*
X27391Y-30761D01*
X27722Y-30761D01*
X27784Y-30699D01*
X27784Y-30773D01*
X27195Y-30773D01*
X27097Y-30675D01*
X26998Y-30633D01*
X26998Y-29064D01*
X26998Y-29088D01*
X26935Y-29026D01*
X26364Y-29026D01*
X26364Y-29301D01*
X26427Y-29364D01*
X26797Y-29364D01*
X26889Y-29326D01*
X26959Y-29255D01*
X26997Y-29164D01*
X26998Y-29064D01*
X26998Y-30633D01*
X26860Y-30576D01*
X26604Y-30576D01*
X26368Y-30674D01*
X26273Y-30768D01*
X26273Y-30462D01*
X26273Y-29773D01*
X26273Y-29674D01*
X26264Y-29653D01*
X26264Y-29301D01*
X26264Y-29026D01*
X25694Y-29026D01*
X25631Y-29088D01*
X25631Y-29064D01*
X25631Y-29164D01*
X25670Y-29255D01*
X25740Y-29326D01*
X25832Y-29364D01*
X26202Y-29364D01*
X26264Y-29301D01*
X26264Y-29653D01*
X26235Y-29582D01*
X26165Y-29512D01*
X26073Y-29474D01*
X25742Y-29474D01*
X25679Y-29536D01*
X25679Y-30068D01*
X26211Y-30068D01*
X26273Y-30005D01*
X26273Y-29773D01*
X26273Y-30462D01*
X26273Y-30230D01*
X26211Y-30168D01*
X25679Y-30168D01*
X25679Y-30699D01*
X25742Y-30761D01*
X26073Y-30761D01*
X26165Y-30723D01*
X26235Y-30653D01*
X26273Y-30561D01*
X26273Y-30462D01*
X26273Y-30768D01*
X26186Y-30855D01*
X26088Y-31091D01*
X26088Y-31347D01*
X26186Y-31584D01*
X26367Y-31765D01*
X26603Y-31864D01*
X26859Y-31864D01*
X27096Y-31766D01*
X27195Y-31667D01*
X28918Y-31667D01*
X29089Y-31633D01*
X29089Y-31633D01*
X29234Y-31536D01*
X29378Y-31392D01*
X29419Y-31392D01*
X29511Y-31354D01*
X29582Y-31284D01*
X29620Y-31192D01*
X29620Y-31092D01*
X29620Y-30738D01*
X29591Y-30669D01*
X29620Y-30600D01*
X29620Y-30500D01*
X29620Y-30146D01*
X29620Y-30146D01*
X29620Y-29622D01*
X29607Y-29556D01*
X29607Y-29556D01*
X29607Y-29548D01*
X29707Y-29548D01*
X29707Y-29556D01*
X29982Y-29556D01*
X30043Y-29495D01*
X30202Y-29892D01*
X30822Y-29892D01*
X30822Y-33185D01*
X30822Y-33185D01*
G37*
G54D34*
X30822Y-33185D02*
X29197Y-33185D01*
X30561Y-31821D01*
X30561Y-31821D01*
X30561Y-31821D01*
X30636Y-31708D01*
X30663Y-31574D01*
X30663Y-31574D01*
X30663Y-31574D01*
X30663Y-30834D01*
X30693Y-30804D01*
X30761Y-30640D01*
X30761Y-30462D01*
X30694Y-30298D01*
X30568Y-30172D01*
X30404Y-30104D01*
X30226Y-30104D01*
X30062Y-30172D01*
X30045Y-30188D01*
X30045Y-30088D01*
X30045Y-29718D01*
X29982Y-29656D01*
X29707Y-29656D01*
X29707Y-30226D01*
X29769Y-30289D01*
X29745Y-30289D01*
X29845Y-30289D01*
X29937Y-30251D01*
X30007Y-30180D01*
X30045Y-30088D01*
X30045Y-30188D01*
X29936Y-30297D01*
X29868Y-30461D01*
X29868Y-30639D01*
X29935Y-30803D01*
X29966Y-30834D01*
X29966Y-31430D01*
X28753Y-32643D01*
X28478Y-32643D01*
X28478Y-31978D01*
X28478Y-31879D01*
X28440Y-31787D01*
X28369Y-31717D01*
X28277Y-31679D01*
X27947Y-31679D01*
X27884Y-31741D01*
X27884Y-32272D01*
X28415Y-32272D01*
X28478Y-32210D01*
X28478Y-31978D01*
X28478Y-32643D01*
X28478Y-32643D01*
X28478Y-32435D01*
X28415Y-32372D01*
X27884Y-32372D01*
X27884Y-32380D01*
X27784Y-32380D01*
X27784Y-32372D01*
X27784Y-32272D01*
X27784Y-31741D01*
X27722Y-31679D01*
X27391Y-31679D01*
X27299Y-31717D01*
X27229Y-31787D01*
X27190Y-31879D01*
X27190Y-31978D01*
X27190Y-32210D01*
X27253Y-32272D01*
X27784Y-32272D01*
X27784Y-32372D01*
X27253Y-32372D01*
X27190Y-32435D01*
X27190Y-32643D01*
X26273Y-32643D01*
X26273Y-31978D01*
X26273Y-31879D01*
X26235Y-31787D01*
X26165Y-31717D01*
X26073Y-31679D01*
X25742Y-31679D01*
X25679Y-31741D01*
X25679Y-32272D01*
X26211Y-32272D01*
X26273Y-32210D01*
X26273Y-31978D01*
X26273Y-32643D01*
X26273Y-32643D01*
X26273Y-32435D01*
X26211Y-32372D01*
X25679Y-32372D01*
X25679Y-32380D01*
X25579Y-32380D01*
X25579Y-32372D01*
X25579Y-32272D01*
X25579Y-31741D01*
X25579Y-30699D01*
X25579Y-30168D01*
X25048Y-30168D01*
X24986Y-30230D01*
X24986Y-30462D01*
X24986Y-30561D01*
X25024Y-30653D01*
X25094Y-30723D01*
X25186Y-30761D01*
X25517Y-30761D01*
X25579Y-30699D01*
X25579Y-31741D01*
X25517Y-31679D01*
X25186Y-31679D01*
X25094Y-31717D01*
X25024Y-31787D01*
X24986Y-31879D01*
X24986Y-31978D01*
X24986Y-32210D01*
X25048Y-32272D01*
X25579Y-32272D01*
X25579Y-32372D01*
X25048Y-32372D01*
X24986Y-32435D01*
X24986Y-32643D01*
X24699Y-32643D01*
X24699Y-32333D01*
X24698Y-32219D01*
X24636Y-32157D01*
X24301Y-32157D01*
X24301Y-32471D01*
X24364Y-32534D01*
X24399Y-32534D01*
X24498Y-32533D01*
X24590Y-32495D01*
X24661Y-32425D01*
X24699Y-32333D01*
X24699Y-32643D01*
X24201Y-32643D01*
X24201Y-32471D01*
X24201Y-32157D01*
X23867Y-32157D01*
X23804Y-32219D01*
X23804Y-32333D01*
X23842Y-32425D01*
X23913Y-32495D01*
X24005Y-32533D01*
X24104Y-32534D01*
X24139Y-32534D01*
X24201Y-32471D01*
X24201Y-32643D01*
X23766Y-32643D01*
X22710Y-31587D01*
X22710Y-31509D01*
X23804Y-31509D01*
X23804Y-31741D01*
X23833Y-31811D01*
X23804Y-31880D01*
X23804Y-31994D01*
X23867Y-32057D01*
X24201Y-32057D01*
X24201Y-32049D01*
X24301Y-32049D01*
X24301Y-32057D01*
X24636Y-32057D01*
X24698Y-31994D01*
X24699Y-31880D01*
X24670Y-31810D01*
X24698Y-31741D01*
X24699Y-31642D01*
X24699Y-31288D01*
X24661Y-31196D01*
X24596Y-31131D01*
X24661Y-31066D01*
X24699Y-30974D01*
X24699Y-30875D01*
X24699Y-30285D01*
X24661Y-30193D01*
X24591Y-30123D01*
X24556Y-30108D01*
X24581Y-30050D01*
X24581Y-29950D01*
X24581Y-29559D01*
X24594Y-29547D01*
X24830Y-29547D01*
X24900Y-29518D01*
X24969Y-29547D01*
X25060Y-29547D01*
X25024Y-29582D01*
X24986Y-29674D01*
X24986Y-29773D01*
X24986Y-30005D01*
X25048Y-30068D01*
X25579Y-30068D01*
X25579Y-29536D01*
X25533Y-29490D01*
X25584Y-29438D01*
X25622Y-29346D01*
X25623Y-29247D01*
X25623Y-28952D01*
X25622Y-28853D01*
X25584Y-28761D01*
X25514Y-28690D01*
X25422Y-28652D01*
X25308Y-28653D01*
X25246Y-28715D01*
X25246Y-29050D01*
X25560Y-29050D01*
X25623Y-28987D01*
X25623Y-28952D01*
X25623Y-29247D01*
X25623Y-29212D01*
X25560Y-29150D01*
X25246Y-29150D01*
X25246Y-29157D01*
X25146Y-29157D01*
X25146Y-29150D01*
X25138Y-29150D01*
X25138Y-29050D01*
X25146Y-29050D01*
X25146Y-28715D01*
X25083Y-28653D01*
X24969Y-28652D01*
X24904Y-28679D01*
X24889Y-28604D01*
X24889Y-28604D01*
X24869Y-28575D01*
X24870Y-28492D01*
X24870Y-28394D01*
X24870Y-28374D01*
X24833Y-28285D01*
X24865Y-28208D01*
X24944Y-28261D01*
X24944Y-28261D01*
X25062Y-28285D01*
X25633Y-28285D01*
X25631Y-28288D01*
X25631Y-28388D01*
X25631Y-28663D01*
X25657Y-28726D01*
X25631Y-28788D01*
X25631Y-28888D01*
X25631Y-28863D01*
X25694Y-28926D01*
X26264Y-28926D01*
X26264Y-28918D01*
X26364Y-28918D01*
X26364Y-28926D01*
X26935Y-28926D01*
X26998Y-28863D01*
X26998Y-28888D01*
X26998Y-28824D01*
X27150Y-28824D01*
X27663Y-29337D01*
X27663Y-29379D01*
X27702Y-29474D01*
X27391Y-29474D01*
X27299Y-29512D01*
X27229Y-29582D01*
X27190Y-29674D01*
X27190Y-29773D01*
X27190Y-30005D01*
X27253Y-30068D01*
X27784Y-30068D01*
X27784Y-30060D01*
X27884Y-30060D01*
X27884Y-30068D01*
X27892Y-30068D01*
X27892Y-30168D01*
X27884Y-30168D01*
X27884Y-30699D01*
X27947Y-30761D01*
X28277Y-30761D01*
X28369Y-30723D01*
X28440Y-30653D01*
X28478Y-30561D01*
X28478Y-30462D01*
X28478Y-30289D01*
X28569Y-30289D01*
X28544Y-30289D01*
X28607Y-30226D01*
X28607Y-29656D01*
X28599Y-29656D01*
X28599Y-29556D01*
X28607Y-29556D01*
X28607Y-28985D01*
X28544Y-28923D01*
X28569Y-28923D01*
X28469Y-28923D01*
X28402Y-28951D01*
X28363Y-28912D01*
X28199Y-28844D01*
X28156Y-28844D01*
X27585Y-28273D01*
X27634Y-28224D01*
X27634Y-28224D01*
X27705Y-28117D01*
X27730Y-27992D01*
X27730Y-27992D01*
X27730Y-25490D01*
X28000Y-25220D01*
X28545Y-25297D01*
X29263Y-24939D01*
X29830Y-24534D01*
X30387Y-24136D01*
X30822Y-23787D01*
X30822Y-24201D01*
X30298Y-24201D01*
X29398Y-24856D01*
X29398Y-28849D01*
X29545Y-28923D01*
X29469Y-28923D01*
X29407Y-28949D01*
X29345Y-28923D01*
X29245Y-28923D01*
X28970Y-28923D01*
X28907Y-28949D01*
X28845Y-28923D01*
X28745Y-28923D01*
X28769Y-28923D01*
X28707Y-28985D01*
X28707Y-29556D01*
X28715Y-29556D01*
X28715Y-29582D01*
X28710Y-29606D01*
X28715Y-29630D01*
X28715Y-29656D01*
X28707Y-29656D01*
X28707Y-30226D01*
X28726Y-30245D01*
X28726Y-30245D01*
X28726Y-30599D01*
X28754Y-30669D01*
X28726Y-30738D01*
X28726Y-30773D01*
X27784Y-30773D01*
X27784Y-30699D01*
X27784Y-30168D01*
X27253Y-30168D01*
X27190Y-30230D01*
X27190Y-30462D01*
X27190Y-30561D01*
X27229Y-30653D01*
X27299Y-30723D01*
X27391Y-30761D01*
X27722Y-30761D01*
X27784Y-30699D01*
X27784Y-30773D01*
X27195Y-30773D01*
X27097Y-30675D01*
X26998Y-30633D01*
X26998Y-29064D01*
X26998Y-29088D01*
X26935Y-29026D01*
X26364Y-29026D01*
X26364Y-29301D01*
X26427Y-29364D01*
X26797Y-29364D01*
X26889Y-29326D01*
X26959Y-29255D01*
X26997Y-29164D01*
X26998Y-29064D01*
X26998Y-30633D01*
X26860Y-30576D01*
X26604Y-30576D01*
X26368Y-30674D01*
X26273Y-30768D01*
X26273Y-30462D01*
X26273Y-29773D01*
X26273Y-29674D01*
X26264Y-29653D01*
X26264Y-29301D01*
X26264Y-29026D01*
X25694Y-29026D01*
X25631Y-29088D01*
X25631Y-29064D01*
X25631Y-29164D01*
X25670Y-29255D01*
X25740Y-29326D01*
X25832Y-29364D01*
X26202Y-29364D01*
X26264Y-29301D01*
X26264Y-29653D01*
X26235Y-29582D01*
X26165Y-29512D01*
X26073Y-29474D01*
X25742Y-29474D01*
X25679Y-29536D01*
X25679Y-30068D01*
X26211Y-30068D01*
X26273Y-30005D01*
X26273Y-29773D01*
X26273Y-30462D01*
X26273Y-30230D01*
X26211Y-30168D01*
X25679Y-30168D01*
X25679Y-30699D01*
X25742Y-30761D01*
X26073Y-30761D01*
X26165Y-30723D01*
X26235Y-30653D01*
X26273Y-30561D01*
X26273Y-30462D01*
X26273Y-30768D01*
X26186Y-30855D01*
X26088Y-31091D01*
X26088Y-31347D01*
X26186Y-31584D01*
X26367Y-31765D01*
X26603Y-31864D01*
X26859Y-31864D01*
X27096Y-31766D01*
X27195Y-31667D01*
X28918Y-31667D01*
X29089Y-31633D01*
X29089Y-31633D01*
X29234Y-31536D01*
X29378Y-31392D01*
X29419Y-31392D01*
X29511Y-31354D01*
X29582Y-31284D01*
X29620Y-31192D01*
X29620Y-31092D01*
X29620Y-30738D01*
X29591Y-30669D01*
X29620Y-30600D01*
X29620Y-30500D01*
X29620Y-30146D01*
X29620Y-30146D01*
X29620Y-29622D01*
X29607Y-29556D01*
X29607Y-29556D01*
X29607Y-29548D01*
X29707Y-29548D01*
X29707Y-29556D01*
X29982Y-29556D01*
X30043Y-29495D01*
X30202Y-29892D01*
X30822Y-29892D01*
X30822Y-33185D01*
G54D10*
G36*
X30816Y-23060D02*
X30588Y-23590D01*
X30206Y-23897D01*
X29655Y-24290D01*
X29107Y-24681D01*
X28495Y-24987D01*
X27967Y-24912D01*
X27525Y-24691D01*
X27447Y-24223D01*
X27136Y-23990D01*
X27136Y-22941D01*
X27140Y-22937D01*
X27179Y-22845D01*
X27179Y-22745D01*
X27179Y-22419D01*
X27186Y-22412D01*
X27643Y-22412D01*
X28298Y-22248D01*
X28451Y-22018D01*
X29034Y-22018D01*
X29268Y-22252D01*
X30176Y-22335D01*
X30472Y-22039D01*
X30489Y-22032D01*
X30493Y-22028D01*
X30676Y-22089D01*
X30816Y-22298D01*
X30816Y-23060D01*
X30816Y-23060D01*
G37*
G54D34*
X30816Y-23060D02*
X30588Y-23590D01*
X30206Y-23897D01*
X29655Y-24290D01*
X29107Y-24681D01*
X28495Y-24987D01*
X27967Y-24912D01*
X27525Y-24691D01*
X27447Y-24223D01*
X27136Y-23990D01*
X27136Y-22941D01*
X27140Y-22937D01*
X27179Y-22845D01*
X27179Y-22745D01*
X27179Y-22419D01*
X27186Y-22412D01*
X27643Y-22412D01*
X28298Y-22248D01*
X28451Y-22018D01*
X29034Y-22018D01*
X29268Y-22252D01*
X30176Y-22335D01*
X30472Y-22039D01*
X30489Y-22032D01*
X30493Y-22028D01*
X30676Y-22089D01*
X30816Y-22298D01*
X30816Y-23060D01*
M02*
