G04 (created by PCBNEW (2013-mar-30)-stable) date Wed 05 Jun 2013 10:13:46 PM CEST*
%MOIN*%
G04 Gerber Fmt 3.4, Leading zero omitted, Abs format*
%FSLAX34Y34*%
G01*
G70*
G90*
G04 APERTURE LIST*
%ADD10C,0.006*%
%ADD11C,0.00590551*%
%ADD12C,0.0001*%
%ADD13C,0.005*%
%ADD14C,0.015*%
%ADD15C,0.00393701*%
%ADD16R,0.047274X0.043274*%
%ADD17R,0.059074X0.049174*%
%ADD18R,0.094474X0.067874*%
%ADD19O,0.094474X0.067874*%
G04 APERTURE END LIST*
G54D10*
G54D11*
X19250Y-21341D02*
X19643Y-21341D01*
X19250Y-21467D02*
X19456Y-21467D01*
X19493Y-21453D01*
X19512Y-21425D01*
X19512Y-21383D01*
X19493Y-21355D01*
X19475Y-21341D01*
X19512Y-21566D02*
X19512Y-21678D01*
X19643Y-21608D02*
X19306Y-21608D01*
X19268Y-21622D01*
X19250Y-21650D01*
X19250Y-21678D01*
X19512Y-21735D02*
X19512Y-21847D01*
X19643Y-21777D02*
X19306Y-21777D01*
X19268Y-21791D01*
X19250Y-21819D01*
X19250Y-21847D01*
X19512Y-21946D02*
X19118Y-21946D01*
X19493Y-21946D02*
X19512Y-21974D01*
X19512Y-22030D01*
X19493Y-22058D01*
X19475Y-22072D01*
X19437Y-22086D01*
X19325Y-22086D01*
X19287Y-22072D01*
X19268Y-22058D01*
X19250Y-22030D01*
X19250Y-21974D01*
X19268Y-21946D01*
X19268Y-22199D02*
X19250Y-22227D01*
X19250Y-22283D01*
X19268Y-22311D01*
X19306Y-22325D01*
X19325Y-22325D01*
X19362Y-22311D01*
X19381Y-22283D01*
X19381Y-22241D01*
X19400Y-22213D01*
X19437Y-22199D01*
X19456Y-22199D01*
X19493Y-22213D01*
X19512Y-22241D01*
X19512Y-22283D01*
X19493Y-22311D01*
X19287Y-22452D02*
X19268Y-22466D01*
X19250Y-22452D01*
X19268Y-22438D01*
X19287Y-22452D01*
X19250Y-22452D01*
X19493Y-22452D02*
X19475Y-22466D01*
X19456Y-22452D01*
X19475Y-22438D01*
X19493Y-22452D01*
X19456Y-22452D01*
X19662Y-22803D02*
X19156Y-22550D01*
X19662Y-23113D02*
X19156Y-22859D01*
X19512Y-23338D02*
X19193Y-23338D01*
X19156Y-23323D01*
X19137Y-23309D01*
X19118Y-23281D01*
X19118Y-23239D01*
X19137Y-23211D01*
X19268Y-23338D02*
X19250Y-23309D01*
X19250Y-23253D01*
X19268Y-23225D01*
X19287Y-23211D01*
X19325Y-23197D01*
X19437Y-23197D01*
X19475Y-23211D01*
X19493Y-23225D01*
X19512Y-23253D01*
X19512Y-23309D01*
X19493Y-23338D01*
X19250Y-23478D02*
X19512Y-23478D01*
X19643Y-23478D02*
X19625Y-23464D01*
X19606Y-23478D01*
X19625Y-23492D01*
X19643Y-23478D01*
X19606Y-23478D01*
X19512Y-23577D02*
X19512Y-23689D01*
X19643Y-23619D02*
X19306Y-23619D01*
X19268Y-23633D01*
X19250Y-23661D01*
X19250Y-23689D01*
X19250Y-23787D02*
X19643Y-23787D01*
X19250Y-23914D02*
X19456Y-23914D01*
X19493Y-23900D01*
X19512Y-23872D01*
X19512Y-23830D01*
X19493Y-23802D01*
X19475Y-23787D01*
X19512Y-24181D02*
X19250Y-24181D01*
X19512Y-24055D02*
X19306Y-24055D01*
X19268Y-24069D01*
X19250Y-24097D01*
X19250Y-24139D01*
X19268Y-24167D01*
X19287Y-24181D01*
X19250Y-24322D02*
X19643Y-24322D01*
X19493Y-24322D02*
X19512Y-24350D01*
X19512Y-24406D01*
X19493Y-24434D01*
X19475Y-24448D01*
X19437Y-24462D01*
X19325Y-24462D01*
X19287Y-24448D01*
X19268Y-24434D01*
X19250Y-24406D01*
X19250Y-24350D01*
X19268Y-24322D01*
X19287Y-24589D02*
X19268Y-24603D01*
X19250Y-24589D01*
X19268Y-24575D01*
X19287Y-24589D01*
X19250Y-24589D01*
X19268Y-24856D02*
X19250Y-24828D01*
X19250Y-24772D01*
X19268Y-24744D01*
X19287Y-24730D01*
X19325Y-24715D01*
X19437Y-24715D01*
X19475Y-24730D01*
X19493Y-24744D01*
X19512Y-24772D01*
X19512Y-24828D01*
X19493Y-24856D01*
X19250Y-25025D02*
X19268Y-24997D01*
X19287Y-24983D01*
X19325Y-24969D01*
X19437Y-24969D01*
X19475Y-24983D01*
X19493Y-24997D01*
X19512Y-25025D01*
X19512Y-25067D01*
X19493Y-25095D01*
X19475Y-25109D01*
X19437Y-25123D01*
X19325Y-25123D01*
X19287Y-25109D01*
X19268Y-25095D01*
X19250Y-25067D01*
X19250Y-25025D01*
X19250Y-25250D02*
X19512Y-25250D01*
X19475Y-25250D02*
X19493Y-25264D01*
X19512Y-25292D01*
X19512Y-25334D01*
X19493Y-25362D01*
X19456Y-25376D01*
X19250Y-25376D01*
X19456Y-25376D02*
X19493Y-25390D01*
X19512Y-25419D01*
X19512Y-25461D01*
X19493Y-25489D01*
X19456Y-25503D01*
X19250Y-25503D01*
X19662Y-25854D02*
X19156Y-25601D01*
X19250Y-26079D02*
X19643Y-26079D01*
X19268Y-26079D02*
X19250Y-26051D01*
X19250Y-25995D01*
X19268Y-25967D01*
X19287Y-25953D01*
X19325Y-25939D01*
X19437Y-25939D01*
X19475Y-25953D01*
X19493Y-25967D01*
X19512Y-25995D01*
X19512Y-26051D01*
X19493Y-26079D01*
X19268Y-26332D02*
X19250Y-26304D01*
X19250Y-26248D01*
X19268Y-26220D01*
X19306Y-26206D01*
X19456Y-26206D01*
X19493Y-26220D01*
X19512Y-26248D01*
X19512Y-26304D01*
X19493Y-26332D01*
X19456Y-26347D01*
X19418Y-26347D01*
X19381Y-26206D01*
X19512Y-26445D02*
X19250Y-26515D01*
X19512Y-26586D01*
X19250Y-26698D02*
X19512Y-26698D01*
X19643Y-26698D02*
X19625Y-26684D01*
X19606Y-26698D01*
X19625Y-26712D01*
X19643Y-26698D01*
X19606Y-26698D01*
X19250Y-26881D02*
X19268Y-26853D01*
X19306Y-26839D01*
X19643Y-26839D01*
X19250Y-26993D02*
X19643Y-26993D01*
X19250Y-27120D02*
X19456Y-27120D01*
X19493Y-27106D01*
X19512Y-27078D01*
X19512Y-27035D01*
X19493Y-27007D01*
X19475Y-26993D01*
X19250Y-27303D02*
X19268Y-27275D01*
X19287Y-27260D01*
X19325Y-27246D01*
X19437Y-27246D01*
X19475Y-27260D01*
X19493Y-27275D01*
X19512Y-27303D01*
X19512Y-27345D01*
X19493Y-27373D01*
X19475Y-27387D01*
X19437Y-27401D01*
X19325Y-27401D01*
X19287Y-27387D01*
X19268Y-27373D01*
X19250Y-27345D01*
X19250Y-27303D01*
X19250Y-27570D02*
X19268Y-27542D01*
X19306Y-27528D01*
X19643Y-27528D01*
X19250Y-27682D02*
X19643Y-27682D01*
X19400Y-27710D02*
X19250Y-27795D01*
X19512Y-27795D02*
X19362Y-27682D01*
X19662Y-28132D02*
X19156Y-27879D01*
X19268Y-28217D02*
X19250Y-28245D01*
X19250Y-28301D01*
X19268Y-28329D01*
X19306Y-28343D01*
X19325Y-28343D01*
X19362Y-28329D01*
X19381Y-28301D01*
X19381Y-28259D01*
X19400Y-28231D01*
X19437Y-28217D01*
X19456Y-28217D01*
X19493Y-28231D01*
X19512Y-28259D01*
X19512Y-28301D01*
X19493Y-28329D01*
X19512Y-28428D02*
X19512Y-28540D01*
X19643Y-28470D02*
X19306Y-28470D01*
X19268Y-28484D01*
X19250Y-28512D01*
X19250Y-28540D01*
X19250Y-28681D02*
X19268Y-28652D01*
X19287Y-28638D01*
X19325Y-28624D01*
X19437Y-28624D01*
X19475Y-28638D01*
X19493Y-28652D01*
X19512Y-28681D01*
X19512Y-28723D01*
X19493Y-28751D01*
X19475Y-28765D01*
X19437Y-28779D01*
X19325Y-28779D01*
X19287Y-28765D01*
X19268Y-28751D01*
X19250Y-28723D01*
X19250Y-28681D01*
X19512Y-28906D02*
X19250Y-28906D01*
X19475Y-28906D02*
X19493Y-28920D01*
X19512Y-28948D01*
X19512Y-28990D01*
X19493Y-29018D01*
X19456Y-29032D01*
X19250Y-29032D01*
X19268Y-29285D02*
X19250Y-29257D01*
X19250Y-29201D01*
X19268Y-29173D01*
X19306Y-29159D01*
X19456Y-29159D01*
X19493Y-29173D01*
X19512Y-29201D01*
X19512Y-29257D01*
X19493Y-29285D01*
X19456Y-29299D01*
X19418Y-29299D01*
X19381Y-29159D01*
X19250Y-29426D02*
X19512Y-29426D01*
X19437Y-29426D02*
X19475Y-29440D01*
X19493Y-29454D01*
X19512Y-29482D01*
X19512Y-29510D01*
X19250Y-29651D02*
X19268Y-29623D01*
X19306Y-29609D01*
X19643Y-29609D01*
X19250Y-29763D02*
X19512Y-29763D01*
X19643Y-29763D02*
X19625Y-29749D01*
X19606Y-29763D01*
X19625Y-29777D01*
X19643Y-29763D01*
X19606Y-29763D01*
X19512Y-30030D02*
X19193Y-30030D01*
X19156Y-30016D01*
X19137Y-30002D01*
X19118Y-29974D01*
X19118Y-29932D01*
X19137Y-29904D01*
X19268Y-30030D02*
X19250Y-30002D01*
X19250Y-29946D01*
X19268Y-29918D01*
X19287Y-29904D01*
X19325Y-29890D01*
X19437Y-29890D01*
X19475Y-29904D01*
X19493Y-29918D01*
X19512Y-29946D01*
X19512Y-30002D01*
X19493Y-30030D01*
X19250Y-30171D02*
X19643Y-30171D01*
X19250Y-30298D02*
X19456Y-30298D01*
X19493Y-30284D01*
X19512Y-30255D01*
X19512Y-30213D01*
X19493Y-30185D01*
X19475Y-30171D01*
X19512Y-30396D02*
X19512Y-30508D01*
X19643Y-30438D02*
X19306Y-30438D01*
X19268Y-30452D01*
X19250Y-30480D01*
X19250Y-30508D01*
X19268Y-30593D02*
X19250Y-30621D01*
X19250Y-30677D01*
X19268Y-30705D01*
X19306Y-30719D01*
X19325Y-30719D01*
X19362Y-30705D01*
X19381Y-30677D01*
X19381Y-30635D01*
X19400Y-30607D01*
X19437Y-30593D01*
X19456Y-30593D01*
X19493Y-30607D01*
X19512Y-30635D01*
X19512Y-30677D01*
X19493Y-30705D01*
X30001Y-26833D02*
X29739Y-26833D01*
X29814Y-26833D02*
X29776Y-26819D01*
X29758Y-26805D01*
X29739Y-26777D01*
X29739Y-26749D01*
X30001Y-26678D02*
X29739Y-26524D01*
X29739Y-26678D02*
X30001Y-26524D01*
X30001Y-26369D02*
X29983Y-26397D01*
X29945Y-26411D01*
X29608Y-26411D01*
X30001Y-26130D02*
X29795Y-26130D01*
X29758Y-26144D01*
X29739Y-26172D01*
X29739Y-26228D01*
X29758Y-26257D01*
X29983Y-26130D02*
X30001Y-26158D01*
X30001Y-26228D01*
X29983Y-26257D01*
X29945Y-26271D01*
X29908Y-26271D01*
X29870Y-26257D01*
X29851Y-26228D01*
X29851Y-26158D01*
X29833Y-26130D01*
X30001Y-25989D02*
X29739Y-25989D01*
X29776Y-25989D02*
X29758Y-25975D01*
X29739Y-25947D01*
X29739Y-25905D01*
X29758Y-25877D01*
X29795Y-25863D01*
X30001Y-25863D01*
X29795Y-25863D02*
X29758Y-25849D01*
X29739Y-25821D01*
X29739Y-25778D01*
X29758Y-25750D01*
X29795Y-25736D01*
X30001Y-25736D01*
X29739Y-25596D02*
X30133Y-25596D01*
X29758Y-25596D02*
X29739Y-25568D01*
X29739Y-25511D01*
X29758Y-25483D01*
X29776Y-25469D01*
X29814Y-25455D01*
X29926Y-25455D01*
X29964Y-25469D01*
X29983Y-25483D01*
X30001Y-25511D01*
X30001Y-25568D01*
X29983Y-25596D01*
X30001Y-25104D02*
X29608Y-25104D01*
X29758Y-25104D02*
X29739Y-25075D01*
X29739Y-25019D01*
X29758Y-24991D01*
X29776Y-24977D01*
X29814Y-24963D01*
X29926Y-24963D01*
X29964Y-24977D01*
X29983Y-24991D01*
X30001Y-25019D01*
X30001Y-25075D01*
X29983Y-25104D01*
X29739Y-24865D02*
X30001Y-24794D01*
X29739Y-24724D02*
X30001Y-24794D01*
X30095Y-24822D01*
X30114Y-24836D01*
X30133Y-24865D01*
X30612Y-28021D02*
X30218Y-28021D01*
X30593Y-28021D02*
X30612Y-28049D01*
X30612Y-28106D01*
X30593Y-28134D01*
X30574Y-28148D01*
X30537Y-28162D01*
X30424Y-28162D01*
X30387Y-28148D01*
X30368Y-28134D01*
X30349Y-28106D01*
X30349Y-28049D01*
X30368Y-28021D01*
X30593Y-27768D02*
X30612Y-27796D01*
X30612Y-27852D01*
X30593Y-27881D01*
X30555Y-27895D01*
X30405Y-27895D01*
X30368Y-27881D01*
X30349Y-27852D01*
X30349Y-27796D01*
X30368Y-27768D01*
X30405Y-27754D01*
X30443Y-27754D01*
X30480Y-27895D01*
X30349Y-27656D02*
X30612Y-27585D01*
X30349Y-27515D01*
X30612Y-27402D02*
X30349Y-27402D01*
X30218Y-27402D02*
X30237Y-27417D01*
X30255Y-27402D01*
X30237Y-27388D01*
X30218Y-27402D01*
X30255Y-27402D01*
X30612Y-27220D02*
X30593Y-27248D01*
X30555Y-27262D01*
X30218Y-27262D01*
X30612Y-27107D02*
X30218Y-27107D01*
X30612Y-26981D02*
X30405Y-26981D01*
X30368Y-26995D01*
X30349Y-27023D01*
X30349Y-27065D01*
X30368Y-27093D01*
X30387Y-27107D01*
X30612Y-26798D02*
X30593Y-26826D01*
X30574Y-26840D01*
X30537Y-26854D01*
X30424Y-26854D01*
X30387Y-26840D01*
X30368Y-26826D01*
X30349Y-26798D01*
X30349Y-26756D01*
X30368Y-26728D01*
X30387Y-26714D01*
X30424Y-26699D01*
X30537Y-26699D01*
X30574Y-26714D01*
X30593Y-26728D01*
X30612Y-26756D01*
X30612Y-26798D01*
X30612Y-26531D02*
X30593Y-26559D01*
X30555Y-26573D01*
X30218Y-26573D01*
X30612Y-26418D02*
X30218Y-26418D01*
X30462Y-26390D02*
X30612Y-26306D01*
X30349Y-26306D02*
X30499Y-26418D01*
X30612Y-25715D02*
X30612Y-25729D01*
X30593Y-25757D01*
X30537Y-25800D01*
X30424Y-25870D01*
X30368Y-25898D01*
X30312Y-25912D01*
X30274Y-25912D01*
X30237Y-25898D01*
X30218Y-25870D01*
X30218Y-25856D01*
X30237Y-25828D01*
X30274Y-25814D01*
X30293Y-25814D01*
X30330Y-25828D01*
X30349Y-25842D01*
X30424Y-25926D01*
X30443Y-25940D01*
X30480Y-25954D01*
X30537Y-25954D01*
X30574Y-25940D01*
X30593Y-25926D01*
X30612Y-25898D01*
X30612Y-25856D01*
X30593Y-25828D01*
X30574Y-25814D01*
X30499Y-25771D01*
X30443Y-25757D01*
X30405Y-25757D01*
X30349Y-25237D02*
X30668Y-25237D01*
X30705Y-25251D01*
X30724Y-25265D01*
X30743Y-25293D01*
X30743Y-25336D01*
X30724Y-25364D01*
X30593Y-25237D02*
X30612Y-25265D01*
X30612Y-25321D01*
X30593Y-25350D01*
X30574Y-25364D01*
X30537Y-25378D01*
X30424Y-25378D01*
X30387Y-25364D01*
X30368Y-25350D01*
X30349Y-25321D01*
X30349Y-25265D01*
X30368Y-25237D01*
X30349Y-24970D02*
X30612Y-24970D01*
X30349Y-25097D02*
X30555Y-25097D01*
X30593Y-25082D01*
X30612Y-25054D01*
X30612Y-25012D01*
X30593Y-24984D01*
X30574Y-24970D01*
X30612Y-24829D02*
X30349Y-24829D01*
X30424Y-24829D02*
X30387Y-24815D01*
X30368Y-24801D01*
X30349Y-24773D01*
X30349Y-24745D01*
X30349Y-24520D02*
X30668Y-24520D01*
X30705Y-24534D01*
X30724Y-24548D01*
X30743Y-24576D01*
X30743Y-24618D01*
X30724Y-24647D01*
X30593Y-24520D02*
X30612Y-24548D01*
X30612Y-24604D01*
X30593Y-24633D01*
X30574Y-24647D01*
X30537Y-24661D01*
X30424Y-24661D01*
X30387Y-24647D01*
X30368Y-24633D01*
X30349Y-24604D01*
X30349Y-24548D01*
X30368Y-24520D01*
X30612Y-24253D02*
X30405Y-24253D01*
X30368Y-24267D01*
X30349Y-24295D01*
X30349Y-24351D01*
X30368Y-24379D01*
X30593Y-24253D02*
X30612Y-24281D01*
X30612Y-24351D01*
X30593Y-24379D01*
X30555Y-24393D01*
X30518Y-24393D01*
X30480Y-24379D01*
X30462Y-24351D01*
X30462Y-24281D01*
X30443Y-24253D01*
X30612Y-24070D02*
X30593Y-24098D01*
X30555Y-24112D01*
X30218Y-24112D01*
X30612Y-23915D02*
X30593Y-23944D01*
X30574Y-23958D01*
X30537Y-23972D01*
X30424Y-23972D01*
X30387Y-23958D01*
X30368Y-23944D01*
X30349Y-23915D01*
X30349Y-23873D01*
X30368Y-23845D01*
X30387Y-23831D01*
X30424Y-23817D01*
X30537Y-23817D01*
X30574Y-23831D01*
X30593Y-23845D01*
X30612Y-23873D01*
X30612Y-23915D01*
X30349Y-23733D02*
X30349Y-23620D01*
X30612Y-23690D02*
X30274Y-23690D01*
X30237Y-23676D01*
X30218Y-23648D01*
X30218Y-23620D01*
X24873Y-23424D02*
X24854Y-23439D01*
X24798Y-23454D01*
X24760Y-23454D01*
X24704Y-23439D01*
X24667Y-23409D01*
X24648Y-23379D01*
X24629Y-23319D01*
X24629Y-23274D01*
X24648Y-23214D01*
X24667Y-23184D01*
X24704Y-23154D01*
X24760Y-23139D01*
X24798Y-23139D01*
X24854Y-23154D01*
X24873Y-23169D01*
X25267Y-23424D02*
X25248Y-23439D01*
X25192Y-23454D01*
X25154Y-23454D01*
X25098Y-23439D01*
X25060Y-23409D01*
X25042Y-23379D01*
X25023Y-23319D01*
X25023Y-23274D01*
X25042Y-23214D01*
X25060Y-23184D01*
X25098Y-23154D01*
X25154Y-23139D01*
X25192Y-23139D01*
X25248Y-23154D01*
X25267Y-23169D01*
X25435Y-23334D02*
X25735Y-23334D01*
X26054Y-23289D02*
X26110Y-23304D01*
X26129Y-23319D01*
X26148Y-23349D01*
X26148Y-23394D01*
X26129Y-23424D01*
X26110Y-23439D01*
X26073Y-23454D01*
X25923Y-23454D01*
X25923Y-23139D01*
X26054Y-23139D01*
X26092Y-23154D01*
X26110Y-23169D01*
X26129Y-23199D01*
X26129Y-23229D01*
X26110Y-23259D01*
X26092Y-23274D01*
X26054Y-23289D01*
X25923Y-23289D01*
X26392Y-23304D02*
X26392Y-23454D01*
X26260Y-23139D02*
X26392Y-23304D01*
X26523Y-23139D01*
X26654Y-23334D02*
X26954Y-23334D01*
X27123Y-23439D02*
X27179Y-23454D01*
X27273Y-23454D01*
X27310Y-23439D01*
X27329Y-23424D01*
X27348Y-23394D01*
X27348Y-23364D01*
X27329Y-23334D01*
X27310Y-23319D01*
X27273Y-23304D01*
X27198Y-23289D01*
X27160Y-23274D01*
X27141Y-23259D01*
X27123Y-23229D01*
X27123Y-23199D01*
X27141Y-23169D01*
X27160Y-23154D01*
X27198Y-23139D01*
X27291Y-23139D01*
X27348Y-23154D01*
X27498Y-23364D02*
X27685Y-23364D01*
X27460Y-23454D02*
X27591Y-23139D01*
X27723Y-23454D01*
X27854Y-23334D02*
X28154Y-23334D01*
X28304Y-23139D02*
X28547Y-23139D01*
X28416Y-23259D01*
X28473Y-23259D01*
X28510Y-23274D01*
X28529Y-23289D01*
X28547Y-23319D01*
X28547Y-23394D01*
X28529Y-23424D01*
X28510Y-23439D01*
X28473Y-23454D01*
X28360Y-23454D01*
X28323Y-23439D01*
X28304Y-23424D01*
X28716Y-23424D02*
X28735Y-23439D01*
X28716Y-23454D01*
X28697Y-23439D01*
X28716Y-23424D01*
X28716Y-23454D01*
X28979Y-23139D02*
X29016Y-23139D01*
X29054Y-23154D01*
X29072Y-23169D01*
X29091Y-23199D01*
X29110Y-23259D01*
X29110Y-23334D01*
X29091Y-23394D01*
X29072Y-23424D01*
X29054Y-23439D01*
X29016Y-23454D01*
X28979Y-23454D01*
X28941Y-23439D01*
X28922Y-23424D01*
X28904Y-23394D01*
X28885Y-23334D01*
X28885Y-23259D01*
X28904Y-23199D01*
X28922Y-23169D01*
X28941Y-23154D01*
X28979Y-23139D01*
X25154Y-23954D02*
X25154Y-23744D01*
X25154Y-23804D02*
X25173Y-23774D01*
X25192Y-23759D01*
X25229Y-23744D01*
X25267Y-23744D01*
X25360Y-23954D02*
X25567Y-23744D01*
X25360Y-23744D02*
X25567Y-23954D01*
X25773Y-23954D02*
X25735Y-23939D01*
X25717Y-23909D01*
X25717Y-23639D01*
X26092Y-23954D02*
X26092Y-23789D01*
X26073Y-23759D01*
X26035Y-23744D01*
X25960Y-23744D01*
X25923Y-23759D01*
X26092Y-23939D02*
X26054Y-23954D01*
X25960Y-23954D01*
X25923Y-23939D01*
X25904Y-23909D01*
X25904Y-23879D01*
X25923Y-23849D01*
X25960Y-23834D01*
X26054Y-23834D01*
X26092Y-23819D01*
X26279Y-23954D02*
X26279Y-23744D01*
X26279Y-23774D02*
X26298Y-23759D01*
X26335Y-23744D01*
X26392Y-23744D01*
X26429Y-23759D01*
X26448Y-23789D01*
X26448Y-23954D01*
X26448Y-23789D02*
X26467Y-23759D01*
X26504Y-23744D01*
X26560Y-23744D01*
X26598Y-23759D01*
X26616Y-23789D01*
X26616Y-23954D01*
X26804Y-23744D02*
X26804Y-24059D01*
X26804Y-23759D02*
X26841Y-23744D01*
X26916Y-23744D01*
X26954Y-23759D01*
X26973Y-23774D01*
X26991Y-23804D01*
X26991Y-23894D01*
X26973Y-23924D01*
X26954Y-23939D01*
X26916Y-23954D01*
X26841Y-23954D01*
X26804Y-23939D01*
X27535Y-23639D02*
X27573Y-23639D01*
X27610Y-23654D01*
X27629Y-23669D01*
X27648Y-23699D01*
X27666Y-23759D01*
X27666Y-23834D01*
X27648Y-23894D01*
X27629Y-23924D01*
X27610Y-23939D01*
X27573Y-23954D01*
X27535Y-23954D01*
X27498Y-23939D01*
X27479Y-23924D01*
X27460Y-23894D01*
X27441Y-23834D01*
X27441Y-23759D01*
X27460Y-23699D01*
X27479Y-23669D01*
X27498Y-23654D01*
X27535Y-23639D01*
X27835Y-23924D02*
X27854Y-23939D01*
X27835Y-23954D01*
X27816Y-23939D01*
X27835Y-23924D01*
X27835Y-23954D01*
X28041Y-23954D02*
X28116Y-23954D01*
X28154Y-23939D01*
X28173Y-23924D01*
X28210Y-23879D01*
X28229Y-23819D01*
X28229Y-23699D01*
X28210Y-23669D01*
X28191Y-23654D01*
X28154Y-23639D01*
X28079Y-23639D01*
X28041Y-23654D01*
X28023Y-23669D01*
X28004Y-23699D01*
X28004Y-23774D01*
X28023Y-23804D01*
X28041Y-23819D01*
X28079Y-23834D01*
X28154Y-23834D01*
X28191Y-23819D01*
X28210Y-23804D01*
X28229Y-23774D01*
X28473Y-23639D02*
X28510Y-23639D01*
X28547Y-23654D01*
X28566Y-23669D01*
X28585Y-23699D01*
X28604Y-23759D01*
X28604Y-23834D01*
X28585Y-23894D01*
X28566Y-23924D01*
X28547Y-23939D01*
X28510Y-23954D01*
X28473Y-23954D01*
X28435Y-23939D01*
X28416Y-23924D01*
X28398Y-23894D01*
X28379Y-23834D01*
X28379Y-23759D01*
X28398Y-23699D01*
X28416Y-23669D01*
X28435Y-23654D01*
X28473Y-23639D01*
G54D12*
G36*
X22494Y-24220D02*
X22504Y-24216D01*
X22524Y-24202D01*
X22554Y-24183D01*
X22589Y-24160D01*
X22624Y-24136D01*
X22653Y-24117D01*
X22673Y-24104D01*
X22681Y-24099D01*
X22686Y-24101D01*
X22703Y-24109D01*
X22727Y-24121D01*
X22741Y-24129D01*
X22763Y-24138D01*
X22774Y-24140D01*
X22776Y-24137D01*
X22784Y-24120D01*
X22797Y-24091D01*
X22814Y-24053D01*
X22833Y-24008D01*
X22853Y-23959D01*
X22874Y-23910D01*
X22893Y-23863D01*
X22911Y-23820D01*
X22925Y-23786D01*
X22934Y-23762D01*
X22937Y-23751D01*
X22936Y-23749D01*
X22925Y-23738D01*
X22906Y-23724D01*
X22864Y-23690D01*
X22822Y-23638D01*
X22797Y-23580D01*
X22789Y-23514D01*
X22796Y-23454D01*
X22820Y-23396D01*
X22860Y-23344D01*
X22909Y-23305D01*
X22967Y-23281D01*
X23031Y-23273D01*
X23092Y-23280D01*
X23152Y-23303D01*
X23204Y-23343D01*
X23226Y-23368D01*
X23256Y-23421D01*
X23274Y-23477D01*
X23276Y-23492D01*
X23273Y-23554D01*
X23255Y-23614D01*
X23222Y-23667D01*
X23176Y-23711D01*
X23171Y-23715D01*
X23149Y-23731D01*
X23135Y-23742D01*
X23124Y-23751D01*
X23203Y-23941D01*
X23216Y-23972D01*
X23238Y-24024D01*
X23257Y-24069D01*
X23272Y-24104D01*
X23283Y-24128D01*
X23287Y-24138D01*
X23288Y-24138D01*
X23295Y-24140D01*
X23309Y-24134D01*
X23336Y-24121D01*
X23354Y-24112D01*
X23374Y-24103D01*
X23383Y-24099D01*
X23391Y-24103D01*
X23410Y-24116D01*
X23438Y-24135D01*
X23473Y-24158D01*
X23505Y-24180D01*
X23535Y-24200D01*
X23557Y-24214D01*
X23567Y-24219D01*
X23569Y-24219D01*
X23578Y-24214D01*
X23595Y-24200D01*
X23621Y-24175D01*
X23658Y-24139D01*
X23664Y-24133D01*
X23694Y-24103D01*
X23718Y-24077D01*
X23735Y-24059D01*
X23741Y-24050D01*
X23741Y-24050D01*
X23735Y-24040D01*
X23722Y-24018D01*
X23702Y-23988D01*
X23678Y-23952D01*
X23615Y-23861D01*
X23649Y-23774D01*
X23660Y-23748D01*
X23673Y-23715D01*
X23684Y-23692D01*
X23689Y-23682D01*
X23698Y-23679D01*
X23722Y-23673D01*
X23756Y-23666D01*
X23797Y-23659D01*
X23836Y-23651D01*
X23871Y-23645D01*
X23897Y-23640D01*
X23908Y-23638D01*
X23911Y-23636D01*
X23913Y-23630D01*
X23915Y-23618D01*
X23916Y-23597D01*
X23916Y-23563D01*
X23916Y-23514D01*
X23916Y-23509D01*
X23916Y-23462D01*
X23915Y-23425D01*
X23914Y-23402D01*
X23912Y-23392D01*
X23912Y-23392D01*
X23901Y-23389D01*
X23876Y-23384D01*
X23841Y-23377D01*
X23799Y-23369D01*
X23796Y-23369D01*
X23754Y-23360D01*
X23719Y-23353D01*
X23695Y-23348D01*
X23684Y-23344D01*
X23682Y-23341D01*
X23674Y-23325D01*
X23662Y-23299D01*
X23648Y-23267D01*
X23634Y-23234D01*
X23622Y-23205D01*
X23614Y-23183D01*
X23612Y-23173D01*
X23612Y-23172D01*
X23618Y-23162D01*
X23633Y-23141D01*
X23653Y-23111D01*
X23677Y-23075D01*
X23679Y-23072D01*
X23703Y-23037D01*
X23723Y-23007D01*
X23736Y-22985D01*
X23741Y-22976D01*
X23741Y-22975D01*
X23733Y-22965D01*
X23715Y-22945D01*
X23689Y-22918D01*
X23658Y-22886D01*
X23648Y-22877D01*
X23614Y-22843D01*
X23590Y-22821D01*
X23575Y-22809D01*
X23568Y-22807D01*
X23567Y-22807D01*
X23557Y-22813D01*
X23534Y-22828D01*
X23504Y-22848D01*
X23468Y-22873D01*
X23466Y-22875D01*
X23430Y-22899D01*
X23401Y-22919D01*
X23380Y-22932D01*
X23371Y-22938D01*
X23369Y-22938D01*
X23355Y-22934D01*
X23329Y-22925D01*
X23298Y-22913D01*
X23266Y-22900D01*
X23236Y-22887D01*
X23214Y-22877D01*
X23203Y-22871D01*
X23203Y-22871D01*
X23199Y-22858D01*
X23193Y-22831D01*
X23185Y-22795D01*
X23177Y-22752D01*
X23176Y-22745D01*
X23168Y-22702D01*
X23161Y-22667D01*
X23156Y-22643D01*
X23154Y-22633D01*
X23148Y-22632D01*
X23127Y-22631D01*
X23096Y-22630D01*
X23057Y-22629D01*
X23018Y-22630D01*
X22979Y-22630D01*
X22945Y-22632D01*
X22921Y-22633D01*
X22911Y-22635D01*
X22911Y-22636D01*
X22907Y-22649D01*
X22902Y-22675D01*
X22894Y-22712D01*
X22886Y-22756D01*
X22884Y-22763D01*
X22876Y-22805D01*
X22869Y-22840D01*
X22864Y-22864D01*
X22862Y-22873D01*
X22858Y-22875D01*
X22840Y-22883D01*
X22812Y-22894D01*
X22777Y-22908D01*
X22696Y-22941D01*
X22597Y-22873D01*
X22588Y-22867D01*
X22552Y-22843D01*
X22522Y-22823D01*
X22502Y-22810D01*
X22494Y-22805D01*
X22493Y-22805D01*
X22483Y-22814D01*
X22463Y-22832D01*
X22436Y-22859D01*
X22405Y-22890D01*
X22382Y-22913D01*
X22354Y-22941D01*
X22337Y-22960D01*
X22328Y-22972D01*
X22324Y-22979D01*
X22325Y-22984D01*
X22331Y-22994D01*
X22346Y-23016D01*
X22367Y-23046D01*
X22391Y-23081D01*
X22411Y-23111D01*
X22432Y-23144D01*
X22446Y-23168D01*
X22451Y-23179D01*
X22450Y-23184D01*
X22443Y-23204D01*
X22431Y-23233D01*
X22416Y-23268D01*
X22382Y-23347D01*
X22330Y-23357D01*
X22299Y-23363D01*
X22255Y-23371D01*
X22213Y-23379D01*
X22148Y-23392D01*
X22146Y-23631D01*
X22156Y-23636D01*
X22165Y-23638D01*
X22190Y-23644D01*
X22224Y-23651D01*
X22265Y-23658D01*
X22300Y-23665D01*
X22335Y-23671D01*
X22360Y-23676D01*
X22371Y-23679D01*
X22374Y-23682D01*
X22382Y-23699D01*
X22395Y-23726D01*
X22409Y-23759D01*
X22423Y-23792D01*
X22435Y-23823D01*
X22444Y-23847D01*
X22447Y-23859D01*
X22442Y-23868D01*
X22429Y-23889D01*
X22410Y-23918D01*
X22386Y-23953D01*
X22362Y-23988D01*
X22342Y-24018D01*
X22328Y-24039D01*
X22322Y-24049D01*
X22325Y-24055D01*
X22339Y-24072D01*
X22365Y-24099D01*
X22404Y-24138D01*
X22411Y-24144D01*
X22442Y-24174D01*
X22468Y-24198D01*
X22486Y-24214D01*
X22494Y-24220D01*
X22494Y-24220D01*
G37*
G54D13*
X27127Y-31720D02*
X27447Y-31720D01*
X27437Y-31280D02*
X27127Y-31280D01*
X27447Y-31180D02*
X27447Y-31820D01*
X27447Y-31820D02*
X27127Y-31820D01*
X27127Y-31820D02*
X27127Y-31180D01*
X27127Y-31180D02*
X27447Y-31180D01*
X24627Y-31720D02*
X24947Y-31720D01*
X24937Y-31280D02*
X24627Y-31280D01*
X24947Y-31180D02*
X24947Y-31820D01*
X24947Y-31820D02*
X24627Y-31820D01*
X24627Y-31820D02*
X24627Y-31180D01*
X24627Y-31180D02*
X24947Y-31180D01*
X23627Y-31720D02*
X23947Y-31720D01*
X23937Y-31280D02*
X23627Y-31280D01*
X23947Y-31180D02*
X23947Y-31820D01*
X23947Y-31820D02*
X23627Y-31820D01*
X23627Y-31820D02*
X23627Y-31180D01*
X23627Y-31180D02*
X23947Y-31180D01*
X25627Y-31720D02*
X25947Y-31720D01*
X25937Y-31280D02*
X25627Y-31280D01*
X25947Y-31180D02*
X25947Y-31820D01*
X25947Y-31820D02*
X25627Y-31820D01*
X25627Y-31820D02*
X25627Y-31180D01*
X25627Y-31180D02*
X25947Y-31180D01*
X22127Y-31720D02*
X22447Y-31720D01*
X22437Y-31280D02*
X22127Y-31280D01*
X22447Y-31180D02*
X22447Y-31820D01*
X22447Y-31820D02*
X22127Y-31820D01*
X22127Y-31820D02*
X22127Y-31180D01*
X22127Y-31180D02*
X22447Y-31180D01*
X21127Y-31720D02*
X21447Y-31720D01*
X21437Y-31280D02*
X21127Y-31280D01*
X21447Y-31180D02*
X21447Y-31820D01*
X21447Y-31820D02*
X21127Y-31820D01*
X21127Y-31820D02*
X21127Y-31180D01*
X21127Y-31180D02*
X21447Y-31180D01*
X20115Y-31716D02*
X20435Y-31716D01*
X20425Y-31276D02*
X20115Y-31276D01*
X20435Y-31176D02*
X20435Y-31816D01*
X20435Y-31816D02*
X20115Y-31816D01*
X20115Y-31816D02*
X20115Y-31176D01*
X20115Y-31176D02*
X20435Y-31176D01*
X28127Y-31720D02*
X28447Y-31720D01*
X28437Y-31280D02*
X28127Y-31280D01*
X28447Y-31180D02*
X28447Y-31820D01*
X28447Y-31820D02*
X28127Y-31820D01*
X28127Y-31820D02*
X28127Y-31180D01*
X28127Y-31180D02*
X28447Y-31180D01*
X29127Y-31720D02*
X29447Y-31720D01*
X29437Y-31280D02*
X29127Y-31280D01*
X29447Y-31180D02*
X29447Y-31820D01*
X29447Y-31820D02*
X29127Y-31820D01*
X29127Y-31820D02*
X29127Y-31180D01*
X29127Y-31180D02*
X29447Y-31180D01*
G54D14*
X24295Y-22484D02*
X23803Y-21992D01*
X25574Y-21500D02*
G75*
G03X25574Y-21500I-787J0D01*
G74*
G01*
X25771Y-20516D02*
X25771Y-22484D01*
X25771Y-22484D02*
X23803Y-22484D01*
X23803Y-22484D02*
X23803Y-20516D01*
X23803Y-20516D02*
X25771Y-20516D01*
X27795Y-22484D02*
X27303Y-21992D01*
X29074Y-21500D02*
G75*
G03X29074Y-21500I-787J0D01*
G74*
G01*
X29271Y-20516D02*
X29271Y-22484D01*
X29271Y-22484D02*
X27303Y-22484D01*
X27303Y-22484D02*
X27303Y-20516D01*
X27303Y-20516D02*
X29271Y-20516D01*
X27795Y-26484D02*
X27303Y-25992D01*
X29074Y-25500D02*
G75*
G03X29074Y-25500I-787J0D01*
G74*
G01*
X29271Y-24516D02*
X29271Y-26484D01*
X29271Y-26484D02*
X27303Y-26484D01*
X27303Y-26484D02*
X27303Y-24516D01*
X27303Y-24516D02*
X29271Y-24516D01*
X27795Y-30484D02*
X27303Y-29992D01*
X29074Y-29500D02*
G75*
G03X29074Y-29500I-787J0D01*
G74*
G01*
X29271Y-28516D02*
X29271Y-30484D01*
X29271Y-30484D02*
X27303Y-30484D01*
X27303Y-30484D02*
X27303Y-28516D01*
X27303Y-28516D02*
X29271Y-28516D01*
X24295Y-30484D02*
X23803Y-29992D01*
X25574Y-29500D02*
G75*
G03X25574Y-29500I-787J0D01*
G74*
G01*
X25771Y-28516D02*
X25771Y-30484D01*
X25771Y-30484D02*
X23803Y-30484D01*
X23803Y-30484D02*
X23803Y-28516D01*
X23803Y-28516D02*
X25771Y-28516D01*
X20795Y-22484D02*
X20303Y-21992D01*
X22074Y-21500D02*
G75*
G03X22074Y-21500I-787J0D01*
G74*
G01*
X22271Y-20516D02*
X22271Y-22484D01*
X22271Y-22484D02*
X20303Y-22484D01*
X20303Y-22484D02*
X20303Y-20516D01*
X20303Y-20516D02*
X22271Y-20516D01*
X20795Y-26484D02*
X20303Y-25992D01*
X22074Y-25500D02*
G75*
G03X22074Y-25500I-787J0D01*
G74*
G01*
X22271Y-24516D02*
X22271Y-26484D01*
X22271Y-26484D02*
X20303Y-26484D01*
X20303Y-26484D02*
X20303Y-24516D01*
X20303Y-24516D02*
X22271Y-24516D01*
X20795Y-30484D02*
X20303Y-29992D01*
X22074Y-29500D02*
G75*
G03X22074Y-29500I-787J0D01*
G74*
G01*
X22271Y-28516D02*
X22271Y-30484D01*
X22271Y-30484D02*
X20303Y-30484D01*
X20303Y-30484D02*
X20303Y-28516D01*
X20303Y-28516D02*
X22271Y-28516D01*
X24295Y-26484D02*
X23803Y-25992D01*
X25574Y-25500D02*
G75*
G03X25574Y-25500I-787J0D01*
G74*
G01*
X25771Y-24516D02*
X25771Y-26484D01*
X25771Y-26484D02*
X23803Y-26484D01*
X23803Y-26484D02*
X23803Y-24516D01*
X23803Y-24516D02*
X25771Y-24516D01*
G54D15*
X27323Y-32567D02*
X27230Y-32633D01*
X27323Y-32679D02*
X27126Y-32679D01*
X27126Y-32604D01*
X27136Y-32586D01*
X27145Y-32576D01*
X27164Y-32567D01*
X27192Y-32567D01*
X27211Y-32576D01*
X27220Y-32586D01*
X27230Y-32604D01*
X27230Y-32679D01*
X27323Y-32380D02*
X27323Y-32492D01*
X27323Y-32436D02*
X27126Y-32436D01*
X27155Y-32455D01*
X27173Y-32473D01*
X27183Y-32492D01*
X27126Y-32258D02*
X27126Y-32239D01*
X27136Y-32220D01*
X27145Y-32211D01*
X27164Y-32201D01*
X27201Y-32192D01*
X27248Y-32192D01*
X27286Y-32201D01*
X27305Y-32211D01*
X27314Y-32220D01*
X27323Y-32239D01*
X27323Y-32258D01*
X27314Y-32276D01*
X27305Y-32286D01*
X27286Y-32295D01*
X27248Y-32305D01*
X27201Y-32305D01*
X27164Y-32295D01*
X27145Y-32286D01*
X27136Y-32276D01*
X27126Y-32258D01*
X24882Y-32316D02*
X24789Y-32381D01*
X24882Y-32428D02*
X24685Y-32428D01*
X24685Y-32353D01*
X24695Y-32335D01*
X24704Y-32325D01*
X24723Y-32316D01*
X24751Y-32316D01*
X24770Y-32325D01*
X24779Y-32335D01*
X24789Y-32353D01*
X24789Y-32428D01*
X24770Y-32203D02*
X24760Y-32222D01*
X24751Y-32231D01*
X24732Y-32241D01*
X24723Y-32241D01*
X24704Y-32231D01*
X24695Y-32222D01*
X24685Y-32203D01*
X24685Y-32166D01*
X24695Y-32147D01*
X24704Y-32138D01*
X24723Y-32128D01*
X24732Y-32128D01*
X24751Y-32138D01*
X24760Y-32147D01*
X24770Y-32166D01*
X24770Y-32203D01*
X24779Y-32222D01*
X24789Y-32231D01*
X24807Y-32241D01*
X24845Y-32241D01*
X24864Y-32231D01*
X24873Y-32222D01*
X24882Y-32203D01*
X24882Y-32166D01*
X24873Y-32147D01*
X24864Y-32138D01*
X24845Y-32128D01*
X24807Y-32128D01*
X24789Y-32138D01*
X24779Y-32147D01*
X24770Y-32166D01*
X23701Y-32316D02*
X23607Y-32381D01*
X23701Y-32428D02*
X23504Y-32428D01*
X23504Y-32353D01*
X23514Y-32335D01*
X23523Y-32325D01*
X23542Y-32316D01*
X23570Y-32316D01*
X23589Y-32325D01*
X23598Y-32335D01*
X23607Y-32353D01*
X23607Y-32428D01*
X23504Y-32250D02*
X23504Y-32119D01*
X23701Y-32203D01*
X25906Y-32316D02*
X25812Y-32381D01*
X25906Y-32428D02*
X25709Y-32428D01*
X25709Y-32353D01*
X25718Y-32335D01*
X25728Y-32325D01*
X25747Y-32316D01*
X25775Y-32316D01*
X25793Y-32325D01*
X25803Y-32335D01*
X25812Y-32353D01*
X25812Y-32428D01*
X25906Y-32222D02*
X25906Y-32185D01*
X25897Y-32166D01*
X25887Y-32156D01*
X25859Y-32138D01*
X25822Y-32128D01*
X25747Y-32128D01*
X25728Y-32138D01*
X25718Y-32147D01*
X25709Y-32166D01*
X25709Y-32203D01*
X25718Y-32222D01*
X25728Y-32231D01*
X25747Y-32241D01*
X25793Y-32241D01*
X25812Y-32231D01*
X25822Y-32222D01*
X25831Y-32203D01*
X25831Y-32166D01*
X25822Y-32147D01*
X25812Y-32138D01*
X25793Y-32128D01*
X22363Y-32316D02*
X22269Y-32381D01*
X22363Y-32428D02*
X22166Y-32428D01*
X22166Y-32353D01*
X22175Y-32335D01*
X22185Y-32325D01*
X22203Y-32316D01*
X22231Y-32316D01*
X22250Y-32325D01*
X22260Y-32335D01*
X22269Y-32353D01*
X22269Y-32428D01*
X22166Y-32147D02*
X22166Y-32185D01*
X22175Y-32203D01*
X22185Y-32213D01*
X22213Y-32231D01*
X22250Y-32241D01*
X22325Y-32241D01*
X22344Y-32231D01*
X22353Y-32222D01*
X22363Y-32203D01*
X22363Y-32166D01*
X22353Y-32147D01*
X22344Y-32138D01*
X22325Y-32128D01*
X22278Y-32128D01*
X22260Y-32138D01*
X22250Y-32147D01*
X22241Y-32166D01*
X22241Y-32203D01*
X22250Y-32222D01*
X22260Y-32231D01*
X22278Y-32241D01*
X21418Y-32316D02*
X21324Y-32381D01*
X21418Y-32428D02*
X21221Y-32428D01*
X21221Y-32353D01*
X21230Y-32335D01*
X21240Y-32325D01*
X21258Y-32316D01*
X21287Y-32316D01*
X21305Y-32325D01*
X21315Y-32335D01*
X21324Y-32353D01*
X21324Y-32428D01*
X21221Y-32138D02*
X21221Y-32231D01*
X21315Y-32241D01*
X21305Y-32231D01*
X21296Y-32213D01*
X21296Y-32166D01*
X21305Y-32147D01*
X21315Y-32138D01*
X21333Y-32128D01*
X21380Y-32128D01*
X21399Y-32138D01*
X21408Y-32147D01*
X21418Y-32166D01*
X21418Y-32213D01*
X21408Y-32231D01*
X21399Y-32241D01*
X20394Y-32316D02*
X20300Y-32381D01*
X20394Y-32428D02*
X20197Y-32428D01*
X20197Y-32353D01*
X20207Y-32335D01*
X20216Y-32325D01*
X20235Y-32316D01*
X20263Y-32316D01*
X20282Y-32325D01*
X20291Y-32335D01*
X20300Y-32353D01*
X20300Y-32428D01*
X20263Y-32147D02*
X20394Y-32147D01*
X20188Y-32194D02*
X20329Y-32241D01*
X20329Y-32119D01*
X28347Y-32488D02*
X28253Y-32554D01*
X28347Y-32601D02*
X28150Y-32601D01*
X28150Y-32526D01*
X28159Y-32507D01*
X28169Y-32498D01*
X28188Y-32488D01*
X28216Y-32488D01*
X28234Y-32498D01*
X28244Y-32507D01*
X28253Y-32526D01*
X28253Y-32601D01*
X28347Y-32301D02*
X28347Y-32413D01*
X28347Y-32357D02*
X28150Y-32357D01*
X28178Y-32376D01*
X28197Y-32395D01*
X28206Y-32413D01*
X28347Y-32113D02*
X28347Y-32226D01*
X28347Y-32170D02*
X28150Y-32170D01*
X28178Y-32188D01*
X28197Y-32207D01*
X28206Y-32226D01*
X29292Y-32488D02*
X29198Y-32554D01*
X29292Y-32601D02*
X29095Y-32601D01*
X29095Y-32526D01*
X29104Y-32507D01*
X29114Y-32498D01*
X29132Y-32488D01*
X29161Y-32488D01*
X29179Y-32498D01*
X29189Y-32507D01*
X29198Y-32526D01*
X29198Y-32601D01*
X29292Y-32301D02*
X29292Y-32413D01*
X29292Y-32357D02*
X29095Y-32357D01*
X29123Y-32376D01*
X29142Y-32395D01*
X29151Y-32413D01*
X29114Y-32226D02*
X29104Y-32216D01*
X29095Y-32198D01*
X29095Y-32151D01*
X29104Y-32132D01*
X29114Y-32123D01*
X29132Y-32113D01*
X29151Y-32113D01*
X29179Y-32123D01*
X29292Y-32235D01*
X29292Y-32113D01*
X23426Y-21424D02*
X23585Y-21424D01*
X23604Y-21415D01*
X23613Y-21406D01*
X23622Y-21387D01*
X23622Y-21349D01*
X23613Y-21331D01*
X23604Y-21321D01*
X23585Y-21312D01*
X23426Y-21312D01*
X23622Y-21115D02*
X23622Y-21227D01*
X23622Y-21171D02*
X23426Y-21171D01*
X23454Y-21190D01*
X23473Y-21209D01*
X23482Y-21227D01*
X23426Y-20993D02*
X23426Y-20974D01*
X23435Y-20956D01*
X23444Y-20946D01*
X23463Y-20937D01*
X23501Y-20928D01*
X23547Y-20928D01*
X23585Y-20937D01*
X23604Y-20946D01*
X23613Y-20956D01*
X23622Y-20974D01*
X23622Y-20993D01*
X23613Y-21012D01*
X23604Y-21021D01*
X23585Y-21031D01*
X23547Y-21040D01*
X23501Y-21040D01*
X23463Y-21031D01*
X23444Y-21021D01*
X23435Y-21012D01*
X23426Y-20993D01*
X26890Y-21897D02*
X27050Y-21897D01*
X27068Y-21887D01*
X27078Y-21878D01*
X27087Y-21859D01*
X27087Y-21822D01*
X27078Y-21803D01*
X27068Y-21794D01*
X27050Y-21784D01*
X26890Y-21784D01*
X27087Y-21587D02*
X27087Y-21700D01*
X27087Y-21644D02*
X26890Y-21644D01*
X26918Y-21662D01*
X26937Y-21681D01*
X26946Y-21700D01*
X27087Y-21400D02*
X27087Y-21512D01*
X27087Y-21456D02*
X26890Y-21456D01*
X26918Y-21475D01*
X26937Y-21494D01*
X26946Y-21512D01*
X26811Y-25583D02*
X26971Y-25583D01*
X26990Y-25573D01*
X26999Y-25564D01*
X27008Y-25545D01*
X27008Y-25508D01*
X26999Y-25489D01*
X26990Y-25479D01*
X26971Y-25470D01*
X26811Y-25470D01*
X26896Y-25348D02*
X26886Y-25367D01*
X26877Y-25376D01*
X26858Y-25386D01*
X26849Y-25386D01*
X26830Y-25376D01*
X26821Y-25367D01*
X26811Y-25348D01*
X26811Y-25311D01*
X26821Y-25292D01*
X26830Y-25283D01*
X26849Y-25273D01*
X26858Y-25273D01*
X26877Y-25283D01*
X26886Y-25292D01*
X26896Y-25311D01*
X26896Y-25348D01*
X26905Y-25367D01*
X26915Y-25376D01*
X26933Y-25386D01*
X26971Y-25386D01*
X26990Y-25376D01*
X26999Y-25367D01*
X27008Y-25348D01*
X27008Y-25311D01*
X26999Y-25292D01*
X26990Y-25283D01*
X26971Y-25273D01*
X26933Y-25273D01*
X26915Y-25283D01*
X26905Y-25292D01*
X26896Y-25311D01*
X26811Y-29677D02*
X26971Y-29677D01*
X26990Y-29668D01*
X26999Y-29658D01*
X27008Y-29640D01*
X27008Y-29602D01*
X26999Y-29583D01*
X26990Y-29574D01*
X26971Y-29565D01*
X26811Y-29565D01*
X26811Y-29377D02*
X26811Y-29471D01*
X26905Y-29480D01*
X26896Y-29471D01*
X26886Y-29452D01*
X26886Y-29405D01*
X26896Y-29386D01*
X26905Y-29377D01*
X26924Y-29368D01*
X26971Y-29368D01*
X26990Y-29377D01*
X26999Y-29386D01*
X27008Y-29405D01*
X27008Y-29452D01*
X26999Y-29471D01*
X26990Y-29480D01*
X23347Y-29756D02*
X23506Y-29756D01*
X23525Y-29746D01*
X23534Y-29737D01*
X23544Y-29718D01*
X23544Y-29681D01*
X23534Y-29662D01*
X23525Y-29653D01*
X23506Y-29643D01*
X23347Y-29643D01*
X23413Y-29465D02*
X23544Y-29465D01*
X23338Y-29512D02*
X23478Y-29559D01*
X23478Y-29437D01*
X19882Y-21646D02*
X20042Y-21646D01*
X20060Y-21636D01*
X20070Y-21627D01*
X20079Y-21608D01*
X20079Y-21571D01*
X20070Y-21552D01*
X20060Y-21542D01*
X20042Y-21533D01*
X19882Y-21533D01*
X20079Y-21430D02*
X20079Y-21392D01*
X20070Y-21374D01*
X20060Y-21364D01*
X20032Y-21346D01*
X19995Y-21336D01*
X19920Y-21336D01*
X19901Y-21346D01*
X19892Y-21355D01*
X19882Y-21374D01*
X19882Y-21411D01*
X19892Y-21430D01*
X19901Y-21439D01*
X19920Y-21449D01*
X19967Y-21449D01*
X19985Y-21439D01*
X19995Y-21430D01*
X20004Y-21411D01*
X20004Y-21374D01*
X19995Y-21355D01*
X19985Y-21346D01*
X19967Y-21336D01*
X19882Y-25740D02*
X20042Y-25740D01*
X20060Y-25731D01*
X20070Y-25721D01*
X20079Y-25703D01*
X20079Y-25665D01*
X20070Y-25646D01*
X20060Y-25637D01*
X20042Y-25628D01*
X19882Y-25628D01*
X19882Y-25449D02*
X19882Y-25487D01*
X19892Y-25506D01*
X19901Y-25515D01*
X19929Y-25534D01*
X19967Y-25543D01*
X20042Y-25543D01*
X20060Y-25534D01*
X20070Y-25524D01*
X20079Y-25506D01*
X20079Y-25468D01*
X20070Y-25449D01*
X20060Y-25440D01*
X20042Y-25431D01*
X19995Y-25431D01*
X19976Y-25440D01*
X19967Y-25449D01*
X19957Y-25468D01*
X19957Y-25506D01*
X19967Y-25524D01*
X19976Y-25534D01*
X19995Y-25543D01*
X19882Y-29756D02*
X20042Y-29756D01*
X20060Y-29746D01*
X20070Y-29737D01*
X20079Y-29718D01*
X20079Y-29681D01*
X20070Y-29662D01*
X20060Y-29653D01*
X20042Y-29643D01*
X19882Y-29643D01*
X19882Y-29568D02*
X19882Y-29446D01*
X19957Y-29512D01*
X19957Y-29484D01*
X19967Y-29465D01*
X19976Y-29456D01*
X19995Y-29446D01*
X20042Y-29446D01*
X20060Y-29456D01*
X20070Y-29465D01*
X20079Y-29484D01*
X20079Y-29540D01*
X20070Y-29559D01*
X20060Y-29568D01*
X23268Y-25740D02*
X23428Y-25740D01*
X23446Y-25731D01*
X23456Y-25721D01*
X23465Y-25703D01*
X23465Y-25665D01*
X23456Y-25646D01*
X23446Y-25637D01*
X23428Y-25628D01*
X23268Y-25628D01*
X23268Y-25553D02*
X23268Y-25421D01*
X23465Y-25506D01*
%LPC*%
G54D16*
X27287Y-31796D03*
X27287Y-31204D03*
X24787Y-31796D03*
X24787Y-31204D03*
X23787Y-31796D03*
X23787Y-31204D03*
X25787Y-31796D03*
X25787Y-31204D03*
X22287Y-31796D03*
X22287Y-31204D03*
X21287Y-31796D03*
X21287Y-31204D03*
X20275Y-31792D03*
X20275Y-31200D03*
X28287Y-31796D03*
X28287Y-31204D03*
X29287Y-31796D03*
X29287Y-31204D03*
G54D17*
X25476Y-20565D03*
X24098Y-20565D03*
X24787Y-20565D03*
X24787Y-22435D03*
X24098Y-22435D03*
X25476Y-22435D03*
X28976Y-20565D03*
X27598Y-20565D03*
X28287Y-20565D03*
X28287Y-22435D03*
X27598Y-22435D03*
X28976Y-22435D03*
X28976Y-24565D03*
X27598Y-24565D03*
X28287Y-24565D03*
X28287Y-26435D03*
X27598Y-26435D03*
X28976Y-26435D03*
X28976Y-28565D03*
X27598Y-28565D03*
X28287Y-28565D03*
X28287Y-30435D03*
X27598Y-30435D03*
X28976Y-30435D03*
X25476Y-28565D03*
X24098Y-28565D03*
X24787Y-28565D03*
X24787Y-30435D03*
X24098Y-30435D03*
X25476Y-30435D03*
X21976Y-20565D03*
X20598Y-20565D03*
X21287Y-20565D03*
X21287Y-22435D03*
X20598Y-22435D03*
X21976Y-22435D03*
X21976Y-24565D03*
X20598Y-24565D03*
X21287Y-24565D03*
X21287Y-26435D03*
X20598Y-26435D03*
X21976Y-26435D03*
X21976Y-28565D03*
X20598Y-28565D03*
X21287Y-28565D03*
X21287Y-30435D03*
X20598Y-30435D03*
X21976Y-30435D03*
X25476Y-24565D03*
X24098Y-24565D03*
X24787Y-24565D03*
X24787Y-26435D03*
X24098Y-26435D03*
X25476Y-26435D03*
G54D18*
X18500Y-24500D03*
G54D19*
X18500Y-25500D03*
G54D18*
X18500Y-22500D03*
G54D19*
X18500Y-21500D03*
X18500Y-20500D03*
X18500Y-19500D03*
G54D18*
X18500Y-27500D03*
G54D19*
X18500Y-28500D03*
X18500Y-29500D03*
X18500Y-30500D03*
X18500Y-31500D03*
X18500Y-32500D03*
M02*
