M48
;DRILL file {Pcbnew (2013-mar-30)-stable} date Wed 05 Jun 2013 10:09:22 PM CEST
;FORMAT={-:-/ absolute / metric / decimal}
FMAT,2
METRIC,TZ
T1C0.400
T2C1.001
%
G90
G05
M71
T1
X45.15Y-55.65
X45.6Y-66.8
X46.05Y-59.6
X48.9Y-49.1
X49.05Y-82.75
X49.65Y-75.8
X49.7Y-60.5
X50.7Y-63.1
X51.Y-72.8
X52.15Y-65.2
X54.05Y-65.4
X55.25Y-80.8
X55.9Y-82.9
X56.1Y-69.5
X56.7Y-49.1
X56.904Y-60.128
X57.4Y-69.6
X57.4Y-72.2
X57.6Y-83.2
X58.2Y-78.2
X58.515Y-51.435
X58.515Y-53.721
X58.6Y-80.6
X58.7Y-70.7
X58.95Y-67.2
X59.Y-58.9
X59.4Y-55.1
X59.4Y-62.1
X59.7Y-69.2
X60.8Y-82.7
X62.1Y-54.8
X63.8Y-54.6
X64.6Y-64.2
X64.6Y-70.2
X64.8Y-68.8
X64.9Y-60.4
X66.2Y-62.6
X66.8Y-67.2
X66.9Y-52.5
X68.6Y-69.8
X71.4Y-74.4
X71.9Y-65.2
X72.3Y-59.
X73.2Y-59.8
X74.Y-50.5
X74.1Y-59.
X76.8Y-55.
X77.Y-77.6
X77.2Y-83.1
T2
X46.99Y-49.53
X46.99Y-52.07
X46.99Y-54.61
X46.99Y-57.15
X46.99Y-62.23
X46.99Y-64.77
X46.99Y-69.85
X46.99Y-72.39
X46.99Y-74.93
X46.99Y-77.47
X46.99Y-80.01
X46.99Y-82.55
T0
M30
